<?xml version="1.0" encoding="utf-8"?>
<!-- Generator: Adobe Illustrator 19.1.0, SVG Export Plug-In . SVG Version: 6.00 Build 0)  -->
<svg version="1.1" id="Layer_1" xmlns="http://www.w3.org/2000/svg" xmlns:xlink="http://www.w3.org/1999/xlink" x="0px" y="0px"
	 viewBox="0 0 238.4 220.2" style="enable-background:new 0 0 238.4 220.2;" xml:space="preserve">
<style type="text/css">
	.st0{fill:#ED324E;}
	.st1{fill:#EB324E;}
	.st2{fill:none;stroke:#000000;stroke-width:4;stroke-miterlimit:10;}
	.st3{fill:none;stroke:#000000;stroke-width:12;stroke-miterlimit:10;}
	.st4{fill:none;stroke:#000000;stroke-width:9.7334;stroke-miterlimit:10;}
	.st5{fill:none;stroke:#000000;stroke-width:20;stroke-miterlimit:10;}
	.st6{fill:#FFFFFF;}
</style>
<g>
	<path d="M219.7,57.9c0,0.8,0,1.6,0,2.3c0,33.3,0,66.5,0,99.8c0,1.5-0.4,2.5-1.7,3.4c-10.4,7.7-20.7,15.5-31,23.1
		c-0.8,0.6-2.2,1.1-3.1,0.9c-8.8-1.9-17.6-4-26.4-5.9c-1.7-0.4-2-1-2-2.6c0-20,0-40,0-60c0-1.2,0-2.3,0-3.6
		c-1.5-0.1-2.7-0.2-4.4-0.3c0,0.8,0,1.6,0,2.3c0,11.1,0,22.3,0,33.4c0,1.3-0.4,2.1-1.4,2.9c-9.3,7.6-18.6,15.2-27.9,22.8
		c-1.3,1.1-2.5,1.5-4.2,1.3c-9.2-1.5-18.4-2.8-27.8-4.3c0-23.9,0-47.6,0-71.6c-1.5-0.2-2.9-0.3-4.6-0.5c0,1,0,1.8,0,2.6
		c0,13.2,0,26.4,0,39.6c0,1.5-0.4,2.5-1.6,3.4c-9.1,6.8-18.1,13.6-27.2,20.4c-0.8,0.6-2.1,0.9-3.1,0.8c-10.7-1.5-21.3-3.2-32-4.7
		c-1.6-0.2-2.3-0.7-2.3-2.5c0.1-33.8,0.1-67.6,0-101.4c0-1.4,0.4-2.4,1.6-3.2c10-7.5,19.9-15.1,29.9-22.6c0.8-0.6,2.1-0.9,3.1-0.7
		c18.6,2.7,37.2,5.5,55.9,8.3c20.3,3.1,40.6,6.2,60.9,9.2c15.8,2.4,31.7,4.8,47.6,7.2C218.5,57.6,219.1,57.8,219.7,57.9z
		 M56.2,156.7c7.3-5.4,14.2-10.5,21.2-15.6c1.3-0.9,1.8-1.9,1.8-3.5c-0.1-22.7,0-45.5,0-68.2c0-0.9,0-1.7,0-3
		c14.1,2.1,27.8,4.1,41.8,6.1c0,31.3,0,62.4,0,93.8c7.4-5.7,14.4-11.3,21.6-16.6c1.9-1.4,2.5-2.9,2.5-5.2
		C145,122.6,145,100.8,145,79c0-0.9,0-1.9,0-3c14,2.1,27.7,4.1,41.6,6.1c0,31.3,0,62.5,0,93.8c0.6-0.3,0.9-0.5,1.2-0.7
		c7.4-5.5,14.7-11.1,22.2-16.5c1.1-0.8,1.1-1.8,1.1-2.8c0-29.6,0-59.2,0-88.7c0-0.7,0-1.5,0-2.3C159.4,57,107.9,49.2,56.2,41.4
		C56.2,79.9,56.2,118.1,56.2,156.7z"/>
</g>
</svg>
