<!-- Generator: Adobe Illustrator 19.1.0, SVG Export Plug-In  -->
<svg version="1.1"
	 xmlns="http://www.w3.org/2000/svg" xmlns:xlink="http://www.w3.org/1999/xlink" xmlns:a="http://ns.adobe.com/AdobeSVGViewerExtensions/3.0/"
	 x="0px" y="0px" width="982.9px" height="842px" viewBox="0 0 982.9 842" style="enable-background:new 0 0 982.9 842;"
	 xml:space="preserve">
<style type="text/css">
	.st0{fill:none;}
	.st1{fill:#FFFFFF;}
</style>
<defs>
</defs>
<g>
	<path class="st0" d="M688.2,381c-6.5-24.1-29.6-28.1-51.4-25.7c-11.5,1.2-10.4,7.1-10.7,17.2c-0.4,12.1-0.5,24.6,0,36.7
		c0.2,6.1-1.2,23.9,1.7,29.1c4.7,8.3,17.6,3.3,24.5,0.9C674.9,430.2,695,406.2,688.2,381z"/>
	<path class="st0" d="M767.3,455.1C766.8,455.2,767.3,455.1,767.3,455.1L767.3,455.1z"/>
	<path class="st0" d="M162.7,152.4c0,0,0,0.1,0,0.1C162.9,152.7,162.9,152.8,162.7,152.4z"/>
	<path class="st0" d="M679.5,566.6c-9.7-9.2-24.2-9.4-25.5,5.1c-0.6,6.8-2.8,22,0.2,27.7c4.2,8.2,20.3,3.2,24.5-3.4
		C685.2,586.1,689.6,576.2,679.5,566.6z"/>
	<path class="st0" d="M383.5,150.9c17.3-2.1,33.7-7.8,51.2-8.6c17.7-0.8,36.4-1.9,53.9-3.5c0,0.6,0,1.2,0,1.8l0,0
		c5.1-6.7,39.6,0.6,50,1.7c9.2,0.9,17.8,2.8,26.7,4.9c5.4,1.3,8.1,2.8,9.8-1.3c3.9-9.9-12.7-33-18-39.9c-8.2-10.8-16.7-18.3-28-25.9
		c-23.4-15.7-55.4-21.6-82.1-10.1c-23.4,10.1-39.9,26-53.5,46.9c-4,6.1-6.2,21.9-11.5,23.6c-0.4,0.1-1.1,0.1-2,0.1
		C384.7,142,382.8,141.2,383.5,150.9z"/>
	<path class="st0" d="M356.3,278.8c45.6-1.2,91.6,2,137.3,1.9c92.4-0.1,185.3-3,277.1-1.2c-9.5-11.5-24.2-21.9-35.5-31.8
		c-25-21.9-59.1-41.2-90-53.2c-30.3-11.7-66-24.3-98.5-26.5c-16.7-1.1-33.4-3.5-50.3-4.6c-8.1-0.5-6.1,1.4-8-4.6l0,0
		c0,1.5,0,3,0,4.5c-27.5-4.7-59.2,4.6-86.1,8.4c-24,3.4-52.5,11.4-74.6,21.1c-48.6,21.3-90.8,49.1-128.5,86.3
		C251.4,276,304,280.1,356.3,278.8z"/>
	<path class="st0" d="M39.5,250.6c0,0,0,0.1,0,0.1C39.7,250.9,39.7,251,39.5,250.6z"/>
	<path class="st1" d="M96.4,479.8c9.7-25.2-2.9-47.5-20.5-65.1c-11.9-11.8-43.2-25.1-46.4-42.6c-2.4-13.4,12.9-22.4,24.6-19.5
		c10.2,2.6,26.3,17.5,32.7-0.4c9.7-27.1-44.6-28.1-57.9-21.5c-26.1,12.9-30.6,43.7-13.3,65.9c14.1,18.1,72.3,45.4,56.6,75.2
		c-6.2,11.8-20.2,14.5-32,11.4c-10.5-2.8-16.2-13.8-26.5-15.4c-17.5-2.7-16.3,18.2-7.4,26.8c9.1,8.8,24.7,14.9,37.3,15
		C65.7,509.6,87.8,502.3,96.4,479.8z"/>
	<path class="st1" d="M134.4,326.3C129.7,326.7,134.6,326.3,134.4,326.3L134.4,326.3z"/>
	<path class="st1" d="M125.5,466.2c5.6,5.8,17.9,5.2,23.1-1.2c7.5-9.2-0.4-35.9-0.7-47.9c-0.2-9.2,0.8-18,1-27.2
		c0.1-4.3-2.9-13.6-1.5-16.9c3.2-7.7,10.3,2.2,14.2,6.1c7.3,7.3,15.6,24.3,24.7,28.7c14.5,7,29.3-18.6,39.5-26.8
		c6.1-4.8,7.3-8.7,10.3-0.8c1.8,4.8,1.3,13.3,1.6,18.6c0.5,11.4,1,23,0.5,34.5c-0.5,12.9-7.1,45,18.1,37c16-5.1,6-55.1,6.1-69.8
		c0.2-14.3-1.1-29.6,0-43.8c0.6-8.3,5.3-16.6-0.4-24.2c-8.2-10.9-16.2-5.4-22.6,2c-7.5,8.6-17,18-26,25.3c-4.2,3.5-12,12.1-17,14.3
		c-6.5,2.8-7-0.1-11.7-5c-6-6.3-11.7-12.7-17.9-18.9c-6.5-6.5-22.4-24.6-32.5-23.8c-16.4,1.3-12,18.5-11.3,28.4
		c1,14.6,1.1,29.7,1.2,44.3c0.1,14.3,0.1,29.1-0.9,43.5C122.8,450.3,119.4,459.9,125.5,466.2z"/>
	<path class="st1" d="M411.2,497.2c0-10.2-9.5-12.4-16.5-16.4c-10.7-6.2-20-14.6-29.3-22.6c-7.4-6.4-27.5-15.6-24.9-25
		c2.3-8,17.8-21.4,23.6-27.9c7.6-8.4,15.3-16.7,22.6-25.4c8.4-10,23.8-22.9,25.1-36.5c1.1-11.2-7.4-20.4-18.1-14.2
		c-7.9,4.6-10,15.7-15.6,22.4c-18.9,22.7-37.2,49.3-58.4,69.6c-5.6-3-1.1-29-1.2-33.5c-0.3-12.8-1.5-25,0.3-37.7
		c1.3-9,1.9-19.5-8.9-23.2c-12-4.1-18.8,5.9-18.2,16.1c0.7,13,1.2,25.3,1.6,38.4c1.1,35.2,2.4,71.6-1.1,106.7
		c-1,10.3,0.2,20.4,13,20.8c17.7,0.5,13.6-14,12.7-25.5c-0.5-6.2-1.3-15.6-0.6-22c0.9-7.6-0.3-6,5.5-3.5
		c11.6,4.9,24.9,19.2,34.7,27.2c7.2,5.9,14.2,12.6,21.6,18.1C387.6,509.3,411.2,514.7,411.2,497.2z"/>
	<path class="st1" d="M574.5,497.2c0-13.8-2.1-28.2-2.7-42.1c-0.5-11.3,1.3-22.6,1.1-33.9c-0.3-18.6-0.3-37.5-1.3-56
		c-0.4-8.1,2.2-15.3,2.1-23.1c-0.1-12.5-13.8-20.7-23.2-11.5c-9.6,9.5-17.7,20.4-28.6,29.3c-3.9,3.2-13.5,13.8-18,14.8
		c-5.9,1.4-7-1.7-11-6.3c-11.3-12.5-44.1-56-59.8-35c-6.7,8.9-1.5,28.3-1.4,39.5c0.1,18.5-0.6,37,0.3,55.4
		c0.7,14.5-0.2,28.9,0.2,43.3c0.2,9.2-5.1,24.2,0.7,32c6.3,8.7,22.7,6.6,26.4-3.6c2.7-7.5-1.8-17.8-2.4-25.6
		c-0.7-9.2,0.6-18.1,0.7-27.3c0.2-11.7,0.6-22.6-0.4-34.2c-0.5-5.2-0.6-8.9-0.3-14.2c0.5-7.4-1.4-16.1-0.5-23.1
		c1.4-11.6,8.5-2.3,14,3.4c5.3,5.5,10.1,11.6,15,17.5c6.5,7.8,11.3,16.6,22.7,10.6c9.6-5.1,17.5-19.3,26.6-26.2
		c11.7-8.9,9.9-2.9,11.1,9.6c0.8,8.5,1.1,16.5,0.5,25c-0.9,14.1,1,28.1,0.1,42.3c-0.4,7,1.3,13.9,0.9,20.7
		c-0.4,6.8-4.7,14.7-2.1,21.4C550,513.1,574.5,513.3,574.5,497.2z"/>
	<path class="st1" d="M970.7,325.8c-11.6,0-23.2,1.8-34.9,1.3c-5.7-0.2-11.6-0.7-17.3-0.7c-10.1,0-26.3-2.1-36.1-0.4
		c-15.5,2.7-16.3,24.7-0.6,27.3c7.9,1.3,19.8-6.8,27.3-0.8c6,4.8,2.7,23.1,3,29.6c0.5,11.7-1,23-0.7,34.6
		c0.4,15.2-0.1,30.2-0.1,45.4c0,9.9-1.4,20.4-1.1,30.1c0.3,11.5,12.4,22.8,24,14.4c10.2-7.4,2.8-22.9,2.9-33.2
		c0-6.1,0.5-12.7,0.5-18.5c-0.1-12.6,0.6-25.4-0.3-38c-0.8-11,0.9-22,0.2-32.8c-0.5-7.3-4.6-24.7,0.1-31c5.5-7.4,22.3,0.4,29.5,0.5
		C985.7,353.8,989.2,325.8,970.7,325.8z"/>
	<path class="st1" d="M767.3,455.1C767.3,455.1,766.8,455.2,767.3,455.1c5.4,0,17.5,12.8,21.4,15.8c7.3,5.7,14.7,11.5,21.9,17.3
		c10.5,8.5,32.7,33.5,46.4,16.1c12.2-15.5-18.2-26.1-26.8-32.7c-7.9-6-15-13-22.8-19.2c-4.3-3.4-14.7-8.3-17.3-13.1
		c-4.2-7.7,8.2-16.1,13.7-22.7c5.9-7.1,11.6-14,18.3-20.5c7.9-7.7,19.9-16.8,7.4-27.2c-15-12.4-23.5,4.8-30.8,15.2
		c-8.6,12.3-19.3,26.8-30.1,37.2c-4.6-2.5-1.8-23.2-1.4-26.6c0.6-6.1,3.2-13.9,1-19.9c-3.2-8.9-14.1-13-22.1-7.7
		c-9.8,6.5-4.2,20.1-3.9,29.6c0.2,8.5-0.3,17.1,0,25.6c0.4,15.3-0.5,30.4-0.1,45.5c0.3,9.3-3.5,21.8-1.3,30.6
		c2.2,8.9,11.7,13,20.3,9.1c9.5-4.3,7.4-11,6.7-19.7C767.5,485,764.4,456,767.3,455.1z"/>
	<path class="st1" d="M793,329.4c-10.3-0.5-69.7-7.9-53.8,17.2c4.2,6.7,13.7,7.9,20.6,7.5c13.6-0.8,26.3-2.8,40-2.1
		c11.2,0.6,48.9,8.2,49.5-10.2C850,320.6,806.5,330.4,793,329.4z"/>
	<path class="st1" d="M189.2,507.4c13.8,0.2,76.7,9.5,76.7-11.8c0-19.9-59.3-12.5-73.4-12.5c-14.5-0.1-61.6-7.4-68.5,6.5
		C111.2,515.4,175.4,507.3,189.2,507.4z"/>
	<path class="st1" d="M718.5,496.9c0-16.7-23.2-15.1-33.9-20.2c-6.8-3.2-19.4-10.2-24.5-15.8c7.4-5.7,18.4-7.8,26.3-13.8
		c7.6-5.8,15.2-12.9,20.2-21.2c9-14.7,10.1-34.5,5.5-50.6c-5.3-18.3-17.6-35.5-36-42.5c-10.3-3.9-21-1.6-31.7-1.8
		c-11.1-0.2-30.9-6.1-40.2,1.8c-8.9,7.6-2.7,18.5-2.4,28.2c0.3,12.3,0.7,25.3,0.6,37.6c-0.1,14-1.3,27.6-0.7,41.7
		c0.6,13.4,0.6,27.4-0.1,40.8c-0.5,9.3-4.4,22.8,5.6,28.6c14.1,8.1,22.1-5,20.7-16.7c-0.9-8.1-6.1-26.7,5.4-23.1
		c6.5,2,13.3,11.6,19.3,15.8c8,5.5,15.9,11.6,24.1,16.9C687,509.1,718.5,519.9,718.5,496.9z M652.3,439.1
		c-6.9,2.4-19.8,7.5-24.5-0.9c-2.9-5.1-1.5-23-1.7-29.1c-0.5-12.1-0.4-24.6,0-36.7c0.3-10.1-0.8-16,10.7-17.2
		c21.8-2.3,44.9,1.6,51.4,25.7C695,406.2,674.9,430.2,652.3,439.1z"/>
	<path class="st1" d="M268.9,638.3c2.8,7.4,6.7,7.2,14.1,6.6c10.5-0.8,8.6-1.5,11.1-12.6c0.6-2.8,5.2-33,7.9-33.5
		c4.1,2.1,6.9,22.8,8.3,28.1c2.7,10.5,0.2,18.5,13.3,18.6c7.3,0.1,9.3,1.1,12.2-6.8c2.2-6,2.7-14.9,4.3-21.4
		c2.7-11.7,5.3-23.3,8-34.9c1.2-5,2.3-10.2,3.7-15.2c1.3-4.7,7.2-13.7,6.7-18.1c-0.9-8.2-16.6-9.7-22.1-4.5
		c-5.2,5-4.8,19.9-6.2,26.6c-2.5,11.4-4.8,23-7.7,34.3c-3.2-10.7-5.7-21.7-8.3-32.5c-2.6-11,2.4-30.6-12.3-30.7
		c-13.8-0.1-9.3,17.9-11.4,28.2c-2.2,11.2-3.7,24.2-7.6,34.8c-3.2-4.8-3.4-16.5-4.8-22.5c-1.5-6.7-3.1-13.6-4.2-20.4
		c-1.9-12,1-20.5-13.6-20.2c-19.2,0.3-6.6,10.2-6.6,21.3c0.3,2.2,0.2,1.7,0.1,1c1.9,14.4,5.8,29,9.1,43
		C264.9,616.7,265.6,629.6,268.9,638.3z"/>
	<path class="st1" d="M382,645.3c8.2-1.9,7-2.8,6.7-11.2c-0.2-9.3-0.6-18.4-0.6-27.6c-0.1-15.7-1.1-31.9-0.5-47.8
		c0.4-10.6,1.3-18-11.9-16.6c-10.9,1.2-8.3,6.4-7.9,16.6c0.3,6.3,0.2,12.6,0.4,19c0.6,20.3-1.1,40.7-1.1,60.8
		C367.2,645.1,376.9,646.5,382,645.3z"/>
	<path class="st1" d="M442.1,607.4c6,9.9,10.8,24.1,17.9,32.9c5.3,6.6,19.8,8.7,22.1-1c1.1-4.7-1-13.2-1.1-18.4
		c-0.1-6.3,0.1-12.5,0-18.8c0-11.6-0.7-23.1-1.1-34.6c-0.2-5.8,3.7-16.2,0.4-21.5c-3.1-4.8-14.3-6.3-18.4-1.6
		c-1.8,2.1,0.1,57.3-0.4,57.3c-4.7,0-15.7-25.7-18.2-29.9c-5.5-9.2-11.5-26.9-22.3-29.5c-19-4.7-15.1,8.5-14.3,21
		c0.7,10,0.2,20.4,0.3,30.6c0.1,8.7-0.1,17.5-0.3,26.2c-0.2,11.6-3.9,30.6,14.5,25c9.1-2.8,5.7-5.9,5.3-14.9
		c-0.3-5.9,0.1-12,0.2-17.9c0.1-8.6-2-20.1,0.2-28.1C427.1,588.3,439.8,603.6,442.1,607.4z"/>
	<path class="st1" d="M538.3,561c10.2,0,17.7,4.3,17.2-8.9c-0.5-11-6.2-9.8-15.8-9.7c-8,0.1-16-0.2-24.1-0.3
		c-4.3-0.1-18-1.9-21.5,0.2c-3.9,2.4-5.7,10.1-3.6,14.6c4.4,9.6,12-0.1,18.5,4.2c8.4,5.7,3.2,33.2,3.2,42.2c0.1,9.3,0,17.9-0.5,27.1
		c-0.4,8-1.4,12.5,6.6,14.9c4.2,1.2,12.6,0.2,14.9-3.2C539.4,633.2,522.4,561,538.3,561z"/>
	<path class="st1" d="M598.2,560c5.3,0,11.7,2,16.9,1.2c5.9-0.9,4.6,0.6,6.3-5.2c0.7-2.4,0-10.3-1.7-12c-4.8-4.9-36.4-1.9-43.5-1.6
		c-12.4,0.5-11.7,4.6-11.2,15.2c0.4,8.3,0.4,16.8,0.4,25.1c-0.1,17.7-1.4,35.7-1.4,53.3c0,12.9,37.9,10.8,49.2,9.6
		c8.8-0.9,7.7-2.5,7.2-10.5c-0.6-11.1-2.5-9-13.1-8.1c-10.4,0.8-19.7,1.3-22.4-9.7c-1-4.1-2.2-16.9,0.6-20.5
		c6.6-8.5,23,2.7,30.5-1.2c2.5-1.3,5.3-13.2,2.9-16.3c-3.2-4.1-13.9-2.5-18.7-2.6c-6.5-0.2-14,0.7-15.5-7
		C582.7,559.8,591.4,560,598.2,560z"/>
	<path class="st1" d="M681,544.5c-9.6-3.8-25-2.6-35.5-2.4c-17.6,0.4-11.1,16.1-11,28.9c0.3,21.5-3,44.9-1.1,66.2
		c0.7,8.3,4.2,7.9,11.6,7.7c7.8-0.2,9-0.1,9.6-8.4c0.4-5.6-4.5-16.2,5.1-12.5c5.4,2.1,12.1,12.8,17,16.4c9.3,6.9,27.2,12.7,27.8-3.5
		c0.3-9.6-2.5-7.3-11-9.9c-3.4-1-19.3-9.9-10.1-12.7c1.3-0.5,1.3-0.5,0.9-0.3C715.7,602.1,708.8,555.5,681,544.5z M678.7,595.9
		c-4.2,6.6-20.3,11.6-24.5,3.4c-2.9-5.7-0.8-20.9-0.2-27.7c1.3-14.4,15.9-14.3,25.5-5.1C689.6,576.2,685.2,586.1,678.7,595.9z"/>
	<path class="st1" d="M163.1,303.3C162.1,302.9,161.2,302.6,163.1,303.3c2,0.8,1.1,0.4,0.1,0c9.1,3.5,19.7,0.3,28.8-0.4
		c9.3-0.7,19,0,28.5,0c16,0,32-1.3,48.1-0.6c17.2,0.8,34.4,0.1,51.6-0.2c19-0.3,37.9,2,56.9,1.6c79.4-1.5,158.8-2.3,238.3-0.9
		c34.3,0.6,68.9,0.3,103.1-0.6c18.7-0.5,38.5-0.7,56.7,0.3c9.6,0.6,21.5,4.3,31,0.9c8.2-2.9,13.4-12.6,7.6-20.6
		c-4-5.5-12.4-6.9-17.6-12c-5-4.9-9.9-9.8-14.7-14.9c-11.6-12.1-24-22.4-37.9-31.7c-30.8-20.7-62.4-40.6-97.2-53.9
		c-8.7-3.3-17.2-7-26-9.9c-2.9-1-5.9-1.9-8.8-2.8c-8.6-2.8-6.4-1.8-9.2-8.4c-6-14.2-8.6-29-15.8-43.2c-12-23.7-33.8-46.4-59.2-55.4
		c-65.9-23.3-132.6,3-161.1,66.8c-2.4,5.3-7.6,14.2-3.6,18c-0.8-0.2-1.6-0.3-2.3-0.5c-0.9,4.7-2.3,15.3-4.5,19.1
		c-2.5,4.2-8.7,5.7-14.7,8.2c-9.7,4-19.4,8-29.1,11.9c-25.1,10-50.9,25-73.1,40.6c-18.3,12.9-37.3,26.2-53,42.3
		C177.2,266,138.6,293.7,163.1,303.3z M382.1,140.2c5.4-1.7,7.5-17.4,11.5-23.6c13.5-20.9,30-36.9,53.5-46.9
		c26.7-11.5,58.8-5.6,82.1,10.1c11.3,7.6,19.8,15.1,28,25.9c5.3,6.9,21.9,30.1,18,39.9c-1.7,4.2-4.4,2.6-9.8,1.3
		c-8.9-2.1-17.5-3.9-26.7-4.9c-10.4-1.1-50-2.8-50-3.4c-17.6,1.7-36.2,2.7-53.9,3.5c-17.6,0.8-33.9,6.5-51.2,8.6
		C382.8,141.2,381.7,140.3,382.1,140.2z M327.6,192.9c22.1-9.7,50.6-17.7,74.6-21.1c27-3.8,86.1-8.9,94.2-8.4
		c16.9,1.1,33.6,3.4,50.3,4.6c32.5,2.2,68.2,14.8,98.5,26.5c30.9,12,64.9,31.3,90,53.2c11.3,9.9,26.1,20.3,35.5,31.8
		c-91.7-1.8-184.7,1.2-277.1,1.2c-45.7,0-91.7-3.1-137.3-1.9c-52.3,1.3-104.9-2.8-157.2,0.4C236.9,241.9,279,214.1,327.6,192.9z"/>
	<path class="st1" d="M921,541.8C921,541.7,921,541.7,921,541.8c-6.6,16.3-22.4,35.2-36.5,45.6c-15.9,11.7-31.3,17.5-50,23.9
		c1.5-10.6,5.3-21.2,7.5-31.7c2.6-12.9,2.9-26.3,5.1-39.3c-15.2-0.1-27.6,0.3-41.9,1.8c-21,2.3-42.3,0.4-62.5-0.1
		c-1.7,0-4.9-2.1-5.8-1.7c-3.8,2.1-4.4,23.7-1.3,26.1c2.9,2.3,18.9-1.4,24.3-1c19,1.4,40.4,2,60-0.3c-10.3,69.8-32.7,162.1-95,205.4
		c-32.5,22.5-65.5,34.2-104.6,41.4c-37,6.8-76.2,4-113.6,5.6c-46.5,2-93.5,0.9-139.8-3.8c-19-1.9-36.2-5.2-54.6-10.1
		c-8.3-2.2-17.3-4.7-25.2-8.3c-6.4-2.9-20.1-14.2-25.5-11.1c0,0,0,0,0,0c0.4-0.7,0.9-1.4,1.3-2.2c-0.6-0.3-1.2-0.6-1.8-0.9
		c-30.8-14.7-57.9-51.3-71.3-81.6c-19.5-44-32.5-88.1-41.3-135.5c6.9,2.3,12.3-0.4,19.5-0.3c8.3,0,16.3,0.5,24.5,0.4
		c4.6,0,10.8,1.1,15.1,0.6c5.5-0.6,3.7,5.4,6.2-4.1c0.7-2.5,1.1-21.5-1.9-21.5c-2.1,0-3.6,2.1-6.1,2c-3.6-0.1-6.9-0.1-9.8,0
		c-6.8,0.2-12.5,0.9-19.3,1.4c-18.6,1.3-36.8-3.8-54.7-2.3c3.3,23.4,8.2,46.4,12,69.7c-3.7,0.2-4.7-0.1-5.1,0.5
		c0-0.3-0.1-0.6-0.2-0.9c-0.7-1.6-9.8-3.5-11.6-4.2c-15.2-5.1-29-13.4-41.1-23.9c-10.6-9.1-18.8-19.4-26.3-31.1
		c-6.1-9.5-3.5-8.7-12.3-10.1c-5.8-0.9-12.5,0-18.4,0c8,27.2,27.3,47,47.8,65c8.6,7.5,17.8,13,28.3,17.5c6.9,2.9,13.7,6.3,20.8,8.3
		c6.9,1.9,14,1.6,20.6,5c7.7,3.9,8.4,12.8,11,21.6c2.2,7.3,4.2,14.6,6.5,21.8c4.6,14.9,12.6,28.8,20,42.4c10,18.3,22,33.5,35.9,49
		c11.6,13,26.7,21.4,40.2,32.1c0.4-0.6,0.8-1.3,1.2-1.9c0,4,4.3,5,8.8,7.5c19,10.6,39.7,18.6,61,22.4c38.5,6.9,75.1,10.1,114.2,9.5
		c48.2-0.8,97.4,3.6,145.5,0.1c24.3-1.8,49.5-3.9,72.7-10.7c11.2-3.3,22.8-5.3,33.6-10c11.3-4.9,21.9-11.7,33.1-16.5
		c-0.3-0.6-0.7-1.1-1-1.7c0.6,0.6,1.3,1,1.9,1c4.6,0.2,18.4-12.5,21.1-14.7c16.7-13.5,28.7-28,41.1-45.3
		c18.7-26.2,31.1-55.8,39.7-86.7c2.2-7.8,2.2-14.5,8.3-18.6c5.4-3.7,14.3-3.3,20.6-5.2c16.3-4.9,34.5-14.5,47.4-25.3
		c10.2-8.5,20.4-18,28.6-28.5c8.4-10.8,13.1-25.7,18.1-38.3C941.3,540.2,922.9,537.6,921,541.8z"/>
	<path class="st1" d="M829.4,153.7C829.3,152.8,829.4,154.4,829.4,153.7L829.4,153.7z"/>
	<path class="st1" d="M846.5,196.1c4.7,4.3,8.7,6.9,14.6,9.4c5.6,2.3,7.9,2.4,9.1,0.6c-0.2,0.9-0.4,1.9-0.7,2.8
		c4.1,0.7,9.4,5.4,13.4,2c0,0.1,0,0.2-0.1,0.3c11.5,4.3,25.4,14.8,25.9,29.2c0.3,8.5-3.4,15.6-8.8,21.6
		c-2.9,3.2-13.6,13.5-18.7,11.2c0,0.1,0,0.1,0,0.2c-9.8-4.5-7.5,28.2,1.6,23c1.2-0.7,1.7-2.3,1.7-4.4c0.2,0.9,0.3,1.9,0.5,2.8
		c13.9-6.5,23.9-9,34-21.3c9.2-11.2,11.3-28.8,8.5-43c-2.9-14.3-12.6-27.1-24.7-34.6c-3.1-1.9-12.6-7-15.1-5.3
		c0-0.2,0.1-0.4,0.1-0.6c-14-2.3-29.3-6-36-21.2c-4.7-10.7-3.1-19.7,3.7-28.6c3.1-4,14-17.6,20.6-14.4c-0.1-0.7-0.2-1.3-0.4-2
		c0.5,1.3,1.1,2.3,1.6,2.9c0,0,0,0,0.1,0.1c0.2,0.1,0.2,0.1,0.2,0.1c6.2,3,6.3-34.2-4.3-23.6c-0.4,0.4-0.7,1.3-0.8,2.5
		c-0.1-0.5-0.2-1.1-0.3-1.6c-12.5,5.9-21.4,8-31.2,18.3c-7.8,8.2-12.7,19.7-11.8,31.5C830,171.6,833,183.8,846.5,196.1z"/>
	<path class="st1" d="M687.9,52.5C687.8,51.6,687.9,53.2,687.9,52.5L687.9,52.5z"/>
	<path class="st1" d="M702.6,92.9c4.2,4.2,21.4,18.3,26,12.1c-0.2,0.9-0.3,1.8-0.5,2.6c14,2.3,29.3,6,36,21.2
		c4.7,10.7,3.1,19.7-3.7,28.6c-3.1,4.1-13.9,17.5-20.6,14.4c0.1,0.7,0.2,1.3,0.4,2c-0.5-1.3-1.1-2.3-1.6-2.9c0,0,0,0-0.1-0.1
		c-0.2-0.1-0.2-0.1-0.2-0.1c-6.2-3-6.3,34.2,4.3,23.6c0.4-0.4,0.7-1.3,0.8-2.5c0.1,0.5,0.2,1.1,0.3,1.6c10.5-5,19.1-6.5,27.6-14.7
		c8.4-8,14-16.8,15.6-28.7c3-22.8-7.2-45.3-27.3-56.1c-18.7-10-53.6-8.4-52-39.5c0.4-7.9,3.5-14.1,8.9-19.8
		c2.8-3,13.6-12.4,18.2-10.3c-0.1-0.7-0.2-1.3-0.4-2c0.5,1.3,1.1,2.3,1.6,2.9c0,0,0,0,0.1,0.1c0.2,0.1,0.2,0.1,0.2,0.1
		c6.2,3,6.3-34.2-4.3-23.6c-0.4,0.4-0.7,1.3-0.8,2.5c-0.1-0.5-0.2-1.1-0.3-1.6c-12.5,5.9-21.4,8-31.2,18.3
		c-7.8,8.2-12.7,19.7-11.8,31.5C688.5,68.9,691,81,702.6,92.9z"/>
	<path class="st1" d="M39.6,250.7c5.5,10.7,6.1,20.4,15.9,28.7c8,6.8,17.3,7.2,26,12.3c0.1-0.5,0.2-1.1,0.3-1.6c0,3.1,3.1,5,6.4,3
		c3.7-2.1,3-13.8,2.5-16.9c-1.5-9.6-1.8-5.5-8-6.8c-10.2-2.2-17.1-9.6-21.2-18.7c-4.3-9.6-3-18.6,2-27.8c2.8-5.2,7.3-9.6,12.1-12.1
		c3.8-2,15.5-4.3,21.3-5.3c-0.2-0.7,19.2-7.2,24-12.4c8.6-9.3,12.6-15.4,14.7-28.1c2.3-14.2,1.5-29.3-6.5-42
		c-3.5-5.6-8.9-10-13.8-13.4c-6.8-4.7-14.4-4.9-21-8.8c-0.4,2-0.7,4.1-1.1,6.1c0.8-5,0.9-11.7-5.6-7.5c-4.7,3-4.1,21.3-0.1,24.5
		c-0.4-0.3,10.8,0.3,11.9,0.8c2.3,1.1,6.2,3.8,7.9,5.9c10.7,12.9,13.5,29.3,1.7,43.3c-11.1,13.2-26.4,9.2-41.7,16.6
		c-9.4,4.6-18.6,12.7-23.2,22.5c-4.1,8.7-9.4,28-4.5,37.3C39.7,251,39.7,250.9,39.6,250.7z"/>
	<path class="st1" d="M39.6,250.7c0,0,0-0.1,0-0.1C39.2,250,39.4,250.5,39.6,250.7z"/>
	<path class="st1" d="M162.8,152.5c5.3,10.2,5.9,19.4,14.9,27.7c8.1,7.5,18,7.9,27,13.3c0.1-0.4,0.1-0.8,0.2-1.2
		c0.1,0.7,0.3,1.4,0.7,1.9c6.3,7.3,8.5-7.3,8.6-10.9c0.4-12.7-0.9-10.5-8.3-12.1c-11.7-2.5-18-11.4-22.4-21.7
		c-11.3-26.1,19-39.2,36.7-42.2c-0.1-0.4,0.8-0.6,2.6-0.3c3.7,0.6,12.9-4.7,15.7-6.6c15.5-10.2,21.8-28.5,22-46.5
		c0.1-11.6-4.7-24.9-12.1-33.6c-4.3-5-7-7.3-12.6-10.4c-5.8-3.2-12.9-4-18.2-7.1c0,0.1-0.1,0.3-0.1,0.5c0,0,0,0,0,0
		c-8.9-13.5-13.5,22.4-6.8,22.7c0,0,0,0,0,0c0.3,0,0.1,0,0,0c1.4-0.1,2.8-2.3,4-5.5c-0.3,2.2-0.6,3.7-0.6,3.8c0,0,0,0,0,0
		c4.1-1.7,14.5,5.9,17,8.9c3.8,4.4,6.8,11.2,8.1,16.8c3,12.8-4,27.2-15.5,33.2c-5,2.6-10.8,2.4-13.8,2.4
		c-6.3-0.1-21.3,7.1-26.2,10.3c-6.8,4.5-13.5,12.8-17,20.1c-4,8.2-8.4,27.9-3.9,36.4C162.9,152.8,162.9,152.7,162.8,152.5z"/>
	<path class="st1" d="M162.8,152.5c0,0,0-0.1,0-0.1C162.4,151.8,162.6,152.2,162.8,152.5z"/>
</g>
</svg>
