<!-- Generator: Adobe Illustrator 19.0.1, SVG Export Plug-In  -->
<svg version="1.1" baseProfile="basic"
	 xmlns="http://www.w3.org/2000/svg" xmlns:xlink="http://www.w3.org/1999/xlink" xmlns:a="http://ns.adobe.com/AdobeSVGViewerExtensions/3.0/"
	 x="0px" y="0px" width="99.5px" height="99.5px" viewBox="0 0 99.5 99.5" style="enable-background:new 0 0 99.5 99.5;"
	 xml:space="preserve">
<style type="text/css">
	.st0{fill:#FFFFFF;}
</style>
<defs>
</defs>
<g>
	<g>
		<path class="st0" d="M49.8,99.5C22.3,99.5,0,77.2,0,49.8S22.3,0,49.8,0s49.8,22.3,49.8,49.8S77.2,99.5,49.8,99.5z M49.8,3.3
			C24.1,3.3,3.3,24.1,3.3,49.8s20.8,46.5,46.5,46.5s46.5-20.8,46.5-46.5S75.4,3.3,49.8,3.3z"/>
	</g>
	<g>
		<rect x="41.3" y="64.8" transform="matrix(0.715 0.6991 -0.6991 0.715 65.474 -27.769)" class="st0" width="50.9" height="3.3"/>
	</g>
	<g>
		<rect x="65.9" y="5.2" transform="matrix(0.88 0.475 -0.475 0.88 16.1621 -30.0653)" class="st0" width="3.3" height="23.6"/>
	</g>
	<g>
		<polygon class="st0" points="78.5,27.8 74,30.4 74,33.9 76.8,32.2 76.8,43 80,43 80,27.8 		"/>
	</g>
	<g>
		<g>
			<path class="st0" d="M32.4,67c-0.6-1.2-1.4-1.8-2.4-1.8c-1,0-1.6,0.7-1.6,1.6c0,1.1,1.2,1.9,2.6,2.5c2,0.9,4.8,2.2,4.7,5.1
				c0,3.3-2.1,5.3-5.5,5.3c-1.5,0-2.8-0.5-3.9-1.4c-1.1-0.9-1.8-2.1-2-3.4l2.6-1.6c0.7,2.3,1.8,3.5,3.4,3.5c1.5,0,2.2-0.7,2.2-2.2
				c0-1-1.1-1.8-2.5-2.4c-2-0.9-4.7-2.1-4.6-5.3c0-1.3,0.4-2.4,1.3-3.3c0.9-0.9,2-1.3,3.3-1.3c2.3,0,4,1,4.9,3.1L32.4,67z"/>
		</g>
	</g>
	<g>
		<rect x="48.1" y="1.6" class="st0" width="3.3" height="8"/>
	</g>
	<g>
		<rect x="48.1" y="89.9" class="st0" width="3.3" height="8"/>
	</g>
	<g>
		<rect x="1.6" y="48.1" class="st0" width="8.1" height="3.3"/>
	</g>
	<g>
		<rect x="89.8" y="48.1" class="st0" width="7" height="3.3"/>
	</g>
	<g>
		<g>
			<path class="st0" d="M32.8,39.4c-1.8,0-3.6-0.7-4.9-2.1c-1.3-1.3-2-3-2-4.9c0-1.8,0.8-3.6,2.1-4.8l0,0c1.3-1.3,3.1-2,4.9-2
				c1.8,0,3.6,0.8,4.8,2.1c2.7,2.7,2.6,7.1-0.1,9.7C36.2,38.8,34.5,39.4,32.8,39.4z M32.8,29c-0.9,0-1.8,0.4-2.5,1l0,0
				c-0.7,0.7-1.1,1.6-1.1,2.5c0,0.9,0.4,1.8,1,2.5c1.4,1.4,3.6,1.4,5,0.1c1.4-1.4,1.4-3.6,0-5C34.6,29.4,33.8,29,32.8,29
				C32.8,29,32.8,29,32.8,29z"/>
		</g>
	</g>
</g>
</svg>
