<?xml version="1.0" standalone="no"?>
<!DOCTYPE svg PUBLIC "-//W3C//DTD SVG 1.1//EN" "http://www.w3.org/Graphics/SVG/1.1/DTD/svg11.dtd" >
<svg xmlns="http://www.w3.org/2000/svg">
<metadata></metadata>
<defs>
<font id="berliner_grotesk_d_otlight" horiz-adv-x="1071" >
<font-face units-per-em="2048" ascent="1638" descent="-410" />
<missing-glyph horiz-adv-x="512" />
<glyph unicode="&#xfb01;" horiz-adv-x="927" d="M33 930q0 43 18 68.5t49 25.5q5 0 9 -2q4 -1 8.5 -2t7 -1.5t4.5 -0.5q6 0 11 5t5 11l-2 10q0 45 -4 123q-1 23 21.5 66.5t50.5 73.5q11 12 45.5 33.5t44.5 21.5q76 10 80 10q23 0 53.5 -10.5t44.5 -22.5q45 -42 45 -86q0 -35 -31.5 -67.5t-66.5 -32.5q-17 0 -47 18 q-14 7 -19 7q-14 0 -28.5 -22.5t-14.5 -45.5q0 -14 4 -44t7 -34q6 -18 28 -18q16 0 37 6q32 4 41 4q37 0 62.5 -27t25.5 -67q0 -38 -23 -63t-57 -23q-57 2 -84 4q-13 -1 -17.5 -2.5t-10 -4t-7.5 -14.5t-3.5 -23.5t-4.5 -41.5q0 -1 0.5 -3t3 -17t5.5 -40l2 -12q0 -2 -4 -18 q-1 -4 -2 -8.5t-2 -7.5t-1 -5l5 -37l-9 -63q0 -3 4 -23q2 -4 2 -10q0 -8 -2 -12q-4 -24 -4 -27l4 -49l-4 -49l2 -49q0 -2 -0.5 -6t-1.5 -11.5t-2 -13.5q-4 -24 -4 -29q0 -28 21 -92q12 -40 12 -57q0 -20 -12.5 -54.5t-24.5 -48.5q-9 -11 -27.5 -18.5t-35.5 -7.5 q-19 0 -41.5 8.5t-32.5 20.5q-12 12 -23 41t-10 47q8 126 8 131l-2 30l-2 12l-1.5 9t-0.5 4l4 65l-4 62q0 14 8 47q7 28 7 35l-5 57l2 39l-6 72q0 10 2 20q4 28 4 41q0 21 -2 33q-4 40 -4 51q0 9 4 17l2 2q0 10 -12 14l-47 -4q-5 0 -19 9t-20 17q-16 16 -16 56zM627 934 q0 47 27.5 74.5t74.5 27.5q67 0 86 -37q3 -5 9.5 -43t6.5 -53q0 -8 -2 -16q-12 -66 -12 -207q0 -23 4 -41q2 -10 2 -21q-8 -91 -8 -143l6 -65q0 -7 -6 -25q-1 -4 -2 -8.5t-1.5 -6.5t-0.5 -3q0 -9 6 -70q2 -2 2 -33q5 -63 12 -96q15 -66 15 -68q3 -40 -29.5 -72t-73.5 -32 q-44 0 -78.5 33.5t-31.5 72.5q10 123 10 138q-4 58 -4 94q0 6 2 49q4 54 4 61q0 56 2 62l2 29q0 10 -6 40q-4 40 -4 66q0 31 2 49q2 23 2 45q0 39 -10 111q-6 53 -6 88zM633 1264q0 47 25.5 73.5t72.5 26.5q100 0 100 -162q0 -53 -28 -86t-72 -33q-24 0 -49.5 10.5 t-34.5 24.5q-7 12 -8.5 22t-1.5 56l-2 41q-2 10 -2 27z" />
<glyph unicode="&#xfb02;" horiz-adv-x="923" d="M33 930q0 43 18 68.5t49 25.5q5 0 9 -2q4 -1 8.5 -2t7 -1.5t4.5 -0.5q6 0 11 5t5 11l-2 10q0 45 -4 123q-1 23 21.5 66.5t50.5 73.5q11 12 45.5 33.5t44.5 21.5q76 10 80 10q23 0 53.5 -10.5t44.5 -22.5q45 -42 45 -86q0 -35 -31.5 -67.5t-66.5 -32.5q-17 0 -47 18 q-14 7 -19 7q-14 0 -28.5 -22.5t-14.5 -45.5q0 -14 4 -44t7 -34q6 -18 28 -18q16 0 37 6q32 4 41 4q37 0 62.5 -27t25.5 -67q0 -38 -23 -63t-57 -23q-57 2 -84 4q-13 -1 -17.5 -2.5t-10 -4t-7.5 -14.5t-3.5 -23.5t-4.5 -41.5q0 -1 0.5 -3t3 -17t5.5 -40l2 -12q0 -2 -4 -18 q-1 -4 -2 -8.5t-2 -7.5t-1 -5l5 -37l-9 -63q0 -3 4 -23q2 -4 2 -10q0 -8 -2 -12q-4 -24 -4 -27l4 -49l-4 -49l2 -49q0 -2 -0.5 -6t-1.5 -11.5t-2 -13.5q-4 -24 -4 -29q0 -28 21 -92q12 -40 12 -57q0 -20 -12.5 -54.5t-24.5 -48.5q-9 -11 -27.5 -18.5t-35.5 -7.5 q-19 0 -41.5 8.5t-32.5 20.5q-12 12 -23 41t-10 47q8 126 8 131l-2 30l-2 12l-1.5 9t-0.5 4l4 65l-4 62q0 14 8 47q7 28 7 35l-5 57l2 39l-6 72q0 10 2 20q4 28 4 41q0 21 -2 33q-4 40 -4 51q0 9 4 17l2 2q0 10 -12 14l-47 -4q-5 0 -19 9t-20 17q-16 16 -16 56zM627 94 q0 20 16 158l-10 102q0 1 0.5 4.5t1.5 10t2 12.5q2 16 2 35l-2 53l8 59q-2 16 -4 41q-4 24 -4 131l4 56q0 8 -2 16q-1 4 -2 8.5t-1.5 7t-0.5 3.5l6 75q0 9 -2 19q-2 6 -2 16q0 15 2 23q6 27 6 39t-8 43q-2 10 -2 22q8 116 8 117q0 19 -6 57q-8 36 -8 70q0 40 30.5 68 t73.5 28q44 0 74.5 -28.5t30.5 -71.5q0 -36 -23 -148q-2 -10 -2 -16l4 -64l-4 -166l2 -65l-4 -61q2 -17 2 -37q2 -6 2 -49q0 -19 6 -56q-6 -49 -6 -74q0 -16 -4 -75l2 -39l-2 -35l2 -59l-2 -60q0 -33 18 -94q15 -66 15 -72q3 -39 -29.5 -74.5t-71.5 -35.5q-44 0 -80 33 t-36 73z" />
<glyph horiz-adv-x="0" />
<glyph horiz-adv-x="682" />
<glyph unicode=" "  horiz-adv-x="512" />
<glyph unicode="&#x09;" horiz-adv-x="512" />
<glyph unicode="&#xa0;" horiz-adv-x="512" />
<glyph unicode="!" horiz-adv-x="503" d="M135 1257q0 46 32 80.5t75 34.5q54 0 91.5 -31t37.5 -77q0 -28 -9 -58q-12 -54 -12 -63q0 -13 2 -19q2 -14 2 -26l-8 -119q0 -6 2 -16q6 -27 6 -41q0 -8 -12 -97q-2 -6 -2 -14q0 -6 2 -12q4 -36 4 -72q4 -69 4 -70q1 -10 2 -18.5t1.5 -12.5t0.5 -5l-4 -50q0 -99 10 -141 q11 -46 11 -49q0 -32 -21 -57t-49 -25q-30 0 -53 33t-39 47q-34 34 -45.5 52.5t-11.5 41.5q0 22 8 53q4 24 4 25l-4 55l4 49l-8 66q8 108 10 143q0 19 -10 76l-9 33q11 106 11 125v18v41q-1 2 -6.5 23t-10.5 39q-6 24 -6 38zM139 102q0 24 10 59.5t21 53.5q19 31 70 31 q57 0 89.5 -38.5t32.5 -103.5q0 -51 -29 -83.5t-75 -32.5q-38 0 -50 7.5t-46 53.5q-23 33 -23 53z" />
<glyph unicode="&#x22;" horiz-adv-x="643" d="M82 1309v6q0 22 28.5 39.5t63.5 17.5q38 0 59 -21t21 -59v-14q-10 -95 -10 -100l2 -103q-12 -98 -15 -180q-1 -40 -14.5 -54t-48.5 -14q-49 0 -59 27q-9 17 -11 121l-2 82l-2 16l-8 92v13v98q0 5 -4 33zM385 1290q0 44 21.5 64t70.5 20q34 0 53 -10t29 -35l-14 -112 q0 -15 8 -39q2 -2 2 -7q0 -4 -2 -8q-10 -110 -12 -186q0 -89 -9 -121q-6 -12 -23 -20.5t-38 -8.5q-72 0 -72 80q0 30 7 70q2 6 2 12l-2 17q-2 16 -5.5 50.5t-7.5 71.5q-2 9 -8 162z" />
<glyph unicode="#" horiz-adv-x="1366" d="M55 487q0 43 33 66q13 12 22.5 14.5t47.5 5.5h6q46 -4 47 -4q19 0 57 9q6 2 13 2l63 -5q25 0 35 33q2 8 6 51q0 17 14 64q4 10 4 43q5 55 5 59q-1 9 -10.5 16t-18.5 7q-6 0 -88 -14l-92 14q-8 0 -35 -8h-4q-44 6 -56 12q-13 9 -22.5 25t-9.5 30q0 35 27 59.5t67 24.5h12 q47 0 119 -8q100 9 118 13.5t27 21.5q9 14 11 41q3 19 10 67q6 30 6 60q2 36 11 82t18 61q9 19 31 31t46 12q31 0 54.5 -19.5t23.5 -45.5q0 -1 -0.5 -4t-1.5 -8.5t-2 -10.5q0 -1 -0.5 -4.5t-2 -14.5t-3.5 -24q0 -6 -2.5 -33t-3.5 -49q-3 -26 -10 -68t-9 -44q-2 -9 -4.5 -22 t-3.5 -17q-1 -5 0.5 -7.5t11 -5t27.5 -3.5t53 -3l48 6l57 -6q51 0 57 101q0 27 2 37t15 49l4 51q0 18 12.5 60.5t20.5 51.5q26 33 71 33q31 0 54.5 -20.5t23.5 -46.5q0 -3 -4 -19q-2 -6 -10 -45q-2 -11 -19 -78l2 -59l-8 -62q0 -22 23 -37.5t57 -15.5l123 2q34 0 56 -18 t22 -47q0 -35 -26 -59.5t-64 -24.5h-13q-37 0 -53 2q-14 2 -29 2q-27 0 -102 -15q-21 -6 -30 -27t-21 -91q-4 -25 -6 -76q-5 -24 -7 -41q2 -14 14.5 -17.5t80.5 -9.5l53 6l70 -6q1 0 5 0.5t11.5 1.5t15.5 2h6q33 -3 40.5 -5t17.5 -11q9 -8 16.5 -22.5t7.5 -26.5 q0 -19 -10.5 -39t-25.5 -31q-20 -11 -41 -14h-21q-1 0 -7 -0.5t-20 -1.5t-30 -2l-54 6l-61 -10q-7 0 -47 12q-16 4 -18 4q-33 0 -41 -39q-15 -62 -15 -88q-4 -41 -10 -59t-8 -62q0 -6 -13 -57l5 -16q1 -7 -9.5 -25t-21.5 -27q-27 -20 -62 -20q-30 0 -52.5 20t-22.5 47 q0 7 2 17v8q4 50 14 86l8 33l6 59q3 17 15 56q4 20 4 22q0 18 -10 25l-33 2q-9 0 -58 14l-49 -4l-55 6q-23 0 -35.5 -23t-19.5 -83l-35 -205q-4 -37 -29.5 -59.5t-60.5 -22.5q-31 0 -54.5 20.5t-23.5 48.5q0 9 2 17q12 36 14 50t2 54q2 17 13 68q16 62 16 98q0 14 -11.5 26 t-23.5 11l-59 -8l-74 6q-10 -2 -26 -6h-7q-43 4 -55 12q-14 9 -23.5 24.5t-9.5 28.5zM545 612q0 -32 17.5 -38.5t109.5 -6.5q45 0 66.5 3t36.5 16t19.5 33.5t6.5 62.5q4 45 8 53q2 10 7 27.5t7 23.5q2 4 2 13q0 45 -71 45q-15 0 -74 -10q-55 6 -59 6q-18 0 -24.5 -4.5 t-12.5 -22.5q-24 -72 -31.5 -110.5t-7.5 -90.5z" />
<glyph unicode="$" horiz-adv-x="1024" d="M156 193q0 53 22.5 76.5t73.5 23.5q37 0 56.5 -12.5t64.5 -65.5t69 -53q12 0 21.5 8t9.5 20q0 19 -2 31v12q0 13 2 21q6 37 6 74q0 64 -8 125v20q0 70 -2 113q-2 12 -2 24q0 17 2 29t2 31q0 15 -9 24.5t-40 28.5q-25 15 -49 41q-19 22 -51 45q-7 7 -48 51q-24 27 -24 29 q-13 18 -25 63q-4 23 -10 47q-6 21 -6 31q0 13 6.5 61.5t9.5 57.5q22 63 77.5 112.5t129.5 71.5q25 8 34 16t9 23q0 6 -8 51q-2 6 -2 19q0 32 24 56t58 24q35 0 58.5 -26t23.5 -66q0 -11 -2 -17q-4 -32 -4 -35q0 -20 12 -27t74 -22l32 -14l27 -10q31 -11 38 -14.5t13 -10.5 q9 -11 19 -35t10 -37q0 -14 -8 -35t-17 -28q-7 -9 -31 -19t-38 -10q-20 0 -49 21q-10 3 -70 37q-8 0 -13.5 -10t-5.5 -27t2 -27q1 -14 2 -28.5t2 -23t1 -11.5q0 -23 -2 -41q-3 -24 -3 -29l5 -76l-9 -72v-14q0 -19 20.5 -37.5t76.5 -50.5q17 -10 22 -18l15 -17l10 -12 q8 -10 39 -37q39 -33 51 -47l14 -21q16 -29 23 -36q9 -12 18 -27q3 -7 8 -25q7 -21 15 -41q16 -49 16 -77l-14 -99q0 -28 -32.5 -87.5t-61.5 -80.5q-14 -10 -26.5 -19.5t-22.5 -17t-11 -8.5q-39 -29 -92 -41q-41 -10 -51 -16t-10 -20q0 -9 4 -25q12 -34 12 -47 q0 -32 -25.5 -53t-66.5 -21q-31 0 -55.5 25t-24.5 57q0 12 6 39q2 6 2 18q0 17 -8 21t-55 12l-6 2t-7.5 3t-16 7t-26.5 11q-53 20 -59 22q-36 11 -49.5 18t-38.5 29q-30 27 -40.5 46.5t-10.5 48.5zM377 1065q0 -23 7 -52t15 -40q7 -10 32 -30.5t30 -20.5q22 0 22 71 q0 21 -2 35l-2 35v41q-2 10 -2 18l2 21q2 4 2 12q0 22 -14 25q-6 1 -27.5 -11.5t-29.5 -21.5q-33 -41 -33 -82zM612 494q0 -7 4 -39q7 -47 7 -60q0 -2 -5 -47q-2 -12 -2 -26q0 -9 2 -15l5 -18l-7 -35l2 -43l-4 -25q0 -3 9 -6.5t16 -3.5q18 0 46 19t46 43q12 17 22.5 54.5 t10.5 63.5q0 56 -37 99q-22 26 -22 30q-11 16 -15.5 21t-19.5 16q-7 4 -19 21q-18 22 -22 22q-6 0 -11.5 -23t-5.5 -48z" />
<glyph unicode="%" horiz-adv-x="1687" d="M55 936q0 82 17.5 164t44.5 125q93 149 237 149q102 0 135 -26q62 -46 89.5 -81t52.5 -96q37 -94 41 -112q10 -52 10 -160q0 -83 -12 -127t-58 -129q-29 -55 -46 -73.5t-60 -45.5q-32 -18 -59.5 -24t-79.5 -6q-55 0 -109 23t-94 63q-109 109 -109 356zM190 977 q0 -19 3 -53l2 -60q0 -78 30 -137q22 -44 61 -72t79 -28q72 0 120 51q21 18 42.5 87.5t21.5 117.5q0 167 -35 241q-22 51 -62 83t-81 32q-84 0 -127 -72q-54 -80 -54 -190zM532 68q0 26 7 41.5t47 80.5l4 10q3 9 7.5 22t8.5 28q12 41 45 98l21 72q3 10 37 98q4 13 8 24.5 t7.5 22l4.5 13.5q11 18 16 34q18 42 27 76q13 51 19 60l14 24q10 29 26 69t21 54q14 31 31 90q0 5 24 55q21 47 31 66q24 70 25 72q10 26 32 94q19 53 39 75.5t49 22.5q28 0 50 -23.5t22 -54.5t-86 -194q-11 -28 -36.5 -93.5t-35.5 -91.5q-18 -40 -57 -159q-10 -10 -20 -43 l-31 -82q-4 -14 -14.5 -41.5t-14.5 -42.5l-14 -35q-23 -45 -39 -94q-23 -78 -31 -86q-16 -32 -16 -37q-14 -47 -17 -60q-1 -1 -2.5 -5t-5.5 -10.5t-8 -12.5q-24 -47 -31 -96q-12 -76 -27.5 -97.5t-58.5 -21.5q-34 0 -56 22t-22 56zM1008 432q0 157 53 266q32 69 92 119 q58 49 162 49q62 0 95 -13t87 -58q31 -26 58 -70.5t40 -91.5q1 -4 2.5 -8t3.5 -8t6 -14.5t9 -24.5q12 -30 14 -89l2 -49v-34l2 -33q0 -108 -35 -170q-9 -17 -21.5 -43t-16.5 -33q-25 -49 -40 -66.5t-55 -40.5q-64 -34 -129 -34q-47 0 -80 9.5t-83 37.5q-68 39 -102.5 91.5 t-47.5 141.5q-16 98 -16 166zM1145 426q2 -27 2 -59q0 -74 17 -120t57 -83q49 -43 104 -43q43 0 80.5 23.5t52.5 60.5q41 93 41 184q0 107 -16 180q-19 75 -64 120.5t-100 45.5q-42 0 -82.5 -30t-60.5 -76q-9 -26 -20 -85t-11 -87v-31z" />
<glyph unicode="&#x26;" horiz-adv-x="1101" d="M109 305q0 69 11 109.5t42 81.5q29 39 55 62.5t72 53.5q11 8 27 27t16 25q0 11 -27 67q-29 56 -29 133q0 46 18.5 100.5t43.5 82.5q22 23 75.5 48t82.5 25q10 0 18 -2q36 -4 41 -4q51 -5 111 -53q38 -29 62 -88t24 -125q0 -61 -47 -135q-22 -34 -37 -49t-68 -54 q-16 -13 -16 -22t33.5 -57t66.5 -87l21 -24q10 -17 16 -17l4 -2v-2q2 0 2 2l18 19q11 11 25.5 36.5t20.5 43.5q16 72 16 84q0 16 -2 28q-2 10 -2 25q0 50 20 92q10 25 21 31.5t45 11.5q33 6 45 6q34 0 57 -32.5t23 -79.5q0 -61 -51 -195q-29 -80 -45 -108.5t-68 -96.5 q-14 -19 -14 -26q0 -15 28 -39t56 -31q40 -11 51.5 -16.5t27.5 -20.5q38 -30 35 -63q-1 -38 -22 -59t-56 -21q-42 0 -77 15.5t-129 76.5q-18 12 -29 12q-12 0 -59 -35q-56 -42 -99 -56.5t-110 -14.5q-52 0 -123 16q-25 6 -71 32.5t-69 49.5q-44 44 -62.5 93.5t-18.5 125.5z M283 293q0 -23 7.5 -49.5t18.5 -40.5q13 -20 44.5 -35.5t56.5 -15.5q83 0 157 51q28 22 36 30t7 15q0 4 -14 22l-16 31q-12 26 -71 92q-14 16 -22 25l-22 22q-5 11 -16 25q-10 10 -19 22q-19 19 -22 17q-13 -5 -41 -30t-54 -58q-30 -35 -30 -123zM438 864q0 -27 22.5 -78 t33.5 -51q4 0 21.5 10t25.5 17q15 13 31 49t16 55q0 13 -6.5 36t-12.5 32q-15 22 -55 22q-23 0 -36 -6.5t-23 -25.5q-17 -31 -17 -60z" />
<glyph unicode="'" horiz-adv-x="335" d="M82 1309v6q0 22 28.5 39.5t63.5 17.5q38 0 59 -21t21 -59v-14q-10 -95 -10 -100l2 -103q-12 -98 -15 -180q-1 -40 -14.5 -54t-48.5 -14q-49 0 -59 27q-9 17 -11 121l-2 82l-2 16l-8 92v13v98q0 5 -4 33z" />
<glyph unicode="(" horiz-adv-x="737" d="M137 637q0 73 26 181.5t56 158.5q11 14 25 53q2 10 18 37q12 18 23 37q3 6 59 100q84 109 94 119q40 45 61.5 58.5t51.5 13.5q45 0 73.5 -28t28.5 -71q0 -34 -16.5 -57.5t-56.5 -48.5q-15 -10 -21 -16q-9 -9 -27 -21q-23 -14 -36 -31.5t-41 -72.5q-17 -31 -17 -33 q-16 -29 -16 -31q-10 -21 -21 -49q-20 -33 -26.5 -51t-14.5 -56l-10 -45q-2 -4 -5 -15t-5 -17q-8 -20 -8 -76q-2 -47 -6 -86l6 -78q0 -10 -2 -20v-15q0 -33 14 -76q2 -7 14 -47q6 -29 15 -57q0 -3 16 -31q18 -33 19 -35q13 -34 16 -47q5 -16 31 -53q7 -2 14 -20 q28 -54 42 -71.5t46 -39.5q69 -43 92.5 -70.5t22.5 -64.5q-2 -29 -8.5 -42t-26.5 -22q-30 -18 -70 -18q-34 0 -55.5 11t-44.5 42q-14 21 -53 60q-13 13 -41 47t-31 41q-6 10 -18 39q-19 31 -54 94q-30 54 -51 104q-9 26 -14 35q-24 64 -27 80l-8 35q-20 66 -20 73 q-6 48 -7 58q0 16 -2 28q-4 90 -4 107z" />
<glyph unicode=")" horiz-adv-x="737" d="M68 1313q3 30 9.5 42t24.5 21q32 19 70 19q33 0 54 -11.5t46 -42.5q10 -12 54 -59q13 -13 40.5 -47t30.5 -41q8 -11 19 -39q18 -31 53 -94q30 -51 51 -105q7 -20 15 -34q22 -57 26 -80q0 -2 1 -6t3 -12.5t4 -16.5q21 -66 21 -72l6 -57q0 -17 2 -31q4 -86 4 -106 q0 -71 -26.5 -179t-55.5 -159q-7 -12 -24 -56q-4 -11 -21 -34q-4 -6 -20 -37q-9 -17 -32.5 -55t-29.5 -46q-84 -110 -92 -118q-40 -44 -62 -58t-53 -14q-45 0 -73.5 27.5t-28.5 70.5q0 33 17 57.5t57 49.5q6 4 24.5 18.5t32.5 24.5q15 8 29.5 28t40.5 70q3 7 16 33l16 29 l21 49q20 35 27 52.5t14 55.5q10 42 10 45l10 33q9 22 9 74q2 47 6 88l-8 78q0 8 2 18v14q0 30 -15 76q-12 40 -12 47q-14 54 -16 58l-17 30q-5 9 -18 35l-17 49q-7 19 -30 52q-13 19 -13 20q-30 56 -43.5 73t-44.5 38q-70 42 -93.5 70.5t-20.5 64.5z" />
<glyph unicode="*" horiz-adv-x="903" d="M150 1126q0 37 24 67t53 30q15 0 70 -21q45 -22 63 -22q7 0 13 5t6 11q-4 40 -4 45q0 21 -4 39q-2 12 -2 25q0 35 20 55t55 20q93 0 93 -94q0 -19 -9 -74q-2 -2 -2 -10q0 -24 17 -24q2 0 18 4q1 1 23 10q4 1 10.5 3t9.5 3t4 2q23 14 33 17q11 8 31 8q32 0 58 -29t26 -66 q0 -55 -72 -67q-35 -4 -63.5 -13.5t-28.5 -15.5q0 -5 20 -31t39 -45q13 -12 24 -36t11 -41q0 -23 -31 -50.5t-57 -27.5q-44 0 -80 76q-43 92 -59 92q-9 0 -19.5 -17.5t-46.5 -95.5q-13 -31 -27 -43t-34 -12q-25 0 -58 20q-45 31 -45 66q0 43 66 106q8 7 17.5 20.5t9.5 16.5 q0 18 -72 23q-100 9 -100 71z" />
<glyph unicode="+" d="M27 705q0 55 34 79q18 11 39 11q63 4 93 8q47 -5 120 -10q17 0 57.5 4.5t49.5 7.5q14 5 19 18.5t18 87.5l-6 60l6 57l-8 59q4 57 4 64q3 92 82 92q41 0 63.5 -24t22.5 -68v-6v-58l6 -59l-11 -59l5 -68l-5 -61q0 -28 22 -43t62 -15q7 0 31 4q66 17 76 17q8 0 35 -6 q30 -6 57 -6q5 0 55 4h4q33 -3 43.5 -7t22.5 -16q12 -14 15.5 -24t7.5 -50q0 -22 -12.5 -43t-30.5 -28q-16 -7 -84 -11q-11 0 -23 2q-81 7 -166 7l-102 -19q-6 -3 -11.5 -14t-5.5 -19t2 -14q11 -37 11 -59l-2 -58l2 -59l-7 -57l3 -60v-6q0 -42 -23 -65q-13 -16 -31 -19 q-2 -2 -22 -4q-9 0 -17 -2q-20 0 -41 13t-28 32q-8 24 -8 92q0 11 2 19l4 47l-13 84q0 1 1.5 6t3.5 16t4 23q4 20 4 28q0 17 -5 40.5t-10 29.5q-6 8 -37.5 15t-56.5 6l-80 -5q-2 0 -7 1t-14.5 2t-17.5 2q-10 2 -26 2q-17 0 -29 -2q-7 -1 -16 -2t-14.5 -2t-8.5 -1 q-108 0 -108 89z" />
<glyph unicode="," horiz-adv-x="405" d="M66 -150q0 23 20 64q6 10 14.5 51t8.5 58q0 13 -15 65q-4 24 -4 43q0 113 119 113q46 0 80.5 -41.5t34.5 -96.5q0 -30 -41 -143q-2 -13 -15 -47q-6 -25 -12 -31q-12 -20 -20 -32q-1 -1 -4 -6.5t-5 -8.5q-26 -65 -80 -65q-32 0 -56.5 23t-24.5 54z" />
<glyph unicode="-" horiz-adv-x="419" d="M0 545q0 32 25.5 52.5t64.5 20.5q3 0 49 -4q20 -2 64 -2q3 0 57 -4q6 0 41 6q10 2 29 2q38 0 64 -27t26 -67q0 -49 -23 -69q-7 -7 -41 -18t-49 -11q-12 0 -45 8q-40 8 -72 8q-15 0 -51 -4q-27 -6 -37 -6q-27 0 -69 25q-33 23 -33 90z" />
<glyph unicode="." horiz-adv-x="405" d="M92 117q0 62 25.5 95.5t72.5 33.5q58 0 90.5 -38t32.5 -104q0 -25 -20 -69q-25 -45 -88 -45q-36 0 -55.5 11t-34.5 40t-19 41.5t-4 34.5z" />
<glyph unicode="/" horiz-adv-x="854" d="M6 -143q0 19 23 82q6 20 39 69q19 26 47 121l16 47q0 1 3.5 8.5t8.5 17t9 17.5q27 49 30 66l31 102q7 18 14 47q17 49 17 51q38 73 41 80q6 3 14 43q16 78 20 86l17 33q11 24 23 52t19 44t11 25q5 10 19 57q20 82 28 86l17 31q57 144 82 262q8 37 42.5 62.5t77.5 25.5 q53 0 85 -21.5t32 -56.5q0 -28 -20.5 -77t-77.5 -156q-16 -34 -45 -123q-21 -53 -29 -70q-23 -50 -25 -55q-22 -62 -26 -74q-74 -198 -78 -209q-13 -45 -20.5 -62t-30.5 -60q-16 -27 -21 -46l-12 -38q0 -10 -43 -115q-22 -52 -22 -53q-17 -46 -33 -101l-19 -49 q-18 -41 -18 -51l-6 -35q-2 -9 -18.5 -50t-22.5 -48q-26 -33 -99 -33q-46 0 -73 18.5t-27 49.5z" />
<glyph unicode="0" d="M53 702q0 5 4 41q4 40 4 43v43q12 62 19 119q4 27 29 92q20 50 26 62q13 39 33.5 67t95.5 113q43 48 112 75t148 27q67 0 127 -15.5t84 -39.5q7 -5 72 -57q20 -15 51 -64q3 -9 37 -49q34 -45 55 -129q1 -5 17 -47l26 -68q10 -30 13 -53t6 -100q0 -13 4 -37q2 -16 2 -31 l-4 -47l4 -39q-6 -105 -14 -143q-15 -65 -21.5 -84.5t-30.5 -67.5q-62 -127 -78.5 -154t-54.5 -61q-32 -31 -77.5 -61t-73.5 -39q-14 -5 -68 -11.5t-78 -6.5q-42 0 -106.5 24.5t-122.5 61.5q-51 32 -87 71.5t-71 102.5q-19 32 -35.5 88.5t-21.5 99.5q-25 247 -25 274z M233 684l5 -80l-2 -76q0 -54 25 -127t65 -131q32 -47 93.5 -79.5t119.5 -32.5q20 0 65 14.5t66 26.5q29 17 57.5 51t40.5 65q11 23 29 66q15 35 30 111.5t13 109.5q-7 150 -4 176q-20 140 -30.5 177.5t-49.5 107.5q-19 32 -40.5 54.5t-62.5 53.5q-58 46 -137 46 q-41 0 -97 -33t-87 -74q-7 -10 -30.5 -55.5t-27.5 -57.5q-9 -22 -16 -73q-2 -20 -14 -76q-11 -50 -11 -164z" />
<glyph unicode="1" d="M217 1092q0 41 43 84q17 14 72 41q25 14 26 16q28 24 43 39q2 0 45 24q15 9 33 21q49 35 68 44t41 9q38 0 68 -27t30 -61q0 -29 -14 -94q-9 -46 -13 -111l-4 -86l4 -61l-2 -70l2 -31l-6 -75q0 -1 0.5 -5t1.5 -12.5t2 -17.5q7 -56 7 -113q-9 -62 -9 -153q0 -1 4 -25l2 -12 t2 -9t1 -4l-5 -49l3 -30l-7 -50q10 -88 15 -96q10 -20 35 -20q10 0 16 2q28 4 37 4q40 0 68 -26.5t28 -63.5q0 -32 -27.5 -61t-58.5 -29q-3 0 -35 4q-2 0 -10.5 1t-21.5 2.5t-21 2.5q-13 2 -59 4q-40 0 -50 2q-12 2 -24 2q-15 0 -29 -2q-5 -1 -18.5 -2t-20.5 -2 q-19 -1 -39.5 -2t-30.5 -1.5t-12 -0.5q-8 -2 -16 -2q-37 0 -62.5 25.5t-25.5 62.5q0 22 11 43t28 31q8 4 19 5t73 1q25 0 42 21t17 52q0 15 -2 21l-2 12l4 60q0 1 -0.5 4t-1.5 8.5t-2 11.5q-6 24 -6 51q0 59 10 107q2 8 2 18q0 1 -4 29t-4 37t4 55q4 28 4 31q0 2 -0.5 8 l-1.5 18t-2 23q-4 16 -4 125q0 92 15 174q2 8 2 20q0 24 -8 43t-17 19q-12 0 -42.5 -21.5t-55.5 -46.5q-27 -30 -68 -30q-32 0 -59 26t-27 58z" />
<glyph unicode="2" d="M123 86q0 32 31 68q20 22 26 32q5 5 21 33q24 43 51.5 76t91.5 92q26 23 45 49q16 26 31 41l49 43q31 27 82 111q5 9 11.5 18.5t10.5 15t5 7.5q2 2 5.5 7t9 13.5t11.5 16.5q54 76 85.5 153t31.5 131q0 72 -71.5 138.5t-149.5 66.5q-74 0 -138.5 -58.5t-64.5 -125.5 q0 -40 28.5 -77.5t59.5 -37.5q14 0 53 25q45 26 68 26q38 0 63 -26t25 -66q0 -51 -46 -91t-104 -40q-14 0 -24 2q-40 4 -55 4q-41 3 -61.5 12t-70.5 46q-32 25 -44 41t-21 45q-29 89 -29 155q0 49 36.5 122t82.5 116q44 43 111.5 70.5t126.5 27.5q64 0 107.5 -12.5 t105.5 -48.5q58 -34 82.5 -58.5t56.5 -83.5q27 -47 33 -75q4 -16 12 -58t8 -47q0 -4 -1 -10.5l-3 -19.5t-4 -23q-4 -11 -8 -33l-13 -68q-6 -33 -13.5 -49.5t-35.5 -58.5q-42 -61 -82 -129l-14 -21q-23 -28 -35 -53q-9 -18 -30 -49l-29 -27q-23 -16 -37 -36l-25 -31 q-6 -5 -16.5 -15t-15.5 -14q-18 -27 -39 -51q0 -2 -41 -43q-30 -27 -35 -41q-8 -19 -14 -25l-2 -4q0 -4 8.5 -9t13.5 -5l43 4q108 -6 115 -8q8 -2 18 -2q13 0 23 2l45 4q42 3 58 9t16 18q0 4 -7 18q-10 20 -10 29q0 15 13.5 47t25.5 47q8 9 26 16.5t33 7.5q45 0 77 -21.5 t32 -53.5q0 -25 -6 -60q-6 -27 -6 -41q0 -16 6 -53q2 -12 2 -27q0 -57 -28.5 -89.5t-78.5 -32.5q-26 0 -53 8q-18 4 -94 10q-3 0 -35 -4q-10 -2 -27 -2q-16 0 -28 2q-32 4 -37 4q-7 0 -39 -4l-10 -2t-7 -1.5t-3 -0.5l-142 10q-6 0 -30 -6q-44 -12 -74 -12q-51 0 -88 29.5 t-37 70.5z" />
<glyph unicode="3" d="M109 197q0 3 5 22.5t7 22.5q11 16 35.5 29.5t44.5 13.5q21 0 43 -14.5t59 -53.5q17 -18 65 -39.5t72 -21.5q18 0 62 9.5t69 18.5q109 42 150 129q34 69 37 88q28 138 28 162q0 43 -28 101q-6 13 -44.5 58t-49.5 52q-21 17 -53.5 30t-51.5 13q-8 0 -86 -16l-28 -4l-21 -3 t-10 -1q-37 0 -70 27.5t-33 58.5q0 43 47 75l31 25q27 34 43 47l12 12l29 37q10 13 35 35q33 29 33 43q0 12 -9 21.5t-20 9.5l-49 -2q-94 12 -117 12q-24 0 -59 -18q-29 -13 -45 -13q-38 0 -69.5 32t-31.5 69q0 41 36 73.5t83 32.5q16 0 53 -6q30 -6 43 -6l62 2l61 -2h19 q12 2 26 2q11 0 109 -8q12 0 20 2q39 8 64 8q45 0 78.5 -28t33.5 -66q0 -20 -9 -37t-36 -47q-22 -22 -41 -54q-10 -15 -41 -49q-9 -15 -26 -32l-14 -17q-25 -29 -33 -49q-2 -4 -4 -6q71 -25 102.5 -42t69.5 -52l49 -62q3 -3 7 -8l10 -12.5t11 -12.5q11 -11 20 -27t46 -89 q14 -29 18.5 -57.5t4.5 -92.5q0 -57 -5.5 -81t-37.5 -115q-28 -79 -39.5 -100.5t-51.5 -67.5q-39 -45 -59 -61.5t-90 -59.5q-76 -50 -137 -47q-187 14 -201 18q-87 35 -133 66q-16 11 -32.5 22l-24 16t-9.5 7q-13 17 -23.5 40.5t-10.5 37.5z" />
<glyph unicode="4" d="M61 399q0 22 7 36.5t32 47.5q20 26 28 42t19 50q3 12 11 27q19 24 37 57l10 19l14 24l4.5 9t10.5 20.5t14 26.5q13 26 22 41l31 47q3 4 51 98l23 43q42 77 51 100q42 90 106 179q32 45 42.5 57t23.5 20q48 31 96 31t80 -43q26 -39 23 -57q-6 -68 -6 -86q0 -15 -5 -49 q-2 -10 -2 -23q0 -7 4 -31l2 -14t2 -11t1 -5l-5 -58l3 -77q0 -4 -2 -17.5t-3 -21.5q-4 -58 -4 -64q0 -27 2 -43q2 -10 2 -20q0 -11 -2 -21q-2 -16 -2 -49q0 -23 4 -47l7 -25l-7 -82q0 -4 7 -19.5t12 -21.5q12 -12 26 -12q5 0 25 4q27 6 43 6q37 0 65.5 -32.5t28.5 -73.5 q0 -38 -25.5 -66t-60.5 -28q-13 0 -33 4q-30 6 -40 6q-22 -1 -34 -19t-12 -47q0 -51 11 -106q8 -33 8 -45q0 -37 -30 -64.5t-70 -27.5q-48 0 -84.5 26.5t-36.5 61.5q0 24 12 76q12 43 12 86q0 29 -10 49t-25 20l-51 -2q-2 0 -5 0.5l-9 1.5t-10 2q-20 4 -27 4q-15 0 -45 -6 q-32 -4 -39 -4t-39 4q-24 4 -26 4q-22 0 -162 -18q-9 0 -29.5 12t-34.5 25q-37 30 -37 69zM309 487q0 -8 19 -8l45 2q186 2 202 6q15 1 28 13.5t11 21.5l-6 78q0 21 -4 74q0 14 2 24q6 38 6 54q0 4 -4 28q-6 30 -6 41q0 1 0.5 5.5t1.5 14t2 17.5q2 10 2 33v31v18l4 25v14 q0 11 -4 70q-17 -22 -21.5 -30t-15.5 -36q-18 -36 -149 -270q-21 -31 -21 -35q-4 -7 -20 -51q-2 -7 -27 -43q-15 -22 -30 -53.5t-15 -43.5z" />
<glyph unicode="5" d="M111 186q0 31 32.5 58.5t67.5 27.5q23 0 34 -6t48 -39q30 -27 87 -44t118 -17q36 0 108 29q60 23 119 125t59 182q0 30 -17 89.5t-34 86.5t-90 94q-20 19 -92.5 38t-122.5 19q-18 0 -63 -18q-10 -3 -41 -9.5t-39 -6.5q-19 0 -45.5 13t-38.5 28q-12 14 -22 39t-9 38 q6 53 12 160q-12 109 -12 139q0 79 14 107q9 20 34 37t42 14q48 -6 90.5 -11.5t59.5 -8t18 -2.5q10 0 68 10q32 4 45 4q25 0 55 -6q4 -1 8.5 -2t6.5 -1.5t3 -0.5l88 4q52 -11 68 -19q12 -8 22.5 -32t10.5 -45q0 -41 -25.5 -67t-66.5 -26q-10 0 -62 17q-9 3 -37 7.5t-37 4.5 q-12 0 -20 -2q-36 -8 -51 -8q-2 0 -5.5 0.5t-10 1.5t-11.5 2q-32 4 -49 4q-44 0 -62 -17.5t-18 -60.5q0 -27 2 -39l2 -8l-2 -47q0 -14 11 -23.5t28 -9.5q16 0 43 6q28 4 37 4q11 0 57 -8q7 -2 15.5 -4t13 -3t6.5 -1l47 -8q36 -6 63 -19t77 -49q4 -4 40 -24q34 -19 84 -101 q18 -29 34.5 -56t23.5 -38.5t8 -13.5q25 -55 25 -148q0 -69 -7.5 -113t-29.5 -106q-13 -39 -65 -111t-91 -106q-114 -100 -260 -100q-84 0 -170.5 22t-144.5 58q-36 22 -60 55t-24 61z" />
<glyph unicode="6" d="M53 508q0 41 10 77.5t43 114.5q4 12 29 72q3 8 25 43q36 55 45 74l24 49q13 28 39 70l21 28q23 42 47 68q26 30 37 53q24 43 41 63q3 3 8 9q11 11 37 55q16 28 59 66q28 28 74 28q40 0 70 -27.5t30 -64.5q0 -33 -20 -60.5t-84 -82.5q-32 -26 -68.5 -71.5t-36.5 -59.5 q0 -11 23 -11q4 0 9.5 1t13 2t12.5 2q18 2 47 2q75 0 160.5 -44.5t144.5 -113.5q2 -2 19.5 -29t36.5 -57.5t22 -34.5q49 -84 49 -221q0 -30 -10.5 -106.5t-18.5 -106.5q-8 -25 -46.5 -89.5t-61.5 -90.5q-22 -24 -76 -59t-90 -48q-23 -11 -42.5 -13.5t-113.5 -10.5l-98 2 q-70 0 -166.5 62.5t-149.5 141.5q-54 84 -73 172q-21 103 -21 146zM233 492q0 -30 21 -101q3 -6 8 -26q17 -65 30.5 -84t65.5 -54q4 -3 14 -10t13 -10q22 -19 31.5 -23.5t44.5 -11.5q47 -10 69 -10q36 0 92.5 15.5t75.5 29.5q138 110 138 289q0 168 -76 256q-45 53 -96 69 q-86 29 -93 29q-30 -4 -94 -8q-96 -3 -166 -119q-28 -41 -53 -116t-25 -115z" />
<glyph unicode="7" d="M117 1264q0 17 17 46t32 38q11 6 39.5 14t40.5 8q14 0 35 -6q60 -14 77 -14q13 0 25 2q80 10 129 10q5 0 55 -4q44 -6 64 -6q9 0 49 4q40 6 59 6q9 0 33 -4q5 -1 10.5 -2t8.5 -1.5t4 -0.5q18 0 59 14q18 6 35 6q37 0 80 -39.5t43 -74.5q0 -15 -12.5 -37.5t-49.5 -71.5 q-6 -9 -20 -37q-20 -45 -27 -59q0 -1 -2 -4t-7 -9.5t-9 -13.5q-71 -112 -92 -160q-26 -47 -97 -163q-16 -31 -80 -166q0 -1 -3.5 -7.5t-12 -22.5t-16.5 -32q-17 -29 -21 -35l-14 -20q-5 -5 -31 -62q-1 -1 -5 -9t-12 -22l-16 -28q-37 -69 -57 -115q-6 -12 -14 -32l-25 -82 q-12 -40 -41.5 -64t-66.5 -24q-44 0 -81.5 34t-37.5 74q0 33 10.5 53.5t60.5 87.5q22 33 39 70q12 31 31 59l21 35q18 35 22 47q8 15 27 41q3 6 7.5 12.5t6.5 10t2 4.5q17 41 60 121l20 35q25 39 39 67q5 8 10 27q21 58 33 74q27 32 31 38q7 10 22 48q28 60 62 110 q26 39 44.5 69.5t20.5 33.5q6 9 6 18q0 15 -14.5 21t-54.5 6q-60 0 -72 -2l-18 -4l-82 8q-9 0 -19 -2q-4 -1 -10 -2l-9 -1.5t-5 -0.5l-93 2q-20 0 -33.5 -12t-13.5 -31q0 -17 6 -52q3 -9 3 -18q0 -26 -23 -74q-19 -37 -68 -37q-46 0 -75 32t-29 83q0 19 2 29t2 18 q-7 100 -14 148z" />
<glyph unicode="8" d="M68 442q0 118 57 224q16 32 18 34l21 50q7 19 90 90q27 20 27 30q0 4 -17 25q-53 66 -53 137q0 147 55 223q38 51 114 85t152 34q85 0 155 -30.5t99 -79.5q5 -8 41 -66q37 -60 37 -164q0 -88 -45 -143q-20 -23 -20 -31q0 -6 20 -22q34 -23 58 -50t57 -81 q22 -32 47.5 -115.5t22.5 -110.5q-8 -100 -15 -129q-2 -10 -16 -55q-4 -8 -10 -35q-7 -26 -36 -69t-65 -84q-14 -14 -53.5 -39t-65.5 -35q-96 -37 -119.5 -43t-74.5 -6q-55 0 -176 39q-18 4 -75.5 39.5t-68.5 48.5q-60 71 -61 73q-12 23 -53 80q-19 26 -33 79.5t-14 96.5z M246 449q0 -56 30 -115.5t74 -91.5q67 -46 109.5 -63t95.5 -17q41 0 92 21t80 50q52 54 72 111q12 37 14 47.5t2 36.5q2 16 6 70q3 52 -51 151q-6 10 -39.5 42t-52.5 46t-61.5 25.5t-77.5 11.5q-37 0 -82 -13t-74 -32q-36 -25 -69 -66.5t-46 -80.5q-6 -20 -14 -66t-8 -67z M369 1073q0 -24 14 -58t29 -48q45 -39 131 -39q35 0 51 5.5t49 27.5q49 34 49 102q0 32 -7.5 49t-37.5 51q-26 31 -49 41t-66 10q-69 0 -116 -40.5t-47 -100.5z" />
<glyph unicode="9" d="M53 852q0 70 15.5 150.5t35.5 115.5q43 72 69.5 106t57.5 56q81 61 144 82q26 5 137 16q68 -4 96 -4q39 0 99 -24.5t102 -57.5q85 -68 131.5 -147t65.5 -184l6 -35q8 -44 8 -74q0 -38 -10 -74t-43 -119q-21 -46 -29 -69q-4 -10 -25 -45q-34 -49 -45 -74l-24 -49 q-14 -30 -41 -68q-15 -24 -21 -30q-16 -33 -45 -66q-26 -33 -37 -53q-24 -46 -49 -72q-18 -18 -37 -55q-15 -28 -59 -68q-33 -26 -76 -26q-40 0 -69 26.5t-29 63.5q0 35 19.5 62t84.5 81q22 18 55 56.5t42 58.5q1 3 2.5 6.5t2.5 5t1 2.5l2 2q0 10 -25 10l-33 -2 q-10 -1 -21.5 -2t-17.5 -1.5t-10 -0.5q-72 0 -158 45t-145 113q-2 2 -20 29.5t-38 58.5t-22 35q-47 80 -47 219zM238 866q0 -171 75 -258q48 -54 97 -69q88 -29 92 -29q30 4 94 8q94 3 166 119q27 41 52.5 116.5t25.5 114.5q0 32 -21 103q-4 8 -8 24q-17 66 -30.5 85.5 t-65.5 54.5q-4 3 -14 10t-13 10q-22 19 -31.5 23.5t-44.5 11.5q-45 10 -69 10q-37 0 -93 -15t-75 -30q-137 -110 -137 -289z" />
<glyph unicode=":" horiz-adv-x="405" d="M92 117q0 62 25.5 95.5t72.5 33.5q58 0 90.5 -38t32.5 -104q0 -25 -20 -69q-25 -45 -88 -45q-36 0 -55.5 11t-34.5 40t-19 41.5t-4 34.5zM92 866q0 63 25.5 97t72.5 34q58 0 90.5 -37.5t32.5 -105.5q0 -24 -20 -68q-24 -47 -88 -47q-35 0 -55 11.5t-35 40.5 q-23 45 -23 75z" />
<glyph unicode=";" horiz-adv-x="405" d="M66 -150q0 23 20 64q6 10 14.5 51t8.5 58q0 13 -15 65q-4 24 -4 43q0 113 119 113q46 0 80.5 -41.5t34.5 -96.5q0 -30 -41 -143q-2 -13 -15 -47q-6 -25 -12 -31q-12 -20 -20 -32q-1 -1 -4 -6.5t-5 -8.5q-26 -65 -80 -65q-32 0 -56.5 23t-24.5 54zM98 866q0 63 26 97 t73 34q58 0 90 -37.5t32 -105.5q0 -24 -20 -68q-24 -47 -88 -47q-35 0 -55 11.5t-35 40.5q-23 45 -23 75z" />
<glyph unicode="&#x3c;" horiz-adv-x="1024" d="M68 659v19q0 47 9 66t40 36q101 52 135 66q48 19 88 41q8 4 63 26q127 57 185 95q4 2 11.5 5t24 9.5t29.5 11.5q17 9 60 35q33 20 92 43t74 23q29 0 53 -25t24 -55q0 -48 -36 -70q-11 -8 -56 -27q-1 -1 -8 -4.5t-19 -10t-26 -13.5q-21 -11 -63 -27q-5 -1 -74 -35l-62 -26 q-46 -19 -61 -29q-21 -14 -59 -33q-7 -7 -62 -26q-74 -31 -92.5 -43.5t-18.5 -32.5q0 -17 9.5 -26t40.5 -23q51 -26 59 -29q36 -17 125 -53q43 -17 109 -58q2 -1 61 -26q12 -4 59 -31q2 -1 11.5 -5t27 -12t37.5 -16q57 -25 76.5 -45.5t19.5 -56.5q0 -28 -10 -41t-31 -24 t-36 -11q-17 0 -75.5 24t-103.5 50q-42 22 -88 39q-3 2 -11 6.5t-21.5 13t-26.5 15.5q-4 3 -11.5 6.5t-23 10.5t-27.5 13q-10 2 -63 31q-19 10 -64 25q-19 8 -61 34q-12 10 -51 23q-29 7 -86 41l-33 16q-37 17 -50 36t-13 54z" />
<glyph unicode="=" d="M27 500q0 48 30 71q17 13 31 13q0 2 12 2q9 0 15 2q2 0 4 -2q28 -9 47 -6l57 10q65 4 158 -6l51 2l51 -4l54 10q51 -6 84 -8q36 0 71 -2l72 8q9 0 33 -6q24 -4 28 -4q5 0 25 4q38 6 49 6q89 -6 92 -6q34 -11 45 -37q2 -3 6 -23q4 -26 5 -28q0 -20 -13 -41.5t-30 -28.5 q-12 -6 -103 -12l-51 4l-53 -4l-56 10q-59 -10 -71 -10q-17 0 -29 2h-27q-18 0 -55 -6l-76 12l-51 -4l-82 8q-12 0 -22 -4l-27 -4l-106 6q-1 0 -4 -0.5t-8.5 -1.5t-10.5 -2q-6 -1 -13.5 -2t-11.5 -1.5t-6 -0.5q-48 3 -58 5t-20 9q-17 9 -26.5 29t-9.5 41zM27 838q0 54 36 73 q12 10 37 13h17q1 0 7 0.5t19.5 1.5t28.5 2l51 -6l76 2q17 0 29 -2t26 -2q17 0 27 2l57 10q108 -10 125 -10q38 0 78 8q32 4 35 4q4 0 16 -4q48 -10 51 -10l54 6l53 -6l51 8q14 -1 29.5 -2t23.5 -1.5t11 -0.5q37 0 59.5 -23.5t22.5 -62.5q0 -37 -26 -61t-63 -21h-4 q-28 6 -53 2l-51 -8l-53 10l-52 -4l-53 2l-51 -8l-53 12l-80 -17q-4 0 -25 9q-21 6 -37 6l-65 -4q-117 6 -158 6l-51 -8q-86 0 -104 10q-17 9 -29 30t-12 44z" />
<glyph unicode="&#x3e;" horiz-adv-x="1024" d="M68 301q0 48 36 70q8 6 56 26q1 1 8 4.5t19 10.5t26 14q21 11 63 27q9 2 74 34l62 27q46 19 61 29t59 32q9 9 62 27q74 31 92.5 43.5t18.5 32.5q0 17 -9.5 26t-40.5 23q-4 2 -25 12t-34 17q-50 24 -125 53q-48 19 -109 57q-15 7 -61 27q-10 2 -59 31q-2 1 -11.5 5 t-27.5 11.5t-37 15.5q-57 25 -76.5 45.5t-19.5 57.5q0 28 10 41t31 24t36 11q17 0 74.5 -23.5t104.5 -48.5q40 -23 88 -41l223 -111q28 -11 74 -37q24 -17 49 -24q27 -8 53 -21l47 -26l33 -17q37 -17 50 -36t13 -54v-18q0 -47 -9 -66.5t-40 -36.5q-113 -54 -135 -63 q-37 -16 -88 -41q-16 -10 -63 -29q-121 -53 -185 -94q-12 -6 -65 -26q-23 -11 -60 -33q-33 -21 -90.5 -44.5t-75.5 -23.5q-29 0 -53 25t-24 55z" />
<glyph unicode="?" horiz-adv-x="759" d="M96 1112q0 61 32 115.5t89 89.5q50 31 95.5 42t123.5 11q40 0 87 -22.5t79 -57.5q50 -54 70 -104.5t20 -120.5q0 -71 -39 -147q-22 -39 -101.5 -114.5t-148.5 -121.5q-86 -60 -86 -125q0 -33 21 -68q17 -28 51 -28q21 0 30.5 5t29.5 26q28 28 73 28q43 0 69.5 -26.5 t26.5 -67.5q0 -67 -57 -90q-43 -18 -61 -21q-24 -6 -75 -14t-58 -8q-36 0 -83 22t-73 52q-70 83 -70 184q0 37 16.5 91t35.5 79q13 16 76 68t87 65q21 12 29 16q4 0 21 25q7 11 34 43q40 43 57 77.5t17 74.5q0 47 -38.5 85.5t-84.5 38.5q-57 0 -93 -24t-36 -62 q0 -10 3 -16.5t20 -34.5q10 -17 10 -37q0 -35 -17 -58.5t-42 -23.5h-9q-60 0 -95.5 42.5t-35.5 111.5zM262 104q0 85 27 115q14 14 40 23.5t50 9.5q46 0 72 -62q18 -48 18 -77q0 -53 -22 -89t-56 -36q-29 0 -65 13.5t-45 27.5q-19 30 -19 75z" />
<glyph unicode="@" horiz-adv-x="1501" d="M113 664q0 18 8 159q2 38 7.5 58t29.5 71q2 3 5 10.5t9.5 23t11.5 28.5q26 65 49.5 94t98.5 92q85 69 113 86t104 47q45 19 119.5 32t132.5 13q119 0 236.5 -50t195.5 -134q74 -77 115 -179.5t41 -209.5q0 -126 -56 -238q-60 -117 -100 -157q-14 -15 -34 -27t-83 -43 q-45 -23 -76 -23q-89 0 -139 56q-15 18 -24 18q-8 0 -50 -26q-68 -50 -122 -50q-57 0 -119.5 24.5t-96.5 59.5q-40 40 -69 115.5t-29 138.5q0 66 51 166t111 156q37 32 125 63t143 31q34 0 123 -27q3 -1 6.5 -2t5 -1.5t2.5 -0.5q2 0 29 9q35 18 53 18q22 0 38 -15t16 -38 q0 -11 -19 -152q-2 -24 -18 -90q-4 -14 -8 -80q-2 -35 -19 -133q-8 -46 -8 -70q0 -12 7 -17t26 -5q28 0 50.5 18.5t57.5 71.5q25 39 33.5 67t9.5 87q3 48 6 79q2 23 2 52q0 64 -39 148t-90 134q-56 51 -146 85t-171 34q-96 0 -188.5 -49t-167.5 -139q-65 -76 -105 -201 q-10 -30 -12 -47.5t-2 -77.5l-2 -109q0 -58 37 -141.5t88 -142.5q71 -80 169.5 -124t205.5 -44q169 0 346 88q40 19 75 25q25 0 45.5 -19.5t20.5 -42.5q0 -20 -21.5 -41.5t-72.5 -50.5q-54 -32 -78 -41.5t-105 -32.5q-47 -15 -80.5 -20t-177.5 -15q-111 21 -127 23 q-29 3 -41.5 7.5t-48.5 25.5q-35 21 -61 34q-83 43 -132 85.5t-102 117.5q-54 76 -86 173t-32 182zM571 694q3 -62 7 -116q0 -43 34 -76t78 -33q18 0 42 8t36 17q6 7 47 38q32 25 59 136q11 46 21 139q4 38 8 53q2 8 2 19q0 47 -98 47q-78 0 -125 -47q-64 -64 -76 -91 q-35 -76 -35 -94z" />
<glyph unicode="A" horiz-adv-x="1093" d="M14 84q0 24 6.5 40.5t45.5 96.5q10 21 28 84q22 71 39 115l43 98q3 0 33 105q11 48 20 75q2 3 5.5 11.5t10 24.5t13.5 30q23 54 68 188q8 29 22 64l21 53q7 14 16 57q4 17 25 66q14 27 26 63q7 33 15 56q5 31 45 45q48 16 61 16q16 0 40 -14t38 -33q21 -26 37 -88 q17 -73 47 -143q10 -30 16 -50q4 -15 21 -63q13 -26 22 -53q20 -49 29 -90q20 -78 47 -131q21 -44 27 -50q7 -7 26 -102q18 -71 47 -145q27 -92 31 -99q3 -9 13.5 -37t17.5 -47q3 -13 26 -55q39 -69 40 -96q0 -35 -32 -60.5t-75 -25.5q-71 0 -105 57q-9 21 -12.5 33 t-13.5 67q-5 24 -24 76.5t-29 69.5q-6 12 -50 12q-78 0 -141 -4h-20q-7 0 -43 4q-20 2 -48 2q-18 0 -30 -2q-71 -8 -94 -8q-46 3 -58 -6.5t-31 -63.5q-15 -39 -30 -73q-4 -11 -6 -29l-7 -49q-12 -82 -100 -82q-54 0 -86.5 24.5t-32.5 65.5zM362 506q0 -14 13.5 -24.5 t30.5 -10.5q18 0 90 10q12 2 22 2q9 0 17 -2q10 -2 22 -2l90 2l39 -2q12 2 22.5 13t10.5 24t-35 114t-55 142q-9 21 -17 66l-8 26q-15 43 -16 49q-3 12 -19 58l-6 18l-4 17q-6 26 -10 34q-15 -40 -37 -118q-8 -34 -29 -80q-19 -44 -37 -99q-6 -18 -22 -53q-5 -11 -11.5 -25 t-10 -21.5t-3.5 -8.5l-14 -53q-1 -4 -6 -17.5t-8 -21.5q-9 -21 -9 -37z" />
<glyph unicode="B" horiz-adv-x="1091" d="M106 94q0 34 13 88q8 24 8 33l-10 147q0 8 6 29q10 48 10 55q-4 72 -6 119q0 33 -6 144q0 1 0.5 5.5t1.5 14t2 19.5q6 46 6 67l-4 141l2 93l-2 38l6 78q0 7 -12 37q-15 34 -15 62q0 38 38 72q34 31 70 30h7q99 -8 156 -8q31 0 104 -6l66 4q12 0 70.5 -17.5t78.5 -27.5 q39 -19 76.5 -64.5t44.5 -83.5q2 -8 10 -114q0 -21 -9.5 -53.5t-20.5 -47.5q-29 -39 -37 -51q-6 -6 -6 -10q0 -7 20 -17q59 -30 72 -39t37 -36q45 -50 59 -71t43 -79q37 -77 47 -111q8 -28 8 -65v-16q-5 -96 -22 -158t-55 -117q-40 -61 -70 -86.5t-107 -68.5 q-21 -11 -80.5 -20t-115.5 -9q-29 0 -45 2q-10 1 -21.5 2t-17.5 1.5t-8 0.5q-50 0 -107 4q-2 0 -67 -10q-27 -6 -52 -6q-86 0 -126 25.5t-40 80.5zM309 322l4 -48l-2 -47q0 -23 18 -38t44 -15l104 2q9 0 19 -2q72 -10 92 -10q63 0 119.5 25.5t87.5 68.5q23 29 42 83.5 t19 90.5q0 47 -16.5 101.5t-44.5 97.5q-23 35 -85.5 67t-113.5 35l-76 -2q-74 4 -84 4q-3 0 -69 4q-20 0 -37 -17t-15 -34l7 -70l-5 -59l5 -59q0 -3 -2 -13t-3 -18q-4 -32 -4 -41l2 -31q2 -4 2 -10q0 -8 -2 -14q-6 -44 -6 -51zM313 973q0 -31 10.5 -46t36.5 -16 q63 -7 82 -10q12 -2 25 -2q18 0 50.5 7.5t43.5 13.5q23 12 53.5 62t30.5 75q0 20 -12.5 55.5t-22.5 44.5q-30 27 -112 27l-25 -2q-27 -6 -33 -6l-90 6q-6 0 -20.5 -14.5t-14.5 -20.5l9 -98q0 -11 -9 -48q-2 -10 -2 -28z" />
<glyph unicode="C" horiz-adv-x="1048" d="M55 731q0 121 26.5 211t88.5 180q31 44 54.5 66.5t74.5 56.5q18 12 51 37q59 47 155 73.5t212 26.5q63 0 166 -28q51 -15 84.5 -55.5t33.5 -86.5q0 -34 -28 -73q-20 -23 -62 -23q-46 0 -106 37q-36 24 -59 31.5t-62 7.5q-91 0 -229 -62q-14 -8 -59 -41.5t-58 -46.5 q-19 -20 -45 -72.5t-33 -86.5q-12 -62 -12 -160q0 -66 8 -111.5t33 -115.5q14 -39 41 -84q9 -22 30 -62q17 -37 61.5 -82.5t76.5 -58.5q102 -45 149 -45q90 0 164 31q57 28 86 28q40 0 71 -32.5t31 -75.5q0 -40 -26 -69.5t-72 -41.5q-41 -11 -107 -22t-92 -11q-67 0 -141 19 q-105 29 -162 57t-104 74q-240 237 -240 610z" />
<glyph unicode="D" horiz-adv-x="1150" d="M106 92l3 27q12 70 12 127q0 26 -4 98q0 9 1 35.5t3 77.5t4 96q0 23 -6 72q-4 35 -4 65q12 150 12 172q0 23 -2 37q-6 40 -6 49l4 64l-2 51l2 80q0 22 -8 63q-6 41 -6 72q0 60 59 78q10 4 98 12q79 -8 135 -8q87 0 201 -31q132 -37 170 -56.5t115 -92.5q44 -42 64.5 -70 t56.5 -94q35 -64 45 -103q8 -27 14 -45q18 -48 23.5 -81t5.5 -89q0 -270 -127 -430q-84 -103 -187 -166q-64 -38 -103.5 -53.5t-133.5 -38.5q-18 -4 -168 -14h-53q-25 0 -113 -6q-46 0 -75.5 28.5t-29.5 73.5zM305 766q0 -34 6 -74q2 -13 5 -28t4.5 -22t1.5 -9 q-7 -89 -7 -105q0 -18 -4 -86l4 -71l-4 -72q0 -94 11 -109q5 -11 35 -18.5t67 -7.5q13 0 71.5 11.5t79.5 17.5q53 15 122 72t110 120q35 51 65.5 143t30.5 146q0 40 -2.5 55t-19.5 66l-19 59q-12 42 -65 118.5t-90 106.5q-54 43 -112.5 70.5t-102.5 30.5q-72 4 -109 8 q-6 2 -14 2q-19 0 -36 -9.5t-20 -21.5q-2 -6 -2 -63q0 -15 -4 -97l4 -28q8 -44 8 -68q0 -15 -6 -53q-8 -44 -8 -84z" />
<glyph unicode="E" horiz-adv-x="911" d="M106 1282q0 31 32.5 57.5t70.5 26.5q13 0 47 -6q30 -6 53 -6q21 0 68 6q14 2 29 2q118 -7 192 -12q18 0 100 18q8 2 25 2q61 0 100 -24.5t39 -61.5q0 -43 -35 -92q-25 -31 -75 -31q-33 0 -60 8l-57 11h-43q-8 0 -45 6q-12 2 -33 2q-11 0 -35 -4q-14 -2 -24 -2l-101 8 q-3 0 -16 -9.5t-16 -15.5q-9 -13 -9 -30q0 -5 2 -11v-14q0 -53 -4 -61q-1 -11 -2 -23l-1.5 -18t-0.5 -9q0 -31 15 -51t38 -20q17 0 27 2q47 6 66 6q27 0 67 -6q32 -4 37 -4q13 0 21 2q41 6 47 6l123 -14q25 -6 46 -37.5t21 -61.5q0 -35 -27.5 -65.5t-58.5 -30.5 q-24 0 -67 14q-46 15 -89 15q-45 0 -61 4l-31 6q-32 -4 -69 -4q-36 -2 -68.5 -21t-32.5 -39q0 -3 11 -49q4 -20 4 -33q0 -16 -2 -24q-9 -40 -9 -47l4 -53q-6 -23 -6 -31l4 -76q0 -7 -6 -51q-2 -12 -2 -33q0 -19 2 -29q2 -12 2 -24q0 -15 -2 -23q-2 -6 -2 -16q0 -35 53 -35 q9 0 84 6q3 0 27 -4q57 -10 105 -10q21 0 106 16q34 6 64 6q41 0 76.5 -35.5t35.5 -76.5q0 -32 -32.5 -57t-75.5 -25l-78 2l-74 -2q-22 0 -65 6q-55 8 -78 8q-53 -3 -74 -6q-12 0 -78 -8q-35 -6 -74 -6q-70 0 -102 37q-8 11 -14.5 30t-5.5 29q18 152 18 164q0 14 -2 24 q-8 47 -8 76q0 21 6 51q6 34 6 41q0 122 -12 281q0 3 1 9t3 17.5t4 22.5q8 33 8 55q0 5 -12 183l2 37q6 53 6 83q0 50 -12 97q-11 42 -11 55z" />
<glyph unicode="F" horiz-adv-x="890" d="M106 1278q0 38 30.5 64t76.5 26q10 0 20 -2q49 -8 68 -8l121 8q119 -14 164 -14q14 0 92 16q32 4 51 4q58 0 92.5 -27t34.5 -73q0 -41 -27 -75t-59 -34q-8 0 -65 13q0 6 -84 6q-31 0 -117 8q-65 6 -98 6q-45 0 -73 -15.5t-28 -41.5q0 -11 2 -17q1 -5 2 -10.5t1.5 -8 t0.5 -3.5l-10 -86q9 -55 12 -60q14 -24 49 -24q14 0 50 4q28 4 32 4q17 0 25 -2q49 -8 61 -8q17 2 39 3.5t34 2.5t18 2q14 0 92 8q12 0 31.5 -9.5t33.5 -21.5q33 -26 33 -71q0 -40 -26 -70.5t-60 -30.5q-20 0 -55 7q-33 8 -72 8q-86 0 -86 4q-11 1 -22.5 2t-17 1.5t-7.5 0.5 q-21 0 -69 -8.5t-58 -14.5q-29 -15 -29 -39q0 -8 2 -14q8 -33 8 -49l-8 -80l4 -160l-8 -65l6 -68l-4 -78q0 -19 8 -43q13 -50 13 -65q0 -34 -36 -62t-79 -28q-44 0 -73 29t-29 75q0 15 2 27q12 86 12 127q0 11 -4 43q-6 47 -6 53l10 115q-9 162 -12 235q0 19 10 117 q4 32 4 39q0 1 -4 55q-10 83 -10 111q0 29 4 47q6 55 6 70q0 27 -12 86q-7 40 -7 59z" />
<glyph unicode="G" horiz-adv-x="1282" d="M53 698q0 91 17.5 175t46.5 133q32 49 47 81q18 33 55 75.5t76 74.5q19 15 69 45.5t80 44.5q100 47 261 47q41 0 58 -2t77 -16q125 -29 133 -33q76 -25 101.5 -37.5t51.5 -38.5q41 -38 41 -94q0 -35 -26 -62.5t-60 -27.5q-26 0 -39 7t-71 50q-33 25 -92 49 q-15 6 -89 18.5t-96 12.5q-77 0 -152 -28t-116 -72l-68 -68q-29 -30 -56.5 -77.5t-37.5 -86.5q-12 -47 -12 -82l-6 -120q0 -19 12 -80.5t21 -85.5q17 -51 61 -117.5t96 -120.5q51 -54 133 -82q15 -5 76 -16.5t70 -11.5q84 6 103 9.5t56 20.5q58 25 70 33t27 31q30 45 30 69 l-4 52l7 53l-3 26l3 43q0 26 -23.5 49.5t-52.5 28.5h-58q-10 0 -67 4q-16 0 -60 -10q-30 -6 -53 -6q-38 0 -69 35t-31 78q0 34 34.5 62t75.5 28q29 0 76 -8q27 -5 118.5 -10t147.5 -5l68 6q34 0 59 -34.5t25 -81.5q0 -15 -2 -25t-2 -22q0 -13 2 -19q6 -44 6 -49l-6 -66 l4 -63q0 -11 -6 -57q-4 -32 -4 -45q0 -23 8 -77.5t16 -82.5q2 -8 4 -17.5t3.5 -15.5t1.5 -10q0 -38 -31.5 -65t-77.5 -27q-55 0 -82 20q-6 4 -22 31q-4 8 -13 8l-8 -4q-32 -22 -109.5 -40.5t-132.5 -18.5q-117 0 -243 34q-49 13 -119.5 60.5t-126.5 103.5q-89 96 -156 260 q-20 49 -32.5 122.5t-12.5 137.5z" />
<glyph unicode="H" horiz-adv-x="1159" d="M106 94q0 4 1 11t2 16.5t2 17.5q14 75 14 133q0 17 -6 41l-6 29q13 97 13 159q0 18 -1 34q-1 17 -4.5 77.5t-5.5 104.5q-2 9 10 100q4 32 4 39q0 9 -4 37q-8 78 -8 80q0 15 2 31l2 65q1 10 2 31t2 28q2 8 2 19q0 8 -14 80q-7 40 -7 49q0 37 33 65.5t74 28.5q45 0 80 -35 q14 -15 23 -34t8 -29q-17 -116 -17 -137q0 -9 2 -17q1 -6 2 -13.5t1.5 -11.5t0.5 -6q0 -9 -10 -51q-2 -8 -2 -18q0 -47 19.5 -65.5t70.5 -18.5q25 -2 45 -2l37 -4q5 0 39 6q10 2 27 2q25 0 41 -2q46 -6 57 -6q93 4 149 6q27 0 39 7.5t15 25.5q6 36 6 63v23q-2 14 -2 26 l4 111q0 9 -6 33q-11 46 -11 53q0 32 35.5 61t73.5 29q17 0 47 -14.5t41 -26.5q6 -8 13.5 -30.5t7.5 -34.5q0 -3 -1 -7.5t-2 -11t-2 -12.5q-12 -74 -12 -115q0 -5 4 -55q2 -20 2 -41q0 -26 -6 -94q-4 -54 -4 -70q0 -31 6 -109q4 -36 4 -57q0 -2 -6 -125l-2 -39q0 -14 2 -30 v-39v-47l8 -89q0 -12 -4 -28q-2 -16 -2 -37q0 -64 13 -145q4 -20 4 -23q0 -11 -6.5 -32.5t-12.5 -28.5q-11 -14 -40 -25.5t-52 -11.5q-44 0 -78.5 29t-34.5 67q0 18 9 55q8 39 8 66l-4 164l4 82q-2 45 -4 87l-3 63t-1 26l6 78q0 27 -13 40q-3 5 -16.5 7t-77.5 8l-49 -2 l-57 4l-80 -2l-86 2q-9 0 -55 -6q-10 -2 -23 -2q-38 -1 -47.5 -3t-15.5 -10q-3 -5 -8 -24t-5 -29q0 -5 4 -29q6 -27 6 -41q0 -16 -6 -40q-6 -21 -6 -27l6 -62l-4 -47l2 -47q0 -2 -0.5 -7t-1.5 -14.5t-2 -19.5q-2 -10 -2 -26q0 -11 4 -35l2 -19l-6 -104q0 -5 10 -35 q13 -41 13 -59q0 -34 -34 -59t-79 -25t-77 30t-32 72z" />
<glyph unicode="I" horiz-adv-x="464" d="M121 104q0 5 4 37q14 54 14 123q0 7 -4 39q-6 44 -6 57q0 20 8 64q4 40 4 57q0 8 -4 70q-2 18 -2 37l2 76l-6 55q0 9 6 39q6 35 6 49q-8 196 -8 227q0 39 2 66q2 16 2 35q0 25 -8 61q-8 39 -8 74q0 37 31 66.5t71 29.5q43 0 80 -33t37 -71q0 -16 -10 -58q-13 -50 -13 -67 q0 -7 3 -19l2 -20l-5 -107q0 -2 1 -8.5t2 -17t2 -21.5q4 -16 4 -43q0 -9 -4 -45q-7 -51 -7 -55q3 -46 5.5 -88t4 -61.5t1.5 -22.5q0 -64 -6 -187l2 -61l-5 -55l3 -60l-3 -59q0 -19 17 -80q6 -21 6 -37q0 -40 -30 -70t-70 -30q-31 0 -63 14t-42 33q-4 7 -10 31.5t-6 35.5z " />
<glyph unicode="J" horiz-adv-x="880" d="M25 264q0 37 16.5 77t44.5 69q26 26 72.5 42.5t97.5 16.5q87 0 146 -43.5t59 -106.5q0 -29 -20.5 -49t-51.5 -20q-20 0 -32.5 4t-73.5 29q-23 10 -41 10q-23 0 -40.5 -18.5t-17.5 -43.5q0 -35 33 -59.5t82 -24.5q93 0 166 64q43 37 70.5 94t27.5 111q0 89 -6 170 q-4 18 -4 35q4 49 7 94t5 65q0 17 -2 27q-6 53 -6 70q4 62 4 86q2 28 4 57l-6 57l2 53q0 54 -79 54h-9q-21 0 -59 6q-14 2 -33 2q-7 0 -72 -10q-34 -6 -61 -6q-34 0 -62 29.5t-28 66.5q0 39 33.5 71.5t74.5 32.5q26 0 183 -16q195 14 210 16q32 0 76 -28q37 -22 37 -72v-8 q0 -8 -2.5 -26t-3.5 -23q-14 -59 -14 -97q0 -16 2 -32q4 -31 4 -62q-8 -180 -8 -203l10 -123l-4 -116q-6 -52 -6 -64q0 -10 2 -20q4 -28 4 -35q0 -43 -14.5 -115t-36.5 -131q-23 -64 -58.5 -101t-120.5 -87q-82 -45 -184 -45q-114 0 -170 37q-61 39 -83.5 59t-35.5 47 q-11 24 -19.5 64t-8.5 69z" />
<glyph unicode="K" horiz-adv-x="1091" d="M104 1282q0 35 32.5 61.5t76.5 26.5q43 0 77 -31.5t34 -72.5q0 -22 -21 -127l6 -76q0 -10 -6 -25l-4 -16q12 -80 12 -104v-19q0 -46 -8 -98l-2 -27q0 -7 4 -35q8 -54 8 -59q0 -19 2 -23.5t11 -9.5q6 6 14 10t27 31q39 60 131 158q53 64 67 80q50 45 58 53l49 61 q13 16 73 93q6 7 13.5 13.5t13.5 12.5q25 25 39 37q15 22 23 41q34 69 53 88q39 39 80 39q32 0 59 -28.5t27 -63.5q0 -42 -27 -98q-9 -22 -16.5 -30.5t-42.5 -37.5q-21 -21 -33 -37q-31 -40 -43 -57q-11 -10 -21 -20.5t-17 -18.5t-9 -10q-15 -25 -45 -52q-23 -23 -29 -26 q-1 -2 -5 -6.5t-11 -13t-13 -17.5q-19 -25 -29 -35t-44 -39q-15 -15 -35 -45q-27 -33 -41 -45q-7 -7 -43 -47q-1 -1 -14.5 -16.5t-18.5 -22.5q-45 -42 -45 -55q0 -6 7.5 -16t15.5 -15q39 -27 57 -43q7 -6 78 -55q3 -2 11 -8.5t21 -17.5t23 -19q195 -167 307 -207 q20 -7 36.5 -33.5t16.5 -50.5q0 -33 -33.5 -60.5t-74.5 -27.5q-97 0 -180 86q-18 18 -92 74l-43 30q-21 16 -29 27q-28 21 -53 37q-12 7 -35 22l-31 31q-6 6 -45 29q-20 11 -49 34q-33 29 -39 29q-18 9 -21 12q-2 2 -4 2q-4 0 -9 -9t-5 -17q0 -25 6 -62q4 -36 4 -53 q0 -29 -2 -43l-4 -20q0 -26 14 -72q7 -21 7 -35q0 -15 -8 -36.5t-17 -30.5q-25 -29 -90 -29q-47 0 -76 24t-29 64q0 24 9 80q8 80 8 88q0 19 -2 33q-4 54 -4 59q0 15 4 51q8 41 8 56q-10 147 -10 251q0 37 4 64l4 43q-8 160 -8 235q0 22 6 60q2 10 2 20q0 6 -18 121 q-1 6 -2 14.5t-2 13.5t-1 9z" />
<glyph unicode="L" horiz-adv-x="776" d="M106 86q0 26 9 64q10 58 10 83q0 4 -4 54q-2 16 -2 37q0 52 12 143l-6 244q0 30 4 55q1 16 2 31.5t1.5 23.5t0.5 10l-8 242q0 9 4 49q4 24 4 25q0 19 -12 72q-6 27 -6 55q0 43 30 71.5t74 28.5t78.5 -35t34.5 -79q0 -22 -6 -52q-9 -27 -9 -34l5 -91q0 -2 -1 -5t-2 -8.5 t-2 -10.5l-2 -14l-1.5 -10.5t-0.5 -4.5l11 -123q0 -1 -1 -4.5t-2 -10.5t-2 -15q-6 -38 -6 -86q0 -49 2 -76q1 -11 2 -23l1.5 -18t0.5 -8l-2 -93l2 -75q-8 -82 -8 -176l4 -60l-2 -41q0 -43 82 -43q15 0 25 2l20 2l99 -6q12 0 39 8q27 6 49 6q43 0 77 -30q33 -30 33 -66 q0 -38 -33 -74q-29 -32 -56 -32h-5q-110 14 -129 14l-78 -4l-76 4q-115 -14 -145 -14q-44 0 -76.5 29t-32.5 69z" />
<glyph unicode="M" horiz-adv-x="1353" d="M106 1260q0 29 39.5 68.5t67.5 39.5q19 0 33.5 -7.5t48.5 -33.5q16 -12 24 -16l43 -29q17 -6 68 -57q13 -14 53 -54q16 -13 37 -32l49 -56l37 -36l41 -46q3 -3 12 -6.5t11 -3.5q24 0 86 62q24 20 28 22q6 5 25 18t29 21q21 14 56 46t48 50q6 6 12.5 14t10 12t4.5 5l43 27 q15 7 35 41q22 36 36 47.5t37 11.5q54 0 89 -33q32 -30 32 -74v-8q0 -21 -12 -59q-8 -31 -8 -51q2 -23 4 -82q4 -50 6 -88q-10 -167 -10 -168t4 -33q10 -92 10 -139q0 -13 -4 -53q-6 -30 -6 -35l4 -88q0 -13 -2 -25q-2 -10 -2 -22q0 -17 2 -27q8 -39 8 -49l-8 -125 q0 -10 8 -37q12 -52 12 -94q0 -37 -31 -63.5t-73 -26.5q-46 0 -85.5 30t-39.5 66q0 23 10 68q12 54 12 67t-6 62q-4 28 -4 43q0 13 4 63q6 40 6 55q0 2 -8 125q-1 15 -2 30.5t-1.5 23t-0.5 8.5t4 67q6 37 6 56q-2 25 -2 55q-1 6 -3.5 34t-4.5 48q-6 33 -6 67q0 49 -21 56 q-5 2 -24 -13q-22 -22 -43 -34q-55 -36 -84 -64t-74 -86q-28 -34 -52 -48.5t-54 -14.5q-34 0 -54.5 15t-58.5 67q-16 23 -31 38l-22 21q-15 15 -35 45q-11 17 -17.5 22.5t-35.5 28.5q-29 24 -56 49q-20 17 -26 17q-8 0 -16.5 -12.5t-8.5 -22.5q0 -15 2 -23q3 -9 8 -41t5 -36 q-1 -13 -4.5 -44t-4.5 -49q-4 -33 -6 -53q0 -10 2 -18l6 -41q1 -15 2.5 -30t3 -23.5t1.5 -10.5q6 -34 6 -39l-13 -114q0 -13 2 -27q3 -18 3 -29q0 -4 -2 -22.5t-5 -49.5t-4 -46q0 -18 6 -117q0 -2 1 -6t5.5 -23.5t10.5 -48.5q6 -27 6 -41q0 -22 -12 -44.5t-29 -31.5 q-12 -6 -42.5 -12t-51.5 -6q-35 0 -62.5 27.5t-27.5 62.5q0 28 8 61q8 44 8 82q0 2 -4 68q-2 10 -2 20q7 119 8 129q-1 17 -2 53.5t-2 55.5q0 12 -1 32.5t-3.5 59t-3.5 68.5q0 18 8 57q6 44 6 66q0 5 -4 51q-6 55 -6 178l2 57q-3 66 -5 80t-9 31q-7 21 -7 27z" />
<glyph unicode="N" horiz-adv-x="1230" d="M106 1284q0 31 34 56.5t77 25.5q41 0 69 -28t79 -121q29 -54 94 -136q33 -42 63 -98q3 -5 11 -19t14 -24l35 -41q3 -4 10.5 -17t11.5 -18q19 -39 29 -49q1 -2 14 -16.5t19 -22.5q10 -10 28 -51q19 -40 29 -53q15 -15 33 -41q11 -11 16 -21l25 -49q2 -2 5.5 -6.5t11.5 -15 t15 -19.5q29 -36 48 -76q20 -36 22 -38q4 -6 8.5 -12.5t7 -10t3.5 -4.5q4 -14 8 -14l4 -5l2 -2q8 11 8 17q0 17 -6 35q-6 24 -6 32l4 54l-6 43l4 69q0 1 -0.5 4.5t-1.5 10t-2 12.5l-2 31q0 38 6 63l2 21q0 3 -0.5 7.5l-1.5 13.5t-2 17q-8 48 -8 84q0 6 4 46t4 51q0 26 -6 61 q-1 5 -2 10.5t-1.5 8.5t-0.5 4l8 114q0 1 -1 6q-6 29 -18 91q-2 8 -2 16q0 35 32 58.5t79 23.5q46 0 76 -26t30 -66q0 -17 -10 -72q-8 -48 -8 -55l2 -70q0 -10 -2 -20q-6 -35 -6 -39l6 -103q0 -10 -2 -22t-2 -31q0 -25 2 -39q6 -50 6 -55l-2 -82l4 -82q0 -8 -6 -57 q-2 -12 -2 -31q0 -14 8 -82l-6 -88l8 -94q0 -3 -0.5 -7t-1.5 -11t-2 -13q-4 -32 -4 -33q0 -14 10 -59q6 -24 6 -43q0 -34 -22 -60t-51 -26q-28 0 -59.5 10.5t-43.5 24.5q-12 11 -25 30.5t-81 128.5q-8 13 -16.5 26.5t-13 21t-5.5 8.5l-33 39q-14 21 -37 59q-15 25 -35 49 q-28 39 -30 41q-9 21 -19 41l-14 29q-14 31 -23 37q-12 14 -39 41l-36 67q0 1 -35 45l-31 45l-25 43q-4 4 -24 29q-10 10 -31 51q-3 6 -33 51q-16 24 -28 48q-2 6 -5 11t-6 8t-4 3l-6 6l-4 4l-4 -4l-4 -4q-6 -6 -6 -8q6 -29 6 -43q0 -15 4 -43q2 -14 2 -39q0 -51 2 -55 l2 -68q0 -9 -4 -37q-2 -6 -2 -14t2 -12q6 -38 6 -50q0 -20 -4 -36q-2 -14 -2 -31q0 -15 2 -23q2 -12 2 -22q0 -4 -10 -78q-2 -12 -2 -23q0 -2 4 -30q8 -31 8 -56q0 -3 -0.5 -8t-1.5 -15.5t-2 -19.5q-2 -14 -2 -36q0 -34 21 -123q2 -8 2 -23q0 -21 -5.5 -42t-11.5 -27 q-12 -12 -38 -20.5t-50 -8.5q-48 0 -75 29t-27 81q0 34 10 91q8 33 8 47q0 3 -10 61q-2 12 -2 37q0 21 2 35q1 10 2 19.5t1.5 14.5t0.5 7q0 102 -6 194l6 64l-6 86q0 14 2 26q6 40 6 62q0 27 -2 47q-8 63 -8 147q0 36 6 74q2 6 2 17q0 2 -14 96q-9 43 -9 55z" />
<glyph unicode="O" horiz-adv-x="1306" d="M53 762q0 102 25 182q2 2 18 39q7 14 23 61q15 45 77 120t115 112q76 52 159.5 81t156.5 29q108 0 174.5 -17.5t154.5 -68.5q52 -30 69.5 -46t53.5 -64l68 -88q59 -122 82.5 -206t23.5 -171q0 -29 -2 -45q-2 -35 -2 -66l2 -28v-9q0 -29 -11 -87q-13 -66 -26 -99 q-36 -83 -53.5 -114.5t-42.5 -63.5q-68 -83 -101.5 -111t-111.5 -65q-69 -34 -118 -47t-107 -13q-84 0 -136 10.5t-120 39.5q-64 28 -94 48.5t-86 76.5q-30 30 -40 44t-40 70q-22 36 -39 70q-10 32 -19.5 58.5t-13.5 37.5q-22 65 -26 88t-7 90q-6 114 -6 152zM238 721 q6 -68 8 -121q1 -27 17.5 -90.5t27.5 -87.5q52 -97 76.5 -132t66.5 -71q19 -15 71 -36.5t75 -22.5q82 -6 90 -6q92 0 172 55l65 45q39 41 65.5 81.5t55.5 104.5q20 42 25.5 72.5t7.5 93.5v74l2 20v23q0 44 -29 180q-6 30 -30 79t-46 75q-45 53 -74.5 78.5t-76.5 52.5 q-68 35 -145 35q-81 0 -170 -45q-62 -29 -118 -84.5t-87 -116.5q-11 -24 -23.5 -69t-15.5 -72z" />
<glyph unicode="P" horiz-adv-x="972" d="M106 1272q0 9 7 28t14 29q23 33 80 33q45 0 74 -2l24 -2t17.5 -1.5t7.5 -0.5l131 4q232 0 352 -141q20 -23 48 -74t38 -84q5 -20 13 -87t8 -93q0 -17 -13.5 -71t-25.5 -87q-10 -30 -44 -76t-61 -67q-68 -53 -101.5 -73t-74.5 -32q-87 -30 -186 -33q-64 0 -78 -14 q-12 -9 -21.5 -42t-9.5 -64q0 -19 2 -31q2 -14 2 -25l-4 -86q7 -28 14.5 -57.5t10 -39.5t2.5 -11q0 -32 -34.5 -56t-80.5 -24t-76 26t-30 64q0 10 12 137q2 16 2 37q0 3 -4 49q-6 35 -6 47q0 28 12 99q2 10 2 26q0 11 -2 21q-4 36 -4 82l-2 86q-1 12 -2 24.5t-1.5 18.5 t-0.5 8q0 25 8 80q4 40 4 53q0 5 -4 59q-4 20 -4 39l4 94l-2 35l6 72q0 2 -18 100q-1 5 -2 10.5t-2 8.5t-1 4zM307 788q0 -12 6 -51q3 -22 5.5 -42t4 -28.5t1.5 -9.5q20 -30 71 -30q125 0 207 67q127 106 127 234q0 54 -22 108t-58 90q-23 23 -75 37.5t-115 14.5h-25 q-20 -2 -39 -2l-45 2h-2q-15 0 -25 -12q-10 -13 -10 -38l2 -59l-8 -70q0 -3 0.5 -7l1.5 -12t2 -15q6 -30 6 -45q0 -12 -6 -70q-4 -24 -4 -62z" />
<glyph unicode="Q" horiz-adv-x="1308" d="M55 678q0 92 5.5 134t29.5 136q42 156 182 291q60 56 170.5 101.5t186.5 45.5q64 0 141.5 -12.5t106.5 -27.5q98 -53 127 -76q74 -61 96 -88t63 -109q57 -109 74.5 -197t17.5 -253q0 -25 -3.5 -86.5t-6.5 -71.5q-11 -76 -65 -168q-29 -45 -29 -68q0 -32 63 -45 q59 -11 81 -30t22 -60t-31.5 -73.5t-71.5 -32.5q-59 0 -131 61q-47 42 -67 45q-16 0 -37 -12q-99 -61 -166 -84t-145 -23q-62 0 -147 21t-134 49q-38 24 -89 63.5t-69 61.5q-69 83 -135 270q-6 18 -10 47q-2 18 -14 72q-15 73 -15 119zM246 711q0 -64 15 -153.5t30 -119.5 q80 -158 139 -209q38 -32 54 -40t77 -27q52 -15 70 -15q71 0 131.5 24.5t60.5 53.5q0 23 -34 47.5t-68 24.5q-16 0 -53 -18q-22 -11 -41 -11q-38 0 -63 28t-25 71q0 50 44.5 81t114.5 31q61 0 162 -63q71 -45 96 -45q37 0 65.5 37.5t35.5 97.5q12 86 12 227q0 83 -29 175 t-73 147q-64 82 -162 133q-58 33 -154 33q-42 0 -97.5 -20.5t-104.5 -53.5q-57 -37 -103 -92t-61 -105q-22 -65 -27 -94.5t-12 -144.5z" />
<glyph unicode="R" horiz-adv-x="1110" d="M106 1270q0 51 37 73q43 27 66 27h4q147 -14 307 -14q3 0 10.5 0.5t21.5 1.5t26 2q18 2 49 2q63 0 146.5 -48.5t135.5 -115.5q9 -12 23 -39q6 -12 35 -59q14 -25 32 -90q17 -62 17 -84q0 -43 -8 -120q-4 -36 -7 -48.5t-14 -38.5q-26 -59 -36 -75.5t-38 -47.5 q-49 -51 -82 -84q-79 -56 -128 -83t-107 -44q-16 -3 -16 -10q0 -10 51 -35q30 -12 47 -29l31 -24q76 -43 109.5 -55.5t107.5 -24.5q39 -6 57 -14t33 -27q28 -36 28 -66q0 -38 -38 -71t-84 -33q-58 0 -119 27q-76 36 -94.5 47t-53.5 41q-38 30 -59 43l-74 41q-9 6 -39 30 q-27 25 -51 39q-26 16 -57 47q-17 15 -33 15q-17 0 -21 -15.5t-10 -107.5q0 -27 15 -76q8 -36 8 -51q0 -32 -31 -56t-72 -24q-114 0 -114 102q0 55 8 121q4 36 4 37q0 5 -4 41q-6 38 -6 51q0 11 10 86q2 12 2 31q0 17 -2 29q-1 12 -2 23.5t-1.5 17t-0.5 6.5v82q0 7 -4 61 q-2 8 -2 14q0 61 12 150q-12 84 -12 157q0 30 2 58l6 80q0 12 -12 67q-9 30 -9 60zM305 997q0 -12 8 -45q4 -32 4 -47q0 -21 -2 -33q-8 -47 -8 -59q1 -15 2 -35t1.5 -30.5t0.5 -16.5l13 -100q0 -13 -2 -21l-3 -32q0 -42 17 -56q6 -4 121 -16q4 0 28 12t39 17 q53 22 66.5 29.5t36.5 27.5q3 3 80 65q51 42 94 121q10 23 24 117q0 27 -9.5 74.5t-18.5 62.5q-15 30 -55 72t-66 55q-28 15 -61 19q-26 3 -92 2h-42l-49 2q-11 1 -23 2l-18 1.5t-8 0.5q-42 -3 -59 -27q-9 -15 -11 -25.5t-2 -48.5q0 -20 -6 -88z" />
<glyph unicode="S" horiz-adv-x="917" d="M63 203q0 92 89 92q38 0 57 -11t90 -75q20 -17 61 -27q30 -7 52 -12q14 -6 30 -6q59 0 131 35q42 24 65.5 68t23.5 102q0 64 -89 147l-30 31q-4 5 -8.5 10t-6.5 7t-2 3q-18 13 -55 45l-16 17q0 1 -4.5 4t-15 9t-19.5 13q-2 0 -35 25q-14 9 -49 35q-51 36 -77.5 60.5 t-78.5 84.5q-70 80 -70 189q0 30 7.5 71.5t15.5 59.5q46 86 132.5 138t184.5 52q30 0 94.5 -12t94.5 -23q53 -20 85 -55t32 -72t-32 -64.5t-75 -27.5q-34 0 -80 27q-45 30 -63.5 35.5t-71.5 5.5q-31 0 -86 -35q-53 -32 -53 -102q0 -34 15 -57t73 -75q44 -38 59 -47 q84 -52 166 -123q5 -5 53 -43q26 -26 33 -36q16 -18 60 -62q40 -43 71 -115t31 -122q0 -78 -30 -154t-77 -117q-75 -66 -161 -88q-35 -8 -174 -18q-84 0 -224 63q-56 27 -100 80q-23 29 -23 70z" />
<glyph unicode="T" horiz-adv-x="927" d="M18 1284q0 32 34 60q30 26 61 26h6q76 -5 119 -8q50 -4 53 -4q27 0 112 10l80 -8l52 2l36 -4q8 -2 19 -2q8 0 14 2q10 1 19 2t13 1.5t5 0.5l96 -4q3 0 45 10q24 4 31 4q34 0 65 -32.5t31 -69.5q0 -40 -32 -69.5t-76 -29.5q-7 0 -68 17q-10 2 -59 4q-21 0 -80 6 q-21 0 -39 -14t-18 -31q0 -13 2 -23q4 -20 4 -26q0 -20 -6 -47q-9 -30 -9 -41q0 -7 11 -49q6 -21 6 -27l-8 -98q-1 -15 -1 -35q0 -25 2 -57q4 -60 9 -86l4 -17l-10 -72l6 -59q0 -11 -6 -29q-1 -3 -2 -6.5t-1.5 -5t-0.5 -2.5l10 -65q-2 -9 -6 -19q-6 -12 -6 -16l8 -99 q0 -12 -8 -45q-3 -12 -3 -20q0 -22 17 -68q16 -40 16 -53q0 -35 -33 -65.5t-71 -30.5q-46 0 -86.5 31.5t-40.5 68.5q0 8 10 60q10 35 10 88q0 14 -2 26q-6 55 -6 78q0 3 1 19t4 53.5t5 75.5q0 16 -2 26q-6 30 -6 37l4 88q0 2 -0.5 6.5l-1.5 13.5t-2 17q-4 28 -4 33 q0 20 10 92q4 40 4 51q0 23 -2 41q-6 43 -6 170l4 59q0 38 -28 56q-20 10 -115 10q-30 0 -61 -10q-24 -6 -41 -6q-32 0 -61.5 35t-29.5 73z" />
<glyph unicode="U" horiz-adv-x="1167" d="M106 1280q0 39 32 66.5t77 27.5q46 0 78.5 -28.5t32.5 -69.5q0 -12 -11 -111q-1 -9 -2 -19.5t-1.5 -15.5t-0.5 -8q0 -12 2 -24q2 -8 2 -21q0 -14 -2 -24l-2 -14l-1.5 -10.5t-0.5 -4.5q13 -80 13 -104q-8 -80 -13 -103q2 -22 3.5 -50.5t2.5 -35.5q0 -23 7 -59q4 -28 4 -35 q0 -13 -2 -23q-9 -64 -9 -94q0 -2 0.5 -9t1.5 -22l2 -30q0 -21 3 -64q2 -80 16.5 -121t52.5 -69q28 -19 87.5 -33t111.5 -14q45 0 93 15.5t75 39.5q12 11 39 48.5t30 49.5q6 18 14.5 56.5t8.5 44.5l-4 71l2 45l-2 127v45q0 50 2 68q2 27 2 49q0 25 -6 74q-2 12 -2 27 q0 6 4 30q2 12 4 23.5t3 17t1 6.5l-8 92q0 13 2 29q2 8 2 21q0 18 -8 82q-8 39 -8 59q0 34 38 64t82 30q35 0 66 -30.5t31 -65.5q0 -32 -19 -168q0 -14 8 -55q2 -12 2 -31q0 -15 -4 -51q-8 -41 -8 -56q0 -145 14 -245q0 -7 -6 -31q-8 -33 -8 -59q0 -12 6 -52q2 -14 2 -39 q0 -18 -2 -34q-2 -18 -2 -41q0 -28 6 -58l2 -18l-8 -98q25 -147 25 -162q0 -31 -29 -52.5t-72 -21.5q-37 0 -62 19t-24 45q0 14 2 22v12q-62 -48 -95.5 -67t-65.5 -23q-64 -10 -78 -14q-33 -8 -68 -8q-25 0 -168 20q-56 7 -118 49.5t-93 94.5q-15 26 -35 89t-20 83q0 8 2 14 q4 24 4 25q0 20 -8 53q-6 27 -6 53q0 5 4 51q2 14 2 25l-8 180q0 1 0.5 4.5t1.5 10t2 12.5q10 62 10 178q0 3 -0.5 8.5l-1.5 16.5t-2 20q-2 12 -2 27q0 6 4 34q2 14 2 25q-12 112 -18 135q-13 54 -13 82z" />
<glyph unicode="V" horiz-adv-x="1048" d="M2 1266q0 44 34.5 77t80.5 33q35 0 61.5 -17t36.5 -48q13 -35 27 -131q2 -33 8 -56q9 -19 20 -47q1 -3 3.5 -11.5t9 -28.5t14.5 -46q13 -45 20 -80q12 -36 37 -100q15 -37 15 -47q10 -58 12 -70q7 -17 33 -76q11 -28 16 -63q13 -63 19 -72l26 -73q12 -24 17 -56l14 -57 q1 -10 7 -18.5t11 -8.5q6 0 13 15q14 20 18 33t16 71q6 24 23 64q17 43 22 69q9 37 21 76q4 14 10 33t8 26q7 36 17 58l4 18l4 17q8 24 25 65q20 48 34 115q7 28 13 45l22 53q8 21 14 53q3 15 19 64q9 19 12 76q6 80 31 115.5t76 35.5q55 0 88 -33q30 -30 30 -77v-9 q-3 -52 -67 -186q-3 -5 -21 -41q-16 -54 -18 -61l-6 -15l-10 -45q-9 -36 -54 -153q-16 -37 -16 -43l-16 -68q-2 -9 -4 -16t-6 -17.5t-7 -19.5q-26 -81 -35 -105q-3 -10 -11.5 -32.5t-12.5 -34.5q-8 -31 -19 -60q-8 -23 -24 -63q-1 -4 -7 -18.5t-8 -22.5q-16 -51 -32 -90 q-5 -10 -27 -90q-10 -38 -40.5 -60t-70.5 -22q-51 0 -94 37q-16 16 -23.5 31t-23.5 71q-5 18 -16 45q-3 7 -25 57q-13 40 -31 97q-5 16 -21 60t-19 52q-16 36 -17 39q-11 43 -16 66q-18 72 -41 127q-19 40 -19 45q-16 41 -22 76q-3 9 -10 31.5t-9 31.5q-28 94 -53 166 q-1 4 -26 63q-42 95 -53 126t-11 55z" />
<glyph unicode="W" horiz-adv-x="1480" d="M14 1270q0 41 32 72.5t73 31.5q28 0 55.5 -17.5t40.5 -45.5q12 -22 15 -36.5t6 -74.5q2 -24 8 -45q3 -8 5.5 -20t6 -30.5t6.5 -31.5q0 -4 14 -47q9 -51 17 -78l26 -63q8 -25 15 -62q10 -43 20 -67q4 -14 9 -28t7.5 -20.5t2.5 -7.5l12 -71q1 -2 2.5 -8.5t3.5 -14.5t6 -16 q21 -73 23 -82q3 -13 6.5 -28.5t5.5 -25t4 -14.5q14 -57 29 -133q3 -43 20 -43t21 41q2 37 12 68q5 18 14 61q2 11 27 78q8 30 31 94l8 43q4 15 23 70q6 21 6 37q0 30 -27 92q-4 8 -8 16.5t-5.5 13t-2.5 5.5l-9 43q-1 3 -3.5 9t-8 19.5t-10.5 24.5q-15 35 -18 55 q-9 40 -9 43l-14 29l-14 45l-27 49q-18 38 -18 72q0 37 29.5 67.5t64.5 30.5q39 0 72 -35t36 -80q3 -34 13 -69q6 -18 10 -58q4 -18 18 -61q12 -35 15 -47q5 -14 10 -14q2 0 10 30q4 18 12 45q9 14 15 43q1 2 2.5 6t4.5 10.5t5 12.5q8 22 10 74q3 63 30.5 103t68.5 40 t73.5 -36t32.5 -81q0 -32 -8.5 -57t-36.5 -78q0 -1 -1.5 -6t-5.5 -16.5t-7 -22.5q-6 -18 -27 -57q-13 -53 -35 -101l-18 -63q-19 -42 -23 -55q-10 -27 -10 -56q0 -47 27 -114q7 -17 20 -56q5 -22 10 -55q5 -26 27 -84q3 -9 12 -67q16 -84 25 -93l6 -6q11 6 14 12.5t7 34.5 q7 46 22 86q3 10 14 60q1 3 4 10.5l8 20t9 24.5q1 2 12 51q0 3 8 27q8 13 17 59q1 9 18 51q15 27 19 38t8 44q8 42 12 50q14 28 27 75q5 18 16 41q13 29 16 43l15 43l18 43q3 10 14.5 40.5t16.5 45.5q0 2 8 49l4 46q4 49 35 78.5t76 29.5q46 0 78 -31q29 -28 28 -67v-8 q-2 -28 -7.5 -44t-33.5 -67q-10 -18 -28 -70q-4 -12 -29 -63q-1 -2 -23 -66q-5 -12 -26 -71q-1 -4 -19 -64q-12 -36 -38 -96q-5 -5 -17 -51q-12 -56 -17.5 -73t-25.5 -62q-32 -71 -29 -78l-12 -49q0 -1 -14 -41q-9 -20 -21 -62q-11 -40 -22 -69l-6 -18t-9 -30 q-6 -25 -26 -78.5t-29 -68.5q-28 -55 -86 -55q-31 0 -65.5 18.5t-49.5 44.5q-8 16 -25 72t-20 78q-3 31 -14 65q-2 10 -10 45q-4 23 -17 45q-5 13 -10 27t-6 16q-4 9 -8 41q-3 34 -14 37q-2 1 -4 -4q-4 -11 -15 -76q-8 -38 -14 -51l-17 -41q-2 -3 -4.5 -11.5t-11 -34.5 t-18.5 -56l-9 -25l-20 -82q-13 -56 -38.5 -80t-70.5 -24q-27 0 -42 6.5t-40 28.5q-29 24 -39 44.5t-28 84.5q-15 60 -19 92q-39 154 -59 209q-13 34 -16 47q-11 52 -27 100q-22 67 -22 68l-13 59q-21 80 -84 260q-5 14 -16 58q-8 27 -21 61l-24 49q-6 16 -13.5 53.5 t-7.5 59.5z" />
<glyph unicode="X" d="M14 86q0 50 54 113q29 34 34 43q6 12 13 23.5t13.5 22.5t8.5 15q15 19 17 25l8 16q16 47 20 51q20 30 35 54q15 25 33 61l11.5 23t9.5 19.5t5 10.5q2 8 8 22.5t7 18.5q1 1 5 7.5t13 20.5t17 27q12 19 29.5 70t17.5 66q0 13 -43 69q-18 22 -35 58l-35 55q-1 1 -8 11 t-12 16q-25 38 -31 49q-23 31 -23 32q-8 12 -34 35q-34 34 -55 79t-21 85q0 32 32 60t68 28q38 0 88 -53q22 -27 53 -100q20 -40 23 -43l41 -56q5 -11 15 -30.5t12 -22.5q3 -10 28 -41q43 -62 60 -88q33 -49 43 -49q9 2 28 33q15 26 45 67q9 12 45 70l25 37q12 16 39 67 q3 4 14.5 21t18.5 26q10 14 30 54q29 58 55.5 78t73.5 20q93 0 93 -94q0 -30 -11 -53t-43 -58q-50 -55 -82 -104q-26 -41 -32 -54l-31 -38l-43 -62q-31 -41 -51.5 -76.5t-20.5 -46.5q0 -6 17 -33q8 -17 20 -53q16 -51 21 -49l16 -23q9 -9 27 -49q1 -2 13.5 -23t20.5 -36 l37 -57q16 -25 19 -35l20 -60q6 -21 33 -66t55 -81q39 -52 51.5 -77.5t12.5 -55.5q0 -34 -29.5 -58t-71.5 -24q-50 0 -88 29.5t-51 80.5q-6 32 -10 39q-5 15 -12 29q-19 44 -19 45q-3 8 -35 82q-13 29 -37 64q-5 5 -30 53q-3 4 -12.5 17t-14.5 20q-14 18 -31 61 q-9 23 -36 62q-2 4 -9 17.5t-10 22.5q-11 25 -20 25q-10 0 -33 -35l-27 -33q-11 -17 -26 -55q-16 -46 -29 -59q-9 -13 -35 -43q-7 -10 -16 -41q-13 -43 -19 -49l-28 -43q-8 -21 -19 -47q-3 -9 -26 -45q-18 -30 -25 -48t-20 -67q-20 -84 -93 -84q-52 0 -90.5 27.5t-38.5 64.5 z" />
<glyph unicode="Y" horiz-adv-x="872" d="M2 1286q0 34 29.5 58t70.5 24q73 0 117 -57q8 -11 11 -20t10 -46q6 -22 32 -59q17 -22 31 -58q2 -5 33 -49q26 -35 61 -106q13 -21 25 -21t38.5 32t49.5 75q0 1 20 39q32 41 41 59l9 17l28 38q17 33 29 66q41 92 135 92q37 0 67 -33t29 -71q-3 -45 -69 -117 q-36 -41 -37 -43q-24 -38 -31 -51l-37 -45q-1 -1 -4.5 -6.5t-10.5 -17.5t-15 -23q-12 -23 -82 -115q-44 -57 -57.5 -83t-16.5 -63v-67q0 -12 -4 -84q0 -89 6 -156l-6 -57l4 -49l-2 -78q0 -25 14 -111q2 -12 2 -28q0 -37 -29 -60.5t-73 -23.5q-54 0 -83.5 26.5t-29.5 73.5 q0 36 6 76q9 56 9 82q0 15 -7 59q-1 9 -2 19.5t-1.5 15.5t-0.5 8q0 1 1 11t3 31l4 42q3 15 3 29q0 16 -3 37q-6 52 -6 61l4 74l-8 90q-1 53 -9.5 76t-41.5 63q-22 25 -22 29l-37 74q-8 20 -39 59q-31 43 -39 59q-14 27 -39 68q-7 12 -29 41q-34 43 -42.5 58.5t-8.5 35.5z " />
<glyph unicode="Z" horiz-adv-x="991" d="M39 127q0 17 8 40.5t19 37.5q56 82 59 86q13 24 61 82q17 17 39 69q27 62 33 66l37 45q45 69 137 246q17 30 57 80q11 6 41 67q27 59 41 76l45 59q2 3 27 41q14 20 14 33q0 8 -12.5 17t-21.5 8l-62 -9l-47 5l-55 -2l-72 6q-11 0 -65 -13q-24 -8 -50 -8q-41 0 -74.5 33 t-33.5 74q0 40 28 67t68 27q32 0 55 -2q12 -2 31 -2q10 0 146 8q204 -12 256 -12q13 0 59 8q30 6 49 6q35 0 65.5 -31.5t30.5 -68.5q0 -31 -15 -56.5t-56 -60.5q-12 -12 -23 -31q-2 -3 -12.5 -21t-16.5 -26q-9 -15 -38 -61q-37 -54 -50 -82q-45 -83 -67 -111 q-32 -41 -33 -43q-9 -11 -43 -84q-48 -102 -119 -205q-16 -20 -41 -63l-37 -57q-64 -94 -82 -144q0 -13 21 -25t43 -12q11 0 49 6q32 7 60 7q19 0 73 -4q21 -3 27 -3l80 5l53 -2q12 0 39 6q20 4 22 4q54 0 91.5 -29.5t35.5 -69.5q-1 -43 -42 -78.5t-87 -35.5q-19 0 -67 10 q-69 16 -94 16q-13 0 -25 -2q-108 -12 -139 -12q-25 0 -41 2q-62 6 -92 6q-5 0 -37 -4q-92 -10 -109 -10q-28 0 -63.5 14t-48.5 31q-9 11 -19 40t-10 46z" />
<glyph unicode="[" horiz-adv-x="720" d="M203 -131q0 4 0.5 9.5t1.5 16t2 19.5q3 10 8 113q0 28 2 69q-14 118 -12 140l4 83q0 89 -4 134l4 20q8 36 8 49l-12 123q0 11 2 25q4 23 4 129v24l2 25q0 12 -2 24l-2 14l-1.5 10.5t-0.5 4.5q0 26 10 62q2 8 2 16q0 10 -2 18q-6 27 -6 39l2 39l-2 53l2 48q0 2 -0.5 6.5 t-1.5 14t-2 17.5q-2 12 -2 25q0 94 16.5 126t65.5 32q13 0 45 -4q40 -7 47 -7l37 -2q8 -2 16 -2q1 0 3.5 0.5t7 1.5t8.5 2q21 3 59 3l70 4q26 0 48.5 -29.5t22.5 -63.5q0 -29 -23 -52t-52 -23q-5 0 -37 4q-16 2 -47 2q-83 0 -93 -4t-18 -29t-8 -53q0 -4 0.5 -13.5t1.5 -26.5 t2 -30q2 -16 2 -53q0 -34 -2 -59q-2 -37 -2 -76q0 -15 4 -47q4 -50 4 -52q0 -14 -2 -22l-2 -27q0 -8 4 -32l2 -10l1.5 -7.5t0.5 -3.5l-4 -41l2 -33q-6 -70 -6 -141l4 -55q0 -1 -0.5 -4l-1.5 -9l-2 -12q-6 -35 -6 -61q0 -17 4 -49l2 -14l1.5 -10.5t0.5 -4.5l-2 -64l4 -47 q0 -7 -6 -37q-2 -8 -2 -18q0 -12 2 -18q6 -37 6 -43q0 -1 -4 -21q-2 -6 -2 -18q0 -20 15.5 -27.5t54.5 -7.5l73 4q20 4 47 4q35 0 60.5 -28t25.5 -66q0 -37 -26.5 -59.5t-69.5 -22.5q-10 0 -59 8q-10 1 -22 2l-18 1.5t-9 0.5q-11 0 -17 -2q-8 -2 -16 -2l-47 4q-7 0 -45 -12 q-20 -4 -25 -4q-20 0 -44.5 8.5t-33.5 17.5q-6 8 -13 30t-7 34z" />
<glyph unicode="\" horiz-adv-x="854" d="M80 1294q0 35 32 56.5t85 21.5q59 0 96 -43q16 -18 21 -32t18 -76q45 -156 84 -230q8 -4 28 -86q9 -32 25 -69q1 -3 7.5 -18.5t20 -46t35.5 -77.5q7 -22 21 -86q8 -40 14 -43q3 -6 41 -80q40 -124 62 -200q7 -22 30 -66q17 -30 21 -43q2 -3 16 -47q27 -96 49 -121l31 -49 q18 -48 19 -51q10 -30 10 -51q0 -31 -27.5 -49.5t-73.5 -18.5q-87 0 -108 49q-23 58 -28 73t-9 44q0 11 -18 51l-19 49q-25 80 -33 101q-1 3 -3.5 9t-8 19.5t-10.5 24.5q-30 71 -37.5 91t-17.5 62q-5 19 -21 46q-23 43 -30.5 60t-20.5 62q-9 33 -16 48q-2 6 -15 40t-18 50 q-6 11 -49 127q-7 21 -13 36l-18 37q-27 58 -29 70q-5 13 -14 45q-13 43 -39 94q-11 11 -18 35q-33 65 -48 94q-24 50 -24 88z" />
<glyph unicode="]" horiz-adv-x="720" d="M66 1317q0 34 27.5 58t68.5 24q3 0 6.5 -0.5t10 -1.5t11.5 -2q45 -9 80 -9q4 0 33 5l47 -5q1 0 6 1.5t16 4t23 5.5q16 4 25 4q46 0 72 -23.5t26 -64.5q0 -4 -0.5 -9.5t-1.5 -16t-2 -19.5q-6 -21 -6 -115q-2 -27 -4 -70q2 -15 4 -35.5t5 -51t5 -52.5l-6 -82q0 -92 4 -135 q0 -1 -0.5 -3.5l-1.5 -7.5t-2 -9q-2 -11 -4 -23.5t-3 -18.5t-1 -8l12 -122q0 -11 -2 -23q-4 -23 -4 -131v-25l-2 -24q0 -13 2 -25q1 -5 2 -12.5t1.5 -11t0.5 -4.5q0 -28 -10 -62q-2 -8 -2 -16q0 -11 2 -19q6 -24 6 -39l-2 -39l2 -53l-2 -47q0 -2 0.5 -7t1.5 -14.5t2 -19.5 q2 -10 2 -22q0 -95 -16.5 -126.5t-65.5 -31.5q-13 0 -45 4q-82 8 -100 8q-8 0 -51 -6l-43 2l-54 -4q-26 0 -48.5 29t-22.5 63q0 29 23 52.5t52 23.5q1 0 37 -4l99 -4q38 0 52.5 19t14.5 69q0 3 -4 69q-2 18 -2 54q0 34 2 59q2 35 2 76q0 15 -4 47q-1 11 -2 23t-1.5 18.5 t-0.5 9.5q0 15 2 23q2 14 2 26q0 7 -4 35q-1 4 -2 8.5t-1.5 7t-0.5 3.5l4 41l-2 34q6 71 6 140l-2 55q0 12 2 24q6 44 6 64q0 29 -4 49q-1 6 -2 12.5t-1.5 10t-0.5 4.5l4 63l-6 47q0 4 6 39q2 6 2 19q0 10 -2 18q-4 40 -4 41q0 13 2 23q2 8 2 16q0 18 -14 29q-3 1 -26.5 4.5 t-29.5 3.5q-8 -1 -26 -2t-27 -2q-20 -2 -67 -6q-34 0 -60 29t-26 67z" />
<glyph unicode="^" horiz-adv-x="1024" d="M96 805q0 24 27 74q60 112 74 133q1 2 5.5 10t10 18.5t10.5 22.5q14 25 51 88q2 5 14.5 26.5t20.5 36.5q46 93 59 114t31 32q12 7 25 8.5t72 1.5h34q63 0 76.5 -2t28.5 -14q16 -10 39 -56q3 -5 8.5 -14t15 -24.5t17.5 -28.5t41 -78q54 -109 90 -166q18 -30 28 -51 q3 -7 37 -72q19 -38 19 -59q0 -31 -26.5 -54.5t-61.5 -23.5q-29 0 -48 13t-38 46q-16 31 -49 80q-7 10 -31 66q-2 6 -37 63q-10 13 -33 64q-6 12 -32 56t-31 50q-12 15 -31 15q-27 0 -49 -45q-8 -16 -20 -38.5t-20.5 -38t-14.5 -26.5q-23 -37 -41 -76q-4 -10 -31 -49 q-19 -25 -49 -90q-28 -52 -49.5 -71t-53.5 -19q-37 0 -62.5 23t-25.5 55z" />
<glyph unicode="_" horiz-adv-x="1024" d="M0 -123q27 -4 51 -4q74 6 133 6q118 -4 140 -4q53 0 86 -2h34q23 0 33 2l80 6l57 -2q20 -4 109 -4q14 0 96 4l84 -4h21q14 2 100 2v-164q-11 -1 -23.5 -2t-20 -1.5t-13.5 -0.5l-72 2l-76 -6l-67 8l-70 -4l-68 4l-67 -6l-70 4l-67 -6l-68 10l-70 -4l-92 2q-27 0 -43 -2 q-10 -2 -18 -2q-11 0 -19 2q-23 2 -100 2v164z" />
<glyph unicode="`" horiz-adv-x="1024" d="M307 1389q0 29 26.5 51t63.5 22q33 0 58.5 -24t58.5 -86q8 -11 18 -21l25 -24q14 -12 25.5 -35.5t11.5 -40.5q0 -35 -25 -53q-31 -17 -43 -17q-30 0 -96 66q-37 37 -47 43q-33 28 -54.5 61.5t-21.5 57.5z" />
<glyph unicode="a" horiz-adv-x="933" d="M33 365q0 53 21.5 120t54.5 119q19 27 72.5 64.5t109.5 62.5q18 8 76 18.5t84 10.5q31 0 94 -19q18 -6 69 -20q21 -8 29 -8q9 0 15 9t6 23q0 56 -66 101q-54 33 -123 33q-3 0 -82 -11q-23 -3 -34.5 -8t-57.5 -31q-13 -8 -39 -8q-35 0 -63.5 31.5t-28.5 71.5q0 66 113 100 q44 14 96 20q14 1 119 11q33 0 98.5 -20.5t93.5 -39.5q10 -6 47.5 -37.5t42.5 -37.5q46 -80 53.5 -94.5t10.5 -34.5v-74q0 -15 6 -94q0 -21 -2 -41q-2 -6 -2 -17q0 -12 2 -18q6 -47 6 -55q0 -5 -0.5 -15t-1.5 -28.5t-2 -34.5q-2 -10 -2 -25v-14q2 -27 2 -58q0 -4 -0.5 -16.5 t-1.5 -36t-2 -45.5q-2 -14 -2 -35q0 -55 4 -75q2 -12 2 -25q0 -31 -29 -56.5t-63 -25.5q-17 0 -26.5 6t-47.5 37q-13 10 -25 10q-13 0 -26 -8q-96 -57 -199 -57q-69 0 -151 45q-7 4 -54 24q-38 17 -56 33t-46 58q-12 16 -41 53q-23 30 -38 76.5t-15 85.5zM221 379 q0 -45 16 -76.5t62 -77.5q16 -15 22.5 -20.5t32 -11.5t50.5 -8t98 -7q47 0 96.5 29.5t54.5 58.5l17 115q0 103 -25 131q-20 25 -63 41q-111 33 -133 33q-49 0 -98 -23t-81 -61q-29 -33 -39 -58.5t-10 -64.5z" />
<glyph unicode="b" horiz-adv-x="1030" d="M82 1282q0 40 30 66t76 26t78.5 -28.5t32.5 -69.5q0 -57 -12 -107q-6 -27 -6 -32q6 -89 8 -97q3 -15 17 -29t26 -14q10 0 37 15q27 14 75.5 25.5t81.5 11.5q91 0 172.5 -40.5t143.5 -115.5q94 -118 110 -176q15 -59 27 -96q10 -35 10 -60q0 -28 -4.5 -101.5t-7.5 -84.5 q-29 -160 -104.5 -244t-221.5 -121q-12 -3 -45 -14q-21 -6 -24 -6l-43 4l-33 -2q-76 10 -76 12q-56 22 -115 39q-4 2 -8 2q-11 0 -57 -35q-13 -10 -53 -10q-43 0 -73 30.5t-30 73.5q0 28 8 64q4 24 4 25l-4 67l9 53l-5 60l5 45l-5 63q0 3 1 7.5t2 11t2 12.5q4 36 4 41 q0 25 -9 78q-2 6 -2 16q0 3 1 7t2 11t2 11q1 7 2 15.5t1.5 13t0.5 6.5l-4 88l4 53l-4 49l2 92q0 100 -3 130.5t-20 109.5q-6 24 -6 49zM279 539q4 -66 4 -84q0 -23 6 -52q4 -28 4 -47q2 -45 9 -64.5t36 -51.5q28 -34 83 -55t116 -21q108 0 182 84q27 28 32.5 36.5t12.5 32.5 q43 115 43 154q0 11 -2 21q-4 46 -4 67q-1 34 -13 74.5t-26 64.5q-66 105 -121 140q-37 22 -78 24q-22 0 -61 4q-80 -9 -97 -12.5t-40 -17.5q-33 -19 -46 -33t-19 -37.5t-9 -77.5q-4 -47 -4 -76q0 -24 -8 -73z" />
<glyph unicode="c" horiz-adv-x="755" d="M45 569q0 34 3.5 54t23.5 108q6 27 29.5 78.5t45.5 85.5q21 30 66.5 67t97.5 64q17 10 77 23.5t87 13.5q25 0 72 -11t71 -22q48 -24 68.5 -48t20.5 -60q0 -40 -27 -76.5t-57 -36.5q-19 0 -58 22q-53 35 -84 35q-53 0 -106 -39q-4 -2 -16.5 -11t-20.5 -13 q-28 -17 -44 -40.5t-36 -76.5q-27 -74 -27 -98l7 -96q0 -31 7 -48t44 -77q8 -10 22 -39q40 -71 109 -109.5t155 -38.5l68 2q38 0 59 -35q27 -48 27 -75q0 -40 -28.5 -66t-71.5 -26q-61 0 -144 20.5t-125 46.5q-164 100 -227 201q-88 141 -88 321z" />
<glyph unicode="d" horiz-adv-x="1024" d="M43 504q8 124 12.5 152.5t24.5 72.5q5 13 10 27t6 16l10 31q1 5 30 47.5t42 58.5q38 43 135 103q24 14 99.5 28.5t124.5 14.5q23 0 69 -17.5t84 -40.5q20 -8 27 -8q22 0 22 51q0 23 2 35l2 62q0 33 -8 69q-12 50 -12 74q0 37 28 63.5t68 26.5q49 0 83 -27t34 -65t-12 -88 q-6 -24 -6 -39q0 -17 2 -31q4 -28 4 -39q0 -32 -2 -65q-2 -20 -2 -55v-136v-53l-2 -57l6 -84q0 -11 -9 -49q-2 -8 -2 -19q0 -10 2 -18q11 -53 11 -74q0 -18 -6 -45q-1 -4 -2 -9t-2 -7.5t-1 -3.5l5 -56l-2 -71q5 -91 7.5 -111t12.5 -49q6 -18 6 -27q0 -35 -31.5 -65.5 t-68.5 -30.5q-49 0 -86 43q-24 27 -37 29q-6 3 -27 -15q-29 -23 -98 -43t-123 -20q-19 0 -43 8q-6 2 -12.5 4t-10 3t-4.5 1l-32 6q-19 3 -76 30.5t-78 43.5q-68 68 -84 92q-28 37 -50 87.5t-28 90.5q-1 12 -6.5 77t-5.5 71zM227 530q0 -110 17 -163q25 -72 46 -101t64 -49 q76 -34 103 -42.5t57 -8.5q43 0 89 21t81 57q27 27 35.5 47t9.5 65q3 34 6 56q3 28 6 84l2 32l2 29q0 3 -4 23q-6 21 -6 26l6 47l-8 45l2 33q0 61 -61 103q-29 21 -42.5 26t-49.5 8l-90 9q-27 -1 -66 -13.5t-53 -23.5q-25 -18 -53 -52t-46 -67q-35 -66 -38 -100 q-9 -90 -9 -91z" />
<glyph unicode="e" horiz-adv-x="919" d="M43 518q0 119 7 166.5t36 120.5q30 79 61 113t132 102q22 14 89.5 26.5t120.5 12.5q103 0 187 -64q66 -53 91 -80t48 -73q17 -32 33 -86t16 -78q0 -29 -31.5 -60.5t-62.5 -31.5q-10 0 -65 10q-16 4 -23 4q-8 0 -16 -2q-8 -1 -17 -2l-13.5 -1.5t-6.5 -0.5l-68 2 q-3 0 -8.5 -0.5l-16.5 -1.5l-22 -2q-6 -2 -18 -2l-23 2q-31 8 -39 8l-96 -8q-1 0 -3.5 0.5t-7 1.5t-8.5 2q-10 2 -20 2q-35 0 -54.5 -24t-19.5 -68q0 -47 53 -139t97 -121q54 -35 122.5 -59.5t112.5 -24.5q43 0 101 20q67 23 82 23q32 0 61 -35t29 -72q0 -112 -248 -112 q-117 0 -229 49q-73 31 -105 51t-80 68q-91 90 -110.5 119.5t-36.5 107.5q-7 29 -13 47q-10 45 -12 53q-6 24 -6 37zM268 770q0 -3 6.5 -7.5t12.5 -4.5h10q8 2 29 2l36 -2q28 -4 29 -4q8 0 45 6q8 2 23 2q21 0 45 -6t28 -6q16 2 32.5 4t25.5 3t12 1q38 3 35 28 q-1 23 -30.5 51.5t-57.5 36.5q-73 17 -86 17q-88 0 -146 -49q-12 -11 -30.5 -38t-18.5 -34z" />
<glyph unicode="f" horiz-adv-x="544" d="M33 930q0 43 18 68.5t49 25.5q5 0 9 -2q4 -1 8.5 -2t7 -1.5t4.5 -0.5q6 0 11 5t5 11l-2 10l-4 125q0 23 21 65q23 43 51 73q11 12 45.5 33.5t44.5 21.5q76 10 80 10q23 0 53.5 -10.5t44.5 -22.5q45 -42 45 -86q0 -35 -31.5 -67.5t-66.5 -32.5q-17 0 -47 18q-14 7 -19 7 q-14 0 -28.5 -22.5t-14.5 -45.5q0 -14 4 -44t7 -34q6 -18 28 -18q16 0 37 6q32 4 41 4q37 0 62.5 -27t25.5 -67q0 -38 -23 -63t-57 -23q-57 2 -84 4q-13 -1 -17.5 -2.5t-10 -4t-7.5 -14.5t-3.5 -23.5t-4.5 -41.5q0 -1 0.5 -3t3 -17t5.5 -40l2 -12q0 -2 -4 -18q-1 -4 -2 -8.5 t-2 -7.5t-1 -5l5 -37l-9 -63q0 -3 4 -23q2 -4 2 -10q0 -8 -2 -12q-4 -24 -4 -27l4 -49l-4 -49l2 -49q0 -2 -0.5 -6t-1.5 -11.5t-2 -13.5q-4 -24 -4 -29q0 -28 21 -92q12 -40 12 -57q0 -20 -12.5 -54.5t-24.5 -48.5q-9 -11 -27.5 -18.5t-35.5 -7.5q-19 0 -41.5 8.5 t-32.5 20.5q-12 12 -23 41t-10 47q8 126 8 131l-2 30l-2 12l-1.5 9t-0.5 4l4 65l-4 62q0 14 8 47q7 28 7 35l-5 57l2 39l-6 72q0 10 2 20q4 28 4 41q0 21 -2 33q-4 40 -4 51q0 9 4 17l2 2q0 10 -12 14l-47 -4q-5 0 -19 9t-20 17q-16 16 -16 56z" />
<glyph unicode="g" horiz-adv-x="978" d="M47 -31q0 25 26.5 51.5t51.5 26.5q9 0 34.5 -11.5t45.5 -25.5q18 -11 24.5 -13.5t30.5 -8.5q39 -10 74 -17l12 -3t22.5 -6t26.5 -7q2 -1 12 -2.5t34.5 -5.5t47.5 -8q17 0 62 13t70 25t42 29.5t17 30.5q0 10 -11.5 24.5t-25.5 20.5q-5 2 -168 14q-97 0 -139 -10 q-52 -10 -68 -10q-41 0 -77.5 29t-36.5 63q0 26 13 47.5t58 69.5q15 15 15 28q0 17 -11 29t-65 57q-12 11 -31.5 42t-28.5 55q-23 60 -28.5 81t-5.5 52q0 26 10 71q0 8 6 52q1 13 23.5 67t31.5 66q18 21 64 59.5t59 42.5q33 11 62 25q25 15 39 19t77 11q14 1 26.5 2.5 t20 2.5t14 1.5t10 1t6.5 1t4.5 0.5h2.5h2q43 0 95 -23q43 -16 57 -16q9 0 17 4t42 28q6 4 30.5 11.5t33.5 7.5q31 0 63.5 -30.5t32.5 -59.5q0 -24 -37 -70q-12 -12 -12 -20q0 -6 6 -15q26 -52 32 -69.5t11 -48.5q2 -7 3.5 -15t2.5 -15.5t2 -10.5q8 -31 8 -41 q-10 -76 -10 -78q-3 -69 -36.5 -132t-84.5 -98q-13 -8 -67 -30.5t-72 -26.5q-18 -6 -86.5 -16t-109.5 -13q-25 -3 -36.5 -8t-23.5 -20q-11 -15 -12 -15l-2 -4q0 -2 7 -5t13 -3q11 0 29 6q54 15 133 15q162 0 240 -64q31 -25 51 -53q9 -14 20.5 -40t10.5 -30q-15 -88 -19 -88 q-26 -58 -41 -73t-78 -44q-23 -11 -43.5 -20t-31 -13.5t-11.5 -4.5q-22 -6 -78.5 -17.5t-64.5 -11.5q-18 0 -51 8q-41 6 -60 6q-54 0 -124 13t-99 28q-69 37 -100 68t-31 65zM242 614q0 -27 16 -62t43 -63q30 -34 70 -47q54 -21 83 -21q5 0 9 1q94 12 116 17.5t62 27.5 q100 57 100 201q0 69 -16.5 106t-65.5 78q-21 15 -69 28t-90 13q-57 0 -114 -27.5t-91 -70.5q-53 -69 -53 -181z" />
<glyph unicode="h" horiz-adv-x="890" d="M82 1284q0 32 29.5 59t66.5 27q46 0 81.5 -27.5t35.5 -64.5q0 -20 -16 -148q6 -102 12 -112q15 -23 28 -23t41 19q23 13 62.5 24t66.5 11q36 0 87.5 -14.5t78.5 -33.5q22 -14 55.5 -45.5t39.5 -44.5q16 -29 32 -77q16 -46 15 -62l-4 -96q0 -66 -2 -82l-5 -37q0 -15 9 -55 q4 -24 4 -29q0 -14 -4 -24l-7 -29l11 -66l-4 -49q5 -114 10 -162q6 -27 6 -49q0 -46 -29 -73t-80 -27q-44 0 -78 31.5t-34 72.5q0 14 10 72q4 10 4 18l-4 50q9 83 16 186l-6 63l4 43q0 7 -6 37q-6 21 -6 56q0 21 4 49l4 20q-10 63 -14 92q-5 28 -14 41.5t-33 26.5 q-41 25 -66 25q-10 0 -57 -14t-74 -25q-32 -15 -52.5 -37t-18.5 -41l4 -64q0 -6 -6 -24l-5 -10l11 -82q0 -6 -9 -27l-4 -12l13 -92q-2 -11 -6 -25q-1 -5 -2 -12.5t-2 -13t-1 -9.5q0 -3 1.5 -21t4 -57t5.5 -80l-2 -49q0 -8 12 -49q8 -21 8 -43q0 -43 -28.5 -70.5t-71.5 -27.5 q-47 0 -78 31.5t-31 80.5q0 27 10 150q1 12 2 23t2 17t1 7q0 6 -3 21l-6 32l11 88l-7 21q-1 4 -2 9l-1.5 7.5t-0.5 3.5l9 54l-5 79q0 157 9 236q0 1 -0.5 4l-1.5 9l-2 12q-3 18 -3 32q0 24 3 54q2 16 2 38q0 21 -2 33l-3 27l3 80q0 3 -21 94q-6 34 -6 49z" />
<glyph unicode="i" horiz-adv-x="382" d="M82 934q0 47 27.5 74.5t74.5 27.5q67 0 86 -37q3 -5 10 -43t7 -53q0 -8 -2 -16q-13 -71 -13 -207q0 -9 4 -41q1 -4 2 -9t2 -8t1 -4q-11 -91 -11 -143l6 -65q0 -1 -4 -25q-4 -10 -4 -18q8 -74 8 -103q4 -56 13 -96q14 -61 14 -68v-7q0 -36 -29 -65q-32 -32 -75 -32t-79 34 q-33 31 -32 66v6q10 123 10 138l-2 94q0 6 2 49q4 54 4 61q0 56 2 62l2 29q0 10 -6 40t-6 66q0 31 2 49q2 23 2 45q0 39 -10 111q-6 52 -6 88zM88 1264q0 47 25.5 73.5t72.5 26.5q101 0 101 -162q0 -52 -28.5 -85.5t-72.5 -33.5q-24 0 -49.5 10.5t-34.5 24.5q-7 12 -8.5 22 t-1.5 56l-2 41q-2 10 -2 27z" />
<glyph unicode="j" horiz-adv-x="399" d="M-37 -123q0 28 22 51t50 23q6 0 51 -4h8q14 2 23.5 14.5t9.5 30.5q0 22 -6 43l-4 14l8 74q0 1 -0.5 4t-1.5 8.5t-2 11.5q-4 8 -4 25q0 10 2 18q6 38 6 50q0 15 -6 53q-4 14 -4 26q2 39 2 89q0 5 1 16.5t3 33t4 38.5q-2 43 -4 88q-1 10 -2 30t-2 29l2 57q-6 127 -10 144 l-3 37q-4 40 -4 41q-1 4 -2 9l-1.5 7.5t-0.5 3.5q0 31 39 76q7 9 26 16.5t32 7.5q21 0 52 -9.5t40 -18.5q30 -30 30 -99q0 -31 -16 -90q-4 -20 -4 -30q0 -17 2 -31l2 -49q0 -62 2 -107q-8 -88 -8 -139q0 -19 2 -31l2 -20l-4 -78l4 -61l-2 -52l4 -32q2 -10 2 -25q0 -3 -4 -27 q-1 -6 -2 -13.5t-1.5 -11t-0.5 -5.5l4 -64q-2 -27 -2 -82q0 -43 -20 -86.5t-48 -60.5q-29 -17 -73 -31t-70 -14q-47 0 -85 31t-38 71zM109 1245q0 11 5.5 41.5t8.5 36.5q7 17 37 31t59 14q55 0 78 -63q10 -29 18 -103v-7q0 -37 -31 -69q-34 -36 -75 -36q-32 0 -57.5 13.5 t-32.5 35.5q-4 6 -4 45q0 8 -6 61z" />
<glyph unicode="k" horiz-adv-x="858" d="M82 1276q0 38 34.5 67t78.5 29q43 0 73 -28q27 -25 27 -61v-7q-10 -140 -10 -143q0 -13 6 -56q2 -12 2 -30q0 -15 -2 -27q-2 -23 -2 -84v-55l-2 -35q2 -29 3.5 -65t2.5 -56.5t2 -32.5q0 -7 -4 -47q-4 -24 -4 -27q0 -13 4 -48t6 -40q1 -3 6.5 -7.5t7.5 -4.5q10 0 54 70 q30 42 38 51q44 50 50 57q9 9 43 60q22 39 28 45q15 18 33 39q39 63 53 90q30 59 52 79.5t53 20.5q45 0 73.5 -25.5t28.5 -66.5q0 -51 -51 -102q-5 -6 -12.5 -14t-11.5 -12.5t-5 -6.5q-2 0 -28 -39q-15 -27 -27 -39q-29 -39 -35 -45l-12 -21q0 -1 -31 -41l-37 -51 q-22 -37 -30 -45l-37 -45q-29 -37 -29 -53q0 -17 16.5 -35.5t71.5 -60.5q2 0 27 -29q41 -46 62.5 -65.5t80.5 -63.5q36 -26 60 -57t24 -50q0 -28 -35 -52.5t-73 -24.5q-107 0 -156 73q-20 30 -23 33q-13 11 -51 45q-11 10 -39 40.5t-35 41.5q-53 72 -77 72q-15 0 -28 -17 t-13 -38q0 -11 16 -72q14 -60 14 -82q0 -37 -30.5 -62.5t-73.5 -25.5q-52 0 -80.5 34t-28.5 97q0 28 6 55q0 3 1.5 17t3.5 43t4 61l-6 61q0 12 8 48q2 6 2 16q0 5 -4 25l-4 20l10 82q0 7 -6 41q-4 16 -4 27q0 14 2 26q4 40 4 47q0 11 -4 51q-2 14 -2 35q0 13 2 21q6 30 6 35 q-4 58 -4 67q0 28 -2 51l4 72q0 4 -6 39q0 4 -1 13t-2 23.5t-2 28.5q-3 51 -14 93q-10 42 -10 53z" />
<glyph unicode="l" horiz-adv-x="380" d="M82 94q0 20 16 158l-10 102q2 11 4 27q4 16 4 35l-2 53l6 59q-2 16 -4 41q-4 24 -4 131l6 56l-4 16q-1 4 -2 8.5t-1.5 7t-0.5 3.5l6 75q0 9 -2 19q-2 6 -2 16q0 15 2 23q6 27 6 39q0 13 -6 43q-2 10 -2 22q8 116 8 117q0 24 -8 57q-8 54 -8 70q0 40 31 68t75 28 t74.5 -28.5t30.5 -71.5q0 -24 -23 -148l-2 -16l2 -64l-4 -166l2 -65l-2 -61q4 -55 4 -86q0 -19 4 -56q-4 -66 -4 -74q0 -4 -0.5 -14t-1.5 -28t-2 -33l2 -39l-4 -35l4 -59l-4 -60q0 -30 19 -94q14 -61 14 -72v-7q1 -36 -29 -68q-32 -35 -71 -35q-44 0 -80.5 33t-36.5 73z" />
<glyph unicode="m" horiz-adv-x="1421" d="M80 940q0 41 27 70.5t65 29.5q40 0 76 -39q21 -24 37 -24q11 0 61 35q54 41 131 41q62 0 94.5 -10.5t71.5 -43.5q60 -51 80 -51q11 0 51 21q18 12 98 47q43 20 63.5 25.5t47.5 5.5q73 0 145 -24t113 -62q32 -31 57 -87.5t25 -97.5q0 -12 -2 -22q-4 -54 -4 -76 q0 -11 4 -31q2 -8 2 -14q0 -9 -2 -15q-6 -21 -6 -47q0 -32 6 -59l4 -20l-8 -84q2 -13 4 -31q4 -24 4 -45q0 -35 -2 -58q-2 -10 -2 -22q0 -40 10 -90q2 -9 12 -68v-7q-1 -36 -29 -62q-32 -29 -75 -29q-52 0 -84.5 39t-32.5 102q0 9 4 33q9 27 9 33l-5 65q3 16 5 41q4 12 4 39 q0 23 4 70q0 119 -4 139q-2 21 -4 41.5t-3 31.5l-2 11q0 1 7 29q1 4 2 8.5t1.5 7t0.5 4.5t-1.5 9t-6.5 32t-11 57q-6 30 -15 43t-32 27q-40 21 -74 21q-27 0 -66.5 -13t-66.5 -32q-31 -19 -51 -66q-20 -60 -20 -63l6 -95q0 -10 -2 -22q-2 -6 -2 -15q0 -2 1 -11t3 -27.5 t4 -34.5q-10 -62 -10 -82q0 -7 4 -27q6 -24 6 -26l-6 -105q22 -155 22 -174q0 -37 -31 -64.5t-71 -27.5q-46 0 -83.5 36.5t-37.5 80.5q0 22 8 43q4 23 6 57q0 15 9 117q6 70 6 78l-6 86l4 53q0 10 -6 37q-5 10 -5 16q4 17 7 94q0 4 -9 43q0 1 -4 37q-3 29 -10 41t-31 31 q-42 33 -70 33h-5q-53 -7 -71.5 -13t-78.5 -35q-17 -8 -23 -11t-14.5 -13t-10 -15t-5.5 -25.5t-5 -36.5t-3 -56l6 -78q0 -2 -0.5 -6l-1.5 -12t-2 -15q-2 -8 -2 -20q0 -9 2 -17l2 -20l1.5 -15t0.5 -6l-6 -86q0 -200 22 -268q8 -46 8 -47q0 -32 -31 -59t-69 -27 q-46 0 -79.5 34t-33.5 83q0 9 17 141l-8 115q0 6 2 16q2 16 2 33l-2 76l4 88q0 4 -4 36l-7 31l9 111v10q0 44 -29 150q-4 16 -4 20z" />
<glyph unicode="n" horiz-adv-x="897" d="M82 934q0 43 28 73.5t66 30.5q19 0 28.5 -5.5t49.5 -39.5q21 -14 29 -14q10 0 75 41q54 31 115 31q67 0 103 -9t83 -38q37 -23 46 -30.5t26 -27.5q25 -29 31.5 -41.5t21.5 -58.5q21 -67 21 -88q0 -13 -4 -41q-8 -33 -8 -58q0 -16 4 -28q2 -8 2 -19q0 -6 -2 -12 q-4 -14 -4 -29l12 -100q0 -1 -0.5 -3t-1.5 -7l-2 -10q-1 -4 -2 -8.5t-1.5 -7t-0.5 -3.5q6 -111 6 -151q2 -80 10 -127q6 -30 6 -54q0 -46 -30 -76t-76 -30q-43 0 -80 35.5t-37 76.5q0 5 4 33q10 58 12 170q0 5 6 49q3 24 3 35q0 158 -9 203q-2 8 -2 14q0 9 2 17q6 27 6 45 t-6 45q-2 8 -4 17l-3 13.5t-1 6.5q-9 57 -13.5 69.5t-19.5 24.5q-34 31 -88 31q-28 0 -114 -35q-44 -17 -61 -37.5t-19 -56.5v-48l-4 -40q0 -15 2 -25l2 -14l1.5 -10.5t0.5 -4.5q0 -14 -6 -51q-2 -12 -2 -27q0 -16 6 -57q2 -6 2 -14q0 -13 -2 -23q-6 -37 -6 -49l2 -63 l-2 -74q0 -26 18 -96q8 -27 8 -58q0 -41 -29.5 -70.5t-72.5 -29.5t-74 35t-31 82q0 5 4 51q9 52 9 158q0 22 -2 36l-2 17l2 84q0 40 4 106q-6 39 -6 70q0 50 2 70q2 12 2 26q0 19 -2 35l-7 47q0 37 -4 45l-14 43q-6 18 -6 33z" />
<glyph unicode="o" horiz-adv-x="1030" d="M43 580q0 17 9.5 71.5t15.5 73.5q20 55 26 68t25 43q46 72 53 77q56 56 76 66q9 5 55 33q75 45 248 45q29 0 125 -25q48 -15 99.5 -52t78.5 -75q46 -64 55.5 -80t24.5 -55q5 -15 12 -29q25 -55 33 -96.5t8 -109.5q0 -70 -16.5 -156.5t-38.5 -134.5q-24 -49 -42.5 -73 t-66.5 -67q-38 -35 -50 -43t-44 -22q-81 -35 -86 -35q-1 0 -5.5 -1t-14 -3t-19.5 -4q-20 -2 -63 -10q-82 8 -109 18q-2 1 -41 10q-106 17 -211 146q-29 33 -41 47q-33 39 -49.5 78.5t-28.5 111.5zM217 516q0 -16 17 -85t28 -97q4 -13 30.5 -47t41.5 -47q21 -14 59 -35.5 t56 -26.5q16 -6 106 -10q19 2 52.5 13t45.5 20q61 47 66 53q8 14 26 35q34 40 43 92q4 23 8.5 43.5t6.5 29t2 9.5q-4 78 -4 108q0 36 -23 103q-1 5 -6 20t-8 27q-9 32 -27.5 53.5t-72.5 61.5q-17 13 -61.5 31t-59.5 18q-9 0 -15 -2q-27 -6 -43 -6q-13 -1 -24.5 -2t-17.5 -2 t-7 -1q-24 -9 -71 -28q-65 -47 -84 -84q-48 -94 -48 -141v-5q0 -8 -4 -32q-12 -50 -12 -66z" />
<glyph unicode="p" horiz-adv-x="1040" d="M82 948q0 31 31 59.5t63 28.5q30 0 64 -30q35 -31 49 -31q9 0 65 37q61 37 189 37q36 0 58.5 -5t90.5 -30q2 0 7 -2t15 -5t21 -6q56 -21 74 -33.5t68 -66.5q32 -37 43 -56t26 -65l8 -28q16 -45 30 -115q13 -62 13 -86v-6q-3 -23 -6 -111q-2 -15 -19 -87t-24 -89 q-12 -31 -45.5 -81.5t-52.5 -65.5q-92 -74 -110.5 -87t-47.5 -22q-54 -14 -180 -14q-40 0 -117 30q-46 17 -59 15q-39 -3 -39 -62l2 -22q10 -38 10 -76q0 -37 -30.5 -64.5t-71.5 -27.5q-46 0 -81.5 33.5t-35.5 76.5q0 30 16 89q9 30 9 38l-4 123q0 9 2 19q6 24 6 28l-8 86 q2 15 4 33q2 8 2 21q0 12 -2 20q-4 54 -4 55q0 23 10 78q2 6 2 15q0 8 -2 14q-8 27 -8 37l6 82q-2 8 -4 20q-2 8 -2 21q0 10 2 16q1 10 2 19.5t1.5 14.5t0.5 7q-7 80 -10.5 100t-14.5 54q-12 41 -12 67zM291 471l4 -61l-2 -66q0 -38 16 -76t39 -55q20 -15 72 -32t78 -17 q21 0 81.5 12t73.5 19q54 25 100 105.5t52 162.5q1 11 2 21.5t1.5 15.5t0.5 6q1 8 2 17l1.5 13.5t0.5 6.5q0 20 -20 92l-35 115q-12 25 -45.5 54t-67.5 44q-18 6 -65 12t-84 6q-29 0 -72 -14t-66 -31q-20 -13 -35.5 -40t-17.5 -50q-2 -43 -8 -92q-6 -87 -6 -168z" />
<glyph unicode="q" horiz-adv-x="1038" d="M45 545q3 49 18.5 112t32.5 97q44 86 77.5 128t90.5 83q27 19 45.5 26.5t75.5 20.5q10 2 45 14q48 14 82 14q99 0 209 -71q11 -8 27 -8q11 0 18 5.5t27 30.5q20 27 53 27q43 0 76.5 -27.5t33.5 -64.5q0 -20 -10 -62q-24 -82 -24 -121v-10q2 -25 2 -57q2 -25 4 -57 q0 -17 -6 -54q-2 -12 -2 -26l2 -25q6 -21 6 -26l-4 -37q6 -102 6 -117q0 -12 -8 -43q-2 -8 -2 -18q0 -9 2 -17q6 -38 6 -72q0 -28 -2 -55q-4 -62 -4 -78q0 -63 16 -135q8 -47 8 -56q0 -38 -32 -66q-33 -31 -80 -31q-43 0 -74 27t-31 65q0 2 1 15.5t3.5 46t5.5 67.5 q0 21 -18 24q-6 0 -21 -6q-12 -6 -63 -19.5t-62 -13.5q-10 0 -18 2q-18 3 -25 3l-73 -3q-9 0 -75 21.5t-87 30.5q-16 8 -24.5 14.5t-39.5 36.5q-3 2 -11.5 9t-16.5 13q-18 18 -33 39q-46 53 -58.5 73.5t-37.5 84.5q-12 33 -15 48t-6 61q-1 7 -2 24.5t-3 49.5t-5 63zM219 516 q0 -162 78 -252q31 -37 51.5 -54t52.5 -32q57 -25 78.5 -31t52.5 -6q48 0 101 17t80 41q19 15 25.5 30t9.5 47q6 47 6 86l-4 54q-2 12 -2 30q0 13 8 76q0 1 -0.5 5t-1.5 12.5t-2 17.5q-2 10 -2 27v16q2 25 2 45q0 43 -19 89.5t-47 72.5q-66 63 -182 63q-98 0 -187 -86 q-98 -92 -98 -268z" />
<glyph unicode="r" horiz-adv-x="577" d="M82 930q0 38 29.5 69t64.5 31q34 0 76 -39q13 -16 22 -16q19 0 72 31q59 32 115 32q44 0 74 -31.5t30 -78.5q0 -41 -24.5 -75t-53.5 -34q-2 0 -30 4q-24 4 -35 4q-36 0 -66.5 -18t-42.5 -47q-30 -81 -30 -119q0 -11 4 -35l4 -16l-10 -98q0 -6 6 -21l4 -14l-10 -80 q0 -7 8 -31q2 -6 2 -16q0 -9 -2 -13q-6 -38 -6 -59q0 -12 8 -61q4 -16 12 -78q6 -40 6 -55q0 -32 -32.5 -57t-73.5 -25q-43 0 -75 34.5t-32 83.5q0 11 2 21q8 80 8 100q0 55 3 92q-1 14 -2 29t-2 24t-1 13v37l-2 22l-1.5 16.5t-0.5 6.5q0 21 9 67q4 12 4 25q-2 21 -5 43.5 t-4.5 33t-1.5 13.5q0 13 2 29q2 8 2 22v41l3 39q-13 57 -13 80q-2 22 -8 45q-6 15 -6 29z" />
<glyph unicode="s" horiz-adv-x="794" d="M41 156q0 28 35.5 56t70.5 28q22 0 91 -43q65 -41 133 -41q42 0 87.5 14.5t65.5 34.5q43 43 43 94q0 25 -14 55.5t-35 48.5q-32 31 -44.5 40t-43.5 24q-18 8 -43 22q-6 6 -53 21q-8 4 -33 14q-10 7 -70 31q-61 28 -102 95t-41 141q0 36 8.5 59.5t34.5 56.5 q26 32 35.5 41.5t40.5 32.5q61 44 96 47q24 1 121 10q103 -12 124.5 -15.5t47.5 -14.5q36 -15 58 -41t22 -54q0 -31 -31.5 -62.5t-60.5 -31.5q-17 0 -56 17q-74 38 -122 38q-17 0 -47.5 -8.5t-45.5 -17.5q-11 -8 -22.5 -26.5t-11.5 -30.5q0 -11 9 -29.5t21 -30.5 q14 -19 68 -37q23 -8 98 -39q18 -7 68 -43q1 -1 7.5 -5t17.5 -10.5t22 -12.5q48 -30 72.5 -57.5t54.5 -88.5q19 -36 24 -63q3 -9 8 -41.5t5 -36.5q0 -28 -14.5 -80t-28.5 -72q-24 -33 -76 -77t-82 -56q-31 -12 -55 -16t-136 -16q-8 0 -32 4q-12 4 -13 4l-71 -4q-2 0 -37 14 q-3 3 -37 16q-72 31 -86 47q-18 17 -31.5 45.5t-13.5 49.5z" />
<glyph unicode="t" horiz-adv-x="569" d="M41 942q0 33 18.5 57.5t44.5 24.5q39 0 41 2q11 6 11 35v53q0 3 -1.5 7.5t-3.5 12t-4 13.5q-8 19 -8 37q0 52 28 84t73 32q54 0 79 -28q5 -5 11 -32t6 -44q0 -13 -2 -27q-6 -60 -6 -100q0 -27 6.5 -39t23.5 -12q12 0 48 4q20 4 28 4q88 0 88 -100q0 -36 -22 -60t-54 -24 q-6 0 -30 4q-32 4 -37 4q-55 0 -55 -31q0 -2 4 -26t4 -29q0 -3 -4 -43q-2 -10 -2 -19q2 -29 4 -57q0 -25 2 -41q0 -17 -2 -29q-6 -27 -6 -34l6 -99q0 -1 -0.5 -4.5t-1.5 -10t-2 -13.5q-4 -28 -4 -31q0 -17 6 -66q2 -10 2 -28v-25q-2 -12 -2 -26q0 -44 13 -63t42 -19 q11 0 15.5 1t15.5 5t35 16q13 8 28 8q28 0 50 -28t22 -64q0 -25 -17 -51.5t-40 -36.5q-14 -7 -52.5 -14.5t-58.5 -7.5q-42 0 -92.5 17.5t-77.5 41.5q-31 26 -44 63t-15 99q0 25 -2 37q-3 18 -3 24q0 10 3 25l4 26l-4 109v63v33q1 12 2 25l1.5 19.5t0.5 8.5q0 5 -4 37 q-1 8 -2 17.5t-2 16t-1 9.5q0 21 2 41q3 15 3 25q0 15 -3 27l-2 16l5 65q0 3 -7.5 12t-9.5 9l-39 -6q-3 0 -17.5 11t-17.5 15q-6 9 -12 33.5t-6 38.5z" />
<glyph unicode="u" horiz-adv-x="907" d="M78 967q0 38 27 62t71 24q73 0 96 -39q8 -11 16.5 -41.5t8.5 -48.5q0 -24 -10 -54l-4 -16l6 -66q-2 -12 -6 -30q-3 -9 -7 -38.5t-4 -39.5q0 -12 7 -47q4 -28 4 -35q0 -3 -4 -35q-1 -6 -2 -12.5t-2 -11t-1 -7.5q0 -4 1 -9.5t2 -12.5t2 -12q10 -48 10 -62q0 -1 -0.5 -4 t-1.5 -9.5t-2 -12.5q-4 -32 -4 -43q0 -14 9.5 -68t14.5 -68q6 -15 17 -23.5t40 -19.5q39 -16 58 -16q18 0 60.5 15.5t78.5 35.5q12 6 26 20t17 23q6 12 6 51v13q-2 8 -2 14t2 12q4 28 4 29l-4 39l2 43l-2 29l6 51q0 6 -6 33q-2 8 -2 20q0 13 2 23q1 6 2 11.5t1.5 8.5t0.5 4 l-6 60l4 69q-12 109 -18 129q-14 38 -14 51q0 12 11.5 34t24.5 34q27 27 68 27q26 0 52.5 -11t39.5 -28q6 -6 12.5 -35.5t6.5 -48.5q0 -4 -1 -8.5t-2 -12t-2 -12.5q-6 -35 -6 -57q0 -11 2 -19t2 -18q0 -9 -2 -17q-6 -34 -6 -49q0 -71 8 -141q0 -66 -6 -133l8 -58 q0 -5 -6 -32q-4 -28 -4 -49q0 -23 8 -62l11 -57q2 -12 14 -43q14 -35 14 -54q0 -41 -28 -71.5t-66 -30.5q-31 0 -76 29q-35 26 -49 26t-65 -26q-38 -17 -39 -17q-18 -4 -58 -10q-3 -1 -8 -2t-9 -2t-7 -2q-6 -2 -17 -2q-6 0 -12 2q-28 4 -53 6q-38 4 -52 9.5t-50 29.5 q-60 38 -75.5 51.5t-25.5 38.5q-7 19 -22 77t-15 69l4 79l-4 50q0 10 2 18q4 20 4 25q0 12 -2 22q-8 39 -8 80q0 17 4 63q4 18 4 39q0 13 -2 23q-6 24 -6 31q0 10 6 37q2 10 2 22l-8 78q-9 38 -12 74q-1 9 -2 19.5t-1.5 16t-0.5 9.5z" />
<glyph unicode="v" horiz-adv-x="823" d="M10 952q0 97 90 97q65 0 97 -29q20 -19 25 -34t14 -89q3 -16 12.5 -57t13.5 -64q6 -25 8 -41q3 -34 6 -43q2 -7 19 -57l27 -74q14 -40 20 -65q8 -29 16 -52q7 -14 15 -53q2 -19 16 -51q16 54 35 98q7 15 22 62q14 36 25 53q11 23 14 35q9 30 15 45q10 26 51 145 q12 49 22 84q4 12 13 58q15 72 41.5 100.5t77.5 28.5q47 0 78.5 -28t31.5 -71q0 -47 -84 -186q-12 -20 -26 -72q-13 -43 -33 -94l-25 -63l-16 -48q-13 -40 -37 -92q-13 -26 -16 -35q-7 -16 -11 -32l-16 -54q-25 -86 -51 -190q-9 -38 -35 -62t-57 -24q-17 0 -47.5 8t-41.5 14 q-23 17 -38 59t-41 167q0 8 -19 63q-2 5 -14 41l-19 66q-1 3 -3 8t-6 14t-7 17q-20 45 -22 55l-9 35q-31 114 -41 141q-6 13 -14 41q-14 59 -63 164q-13 29 -13 61z" />
<glyph unicode="w" horiz-adv-x="1146" d="M10 963q0 41 26 63.5t73 22.5q83 0 118 -84q7 -17 9 -50q0 -13 12 -57q1 -3 8 -47q2 -8 8 -31q4 -21 12 -69q1 -4 4 -12.5t8 -22.5t9 -27q27 -78 29 -86q9 -32 14 -45q31 -73 43 -133q8 -49 18 -49q3 0 4 0.5t2.5 5.5t3.5 14t5 27l8 25q4 19 25 100q7 24 16.5 72t9.5 55 q0 27 -12 61q-8 31 -10 49q-2 24 -47 158q-5 25 -5 33q0 50 35 81.5t90 31.5q40 0 67.5 -31.5t27.5 -75.5q0 -22 -5 -39q-2 -12 -2 -24q3 -23 5.5 -39t3.5 -25q4 -25 12 -53q10 -26 12 -51q7 -52 8 -54q3 -15 17 -57q0 -2 1 -7.5t3 -17t4 -22.5q17 -94 41 -141q4 -11 12 -43 q2 -7 5 -14.5t6 -12t4 -4.5q3 0 20 76q1 4 23 65q4 14 9 27.5t7 21.5q7 27 14 41q29 72 31 78q11 30 12 31q9 18 17 57q2 18 14 45q23 54 27 70t4 63q3 74 27.5 104t84.5 30q99 0 99 -103q0 -32 -25 -88q-5 -11 -9 -18.5t-7 -14t-6 -15t-5 -13.5t-6.5 -18.5t-7 -21.5t-9 -30 t-11.5 -37q-2 -8 -11 -26l-18 -48l-10 -49q0 -2 -13 -24q-14 -32 -20 -43q-14 -25 -23 -64q-2 -11 -4 -21.5t-3 -15.5t-1 -6l-18 -45q-6 -20 -19 -59q-3 -12 -14 -45q-26 -66 -31 -111q-5 -46 -10 -63.5t-18 -30.5q-36 -39 -84 -39q-41 0 -65.5 28t-41.5 97q-4 18 -33 92 q-2 5 -20 70q-16 59 -27 59q-12 0 -18 -39q-2 -10 -17 -57q-11 -36 -18 -58q-5 -19 -10 -57q-20 -133 -94 -133q-30 0 -58.5 11.5t-38.5 29.5q-40 60 -59 195q0 6 -18 47q-9 27 -21 69q-3 11 -7.5 25t-7 23t-3.5 12q-14 33 -17 43q-46 119 -63 190l-19 55q0 1 -20 74 q-6 22 -10 31q-19 30 -33 49q-9 13 -17 48.5t-8 60.5z" />
<glyph unicode="x" horiz-adv-x="911" d="M16 76q0 38 47 104q31 46 31 47l17 31q0 6 16 25q43 70 96 174q13 26 56 98q24 36 24 47q0 15 -20 45q-11 14 -23 39q-39 74 -53 97t-47 67q-64 75 -64 131q0 66 86 66q47 0 71.5 -15t41.5 -55q17 -44 102 -180q1 -3 12 -24t19 -40q17 -35 35 -35q7 0 13 7.5t30 46.5 q0 2 2 5t6.5 9t7.5 12q29 39 58 99q12 25 32 57q20 39 23 47q15 35 38 49t66 14q103 0 103 -77q0 -37 -14 -60.5t-68 -75.5q-4 -4 -19 -22l-28 -39q-11 -11 -27 -31q-6 -6 -27 -49q-1 -2 -6 -10.5t-15 -24t-17 -26.5q-19 -25 -19 -39q0 -7 27 -49q11 -23 12 -25 q13 -26 25 -53q12 -24 28 -47q27 -41 47 -84q26 -52 39.5 -73.5t40.5 -51.5q44 -51 60 -80t16 -61q0 -29 -27 -48.5t-69 -19.5q-66 0 -115 55q-16 18 -21 29t-18 59q-7 27 -14 37q-32 51 -33 53q-2 3 -8.5 15.5t-11.5 19.5l-35 68q-22 46 -41 74q-3 6 -6 11.5t-5.5 9.5 t-3.5 5q-5 13 -16 31q-4 12 -16 12q-6 0 -29 -33.5t-43 -72.5q-2 -5 -29 -39q-28 -38 -43 -74l-10 -25q-7 -13 -22 -35.5t-19 -29.5q-5 -6 -26 -72q-17 -51 -43 -72.5t-72 -21.5q-40 0 -72.5 22.5t-32.5 51.5z" />
<glyph unicode="y" horiz-adv-x="833" d="M-4 969q0 42 28 65t80 23q59 0 103 -62q14 -20 17 -32.5t7 -67.5q0 -7 9 -39l8 -20l8 -45q2 -4 12 -29q1 -9 4 -24t4 -21q19 -57 46 -133q12 -40 12 -47l6 -37q9 -32 10 -33q2 -5 7.5 -18t7.5 -21q4 -9 10 -41q9 -63 22 -63q15 0 27 59q4 30 20 70q9 37 11 51q1 1 22 45 q12 24 21 57q24 68 32 92q10 35 25 62q11 21 23 63q4 10 14 51l4 37q6 69 40.5 106.5t94.5 37.5q48 0 79 -23q28 -22 28 -53v-6q-2 -32 -56 -129q-15 -27 -24 -49q-3 -8 -27 -52q-10 -20 -24 -65l-9 -29q-28 -60 -69 -170l-6 -20q-21 -45 -33 -92q-5 -23 -45 -107 q-15 -26 -15 -27l-59 -184q0 -5 -16 -45q-11 -22 -13 -24l-18 -60q-4 -14 -32 -41.5t-56 -46.5q-11 -8 -29 -12.5t-102 -18.5q-21 0 -67.5 8t-55.5 13q-41 18 -41 74q0 33 19.5 53.5t52.5 23.5q15 0 51 -8q20 -4 33 -4q29 0 40.5 10.5t22.5 44.5q29 83 29 101q0 15 -21 71 q-4 10 -12 39q-2 8 -16 45l-15 45q-1 4 -37 115q-9 27 -18 51q-23 82 -35 115q-15 35 -20 49l-17 51q-7 17 -26 78q-2 5 -8 22t-9 25q-6 18 -30 54q-29 54 -29 92z" />
<glyph unicode="z" horiz-adv-x="829" d="M43 88q0 25 6 39t31 45q7 7 49 76q41 69 90 131q15 21 19 29l36 65q17 29 21 35l22 31q10 10 39 75q4 8 11 18.5t8 12.5l41 57q3 0 20 39q21 48 33 64q14 17 14 33q0 5 -7.5 10.5t-14.5 5.5q-9 0 -17 -2q-10 -2 -26 -2l-154 2q-8 0 -88 -10q-6 -2 -14 -2q-34 0 -58 32 t-24 78q0 41 31 71t75 30q17 0 52 -7q58 -8 182 -8l57 2l68 -2q2 0 9 1t21.5 3t28.5 4q45 9 70 9q44 0 73 -28t29 -71q0 -67 -57 -127q-37 -37 -51 -57l-45 -76q-1 -2 -5.5 -8.5t-13.5 -20t-18 -26.5l-27 -41q-4 -10 -15.5 -33t-17.5 -37q-6 -12 -14 -22l-45 -70l-5 -8 q-4 -7 -10 -19t-12 -26q-41 -81 -65 -113q-24 -34 -31 -45l-8 -24l-2 -2q0 -20 55 -23q29 -2 66 -2q31 0 67 2q80 2 125 8q36 4 43 4q40 0 69 -30.5t29 -73.5q0 -20 -11 -43.5t-23 -32.5q-22 -18 -72 -18q-7 0 -35 4q-36 8 -55 8q-9 0 -17 -2q-7 -1 -15 -2t-12.5 -1.5 t-8.5 -0.5l-127 4l-25 4l-84 -8q-1 0 -4.5 0.5l-10.5 1.5l-14 2q-20 4 -22 4q-13 0 -23 -2q-58 -10 -77 -10q-47 0 -78 27.5t-31 68.5z" />
<glyph unicode="{" horiz-adv-x="1024" d="M236 596q0 11 6.5 28.5t15.5 26.5q9 11 17 15t42 14q20 6 39 26t27 42q6 20 12 83l-4 74q0 3 4 35q2 12 2 27q0 6 -4 26q-6 35 -6 41q1 9 3.5 44t4.5 61q7 132 84.5 194t231.5 62q57 0 73 -13q35 -28 35 -71q0 -30 -21 -56.5t-44 -25.5l-29 2q-93 -10 -119 -38.5 t-26 -119.5l8 -49l-13 -51l7 -49l-7 -50l7 -59q-9 -104 -28.5 -146.5t-72.5 -74.5l-8 -4q67 -40 92 -117q10 -35 13 -80q2 -6 2 -35q0 -6 4 -63l-6 -59v-86.5t3 -64t5.5 -49t12 -32.5t17.5 -23t27 -12.5t35.5 -10t48.5 -5.5h8q6 2 13 2q27 0 45 -18q10 -10 19 -34.5t7 -35.5 q-7 -49 -27.5 -63.5t-80.5 -14.5q-180 0 -254 86q-35 41 -46.5 85t-17.5 159q0 7 4 47q2 14 2 31q0 6 -4 30q-2 13 -4 26.5t-3 20t-1 7.5l8 75q-6 87 -24.5 116t-79.5 48q-23 6 -39 28.5t-16 47.5z" />
<glyph unicode="|" horiz-adv-x="1032" d="M418 37q0 1 4 33q8 33 8 47l-6 88q8 155 -2 274l4 68q-8 136 0 272l-2 70l2 67l-6 82q6 63 6 88l-2 140q0 102 92 102q54 0 80 -41q14 -20 14 -166l-4 -67l4 -101q0 -1 -4 -37q-2 -14 -2 -34l2 -33q8 -52 8 -74q-3 -62 -6 -104q0 -27 -2 -62q8 -136 8 -149q0 -14 -10 -86 l6 -72l-4 -68l4 -69l-2 -68l4 -67l-8 -70l4 -68l-4 -94q0 -7 4 -43q2 -8 2 -16q-2 -19 -4 -35.5t-3 -25t-1 -9.5q-9 -23 -32 -37t-52 -14q-57 0 -82 39q-9 14 -12 51v41q0 1 -0.5 10t-1.5 27.5t-2 38.5l8 67z" />
<glyph unicode="}" horiz-adv-x="1024" d="M203 -129q0 24 14 47t33 31q10 4 35 4q12 0 45 4q65 8 88.5 40t23.5 114l-8 49l12 49l-6 51l6 49l-4 60q9 103 29 146.5t72 72.5l6 4q-69 44 -92 119q-10 35 -13 80q-2 6 -2 32q0 2 -0.5 9.5t-1.5 23.5t-2 33l6 57v86.5t-3 64t-5.5 49t-12 32.5t-17.5 23t-27 12.5 t-35.5 10t-48.5 5.5h-8q-6 -2 -13 -2q-27 0 -45 18q-10 10 -19 34.5t-7 35.5q7 49 27.5 63.5t80.5 14.5q180 0 254 -86q35 -41 46.5 -85t17.5 -157q0 -9 -4 -49q-2 -14 -2 -31q0 -9 4 -29q2 -14 4 -27.5t3 -20t1 -7.5l-8 -76q6 -86 24 -114t80 -47q23 -8 39 -29.5t16 -46.5 q0 -11 -6.5 -29t-13.5 -27q-9 -10 -17.5 -14.5t-39.5 -13.5q-19 -6 -38 -22.5t-28 -35.5q-7 -14 -9 -27t-7 -67l6 -73q0 -3 -4 -35q-4 -24 -4 -27q0 -7 4 -27q6 -35 6 -40q-1 -10 -3.5 -45.5t-4.5 -61.5q-7 -130 -84.5 -192t-231.5 -62q-59 0 -73 12q-14 11 -24.5 31.5 t-10.5 38.5z" />
<glyph unicode="~" horiz-adv-x="1366" d="M213 1278q0 30 35 82q87 139 231 139q46 0 96 -16t191 -76q75 -33 129 -33q71 0 113 45q36 40 48.5 49t35.5 9q25 0 41 -19.5t16 -50.5q0 -26 -25.5 -65.5t-64.5 -73.5q-85 -72 -187 -72q-41 0 -125.5 28t-164.5 68q-68 29 -117 29q-43 0 -70.5 -17.5t-77.5 -76.5 q-10 -17 -49 -17q-24 0 -39.5 19t-15.5 49z" />
<glyph unicode="&#xa1;" horiz-adv-x="503" d="M135 -111q0 31 8 58q13 53 13 63q0 11 -2 19q-2 14 -2 26l8 119q-2 6 -2 16q-6 27 -6 41q0 8 12 97q2 6 2 14q0 6 -2 12q-3 22 -6 72q0 60 -2 70q-1 8 -2 17l-1.5 13.5t-0.5 5.5l4 50q0 95 -11 141q-10 42 -10 49q-1 31 20.5 56.5t49.5 25.5q30 0 53 -33t39 -47 q34 -34 45.5 -52.5t11.5 -41.5q0 -22 -8 -53q-4 -24 -4 -25l4 -55l-4 -49l8 -66q-3 -20 -10 -143q0 -19 10 -76l8 -33l-10 -96v-29v-18v-41q1 -4 3.5 -12.5t6.5 -22.5t7 -27q6 -24 6 -38q0 -46 -32 -80.5t-75 -34.5q-54 0 -91.5 31t-37.5 77zM143 1049q0 51 29.5 83.5 t75.5 32.5q37 0 52 -9.5t44 -51.5q23 -34 23 -53q0 -25 -9.5 -59.5t-21.5 -53.5q-19 -31 -70 -31q-57 0 -90 38.5t-33 103.5z" />
<glyph unicode="&#xa2;" d="M193 696q0 49 13 124t27 108q52 113 101 162q45 40 98 73t82 37q27 3 27 21q0 4 -2 10q-1 1 -5 23t-4 26q0 28 23 51t51 23q27 0 52 -17.5t24 -36.5q-6 -53 -8 -57q-1 -4 -2 -8.5t-1.5 -6.5t-0.5 -3q0 -9 8.5 -13.5t32.5 -7.5q41 -6 94 -43q28 -19 39.5 -38t11.5 -48 q0 -41 -27 -76.5t-59 -35.5q-11 0 -25.5 8t-21.5 18q-20 29 -31 29q-9 0 -16.5 -11t-7.5 -26q0 -11 4 -39q8 -33 8 -49q0 -10 -6 -37l-2 -27q0 -18 2 -28q6 -27 6 -33l-8 -84q0 -6 2 -16q4 -24 4 -31q0 -1 -4 -33q-4 -14 -4 -33q4 -58 4 -63q0 -3 0.5 -10t1.5 -20.5t2 -24.5 q0 -13 -6 -43q-2 -8 -2 -21q0 -55 41 -55q20 0 32 2q28 4 39 4q35 0 67 -37t32 -78q0 -35 -30 -63.5t-67 -28.5q-46 0 -86 8q-6 2 -14 2q-6 0 -10 -5t-4 -11q0 -16 8 -70q-2 -22 -24.5 -37.5t-53.5 -15.5q-33 0 -55.5 20.5t-22.5 49.5q0 20 10 35l7 16q-2 23 -2 49 q-2 12 -7 17t-32 20q-1 1 -56 39q-16 11 -69 47q-69 49 -123.5 172t-54.5 227zM381 737q4 -43 4 -69q0 -98 78 -189q17 -17 33 -43q4 -6 16 -17t14 -11q10 6 12.5 10.5t2.5 17.5q0 38 -9 129l5 53q0 9 -2 21q-3 15 -3 25q0 72 11 143l-8 86l8 94q0 6 -4 10t-9 4 q-14 0 -79 -77q-22 -25 -47.5 -93.5t-22.5 -93.5z" />
<glyph unicode="&#xa3;" d="M68 88q0 73 96 76q51 0 59 16q42 91 51 238q4 72 19 135q8 27 8 39q12 67 16 86q2 10 4.5 21t4 17t2.5 9l2 23q0 39 4 55q8 21 8 33q0 6 -5 10t-11 4q-11 0 -21 -2q-9 -1 -32 6.5t-31 13.5q-9 7 -16 24.5t-7 31.5q0 39 24.5 66.5t59.5 27.5q25 0 55 -12q4 -2 11 -2 q12 0 23.5 15.5t17.5 41.5q9 42 20.5 62.5t58.5 82.5q19 29 41 56q21 31 35 41t60 30q94 42 116 39q84 -6 105 -6q49 -3 100 -31q27 -15 49.5 -51t22.5 -63q0 -12 -11.5 -35t-23.5 -35q-21 -21 -59 -21q-35 0 -52.5 11.5t-46.5 54.5q-18 21 -41 21q-10 0 -75 -13 q-40 -8 -88 -94q-25 -45 -25 -63q0 -17 14 -29t33 -12q13 0 19 2q34 6 38 6q69 0 91 -15q37 -26 34 -65q-3 -56 -30 -76q-35 -20 -54 -20q-13 0 -43 6q-36 8 -65 8q-13 0 -21 -2l-32 -4q-32 0 -43.5 -13.5t-24.5 -68.5l-6 -37q-1 -6 -6.5 -24.5t-7.5 -28.5l-3 -33l-2 -33 q0 -3 -8 -39q-21 -74 -35 -233q-3 -13 -12 -74q-4 -36 -4 -47q0 -25 13 -42t30 -17l66 2q12 0 26 -2h33q87 0 109 16q13 7 24.5 30.5t9.5 37.5q-12 126 -12 135q0 29 24 49t58 20q60 0 86.5 -28t26.5 -92q0 -23 -13 -66q-14 -43 -14 -74q0 -23 2 -39t2 -32q0 -25 -6.5 -58 t-13.5 -43q-19 -26 -70 -26q-19 0 -31 2q-10 0 -36 0.5t-77 1.5t-100 2h-35q-5 0 -45 4q-47 6 -82 6q-28 0 -137 -16l-14 -2q-10 1 -32.5 2t-33.5 2q-41 0 -54.5 3t-27.5 15q-36 36 -36 82z" />
<glyph unicode="&#xa4;" horiz-adv-x="1366" d="M82 264q0 10 7 20t32 33q23 23 37 43q26 31 36.5 40t47.5 34q34 26 34 41q0 6 -6 12q-37 50 -59 111q-13 35 -23.5 84.5t-7.5 62.5l23 132q9 54 22 84.5t45 74.5q6 9 6 15q0 15 -34 39q-13 10 -29 20l-16 14q-4 0 -37 41q-30 34 -39 41q-35 37 -35 41q0 64 4 68 q9 14 37.5 29.5t46.5 15.5q12 0 33.5 -12.5t30.5 -24.5l30 -47l35 -29q1 -1 29 -33q19 -23 41 -40q13 -13 16 -13l12 8q19 19 38 28.5t79 29.5q83 28 99.5 32.5t37.5 4.5q35 0 162 -25q64 -14 91.5 -27t56.5 -43q12 -8 14 -8q5 0 25 19.5t38 42.5q12 17 50 45q5 5 38 55 q12 17 39.5 31t49.5 14q27 0 56.5 -22t29.5 -43q0 -40 -60 -97q-2 -1 -37 -41q-27 -32 -37.5 -41.5t-44.5 -33.5q-13 -9 -23.5 -21t-10.5 -18t6 -15q13 -17 34.5 -57t24.5 -53q31 -191 31 -195q0 -25 -31 -133q-23 -64 -59 -111q-6 -9 -6 -14q0 -12 34 -39l45 -33 q8 -4 39 -43q14 -18 37 -41q49 -49 49 -67q0 -14 -36 -68q-18 -26 -39 -26q-35 0 -72 30q-12 8 -37 45q-8 12 -29 33q-24 18 -32 31q-24 30 -56 59q-15 11 -16 11t-2.5 -1.5t-4.5 -3.5t-5 -4q-11 -11 -57 -35.5t-60 -27.5q-191 -31 -197 -31t-70 12.5t-67 14.5 q-37 25 -115 65q-8 8 -12 8q-3 0 -21 -14t-22 -20l-35 -43l-26 -21q-19 -15 -31 -33l-18 -28q-10 -17 -35.5 -30t-44.5 -13t-31.5 10t-24.5 37q-18 41 -18 57zM346 758q0 -15 18.5 -77t30.5 -87q6 -13 36 -44.5t46 -41.5q19 -12 62 -31.5t65 -25.5q36 -9 119 -9q70 3 139 47 q41 25 53 39q7 7 19 21q42 38 51 78q21 77 21 90q0 110 -27 176l-35 80q-20 32 -115 86q-8 5 -56.5 19t-57.5 14q-11 0 -19 -2q-35 -7 -47 -7l-55 -2q-18 -6 -32.5 -10.5t-21 -6.5l-13 -4t-13.5 -5q-70 -39 -96 -76q-33 -53 -43.5 -80t-9.5 -53q0 -8 -7 -29q-12 -43 -12 -59 z" />
<glyph unicode="&#xa5;" d="M94 995q0 28 20 45t52 17q10 0 16 -2q10 -2 21 -2q9 0 17.5 6t8.5 12q0 8 -28.5 56.5t-48.5 72.5q-30 37 -38 52t-8 32q0 34 30.5 60t68.5 26q63 0 110 -47q12 -14 16.5 -25t16.5 -59q0 -9 27 -53q13 -15 20 -29l13 -27q11 -23 36 -57q26 -37 29 -43q4 -6 27 -47 q6 -13 15 -23t15 -10q11 0 25 21q8 12 23 30q19 26 38 56q16 31 41 63q10 14 27 43q8 16 39 62l27 67q13 31 50 53.5t72 22.5q37 0 71 -33.5t34 -70.5q0 -26 -12.5 -45t-87.5 -107q-22 -25 -25 -35q-3 -13 -6 -16q5 -8 8 -8l14 2l80 -4q29 -13 29 -54q0 -59 -37 -75 q-22 -9 -76 -9q-25 0 -80 -4q-10 0 -22 6q-2 1 -5.5 2t-5.5 2t-3 1q-6 0 -14.5 -10t-31.5 -44q-18 -32 -43 -57q-26 -29 -30 -47q-4 -15 -6 -17h-2q3 -10 18 -10q6 0 10 2q20 4 27 4l86 -2l53 4q89 0 113 -6q43 -16 43 -63q0 -32 -28.5 -56.5t-63.5 -21.5q-24 2 -49.5 4.5 t-39 3.5t-18.5 2q-4 0 -37 -10q-24 -4 -35 -4q-20 0 -38 6l-7 2q-17 0 -33 -17t-14 -32l2 -27l-2 -73q0 -9 2 -17q1 -7 2 -13.5t1.5 -10t0.5 -4.5l-8 -66q0 -2 2 -6q4 -20 4 -27l-4 -127q0 -12 15 -74q4 -28 4 -36q0 -35 -31 -60.5t-74 -25.5q-21 0 -50.5 12.5t-41.5 26.5 q-20 24 -20 63q0 21 16 152q0 8 -2 14q-8 41 -8 90q0 24 4 64q6 37 6 43q-6 95 -8 112t-10 25q-3 4 -14.5 10t-14.5 6l-60 -6q-4 2 -10 4q-3 1 -6.5 2t-5 1.5t-2.5 0.5q-10 0 -139 -12q-25 0 -42.5 22t-17.5 54q0 34 19.5 54.5t50.5 20.5q19 0 37 -6t22 -6t49 10q4 2 11 2 l75 -4q11 0 19 2l6 2h6l6 -2q6 0 13.5 7t7.5 12q0 6 -15 36.5t-22 39.5q-32 41 -43 55q-11 17 -15.5 20.5t-21.5 6.5q-10 4 -22 4q-9 0 -15 -2q-8 -2 -16 -2l-47 4q-6 0 -33 -9q-4 -2 -12 -2q-23 0 -42.5 26t-19.5 58z" />
<glyph unicode="&#xa6;" horiz-adv-x="1032" d="M420 -78l8 64l-2 63l2 88q0 9 -4 41q-2 8 -2 17q2 20 4 36.5t3 24.5l1 8q9 23 32 37t54 14q55 0 80 -39q9 -14 12 -51v-41q0 -1 0.5 -9.5t1.5 -25t2 -34.5l-6 -66l4 -63l-4 -64l6 -63q-4 -82 -4 -101q0 -100 -90 -100q-52 0 -78 33q-11 15 -14 35l-2 20q0 13 -2 33 q0 8 2 16l2 12l1.5 9t0.5 4zM420 891q0 26 2 61l2 113q0 14 -4 94q4 90 4 107q0 100 90 100q49 0 71.5 -23.5t22.5 -76.5v-15v-22l2 -70l-4 -67l2 -70q0 -31 -2 -70v-24v-45q2 -61 2 -92q0 -62 -20.5 -88.5t-69.5 -26.5q-59 0 -82 39q-9 16 -12 49v41q0 8 -4 86z" />
<glyph unicode="&#xa7;" horiz-adv-x="1056" d="M96 657q0 63 51 131q44 59 70 82q33 30 33 43q0 3 -29 56q-7 13 -13.5 52t-6.5 69q0 41 13 73.5t54 93.5q12 17 20 24.5t50 39.5q44 35 76.5 45t103.5 10q80 0 128 -16t102 -60q34 -28 61 -81t27 -93q0 -45 -31 -100q-17 -36 -36.5 -49.5t-53.5 -13.5q-111 0 -111 81 q0 19 4 30.5t21 45.5q6 12 6 27q0 28 -28.5 46.5t-71.5 18.5q-71 0 -93 -18q-7 -6 -24.5 -31.5t-22.5 -36.5q-6 -18 -6 -61q0 -34 29.5 -73t68.5 -56q111 -51 195 -70q9 0 55 -22q20 -12 82 -35q39 -17 55.5 -33t61.5 -80q39 -52 39 -133q0 -68 -28 -116.5t-89 -88.5 q-35 -21 -35 -34q0 -12 19 -37q20 -23 31.5 -59t9.5 -66q-6 -81 -9.5 -102.5t-17.5 -65.5q-17 -55 -42 -86t-81 -70q-29 -21 -101 -43t-110 -22q-32 0 -96 18q-21 7 -33 10q-45 12 -79 34t-68 61q-31 35 -52.5 92.5t-21.5 103.5q0 56 34.5 91.5t88.5 35.5q43 0 78 -35 q18 -18 22 -28t4 -37q0 -44 -6 -64l-4 -28q0 -32 36 -57t83 -25q51 0 75.5 8t47.5 33q33 34 43 56t10 60q0 93 -61 148q-7 7 -48 22q-1 0 -36 25q-33 21 -55 29t-93 26q-17 3 -26.5 7.5t-47.5 29.5l-79 41q-30 13 -86 66q-22 22 -39 71t-17 90zM283 664q0 -25 13 -43t50 -46 q26 -18 45 -26t76 -23q23 -6 65 -28q90 -56 158 -56q40 0 66 31t26 78q0 26 -24 58.5t-58 52.5q-27 15 -47 22.5t-114 36.5q-52 15 -119 51q-31 16 -49 16q-30 -3 -59 -44t-29 -80z" />
<glyph unicode="&#xa8;" horiz-adv-x="1024" d="M307 1350q0 36 22 62t52 26q49 0 72.5 -28.5t23.5 -88.5q0 -83 -18.5 -115t-65.5 -32q-49 0 -67 38q-19 31 -19 138zM541 1358q0 34 26.5 58t63.5 24t61 -27.5t21 -64.5l-2 -21q0 -4 4 -55v-12q0 -35 -20.5 -60.5t-49.5 -25.5q-51 0 -71 23t-23 85q-1 5 -1.5 12.5 t-1 12.5t-1.5 8q-6 38 -6 43z" />
<glyph unicode="&#xa9;" horiz-adv-x="1605" d="M80 762q15 130 21.5 161t31.5 87q23 50 30.5 63t31.5 45q17 24 36.5 50.5t27 36.5t9.5 12q91 80 125 94l86 43q64 33 151.5 47t229.5 14q14 0 86 -13t103 -20q29 -9 96 -41.5t98 -52.5q28 -19 46 -37.5t69 -79.5q42 -50 53 -67t35 -72q7 -22 18 -39q37 -74 49.5 -129 t12.5 -145q0 -96 -25.5 -210.5t-60.5 -180.5q-23 -43 -57.5 -86t-63.5 -66q-14 -9 -86 -65q-25 -20 -40.5 -28.5t-62.5 -25.5q-13 -5 -29 -12t-34 -14q-39 -17 -113 -29l-110 -16q-95 8 -109 10q-18 2 -59 14q-15 6 -62 13q-171 27 -325 194q-49 49 -62 64q-51 51 -75 103.5 t-43 152.5q-15 78 -17 112q-6 60 -12 113zM182 690q0 -34 30.5 -145t55.5 -168q17 -35 115 -133q28 -28 91 -62.5t136 -62.5q41 -15 73 -19t177 -10q20 0 94.5 17t96.5 26q25 11 92.5 52.5t79.5 52.5q22 28 51 53q46 43 88 112q3 7 47 166q6 30 6 152q0 54 -2.5 71.5 t-17.5 73.5q-6 19 -15 58q-3 11 -24 61q-8 16 -25 64q-22 56 -62.5 92.5t-154.5 101.5q-34 20 -46.5 25t-53.5 16q-10 3 -22.5 6.5t-30 9t-29.5 9.5q-46 14 -78 14q-14 0 -100 -12q-17 -2 -99 -6q-19 0 -65 -15q-100 -35 -103 -35q-48 -25 -100 -68t-76 -79 q-39 -58 -73 -137q-17 -37 -20.5 -51t-4.5 -64q2 -6 -10 -55q-21 -89 -21 -111zM436 711q0 122 62 217q25 36 42.5 52.5t53.5 39.5q2 1 6.5 4t13 9t15.5 11q35 26 96.5 42t130.5 16q36 0 109 -17q35 -9 59.5 -36t24.5 -58t-19.5 -50t-50.5 -19q-29 0 -72 22q-38 21 -67 21 q-52 0 -135 -35q-7 -3 -35 -22t-35 -27q-10 -10 -25 -39t-18 -45q-8 -32 -8 -90q0 -54 15.5 -102.5t55.5 -115.5q9 -16 34 -39t42 -30q65 -25 86 -25q53 0 96 17q41 18 60 18q29 0 52.5 -23.5t23.5 -54.5q0 -28 -19 -48.5t-53 -27.5q-23 -7 -65.5 -13.5t-59.5 -6.5 q-69 0 -145 26t-117 64q-154 139 -154 365z" />
<glyph unicode="&#xaa;" horiz-adv-x="620" d="M27 776q0 49 27 100t65 74q93 58 180 58q25 0 74 -15q15 -6 28 -6q6 0 12.5 4t6.5 8q0 6 -10.5 20t-22.5 23q-30 23 -72 23q-4 0 -49 -6q-14 -2 -53 -23q-8 -8 -31 -8q-26 0 -47.5 21t-21.5 47q0 49 80 71q37 10 137 19q18 0 59.5 -11t59.5 -20q49 -28 81 -78 q20 -32 23.5 -45.5t3.5 -64.5v-9q1 -7 2 -15.5t1.5 -13t0.5 -5.5q0 -17 -2 -27q-2 -4 -2 -10q0 -4 2 -8q1 -6 2 -13.5t1.5 -11.5t0.5 -6q0 -24 -4 -49v-15v-6q2 -16 2 -39q0 -7 -4 -53q-2 -8 -2 -18l4 -45q2 -8 2 -17q0 -22 -23 -40.5t-49 -18.5q-12 0 -20 4t-37 24l-2 3 q-2 0 -5 -1.5t-12.5 -6.5t-21.5 -11t-47 -13t-55 -7q-37 0 -105.5 29.5t-85.5 52.5q-52 72 -55 79q-16 37 -16 76zM170 780q0 -24 9 -40t34 -40q13 -13 28.5 -16t90.5 -8q22 0 47 11.5t33 25.5l10 67q0 55 -12 70q-6 8 -35 18q-5 3 -39.5 11t-38.5 8q-49 0 -88 -33t-39 -74z " />
<glyph unicode="&#xab;" horiz-adv-x="819" d="M68 514q3 28 45 76q4 5 10.5 12t9.5 10.5t4 5.5q1 1 13 21q2 4 100 143q40 59 49 64q28 22 57 22q34 0 62 -26.5t28 -59.5q0 -26 -9.5 -47t-41.5 -65q-17 -23 -49 -54q-20 -20 -47 -55q-18 -24 -18 -35q0 -12 22.5 -45.5t46.5 -56.5q64 -64 82.5 -91.5t18.5 -62.5 q0 -32 -27.5 -59t-61.5 -27q-19 0 -32 8t-33 33q-4 4 -10 11t-17 19t-20 21q-4 5 -37 54q-10 18 -16 25.5t-37 41.5q-22 25 -39 47l-39 37q-17 17 -14 33zM369 524q0 24 34 58q46 52 73 89t85 132q44 65 92 65q38 0 64 -26t26 -66q0 -63 -104 -170q-61 -64 -61 -86 q0 -10 12.5 -27t89.5 -108q8 -10 17.5 -21t13.5 -16t4 -6l10 -16l18 -21q9 -9 9 -26q0 -38 -25.5 -66.5t-60.5 -28.5q-20 0 -33.5 9t-46.5 43q-6 7 -14.5 16t-12 13t-8.5 9t-7 8t-4.5 6.5t-4.5 6.5t-4 6.5t-5 9.5q-26 44 -44 67.5t-64 67.5q-49 52 -49 78z" />
<glyph unicode="&#xac;" horiz-adv-x="1028" d="M66 463q0 37 34 67q20 17 86 17h19q14 -2 33 -2q48 0 102 6q25 2 49 2q11 0 21 -2q17 -2 33.5 -4t24.5 -3t9 -1l68 4l69 -4l68 6l104 -4q17 0 33 2h17q46 0 66.5 -6.5t35.5 -26.5q13 -16 16 -49v-47q0 -2 0.5 -11t1.5 -27.5t2 -37.5l-8 -78q6 -135 6 -160 q0 -104 -92 -104q-56 0 -82 39q-9 16 -12 49v41q0 27 -2 66l4 59q0 88 -8 107.5t-45 19.5l-45 -2l-152 4q-19 0 -33 -2q-77 -6 -90 -6q-24 2 -53 4l-108 2h-33l-19 -2q-54 5 -65 7t-25 13q-12 10 -21 29.5t-9 34.5z" />
<glyph unicode="&#xad;" horiz-adv-x="419" d="M0 545q0 32 25.5 52.5t64.5 20.5q3 0 49 -4q20 -2 64 -2q3 0 57 -4q6 0 41 6q10 2 29 2q38 0 64 -27t26 -67q0 -49 -23 -69q-7 -7 -41 -18t-49 -11q-12 0 -45 8q-40 8 -72 8q-15 0 -51 -4q-27 -6 -37 -6q-27 0 -69 25q-33 23 -33 90z" />
<glyph unicode="&#xae;" horiz-adv-x="1605" d="M80 762q15 130 21.5 161t31.5 87q23 50 30.5 63t31.5 45q17 24 36.5 50.5t27 36.5t9.5 12q91 80 125 94l86 43q64 33 151.5 47t229.5 14q14 0 86 -13t103 -20q29 -9 96 -41.5t98 -52.5q28 -19 46 -37.5t69 -79.5q42 -50 53 -67t35 -72q7 -22 18 -39q37 -74 49.5 -129 t12.5 -145q0 -96 -25.5 -210.5t-60.5 -180.5q-23 -43 -57.5 -86t-63.5 -66q-14 -9 -86 -65q-25 -20 -40.5 -28.5t-62.5 -25.5q-13 -5 -29 -12t-34 -14q-39 -17 -113 -29l-110 -16q-95 8 -109 10q-18 2 -59 14q-15 6 -62 13q-171 27 -325 194q-49 49 -62 64q-51 51 -75 103.5 t-43 152.5q-15 78 -17 112q-6 60 -12 113zM182 690q0 -34 30.5 -145t55.5 -168q17 -35 115 -133q28 -28 91 -62.5t136 -62.5q41 -15 73 -19t177 -10q20 0 94.5 17t96.5 26q25 11 92.5 52.5t79.5 52.5q22 28 51 53q46 43 88 112q3 7 47 166q6 30 6 152q0 54 -2.5 71.5 t-17.5 73.5q-6 19 -15 58q-3 11 -24 61q-8 16 -25 64q-22 56 -62.5 92.5t-154.5 101.5q-34 20 -46.5 25t-53.5 16q-10 3 -22.5 6.5t-30 9t-29.5 9.5q-46 14 -78 14q-14 0 -100 -12q-17 -2 -99 -6q-19 0 -65 -15q-100 -35 -103 -35q-48 -25 -100 -68t-76 -79 q-39 -58 -73 -137q-17 -37 -20.5 -51t-4.5 -64q2 -6 -10 -55q-21 -89 -21 -111zM500 1018q0 35 16 51q9 9 30.5 17.5t31.5 7.5q110 -9 192 -9q15 0 33 2q18 3 28 3q95 0 177 -89.5t82 -193.5q0 -47 -7.5 -78t-29.5 -72q-12 -21 -46.5 -53t-66.5 -51q-15 -10 -25 -16 q-45 -27 -53 -25q-24 -6 -24 -10t24 -17q19 -11 29 -18q3 -3 18 -12q4 -2 10 -4.5t10 -4.5t5 -2q30 -16 88 -24q45 -5 61 -25q9 -9 17 -24.5t8 -24.5q0 -29 -28 -52.5t-62 -23.5q-84 0 -174 70q-27 19 -35 22q-35 20 -45 25q-1 1 -10 7.5t-17 11.5q-14 12 -30 22t-35 27 q-6 6 -8 6l-7 -2q-2 -37 -6 -70q5 -10 11 -24q6 -15 6 -31q0 -26 -23.5 -46t-54.5 -20q-38 0 -62 21t-24 55q0 30 10 92q0 1 -4 21q-4 16 -4 32q8 59 8 66q0 8 -4 43v49q0 29 -2 35l-2 8q7 83 8 88q-2 11 -4 27q-2 12 -2 45q0 26 4 100q-4 15 -8 35q-4 24 -4 33zM649 760 l4 -37l-2 -29q11 -39 11 -41q0 -8 -3 -14l-2 -18q0 -14 9 -18t61 -11q6 2 16 8q8 4 23 10q41 13 61 31q19 14 50 37q32 25 45.5 51t21.5 76q0 60 -37 100q-29 31 -47.5 41t-46.5 10q-88 0 -98 2q-24 3 -29 3q-24 0 -31 -17q-2 -6 -2 -29q0 -12 -4 -51q0 -1 0.5 -4t1.5 -8.5 t2 -11.5q4 -20 4 -27q0 -16 -2 -22z" />
<glyph unicode="&#xaf;" horiz-adv-x="1024" d="M231 1270q0 27 23.5 53.5t46.5 26.5q16 0 37 -9q12 -6 16 -6l88 8q8 0 45 -6q28 -4 41 -4q19 0 27 2q10 1 18 1.5t11.5 1t6.5 1t5 0.5h45q13 5 31 9q20 4 28 4q38 0 66 -25t27 -59q-2 -28 -22 -54t-42 -26q-9 0 -49 6q-54 0 -164 4q-1 0 -37 -4q-10 -2 -24 -2 q-17 0 -27 2q-5 1 -10.5 2t-8 1.5t-3.5 0.5q-15 0 -46 -8q-28 -4 -38 -4q-40 0 -65.5 23.5t-25.5 60.5z" />
<glyph unicode="&#xb0;" d="M240 1087q0 129 81 206t216 77q63 0 123.5 -21.5t95.5 -56.5q34 -36 56 -96t22 -121q0 -121 -88 -209t-209 -88q-127 0 -212 88.5t-85 220.5zM406 1085q0 -63 37 -103t94 -40q54 0 92.5 38.5t38.5 92.5q0 55 -38.5 94t-92.5 39q-20 0 -56 -8q-75 -23 -75 -113z" />
<glyph unicode="&#xb1;" d="M25 18q0 42 19 61t67 25h6q34 -6 41 -6l84 8q1 0 5 -0.5t11.5 -1.5t15.5 -2q10 -4 27 -4h2t3.5 0.5l5 1t8.5 1t13 2t19.5 3t26.5 3.5q12 2 29 2q12 0 22 -2q32 -7 35 -7l70 7l55 -11q10 0 49 8q12 3 23 3q10 0 28 -3q12 -2 27 -2q16 0 26 2q28 7 31 7l76 -15q55 6 102 6 h11q38 0 59.5 -23t21.5 -63q0 -75 -79 -81q-12 -3 -13 -3l-82 11q-2 0 -4.5 -0.5l-7.5 -1.5l-10 -2q-28 -7 -33 -7q-179 7 -188 7q-1 0 -41 -4q-35 -7 -39 -7l-66 2q-98 -4 -129 -4q-46 0 -80 6l-28 3l-76 -5q-63 3 -77 5t-25 8q-19 7 -30 27.5t-11 45.5zM27 670q0 52 34 73 q18 11 39 11q73 6 93 8q70 -8 120 -8q14 0 55 4.5t50 7.5q14 3 19 16t18 84l-6 56l6 55l-9 55q5 75 13 109q9 19 30 30t46 11q40 0 61.5 -23.5t21.5 -64.5v-7v-55l7 -55l-11 -55l4 -64l-4 -59q0 -26 22 -41t62 -15q1 0 31 5q62 16 76 16q8 0 35 -6q31 -8 57 -8q14 0 55 6h4 q34 -3 43.5 -6.5t22.5 -16.5q12 -12 15 -20.5t7 -48.5q0 -22 -12 -42.5t-31 -27.5q-14 -6 -83 -10q-1 0 -21 4q-40 6 -49 6l-62 -4l-55 4q-103 -18 -104 -19q-5 -3 -10 -13t-5 -17q0 -9 2 -15q17 -80 2 -221l2 -55v-6q0 -41 -20 -64q-15 -12 -33 -18q-2 0 -22 -2 q-9 0 -15 -2q-23 0 -44 14.5t-27 34.5q-11 31 -2 154l-11 69q0 1 1.5 6t3.5 15.5t4 21.5q4 10 4 29q0 14 -5.5 36.5t-9.5 28.5q-6 8 -37 14t-57 5l-80 -4q-19 0 -39 2q-10 2 -26 2q-17 0 -29 -2q-18 -2 -39 -2q-108 0 -108 84z" />
<glyph unicode="&#xb2;" horiz-adv-x="688" d="M78 600q0 23 24 53q25 33 35 49q21 30 41 48q15 14 32 29.5t25 22.5t9 9q5 5 12 15.5t10 13.5l35 30q7 -3 64 84q10 15 22 35q42 61 54 87t12 59q0 29 -11.5 46.5t-42.5 39.5q-46 30 -67 30q-51 0 -91 -31t-40 -71q0 -20 16 -38.5t31 -18.5q13 0 33 14q9 6 14 6t20 -7 t21 -13q16 -13 16 -45q0 -28 -31 -50t-71 -22q-47 0 -80 26q-38 28 -46 35.5t-15 26.5q-23 51 -23 76q0 31 16.5 76t38.5 71q26 33 82.5 56.5t108.5 23.5q73 0 170 -66q26 -19 53 -74.5t27 -90.5q0 -12 -10.5 -58t-16.5 -59q-7 -15 -32.5 -54.5t-41.5 -58.5q-30 -41 -37 -51 q-3 -6 -6.5 -12.5t-5 -10t-2.5 -4.5t-33 -26q-11 -4 -49 -51q-34 -39 -67 -74q-10 -10 -11 -12q16 -2 49 -2q15 0 46 -7q68 7 77 7q27 0 27 12q0 3 -6 12q-2 4 -2 12q0 28 20 52t43 24q32 0 57 -15t25 -34l-4 -16q-6 -28 -4 -76q2 -10 2 -25q0 -28 -20.5 -52t-42.5 -21 q-59 8 -113 8q-45 0 -68 2l-57 -4q-1 0 -25 4q-10 2 -18 2q-18 -2 -51 -6q-13 0 -45 -4q-29 0 -55.5 20t-26.5 43z" />
<glyph unicode="&#xb3;" horiz-adv-x="692" d="M74 674q0 22 21.5 38.5t47.5 14.5q18 0 43 -22q23 -22 30.5 -27t19.5 -10q38 -19 57 -19q10 0 48 11.5t56 19.5q31 14 56 47q11 18 27 61t16 56q0 28 -52 98q-11 14 -22.5 18.5t-50.5 10.5q-32 4 -35 4q-30 0 -53 -10q-21 -7 -23 -7q-18 0 -35.5 14.5t-17.5 28.5 q0 18 6 27.5t37 40.5q1 2 5 7l12 15t16 21q29 33 36 39q17 17 17 18l16 31q4 8 17 21l10 14q0 3 -8 7.5t-13 4.5q-4 0 -8 -2q-21 -6 -31 -6q-73 7 -86 8q-13 0 -43 -10q-21 -6 -32 -6q-22 0 -43 22.5t-21 46.5q0 23 27.5 46.5t52.5 21.5q105 -6 131 -6q110 -4 111 -4l51 6 q25 0 51.5 -22t26.5 -42t-43 -79q-18 -21 -33 -45q-19 -27 -31 -41q-4 -6 -18.5 -25.5t-22.5 -30.5v-2q0 -2 6.5 -5t10.5 -3q6 0 10 2q6 2 16 2q39 0 117 -72q23 -20 43.5 -73.5t20.5 -93.5q0 -14 -15 -64q-13 -32 -16 -51q-19 -63 -101.5 -124.5t-142.5 -57.5 q-113 8 -125 12t-112 59q-15 7 -25 26.5t-10 39.5z" />
<glyph unicode="&#xb4;" horiz-adv-x="1024" d="M444 1233q0 30 56 92q34 39 53 76q12 24 35.5 41.5t44.5 19.5q38 3 68 -24t30 -64q0 -25 -11.5 -43.5t-43.5 -46.5q-4 -2 -31 -29q-36 -36 -57 -51q-17 -11 -37 -28q-17 -17 -35 -17q-26 0 -49 24t-23 50z" />
<glyph unicode="&#xb6;" horiz-adv-x="1191" d="M27 1059q0 35 14 68.5t51 84.5q41 56 54 69t49 34q42 26 86 35q31 4 79 16q36 8 76 8q33 2 60 2q40 6 47 6l65 -8l58 8l57 -10l57 4l58 -2l57 8l66 -14q12 0 47 14q16 4 20 4q32 0 54 -29.5t22 -72.5q0 -57 -66 -57q-20 0 -34 2q-18 4 -41 4q-29 0 -29 -37q0 -12 2 -20 q2 -12 2 -21l-4 -84l10 -51l-8 -51q10 -75 10 -156l-8 -51l4 -53l-6 -52l12 -51q-8 -51 -8 -84q0 -1 -4 -71l8 -72q0 -6 -6 -33q-2 -10 -2 -27q0 -7 10 -75q2 -14 2 -29q0 -14 -2 -22q-6 -30 -6 -35l6 -70l-10 -55q0 -11 8 -47q2 -8 2 -25t-2 -29q-2 -10 -2 -24q0 -17 2 -27 t2 -24q0 -25 -35 -46.5t-75 -21.5q-24 0 -43 23t-19 51q0 10 2 18q8 33 8 64q0 9 -4 41q-1 9 -2 17l-1.5 12t-0.5 5l4 68l-2 53l4 62q0 1 -4 41q-6 30 -6 41l2 63q-4 70 -4 82q0 20 -2 47q0 22 8 78l2 14l1.5 10.5t0.5 4.5l-8 75l6 68l-6 133l8 58l-10 75q0 8 8 29t8 37 q0 21 -12 67q-4 16 -4 17q4 63 4 71l2 5q-2 10 -8 10q-4 0 -8 -2q-9 -6 -21 -6q-2 0 -15.5 1t-38.5 3t-48 4q-29 -3 -35 -5t-6 -10l6 -92v-20q0 -64 2 -82q2 -14 2 -31q0 -12 -2 -20q-12 -47 -12 -51q0 -1 1.5 -7t5.5 -20.5t7 -26.5l2 -18q0 -15 -6 -33q-14 -35 -14 -43 l8 -61l-6 -52l10 -51l-2 -51l2 -53l-6 -56q0 -11 8 -47q2 -10 2 -20q-7 -110 -8 -117l6 -69l-10 -52l2 -53l-4 -51l12 -72q0 -7 -6 -31q-4 -24 -4 -30q0 -15 2 -23q4 -24 4 -28q0 -12 -6.5 -28t-13.5 -20q-6 -4 -26 -9t-32 -5q-37 0 -67 25t-27 53l8 70l-4 79q0 15 4 29 l2 29q0 6 -4 26q-8 44 -8 62q1 13 3.5 56.5t4.5 72.5q0 46 -6 82q-4 32 -4 37q0 10 2 16l10 55l-6 72q0 10 8 37q2 8 2 16q0 20 -6.5 28.5t-21.5 10.5l-39 -2q-9 0 -54 12.5t-57 18.5q-108 54 -130.5 72.5t-51.5 78.5q-5 12 -19 41t-20 43q-12 28 -12 148z" />
<glyph unicode="&#xb7;" horiz-adv-x="356" d="M68 539q0 63 25.5 97t72.5 34q58 0 90.5 -38t32.5 -106q0 -20 -21 -67q-24 -47 -88 -47q-36 0 -55.5 11t-34.5 40q-22 43 -22 76z" />
<glyph unicode="&#xb8;" horiz-adv-x="1024" d="M422 -203q0 12 7.5 36t14.5 36q8 12 32 22.5t44 10.5q41 0 77 -33t34 -70q0 -2 -4 -30q-1 -4 -6 -29q-7 -55 -27 -107q-4 -6 -14 -22q-2 -2 -5 -7t-8 -14.5t-10 -17.5q-21 -37 -55 -37q-26 0 -48 18.5t-22 40.5q0 14 31 60q14 21 14 41q0 8 -3.5 14.5t-22.5 26.5 q-10 10 -19.5 30t-9.5 31z" />
<glyph unicode="&#xb9;" horiz-adv-x="692" d="M137 1198q0 46 76 80q3 1 6 2.5t5 3t3 2t2 0.5q5 4 14 12t13 11q4 4 31 16q2 2 8 5.5t10 6.5q34 22 46 27.5t26 5.5q26 0 47.5 -18.5t21.5 -40.5q0 -10 -12 -76q-3 -3 -6 -98l2 -33l-2 -43l2 -19l-4 -43q2 -8 2 -20q4 -16 4 -68q-4 -50 -4 -88q0 -8 2 -16l2 -14l-2 -29 l2 -19l-4 -30q6 -45 9.5 -53.5t15.5 -8.5q4 0 8 2q8 2 20 2q29 0 50.5 -18t21.5 -43q0 -21 -20.5 -40t-43.5 -19l-20 2q-41 6 -72 6l-30 2q-8 2 -17 2q-8 0 -16 -2q-6 -2 -25 -2q-12 -1 -24.5 -2t-18.5 -1.5t-8 -0.5q-6 -2 -12 -2q-23 0 -42.5 18.5t-19.5 40.5 q0 14 8.5 28.5t20.5 20.5q8 4 61 6q12 0 21.5 11t9.5 26q0 6 -2 10v7l4 36q-2 7 -4 15q-4 16 -4 24q0 34 6 70q2 6 2 12q0 7 -2 15q-4 16 -4 22q0 9 4 33q2 10 2 18q0 1 -0.5 4.5t-1.5 10t-2 12.5l-2 74q0 71 10 104q2 6 2 12q0 9 -4 19t-8 10q-2 -2 -6 -4q-9 -4 -19 -8 q-12 -6 -18 -15l-10 -10q-23 -20 -49 -20q-22 0 -42 18.5t-20 38.5z" />
<glyph unicode="&#xba;" horiz-adv-x="679" d="M35 889q9 78 17.5 103t43.5 77q39 60 123 96q52 21 146 21q64 0 147 -47q29 -17 57 -53t43 -76q1 0 2.5 -2.5t3 -6.5t3.5 -6q26 -59 26 -127q0 -127 -59 -213q-46 -64 -115 -88q-31 -12 -55 -20q-33 -6 -62 -10q-53 6 -71 12q-13 2 -23 4q-73 12 -139 90l-25 27 q-22 23 -33 47.5t-18 68.5q0 1 -12 103zM170 858q0 -6 11 -46.5t16 -53.5q17 -38 71 -66q25 -14 37 -16.5t62 -5.5q44 3 86 42.5t47 80.5q4 24 6 26q2 4 2 8q0 2 -2 4q-4 8 -4 21l4 43q-17 73 -29 94q-12 18 -37 35.5t-49 24.5l-18 6q-12 4 -13 4q-4 0 -8 -2q-16 -4 -26 -4 q-58 0 -99 -39t-47 -101q0 -12 -2 -20q-8 -24 -8 -35z" />
<glyph unicode="&#xbb;" horiz-adv-x="819" d="M68 782q0 32 27 59t61 27q19 0 32 -8t33 -33q4 -4 10 -11t17 -19t20 -21q8 -10 37 -53q14 -25 53 -68q13 -17 39 -47l39 -37q18 -18 15 -32q-3 -28 -45 -76q-5 -5 -11 -12t-9.5 -11t-4.5 -6q-1 -1 -2.5 -3.5l-4.5 -7.5t-5 -9q-1 -3 -101 -144q-29 -43 -35 -50.5 t-14 -12.5q-30 -23 -57 -23q-34 0 -62 27t-28 59q0 27 9.5 48t41.5 65q14 18 49 53q37 43 47 56q19 25 19 34q0 12 -23 46t-47 57q-64 64 -82 91t-18 62zM369 774q0 38 25.5 66t60.5 28q20 0 34 -8.5t46 -42.5q34 -37 41 -46.5t18 -29.5q26 -44 44 -67.5t64 -67.5 q50 -53 50 -78q0 -22 -35 -57q-46 -52 -73 -89t-85 -132q-41 -66 -92 -66q-38 0 -64 26t-26 66q0 63 104 170q62 65 62 86q0 10 -13 27.5t-90 108.5q-34 42 -34 43l-11 16l-18 21q-8 8 -8 26z" />
<glyph unicode="&#xbc;" horiz-adv-x="1558" d="M137 1198q0 46 76 80q3 1 6 2.5t5 3t3 2t2 0.5q5 4 14 12t13 11q4 4 31 16q2 2 8 5.5t10 6.5q34 22 46 27.5t26 5.5q26 0 47.5 -18.5t21.5 -40.5q0 -10 -12 -76q-3 -3 -6 -98l2 -33l-2 -43l2 -19l-4 -43q2 -8 2 -20q4 -16 4 -68q-4 -50 -4 -88q0 -8 2 -16l2 -14l-2 -29 l2 -19l-4 -30q6 -45 9.5 -53.5t15.5 -8.5q4 0 8 2q8 2 20 2q29 0 50.5 -18t21.5 -43q0 -21 -20.5 -40t-43.5 -19l-20 2q-41 6 -72 6l-30 2q-8 2 -17 2q-8 0 -16 -2q-6 -2 -25 -2q-12 -1 -24.5 -2t-18.5 -1.5t-8 -0.5q-6 -2 -12 -2q-23 0 -42.5 18.5t-19.5 40.5 q0 14 8.5 28.5t20.5 20.5q8 4 61 6q12 0 21.5 11t9.5 26q0 6 -2 10v7l4 36q-2 7 -4 15q-4 16 -4 24q0 34 6 70q2 6 2 12q0 7 -2 15q-4 16 -4 22q0 9 4 33q2 10 2 18q0 1 -0.5 4.5t-1.5 10t-2 12.5l-2 74q0 71 10 104q2 6 2 12q0 9 -4 19t-8 10q-2 -2 -6 -4q-9 -4 -19 -8 q-12 -6 -18 -15l-10 -10q-23 -20 -49 -20q-22 0 -42 18.5t-20 38.5zM477 47q0 19 8.5 39t57.5 123l41 88q1 4 22 59q12 24 12 29l11 41q3 13 28 78q18 43 33 90q36 94 60 151l14 35q3 5 8.5 16.5t9.5 18.5q6 12 15 27q20 39 26 55.5t17 58.5q0 3 10 33q11 30 16 49l6 23 q4 10 8.5 22t10.5 26.5t10 23.5q12 29 17 55q4 17 6 35l12 49l6 31q7 26 32.5 46.5t49.5 20.5q57 0 57 -51q0 -20 -6 -36t-31 -62q-6 -14 -16 -39q-5 -10 -14 -37l-10 -35q-4 -22 -9 -27l-18 -36q-14 -23 -31 -78q-35 -95 -37 -101q-9 -19 -26 -67q-5 -14 -19 -39 q-24 -49 -35 -100q-11 -36 -14 -41q-22 -36 -29 -64q-21 -55 -26 -68q-9 -21 -12 -36l-13 -58q-6 -27 -18 -47q-8 -17 -20 -39.5t-15 -29.5q-7 -16 -18 -37.5t-21 -44.5q0 -1 -7.5 -22t-12.5 -32q-8 -20 -15 -34q-1 -4 -4 -15t-4 -18q-11 -55 -21 -68.5t-40 -13.5 q-28 0 -45 15t-17 38zM905 242q0 21 27 55q21 23 29 51q4 15 6 17q6 6 14 18q17 30 27 43q0 2 16 31q3 4 7.5 12.5t6.5 11.5q7 11 21 29q7 7 31 57q2 3 6.5 11.5t7.5 13.5q27 50 33 59q19 44 67 107q31 40 52.5 53.5t54.5 13.5q23 0 47.5 -22.5t23.5 -42.5l-4 -41l2 -23 q0 -1 -0.5 -3t-1.5 -6.5t-2 -8.5q-2 -4 -2 -12q0 -11 2 -17q1 -4 2 -8.5t1.5 -6.5t0.5 -3l-4 -37l2 -45q0 -13 -2 -23q-4 -28 -4 -39q0 -14 2 -24q2 -6 2 -12q0 -7 -2 -11q-2 -10 -2 -30q0 -7 4 -27q1 -3 2 -6.5t1.5 -5t0.5 -2.5l-6 -45q-1 -7 8 -18t17 -11q6 0 12 2 q15 6 27 6q26 0 47.5 -22t21.5 -50q0 -25 -18.5 -43t-44.5 -18q-15 0 -21 2q-12 4 -22 4q-25 -3 -25 -35q0 -4 2 -16.5t5.5 -34.5t5.5 -37q0 -25 -21 -43t-49 -18q-32 0 -58 18t-26 41q0 16 8 47q8 21 8 49q0 13 -5 24t-11 11l-33 -2q-1 0 -2.5 0.5t-5 1.5t-6.5 2 q-6 2 -17 2q-6 0 -26 -4t-27 -4q-4 0 -24 4q-8 2 -17 2q-54 -7 -100 -12q-22 0 -47 24t-25 46zM1075 297q57 0 129 2q23 -1 37 3.5t12 12.5q-4 27 -4 45q0 23 -2 43q0 9 2 17q2 14 2 29q0 10 -2 16q-4 24 -4 27q2 8 2 22q2 8 2 35v12l2 14v33q-2 -3 -10 -24 q-7 -12 -39.5 -67t-56.5 -93q-12 -18 -12 -21l-13 -30q-7 -14 -18 -27l-12 -16l-13 -29q0 -2 -2 -4z" />
<glyph unicode="&#xbd;" horiz-adv-x="1554" d="M137 1198q0 46 76 80q3 1 6 2.5t5 3t3 2t2 0.5q5 4 14 12t13 11q4 4 31 16q2 2 8 5.5t10 6.5q34 22 46 27.5t26 5.5q26 0 47.5 -18.5t21.5 -40.5q0 -10 -12 -76q-3 -3 -6 -98l2 -33l-2 -43l2 -19l-4 -43q2 -8 2 -20q4 -16 4 -68q-4 -50 -4 -88q0 -8 2 -16l2 -14l-2 -29 l2 -19l-4 -30q6 -45 9.5 -53.5t15.5 -8.5q4 0 8 2q8 2 20 2q29 0 50.5 -18t21.5 -43q0 -21 -20.5 -40t-43.5 -19l-20 2q-41 6 -72 6l-30 2q-8 2 -17 2q-8 0 -16 -2q-6 -2 -25 -2q-12 -1 -24.5 -2t-18.5 -1.5t-8 -0.5q-6 -2 -12 -2q-23 0 -42.5 18.5t-19.5 40.5 q0 14 8.5 28.5t20.5 20.5q8 4 61 6q12 0 21.5 11t9.5 26q0 6 -2 10v7l4 36q-2 7 -4 15q-4 16 -4 24q0 34 6 70q2 6 2 12q0 7 -2 15q-4 16 -4 22q0 9 4 33q2 10 2 18q0 1 -0.5 4.5t-1.5 10t-2 12.5l-2 74q0 71 10 104q2 6 2 12q0 9 -4 19t-8 10q-2 -2 -6 -4q-9 -4 -19 -8 q-12 -6 -18 -15l-10 -10q-23 -20 -49 -20q-22 0 -42 18.5t-20 38.5zM477 47q0 19 8.5 39t57.5 123l41 88q1 4 22 59q12 24 12 29l11 41q3 13 28 78q18 43 33 90q36 94 60 151l14 35q3 5 8.5 16.5t9.5 18.5q6 12 15 27q20 39 26 55.5t17 58.5q0 3 10 33q11 30 16 49l6 23 q4 10 8.5 22t10.5 26.5t10 23.5q12 29 17 55q4 17 6 35l12 49l6 31q7 26 32.5 46.5t49.5 20.5q57 0 57 -51q0 -20 -6 -36t-31 -62q-6 -14 -16 -39q-5 -10 -14 -37l-10 -35q-4 -22 -9 -27l-18 -36q-14 -23 -31 -78q-35 -95 -37 -101q-9 -19 -26 -67q-5 -14 -19 -39 q-24 -49 -35 -100q-11 -36 -14 -41q-22 -36 -29 -64q-21 -55 -26 -68q-9 -21 -12 -36l-13 -58q-6 -27 -18 -47q-8 -17 -20 -39.5t-15 -29.5q-7 -16 -18 -37.5t-21 -44.5q0 -1 -7.5 -22t-12.5 -32q-8 -20 -15 -34q-1 -4 -4 -15t-4 -18q-11 -55 -21 -68.5t-40 -13.5 q-28 0 -45 15t-17 38zM942 53q0 8 8.5 24.5t18.5 28.5q2 4 6 10.5t12 18.5l14 21q19 27 41 47q64 58 66 61q32 36 43 47q20 16 32 31t46 66q16 24 22 34q43 60 54.5 85.5t11.5 60.5q0 29 -11 46.5t-42 39.5q-44 31 -68 31q-50 0 -90.5 -32t-40.5 -71q0 -20 16 -38.5 t31 -18.5q13 0 33 14q9 6 14 6t21 -8t20 -12q19 -15 19 -45q0 -28 -32.5 -50t-72.5 -22q-42 0 -80 27q-39 29 -46.5 35.5t-14.5 23.5q-23 56 -23 78q0 29 18 75.5t38 71.5q28 34 83.5 57t106.5 23q79 0 170 -65q26 -19 53 -74t27 -92q0 -14 -10 -57t-17 -60q-6 -15 -71 -113 q-36 -49 -37 -51q-12 -21 -17 -26q-9 -10 -32 -27q-22 -19 -86 -92q-28 -32 -31 -33q-8 -5 -8 -10q0 -7 22 -4q26 3 43 0l27 -6q59 6 78 6q26 0 26 12l-4 12q-4 4 -4 13q0 26 21.5 50.5t44.5 24.5q31 0 55 -14.5t24 -34.5q0 -8 -2 -16q-6 -18 -6 -35q0 -20 4 -66 q2 -25 -20.5 -50.5t-44.5 -22.5q-52 8 -111 8q-47 0 -67 2l-60 -4q-2 0 -22 4q-10 2 -21 2q-16 -3 -49 -6q-34 -3 -47 -4q-29 0 -55.5 20.5t-26.5 42.5z" />
<glyph unicode="&#xbe;" horiz-adv-x="1556" d="M74 674q0 22 21.5 38.5t47.5 14.5q18 0 43 -22q23 -22 30.5 -27t19.5 -10q38 -19 57 -19q10 0 48 11.5t56 19.5q31 14 56 47q11 18 27 61t16 56q0 28 -52 98q-11 14 -22.5 18.5t-50.5 10.5q-32 4 -35 4q-30 0 -53 -10q-21 -7 -23 -7q-18 0 -35.5 14.5t-17.5 28.5 q0 18 6 27.5t37 40.5q1 2 5 7l12 15t16 21q29 33 36 39q17 17 17 18l16 31q4 8 17 21l10 14q0 3 -8 7.5t-13 4.5q-4 0 -8 -2q-21 -6 -31 -6q-73 7 -86 8q-13 0 -43 -10q-21 -6 -32 -6q-22 0 -43 22.5t-21 46.5q0 23 27.5 46.5t52.5 21.5q105 -6 131 -6q110 -4 111 -4l51 6 q25 0 51.5 -22t26.5 -42t-43 -79q-18 -21 -33 -45q-19 -27 -31 -41q-4 -6 -18.5 -25.5t-22.5 -30.5v-2q0 -2 6.5 -5t10.5 -3q6 0 10 2q6 2 16 2q39 0 117 -72q23 -20 43.5 -73.5t20.5 -93.5q0 -14 -15 -64q-13 -32 -16 -51q-19 -63 -101.5 -124.5t-142.5 -57.5 q-113 8 -125 12t-112 59q-15 7 -25 26.5t-10 39.5zM479 47q0 19 8.5 39t57.5 123l41 88q1 4 22 59q13 26 13 29l10 41q3 13 28 78q18 43 33 90q36 94 60 151l14 35q3 5 8.5 16.5t9.5 18.5q6 12 15 27q20 39 26 55.5t17 58.5q0 3 10 33q11 30 16 49l6 23q4 10 8.5 22 t10.5 26.5t10 23.5q12 29 17 55q4 17 6 35l12 49l6 31q7 26 32.5 46.5t49.5 20.5q57 0 57 -51q0 -21 -6 -37t-30 -61q-2 -5 -8.5 -19t-8.5 -20q-5 -10 -14 -37l-10 -35q-4 -22 -9 -27l-18 -36q-14 -23 -31 -78q-35 -95 -37 -101q-9 -19 -26 -67q-5 -14 -19 -39 q-24 -49 -35 -100q-11 -36 -14 -41q-22 -36 -29 -64q-21 -55 -26 -68q-9 -21 -12 -36l-13 -58q-6 -27 -18 -47q-22 -46 -31 -59q-10 -25 -20 -45q-10 -18 -58 -135q-1 -4 -4 -15t-4 -18q-11 -55 -21 -68.5t-40 -13.5q-28 0 -45 15t-17 38zM905 242q0 21 27 55q21 23 29 51 q4 15 6 17q6 6 14 18q17 30 27 43q0 2 16 31q3 4 7.5 12.5t6.5 11.5q7 11 21 29q7 7 31 57q2 3 6.5 11.5t7.5 13.5q27 50 33 59q19 44 67 107q31 40 52.5 53.5t54.5 13.5q23 0 47.5 -22.5t23.5 -42.5l-4 -41l2 -23q0 -8 -2 -18q-2 -4 -2 -12q0 -11 2 -17q2 -10 2 -18l-2 -37 l2 -45q0 -13 -2 -23q-4 -28 -4 -39q0 -14 2 -24q2 -6 2 -12q0 -7 -2 -11q-4 -20 -4 -30q0 -7 4 -27q1 -3 2 -6.5t1.5 -5t0.5 -2.5l-4 -45q0 -9 8.5 -19t14.5 -10q8 0 14 2q15 6 27 6q25 0 46 -22.5t21 -49.5q0 -25 -18.5 -43t-44.5 -18q-15 0 -21 2q-12 4 -22 4 q-25 -3 -25 -35q0 -4 2 -16.5t5.5 -34.5t5.5 -37q0 -25 -21 -43t-49 -18q-32 0 -58 18t-26 41q0 16 8 47q8 21 8 49q0 13 -5 24t-11 11l-33 -2q-1 0 -2.5 0.5t-5 1.5t-6.5 2q-6 2 -17 2q-6 0 -26 -4t-27 -4q-4 0 -24 4q-8 2 -17 2q-54 -7 -100 -12q-22 0 -47 24t-25 46z M1075 297q57 0 131 2q23 -1 37 3.5t12 12.5q-4 18 -4 45q0 12 -4 43q0 9 2 17q4 28 4 29q0 10 -2 16q-4 24 -4 27q0 10 2 22q2 8 2 21l-2 14q0 6 4 26v7v16v10q-2 -3 -3 -5t-3.5 -7.5t-5.5 -11.5q-32 -56 -96 -160l-6 -10l-4.5 -7.5t-1.5 -3.5l-13 -30q-7 -14 -18 -27 l-12 -16q-1 -3 -11 -29z" />
<glyph unicode="&#xbf;" horiz-adv-x="759" d="M68 88q0 74 38 148q22 39 101 113.5t149 121.5q86 60 86 125q0 35 -20 68q-17 28 -51 28q-21 0 -31 -4.5t-29 -25.5q-29 -29 -73 -29q-43 0 -70 26.5t-27 67.5q0 66 58 90q33 14 57 19t137 24q36 0 83 -22t73 -52q69 -82 69 -184q0 -37 -16 -91t-35 -79 q-13 -16 -76.5 -68t-87.5 -65q-5 -3 -12 -7l-10.5 -6t-5.5 -3q-4 0 -21 -25q-3 -5 -35 -43q-40 -43 -56.5 -77.5t-16.5 -74.5q0 -47 38.5 -85.5t84.5 -38.5q57 0 93 24t36 62q0 11 -3 17t-20 34q-10 17 -10 37q0 35 17 58.5t42 23.5h8q60 0 96 -42.5t36 -111.5 q0 -61 -32 -115.5t-89 -89.5q-50 -31 -95.5 -42t-123.5 -11q-40 0 -87 22.5t-79 57.5q-50 54 -70 104.5t-20 120.5zM291 1038q0 54 21.5 89t56.5 36q24 1 62.5 -13t47.5 -28q19 -27 19 -75q0 -86 -27 -113q-12 -13 -38.5 -23t-51.5 -10t-42 14.5t-30 47.5q-18 46 -18 75z " />
<glyph unicode="&#xc0;" horiz-adv-x="1093" d="M14 84q0 24 6.5 40.5t45.5 96.5q10 21 28 84q22 71 39 115l43 98q3 0 33 105q11 48 20 75q2 3 5.5 11.5t10 24.5t13.5 30q23 54 68 188q8 29 22 64l21 53q7 14 16 57q4 17 25 66q14 27 26 63q7 33 15 56q5 31 45 45q48 16 61 16q16 0 40 -14t38 -33q21 -26 37 -88 q17 -73 47 -143q10 -30 16 -50q4 -15 21 -63q13 -26 22 -53q20 -49 29 -90q20 -78 47 -131q21 -44 27 -50q7 -7 26 -102q18 -71 47 -145q27 -92 31 -99q3 -9 13.5 -37t17.5 -47q3 -13 26 -55q39 -69 39 -96q0 -35 -31.5 -60.5t-74.5 -25.5q-71 0 -105 57q-9 21 -12.5 33 t-13.5 67q-5 24 -24 76.5t-29 69.5q-6 12 -50 12q-78 0 -141 -4h-20q-7 0 -43 4q-20 2 -48 2q-18 0 -30 -2q-71 -8 -94 -8q-46 3 -58 -6.5t-31 -63.5q-15 -39 -30 -73q-4 -11 -6 -29l-7 -49q-12 -82 -100 -82q-54 0 -86.5 24.5t-32.5 65.5zM322 1692q0 31 26.5 52t63.5 21 q34 0 59 -23.5t59 -86.5l17 -21q16 -16 26 -24q13 -12 25 -36.5t12 -39.5q0 -36 -24 -53q-31 -17 -43 -17q-33 0 -99 66q-37 37 -45 43q-34 28 -55.5 61t-21.5 58zM362 506q0 -14 13.5 -24.5t30.5 -10.5q18 0 90 10q12 2 22 2q9 0 17 -2q10 -2 22 -2l90 2l39 -2 q12 2 22.5 13t10.5 24t-35 114t-55 142q-9 21 -17 66l-8 26q-15 43 -16 49q-3 12 -19 58l-6 18l-4 17q-6 26 -10 34q-15 -40 -37 -118q-8 -34 -29 -80q-19 -44 -37 -99q-6 -18 -22 -53q-5 -11 -11.5 -25t-10 -21.5t-3.5 -8.5l-14 -53q-1 -4 -6 -17.5t-8 -21.5q-9 -21 -9 -37 z" />
<glyph unicode="&#xc1;" horiz-adv-x="1093" d="M14 84q0 24 6.5 40.5t45.5 96.5q10 21 28 84q22 71 39 115l43 98q3 0 33 105q11 48 20 75q2 3 5.5 11.5t10 24.5t13.5 30q23 54 68 188q8 29 22 64l21 53q7 14 16 57q4 17 25 66q14 27 26 63q7 33 15 56q5 31 45 45q48 16 61 16q16 0 40 -14t38 -33q21 -26 37 -88 q17 -73 47 -143q10 -30 16 -50q4 -15 21 -63q13 -26 22 -53q20 -49 29 -90q20 -78 47 -131q21 -44 27 -50q7 -7 26 -102q18 -71 47 -145q27 -92 31 -99q3 -9 13.5 -37t17.5 -47q3 -13 26 -55q39 -69 39 -96q0 -35 -31.5 -60.5t-74.5 -25.5q-71 0 -105 57q-9 21 -12.5 33 t-13.5 67q-5 24 -24 76.5t-29 69.5q-6 12 -50 12q-78 0 -141 -4h-20q-7 0 -43 4q-20 2 -48 2q-18 0 -30 -2q-71 -8 -94 -8q-46 3 -58 -6.5t-31 -63.5q-15 -39 -30 -73q-4 -11 -6 -29l-7 -49q-12 -82 -100 -82q-54 0 -86.5 24.5t-32.5 65.5zM362 506q0 -14 13.5 -24.5 t30.5 -10.5q18 0 90 10q12 2 22 2q9 0 17 -2q10 -2 22 -2l90 2l39 -2q12 2 22.5 13t10.5 24t-35 114t-55 142q-9 21 -17 66l-8 26q-15 43 -16 49q-3 12 -19 58l-6 18l-4 17q-6 26 -10 34q-15 -40 -37 -118q-8 -34 -29 -80q-19 -44 -37 -99q-6 -18 -22 -53q-5 -11 -11.5 -25 t-10 -21.5t-3.5 -8.5l-14 -53q-1 -4 -6 -17.5t-8 -21.5q-9 -21 -9 -37zM485 1536q0 30 56 92q31 35 53 76q13 24 37 41.5t45 19.5q38 3 68 -24t30 -64q0 -23 -11.5 -41.5t-43.5 -46.5l-31 -28q-38 -38 -59 -52t-35 -28q-20 -17 -37 -17q-9 0 -26.5 9t-28.5 18q-5 5 -11 20.5 t-6 24.5z" />
<glyph unicode="&#xc2;" horiz-adv-x="1093" d="M14 84q0 24 6.5 40.5t45.5 96.5q10 21 28 84q22 71 39 115l43 98q3 0 33 105q11 48 20 75q2 3 5.5 11.5t10 24.5t13.5 30q23 54 68 188q8 29 22 64l21 53q7 14 16 57q4 17 25 66q14 27 26 63q7 33 15 56q5 31 45 45q48 16 61 16q16 0 40 -14t38 -33q21 -26 37 -88 q17 -73 47 -143q10 -30 16 -50q4 -15 21 -63q13 -26 22 -53q20 -49 29 -90q20 -78 47 -131q21 -44 27 -50q7 -7 26 -102q18 -71 47 -145q27 -92 31 -99q3 -9 13.5 -37t17.5 -47q3 -13 26 -55q39 -69 39 -96q0 -35 -31.5 -60.5t-74.5 -25.5q-71 0 -105 57q-9 21 -12.5 33 t-13.5 67q-5 24 -24 76.5t-29 69.5q-6 12 -50 12q-78 0 -141 -4h-20q-7 0 -43 4q-20 2 -48 2q-18 0 -30 -2q-71 -8 -94 -8q-46 3 -58 -6.5t-31 -63.5q-15 -39 -30 -73q-4 -11 -6 -29l-7 -49q-12 -82 -100 -82q-54 0 -86.5 24.5t-32.5 65.5zM293 1556q0 28 11.5 45.5 t41.5 34.5q32 23 100 70l25 25q29 32 41.5 38.5t44.5 6.5q21 0 41.5 -15t54.5 -55q17 -17 23 -20q22 -15 35 -25q12 -9 22 -19l37 -22q33 -20 33 -59q0 -29 -24 -55.5t-52 -26.5q-31 0 -72 26q-11 7 -43 54q-13 20 -32.5 33.5t-34.5 13.5q-11 0 -19.5 -5t-29.5 -26 q-2 -2 -14.5 -12.5t-20.5 -16.5t-17 -16q-44 -47 -77 -47q-25 0 -49.5 24t-24.5 49zM362 506q0 -14 13.5 -24.5t30.5 -10.5q18 0 90 10q12 2 22 2q9 0 17 -2q10 -2 22 -2l90 2l39 -2q12 2 22.5 13t10.5 24t-35 114t-55 142q-9 21 -17 66l-8 26q-15 43 -16 49q-3 12 -19 58 l-6 18l-4 17q-6 26 -10 34q-15 -40 -37 -118q-8 -34 -29 -80q-19 -44 -37 -99q-6 -18 -22 -53q-5 -11 -11.5 -25t-10 -21.5t-3.5 -8.5l-14 -53q-1 -4 -6 -17.5t-8 -21.5q-9 -21 -9 -37z" />
<glyph unicode="&#xc3;" horiz-adv-x="1093" d="M14 84q0 24 6.5 40.5t45.5 96.5q10 21 28 84q22 71 39 115l43 98q3 0 33 105q11 48 20 75q2 3 5.5 11.5t10 24.5t13.5 30q23 54 68 188q8 29 22 64l21 53q7 14 16 57q4 17 25 66q14 27 26 63q7 33 15 56q5 31 45 45q48 16 61 16q16 0 40 -14t38 -33q21 -26 37 -88 q17 -73 47 -143q10 -30 16 -50q4 -15 21 -63q13 -26 22 -53q20 -49 29 -90q20 -78 47 -131q21 -44 27 -50q7 -7 26 -102q18 -71 47 -145q27 -92 31 -99q3 -9 13.5 -37t17.5 -47q3 -13 26 -55q39 -69 39 -96q0 -35 -31.5 -60.5t-74.5 -25.5q-71 0 -105 57q-9 21 -12.5 33 t-13.5 67q-5 24 -24 76.5t-29 69.5q-6 12 -50 12q-78 0 -141 -4h-20q-7 0 -43 4q-20 2 -48 2q-18 0 -30 -2q-71 -8 -94 -8q-46 3 -58 -6.5t-31 -63.5q-15 -39 -30 -73q-4 -11 -6 -29l-7 -49q-12 -82 -100 -82q-54 0 -86.5 24.5t-32.5 65.5zM285 1563q0 22 9 57.5t17 48.5 q15 20 45.5 33.5t59.5 13.5q23 0 104 -22q9 -2 47 -17q5 -3 56 -20q30 -10 43 -10q9 0 13 4.5t13 27.5q12 29 51 29q32 0 51.5 -19.5t16.5 -48.5q-9 -87 -10 -88q-13 -38 -37 -54.5t-64 -16.5q-47 0 -92 18l-78 35l-65 20q-20 5 -21 5q-19 0 -26 -33q-6 -28 -18 -37.5 t-38 -9.5q-37 0 -57 22t-20 62zM362 506q0 -14 13.5 -24.5t30.5 -10.5q18 0 90 10q12 2 22 2q9 0 17 -2q10 -2 22 -2l90 2l39 -2q12 2 22.5 13t10.5 24t-35 114t-55 142q-9 21 -17 66l-8 26q-15 43 -16 49q-3 12 -19 58l-6 18l-4 17q-6 26 -10 34q-15 -40 -37 -118 q-8 -34 -29 -80q-19 -44 -37 -99q-6 -18 -22 -53q-5 -11 -11.5 -25t-10 -21.5t-3.5 -8.5l-14 -53q-1 -4 -6 -17.5t-8 -21.5q-9 -21 -9 -37z" />
<glyph unicode="&#xc4;" horiz-adv-x="1093" d="M14 84q0 24 6.5 40.5t45.5 96.5q10 21 28 84q22 71 39 115l43 98q3 0 33 105q11 48 20 75q2 3 5.5 11.5t10 24.5t13.5 30q23 54 68 188q8 29 22 64l21 53q7 14 16 57q4 17 25 66q14 27 26 63q7 33 15 56q5 31 45 45q48 16 61 16q16 0 40 -14t38 -33q21 -26 37 -88 q17 -73 47 -143q10 -30 16 -50q4 -15 21 -63q13 -26 22 -53q20 -49 29 -90q20 -78 47 -131q21 -44 27 -50q7 -7 26 -102q18 -71 47 -145q27 -92 31 -99q3 -9 13.5 -37t17.5 -47q3 -13 26 -55q39 -69 39 -96q0 -35 -31.5 -60.5t-74.5 -25.5q-71 0 -105 57q-9 21 -12.5 33 t-13.5 67q-5 24 -24 76.5t-29 69.5q-6 12 -50 12q-78 0 -141 -4h-20q-7 0 -43 4q-20 2 -48 2q-18 0 -30 -2q-71 -8 -94 -8q-46 3 -58 -6.5t-31 -63.5q-15 -39 -30 -73q-4 -11 -6 -29l-7 -49q-12 -82 -100 -82q-54 0 -86.5 24.5t-32.5 65.5zM326 1567q0 18 2 30q2 16 2 43 q0 30 4.5 43t19.5 25q33 29 70 29t61 -23.5t23 -58.5l-2 -41l2 -49q0 -40 -21.5 -63t-58.5 -23q-55 0 -78 30q-24 36 -24 58zM362 506q0 -14 13.5 -24.5t30.5 -10.5q18 0 90 10q12 2 22 2q9 0 17 -2q10 -2 22 -2l90 2l39 -2q12 2 22.5 13t10.5 24t-35 114t-55 142 q-9 21 -17 66l-8 26q-15 43 -16 49q-3 12 -19 58l-6 18l-4 17q-6 26 -10 34q-15 -40 -37 -118q-8 -34 -29 -80q-19 -44 -37 -99q-6 -18 -22 -53q-5 -11 -11.5 -25t-10 -21.5t-3.5 -8.5l-14 -53q-1 -4 -6 -17.5t-8 -21.5q-9 -21 -9 -37zM580 1647q0 38 29 66t69 28 q49 0 68.5 -28t19.5 -99q0 -66 -6 -84q-6 -20 -26 -36.5t-38 -16.5q-6 0 -40.5 6t-37.5 8q-31 17 -34 63l-2 37q0 29 -2 56z" />
<glyph unicode="&#xc5;" horiz-adv-x="1093" d="M14 84q0 24 6.5 40.5t45.5 96.5q10 21 28 84q22 71 39 115l43 98q3 0 33 105q11 48 20 75q2 3 5.5 11.5t10 24.5t13.5 30q23 54 68 188q8 29 22 64l21 53q7 14 16 57q4 17 25 66q14 27 26 63q7 33 15 56q5 31 45 45q48 16 61 16q16 0 40 -14t38 -33q21 -26 37 -88 q17 -73 47 -143q10 -30 16 -50q4 -15 21 -63q13 -26 22 -53q20 -49 29 -90q20 -78 47 -131q21 -44 27 -50q7 -7 26 -102q18 -71 47 -145q27 -92 31 -99q3 -9 13.5 -37t17.5 -47q3 -13 26 -55q39 -69 39 -96q0 -35 -31.5 -60.5t-74.5 -25.5q-71 0 -105 57q-9 21 -12.5 33 t-13.5 67q-5 24 -24 76.5t-29 69.5q-6 12 -50 12q-78 0 -141 -4h-20q-7 0 -43 4q-20 2 -48 2q-18 0 -30 -2q-71 -8 -94 -8q-46 3 -58 -6.5t-31 -63.5q-15 -39 -30 -73q-4 -11 -6 -29l-7 -49q-12 -82 -100 -82q-54 0 -86.5 24.5t-32.5 65.5zM362 506q0 -14 13.5 -24.5 t30.5 -10.5q18 0 90 10q12 2 22 2q9 0 17 -2q10 -2 22 -2l90 2l39 -2q12 2 22.5 13t10.5 24t-35 114t-55 142q-9 21 -17 66l-8 26q-15 43 -16 49q-3 12 -19 58l-6 18l-4 17q-6 26 -10 34q-15 -40 -37 -118q-8 -34 -29 -80q-19 -44 -37 -99q-6 -18 -22 -53q-5 -11 -11.5 -25 t-10 -21.5t-3.5 -8.5l-14 -53q-1 -4 -6 -17.5t-8 -21.5q-9 -21 -9 -37zM377 1634q0 45 12 70t51 61q15 15 50 26t69 11q23 0 56 -17.5t61 -43.5q41 -41 41 -129q0 -38 -18.5 -66.5t-61.5 -56.5q-38 -23 -51 -23q-43 0 -66 -2q-15 0 -45 14t-47 29q-51 48 -51 127zM473 1636 q0 -12 8.5 -34t16.5 -33q14 -17 41 -17q34 0 58 23t24 55q0 31 -21.5 53.5t-52.5 22.5q-29 0 -51.5 -21t-22.5 -49z" />
<glyph unicode="&#xc6;" horiz-adv-x="1404" d="M12 88q0 44 39 115q25 48 32.5 68t18.5 67q9 37 17 51q6 15 20 45.5t21 46.5q6 19 24.5 72.5t28.5 85.5q5 17 13 40t16 50q29 68 59 135q7 17 20.5 46t16.5 36q15 46 29 74q10 20 22 55l31 64q17 41 45 84q7 11 47 102q10 20 39 35.5t53 15.5q22 0 123 -16q42 -10 96 -10 q9 0 49 4q52 6 68 6q2 0 141 -10l39 -4q16 0 78 12q24 4 29 4q6 0 55 -6q28 -5 39.5 -12t21.5 -29q11 -22 11 -35q0 -10 -9.5 -39t-17.5 -41q-25 -43 -70 -43q-5 0 -14.5 1t-27.5 3t-33 4q-81 13 -129 13q-19 0 -39 -2q-16 -2 -39 -2q-32 0 -84 10q-6 2 -14 2q-24 0 -39 -14 t-15 -37v-50q0 -13 -4 -59q-2 -10 -2 -20q0 -32 13.5 -53t35.5 -21q13 0 21 2q37 6 51 6t59 -10q21 -6 27 -6l78 10q33 -4 72.5 -7t42.5 -3q30 -1 44.5 -8.5t26.5 -26.5q27 -52 27 -74q0 -32 -32 -62t-66 -30q-13 0 -31 6q-49 14 -64 19l-53 2q-33 0 -57 4q-34 6 -39 6 q-13 0 -60 -7.5t-55 -11.5q-39 -12 -39 -45q0 -1 2 -20t4.5 -43.5t3.5 -36.5q0 -5 -4 -25q-6 -27 -6 -45q0 -16 6 -43q2 -10 2 -22q0 -13 -2 -27q-1 -4 -6 -102q-1 -14 -2 -30.5t-1.5 -25t-0.5 -10.5q-2 -14 -2 -30q0 -28 16 -46t39 -16l70 6q82 -10 160 -10q13 0 71 10 t76 10q17 0 43 -8t37 -16q11 -11 21 -34.5t10 -41.5q0 -40 -37 -71t-86 -31q-21 0 -68 6q-20 2 -51 2q-22 1 -45 2t-35 1.5t-14 0.5l-23 4l-51 -2l-37 2l-65 -12l-78 4l-59 -6q-34 0 -63.5 27t-29.5 59q0 3 1.5 14.5t3.5 33t4 42.5l2 35q1 10 8 53q2 4 2 8q0 15 -11.5 26.5 t-25.5 10.5l-31 -2l-75 8q-13 -2 -29 -4q-46 -4 -80 -4q-75 -3 -82 -12q-10 -7 -37 -74q-10 -16 -16 -41l-6 -18l-4 -66q-3 -53 -35 -74q-13 -9 -41 -17.5t-41 -8.5q-38 0 -73.5 32.5t-35.5 69.5zM362 508q0 -35 66 -35q19 0 47 4q35 6 43 6q1 0 4.5 -0.5t10 -1.5t12.5 -2 q10 -2 35 -2q20 0 36.5 8t14.5 17l-8 88q0 7 6 37q2 6 2 16q0 8 -2 16q-4 50 -4 70q0 35 6 78q4 36 4 37q0 16 -2 26q-6 44 -6 189q0 17 2 31q2 8 2 16q0 18 -4 18h-2q-13 0 -58 -112q-24 -60 -26 -64q-10 -20 -19 -35q-6 -12 -20 -47q-23 -51 -29 -61q-21 -44 -22 -45 q-9 -27 -15 -41q0 -7 -12 -31q-21 -42 -21 -45q-5 -23 -16 -61q-1 -2 -3 -8t-6.5 -17t-8.5 -22q-7 -17 -7 -27z" />
<glyph unicode="&#xc7;" horiz-adv-x="1048" d="M55 731q0 121 26.5 211t88.5 180q31 44 54.5 66.5t74.5 56.5q18 12 51 37q59 47 155 73.5t212 26.5q63 0 166 -28q51 -15 84.5 -55.5t33.5 -86.5q0 -34 -28 -73q-20 -23 -62 -23q-46 0 -106 37q-36 24 -59 31.5t-62 7.5q-91 0 -229 -62q-14 -8 -59 -41.5t-58 -46.5 q-19 -20 -45 -72.5t-33 -86.5q-12 -62 -12 -160q0 -66 8 -111.5t33 -115.5q14 -39 41 -84q9 -22 30 -62q17 -37 61.5 -82.5t76.5 -58.5q102 -45 149 -45q90 0 164 31q57 28 86 28q40 0 71 -32.5t31 -75.5q0 -40 -26 -69.5t-72 -41.5q-41 -11 -107 -22t-92 -11q-67 0 -141 19 q-105 29 -162 57t-104 74q-240 237 -240 610zM571 -203q0 12 7.5 36t15.5 36t32 22.5t44 10.5q41 0 76.5 -33t33.5 -70q0 -2 -4 -30q-1 -4 -6 -29q-7 -55 -27 -107q-4 -6 -14 -22q-2 -2 -4.5 -7t-7.5 -14.5t-10 -17.5q-21 -37 -56 -37q-26 0 -47.5 18.5t-21.5 40.5 q0 16 30 60q15 22 15 41q0 8 -4 14t-23 27q-10 10 -19.5 30t-9.5 31z" />
<glyph unicode="&#xc8;" horiz-adv-x="911" d="M106 1282q0 31 32.5 57.5t70.5 26.5q13 0 47 -6q30 -6 53 -6q21 0 68 6q14 2 29 2q118 -7 192 -12q18 0 100 18q8 2 25 2q61 0 100 -24.5t39 -61.5q0 -43 -35 -92q-25 -31 -75 -31q-33 0 -60 8l-57 11h-43q-8 0 -45 6q-12 2 -33 2q-11 0 -35 -4q-14 -2 -24 -2l-101 8 q-3 0 -16 -9.5t-16 -15.5q-9 -13 -9 -30q0 -5 2 -11v-14q0 -53 -4 -61q-1 -11 -2 -23l-1.5 -18t-0.5 -9q0 -31 15 -51t38 -20q17 0 27 2q47 6 66 6q27 0 67 -6q32 -4 37 -4q13 0 21 2q41 6 47 6l123 -14q25 -6 46 -37.5t21 -61.5q0 -35 -27.5 -65.5t-58.5 -30.5 q-24 0 -67 14q-46 15 -89 15q-45 0 -61 4l-31 6q-32 -4 -69 -4q-36 -2 -68.5 -21t-32.5 -39q0 -3 11 -49q4 -20 4 -33q0 -16 -2 -24q-9 -40 -9 -47l4 -53q-6 -23 -6 -31l4 -76q0 -7 -6 -51q-2 -12 -2 -33q0 -19 2 -29q2 -12 2 -24q0 -15 -2 -23q-2 -6 -2 -16q0 -35 53 -35 q9 0 84 6q3 0 27 -4q57 -10 105 -10q21 0 106 16q34 6 64 6q41 0 76.5 -35.5t35.5 -76.5q0 -32 -32.5 -57t-75.5 -25l-78 2l-74 -2q-22 0 -65 6q-55 8 -78 8q-53 -3 -74 -6q-12 0 -78 -8q-35 -6 -74 -6q-70 0 -102 37q-8 11 -14.5 30t-5.5 29q18 152 18 164q0 14 -2 24 q-8 47 -8 76q0 21 6 51q6 34 6 41q0 122 -12 281q0 3 1 9t3 17.5t4 22.5q8 33 8 55q0 5 -12 183l2 37q6 53 6 83q0 50 -12 97q-11 42 -11 55zM215 1692q0 31 26.5 52t63.5 21q34 0 59.5 -23.5t59.5 -86.5l16 -21q12 -12 27 -24q13 -12 25 -36.5t12 -39.5q0 -35 -25 -53 q-31 -17 -43 -17q-32 0 -98 66q-37 37 -45 43q-34 28 -56 61t-22 58z" />
<glyph unicode="&#xc9;" horiz-adv-x="911" d="M106 1282q0 31 32.5 57.5t70.5 26.5q13 0 47 -6q30 -6 53 -6q21 0 68 6q14 2 29 2q118 -7 192 -12q18 0 100 18q8 2 25 2q61 0 100 -24.5t39 -61.5q0 -43 -35 -92q-25 -31 -75 -31q-33 0 -60 8l-57 11h-43q-8 0 -45 6q-12 2 -33 2q-11 0 -35 -4q-14 -2 -24 -2l-101 8 q-3 0 -16 -9.5t-16 -15.5q-9 -13 -9 -30q0 -5 2 -11v-14q0 -53 -4 -61q-1 -11 -2 -23l-1.5 -18t-0.5 -9q0 -31 15 -51t38 -20q17 0 27 2q47 6 66 6q27 0 67 -6q32 -4 37 -4q13 0 21 2q41 6 47 6l123 -14q25 -6 46 -37.5t21 -61.5q0 -35 -27.5 -65.5t-58.5 -30.5 q-24 0 -67 14q-46 15 -89 15q-45 0 -61 4l-31 6q-32 -4 -69 -4q-36 -2 -68.5 -21t-32.5 -39q0 -3 11 -49q4 -20 4 -33q0 -16 -2 -24q-9 -40 -9 -47l4 -53q-6 -23 -6 -31l4 -76q0 -7 -6 -51q-2 -12 -2 -33q0 -19 2 -29q2 -12 2 -24q0 -15 -2 -23q-2 -6 -2 -16q0 -35 53 -35 q9 0 84 6q3 0 27 -4q57 -10 105 -10q21 0 106 16q34 6 64 6q41 0 76.5 -35.5t35.5 -76.5q0 -32 -32.5 -57t-75.5 -25l-78 2l-74 -2q-22 0 -65 6q-55 8 -78 8q-53 -3 -74 -6q-12 0 -78 -8q-35 -6 -74 -6q-70 0 -102 37q-8 11 -14.5 30t-5.5 29q18 152 18 164q0 14 -2 24 q-8 47 -8 76q0 21 6 51q6 34 6 41q0 122 -12 281q0 3 1 9t3 17.5t4 22.5q8 33 8 55q0 5 -12 183l2 37q6 53 6 83q0 50 -12 97q-11 42 -11 55zM324 1536q0 31 55 92q31 35 53 76q13 24 37 41.5t45 19.5q38 3 68 -24t30 -64q0 -23 -11.5 -41.5t-43.5 -46.5l-31 -28 q-38 -38 -59 -52t-35 -28q-20 -17 -37 -17q-9 0 -26.5 9t-28.5 18q-5 5 -10.5 20.5t-5.5 24.5z" />
<glyph unicode="&#xca;" horiz-adv-x="911" d="M106 1282q0 31 32.5 57.5t70.5 26.5q13 0 47 -6q30 -6 53 -6q21 0 68 6q14 2 29 2q118 -7 192 -12q18 0 100 18q8 2 25 2q61 0 100 -24.5t39 -61.5q0 -43 -35 -92q-25 -31 -75 -31q-33 0 -60 8l-57 11h-43q-8 0 -45 6q-12 2 -33 2q-11 0 -35 -4q-14 -2 -24 -2l-101 8 q-3 0 -16 -9.5t-16 -15.5q-9 -13 -9 -30q0 -5 2 -11v-14q0 -53 -4 -61q-1 -11 -2 -23l-1.5 -18t-0.5 -9q0 -31 15 -51t38 -20q17 0 27 2q47 6 66 6q27 0 67 -6q32 -4 37 -4q13 0 21 2q41 6 47 6l123 -14q25 -6 46 -37.5t21 -61.5q0 -35 -27.5 -65.5t-58.5 -30.5 q-24 0 -67 14q-46 15 -89 15q-45 0 -61 4l-31 6q-32 -4 -69 -4q-36 -2 -68.5 -21t-32.5 -39q0 -3 11 -49q4 -20 4 -33q0 -16 -2 -24q-9 -40 -9 -47l4 -53q-6 -23 -6 -31l4 -76q0 -7 -6 -51q-2 -12 -2 -33q0 -19 2 -29q2 -12 2 -24q0 -15 -2 -23q-2 -6 -2 -16q0 -35 53 -35 q9 0 84 6q3 0 27 -4q57 -10 105 -10q21 0 106 16q34 6 64 6q41 0 76.5 -35.5t35.5 -76.5q0 -32 -32.5 -57t-75.5 -25l-78 2l-74 -2q-22 0 -65 6q-55 8 -78 8q-53 -3 -74 -6q-12 0 -78 -8q-35 -6 -74 -6q-70 0 -102 37q-8 11 -14.5 30t-5.5 29q18 152 18 164q0 14 -2 24 q-8 47 -8 76q0 21 6 51q6 34 6 41q0 122 -12 281q0 3 1 9t3 17.5t4 22.5q8 33 8 55q0 5 -12 183l2 37q6 53 6 83q0 50 -12 97q-11 42 -11 55zM227 1556q0 28 11.5 45.5t42.5 34.5q32 23 100 70l25 25q29 32 41.5 38.5t44.5 6.5q21 0 41.5 -15t54.5 -55q18 -18 22 -20 q22 -15 35 -25q16 -12 23 -19l37 -22q32 -19 32 -59q0 -29 -23.5 -55.5t-51.5 -26.5q-31 0 -72 26q-11 7 -43 54q-13 20 -33 33.5t-35 13.5q-11 0 -19.5 -5t-29.5 -26q-2 -2 -14.5 -12.5t-20.5 -16.5q-6 -4 -16 -16q-44 -47 -78 -47q-25 0 -49.5 24t-24.5 49z" />
<glyph unicode="&#xcb;" horiz-adv-x="911" d="M106 1282q0 31 32.5 57.5t70.5 26.5q13 0 47 -6q30 -6 53 -6q21 0 68 6q14 2 29 2q118 -7 192 -12q18 0 100 18q8 2 25 2q61 0 100 -24.5t39 -61.5q0 -43 -35 -92q-25 -31 -75 -31q-33 0 -60 8l-57 11h-43q-8 0 -45 6q-12 2 -33 2q-11 0 -35 -4q-14 -2 -24 -2l-101 8 q-3 0 -16 -9.5t-16 -15.5q-9 -13 -9 -30q0 -5 2 -11v-14q0 -53 -4 -61q-1 -11 -2 -23l-1.5 -18t-0.5 -9q0 -31 15 -51t38 -20q17 0 27 2q47 6 66 6q27 0 67 -6q32 -4 37 -4q13 0 21 2q41 6 47 6l123 -14q25 -6 46 -37.5t21 -61.5q0 -35 -27.5 -65.5t-58.5 -30.5 q-24 0 -67 14q-46 15 -89 15q-45 0 -61 4l-31 6q-32 -4 -69 -4q-36 -2 -68.5 -21t-32.5 -39q0 -3 11 -49q4 -20 4 -33q0 -16 -2 -24q-9 -40 -9 -47l4 -53q-6 -23 -6 -31l4 -76q0 -7 -6 -51q-2 -12 -2 -33q0 -19 2 -29q2 -12 2 -24q0 -15 -2 -23q-2 -6 -2 -16q0 -35 53 -35 q9 0 84 6q3 0 27 -4q57 -10 105 -10q21 0 106 16q34 6 64 6q41 0 76.5 -35.5t35.5 -76.5q0 -32 -32.5 -57t-75.5 -25l-78 2l-74 -2q-22 0 -65 6q-55 8 -78 8q-53 -3 -74 -6q-12 0 -78 -8q-35 -6 -74 -6q-70 0 -102 37q-8 11 -14.5 30t-5.5 29q18 152 18 164q0 14 -2 24 q-8 47 -8 76q0 21 6 51q6 34 6 41q0 122 -12 281q0 3 1 9t3 17.5t4 22.5q8 33 8 55q0 5 -12 183l2 37q6 53 6 83q0 50 -12 97q-11 42 -11 55zM260 1567q0 18 2 30q2 16 2 43q0 29 5 42.5t20 25.5q33 29 69 29q37 0 61 -23.5t23 -58.5l-2 -41l2 -49q0 -40 -21.5 -63 t-58.5 -23q-54 0 -77 30q-25 37 -25 58zM514 1647q0 38 29 66t69 28q49 0 68.5 -28t19.5 -99q0 -66 -6 -84q-6 -20 -26 -36.5t-37 -16.5q-6 0 -40.5 6t-37.5 8q-32 18 -35 63l-2 37q0 29 -2 56z" />
<glyph unicode="&#xcc;" horiz-adv-x="464" d="M33 1692q0 29 26.5 51t63.5 22q33 0 58.5 -24t58.5 -86q8 -11 18 -21l25 -24q14 -12 25 -35.5t11 -40.5q0 -36 -24 -53q-31 -17 -43 -17q-30 0 -96 66q-37 37 -47 43q-33 28 -54.5 61.5t-21.5 57.5zM121 104q0 5 4 37q12 62 12 123q0 23 -2 39q-6 44 -6 57q0 14 6 64 q4 40 4 57q0 8 -4 70q-2 18 -2 37l2 76l-4 55q0 9 6 39q6 35 6 49q-10 170 -10 227q0 39 4 66q2 16 2 35q0 25 -8 61t-8 74q0 37 31 66.5t71 29.5q43 0 80 -33t37 -71q0 -16 -10 -58q-13 -50 -13 -67q0 -7 3 -19l2 -20l-7 -107q0 -2 1 -7t2.5 -17.5t3.5 -22.5q4 -32 4 -43 q0 -5 -4 -45q-7 -51 -7 -55q0 -84 9 -172q0 -43 -7 -187l5 -61q-7 -144 -7 -174q0 -19 17 -80q6 -21 6 -37q0 -40 -30 -70t-70 -30q-30 0 -61.5 14t-41.5 33q-4 7 -10 31.5t-6 35.5z" />
<glyph unicode="&#xcd;" horiz-adv-x="464" d="M121 104q0 5 4 37q14 54 14 123q0 7 -4 39q-6 44 -6 57q0 20 8 64q4 40 4 57q0 8 -4 70q-2 18 -2 37l2 76l-6 55q0 9 6 39q6 35 6 49q-8 196 -8 227q0 39 2 66q2 16 2 35q0 25 -8 61q-8 39 -8 74q0 37 31 66.5t71 29.5q43 0 80 -33t37 -71q0 -16 -10 -58q-13 -50 -13 -67 q0 -7 3 -19l2 -20l-5 -107q0 -2 1 -8.5t2 -17t2 -21.5q4 -16 4 -43q0 -9 -4 -45q-7 -51 -7 -55q3 -46 5.5 -88t4 -61.5t1.5 -22.5q0 -64 -6 -187l2 -61l-5 -55l3 -60l-3 -59q0 -19 17 -80q6 -21 6 -37q0 -40 -30 -70t-70 -30q-31 0 -63 14t-42 33q-4 7 -10 31.5t-6 35.5z M170 1536q0 31 55 92q34 39 54 76q13 24 36.5 41.5t44.5 19.5q38 3 68.5 -24t30.5 -64q0 -23 -12 -41.5t-44 -46.5l-30 -28q-36 -36 -60 -52q-18 -12 -34 -28q-20 -17 -37 -17q-9 0 -27 9t-29 18q-5 5 -10.5 20.5t-5.5 24.5z" />
<glyph unicode="&#xce;" horiz-adv-x="462" d="M-23 1556q0 28 11.5 45.5t42.5 34.5q32 23 100 70l25 25q29 32 41.5 38.5t44.5 6.5q21 0 41.5 -15t54.5 -55q18 -18 22 -20q23 -15 35 -25q16 -12 23 -19l37 -22q32 -19 32 -59q0 -29 -23.5 -55.5t-51.5 -26.5q-31 0 -72 26q-11 7 -43 54q-13 20 -33 33.5t-35 13.5 q-11 0 -19.5 -5t-29.5 -26q-2 -2 -14.5 -12.5t-20.5 -16.5q-6 -4 -16 -16q-44 -47 -78 -47q-25 0 -49.5 24t-24.5 49zM121 104q0 5 4 37q14 54 14 123q0 7 -4 39q-6 44 -6 57q0 20 8 64q4 40 4 57q0 8 -4 70q-2 18 -2 37l2 76l-4 55q0 9 6 39q6 35 6 49q-10 170 -10 227 q0 39 4 66q2 16 2 35q0 25 -8 61q-10 45 -10 74q0 37 31.5 66.5t72.5 29.5q43 0 80 -33t37 -71q0 -16 -10 -58q-12 -46 -12 -67q0 -11 2 -19l2 -20l-7 -107q0 -2 1 -7t2.5 -17.5t3.5 -22.5q4 -32 4 -43q0 -5 -4 -45q-7 -51 -7 -55q0 -84 9 -172q0 -64 -6 -187l2 -61l-5 -55 l3 -60l-3 -59q0 -19 17 -80q6 -21 6 -37q0 -40 -30 -70t-70 -30q-31 0 -63 14t-42 33q-4 7 -10 31.5t-6 35.5z" />
<glyph unicode="&#xcf;" horiz-adv-x="464" d="M29 1567q0 18 2 30l2 43q0 31 3.5 43.5t16.5 24.5q29 29 62 29q35 1 60.5 -23.5t23.5 -58.5l-6 -125q-7 -23 -28.5 -37t-47.5 -14q-48 0 -66 30q-22 37 -22 58zM121 104q0 5 4 37q14 54 14 123q0 7 -4 39q-6 44 -6 57q0 20 8 64q4 40 4 57q0 8 -4 70q-2 18 -2 37l2 76 l-4 55q0 9 6 39q6 35 6 49q-10 170 -10 227q0 39 4 66q2 16 2 35q0 25 -8 61t-8 74q0 37 31 66.5t71 29.5q43 0 80 -33t37 -71q0 -16 -10 -58q-12 -46 -12 -67q0 -11 2 -19l2 -20l-7 -107q0 -2 1 -7t2.5 -17.5t3.5 -22.5q4 -32 4 -43q0 -5 -4 -45q-7 -51 -7 -55 q0 -84 9 -172q0 -64 -6 -187l4 -61l-7 -55l3 -60l-3 -59q0 -17 17 -80q6 -21 6 -37q0 -40 -30 -70t-70 -30q-31 0 -63 14t-42 33q-4 7 -10 31.5t-6 35.5zM262 1645q0 40 29 68t69 28q51 0 66 -43q4 -22 10 -101q3 -56 -17 -90t-52 -28q-54 9 -64.5 12.5t-19.5 15.5 q-19 24 -19 74q0 39 -2 64z" />
<glyph unicode="&#xd0;" horiz-adv-x="1218" d="M0 709q0 29 21 51t49 22h14l26 -2t20.5 -1.5t10.5 -0.5q54 0 54 43q0 47 -5 97q-2 20 -2 36l2 31l-2 102l2 70q0 2 -10 64q-4 32 -4 45q0 46 30.5 71t84.5 25q37 0 149 -8h56q59 -1 91 -8t175 -46q112 -29 235 -167q70 -79 119 -205.5t49 -227.5q0 -184 -51 -303 q-27 -68 -67 -120t-119 -127q-21 -18 -71 -49t-85 -48q-34 -17 -101.5 -34.5t-111.5 -22.5q-12 0 -123 -2q-27 -2 -160 -8q-42 0 -70 27t-28 67q0 17 10 102q2 18 2 58q0 21 -4 79q-2 12 -2 27q0 17 2 33q4 4 4 92l3 64q2 14 2 34q0 29 -21 41q-4 2 -49 6q-3 0 -14 2t-19 3 l-35 -3q-23 0 -40 27.5t-17 63.5zM375 801q0 -7 6 -13t12 -6l27 2q1 0 15.5 -1t43 -3t53.5 -4q18 0 48 6q8 2 18 2q8 0 16 -2t17 -2l74 4q19 1 41 -28.5t22 -55.5q0 -13 -8.5 -36t-16.5 -31q-19 -19 -55 -19q-17 0 -29 2q-14 2 -36 2l-23 -2l-27 -6l-57 6l-49 -2l-51 2 q-14 0 -22.5 -11t-8.5 -30v-16q2 -10 2 -27t-4 -75q-2 -14 -2 -27l2 -80l-2 -41q0 -107 8 -123q4 -9 39 -15.5t78 -6.5q19 0 82 14t78 21q76 37 144 104.5t97 136.5q66 155 66 236q0 66 -30 147t-83 156q-24 33 -60 70.5t-57 50.5q-68 43 -115.5 60t-109.5 20q-25 2 -47 2 q-18 4 -39 4q-22 -2 -37.5 -15t-15.5 -30l4 -99l-4 -28q-2 -10 -2 -23q0 -11 10 -94q-10 -82 -12 -96z" />
<glyph unicode="&#xd1;" horiz-adv-x="1230" d="M106 1284q0 31 34 56.5t77 25.5q41 0 69 -28t79 -121q29 -54 94 -136q33 -42 63 -98q3 -5 11 -19t14 -24l35 -41q3 -4 10.5 -17t11.5 -18q19 -39 29 -49q1 -2 14 -16.5t19 -22.5q10 -10 28 -51q19 -40 29 -53q15 -15 33 -41q11 -11 16 -21l25 -49q2 -2 5.5 -6.5t11.5 -15 t15 -19.5q29 -36 48 -76q20 -36 22 -38q4 -6 8.5 -12.5t7 -10t3.5 -4.5q4 -14 8 -14l4 -5l2 -2q8 11 8 17q0 17 -6 35q-6 24 -6 32l4 54l-6 43l4 69q0 1 -0.5 4.5t-1.5 10t-2 12.5l-2 31q0 38 6 63l2 21q0 3 -0.5 7.5l-1.5 13.5t-2 17q-8 48 -8 84q0 6 4 46t4 51q0 26 -6 61 q-1 5 -2 10.5t-1.5 8.5t-0.5 4l8 114q0 1 -1 6q-6 29 -18 91q-2 8 -2 16q0 35 32 58.5t79 23.5q46 0 76 -26t30 -66q0 -17 -10 -72q-8 -48 -8 -55l2 -70q0 -10 -2 -20q-6 -35 -6 -39l6 -103q0 -10 -2 -22t-2 -31q0 -25 2 -39q6 -50 6 -55l-2 -82l4 -82q0 -8 -6 -57 q-2 -12 -2 -31q0 -14 8 -82l-6 -88l8 -94q0 -3 -0.5 -7t-1.5 -11t-2 -13q-4 -32 -4 -33q0 -14 10 -59q6 -24 6 -43q0 -34 -22 -60t-51 -26q-28 0 -59.5 10.5t-43.5 24.5q-12 11 -25 30.5t-81 128.5q-8 13 -16.5 26.5t-13 21t-5.5 8.5l-33 39q-14 21 -37 59q-15 25 -35 49 q-28 39 -30 41q-9 21 -19 41l-14 29q-14 31 -23 37q-12 14 -39 41l-36 67q0 1 -35 45l-31 45l-25 43q-4 4 -24 29q-10 10 -31 51q-3 6 -33 51q-16 24 -28 48q-2 6 -5 11t-6 8t-4 3l-6 6l-4 4l-4 -4l-4 -4q-6 -6 -6 -8q6 -29 6 -43q0 -15 4 -43q2 -14 2 -39q0 -51 2 -55 l2 -68q0 -9 -4 -37q-2 -6 -2 -14t2 -12q6 -38 6 -50q0 -20 -4 -36q-2 -14 -2 -31q0 -15 2 -23q2 -12 2 -22q0 -4 -10 -78q-2 -12 -2 -23q0 -2 4 -30q8 -31 8 -56q0 -3 -0.5 -8t-1.5 -15.5t-2 -19.5q-2 -14 -2 -36q0 -34 21 -123q2 -8 2 -23q0 -21 -5.5 -42t-11.5 -27 q-12 -12 -38 -20.5t-50 -8.5q-48 0 -75 29t-27 81q0 34 10 91q8 33 8 47q0 3 -10 61q-2 12 -2 37q0 21 2 35q1 10 2 19.5t1.5 14.5t0.5 7q0 102 -6 194l6 64l-6 86q0 14 2 26q6 40 6 62q0 27 -2 47q-8 63 -8 147q0 36 6 74q2 6 2 17q0 2 -14 96q-9 43 -9 55zM352 1563 q0 22 9.5 57.5t17.5 48.5q15 20 45 33.5t59 13.5q24 0 105 -22q9 -2 47 -17q6 -4 55 -20q30 -10 43 -10q10 0 14 5t13 27q12 29 51 29q32 0 51.5 -19.5t16.5 -48.5q-9 -84 -11 -88q-13 -38 -36.5 -54.5t-63.5 -16.5q-47 0 -92 18l-78 35l-66 20l-20 5q-20 0 -27 -33 q-6 -28 -17.5 -37.5t-37.5 -9.5q-37 0 -57.5 22t-20.5 62z" />
<glyph unicode="&#xd2;" horiz-adv-x="1306" d="M53 762q0 102 25 182q2 2 18 39q7 14 23 61q15 45 77 120t115 112q76 52 159.5 81t156.5 29q108 0 174.5 -17.5t154.5 -68.5q52 -30 69.5 -46t53.5 -64l68 -88q59 -122 82.5 -206t23.5 -171q0 -29 -2 -45q-2 -35 -2 -66l2 -28q2 -30 -11 -96.5t-26 -98.5 q-36 -83 -53.5 -114.5t-42.5 -63.5q-68 -83 -101.5 -111t-111.5 -65q-69 -34 -118 -47t-107 -13q-84 0 -136 10.5t-120 39.5q-64 28 -94 48.5t-86 76.5q-30 30 -40 44t-40 70q-22 36 -39 70q-10 32 -19.5 58.5t-13.5 37.5q-22 65 -26 88t-7 90q-6 114 -6 152zM238 721 q6 -68 8 -121q1 -27 17.5 -90.5t27.5 -87.5q52 -97 76.5 -132t66.5 -71q19 -15 71 -36.5t75 -22.5q82 -6 90 -6q92 0 172 55l65 45q39 41 65.5 81.5t55.5 104.5q20 42 25.5 72.5t7.5 93.5v74l2 20v23q0 44 -29 180q-6 30 -30 79t-46 75q-45 53 -74.5 78.5t-76.5 52.5 q-68 35 -145 35q-81 0 -170 -45q-62 -29 -118 -84.5t-87 -116.5q-11 -24 -23.5 -69t-15.5 -72zM455 1692q0 31 26.5 52t63.5 21q34 0 59.5 -23.5t59.5 -86.5l16 -21q12 -12 27 -24q13 -12 24.5 -36.5t11.5 -39.5q0 -36 -24 -53q-31 -17 -43 -17q-32 0 -98 66q-34 34 -46 43 q-34 28 -55.5 61t-21.5 58z" />
<glyph unicode="&#xd3;" horiz-adv-x="1306" d="M53 762q0 102 25 182q2 2 18 39q7 14 23 61q15 45 77 120t115 112q76 52 159.5 81t156.5 29q108 0 174.5 -17.5t154.5 -68.5q52 -30 69.5 -46t53.5 -64l68 -88q59 -122 82.5 -206t23.5 -171q0 -29 -2 -45q-2 -35 -2 -66l2 -28q2 -30 -11 -96.5t-26 -98.5 q-36 -83 -53.5 -114.5t-42.5 -63.5q-68 -83 -101.5 -111t-111.5 -65q-69 -34 -118 -47t-107 -13q-84 0 -136 10.5t-120 39.5q-64 28 -94 48.5t-86 76.5q-30 30 -40 44t-40 70q-22 36 -39 70q-10 32 -19.5 58.5t-13.5 37.5q-22 65 -26 88t-7 90q-6 114 -6 152zM238 721 q6 -68 8 -121q1 -27 17.5 -90.5t27.5 -87.5q52 -97 76.5 -132t66.5 -71q19 -15 71 -36.5t75 -22.5q82 -6 90 -6q92 0 172 55l65 45q39 41 65.5 81.5t55.5 104.5q20 42 25.5 72.5t7.5 93.5v74l2 20v23q0 44 -29 180q-6 30 -30 79t-46 75q-45 53 -74.5 78.5t-76.5 52.5 q-68 35 -145 35q-81 0 -170 -45q-62 -29 -118 -84.5t-87 -116.5q-11 -24 -23.5 -69t-15.5 -72zM592 1536q0 31 55 92q31 35 53 76q13 24 37 41.5t45 19.5q38 3 68.5 -24t30.5 -64q0 -23 -12 -41.5t-44 -46.5l-30 -28q-36 -36 -60 -52q-21 -14 -35 -28q-20 -17 -36 -17 q-9 0 -27 9t-29 18q-5 5 -10.5 20.5t-5.5 24.5z" />
<glyph unicode="&#xd4;" horiz-adv-x="1306" d="M53 762q0 102 25 182q2 2 18 39q7 14 23 61q15 45 77 120t115 112q76 52 159.5 81t156.5 29q108 0 174.5 -17.5t154.5 -68.5q52 -30 69.5 -46t53.5 -64l68 -88q59 -122 82.5 -206t23.5 -171q0 -29 -2 -45q-2 -35 -2 -66l2 -28q2 -30 -11 -96.5t-26 -98.5 q-36 -83 -53.5 -114.5t-42.5 -63.5q-68 -83 -101.5 -111t-111.5 -65q-69 -34 -118 -47t-107 -13q-84 0 -136 10.5t-120 39.5q-64 28 -94 48.5t-86 76.5q-30 30 -40 44t-40 70q-22 36 -39 70q-10 32 -19.5 58.5t-13.5 37.5q-22 65 -26 88t-7 90q-6 114 -6 152zM238 721 q6 -68 8 -121q1 -27 17.5 -90.5t27.5 -87.5q52 -97 76.5 -132t66.5 -71q19 -15 71 -36.5t75 -22.5q82 -6 90 -6q92 0 172 55l65 45q39 41 65.5 81.5t55.5 104.5q20 42 25.5 72.5t7.5 93.5v74l2 20v23q0 44 -29 180q-6 30 -30 79t-46 75q-45 53 -74.5 78.5t-76.5 52.5 q-68 35 -145 35q-81 0 -170 -45q-62 -29 -118 -84.5t-87 -116.5q-11 -24 -23.5 -69t-15.5 -72zM399 1556q0 28 11.5 45.5t42.5 34.5q32 23 100 70q1 1 5.5 5t10 9.5t9.5 10.5q29 32 41.5 38.5t44.5 6.5q21 0 41.5 -15t54.5 -55q18 -18 22 -20q22 -15 35 -25q16 -12 23 -19 l37 -22q32 -19 32 -59q0 -29 -23.5 -55.5t-51.5 -26.5q-31 0 -72 26q-11 7 -43 54q-13 20 -33 33.5t-35 13.5q-11 0 -19.5 -5t-29.5 -26q-2 -2 -14.5 -12.5t-20.5 -16.5q-6 -4 -16 -16q-44 -47 -78 -47q-25 0 -49.5 24t-24.5 49z" />
<glyph unicode="&#xd5;" horiz-adv-x="1306" d="M53 762q0 102 25 182q2 2 18 39q7 14 23 61q15 45 77 120t115 112q76 52 159.5 81t156.5 29q108 0 174.5 -17.5t154.5 -68.5q52 -30 69.5 -46t53.5 -64l68 -88q59 -122 82.5 -206t23.5 -171q0 -29 -2 -45q-2 -35 -2 -66l2 -28q2 -30 -11 -96.5t-26 -98.5 q-36 -83 -53.5 -114.5t-42.5 -63.5q-68 -83 -101.5 -111t-111.5 -65q-69 -34 -118 -47t-107 -13q-84 0 -136 10.5t-120 39.5q-64 28 -94 48.5t-86 76.5q-30 30 -40 44t-40 70q-22 36 -39 70q-10 32 -19.5 58.5t-13.5 37.5q-22 65 -26 88t-7 90q-6 114 -6 152zM238 721 q6 -68 8 -121q1 -27 17.5 -90.5t27.5 -87.5q52 -97 76.5 -132t66.5 -71q19 -15 71 -36.5t75 -22.5q82 -6 90 -6q92 0 172 55l65 45q39 41 65.5 81.5t55.5 104.5q20 42 25.5 72.5t7.5 93.5v74l2 20v23q0 44 -29 180q-6 30 -30 79t-46 75q-45 53 -74.5 78.5t-76.5 52.5 q-68 35 -145 35q-81 0 -170 -45q-62 -29 -118 -84.5t-87 -116.5q-11 -24 -23.5 -69t-15.5 -72zM391 1563q0 22 9.5 57.5t17.5 48.5q15 20 45 33.5t59 13.5q24 0 105 -22q9 -2 47 -17q6 -4 55 -20q30 -10 43 -10q10 0 14 5t13 27q12 29 51 29q32 0 51.5 -19.5t16.5 -48.5 q-9 -84 -11 -88q-13 -38 -36.5 -54.5t-63.5 -16.5q-47 0 -92 18l-78 35l-66 20l-20 5q-20 0 -27 -33q-6 -28 -17.5 -37.5t-37.5 -9.5q-37 0 -57.5 22t-20.5 62z" />
<glyph unicode="&#xd6;" horiz-adv-x="1306" d="M53 762q0 102 25 182q2 2 18 39q7 14 23 61q15 45 77 120t115 112q76 52 159.5 81t156.5 29q108 0 174.5 -17.5t154.5 -68.5q52 -30 69.5 -46t53.5 -64l68 -88q59 -122 82.5 -206t23.5 -171q0 -29 -2 -45q-2 -35 -2 -66l2 -28q2 -30 -11 -96.5t-26 -98.5 q-36 -83 -53.5 -114.5t-42.5 -63.5q-68 -83 -101.5 -111t-111.5 -65q-69 -34 -118 -47t-107 -13q-84 0 -136 10.5t-120 39.5q-64 28 -94 48.5t-86 76.5q-30 30 -40 44t-40 70q-22 36 -39 70q-10 32 -19.5 58.5t-13.5 37.5q-22 65 -26 88t-7 90q-6 114 -6 152zM238 721 q6 -68 8 -121q1 -27 17.5 -90.5t27.5 -87.5q52 -97 76.5 -132t66.5 -71q19 -15 71 -36.5t75 -22.5q82 -6 90 -6q92 0 172 55l65 45q39 41 65.5 81.5t55.5 104.5q20 42 25.5 72.5t7.5 93.5v74l2 20v23q0 44 -29 180q-6 30 -30 79t-46 75q-45 53 -74.5 78.5t-76.5 52.5 q-68 35 -145 35q-81 0 -170 -45q-62 -29 -118 -84.5t-87 -116.5q-11 -24 -23.5 -69t-15.5 -72zM432 1567q0 18 2 30q2 16 2 43q0 29 5 42.5t20 25.5q33 29 69 29q37 0 61 -23.5t23 -58.5l-2 -41l2 -49q0 -40 -21 -63t-58 -23q-55 0 -78 30q-25 37 -25 58zM686 1647 q0 38 29 66t69 28q49 0 68.5 -28t19.5 -99q0 -66 -6 -84q-6 -20 -26 -36.5t-37 -16.5q-6 0 -40.5 6t-37.5 8q-32 18 -35 63l-2 37q0 29 -2 56z" />
<glyph unicode="&#xd7;" d="M127 391q0 23 23 53l12 13q5 5 22 28q14 18 22 25.5t38 32.5q52 44 95.5 94t43.5 65q0 9 -45 78q-8 10 -43 41q-10 6 -39 43q-8 10 -45 37q-1 1 -6.5 7t-18.5 20t-28 30q-31 34 -31 62q0 34 30 64t64 30q31 0 68 -37q38 -40 67 -63q12 -8 33 -33q18 -29 29 -37 q39 -35 74 -74q26 -26 45 -26q15 0 43 20q19 14 27.5 25t47.5 72q8 11 43 36q39 28 45 37q21 24 39 45q32 37 68 37q32 0 63 -31t31 -63q0 -30 -35 -68q-30 -30 -61 -57q-27 -23 -51 -47q-34 -34 -49 -47q-9 -9 -43 -58q-31 -39 -31 -49q0 -15 43 -49q24 -18 69 -63 q46 -44 64 -68q8 -9 59 -57q35 -35 35 -70q0 -32 -30 -62t-64 -30q-44 0 -109 78q-8 10 -17.5 21t-14 16t-4.5 6l-50 35q-5 0 -37 47q-17 25 -41.5 43t-39.5 18q-10 0 -42.5 -26t-66.5 -62q-26 -26 -51 -49q-24 -21 -49 -49q-43 -47 -64 -62.5t-43 -15.5q-32 0 -63 31 t-31 63z" />
<glyph unicode="&#xd8;" horiz-adv-x="1306" d="M37 115q0 39 59 86q60 46 60 73q0 24 -25 72q-31 64 -53.5 175t-22.5 204q0 135 43 268q35 114 187 254q69 65 166.5 101t203.5 36q105 0 187.5 -27.5t158.5 -88.5q15 -11 19 -11q6 0 13.5 9.5t45.5 64.5q16 23 51 23q41 0 74 -29.5t33 -67.5q0 -52 -59 -92 q-35 -22 -35 -35q0 -12 10 -32q31 -53 39.5 -73.5t21.5 -78.5q23 -98 30 -157.5t7 -172.5q0 -55 -4 -82.5t-24 -115.5q-12 -54 -29.5 -88.5t-65.5 -100.5q-64 -84 -104 -119.5t-113 -68.5q-144 -66 -229 -66q-12 0 -80 7q-16 4 -35 4q-32 2 -61 8q-116 53 -144.5 69 t-72.5 50q-12 8 -21 8q-8 0 -16.5 -10t-52.5 -72q-20 -27 -60 -27q-38 0 -70 32.5t-32 70.5zM229 723q0 -11 4 -39q2 -14 5 -29t4.5 -22t1.5 -10v-66q1 -2 6.5 -17.5t7.5 -23.5q3 -8 6 -45q6 -64 27 -61q8 2 17 11.5t36 45.5q3 3 51 59q37 37 39 41l66 84q46 42 82 84 q25 25 55 68q5 11 37 39l39 39q13 20 39 53q4 6 10.5 14t7.5 10q38 33 66 68q15 21 55 61q16 21 16 29q0 15 -15 29.5t-54 34.5q-74 37 -90 39l-113 8q-69 -4 -199 -72q-24 -12 -55.5 -43.5t-52.5 -64.5q-3 -6 -31 -46q-25 -38 -33 -59.5t-18 -87.5q-17 -104 -17 -131z M395 260q1 -18 37 -45.5t82 -48.5q23 -8 73.5 -17.5t74.5 -9.5q34 0 91 16t83 33q60 37 95.5 74.5t76.5 104.5q29 47 35.5 64t15.5 71q4 30 8.5 57.5t6 38.5t1.5 12q-6 146 -10 158q-3 16 -6 57q-4 30 -27 123q-10 27 -24 27q-12 0 -29 -23q-26 -36 -51 -61q-18 -18 -37 -45 q-23 -32 -47 -53q-1 -2 -41 -52q-1 -2 -5.5 -6.5t-14 -13.5t-17.5 -19q-6 -7 -41 -53q-7 -8 -23 -25t-24 -26q-31 -27 -47 -47q-36 -48 -51 -59q-28 -24 -39 -37q-15 -20 -35 -52q0 -3 -31 -34q-83 -86 -80 -109z" />
<glyph unicode="&#xd9;" horiz-adv-x="1167" d="M106 1280q0 39 32 66.5t77 27.5q46 0 78.5 -28.5t32.5 -69.5q0 -12 -11 -111q-1 -9 -2 -19.5t-1.5 -15.5t-0.5 -8q0 -12 2 -24q2 -8 2 -21q0 -14 -2 -24l-2 -14l-1.5 -10.5t-0.5 -4.5q13 -80 13 -104q-8 -80 -13 -103q2 -22 3.5 -50.5t2.5 -35.5q0 -23 7 -59q4 -28 4 -35 q0 -13 -2 -23q-9 -64 -9 -94q0 -2 0.5 -9t1.5 -22l2 -30q0 -21 3 -64q2 -80 16.5 -121t52.5 -69q28 -19 87.5 -33t111.5 -14q45 0 93 15.5t75 39.5q12 11 39 48.5t30 49.5q6 18 14.5 56.5t8.5 44.5l-4 71l2 45l-2 127v45q0 50 2 68q2 27 2 49q0 25 -6 74q-2 12 -2 27 q0 6 4 30q2 12 4 23.5t3 17t1 6.5l-8 92q0 13 2 29q2 8 2 21q0 18 -8 82q-8 39 -8 59q0 34 38 64t82 30q35 0 66 -30.5t31 -65.5q0 -32 -19 -168q0 -14 8 -55q2 -12 2 -31q0 -15 -4 -51q-8 -41 -8 -56q0 -145 14 -245q0 -7 -6 -31q-8 -33 -8 -59q0 -12 6 -52q2 -14 2 -39 q0 -18 -2 -34q-2 -18 -2 -41q0 -28 6 -58l2 -18l-8 -98q25 -147 25 -162q0 -31 -29 -52.5t-72 -21.5q-37 0 -62 19t-24 45q0 14 2 22v12q-62 -48 -95.5 -67t-65.5 -23q-64 -10 -78 -14q-33 -8 -68 -8q-25 0 -168 20q-56 7 -118 49.5t-93 94.5q-15 26 -35 89t-20 83q0 8 2 14 q4 24 4 25q0 20 -8 53q-6 27 -6 53q0 5 4 51q2 14 2 25l-8 180q0 1 0.5 4.5t1.5 10t2 12.5q10 62 10 178q0 3 -0.5 8.5l-1.5 16.5t-2 20q-2 12 -2 27q0 6 4 34q2 14 2 25q-12 112 -18 135q-13 54 -13 82zM385 1692q0 29 26.5 51t63.5 22q33 0 58.5 -24t58.5 -86 q8 -11 18 -21l25 -24q14 -12 25.5 -35.5t11.5 -40.5q0 -35 -25 -53q-31 -17 -43 -17q-30 0 -96 66q-37 37 -47 43q-33 28 -54.5 61.5t-21.5 57.5z" />
<glyph unicode="&#xda;" horiz-adv-x="1167" d="M106 1280q0 39 32 66.5t77 27.5q46 0 78.5 -28.5t32.5 -69.5q0 -12 -11 -111q-1 -9 -2 -19.5t-1.5 -15.5t-0.5 -8q0 -12 2 -24q2 -8 2 -21q0 -14 -2 -24l-2 -14l-1.5 -10.5t-0.5 -4.5q13 -80 13 -104q-8 -80 -13 -103q2 -22 3.5 -50.5t2.5 -35.5q0 -23 7 -59q4 -28 4 -35 q0 -13 -2 -23q-9 -64 -9 -94q0 -2 0.5 -9t1.5 -22l2 -30q0 -21 3 -64q2 -80 16.5 -121t52.5 -69q28 -19 87.5 -33t111.5 -14q45 0 93 15.5t75 39.5q12 11 39 48.5t30 49.5q6 18 14.5 56.5t8.5 44.5l-4 71l2 45l-2 127v45q0 50 2 68q2 27 2 49q0 25 -6 74q-2 12 -2 27 q0 6 4 30q2 12 4 23.5t3 17t1 6.5l-8 92q0 13 2 29q2 8 2 21q0 18 -8 82q-8 39 -8 59q0 34 38 64t82 30q35 0 66 -30.5t31 -65.5q0 -32 -19 -168q0 -14 8 -55q2 -12 2 -31q0 -15 -4 -51q-8 -41 -8 -56q0 -145 14 -245q0 -7 -6 -31q-8 -33 -8 -59q0 -12 6 -52q2 -14 2 -39 q0 -18 -2 -34q-2 -18 -2 -41q0 -28 6 -58l2 -18l-8 -98q25 -147 25 -162q0 -31 -29 -52.5t-72 -21.5q-37 0 -62 19t-24 45q0 14 2 22v12q-62 -48 -95.5 -67t-65.5 -23q-64 -10 -78 -14q-33 -8 -68 -8q-25 0 -168 20q-56 7 -118 49.5t-93 94.5q-15 26 -35 89t-20 83q0 8 2 14 q4 24 4 25q0 20 -8 53q-6 27 -6 53q0 5 4 51q2 14 2 25l-8 180q0 1 0.5 4.5t1.5 10t2 12.5q10 62 10 178q0 3 -0.5 8.5l-1.5 16.5t-2 20q-2 12 -2 27q0 6 4 34q2 14 2 25q-12 112 -18 135q-13 54 -13 82zM522 1536q0 30 56 92q31 35 53 76q12 24 35.5 41.5t44.5 19.5 q38 3 68 -24t30 -64q0 -23 -11.5 -41.5t-43.5 -46.5q-10 -10 -31 -28q-30 -32 -57 -52q-22 -15 -37 -28q-17 -17 -35 -17q-9 0 -26.5 9t-28.5 18q-5 5 -11 21.5t-6 23.5z" />
<glyph unicode="&#xdb;" horiz-adv-x="1167" d="M106 1280q0 39 32 66.5t77 27.5q46 0 78.5 -28.5t32.5 -69.5q0 -12 -11 -111q-1 -9 -2 -19.5t-1.5 -15.5t-0.5 -8q0 -12 2 -24q2 -8 2 -21q0 -14 -2 -24l-2 -14l-1.5 -10.5t-0.5 -4.5q13 -80 13 -104q-8 -80 -13 -103q2 -22 3.5 -50.5t2.5 -35.5q0 -23 7 -59q4 -28 4 -35 q0 -13 -2 -23q-9 -64 -9 -94q0 -2 0.5 -9t1.5 -22l2 -30q0 -21 3 -64q2 -80 16.5 -121t52.5 -69q28 -19 87.5 -33t111.5 -14q45 0 93 15.5t75 39.5q12 11 39 48.5t30 49.5q6 18 14.5 56.5t8.5 44.5l-4 71l2 45l-2 127v45q0 50 2 68q2 27 2 49q0 25 -6 74q-2 12 -2 27 q0 6 4 30q2 12 4 23.5t3 17t1 6.5l-8 92q0 13 2 29q2 8 2 21q0 18 -8 82q-8 39 -8 59q0 34 38 64t82 30q35 0 66 -30.5t31 -65.5q0 -32 -19 -168q0 -14 8 -55q2 -12 2 -31q0 -15 -4 -51q-8 -41 -8 -56q0 -145 14 -245q0 -7 -6 -31q-8 -33 -8 -59q0 -12 6 -52q2 -14 2 -39 q0 -18 -2 -34q-2 -18 -2 -41q0 -28 6 -58l2 -18l-8 -98q25 -147 25 -162q0 -31 -29 -52.5t-72 -21.5q-37 0 -62 19t-24 45q0 14 2 22v12q-62 -48 -95.5 -67t-65.5 -23q-64 -10 -78 -14q-33 -8 -68 -8q-25 0 -168 20q-56 7 -118 49.5t-93 94.5q-15 26 -35 89t-20 83q0 8 2 14 q4 24 4 25q0 20 -8 53q-6 27 -6 53q0 5 4 51q2 14 2 25l-8 180q0 1 0.5 4.5t1.5 10t2 12.5q10 62 10 178q0 3 -0.5 8.5l-1.5 16.5t-2 20q-2 12 -2 27q0 6 4 34q2 14 2 25q-12 112 -18 135q-13 54 -13 82zM328 1556q0 28 11.5 45.5t41.5 34.5q14 8 53 37l47 33q7 4 25 25 q29 32 41.5 38.5t44.5 6.5q23 0 42.5 -14t55.5 -56q19 -19 21 -20l37 -25q12 -9 22 -19l37 -22q33 -20 33 -59q0 -29 -24 -55.5t-52 -26.5q-31 0 -72 26q-10 6 -15 12.5t-28 41.5q-13 20 -33.5 33.5t-35.5 13.5q-11 0 -19 -5t-31 -26q-14 -14 -32 -29q-10 -5 -19 -16 q-41 -47 -78 -47q-25 0 -49 24t-24 49z" />
<glyph unicode="&#xdc;" horiz-adv-x="1167" d="M106 1280q0 39 32 66.5t77 27.5q46 0 78.5 -28.5t32.5 -69.5q0 -12 -11 -111q-1 -9 -2 -19.5t-1.5 -15.5t-0.5 -8q0 -12 2 -24q2 -8 2 -21q0 -14 -2 -24l-2 -14l-1.5 -10.5t-0.5 -4.5q13 -80 13 -104q-8 -80 -13 -103q2 -22 3.5 -50.5t2.5 -35.5q0 -23 7 -59q4 -28 4 -35 q0 -13 -2 -23q-9 -64 -9 -94q0 -2 0.5 -9t1.5 -22l2 -30q0 -21 3 -64q2 -80 16.5 -121t52.5 -69q28 -19 87.5 -33t111.5 -14q45 0 93 15.5t75 39.5q12 11 39 48.5t30 49.5q6 18 14.5 56.5t8.5 44.5l-4 71l2 45l-2 127v45q0 50 2 68q2 27 2 49q0 25 -6 74q-2 12 -2 27 q0 6 4 30q2 12 4 23.5t3 17t1 6.5l-8 92q0 13 2 29q2 8 2 21q0 18 -8 82q-8 39 -8 59q0 34 38 64t82 30q35 0 66 -30.5t31 -65.5q0 -32 -19 -168q0 -14 8 -55q2 -12 2 -31q0 -15 -4 -51q-8 -41 -8 -56q0 -145 14 -245q0 -7 -6 -31q-8 -33 -8 -59q0 -12 6 -52q2 -14 2 -39 q0 -18 -2 -34q-2 -18 -2 -41q0 -28 6 -58l2 -18l-8 -98q25 -147 25 -162q0 -31 -29 -52.5t-72 -21.5q-37 0 -62 19t-24 45q0 14 2 22v12q-62 -48 -95.5 -67t-65.5 -23q-64 -10 -78 -14q-33 -8 -68 -8q-25 0 -168 20q-56 7 -118 49.5t-93 94.5q-15 26 -35 89t-20 83q0 8 2 14 q4 24 4 25q0 20 -8 53q-6 27 -6 53q0 5 4 51q2 14 2 25l-8 180q0 1 0.5 4.5t1.5 10t2 12.5q10 62 10 178q0 3 -0.5 8.5l-1.5 16.5t-2 20q-2 12 -2 27q0 6 4 34q2 14 2 25q-12 112 -18 135q-13 54 -13 82zM362 1567q0 12 3 30q2 16 2 43q0 30 4.5 43t19.5 25q33 29 70 29 t61 -23.5t23 -58.5l-2 -41l2 -49q0 -40 -21.5 -63t-58.5 -23q-55 0 -78 30q-25 37 -25 58zM616 1647q0 38 29.5 66t69.5 28q49 0 68.5 -28t19.5 -99q0 -66 -6 -84q-6 -20 -26 -36.5t-38 -16.5q-6 0 -40.5 6t-37.5 8q-31 17 -34 63l-3 37q0 29 -2 56z" />
<glyph unicode="&#xdd;" horiz-adv-x="872" d="M2 1286q0 34 29.5 58t70.5 24q73 0 117 -57q8 -11 11 -20t10 -46q6 -22 32 -59q17 -22 31 -58q2 -5 33 -49q26 -35 61 -106q13 -21 25 -21t38.5 32t49.5 75q0 1 20 39q32 41 41 59l9 17l28 38q17 33 29 66q41 92 135 92q37 0 67 -33t29 -71q-3 -45 -69 -117 q-36 -41 -37 -43q-24 -38 -31 -51l-37 -45q-1 -1 -4.5 -6.5t-10.5 -17.5t-15 -23q-12 -23 -82 -115q-44 -57 -57.5 -83t-16.5 -63v-67q0 -12 -4 -84q0 -89 6 -156l-6 -57l4 -49l-2 -78q0 -25 14 -111q2 -12 2 -28q0 -37 -29 -60.5t-73 -23.5q-54 0 -83.5 26.5t-29.5 73.5 q0 36 6 76q9 56 9 82q0 15 -7 59q-1 9 -2 19.5t-1.5 15.5t-0.5 8q0 1 1 11t3 31l4 42q3 15 3 29q0 16 -3 37q-6 52 -6 61l4 74l-8 90q-1 53 -9.5 76t-41.5 63q-22 25 -22 29l-37 74q-8 20 -39 59q-31 43 -39 59q-14 27 -39 68q-7 12 -29 41q-34 43 -42.5 58.5t-8.5 35.5z M373 1536q0 31 55 92q31 35 53 76q13 24 37 41.5t45 19.5q38 3 68.5 -24t30.5 -64q0 -23 -12 -41.5t-44 -46.5l-31 -28q-38 -38 -59 -52t-35 -28q-20 -17 -37 -17q-9 0 -26.5 9t-28.5 18q-5 5 -10.5 20.5t-5.5 24.5z" />
<glyph unicode="&#xde;" horiz-adv-x="706" d="M2 78q0 6 12 139q2 18 2 35q0 7 -4 47q-6 30 -6 45q0 28 12 84q2 10 2 23q0 10 -2 20q-4 28 -4 45q-2 29 -2 51l-4 37q0 10 10 68q5 45 5 47q0 7 -1 17t-2 24.5t-2 25.5q-1 8 -2 17t-1.5 14t-0.5 8q0 91 9 217q-14 190 -15 207q0 86 29 109q9 9 16 11t33 5q31 2 64 2 q51 -6 51 -82l-2 -180q0 -14 16.5 -25.5t36.5 -11.5q9 0 59 4q10 2 21 2q103 0 172.5 -27t120.5 -87q16 -20 38 -61.5t29 -67.5q7 -43 17 -146q0 -32 -21 -90t-43 -84q-41 -49 -54 -59q-3 -3 -11 -8q-53 -38 -78.5 -51.5t-59.5 -24.5q-66 -21 -155 -25q-57 -3 -64 -12 q-10 -7 -18 -33t-8 -51q0 -7 4 -27q2 -12 2 -20l-6 -68q18 -74 18 -82q0 -28 -31.5 -47.5t-74.5 -19.5q-46 0 -76.5 24.5t-30.5 61.5zM199 639q0 -10 2 -18q6 -35 6 -41q4 -46 12 -54q18 -24 66 -24q92 0 151 53q90 81 90 178q0 38 -15 79t-40 69q-14 15 -51 26t-76 11h-18 q-21 -3 -33 -3q-62 0 -70 -6q-7 -3 -12.5 -13.5t-5.5 -18.5l2 -29l-6 -60q0 -1 0.5 -4t1.5 -9.5t2 -10.5q6 -24 6 -35q-12 -73 -12 -90z" />
<glyph unicode="&#xdf;" horiz-adv-x="937" d="M82 100q6 51 12 105q3 18 6 45l-6 74q0 10 2 26v64q0 10 0.5 21t1.5 31l2 40q2 10 2 20q-2 27 -2 70q0 6 -0.5 17t-1.5 31t-2 36q0 7 4 31l4 22l-8 80q1 14 1.5 32t1 29t1.5 17q0 35 2 72l-2 51q0 24 11.5 83t19.5 79q9 21 39.5 67t42.5 57q39 39 127 56q10 3 51 12 q24 6 49 6q139 0 203 -47q43 -32 53.5 -43.5t32.5 -48.5q26 -43 34.5 -73.5t8.5 -74.5q0 -62 -15 -92.5t-71 -85.5q-29 -29 -29 -32l29 -41q18 -30 64 -80q11 -15 32 -64q17 -34 41 -71q17 -22 21 -31q11 -34 14 -45q12 -36 14 -41q13 -38 15 -78q1 -7 1.5 -17t2 -27 t4.5 -48q0 -14 -8 -47q-4 -16 -4 -21q-13 -59 -29.5 -92.5t-52.5 -73.5l-29 -28q-71 -88 -197 -88q-81 0 -141 32q-22 11 -35 18.5t-20 10.5q-32 15 -53 46t-21 63q0 37 28 67.5t60 30.5q28 0 46.5 -12.5t70.5 -67.5q25 -25 41 -25q50 0 106 62q23 25 38.5 63.5t15.5 71.5 q0 26 -10.5 86.5t-18.5 81.5q-25 64 -68 115q-3 4 -7 9l-6 7.5t-3 3.5l-25 43q-22 43 -67 76q-47 38 -60.5 59.5t-13.5 55.5q0 32 15.5 50t82.5 62q66 49 66 113q0 43 -39.5 75.5t-91.5 32.5q-97 0 -140.5 -38t-43.5 -121q0 -19 -7 -66q-6 -53 -6 -63q0 -15 6 -144 q0 -32 2 -65v-43l3 -45q-3 -85 -7 -160.5t-6 -109.5t-2 -37q2 -18 2 -50q0 -15 4 -65q4 -28 4 -45q0 -25 2 -35v-21q0 -52 -20 -80t-57 -28q-46 0 -83.5 32.5t-33.5 69.5z" />
<glyph unicode="&#xe0;" horiz-adv-x="933" d="M33 365q0 53 21.5 120t54.5 119q19 27 72.5 64.5t109.5 62.5q18 8 76 18.5t84 10.5q31 0 94 -19q18 -6 69 -20q21 -8 29 -8q9 0 15 9t6 23q0 56 -66 101q-54 33 -123 33q-3 0 -82 -11q-23 -3 -34.5 -8t-57.5 -31q-13 -8 -39 -8q-35 0 -63.5 31.5t-28.5 71.5q0 66 113 100 q44 14 96 20q14 1 119 11q33 0 98.5 -20.5t93.5 -39.5q10 -6 47.5 -37.5t42.5 -37.5q46 -80 53.5 -94.5t10.5 -34.5v-74q0 -15 6 -94q0 -21 -2 -41q-2 -6 -2 -17q0 -12 2 -18q6 -47 6 -55q0 -5 -0.5 -15t-1.5 -28.5t-2 -34.5q-2 -10 -2 -25v-14q2 -27 2 -58q0 -4 -0.5 -16.5 t-1.5 -36t-2 -45.5q-2 -14 -2 -35q0 -55 4 -75q2 -12 2 -25q0 -31 -29 -56.5t-63 -25.5q-17 0 -26.5 6t-47.5 37q-13 10 -25 10q-13 0 -26 -8q-96 -57 -199 -57q-69 0 -151 45q-7 4 -54 24q-38 17 -56 33t-46 58q-12 16 -41 53q-23 30 -38 76.5t-15 85.5zM221 379 q0 -45 16 -76.5t62 -77.5q16 -15 22.5 -20.5t32 -11.5t50.5 -8t98 -7q47 0 96.5 29.5t54.5 58.5l17 115q0 103 -25 131q-20 25 -63 41q-111 33 -133 33q-49 0 -98 -23t-81 -61q-29 -33 -39 -58.5t-10 -64.5zM260 1389q0 31 26.5 52t63.5 21q34 0 59.5 -23.5t59.5 -86.5 l16 -21q12 -12 27 -24q13 -12 25 -36.5t12 -39.5q0 -35 -25 -53q-31 -17 -43 -17q-32 0 -98 66q-37 37 -45 43q-34 28 -56 61t-22 58z" />
<glyph unicode="&#xe1;" horiz-adv-x="933" d="M33 365q0 53 21.5 120t54.5 119q19 27 72.5 64.5t109.5 62.5q18 8 76 18.5t84 10.5q31 0 94 -19q18 -6 69 -20q21 -8 29 -8q9 0 15 9t6 23q0 56 -66 101q-54 33 -123 33q-3 0 -82 -11q-23 -3 -34.5 -8t-57.5 -31q-13 -8 -39 -8q-35 0 -63.5 31.5t-28.5 71.5q0 66 113 100 q44 14 96 20q14 1 119 11q33 0 98.5 -20.5t93.5 -39.5q10 -6 47.5 -37.5t42.5 -37.5q46 -80 53.5 -94.5t10.5 -34.5v-74q0 -15 6 -94q0 -21 -2 -41q-2 -6 -2 -17q0 -12 2 -18q6 -47 6 -55q0 -5 -0.5 -15t-1.5 -28.5t-2 -34.5q-2 -10 -2 -25v-14q2 -27 2 -58q0 -4 -0.5 -16.5 t-1.5 -36t-2 -45.5q-2 -14 -2 -35q0 -55 4 -75q2 -12 2 -25q0 -31 -29 -56.5t-63 -25.5q-17 0 -26.5 6t-47.5 37q-13 10 -25 10q-13 0 -26 -8q-96 -57 -199 -57q-69 0 -151 45q-7 4 -54 24q-38 17 -56 33t-46 58q-12 16 -41 53q-23 30 -38 76.5t-15 85.5zM221 379 q0 -45 16 -76.5t62 -77.5q16 -15 22.5 -20.5t32 -11.5t50.5 -8t98 -7q47 0 96.5 29.5t54.5 58.5l17 115q0 103 -25 131q-20 25 -63 41q-111 33 -133 33q-49 0 -98 -23t-81 -61q-29 -33 -39 -58.5t-10 -64.5zM397 1233q0 30 56 92q34 39 53 76q12 24 35.5 41.5t44.5 19.5 q38 3 68 -24t30 -64q0 -25 -11.5 -43.5t-43.5 -46.5q-4 -2 -31 -29q-36 -36 -57 -51q-17 -11 -37 -28q-17 -17 -35 -17q-26 0 -49 24t-23 50z" />
<glyph unicode="&#xe2;" horiz-adv-x="933" d="M33 365q0 53 21.5 120t54.5 119q19 27 72.5 64.5t109.5 62.5q18 8 76 18.5t84 10.5q31 0 94 -19q18 -6 69 -20q21 -8 29 -8q9 0 15 9t6 23q0 56 -66 101q-54 33 -123 33q-3 0 -82 -11q-23 -3 -34.5 -8t-57.5 -31q-13 -8 -39 -8q-35 0 -63.5 31.5t-28.5 71.5q0 66 113 100 q44 14 96 20q14 1 119 11q33 0 98.5 -20.5t93.5 -39.5q10 -6 47.5 -37.5t42.5 -37.5q46 -80 53.5 -94.5t10.5 -34.5v-74q0 -15 6 -94q0 -21 -2 -41q-2 -6 -2 -17q0 -12 2 -18q6 -47 6 -55q0 -5 -0.5 -15t-1.5 -28.5t-2 -34.5q-2 -10 -2 -25v-14q2 -27 2 -58q0 -4 -0.5 -16.5 t-1.5 -36t-2 -45.5q-2 -14 -2 -35q0 -55 4 -75q2 -12 2 -25q0 -31 -29 -56.5t-63 -25.5q-17 0 -26.5 6t-47.5 37q-13 10 -25 10q-13 0 -26 -8q-96 -57 -199 -57q-69 0 -151 45q-7 4 -54 24q-38 17 -56 33t-46 58q-12 16 -41 53q-23 30 -38 76.5t-15 85.5zM221 379 q0 -45 16 -76.5t62 -77.5q16 -15 22.5 -20.5t32 -11.5t50.5 -8t98 -7q47 0 96.5 29.5t54.5 58.5l17 115q0 103 -25 131q-20 25 -63 41q-111 33 -133 33q-49 0 -98 -23t-81 -61q-29 -33 -39 -58.5t-10 -64.5zM242 1255q0 26 30 60q4 4 43 35q13 9 25 22t20 23t29 41 q27 41 62 41q36 0 68.5 -22.5t80.5 -80.5l51 -51q41 -35 41 -74q0 -25 -26 -50t-52 -25q-12 0 -30 12.5t-31 30.5q-6 9 -18 34q-1 1 -4.5 5l-10.5 12l-14 16q-23 29 -35 29q-9 0 -36 -31.5t-52 -67.5q-24 -38 -61 -38q-26 0 -53 26.5t-27 52.5z" />
<glyph unicode="&#xe3;" horiz-adv-x="933" d="M33 365q0 53 21.5 120t54.5 119q19 27 72.5 64.5t109.5 62.5q18 8 76 18.5t84 10.5q31 0 94 -19q18 -6 69 -20q21 -8 29 -8q9 0 15 9t6 23q0 56 -66 101q-54 33 -123 33q-3 0 -82 -11q-23 -3 -34.5 -8t-57.5 -31q-13 -8 -39 -8q-35 0 -63.5 31.5t-28.5 71.5q0 66 113 100 q44 14 96 20q14 1 119 11q33 0 98.5 -20.5t93.5 -39.5q10 -6 47.5 -37.5t42.5 -37.5q46 -80 53.5 -94.5t10.5 -34.5v-74q0 -15 6 -94q0 -21 -2 -41q-2 -6 -2 -17q0 -12 2 -18q6 -47 6 -55q0 -5 -0.5 -15t-1.5 -28.5t-2 -34.5q-2 -10 -2 -25v-14q2 -27 2 -58q0 -4 -0.5 -16.5 t-1.5 -36t-2 -45.5q-2 -14 -2 -35q0 -55 4 -75q2 -12 2 -25q0 -31 -29 -56.5t-63 -25.5q-17 0 -26.5 6t-47.5 37q-13 10 -25 10q-13 0 -26 -8q-96 -57 -199 -57q-69 0 -151 45q-7 4 -54 24q-38 17 -56 33t-46 58q-12 16 -41 53q-23 30 -38 76.5t-15 85.5zM209 1229 q0 81 24 117q34 51 97 51q25 0 88 -19q48 -17 67 -22q13 -2 50 -17q28 -14 40 -14t17 5t12 26q11 33 49 33q72 0 72 -66t-28 -104.5t-74 -38.5q-32 0 -59.5 8t-114.5 45q-54 20 -87 20q-20 0 -26 -7t-23 -50q-6 -22 -43 -22q-23 0 -42 16.5t-19 38.5zM221 379 q0 -45 16 -76.5t62 -77.5q16 -15 22.5 -20.5t32 -11.5t50.5 -8t98 -7q47 0 96.5 29.5t54.5 58.5l17 115q0 103 -25 131q-20 25 -63 41q-111 33 -133 33q-49 0 -98 -23t-81 -61q-29 -33 -39 -58.5t-10 -64.5z" />
<glyph unicode="&#xe4;" horiz-adv-x="933" d="M33 365q0 53 21.5 120t54.5 119q19 27 72.5 64.5t109.5 62.5q18 8 76 18.5t84 10.5q31 0 94 -19q18 -6 69 -20q21 -8 29 -8q9 0 15 9t6 23q0 56 -66 101q-54 33 -123 33q-3 0 -82 -11q-23 -3 -34.5 -8t-57.5 -31q-13 -8 -39 -8q-35 0 -63.5 31.5t-28.5 71.5q0 66 113 100 q44 14 96 20q14 1 119 11q33 0 98.5 -20.5t93.5 -39.5q10 -6 47.5 -37.5t42.5 -37.5q46 -80 53.5 -94.5t10.5 -34.5v-74q0 -15 6 -94q0 -21 -2 -41q-2 -6 -2 -17q0 -12 2 -18q6 -47 6 -55q0 -5 -0.5 -15t-1.5 -28.5t-2 -34.5q-2 -10 -2 -25v-14q2 -27 2 -58q0 -4 -0.5 -16.5 t-1.5 -36t-2 -45.5q-2 -14 -2 -35q0 -55 4 -75q2 -12 2 -25q0 -31 -29 -56.5t-63 -25.5q-17 0 -26.5 6t-47.5 37q-13 10 -25 10q-13 0 -26 -8q-96 -57 -199 -57q-69 0 -151 45q-7 4 -54 24q-38 17 -56 33t-46 58q-12 16 -41 53q-23 30 -38 76.5t-15 85.5zM221 379 q0 -45 16 -76.5t62 -77.5q16 -15 22.5 -20.5t32 -11.5t50.5 -8t98 -7q47 0 96.5 29.5t54.5 58.5l17 115q0 103 -25 131q-20 25 -63 41q-111 33 -133 33q-49 0 -98 -23t-81 -61q-29 -33 -39 -58.5t-10 -64.5zM262 1350q0 36 22 62t52 26q49 0 72.5 -28.5t23.5 -88.5 q0 -83 -18.5 -115t-65.5 -32q-49 0 -67 38q-19 31 -19 138zM496 1358q0 34 26.5 58t63.5 24t61 -27.5t21 -64.5l-2 -21q0 -4 4 -55v-12q0 -35 -20.5 -60.5t-49.5 -25.5q-51 0 -71 23t-23 85q-1 5 -1.5 12.5t-1 12.5t-1.5 8q-6 38 -6 43z" />
<glyph unicode="&#xe5;" horiz-adv-x="933" d="M33 365q0 53 21.5 120t54.5 119q19 27 72.5 64.5t109.5 62.5q18 8 76 18.5t84 10.5q31 0 94 -19q18 -6 69 -20q21 -8 29 -8q9 0 15 9t6 23q0 56 -66 101q-54 33 -123 33q-3 0 -82 -11q-23 -3 -34.5 -8t-57.5 -31q-13 -8 -39 -8q-35 0 -63.5 31.5t-28.5 71.5q0 66 113 100 q44 14 96 20q14 1 119 11q33 0 98.5 -20.5t93.5 -39.5q10 -6 47.5 -37.5t42.5 -37.5q46 -80 53.5 -94.5t10.5 -34.5v-74q0 -15 6 -94q0 -21 -2 -41q-2 -6 -2 -17q0 -12 2 -18q6 -47 6 -55q0 -5 -0.5 -15t-1.5 -28.5t-2 -34.5q-2 -10 -2 -25v-14q2 -27 2 -58q0 -4 -0.5 -16.5 t-1.5 -36t-2 -45.5q-2 -14 -2 -35q0 -55 4 -75q2 -12 2 -25q0 -31 -29 -56.5t-63 -25.5q-17 0 -26.5 6t-47.5 37q-13 10 -25 10q-13 0 -26 -8q-96 -57 -199 -57q-69 0 -151 45q-7 4 -54 24q-38 17 -56 33t-46 58q-12 16 -41 53q-23 30 -38 76.5t-15 85.5zM221 379 q0 -45 16 -76.5t62 -77.5q16 -15 22.5 -20.5t32 -11.5t50.5 -8t98 -7q47 0 96.5 29.5t54.5 58.5l17 115q0 103 -25 131q-20 25 -63 41q-111 33 -133 33q-49 0 -98 -23t-81 -61q-29 -33 -39 -58.5t-10 -64.5zM297 1317q0 45 12 70t51 61q15 15 50 26t69 11q23 0 56 -17.5 t61 -44.5q41 -41 41 -129q0 -38 -18.5 -66.5t-61.5 -56.5q-37 -22 -51 -22q-43 0 -66 -2q-15 0 -45 14t-47 29q-51 48 -51 127zM393 1319q0 -12 8.5 -34.5t16.5 -33.5q13 -16 41 -16q34 0 58 23t24 55q0 31 -21.5 53.5t-52.5 22.5q-29 0 -51.5 -21t-22.5 -49z" />
<glyph unicode="&#xe6;" horiz-adv-x="1550" d="M31 373q0 63 32 143t70 115q58 54 72 61q101 49 131 56q82 20 96 20l133 -10q78 4 86 8q6 2 11.5 8t5.5 12q0 17 -17.5 39.5t-36.5 30.5q-21 9 -66.5 18t-72.5 9q-20 0 -88 -13q-26 -5 -35.5 -8.5t-40.5 -23.5q-26 -11 -41 -11q-31 0 -62.5 34.5t-31.5 66.5q0 15 15 38.5 t30 34.5q19 12 73 29.5t81 18.5q109 6 141 8q4 0 109 -21q35 -8 47.5 -14.5t52.5 -40.5q25 -22 43 -31q1 -1 3 -2l3 -1.5t2 -0.5q9 0 88 58q43 29 60 35.5t75 13.5q64 10 95 10q37 0 94 -14t80 -29q33 -21 83 -67t68 -70q19 -30 44.5 -103.5t25.5 -99.5q0 -23 -19.5 -50.5 t-44.5 -41.5q-9 -5 -45.5 -11t-56.5 -6q-1 0 -25 4q-15 3 -22 3q-9 0 -21 -3q-43 -6 -55 -6q-135 13 -149 13q-17 0 -29 -2q-28 -7 -29 -7l-82 7q-8 0 -26 -16.5t-21 -26.5q-2 -8 -6 -74q-1 -20 14 -75t27 -79q26 -46 65 -74t101 -45q54 -14 160 -24q37 0 141 37q18 6 31 6 q43 0 78.5 -32.5t35.5 -72.5q0 -22 -14.5 -46t-34.5 -38q-13 -10 -25.5 -13t-70.5 -11l-33 -4q-41 -8 -63 -8q-34 0 -125 14q-18 3 -58 6q-24 3 -47 12q-29 11 -34 11l-39 8q-24 6 -42.5 16.5t-76.5 50.5l-43 31l-4 4l-8 -4q-2 -4 -84 -72q-20 -18 -121.5 -43.5 t-149.5 -25.5q-82 0 -149 41q-11 6 -84 39q-30 13 -46 30.5t-46 69.5q0 1 -3.5 5.5t-11.5 15t-16 20.5q-27 33 -33.5 53.5t-17.5 106.5zM215 373q0 -35 10 -57.5t39 -51.5q15 -15 31 -33q25 -29 68 -41t120 -12q98 0 148 53q29 31 39 62.5t10 93.5q0 26 2 53q2 12 2 33 q0 41 -10.5 61.5t-36.5 32.5q-68 27 -150 27q-47 0 -76 -6.5t-65 -24.5q-40 -20 -57.5 -36t-40.5 -52q-22 -33 -27.5 -51t-5.5 -51zM887 768q0 -8 13 -17t22 -8l41 5l65 -5q3 0 6.5 1t9 2t9.5 2q6 2 12 2q8 0 14 -2q21 -7 29 -7l29 2l39 -6l49 8q1 0 3 -0.5t6.5 -1.5t8.5 -2 q4 -2 14 -2q9 0 18 9t9 18q0 11 -31 47q-29 32 -35.5 38t-15.5 9q-14 6 -26 12q-35 21 -107 21q-35 0 -75 -15.5t-66 -39.5q-9 -9 -25 -36t-16 -34z" />
<glyph unicode="&#xe7;" horiz-adv-x="755" d="M45 569q0 34 3.5 54t23.5 108q6 27 29.5 78.5t45.5 85.5q21 30 66.5 67t97.5 64q17 10 77 23.5t87 13.5q25 0 72 -11t71 -22q48 -24 68.5 -48t20.5 -60q0 -40 -27 -76.5t-57 -36.5q-19 0 -58 22q-53 35 -84 35q-53 0 -106 -39q-4 -2 -16.5 -11t-20.5 -13 q-28 -17 -44 -40.5t-36 -76.5q-30 -81 -27 -102q7 -68 7 -92q0 -31 7 -48t44 -77q8 -10 22 -39q40 -71 109 -109.5t155 -38.5l68 2q38 0 59 -35q27 -48 27 -75q0 -40 -28.5 -66t-71.5 -26q-61 0 -144 20.5t-125 46.5q-164 100 -227 201q-88 141 -88 321zM403 -203 q0 12 7.5 36t15.5 36t32 22.5t44 10.5q41 0 76.5 -33t33.5 -70q0 -2 -4 -30q-1 -4 -6 -29q-7 -55 -27 -107q-4 -6 -14 -22q-2 -2 -4.5 -7t-7.5 -14.5t-10 -17.5q-21 -37 -56 -37q-26 0 -47.5 18.5t-21.5 40.5q0 16 30 60q15 22 15 41q0 8 -4 14t-23 27q-10 10 -19.5 30 t-9.5 31z" />
<glyph unicode="&#xe8;" horiz-adv-x="919" d="M43 518q0 119 7 166.5t36 120.5q30 79 61 113t132 102q22 14 89.5 26.5t120.5 12.5q103 0 187 -64q66 -53 91 -80t48 -73q17 -32 33 -86t16 -78q0 -29 -31.5 -60.5t-62.5 -31.5q-10 0 -65 10q-16 4 -23 4q-8 0 -16 -2q-8 -1 -17 -2l-13.5 -1.5t-6.5 -0.5l-68 2 q-3 0 -8.5 -0.5l-16.5 -1.5l-22 -2q-6 -2 -18 -2l-23 2q-31 8 -39 8l-96 -8q-1 0 -3.5 0.5t-7 1.5t-8.5 2q-10 2 -20 2q-35 0 -54.5 -24t-19.5 -68q0 -47 53 -139t97 -121q54 -35 122.5 -59.5t112.5 -24.5q43 0 101 20q67 23 82 23q32 0 61 -35t29 -72q0 -112 -248 -112 q-117 0 -229 49q-73 31 -105 51t-80 68q-91 90 -110.5 119.5t-36.5 107.5q-7 29 -13 47q-10 45 -12 53q-6 24 -6 37zM256 1389q0 29 26.5 51t63.5 22q33 0 58.5 -24t58.5 -86q8 -11 18 -21l25 -24q14 -12 25.5 -35.5t11.5 -40.5q0 -35 -25 -53q-31 -17 -43 -17q-30 0 -96 66 q-37 37 -47 43q-33 28 -54.5 61.5t-21.5 57.5zM268 770q0 -3 6.5 -7.5t12.5 -4.5h10q8 2 29 2l36 -2q28 -4 29 -4q8 0 45 6q8 2 23 2q21 0 45 -6t28 -6q16 2 32.5 4t25.5 3t12 1q38 3 35 28q-1 23 -30.5 51.5t-57.5 36.5q-73 17 -86 17q-88 0 -146 -49q-12 -11 -30.5 -38 t-18.5 -34z" />
<glyph unicode="&#xe9;" horiz-adv-x="919" d="M43 518q0 119 7 166.5t36 120.5q30 79 61 113t132 102q22 14 89.5 26.5t120.5 12.5q103 0 187 -64q66 -53 91 -80t48 -73q17 -32 33 -86t16 -78q0 -29 -31.5 -60.5t-62.5 -31.5q-10 0 -65 10q-16 4 -23 4q-8 0 -16 -2q-8 -1 -17 -2l-13.5 -1.5t-6.5 -0.5l-68 2 q-3 0 -8.5 -0.5l-16.5 -1.5l-22 -2q-6 -2 -18 -2l-23 2q-31 8 -39 8l-96 -8q-1 0 -3.5 0.5t-7 1.5t-8.5 2q-10 2 -20 2q-35 0 -54.5 -24t-19.5 -68q0 -47 53 -139t97 -121q54 -35 122.5 -59.5t112.5 -24.5q43 0 101 20q67 23 82 23q32 0 61 -35t29 -72q0 -112 -248 -112 q-117 0 -229 49q-73 31 -105 51t-80 68q-91 90 -110.5 119.5t-36.5 107.5q-7 29 -13 47q-10 45 -12 53q-6 24 -6 37zM268 770q0 -3 6.5 -7.5t12.5 -4.5h10q8 2 29 2l36 -2q28 -4 29 -4q8 0 45 6q8 2 23 2q21 0 45 -6t28 -6q16 2 32.5 4t25.5 3t12 1q38 3 35 28 q-1 23 -30.5 51.5t-57.5 36.5q-73 17 -86 17q-88 0 -146 -49q-12 -11 -30.5 -38t-18.5 -34zM391 1233q0 31 55 92q36 42 54 76q12 24 35.5 41.5t44.5 19.5q38 3 68 -24t30 -64q0 -25 -11.5 -43.5t-43.5 -46.5q-4 -2 -31 -29q-36 -36 -57 -51q-17 -11 -37 -28 q-17 -17 -35 -17q-26 0 -49 24t-23 50z" />
<glyph unicode="&#xea;" horiz-adv-x="919" d="M43 518q0 119 7 166.5t36 120.5q30 79 61 113t132 102q22 14 89.5 26.5t120.5 12.5q103 0 187 -64q66 -53 91 -80t48 -73q17 -32 33 -86t16 -78q0 -29 -31.5 -60.5t-62.5 -31.5q-10 0 -65 10q-16 4 -23 4q-8 0 -16 -2q-8 -1 -17 -2l-13.5 -1.5t-6.5 -0.5l-68 2 q-3 0 -8.5 -0.5l-16.5 -1.5l-22 -2q-6 -2 -18 -2l-23 2q-31 8 -39 8l-96 -8q-1 0 -3.5 0.5t-7 1.5t-8.5 2q-10 2 -20 2q-35 0 -54.5 -24t-19.5 -68q0 -47 53 -139t97 -121q54 -35 122.5 -59.5t112.5 -24.5q43 0 101 20q67 23 82 23q32 0 61 -35t29 -72q0 -112 -248 -112 q-117 0 -229 49q-73 31 -105 51t-80 68q-91 90 -110.5 119.5t-36.5 107.5q-7 29 -13 47q-10 45 -12 53q-6 24 -6 37zM236 1255q0 26 30 60q4 4 43 35q13 9 25 22t20 23t29 41q27 41 61 41q36 0 69 -23t81 -80l51 -51q41 -35 41 -74q0 -25 -26 -50t-52 -25q-12 0 -30 12.5 t-31 30.5q-9 14 -19 34q-1 1 -4.5 5t-10 12t-13.5 16q-23 29 -35 29q-9 0 -36 -31.5t-52 -67.5q-24 -38 -62 -38q-26 0 -52.5 26.5t-26.5 52.5zM268 770q0 -3 6.5 -7.5t12.5 -4.5h10q8 2 29 2l36 -2q28 -4 29 -4q8 0 45 6q8 2 23 2q21 0 45 -6t28 -6q16 2 32.5 4t25.5 3 t12 1q38 3 35 28q-1 23 -30.5 51.5t-57.5 36.5q-73 17 -86 17q-88 0 -146 -49q-12 -11 -30.5 -38t-18.5 -34z" />
<glyph unicode="&#xeb;" horiz-adv-x="919" d="M43 518q0 119 7 166.5t36 120.5q30 79 61 113t132 102q22 14 89.5 26.5t120.5 12.5q103 0 187 -64q66 -53 91 -80t48 -73q17 -32 33 -86t16 -78q0 -29 -31.5 -60.5t-62.5 -31.5q-10 0 -65 10q-16 4 -23 4q-8 0 -16 -2q-8 -1 -17 -2l-13.5 -1.5t-6.5 -0.5l-68 2 q-3 0 -8.5 -0.5l-16.5 -1.5l-22 -2q-6 -2 -18 -2l-23 2q-31 8 -39 8l-96 -8q-1 0 -3.5 0.5t-7 1.5t-8.5 2q-10 2 -20 2q-35 0 -54.5 -24t-19.5 -68q0 -47 53 -139t97 -121q54 -35 122.5 -59.5t112.5 -24.5q43 0 101 20q67 23 82 23q32 0 61 -35t29 -72q0 -112 -248 -112 q-117 0 -229 49q-73 31 -105 51t-80 68q-91 90 -110.5 119.5t-36.5 107.5q-7 29 -13 47q-10 45 -12 53q-6 24 -6 37zM258 1350q0 36 22 62t52 26q49 0 72.5 -28.5t23.5 -88.5q0 -83 -18.5 -115t-65.5 -32q-50 0 -68 38q-18 30 -18 138zM268 770q0 -3 6.5 -7.5t12.5 -4.5h10 q8 2 29 2l36 -2q28 -4 29 -4q8 0 45 6q8 2 23 2q21 0 45 -6t28 -6q16 2 32.5 4t25.5 3t12 1q38 3 35 28q-1 23 -30.5 51.5t-57.5 36.5q-73 17 -86 17q-88 0 -146 -49q-12 -11 -30.5 -38t-18.5 -34zM492 1358q0 34 26.5 58t63.5 24t61 -27.5t21 -64.5l-2 -21q0 -4 4 -55v-12 q0 -35 -20.5 -60.5t-49.5 -25.5q-51 0 -71 23t-23 85q-1 5 -1.5 12.5t-1 12.5t-1.5 8q-6 38 -6 43z" />
<glyph unicode="&#xec;" horiz-adv-x="382" d="M-14 1389q0 29 26.5 51t63.5 22q33 0 58.5 -24t58.5 -86q8 -11 18 -21l25 -24q14 -12 25 -35.5t11 -40.5q0 -36 -24 -53q-31 -17 -43 -17q-30 0 -96 66q-35 35 -48 43q-33 28 -54 61.5t-21 57.5zM82 934q0 47 27.5 74.5t74.5 27.5q63 0 86 -37q3 -3 10 -42t7 -54 q0 -8 -2 -16q-15 -71 -15 -207q0 -5 4 -41q1 -4 2 -9t2 -8t1 -4q-9 -102 -9 -143l6 -65q0 -7 -6 -25q-1 -4 -2 -8.5t-1.5 -6.5t-0.5 -3q0 -9 6 -70q2 -2 2 -33q4 -56 13 -96q14 -61 14 -68q3 -40 -29 -72t-73 -32q-44 0 -79 34t-32 72q10 123 10 138q-4 58 -4 94q0 6 2 49 q4 54 4 61q0 56 2 62l2 29q0 10 -6 40t-6 66q0 31 2 49q1 9 2 20l1.5 16.5t0.5 8.5q0 36 -10 111q-6 52 -6 88z" />
<glyph unicode="&#xed;" horiz-adv-x="382" d="M82 934q0 47 27.5 74.5t74.5 27.5q67 0 86 -37q3 -5 10 -43t7 -53q0 -8 -2 -16q-13 -71 -13 -207q0 -9 4 -41q1 -4 2 -9t2 -8t1 -4q-11 -91 -11 -143l6 -65q0 -1 -4 -25q-4 -10 -4 -18q8 -74 8 -103q4 -56 13 -96q14 -61 14 -68q3 -40 -29 -72t-75 -32t-78.5 34t-32.5 72 q10 123 10 138l-2 94q0 6 2 49q4 54 4 61q0 56 2 62l2 29q0 10 -6 40t-6 66q0 31 2 49q2 23 2 45q0 39 -10 111q-6 52 -6 88zM123 1233q0 31 55 92q34 39 53 76q12 24 35.5 41.5t44.5 19.5q38 3 68.5 -24t30.5 -64q0 -25 -12 -43.5t-44 -46.5q-2 -1 -30 -29q-33 -33 -58 -51 q-17 -11 -37 -28q-17 -17 -34 -17q-26 0 -49 24t-23 50z" />
<glyph unicode="&#xee;" horiz-adv-x="382" d="M-35 1255q0 25 31 60q4 4 43 35q13 9 25 22t20 23t29 41q27 41 61 41q36 0 69 -23t81 -80l51 -51q41 -35 41 -74q0 -25 -26 -50t-52 -25q-12 0 -30.5 12.5t-31.5 30.5q-6 9 -18 34q-1 1 -4.5 5l-10.5 12l-14 16q-23 29 -34 29q-9 0 -36.5 -31.5t-52.5 -67.5 q-24 -38 -61 -38q-26 0 -53 26.5t-27 52.5zM82 934q0 47 27.5 74.5t74.5 27.5q63 0 86 -37q3 -3 10 -42t7 -54q0 -8 -2 -16q-15 -71 -15 -207q0 -5 4 -41q1 -4 2 -9t2 -8t1 -4q-11 -91 -11 -143l8 -65q0 -7 -6 -25q-1 -4 -2 -8.5t-1.5 -6.5t-0.5 -3q0 -9 6 -70q2 -2 2 -33 q4 -56 13 -96q14 -61 14 -68q3 -40 -29 -72t-73 -32q-44 0 -79 34t-32 72q10 123 10 138q-4 58 -4 94q0 6 2 49q4 54 4 61q0 56 2 62l2 29q0 10 -6 40t-6 66q0 31 2 49q1 9 2 20l1.5 16.5t0.5 8.5q0 36 -10 111q-6 52 -6 88z" />
<glyph unicode="&#xef;" horiz-adv-x="382" d="M-6 1350q0 37 21.5 63.5t50.5 26.5q84 0 84 -119q0 -83 -16.5 -115t-59.5 -32q-46 0 -64 38q-16 33 -16 138zM82 934q0 47 27.5 74.5t74.5 27.5q67 0 86 -37q3 -5 10 -43t7 -53q0 -8 -2 -16q-13 -71 -13 -207q0 -23 4 -41q3 -15 3 -21q-9 -102 -9 -143l6 -65q0 -7 -6 -25 q-1 -4 -2 -8.5t-1.5 -6.5t-0.5 -3q0 -9 6 -70q2 -2 2 -33q4 -56 13 -96q14 -61 14 -68q3 -40 -29 -72t-73 -32q-44 0 -79 34t-32 72q10 123 10 138q-4 58 -4 94q0 6 2 49q4 54 4 61q0 56 2 62l2 29q0 10 -6 40q-4 40 -4 66q0 31 2 49q2 23 2 45q0 39 -10 111q-6 52 -6 88z M227 1360q0 32 26.5 57t61.5 25q32 0 51 -25t19 -67v-31q0 -2 0.5 -7.5l1.5 -16.5t2 -21v-14q0 -35 -18.5 -60.5t-44.5 -25.5q-47 0 -67 24t-23 84l-3 35q-6 35 -6 43z" />
<glyph unicode="&#xf0;" horiz-adv-x="1030" d="M45 565q0 81 16 131t62 113q57 82 61 84q138 129 283 129q17 0 27 -2h20q23 0 23 10t-31 45q-30 34 -57 58t-84 63q-86 61 -86 119q0 37 30.5 63.5t71.5 26.5q67 0 108 -53q36 -39 46 -39q14 0 36 18q4 2 15.5 10.5t19.5 12.5q12 9 21 28t37 19q32 0 59 -32.5t27 -70.5 q0 -35 -50 -49q-1 -1 -5 -3.5t-12 -8t-17 -12.5q-26 -19 -30.5 -23t-4.5 -12q0 -10 9 -21t46 -47q17 -14 22.5 -19.5t20.5 -27.5q1 -2 31 -37q34 -37 82 -112q46 -73 51 -76q24 -35 33 -54.5t26 -80.5q35 -117 35 -187q0 -83 -25 -182.5t-59 -150.5q-56 -83 -150.5 -146 t-164.5 -63q-85 0 -122 5t-101 27q-144 50 -240 211q-29 49 -40 78t-19 74q-21 143 -21 184zM219 516q0 -15 17 -83.5t28 -98.5q4 -13 30.5 -47t41.5 -47q20 -14 58 -35t55 -27q18 -6 106 -10q19 2 52.5 13t45.5 20q61 47 66 53q8 14 26 35q35 45 43 92q4 23 8.5 43.5 t6.5 29t2 9.5l-4 57l2 64q-27 117 -39.5 149.5t-42.5 59.5q-51 48 -94 65q-80 27 -82 27q-9 0 -15 -2q-27 -6 -43 -6q-13 -1 -24.5 -2t-17.5 -2t-7 -1q-24 -9 -71 -28q-65 -47 -84 -84q-50 -97 -47 -146q0 -5 -2 -16t-3 -16q-12 -50 -12 -66z" />
<glyph unicode="&#xf1;" horiz-adv-x="897" d="M82 934q0 43 28 73.5t66 30.5q19 0 28.5 -5.5t49.5 -39.5q21 -14 29 -14q10 0 75 41q54 31 115 31q67 0 103 -9t83 -38q37 -23 46 -30.5t26 -27.5q25 -29 31.5 -41.5t21.5 -58.5q21 -67 21 -88q0 -13 -4 -41q-8 -33 -8 -58q0 -16 4 -28q2 -8 2 -19q0 -6 -2 -12 q-4 -14 -4 -29l12 -100q0 -1 -0.5 -3t-1.5 -7l-2 -10q-1 -4 -2 -8.5t-1.5 -7t-0.5 -3.5q6 -111 6 -151q2 -80 10 -127q6 -30 6 -54q0 -46 -30 -76t-76 -30q-43 0 -80 35.5t-37 76.5q0 5 4 33q10 58 12 170q0 5 6 49q3 24 3 35q0 158 -9 203q-2 8 -2 14q0 9 2 17q6 27 6 45 t-6 45q-2 8 -4 17l-3 13.5t-1 6.5q-9 57 -13.5 69.5t-19.5 24.5q-34 31 -88 31q-28 0 -114 -35q-44 -17 -61 -37.5t-19 -56.5v-48l-4 -40q0 -15 2 -25l2 -14l1.5 -10.5t0.5 -4.5q0 -14 -6 -51q-2 -12 -2 -27q0 -16 6 -57q2 -6 2 -14q0 -13 -2 -23q-6 -37 -6 -49l2 -63 l-2 -74q0 -26 18 -96q8 -27 8 -58q0 -41 -29.5 -70.5t-72.5 -29.5t-74 35t-31 82q0 5 4 51q9 52 9 158q0 22 -2 36l-2 17l2 84q0 40 4 106q-6 39 -6 70q0 50 2 70q2 12 2 26q0 19 -2 35l-7 47q0 37 -4 45l-14 43q-6 18 -6 33zM190 1229q0 48 5.5 72t19.5 45q34 51 96 51 q25 0 88 -19q45 -16 68 -22q11 -2 49 -17q28 -14 41 -14q12 0 17 5t12 26q11 33 49 33q72 0 72 -66q0 -65 -28.5 -104t-74.5 -39q-32 0 -59.5 8t-114.5 45q-54 20 -86 20q-20 0 -26 -7t-23 -50q-6 -22 -43 -22q-24 0 -43 17t-19 38z" />
<glyph unicode="&#xf2;" horiz-adv-x="1030" d="M43 580q0 17 9.5 71.5t15.5 73.5q20 55 26 68t25 43q46 72 53 77q56 56 76 66q9 5 55 33q75 45 248 45q29 0 125 -25q48 -15 99.5 -52t78.5 -75q46 -64 55.5 -80t24.5 -55q5 -15 12 -29q25 -55 33 -96.5t8 -109.5q0 -70 -16.5 -156.5t-38.5 -134.5q-24 -49 -42.5 -73 t-66.5 -67q-38 -35 -50 -43t-44 -22q-81 -35 -86 -35q-1 0 -5.5 -1t-14 -3t-19.5 -4q-20 -2 -63 -10q-82 8 -109 18q-2 1 -41 10q-106 17 -211 146q-29 33 -41 47q-33 39 -49.5 78.5t-28.5 111.5zM217 516q0 -16 17 -85t28 -97q4 -13 30.5 -47t41.5 -47q21 -14 59 -35.5 t56 -26.5q16 -6 106 -10q19 2 52.5 13t45.5 20q61 47 66 53q8 14 26 35q34 40 43 92q4 23 8.5 43.5t6.5 29t2 9.5q-4 78 -4 108q0 36 -23 103q-1 5 -6 20t-8 27q-9 32 -27.5 53.5t-72.5 61.5q-17 13 -61.5 31t-59.5 18q-9 0 -15 -2q-27 -6 -43 -6q-13 -1 -24.5 -2t-17.5 -2 t-7 -1q-24 -9 -71 -28q-65 -47 -84 -84q-51 -99 -48 -146q0 -8 -4 -32q-12 -50 -12 -66zM309 1389q0 31 26.5 52t63.5 21q34 0 59.5 -23.5t59.5 -86.5l17 -21q16 -16 26 -24q13 -12 25 -36.5t12 -39.5q0 -35 -25 -53q-31 -17 -43 -17q-32 0 -98 66q-37 37 -45 43 q-34 28 -56 61t-22 58z" />
<glyph unicode="&#xf3;" horiz-adv-x="1030" d="M43 580q0 17 9.5 71.5t15.5 73.5q20 55 26 68t25 43q46 72 53 77q56 56 76 66q9 5 55 33q75 45 248 45q29 0 125 -25q48 -15 99.5 -52t78.5 -75q46 -64 55.5 -80t24.5 -55q5 -15 12 -29q25 -55 33 -96.5t8 -109.5q0 -70 -16.5 -156.5t-38.5 -134.5q-24 -49 -42.5 -73 t-66.5 -67q-38 -35 -50 -43t-44 -22q-81 -35 -86 -35q-1 0 -5.5 -1t-14 -3t-19.5 -4q-20 -2 -63 -10q-82 8 -109 18q-2 1 -41 10q-106 17 -211 146q-29 33 -41 47q-33 39 -49.5 78.5t-28.5 111.5zM217 516q0 -16 17 -85t28 -97q4 -13 30.5 -47t41.5 -47q21 -14 59 -35.5 t56 -26.5q16 -6 106 -10q19 2 52.5 13t45.5 20q61 47 66 53q8 14 26 35q34 40 43 92q4 23 8.5 43.5t6.5 29t2 9.5q-4 78 -4 108q0 36 -23 103q-1 5 -6 20t-8 27q-9 32 -27.5 53.5t-72.5 61.5q-17 13 -61.5 31t-59.5 18q-9 0 -15 -2q-27 -6 -43 -6q-13 -1 -24.5 -2t-17.5 -2 t-7 -1q-24 -9 -71 -28q-65 -47 -84 -84q-51 -99 -48 -146q0 -8 -4 -32q-12 -50 -12 -66zM446 1233q0 30 56 92q34 39 53 76q12 24 35.5 41.5t44.5 19.5q38 3 68 -24t30 -64q0 -25 -11.5 -43.5t-43.5 -46.5q-4 -2 -31 -29q-36 -36 -57 -51q-17 -11 -37 -28q-17 -17 -35 -17 q-26 0 -49 24t-23 50z" />
<glyph unicode="&#xf4;" horiz-adv-x="1030" d="M43 580q0 17 9.5 71.5t15.5 73.5q20 55 26 68t25 43q46 72 53 77q56 56 76 66q9 5 55 33q75 45 248 45q29 0 125 -25q48 -15 99.5 -52t78.5 -75q46 -64 55.5 -80t24.5 -55q5 -15 12 -29q25 -55 33 -96.5t8 -109.5q0 -70 -16.5 -156.5t-38.5 -134.5q-24 -49 -42.5 -73 t-66.5 -67q-38 -35 -50 -43t-44 -22q-81 -35 -86 -35q-1 0 -5.5 -1t-14 -3t-19.5 -4q-20 -2 -63 -10q-82 8 -109 18q-2 1 -41 10q-106 17 -211 146q-29 33 -41 47q-33 39 -49.5 78.5t-28.5 111.5zM217 516q0 -16 17 -85t28 -97q4 -13 30.5 -47t41.5 -47q21 -14 59 -35.5 t56 -26.5q16 -6 106 -10q19 2 52.5 13t45.5 20q61 47 66 53q8 14 26 35q34 40 43 92q4 23 8.5 43.5t6.5 29t2 9.5q-4 78 -4 108q0 36 -23 103q-1 5 -6 20t-8 27q-9 32 -27.5 53.5t-72.5 61.5q-17 13 -61.5 31t-59.5 18q-9 0 -15 -2q-27 -6 -43 -6q-13 -1 -24.5 -2t-17.5 -2 t-7 -1q-24 -9 -71 -28q-65 -47 -84 -84q-51 -99 -48 -146q0 -8 -4 -32q-12 -50 -12 -66zM291 1255q0 25 31 60q4 4 43 35q5 3 9.5 7t8 7t9 9t7.5 9t8.5 11.5t8.5 11.5t10.5 15t11.5 16q27 41 62 41q36 0 68.5 -22.5t80.5 -80.5q5 -6 13 -14t19.5 -19t18.5 -18q41 -35 41 -74 q0 -25 -25.5 -50t-51.5 -25q-12 0 -30.5 12.5t-31.5 30.5q-6 9 -18 34q-1 1 -4.5 5l-10.5 12l-14 16q-23 29 -35 29q-9 0 -36 -31.5t-52 -67.5q-24 -38 -61 -38q-26 0 -53 26.5t-27 52.5z" />
<glyph unicode="&#xf5;" horiz-adv-x="1030" d="M43 580q0 17 9.5 71.5t15.5 73.5q20 55 26 68t25 43q46 72 53 77q56 56 76 66q9 5 55 33q75 45 248 45q29 0 125 -25q48 -15 99.5 -52t78.5 -75q46 -64 55.5 -80t24.5 -55q5 -15 12 -29q25 -55 33 -96.5t8 -109.5q0 -70 -16.5 -156.5t-38.5 -134.5q-24 -49 -42.5 -73 t-66.5 -67q-38 -35 -50 -43t-44 -22q-81 -35 -86 -35q-1 0 -5.5 -1t-14 -3t-19.5 -4q-20 -2 -63 -10q-82 8 -109 18q-2 1 -41 10q-106 17 -211 146q-29 33 -41 47q-33 39 -49.5 78.5t-28.5 111.5zM217 516q0 -16 17 -85t28 -97q4 -13 30.5 -47t41.5 -47q21 -14 59 -35.5 t56 -26.5q16 -6 106 -10q19 2 52.5 13t45.5 20q61 47 66 53q8 14 26 35q34 40 43 92q4 23 8.5 43.5t6.5 29t2 9.5q-4 78 -4 108q0 36 -23 103q-1 5 -6 20t-8 27q-9 32 -27.5 53.5t-72.5 61.5q-17 13 -61.5 31t-59.5 18q-9 0 -15 -2q-27 -6 -43 -6q-13 -1 -24.5 -2t-17.5 -2 t-7 -1q-24 -9 -71 -28q-65 -47 -84 -84q-51 -99 -48 -146q0 -8 -4 -32q-12 -50 -12 -66zM258 1229q0 48 5.5 72t19.5 45q34 51 96 51q25 0 88 -19q45 -16 68 -22q12 -2 49 -17q28 -14 41 -14q12 0 16.5 4.5t11.5 26.5q11 33 49 33q72 0 72 -66t-28 -104.5t-74 -38.5 q-32 0 -59.5 8t-114.5 45q-54 20 -86 20q-20 0 -26.5 -7t-23.5 -50q-6 -22 -43 -22q-23 0 -42 16.5t-19 38.5z" />
<glyph unicode="&#xf6;" horiz-adv-x="1030" d="M43 580q0 17 9.5 71.5t15.5 73.5q20 55 26 68t25 43q46 72 53 77q56 56 76 66q9 5 55 33q75 45 248 45q29 0 125 -25q48 -15 99.5 -52t78.5 -75q46 -64 55.5 -80t24.5 -55q5 -15 12 -29q25 -55 33 -96.5t8 -109.5q0 -70 -16.5 -156.5t-38.5 -134.5q-24 -49 -42.5 -73 t-66.5 -67q-38 -35 -50 -43t-44 -22q-81 -35 -86 -35q-1 0 -5.5 -1t-14 -3t-19.5 -4q-20 -2 -63 -10q-82 8 -109 18q-2 1 -41 10q-106 17 -211 146q-29 33 -41 47q-33 39 -49.5 78.5t-28.5 111.5zM217 516q0 -16 17 -85t28 -97q4 -13 30.5 -47t41.5 -47q21 -14 59 -35.5 t56 -26.5q16 -6 106 -10q19 2 52.5 13t45.5 20q61 47 66 53q8 14 26 35q34 40 43 92q4 23 8.5 43.5t6.5 29t2 9.5q-4 78 -4 108q0 36 -23 103q-1 5 -6 20t-8 27q-9 32 -27.5 53.5t-72.5 61.5q-17 13 -61.5 31t-59.5 18q-9 0 -15 -2q-27 -6 -43 -6q-13 -1 -24.5 -2t-17.5 -2 t-7 -1q-24 -9 -71 -28q-65 -47 -84 -84q-51 -99 -48 -146q0 -8 -4 -32q-12 -50 -12 -66zM311 1350q0 36 22 62t52 26q49 0 72.5 -28.5t23.5 -88.5q0 -83 -18.5 -115t-65.5 -32q-49 0 -67 38q-19 31 -19 138zM545 1358q0 34 26.5 58t63.5 24t61 -27.5t21 -64.5l-2 -21 q0 -4 4 -55v-12q0 -35 -20.5 -60.5t-49.5 -25.5q-51 0 -71 23t-23 85q-1 5 -1.5 12.5t-1 12.5t-1.5 8q-6 38 -6 43z" />
<glyph unicode="&#xf7;" d="M27 662q0 53 36 75q18 11 37 11h17q1 0 7 0.5t19.5 1.5t28.5 2l51 -7l76 5q3 0 13 -2t16 -3q12 -2 26 -2q3 0 7 1t9.5 2t10.5 2q54 8 55 8q2 0 7.5 -0.5t17 -1.5t22.5 -2q24 -4 80 -4q43 0 78 6q32 4 35 4q4 0 67 -15l54 7l53 -7l51 11q53 -6 64 -6q37 0 59.5 -23 t22.5 -61q0 -39 -25 -61.5t-68 -22.5l-53 2l-51 -9l-53 11q-64 0 -156 -9l-53 13l-80 -17q-1 0 -25 7q-21 8 -37 8l-65 -4l-53 4l-52 -2l-53 2l-51 -8q-83 0 -104 12q-18 9 -29.5 29.5t-11.5 42.5zM434 324q0 18 2 28q2 16 2 43q0 29 4.5 41.5t18.5 24.5q35 28 69 28 q22 0 46.5 -8.5t37.5 -19.5q10 -13 15 -37q1 -6 3 -19t3.5 -23t1.5 -11q-15 -60 -16 -70q-9 -63 -86 -63q-55 0 -76 30q-25 35 -25 56zM434 940q0 19 2 29q2 16 2 43q0 28 4.5 40.5t18.5 24.5q36 29 69 29q22 0 46.5 -9t37.5 -20q10 -13 15 -37q1 -6 3 -19t3.5 -23t1.5 -11 q-15 -62 -16 -69q-9 -64 -86 -64q-54 0 -76 31q-25 35 -25 55z" />
<glyph unicode="&#xf8;" horiz-adv-x="1028" d="M45 561q0 39 12.5 106t26.5 101q26 66 82 131.5t108 91.5q72 38 101 43q90 17 143 17q107 0 221 -68q2 -2 6 -2q10 0 21 20q20 34 36 47t38 13q37 0 68.5 -28t31.5 -60q0 -14 -9 -28.5t-40 -43.5q-14 -14 -14 -20q0 -9 14 -23q29 -25 41 -65q10 -36 31 -101 q22 -64 22 -160q0 -43 -16 -142.5t-25 -117.5q-27 -45 -47 -86q-28 -56 -88.5 -106.5t-122.5 -69.5q-32 -10 -90.5 -18t-101.5 -8q-22 0 -111 20q-35 9 -48 16t-42 33q-8 8 -17 8q-7 0 -11.5 -6t-28.5 -49q-16 -29 -52 -29q-39 0 -68.5 25t-29.5 59q0 22 6.5 33t40.5 45 q19 19 19 33q0 9 -5 18t-34 46q-20 26 -28 50t-22 95q-6 36 -18 180zM209 530q0 -10 2 -18q0 -1 1 -7.5t2.5 -16.5t2.5 -19q4 -29 14 -66q3 -10 5 -26q5 -43 26 -58q0 3 4 3q13 17 60 84q7 11 39 47q13 13 24 34q12 24 21 33q14 14 26 29q9 4 23 33q14 28 16 30q30 40 41 52 q5 7 16.5 20t14.5 18l35 54l18 24q37 42 37 54q0 15 -27.5 25.5t-105.5 23.5q-41 -9 -70 -11q-72 -3 -108 -51q-2 -3 -15 -16l-28 -31q-9 -12 -15 -24q-2 -6 -16 -27q-33 -49 -33 -86v-55q0 -9 -6 -27q-4 -20 -4 -25zM381 215q0 -26 35 -41q54 -24 78 -24q5 0 72 10.5 t71 11.5q37 12 78.5 56.5t64.5 99.5q26 57 29 90q4 12 4 100l-8 45q0 1 0.5 4l1.5 9l2 12q2 6 2 14q0 29 -14 62t-15 41q-8 32 -16 32q-3 0 -23 -26q-18 -27 -26 -35q-10 -11 -19.5 -22t-14 -16.5t-5.5 -6.5q-4 -8 -16 -29q-12 -22 -17 -24l-39 -46l-28 -43q-3 -6 -23 -26 l-68 -94q-20 -25 -49 -66q-9 -13 -39 -51q-18 -22 -18 -37z" />
<glyph unicode="&#xf9;" horiz-adv-x="907" d="M78 967q0 38 27 62t71 24q73 0 96 -39q8 -11 16.5 -41.5t8.5 -48.5q0 -24 -10 -54l-4 -16l6 -66q-2 -12 -6 -30q-3 -9 -7 -38.5t-4 -39.5q0 -12 7 -47q4 -28 4 -35q0 -3 -4 -35q-1 -6 -2 -12.5t-2 -11t-1 -7.5q0 -4 1 -9.5t2 -12.5t2 -12q10 -48 10 -62q0 -1 -0.5 -4 t-1.5 -9.5t-2 -12.5q-4 -32 -4 -43q0 -14 9.5 -68t14.5 -68q6 -15 17 -23.5t40 -19.5q39 -16 58 -16q18 0 60.5 15.5t78.5 35.5q12 6 26 20t17 23q6 12 6 51v13q-2 8 -2 14t2 12q4 28 4 29l-4 39l2 43l-2 29l6 51q0 6 -6 33q-2 8 -2 20q0 13 2 23q1 6 2 11.5t1.5 8.5t0.5 4 l-6 60l4 69q-12 109 -18 129q-14 38 -14 51q0 12 11.5 34t24.5 34q27 27 68 27q26 0 52.5 -11t39.5 -28q6 -6 12.5 -35.5t6.5 -48.5q0 -4 -1 -8.5t-2 -12t-2 -12.5q-6 -35 -6 -57q0 -11 2 -19t2 -18q0 -9 -2 -17q-6 -34 -6 -49q0 -71 8 -141q0 -66 -6 -133l8 -58 q0 -5 -6 -32q-4 -28 -4 -49q0 -23 8 -62l11 -57q2 -12 14 -43q14 -35 14 -54q0 -41 -28 -71.5t-66 -30.5q-31 0 -76 29q-35 26 -49 26t-65 -26q-38 -17 -39 -17q-18 -4 -58 -10q-3 -1 -8 -2t-9 -2t-7 -2q-6 -2 -17 -2q-6 0 -12 2q-28 4 -53 6q-38 4 -52 9.5t-50 29.5 q-60 38 -75.5 51.5t-25.5 38.5q-7 19 -22 77t-15 69l4 79l-4 50q0 10 2 18q4 20 4 25q0 12 -2 22q-8 39 -8 80q0 17 4 63q4 18 4 39q0 13 -2 23q-6 24 -6 31q0 10 6 37q2 10 2 22l-8 78q-9 38 -12 74q-1 9 -2 19.5t-1.5 16t-0.5 9.5zM248 1389q0 31 26.5 52t63.5 21 q34 0 59.5 -23.5t59.5 -86.5l16 -21q12 -12 27 -24q13 -12 25 -36.5t12 -39.5q0 -35 -25 -53q-31 -17 -43 -17q-32 0 -98 66q-37 37 -45 43q-34 28 -56 61t-22 58z" />
<glyph unicode="&#xfa;" horiz-adv-x="907" d="M78 967q0 38 27 62t71 24q73 0 96 -39q8 -11 16.5 -41.5t8.5 -48.5q0 -24 -10 -54l-4 -16l6 -66q-2 -12 -6 -30q-3 -9 -7 -38.5t-4 -39.5q0 -12 7 -47q4 -28 4 -35q0 -3 -4 -35q-1 -6 -2 -12.5t-2 -11t-1 -7.5q0 -4 1 -9.5t2 -12.5t2 -12q10 -48 10 -62q0 -1 -0.5 -4 t-1.5 -9.5t-2 -12.5q-4 -32 -4 -43q0 -14 9.5 -68t14.5 -68q6 -15 17 -23.5t40 -19.5q39 -16 58 -16q18 0 60.5 15.5t78.5 35.5q12 6 26 20t17 23q6 12 6 51v13q-2 8 -2 14t2 12q4 28 4 29l-4 39l2 43l-2 29l6 51q0 6 -6 33q-2 8 -2 20q0 13 2 23q1 6 2 11.5t1.5 8.5t0.5 4 l-6 60l4 69q-12 109 -18 129q-14 38 -14 51q0 12 11.5 34t24.5 34q27 27 68 27q26 0 52.5 -11t39.5 -28q6 -6 12.5 -35.5t6.5 -48.5q0 -4 -1 -8.5t-2 -12t-2 -12.5q-6 -35 -6 -57q0 -11 2 -19t2 -18q0 -9 -2 -17q-6 -34 -6 -49q0 -71 8 -141q0 -66 -6 -133l8 -58 q0 -5 -6 -32q-4 -28 -4 -49q0 -23 8 -62l11 -57q2 -12 14 -43q14 -35 14 -54q0 -41 -28 -71.5t-66 -30.5q-31 0 -76 29q-35 26 -49 26t-65 -26q-38 -17 -39 -17q-18 -4 -58 -10q-3 -1 -8 -2t-9 -2t-7 -2q-6 -2 -17 -2q-6 0 -12 2q-28 4 -53 6q-38 4 -52 9.5t-50 29.5 q-60 38 -75.5 51.5t-25.5 38.5q-7 19 -22 77t-15 69l4 79l-4 50q0 10 2 18q4 20 4 25q0 12 -2 22q-8 39 -8 80q0 17 4 63q4 18 4 39q0 13 -2 23q-6 24 -6 31q0 10 6 37q2 10 2 22l-8 78q-9 38 -12 74q-1 9 -2 19.5t-1.5 16t-0.5 9.5zM385 1233q0 31 55 92q36 42 54 76 q12 24 35 41.5t44 19.5q38 3 68.5 -24t30.5 -64q0 -25 -12 -43.5t-44 -46.5q-2 -1 -30 -29q-33 -33 -58 -51q-12 -8 -36 -28q-17 -17 -35 -17q-26 0 -49 24t-23 50z" />
<glyph unicode="&#xfb;" horiz-adv-x="907" d="M78 967q0 38 27 62t71 24q73 0 96 -39q8 -11 16.5 -41.5t8.5 -48.5q0 -24 -10 -54l-4 -16l6 -66q-2 -12 -6 -30q-3 -9 -7 -38.5t-4 -39.5q0 -12 7 -47q4 -28 4 -35q0 -3 -4 -35q-1 -6 -2 -12.5t-2 -11t-1 -7.5q0 -4 1 -9.5t2 -12.5t2 -12q10 -48 10 -62q0 -1 -0.5 -4 t-1.5 -9.5t-2 -12.5q-4 -32 -4 -43q0 -14 9.5 -68t14.5 -68q6 -15 17 -23.5t40 -19.5q39 -16 58 -16q18 0 60.5 15.5t78.5 35.5q12 6 26 20t17 23q6 12 6 51v13q-2 8 -2 14t2 12q4 28 4 29l-4 39l2 43l-2 29l6 51q0 6 -6 33q-2 8 -2 20q0 13 2 23q1 6 2 11.5t1.5 8.5t0.5 4 l-6 60l4 69q-12 109 -18 129q-14 38 -14 51q0 12 11.5 34t24.5 34q27 27 68 27q26 0 52.5 -11t39.5 -28q6 -6 12.5 -35.5t6.5 -48.5q0 -4 -1 -8.5t-2 -12t-2 -12.5q-6 -35 -6 -57q0 -11 2 -19t2 -18q0 -9 -2 -17q-6 -34 -6 -49q0 -71 8 -141q0 -66 -6 -133l8 -58 q0 -5 -6 -32q-4 -28 -4 -49q0 -23 8 -62l11 -57q2 -12 14 -43q14 -35 14 -54q0 -41 -28 -71.5t-66 -30.5q-31 0 -76 29q-35 26 -49 26t-65 -26q-38 -17 -39 -17q-18 -4 -58 -10q-3 -1 -8 -2t-9 -2t-7 -2q-6 -2 -17 -2q-6 0 -12 2q-28 4 -53 6q-38 4 -52 9.5t-50 29.5 q-60 38 -75.5 51.5t-25.5 38.5q-7 19 -22 77t-15 69l4 79l-4 50q0 10 2 18q4 20 4 25q0 12 -2 22q-8 39 -8 80q0 17 4 63q4 18 4 39q0 13 -2 23q-6 24 -6 31q0 10 6 37q2 10 2 22l-8 78q-9 38 -12 74q-1 9 -2 19.5t-1.5 16t-0.5 9.5zM227 1255q0 25 31 60q4 4 43 35 q13 9 25 22t20 23t29 41q27 41 61 41q36 0 69 -23t81 -80q5 -6 13 -14t19.5 -19t18.5 -18q41 -35 41 -74q0 -25 -26 -50t-52 -25q-12 0 -30 12.5t-31 30.5q-9 14 -19 34q-1 1 -4.5 5t-10 12t-13.5 16q-23 29 -35 29q-9 0 -36 -31.5t-52 -67.5q-24 -38 -62 -38 q-26 0 -53 26.5t-27 52.5z" />
<glyph unicode="&#xfc;" horiz-adv-x="907" d="M78 967q0 38 27 62t71 24q73 0 96 -39q8 -11 16.5 -41.5t8.5 -48.5q0 -24 -10 -54l-4 -16l6 -66q-2 -12 -6 -30q-3 -9 -7 -38.5t-4 -39.5q0 -12 7 -47q4 -28 4 -35q0 -3 -4 -35q-1 -6 -2 -12.5t-2 -11t-1 -7.5q0 -4 1 -9.5t2 -12.5t2 -12q10 -48 10 -62q0 -1 -0.5 -4 t-1.5 -9.5t-2 -12.5q-4 -32 -4 -43q0 -14 9.5 -68t14.5 -68q6 -15 17 -23.5t40 -19.5q39 -16 58 -16q18 0 60.5 15.5t78.5 35.5q12 6 26 20t17 23q6 12 6 51v13q-2 8 -2 14t2 12q4 28 4 29l-4 39l2 43l-2 29l6 51q0 6 -6 33q-2 8 -2 20q0 13 2 23q1 6 2 11.5t1.5 8.5t0.5 4 l-6 60l4 69q-12 109 -18 129q-14 38 -14 51q0 12 11.5 34t24.5 34q27 27 68 27q26 0 52.5 -11t39.5 -28q6 -6 12.5 -35.5t6.5 -48.5q0 -4 -1 -8.5t-2 -12t-2 -12.5q-6 -35 -6 -57q0 -11 2 -19t2 -18q0 -9 -2 -17q-6 -34 -6 -49q0 -71 8 -141q0 -66 -6 -133l8 -58 q0 -5 -6 -32q-4 -28 -4 -49q0 -23 8 -62l11 -57q2 -12 14 -43q14 -35 14 -54q0 -41 -28 -71.5t-66 -30.5q-31 0 -76 29q-35 26 -49 26t-65 -26q-38 -17 -39 -17q-18 -4 -58 -10q-3 -1 -8 -2t-9 -2t-7 -2q-6 -2 -17 -2q-6 0 -12 2q-28 4 -53 6q-38 4 -52 9.5t-50 29.5 q-60 38 -75.5 51.5t-25.5 38.5q-7 19 -22 77t-15 69l4 79l-4 50q0 10 2 18q4 20 4 25q0 12 -2 22q-8 39 -8 80q0 17 4 63q4 18 4 39q0 13 -2 23q-6 24 -6 31q0 10 6 37q2 10 2 22l-8 78q-9 38 -12 74q-1 9 -2 19.5t-1.5 16t-0.5 9.5zM250 1350q0 36 22 62t52 26 q49 0 72.5 -28.5t23.5 -88.5q0 -83 -18.5 -115t-65.5 -32q-50 0 -68 38q-18 30 -18 138zM483 1358q0 34 26.5 58t63.5 24t61 -27.5t21 -64.5l-2 -21q0 -4 4 -55v-12q0 -36 -20 -61t-49 -25q-51 0 -71 23t-23 85q-4 31 -5 33q-6 38 -6 43z" />
<glyph unicode="&#xfd;" horiz-adv-x="833" d="M-4 969q0 42 28 65t80 23q59 0 103 -62q14 -20 17 -32.5t7 -67.5q0 -7 9 -39l8 -20l8 -45q2 -4 12 -29q1 -9 4 -24t4 -21q19 -57 46 -133q12 -40 12 -47l6 -37q9 -32 10 -33q2 -5 7.5 -18t7.5 -21q4 -9 10 -41q9 -63 22 -63q15 0 27 59q4 30 20 70q9 37 11 51q1 1 22 45 q12 24 21 57q24 68 32 92q10 35 25 62q11 21 23 63q4 10 14 51l4 37q6 69 40.5 106.5t94.5 37.5q48 0 79 -23.5t28 -58.5q-2 -32 -56 -129q-15 -27 -24 -49q-3 -8 -27 -52q-10 -20 -24 -65l-9 -29q-28 -60 -69 -170l-6 -20q-21 -45 -33 -92q-5 -23 -45 -107q-15 -26 -15 -27 l-59 -184q0 -5 -16 -45q-11 -22 -13 -24l-18 -60q-4 -14 -32 -41.5t-56 -46.5q-11 -8 -29 -12.5t-102 -18.5q-21 0 -67.5 8t-55.5 13q-41 18 -41 74q0 33 19.5 53.5t52.5 23.5q15 0 51 -8q20 -4 33 -4q29 0 40.5 10.5t22.5 44.5q29 83 29 101q0 15 -21 71q-4 10 -12 39 q-2 8 -16 45l-15 45q-1 4 -37 115q-9 27 -18 51q-23 82 -35 115q-15 35 -20 49l-17 51q-7 17 -26 78q-2 5 -8 22t-9 25q-6 18 -30 54q-29 54 -29 92zM348 1233q0 31 55 92q36 42 54 76q12 24 35.5 41.5t44.5 19.5q38 3 68 -24t30 -64q0 -25 -11.5 -43.5t-43.5 -46.5 q-4 -2 -31 -29q-36 -36 -57 -51q-17 -11 -37 -28q-17 -17 -35 -17q-26 0 -49 24t-23 50z" />
<glyph unicode="&#xfe;" horiz-adv-x="1040" d="M88 -109q0 33 16 89q9 30 9 38l-4 123q0 1 0.5 3.5t1.5 7t2 8.5l6 28l-10 86q0 1 0.5 5l1.5 12l2 16q2 8 2 23q0 10 -2 20q-4 50 -4 53q0 25 10 80q2 4 2 13q0 8 -2 14q-8 27 -8 37l6 82l-4 20q-2 8 -2 21q0 6 10 82q-2 17 -4 32l-3 22.5t-1 8.5l6 51q0 9 -2 19 q-2 6 -2 16q0 15 2 23q6 27 6 34q0 17 -8 48q-2 10 -2 22q8 108 8 115q0 21 -6 59q-9 40 -9 72q0 40 31.5 67t75.5 27t73 -30t29 -74q0 -28 -6 -62q-16 -80 -16 -98v-43v-21q0 -40 1.5 -48.5t10.5 -8.5q8 0 17 6q50 35 95 47.5t126 12.5q35 0 58 -5.5t89 -29.5q27 -9 43 -13 q55 -21 73 -33.5t68 -66.5q33 -37 44 -56.5t26 -64.5l8 -28q22 -64 29 -109q4 -29 8 -52.5t5 -31t1 -8.5q0 -4 -1 -19.5t-2.5 -42t-2.5 -55.5q-2 -15 -19 -87t-24 -89q-12 -31 -45.5 -81.5t-52.5 -65.5q-92 -74 -110.5 -87t-47.5 -22q-54 -14 -180 -14q-40 0 -117 30 q-35 15 -59 15q-39 0 -39 -62l2 -22q10 -38 10 -76q0 -37 -30.5 -64.5t-71.5 -27.5q-46 0 -81.5 33.5t-35.5 76.5zM291 473q0 -23 2 -33l2 -28l-2 -60q0 -98 53 -139q23 -17 73 -32t81 -15q22 0 79 11t72 18q74 36 129 172q29 71 29 178q0 24 -18 90l-35 115 q-12 26 -45 54.5t-68 43.5q-37 18 -143 18q-82 0 -144 -43q-31 -22 -44 -60t-13 -104q1 -12 1 -23t-0.5 -19.5t-0.5 -10.5q-6 -50 -6 -74t-2 -38v-21z" />
<glyph unicode="&#xff;" horiz-adv-x="833" d="M-4 969q0 42 28 65t80 23q59 0 103 -62q14 -20 17 -32.5t7 -67.5q0 -7 9 -39l8 -20l8 -45q2 -4 12 -29q1 -9 4 -24t4 -21q19 -57 46 -133q12 -40 12 -47l6 -37q9 -32 10 -33q2 -5 7.5 -18t7.5 -21q4 -9 10 -41q9 -63 22 -63q15 0 27 59q4 30 20 70q9 37 11 51q1 1 22 45 q12 24 21 57q24 68 32 92q10 35 25 62q11 21 23 63q4 10 14 51l4 37q6 69 40.5 106.5t94.5 37.5q48 0 79 -23.5t28 -58.5q-2 -32 -56 -129q-15 -27 -24 -49q-3 -8 -27 -52q-10 -20 -24 -65l-9 -29q-28 -60 -69 -170l-6 -20q-21 -45 -33 -92q-5 -23 -45 -107q-15 -26 -15 -27 l-59 -184q0 -5 -16 -45q-11 -22 -13 -24l-18 -60q-4 -14 -32 -41.5t-56 -46.5q-11 -8 -29 -12.5t-102 -18.5q-21 0 -67.5 8t-55.5 13q-41 18 -41 74q0 33 19.5 53.5t52.5 23.5q15 0 51 -8q20 -4 33 -4q29 0 40.5 10.5t22.5 44.5q29 83 29 101q0 15 -21 71q-4 10 -12 39 q-2 8 -16 45l-15 45q-1 4 -37 115q-9 27 -18 51q-23 82 -35 115q-15 35 -20 49l-17 51q-7 17 -26 78q-2 5 -8 22t-9 25q-6 18 -30 54q-29 54 -29 92zM213 1350q0 36 22 62t52 26q49 0 72.5 -28.5t23.5 -88.5q0 -83 -18.5 -115t-65.5 -32q-50 0 -68 38q-18 30 -18 138z M446 1358q0 34 27 58t64 24q36 0 60 -27.5t21 -64.5l-2 -21q0 -1 0.5 -4t1.5 -16t3 -35v-12q0 -35 -20.5 -60.5t-49.5 -25.5q-51 0 -71 23t-23 85q-1 5 -1.5 12.5t-1 12.5t-1.5 8q-2 10 -3.5 21t-2.5 16t-1 6z" />
<glyph unicode="&#x152;" horiz-adv-x="1867" d="M53 709q0 211 103 381q15 25 23.5 35.5t45.5 48.5q19 18 56 61q46 51 163 97t203 46q124 0 219 -30q110 -35 183 -111q23 -23 30 -23q5 0 10 9.5t5 19.5q0 18 -7 53q-2 6 -2 19q0 23 24 39t58 16q19 0 43 -6q12 -2 23.5 -4t17 -3t6.5 -1l91 8q145 -6 204 -12q8 0 76 14 q30 6 64 6q54 0 90.5 -26t36.5 -64q0 -46 -31 -84.5t-66 -38.5q-23 0 -53 6q-26 5 -104 14t-95 9q-14 0 -51 -6q-10 -2 -24 -2q-10 0 -48.5 4.5t-48.5 7.5q-8 2 -18 2q-8 0 -17 -9t-8 -16l11 -49l-4 -39l6 -32l-6 -54q0 -5 7.5 -26.5t10.5 -22.5q5 -5 51 -14l96 8 q13 0 46 -8q24 -4 30 -4q11 0 19 2q44 6 49 6q76 -8 96 -8q46 -2 76.5 -32.5t30.5 -74.5q0 -25 -11.5 -47t-29.5 -31q-9 -4 -54 -16l-100 25q-35 0 -82 2q-7 0 -61 8q-10 2 -21 2q-14 0 -41 -6l-51 -8q-30 -4 -42.5 -11.5t-10.5 -19.5l2 -19v-65l2 -92q-10 -69 -10 -152 l6 -88q0 -19 -8 -55q-5 -20 -5 -23q0 -22 17 -35.5t45 -13.5q29 0 45 4q14 2 33 2q5 0 139 -16q11 0 35 6q18 5 71 12q8 1 17.5 2.5t15 2.5t6.5 1q6 1 12.5 2t11 2t7.5 1q35 0 69.5 -38t35.5 -79q1 -34 -39 -58t-97 -24q-22 0 -198 14l-78 4q-23 0 -150 -16q-16 -2 -61 -2 q-115 0 -115 80q0 23 8 39q1 3 2 7t2 6.5t1 4.5q0 6 -4 11.5t-9 5.5t-24 -15q-3 -4 -5 -6.5t-5 -5.5l-4.5 -4.5t-5 -4.5t-5 -4t-7 -4.5t-8.5 -5t-11 -6.5t-13 -8q-3 -1 -7.5 -4.5t-12.5 -9.5t-15 -11q-29 -25 -119.5 -53.5t-123.5 -23.5q-194 23 -219 28q-164 41 -301 215 q-26 32 -39.5 58.5t-30.5 81.5q-2 7 -8 22.5t-15 42.5q-47 133 -47 277zM248 717q0 -103 29 -212.5t75 -180.5q30 -44 103 -107q31 -25 90 -43t110 -18q70 0 138.5 22t101.5 55q10 9 27 25.5t24 22.5q20 15 28.5 26.5t29.5 48.5q2 2 6 8t12 19.5t16 26.5q47 78 47 254 q0 86 -14.5 173.5t-36.5 133.5q-43 93 -106 147q-85 70 -127 76l-96 16q-13 0 -23 -2l-57 -2q-40 0 -68 -9t-82 -40q-133 -79 -194 -223q-14 -33 -23.5 -95.5t-9.5 -121.5z" />
</font>
</defs>
</svg>
