<!-- Generator: Adobe Illustrator 18.1.1, SVG Export Plug-In  -->
<svg version="1.1"
	 xmlns="http://www.w3.org/2000/svg" xmlns:xlink="http://www.w3.org/1999/xlink" xmlns:a="http://ns.adobe.com/AdobeSVGViewerExtensions/3.0/"
	 x="0px" y="0px" width="87.503px" height="131.996px" viewBox="0 0 87.503 131.996" enable-background="new 0 0 87.503 131.996"
	 xml:space="preserve">
<defs>
</defs>
<g id="FDBvks_1_">
	<g>
		<path fill="#0600FF" d="M44.484,0C58.508,0.386,69.95,6.054,78.556,17.338c0.261,0.343,0.624,0.606,0.903,0.937
			c0.11,0.131,0.177,0.35,0.166,0.524c-0.173,2.911,0.967,5.365,2.624,7.646c0.918,1.263,1.893,2.492,2.715,3.816
			c0.634,1.02,1.159,2.131,1.572,3.26c0.631,1.724,0.36,3.407-0.55,4.999c-1.532,2.679-3.706,4.814-5.828,7.004
			c-1.826,1.884-3.619,3.805-5.318,5.804c-0.808,0.951-1.429,2.084-2.017,3.196c-1.259,2.382-0.762,4.652,0.616,6.816
			c1.346,2.115,3.041,3.879,5.116,5.311c4.074,2.813,6.195,6.908,7.378,11.573c3.653,14.408,0.989,27.489-8.59,38.917
			c-6.716,8.011-15.396,12.797-25.761,14.368C29.245,134.896,8.159,120.227,3.715,98.22C2.134,90.39,2.683,82.691,5.364,75.154
			c0.357-1.004,0.7-2.013,1.058-3.017c0.597-1.674,0.757-3.388,0.379-5.123c-0.086-0.394-0.346-0.822-0.654-1.085
			C4.131,64.2,2.156,62.455,0.79,60.114c-0.915-1.569-1.065-3.182-0.295-4.756c0.613-1.253,1.407-2.46,2.322-3.514
			c2.355-2.714,4.886-5.276,7.223-8.004c2.058-2.402,4.176-4.78,5.637-7.632c0.865-1.689,1.153-3.473,0.405-5.227
			c-0.538-1.261-1.338-2.422-2.11-3.567c-0.761-1.129-1.657-2.165-2.453-3.271c-0.934-1.298-1.68-2.692-1.917-4.306
			C9.6,19.812,9.604,19.78,9.59,19.764c-0.809-0.903-0.026-1.514,0.434-2.134C17.594,7.405,27.699,1.59,40.361,0.26
			C41.69,0.12,43.031,0.089,44.484,0z M63.357,75.288c-0.126-0.646-0.236-1.296-0.381-1.938c-0.146-0.647-0.359-1.281-0.487-1.931
			c-0.265-1.345-0.889-2.535-1.726-3.569c-1.073-1.326-2.3-2.526-3.435-3.804c-0.855-0.963-1.736-1.913-2.487-2.955
			c-1.972-2.735-1.946-5.041-0.016-7.813c1.704-2.447,3.953-4.368,6.177-6.297c2.018-1.751,4.193-3.323,5.91-5.402
			c0.125-0.152,0.281-0.278,0.416-0.422c1.361-1.442,2.483-3.034,2.944-4.998c0.413-1.761-0.008-3.417-0.886-4.934
			c-0.92-1.588-1.886-3.109-3.311-4.385c-1.572-1.408-2.776-3.22-4.214-4.789c-0.813-0.888-1.699-1.747-2.684-2.431
			c-1.318-0.915-2.867-0.786-4.023,0.109c-1.157,0.896-1.647,2.352-1.067,3.876c0.435,1.143,1.035,2.256,1.743,3.254
			c0.788,1.11,1.577,2.211,2.633,3.159c0.964,0.866,1.315,2.296,1.456,3.659c0.186,1.798-0.351,3.431-1.42,4.806
			c-1.422,1.83-2.921,3.619-4.551,5.263c-2.001,2.02-4.225,3.817-6.249,5.816c-1.437,1.419-2.959,2.785-3.952,4.605
			c-1.06,1.944-1.157,3.906-0.005,5.794c0.743,1.217,1.669,2.332,2.587,3.431c1.112,1.33,2.401,2.522,3.426,3.911
			c0.808,1.096,1.565,2.335,1.929,3.628c0.556,1.976,0.745,4.055,1.106,6.087c0.308,1.729,0.866,3.362,2.047,4.708
			c1.917,2.184,4.463,2.137,6.296-0.118C62.618,79.776,63.131,77.608,63.357,75.288z M44.8,33.876
			c0.02-1.246-0.313-2.408-0.927-3.475c-0.207-0.36-0.637-0.586-0.883-0.931c-0.416-0.582-0.68-1.292-1.16-1.805
			c-2.329-2.493-4.678-4.97-7.096-7.375c-0.55-0.547-1.366-0.922-2.127-1.145c-2.203-0.644-4.241,1.099-3.906,3.362
			c0.13,0.879,0.527,1.755,0.962,2.544c0.652,1.181,1.674,2.107,2.498,3.151c2.792,3.535,2.934,6.329,0.577,9.72
			c-0.97,1.395-2.091,2.699-3.245,3.951c-1.66,1.8-3.405,3.523-5.128,5.264c-1.043,1.054-2.18,2.022-3.153,3.136
			c-1.104,1.264-2.181,2.577-3.07,3.994c-1.172,1.868-1.136,3.871-0.015,5.787c0.46,0.787,0.993,1.546,1.581,2.242
			c1.662,1.967,3.442,3.838,5.026,5.865c0.706,0.904,1.238,2.043,1.521,3.158c0.494,1.95,0.721,3.967,1.086,5.951
			c0.309,1.68,0.914,3.238,2.061,4.54c1.718,1.952,4.094,2.019,5.904,0.157c1.177-1.211,1.788-2.714,2.139-4.335
			c0.072-0.332,0.145-0.693,0.09-1.018c-0.241-1.424-0.648-2.829-0.771-4.26c-0.148-1.729-0.824-3.217-1.803-4.554
			c-0.977-1.334-2.144-2.528-3.214-3.796c-0.926-1.097-1.922-2.148-2.727-3.329c-1.975-2.897-1.678-5.463,0.891-8.438
			c1.29-1.493,2.745-2.846,4.155-4.233c1.43-1.405,2.872-2.8,4.352-4.151c2.066-1.885,3.782-4.05,5.269-6.401
			C44.374,36.369,44.782,35.177,44.8,33.876z M69.875,100.031c-4.132,8.311-13.9,15.818-26.732,14.949
			c-10.843-0.735-19.224-7.779-22.604-14.948c0.386-0.455,0.841-0.866,1.138-1.37c0.511-0.867,0.938-1.786,1.373-2.696
			c0.177-0.371,0.285-0.823-0.22-1.011c-0.533-0.199-0.659,0.265-0.794,0.643c-0.017,0.047-0.029,0.095-0.045,0.142
			c-0.989,2.887-2.989,4.663-5.944,5.353c-0.597,0.139-1.237,0.089-1.84,0.213c-0.215,0.044-0.376,0.348-0.562,0.533
			c0.181,0.167,0.344,0.362,0.55,0.489c0.108,0.066,0.29,0.012,0.439,0.013c1.595,0.008,3.048-0.511,4.392-1.231
			c5.464,10.758,14.004,16.929,26.152,16.931c12.172,0.002,20.727-6.188,26.173-16.945c1.398,0.79,2.895,1.286,4.519,1.224
			c0.29-0.011,0.776-0.272,0.813-0.481c0.1-0.56-0.395-0.555-0.805-0.568c-1.568-0.048-3.027-0.45-4.339-1.337
			c-1.555-1.051-2.619-2.462-3.184-4.256c-0.13-0.412-0.254-0.981-0.868-0.675c-0.172,0.086-0.253,0.613-0.182,0.887
			C67.727,97.515,68.663,98.844,69.875,100.031z"/>
	</g>
</g>
</svg>