<!-- Generator: Adobe Illustrator 18.1.1, SVG Export Plug-In  -->
<svg version="1.1"
	 xmlns="http://www.w3.org/2000/svg" xmlns:xlink="http://www.w3.org/1999/xlink" xmlns:a="http://ns.adobe.com/AdobeSVGViewerExtensions/3.0/"
	 x="0px" y="0px" width="210.718px" height="34.279px" viewBox="0 0 210.718 34.279" enable-background="new 0 0 210.718 34.279"
	 xml:space="preserve">
<defs>
</defs>
<rect x="30.053" y="28.234" transform="matrix(1 0.0035 -0.0035 1 0.1111 -0.2368)" fill="#0600FF" width="73.505" height="5.914"/>
<g>
	<path fill="#230EDB" d="M2.975,16.651V4.041H0V1.11h9.147v2.931H6.172v12.61H2.975z"/>
	<path fill="#230EDB" d="M12.708,0.422c1.11,0,2.042,0.933,2.042,2.043c0,1.109-0.932,2.042-2.042,2.042s-2.042-0.933-2.042-2.042
		C10.666,1.354,11.598,0.422,12.708,0.422z M11.088,16.651V5.817h3.175v10.834H11.088z"/>
	<path fill="#230EDB" d="M17.101,16.651V5.817h3.108v0.555c0,0.2-0.044,0.555-0.089,0.888c0.644-1.043,1.688-1.709,2.975-1.709
		c1.576,0,2.531,0.732,3.042,1.776c0.777-1.044,1.976-1.776,3.441-1.776c2.22,0,3.574,1.51,3.574,4.107v6.993h-3.108V9.88
		c0-1.177-0.844-1.776-1.688-1.776c-0.844,0-1.687,0.6-1.687,1.865v6.683h-3.108V9.813c0-1.11-0.777-1.644-1.599-1.644
		c-0.844,0-1.709,0.578-1.754,1.688v6.794H17.101z"/>
	<path fill="#230EDB" d="M38.397,11.9c0.222,1.798,1.332,2.464,2.553,2.464c1.199,0,2.02-0.555,2.553-1.332l2.065,1.488
		c-1.155,1.554-2.331,2.353-4.796,2.353c-3.175,0-5.506-2.331-5.506-5.661c0-3.086,2.087-5.639,5.417-5.639
		c3.663,0,5.106,2.619,5.106,5.949V11.9H38.397z M38.486,9.991h4.285c-0.2-1.243-1.155-1.888-2.109-1.888
		C39.662,8.104,38.796,8.726,38.486,9.991z"/>
	<path fill="#230EDB" d="M64.124,11.522c-0.089,0.556-0.222,1.11-0.488,1.799l-1.288,3.33h-2.953L53.423,1.11h3.108l4.041,10.523
		c0.289,0.799,0.377,1.199,0.489,1.799c0.111-0.6,0.177-1.021,0.466-1.776l1.043-2.664L59.528,1.11h2.931l1.221,3.241
		c0.222,0.666,0.4,1.243,0.466,1.731c0.067-0.488,0.222-1.065,0.466-1.731l1.221-3.241h2.931l-3.042,7.882l1.043,2.664
		c0.289,0.755,0.355,1.177,0.466,1.776c0.111-0.6,0.178-1,0.489-1.799L71.761,1.11h3.108l-5.972,15.541h-2.953l-1.288-3.33
		c-0.267-0.688-0.4-1.243-0.489-1.799H64.124z"/>
	<path fill="#230EDB" d="M78.229,0.422c1.11,0,2.042,0.933,2.042,2.043c0,1.109-0.932,2.042-2.042,2.042s-2.042-0.933-2.042-2.042
		C76.186,1.354,77.118,0.422,78.229,0.422z M76.608,16.651V5.817h3.175v10.834H76.608z"/>
	<path fill="#230EDB" d="M85.729,16.651h-3.108V5.817h3.108V6.55c0,0.178-0.022,0.444-0.067,0.755
		c0.71-1.021,1.798-1.754,3.286-1.754c2.242,0,3.93,1.754,3.93,4.662v6.438h-3.13v-6.261c0-1.51-0.955-2.287-1.998-2.287
		c-0.933,0-1.976,0.755-2.021,2.198V16.651z"/>
	<path fill="#230EDB" d="M102.952,16.651V15.23c-0.866,1.021-2.02,1.643-3.286,1.643c-3.042,0-4.685-2.753-4.685-5.684
		c0-2.886,1.709-5.616,4.707-5.616c1.199,0,2.309,0.443,3.153,1.332V0h3.108v16.651H102.952z M102.886,11.212
		c0-1.665-0.955-2.864-2.398-2.864c-1.621,0-2.42,1.288-2.42,2.887c0,1.576,0.822,2.886,2.42,2.886
		C101.909,14.12,102.886,12.699,102.886,11.212z"/>
	<path fill="#230EDB" d="M108.043,11.212c0-3.219,2.487-5.639,5.661-5.639s5.661,2.42,5.661,5.639c0,3.22-2.487,5.64-5.661,5.64
		S108.043,14.432,108.043,11.212z M116.324,11.212c0-1.643-1.043-2.864-2.62-2.864c-1.599,0-2.642,1.222-2.642,2.864
		c0,1.665,1.088,2.887,2.642,2.887C115.281,14.099,116.324,12.877,116.324,11.212z"/>
	<path fill="#230EDB" d="M138.116,5.817l-3.73,10.834h-3.53l-1.621-5.062c-0.111-0.312-0.222-0.889-0.244-0.999l-0.267,0.999
		l-1.665,5.062h-3.53c-1.221-3.597-2.442-7.216-3.641-10.834h3.353l1.687,5.972c0.156,0.6,0.311,1.31,0.355,1.443
		c0.022-0.111,0.178-0.8,0.377-1.443l1.754-5.972h3.153l1.709,5.972c0.178,0.644,0.311,1.377,0.333,1.466
		c0.022-0.089,0.2-0.8,0.399-1.466l1.732-5.972H138.116z"/>
	<path fill="#230EDB" d="M147.213,16.651V1.11h8.303v1.465h-6.749v5.24h5.395V9.28h-5.395v7.394L147.213,16.651z"/>
	<path fill="#230EDB" d="M166.04,12.012h-8.237c0.177,2.286,1.843,3.485,3.685,3.485c1.643,0,2.775-0.8,3.397-1.731l1.088,0.91
		c-0.932,1.221-2.131,2.197-4.485,2.197c-3.153,0-5.195-2.375-5.195-5.306s1.998-5.307,5.018-5.307c3.13,0,4.729,2.354,4.729,4.974
		V12.012z M157.825,10.835h6.661c-0.222-1.954-1.288-3.242-3.175-3.242C159.557,7.593,158.092,8.726,157.825,10.835z"/>
	<path fill="#230EDB" d="M172.594,8.393c-0.244-0.488-0.755-0.8-1.465-0.8c-0.666,0-1.31,0.444-1.31,1.311
		c0,0.821,0.977,1.332,2.065,1.843c1.376,0.644,2.886,1.51,2.886,3.175c0,1.576-1.132,2.952-3.397,2.952
		c-1.554,0-3.064-0.799-3.819-2.242l1.332-0.621c0.533,0.999,1.51,1.576,2.487,1.576c1.243,0,1.865-0.711,1.865-1.555
		c0-0.821-0.777-1.421-1.776-1.864c-1.465-0.645-3.153-1.399-3.153-3.197c0-1.754,1.421-2.664,2.842-2.664
		c1.11,0,2.22,0.488,2.686,1.465L172.594,8.393z"/>
	<path fill="#230EDB" d="M177.793,16.651V7.859h-1.776V6.527h1.776V2.221h1.554v4.307h1.776v1.332h-1.776v8.792H177.793z"/>
	<path fill="#230EDB" d="M183.797,2.664c0.688,0,1.266,0.577,1.266,1.266s-0.577,1.266-1.266,1.266s-1.265-0.577-1.265-1.266
		S183.109,2.664,183.797,2.664z M183.021,16.651V6.527h1.554v10.124H183.021z"/>
	<path fill="#230EDB" d="M190.461,16.651l-4.196-10.124h1.665l3.263,7.926l3.508-7.926h1.687l-4.44,10.124H190.461z"/>
	<path fill="#230EDB" d="M206.786,16.651c-1.155,0-1.909-0.711-2.042-1.754c-0.71,0.977-1.932,1.976-4.107,1.976
		c-4.707,0-4.773-5.861,0.044-6.35c1.865-0.178,3.464,0.178,4.063,0.355V10.19c0-1.599-1.11-2.619-2.82-2.619
		c-0.977,0-2.131,0.466-2.775,1.398l-1.177-0.91c0,0,1.221-1.909,3.952-1.909c2.642,0,4.24,1.599,4.24,4.04v4.396
		c0,0.377,0.244,0.621,0.622,0.621h0.2v1.443H206.786z M204.744,12.056c-0.489-0.111-2.242-0.444-3.907-0.267
		c-2.753,0.311-3.153,3.73,0,3.73C203.567,15.52,204.677,13.433,204.744,12.056z"/>
	<path fill="#230EDB" d="M209.164,16.651V0h1.554v16.651H209.164z"/>
</g>
</svg>