<!-- Generator: Adobe Illustrator 18.1.1, SVG Export Plug-In  -->
<svg version="1.1"
	 xmlns="http://www.w3.org/2000/svg" xmlns:xlink="http://www.w3.org/1999/xlink" xmlns:a="http://ns.adobe.com/AdobeSVGViewerExtensions/3.0/"
	 x="0px" y="0px" width="68.925px" height="30.395px" viewBox="0 0 68.925 30.395" enable-background="new 0 0 68.925 30.395"
	 xml:space="preserve">
<defs>
</defs>
<rect x="0.01" y="24.444" transform="matrix(1 0.0035 -0.0035 1 0.0973 -0.036)" fill="#0600FF" width="20.364" height="5.914"/>
<g>
	<g>
		<path fill="#230EDB" d="M3.697,16.229v-2.886h1.998V4.13L4.207,4.906L3.009,2.331l3.419-1.643h2.42v12.655h2.02v2.886H3.697z"/>
		<path fill="#230EDB" d="M12.613,11.745c0-1.354,0.644-3.264,2.708-4.196c-0.955-0.6-1.643-1.599-1.643-3.063
			c0-1.999,1.421-4.019,4.44-4.019c2.975,0,4.44,1.998,4.44,3.996c0,1.487-0.666,2.486-1.599,3.086
			c2.065,0.933,2.642,2.842,2.642,4.174c0,2.354-1.754,4.729-5.484,4.729C14.367,16.451,12.613,14.099,12.613,11.745z
			 M20.428,11.434c0-1.243-0.799-2.42-2.309-2.42c-1.532,0-2.353,1.177-2.353,2.42c0,1.288,0.821,2.31,2.353,2.31
			C19.607,13.743,20.428,12.722,20.428,11.434z M19.629,4.662c0-0.932-0.555-1.709-1.51-1.709c-0.999,0-1.554,0.777-1.554,1.709
			c0,0.999,0.51,1.821,1.554,1.821S19.629,5.661,19.629,4.662z"/>
		<path fill="#230EDB" d="M28.794,21.047l2.042-1.953c0.244,0.755,0.755,1.021,1.31,1.021c0.799,0,1.288-0.667,1.288-1.688
			L33.411,5.396h3.175v13.188c0,2.553-1.599,4.507-4.307,4.507C30.814,23.09,29.46,22.424,28.794,21.047z M34.988,0.2
			c1.11,0,2.042,0.933,2.042,2.042c0,1.11-0.932,2.043-2.042,2.043s-2.042-0.933-2.042-2.043C32.945,1.133,33.878,0.2,34.988,0.2z"
			/>
		<path fill="#230EDB" d="M49.533,16.229h-3.108v-0.732c0-0.178,0.022-0.444,0.067-0.755c-0.71,1.021-1.821,1.754-3.286,1.754
			c-2.242,0-3.93-1.754-3.93-4.662V5.396h3.13v6.261c0,1.51,0.955,2.286,1.998,2.286c0.932,0,1.954-0.732,2.02-2.197v-6.35h3.108
			V16.229z"/>
		<path fill="#230EDB" d="M55.387,16.229h-3.108V5.396h3.108v0.732c0,0.178-0.022,0.444-0.067,0.755
			c0.71-1.021,1.798-1.754,3.286-1.754c2.242,0,3.93,1.754,3.93,4.662v6.438h-3.13V9.969c0-1.51-0.955-2.287-1.998-2.287
			c-0.933,0-1.976,0.755-2.021,2.198V16.229z"/>
		<path fill="#230EDB" d="M66.882,0c1.11,0,2.042,0.933,2.042,2.043c0,1.109-0.932,2.042-2.042,2.042S64.84,3.152,64.84,2.043
			C64.84,0.933,65.772,0,66.882,0z M65.262,16.229V5.396h3.175v10.834H65.262z"/>
	</g>
</g>
</svg>