<!-- Generator: Adobe Illustrator 18.1.1, SVG Export Plug-In  -->
<svg version="1.1"
	 xmlns="http://www.w3.org/2000/svg" xmlns:xlink="http://www.w3.org/1999/xlink" xmlns:a="http://ns.adobe.com/AdobeSVGViewerExtensions/3.0/"
	 x="0px" y="0px" width="292.262px" height="141.485px" viewBox="0 0 292.262 141.485" enable-background="new 0 0 292.262 141.485"
	 xml:space="preserve">
<defs>
</defs>
<path fill="#0600FF" d="M292.262,139.993c-0.123,0.001-0.243,0.001-0.366,0.002v-5.274h-29.523v6.679l29.616,0.086
	C292.099,140.994,292.19,140.497,292.262,139.993z"/>
<path fill="#0600FF" d="M32.989,141.4v-6.679H0.001v6.679c0,0.029-0.001,0.057-0.001,0.086L32.989,141.4z"/>
<path fill="#0600FF" d="M151.015,31.66c0,0-0.152-22.283-0.218-31.66c-3.567,0.025-6.348,0.044-9.649,0.067
	c0.066,9.471,0.415,31.593,0.415,31.593H151.015z"/>
<path fill="#0600FF" d="M223.101,20.679c-2.715-1.518-5.125-2.865-7.865-4.397c-4.945,8.668-9.767,17.12-14.763,25.878
	c2.715,1.475,5.081,2.762,7.837,4.259C213.373,37.609,218.151,29.294,223.101,20.679z"/>
<path fill="#0600FF" d="M92.116,42.919c-5.135-8.672-10.113-17.079-15.233-25.724c-2.77,1.745-5.121,3.226-7.531,4.744
	c5.188,8.71,10.195,17.114,15.155,25.441C87.311,45.736,89.571,44.411,92.116,42.919z"/>
<path fill="#0600FF" d="M253.71,87.445c7.223-3.956,14.314-8.152,21.579-12.356c-1.702-2.798-3.062-5.033-4.65-7.644
	c-8.28,4.85-15.996,9.37-23.834,13.961c1.306,1.999,2.147,3.8,3.471,5.114C251.032,87.271,252.928,87.873,253.71,87.445z"/>
<path fill="#0600FF" d="M46.469,82.825c-8.226-4.63-16.128-9.078-24.289-13.671c-1.491,2.734-2.731,5.009-4.229,7.757
	c7.95,4.477,15.715,8.85,23.687,13.34C43.4,87.542,44.808,85.378,46.469,82.825z"/>
</svg>