<!-- Generator: Adobe Illustrator 18.1.1, SVG Export Plug-In  -->
<svg version="1.1"
	 xmlns="http://www.w3.org/2000/svg" xmlns:xlink="http://www.w3.org/1999/xlink" xmlns:a="http://ns.adobe.com/AdobeSVGViewerExtensions/3.0/"
	 x="0px" y="0px" width="713.551px" height="729.526px" viewBox="0 0 713.551 729.526" enable-background="new 0 0 713.551 729.526"
	 xml:space="preserve">
<defs>
</defs>
<g>
	<path fill="#0600FF" d="M695.82,419.292c-0.549-0.233-1.182-0.408-1.738-0.637c-12.532-5.148-25.205-10.199-37.552-15.475
		c-17.517-7.485-31.908-16.319-33.051-29.074c-1.473-16.434-19.604-26.578-42.538-35.157c-14.671-5.488-29.932-10.542-44.14-16.357
		c-22.602-9.248-22.289-16.025,0.148-25.602c4.399-1.878,9.042-3.588,13.605-5.352c11.69-4.519,23.472-8.969,35.082-13.546
		c21.354-8.419,32.143-19.923,34.167-34.185c-0.215,0.001-0.423,0.002-0.637,0.003v-9.189h-51.437v11.637h23.733
		c-0.018,0.845-0.011,1.643,0.128,2.429c2.007,11.42-8.008,19.766-23.77,26.377c-11.047,4.633-22.906,8.694-34.281,13.103
		c-11.636,4.509-23.865,8.681-34.472,13.826c-11.045,5.356-10.319,10.439,0.045,16.194c2.427,1.348,5.086,2.63,7.976,3.666
		c18.614,6.673,37.479,13.144,55.956,19.925c19.154,7.029,34.444,15.706,36.134,29.084c1.729,13.694,14.143,23.904,33.812,31.937
		c12.552,5.127,25.142,10.227,37.608,15.415c25.981,10.812,25.948,18.355-0.578,28.694c-14.165,5.521-29.167,10.413-43.29,15.964
		c-16.748,6.583-31.576,14.08-33.11,27.184c-7.952,0.034-14.813,0.064-21.774,0.094c0.037,3.27,0.067,9.332,0.097,11.956
		c15.588-0.068,30.423-0.421,46.388-0.491c-6.129-18.611,13.804-32.171,38.534-41.19c13.045-4.758,26.596-9.15,39.103-14.29
		C719.59,436.528,719.282,429.25,695.82,419.292z"/>
	<path fill="#0600FF" d="M240.983,415.71c-13.165-5.57-27.78-10.364-42.133-15.237c-24.073-8.175-45.483-17.086-53.116-31.923
		c-2.1-4.082-9.297-7.929-15.925-10.979c-8.704-4.004-18.893-7.307-28.92-10.567c-20.347-6.616-41.813-12.487-61.318-19.627
		c-18.435-6.748-17.582-13.31-0.015-20.527c3.866-1.588,8.063-3.005,12.299-4.36c17.572-5.621,35.437-11.033,52.787-16.809
		c28.357-9.441,41.163-22.279,34.806-39.322h28.628v-11.637h-57.474v11.637c0.036,2.905-1.3,5.6,0.346,7.757
		c5.632,7.378,2.257,14.416-7.605,19.526c-13.706,7.102-29.902,13.177-46.035,19.043C42.69,298,26.202,302.1,11.506,307.371
		c-14.716,5.277-15.057,11.545-2.505,17.814c3.518,1.757,7.333,3.448,11.515,4.806c20.683,6.715,41.612,13.252,62.304,19.961
		c17.416,5.647,33.577,11.919,39.53,22.325c4.689,8.197,14.649,14.653,28.193,19.722c17.574,6.578,35.743,12.783,53.681,19.132
		c30.477,10.788,30.508,17.93-0.332,28.592c-19.057,6.589-38.942,12.633-57.589,19.477c-28.737,10.548-37.276,28.126-26.719,45.266
		c16.7-0.065,32.77-0.129,49.305-0.193c-0.038-2.999-0.07-8.936-0.111-12.174c-8.514,0.033-15.933,0.064-24.061,0.095
		c-3.55-10.71-0.48-19.995,15.288-27.344c8.982-4.186,18.793-8.013,28.874-11.572c16.715-5.902,34.551-11.085,50.8-17.262
		C257.315,429.314,257.719,422.791,240.983,415.71z"/>
	<path fill="#0600FF" d="M498.481,593.188c-37.95-34.484-75.971-69.032-114.866-104.374c7.106-2.921,13.208-5.429,19.473-8.004
		c-1.95-5.548-3.616-10.287-5.438-15.471c-8.46,2.476-26.425,10.694-26.425,10.694s-13.959-10.389-21.097-17.141
		c-2.633,2.89-5.214,5.722-7.774,8.533c4.153,3.81,7.799,7.154,12.491,11.458c-28.1,9.636-54.624,18.732-81.214,27.85
		c2.034,5.831,3.705,10.621,5.712,16.374c24.245-8.131,47.414-16.076,70.735-23.546c3.793-1.215,18.983-7.351,18.983-7.351
		s9.401,8.473,11.012,9.935c34.282,31.127,68.465,62.363,102.525,93.731C491.25,603.846,491.523,604.02,498.481,593.188z"/>
	<path fill="#0600FF" d="M367.22,677.333c-1.921,0.503-4.676,3.068-4.704,4.745c-0.253,15.663,0.004,31.333,0.116,47.448
		c5.712-0.04,10.44-0.073,15.613-0.109c-0.124-17.789-0.243-34.861-0.365-52.371C373.8,677.075,370.331,676.52,367.22,677.333z"/>
	<path fill="#0600FF" d="M373.71,51.26c0,0-0.265-34.922-0.379-51.26c-6.214,0.043-11.06,0.077-16.811,0.117
		c0.115,16.502-0.059,35.134,0.724,51.143C357.335,53.126,373.71,51.26,373.71,51.26z"/>
	<path fill="#0600FF" d="M499.306,36.029c-4.729-2.644-8.929-4.992-13.703-7.661c-8.615,15.101-17.016,29.829-25.721,45.087
		c4.73,2.571,8.853,4.812,13.653,7.421C482.355,65.527,490.68,51.039,499.306,36.029z"/>
	<path fill="#0600FF" d="M240.388,693.942c4.198,2.497,8.196,4.876,12.921,7.687c8.478-14.715,16.792-29.146,25.365-44.025
		c-4.471-2.484-8.344-4.637-13.305-7.394C256.892,665.051,248.744,679.316,240.388,693.942z"/>
	<path fill="#0600FF" d="M470.335,651.601c-2.698,0.646-4.944,3.184-7.864,5.235c8.72,14.78,17.027,28.859,25.577,43.352
		c4.503-2.857,8.452-5.363,12.606-7.999c-7.609-13.219-14.838-26.211-22.658-38.837
		C476.984,651.719,472.699,651.035,470.335,651.601z"/>
	<path fill="#0600FF" d="M271.091,74.778c-8.947-15.109-17.621-29.757-26.54-44.819c-4.826,3.04-8.923,5.62-13.12,8.265
		c9.04,15.174,17.763,29.818,26.405,44.325C262.719,79.685,266.657,77.377,271.091,74.778z"/>
	<path fill="#0600FF" d="M552.635,152.354c12.584-6.893,24.939-14.203,37.596-21.529c-2.966-4.876-5.334-8.768-8.102-13.317
		c-14.426,8.45-27.87,16.324-41.526,24.324c2.276,3.483,3.741,6.62,6.047,8.909C547.969,152.051,551.273,153.101,552.635,152.354z"
		/>
	<path fill="#0600FF" d="M540.411,589.113c13.125,7.469,26.262,14.946,40.171,22.861c2.471-4.351,4.753-8.369,7.468-13.149
		c-10.016-5.692-19.538-11.219-29.17-16.549C546.937,575.667,546.898,575.738,540.411,589.113z"/>
	<path fill="#0600FF" d="M191.561,144.305c-14.331-8.066-28.1-15.816-42.319-23.819c-2.598,4.764-4.757,8.726-7.369,13.516
		c13.851,7.801,27.381,15.42,41.269,23.242C186.214,152.523,188.667,148.753,191.561,144.305z"/>
	<path fill="#0600FF" d="M151.853,601.878c2.735,4.755,5.053,8.785,7.512,13.06c13.731-8.032,26.834-15.697,40.548-23.719
		c-2.647-4.11-5.14-7.982-8.094-12.569C178.264,586.528,165.22,594.109,151.853,601.878z"/>
</g>
<g>
	<path fill="#0600FF" d="M82.916,120.234V66.846H70.321V54.438h38.726v12.407H96.451v53.389H82.916z"/>
</g>
<g>
	<path fill="#0600FF" d="M657.277,633.377c-0.376,2.35-0.94,4.7-2.068,7.613l-5.452,14.1h-12.501l-25.284-65.796h13.159
		l17.107,44.554c1.222,3.383,1.598,5.075,2.068,7.613c0.47-2.538,0.752-4.324,1.974-7.52l4.418-11.279l-12.877-33.368h12.407
		l5.17,13.724c0.94,2.819,1.692,5.264,1.974,7.331c0.282-2.067,0.94-4.512,1.974-7.331l5.169-13.724h12.407l-12.877,33.368
		l4.417,11.279c1.222,3.195,1.504,4.981,1.974,7.52c0.47-2.538,0.752-4.23,2.068-7.613l17.107-44.554h13.159l-25.285,65.796h-12.501
		l-5.452-14.1c-1.128-2.913-1.692-5.264-2.068-7.613H657.277z"/>
</g>
</svg>