<?xml version="1.0" standalone="no"?>
<!DOCTYPE svg PUBLIC "-//W3C//DTD SVG 1.1//EN" "http://www.w3.org/Graphics/SVG/1.1/DTD/svg11.dtd" >
<svg>
<metadata>
Created by FontForge 20110222 at Wed Jul  2 10:13:28 2014
 By deploy user
Copyright (c) 2013 by Renzler Design. All rights reserved.
</metadata>
<defs>
<font id="LoveloBlack" horiz-adv-x="671" >
  <font-face 
    font-family="Lovelo Black"
    font-weight="900"
    font-stretch="normal"
    units-per-em="1000"
    panose-1="2 0 0 0 0 0 0 0 0 0"
    ascent="750"
    descent="-250"
    x-height="715"
    cap-height="715"
    bbox="-60 -301.148 1039 975"
    underline-thickness="50"
    underline-position="-50"
    unicode-range="U+0009-20AC"
  />
<missing-glyph horiz-adv-x="720" 
 />
    <glyph glyph-name=".notdef" horiz-adv-x="720" 
 />
    <glyph glyph-name=".null" horiz-adv-x="0" 
 />
    <glyph glyph-name="nonmarkingreturn" horiz-adv-x="333" 
 />
    <glyph glyph-name="controlHT" unicode="&#x9;" horiz-adv-x="284" 
 />
    <glyph glyph-name="controlHT" unicode=" " horiz-adv-x="284" 
 />
    <glyph glyph-name="controlHT" unicode="&#xd;" horiz-adv-x="284" 
 />
    <glyph glyph-name="exclam" unicode="!" horiz-adv-x="276" 
d="M223 73q0 -40 -26 -60q-25 -19 -57 -19q-28 0 -56 20q-25 21 -25 59q0 39 26 59t56 20q32 0 56 -20q26 -19 26 -59zM64 450v265h154v-265q-6 -83 -10 -121q-5 -73 -10 -115h-113q-2 21 -6 62.5t-5 52.5q-6 77 -10 121z" />
    <glyph glyph-name="quotedbl" unicode="&#x22;" horiz-adv-x="390" 
d="M72 494v220h130l-15 -220h-115zM272 494v220h130l-15 -220h-115z" />
    <glyph glyph-name="numbersign" unicode="#" 
d="M189 176l-27 -192h136l25 192h84l-28 -192h136l26 192h103l-1 129h-82l12 103h102l-1 129h-81l25 192h-134l-28 -192h-81l26 192h-134l-28 -192h-101l-1 -129h85l-15 -103h-100l-1 -129h83zM438 408l-13 -103h-83l15 103h81z" />
    <glyph glyph-name="dollar" unicode="$" horiz-adv-x="529" 
d="M47 46l18 150q61 -43 120 -52q62 -8 84 -5q32 3 54 22q23 20 20 50q-3 31 -24 46q-22 17 -50 27q-32 12 -81 34q-39 20 -68 44q-27 24 -46 61q-17 37 -17 79q0 74 41 132q41 56 108 77v96h127v-90q41 -5 104 -27l-18 -138q-60 24 -95 27q-34 3 -51 3q-39 -3 -57 -27
q-17 -23 -14 -53q3 -29 26 -46q26 -16 54 -26q82 -29 145 -83q62 -50 62 -136q0 -75 -42 -132q-41 -55 -114 -76v-97h-127v91q-31 4 -74 15q-48 14 -85 34z" />
    <glyph glyph-name="percent" unicode="%" horiz-adv-x="1103" 
d="M54 510q0 -13 4 -45q4 -19 12 -41q10 -23 20 -37q8 -11 28 -33q22 -20 34 -28q9 -6 37 -20q23 -8 41 -11q14 -2 44 -4q30 2 44 4q22 4 40 12q17 7 37 20q19 13 34 28q16 15 29 34q15 21 20 37q9 21 12 40q4 20 4 44q0 27 -4 44q-3 22 -12 40q-7 20 -21 37q-12 19 -28 34
q-15 16 -34 28q-17 13 -37 21q-18 9 -40 12q-17 4 -44 4q-24 0 -45 -4q-19 -3 -41 -12q-17 -6 -37 -20q-18 -13 -33 -28q-16 -16 -28 -34q-10 -14 -20 -37q-7 -18 -12 -41q-4 -26 -4 -44zM190 510q0 7 2 17l4 16q4 8 8 14q2 2 5.5 6.5t5.5 6.5t6.5 5.5t6.5 5.5q6 5 14 7
q14 4 16 5q8 3 17 1q12 0 17 -2q10 -2 16 -4q7 -1 14 -8q6 -3 12 -10q8 -8 11 -13q5 -5 7 -15q4 -10 5 -16q3 -6 1 -16q0 -11 -2 -17l-4 -16q-1 -6 -8 -14q-3 -6 -10 -13q-3 -3 -13 -11q-7 -5 -14 -7l-15 -5q-2 0 -8 -0.5t-9 -0.5q-6 0 -18 2q-6 2 -16 4q-7 5 -14 8
q-1 1 -13 10q-2 2 -5.5 6.5t-5.5 6.5q-1 3 -3.5 8l-3.5 7q-1 8 -5 15q0 3 -0.5 9t-0.5 8zM284 -20h121l404 750h-120zM599 199q2 -30 4 -44q4 -19 12 -41q6 -13 20 -37q15 -20 28 -33q18 -18 33 -28q12 -8 38 -20q22 -8 40 -12q28 -4 45 -4q15 0 43 4q22 5 41 12q20 8 37 21
q24 18 34 28q20 18 29 34q14 23 20 37q9 21 12 40q4 20 4 43q0 25 -4 44q-3 22 -12 41q-7 19 -20 37q-10 18 -29 34q-12 14 -34 28q-21 14 -38 20q-20 9 -40 12q-19 4 -43 4q-26 0 -45 -4q-20 -3 -41 -12q-19 -8 -37 -20q-18 -11 -33 -27q-10 -10 -28 -34q-14 -24 -20 -38
q-8 -20 -12 -40q-2 -15 -4 -45zM735 199q0 7 2 17q2 6 4 16q2 6 8 14q6 9 10 13q12 10 14 11q8 7 14 8q2 1 5.5 2t5.5 2t4 1q8 3 17 1q12 0 17 -2q10 -2 16 -4q7 -1 14 -8q8 -3 13 -11q8 -5 11 -13q7 -7 8 -15q5 -7 5 -15q3 -7 1 -17q0 -11 -2 -17q-1 -5 -5 -15
q-4 -8 -8 -14q-3 -6 -10 -13q-3 -5 -13 -11q-12 -6 -15 -7l-15 -5q-10 -2 -17 -2q-5 0 -17 2q-6 2 -16 4q-4 2 -14 8q-6 5 -13 10q-3 5 -11 13q-1 3 -7 15q-1 2 -2 5.5t-1.5 5.5t-1.5 4q-1 6 -1 17z" />
    <glyph glyph-name="ampersand" unicode="&#x26;" horiz-adv-x="779" 
d="M708 219v1l74 16l-35 147l-303 -74l36 -145l57 13q-2 -3 -7 -13q-1 -4 -8 -13q-2 -3 -10 -11q-7 -7 -11 -9q-5 -6 -13 -9q-6 -3 -15 -6q-12 -3 -15 -4q-10 0 -16 -1q-6 1 -20 3q-3 1 -9.5 2.5t-9.5 2.5q-9 6 -18 9q-3 2 -8 6.5t-7 6.5q-10 10 -14 16q-6 8 -9 17
q-1 3 -2.5 9.5t-2.5 9.5q-2 16 -2 19q0 2 0.5 6t0.5 5q1 4 1 10q3 6 3 9q3 4 3 10l2.5 5t2.5 4q1 2 3 4.5t2 3.5q3 6 5 8l7 7l7 7q4 2 8 6q2 1 4.5 3t3.5 2l5 2.5t4 1.5q4 3 9 3q6 3 10 3q6 3 10 1q7 3 10 0l22 23q6 3 9 9l11 11q9 9 14 13l15 15q4 4 10 10.5t9 9.5l22 22
q12 14 26 26l30 30l-167 -1q-4 2 -15 2q-11 3 -14 4q-8 5 -13 7q-4 3 -11 10q-3 4 -11 12q-2 5 -7 13q-1 3 -4 14q0 3 -0.5 8t-0.5 7q0 3 0.5 8t0.5 7q1 9 4 14q2 5 8 13q4 4 10 12l12 9q7 5 13 7q3 1 14 4q10 3 14 1q8 3 13 -1q4 0 12 -2q6 0 11 -4q6 -3 9 -6l95 134
q-16 13 -33 20q-10 6 -34 14q-18 7 -35 8q-18 3 -38 3q-16 0 -24 -2q-12 0 -24 -3q-4 -1 -11.5 -3t-11.5 -3q-12 -4 -22 -9q-13 -4 -22 -10q-6 -4 -20 -12q-8 -4 -18 -14q-6 -4 -17 -15q-2 -2 -7.5 -8t-8.5 -9q-6 -6 -14 -19q-4 -6 -12 -20q-1 -3 -4.5 -10l-5.5 -11
q-1 -3 -3.5 -10t-4.5 -12q-2 -7 -6 -23q-2 -9 -3 -24q0 -4 -0.5 -11.5t-0.5 -11.5t0.5 -12t0.5 -11q2 -12 2 -21q4 -14 5 -21q3 -9 6 -21q6 -12 8 -19q6 -12 10 -18q7 -8 11 -17l12 -15q-6 -6 -18 -20q-4 -4 -16 -20q-4 -6 -14 -22q-7 -14 -11 -24q-5 -10 -10 -25
q-1 -2 -3.5 -11t-3.5 -15q-2 -19 -4 -27q0 -4 -0.5 -13t-0.5 -14q0 -10 2 -28q2 -8 4 -26q2 -8 6 -26q5 -12 9 -25q2 -4 11 -23q2 -4 7 -11.5l7 -10.5q8 -8 15 -20q12 -12 17 -18q7 -6 19 -18q9 -5 20 -16q10 -5 22 -13q4 -2 11.5 -5.5t11.5 -5.5q10 -3 26 -9q2 0 25 -7
q18 -2 27 -4h26q19 0 28 1q10 2 26 4q10 2 26 6q14 4 24 9l24 12q16 8 22 13l20 15q7 6 19 18t17 18q9 12 15 21q6 8 14 22q8 13 11 22q7 17 9 26q2 6 7 26q2 10 4 26q3 12 1 27z" />
    <glyph glyph-name="quotesingle" unicode="'" horiz-adv-x="200" 
d="M72 494v220h130l-15 -220h-115z" />
    <glyph glyph-name="parenleft" unicode="(" horiz-adv-x="356" 
d="M183 775q-37 -54 -65 -107q-27 -54 -47 -107q-18 -54 -27 -112q-7 -53 -7 -123q5 -77 13 -130q10 -63 26 -114q16 -47 44 -107q29 -55 63 -110h177q-41 53 -76 111q-30 57 -51 114q-21 68 -31 116q-10 67 -14 117q-3 53 7 116q14 68 32 118q22 58 56 114q39 62 77 104
h-177z" />
    <glyph glyph-name="parenright" unicode=")" horiz-adv-x="354" 
d="M200 775q39 -57 64 -107q27 -47 47 -107q18 -54 27 -112q9 -57 6 -123q-2 -70 -12 -130q-10 -63 -26 -114q-15 -49 -44 -107q-35 -66 -62 -110h-178q48 59 76 111q32 57 51 114q22 56 31 116q12 60 15 117q3 55 -8 116q-7 60 -32 118q-20 58 -56 114q-31 57 -77 104h178z
" />
    <glyph glyph-name="asterisk" unicode="*" horiz-adv-x="470" 
d="M224 352l-109 79l67 74v2l-98 20l41 129l91 -42l-10 101h136l-11 -100l92 40l42 -126l-99 -22v-1l68 -75l-109 -78l-50 85l-2 1z" />
    <glyph glyph-name="plus" unicode="+" horiz-adv-x="646" 
d="M278 500h-210v-156h210v-209h157v210h209v155h-209v215h-157v-215z" />
    <glyph glyph-name="comma" unicode="," horiz-adv-x="240" 
d="M72 110h148l-78 -226h-112z" />
    <glyph glyph-name="hyphen" unicode="-" horiz-adv-x="454" 
d="M76 275v133h364v-133h-364z" />
    <glyph glyph-name="period" unicode="." horiz-adv-x="244" 
d="M139 154q42 0 61 -26q19 -23 19 -55q0 -29 -21 -55q-22 -25 -59 -25q-39 0 -61 25q-20 26 -20 55q0 30 20 56q19 25 61 25z" />
    <glyph glyph-name="slash" unicode="/" horiz-adv-x="422" 
d="M148 0h-148l281 715h148z" />
    <glyph glyph-name="zero" unicode="0" horiz-adv-x="597" 
d="M349 -10q-64 0 -113 29q-49 31 -77 78t-42 117q-13 73 -13 144q0 70 13 142q14 69 43 117q30 51 76 79q46 29 113 29q68 0 113 -29q45 -27 76 -79q31 -51 44 -117q13 -57 13 -142q0 -81 -14 -144q-14 -67 -43 -117q-30 -50 -77 -79q-46 -28 -112 -28zM349 125q60 0 84 68
q24 69 24 165t-24 165q-24 68 -84 68q-59 0 -83 -69q-23 -71 -23 -164q0 -94 23 -165q24 -68 83 -68z" />
    <glyph glyph-name="one" unicode="1" horiz-adv-x="370" 
d="M60 571v143h259v-714h-142v571h-117z" />
    <glyph glyph-name="two" unicode="2" horiz-adv-x="521" 
d="M279 424q28 40 36 83q0 31 -22 50q-21 21 -52 22q-21 1 -50 -5q-24 -6 -49 -15q-28 -11 -41 -20q-15 -9 -25 -17l-35 138q45 32 100 49q59 19 112 16q79 -5 130 -39q52 -33 73 -84q21 -52 11 -114q-9 -62 -54 -125l-141 -218h212v-145h-472z" />
    <glyph glyph-name="three" unicode="3" horiz-adv-x="500" 
d="M191 292l-3 146h69q32 0 53 18t21 49q-2 39 -31 57q-27 17 -68 20q-39 3 -76 -4q-37 -6 -59 -17l-22 135q31 13 84 22q55 10 104 7q98 -6 157 -68q61 -61 64 -152q0 -43 -17 -77q-17 -35 -59 -63q42 -24 62 -68q21 -42 21 -84q3 -90 -53 -152q-55 -61 -158 -67
q-48 -3 -122 7q-68 11 -100 25l16 145q19 -10 67 -23q43 -10 89 -10q42 0 77 16q32 16 32 59q0 31 -24 55q-21 24 -55 24h-69z" />
    <glyph glyph-name="four" unicode="4" horiz-adv-x="540" 
d="M433 1h-143v179h-298l203 535h150l-146 -392h91v121l143 96v-217h78v-143h-78v-179z" />
    <glyph glyph-name="five" unicode="5" horiz-adv-x="525" 
d="M251 453q135 -12 204 -66q68 -53 68 -177q0 -91 -58 -150q-57 -60 -157 -66q-34 0 -93 4q-73 7 -135 28l13 142q82 -28 138 -34q53 -4 87 5q35 11 47 30q13 18 13 44q0 32 -13 52q-12 21 -42 36q-27 14 -83 23q-53 9 -133 15v376h364v-137h-220v-125z" />
    <glyph glyph-name="six" unicode="6" horiz-adv-x="507" 
d="M258 412q94 0 151 -54q57 -53 57 -153q0 -87 -57 -151q-56 -62 -160 -62q-65 3 -112 31q-47 30 -71 73q-24 45 -27 103q-1 56 23 116l166 399h155zM325 206q1 37 -23 57q-22 19 -52 19q-29 0 -53 -18q-22 -16 -22 -56q0 -35 23 -55q25 -19 50 -20q27 0 51 18q23 17 26 55
z" />
    <glyph glyph-name="seven" unicode="7" horiz-adv-x="488" 
d="M77 0l243 579h-288v135h491l-292 -714h-154z" />
    <glyph glyph-name="eight" unicode="8" horiz-adv-x="522" 
d="M508 505q0 -46 -17 -83q-17 -38 -51 -64q37 -28 53 -65q16 -33 16 -82q0 -107 -63 -164q-62 -55 -152 -55t-155 56q-63 57 -63 163q0 43 16 83q15 37 52 64q-34 27 -52 64q-16 38 -16 83q0 53 18 94q17 40 48 68q27 26 69 42q36 14 80 14q40 0 79 -15q42 -16 69 -42
q32 -28 50 -68q19 -37 19 -93zM292 429q28 0 53 19q24 20 24 56q0 39 -24 57q-22 18 -53 18t-54 -19q-24 -18 -24 -56t24 -57q24 -18 54 -18zM292 134q33 0 56 23q22 22 22 54q0 33 -23 55q-21 22 -55 22t-57 -23q-22 -22 -22 -54q0 -30 23 -55q23 -22 56 -22z" />
    <glyph glyph-name="nine" unicode="9" horiz-adv-x="512" 
d="M247 301q-94 0 -150 53q-57 54 -57 154q0 88 57 151q57 65 160 62q66 -2 110 -31q47 -29 71 -75q24 -42 27 -103q3 -57 -21 -114l-167 -398h-154zM184 507q-1 -36 21 -55q25 -19 49 -20q28 0 50 18q23 17 23 54q0 34 -22 52q-21 18 -49 18t-49 -17q-22 -17 -23 -50z" />
    <glyph glyph-name="colon" unicode=":" horiz-adv-x="231" 
d="M139 154q42 0 61 -26q19 -23 19 -55q0 -29 -21 -55q-22 -25 -59 -25q-39 0 -61 25q-20 26 -20 55q0 30 20 56q19 25 61 25zM139 446q42 0 61 -26q19 -23 19 -55q0 -29 -21 -55q-22 -25 -59 -25q-39 0 -61 25q-20 26 -20 55q0 30 20 56q19 25 61 25z" />
    <glyph glyph-name="semicolon" unicode=";" horiz-adv-x="231" 
d="M114 446q42 0 61 -26q19 -23 19 -55q0 -29 -21 -55q-22 -25 -59 -25q-39 0 -61 25q-20 26 -20 55q0 30 20 56q19 25 61 25zM50 104h148l-78 -226h-112z" />
    <glyph glyph-name="less" unicode="&#x3c;" horiz-adv-x="433" 
d="M290 347l142 85l1 178l-373 -244l1 -28l371 -253l1 174z" />
    <glyph glyph-name="equal" unicode="=" horiz-adv-x="504" 
d="M142 456l1 -156h363l1 156h-365zM143 656l-1 -155h365l-1 155h-363z" />
    <glyph glyph-name="greater" unicode="&#x3e;" horiz-adv-x="433" 
d="M201 347l-142 85l-1 178l373 -244l-1 -28l-371 -253l-1 174z" />
    <glyph glyph-name="question" unicode="?" horiz-adv-x="480" 
d="M301 206h-142q3 49 27 95q26 52 50 88q19 30 50 73q23 32 23 48q3 41 -20 61q-24 22 -53 22q-28 1 -55 -21q-23 -20 -23 -62h-137q-6 106 60 160q64 54 148 57q83 3 151 -46q70 -48 70 -151q0 -52 -22 -89q-21 -36 -48 -72q-31 -40 -51 -72q-22 -34 -28 -91zM315 69
q0 40 -27 61q-26 20 -58 20q-30 0 -57 -21q-25 -21 -25 -60t26 -60q26 -19 57 -19q30 0 58 20q26 20 26 59z" />
    <glyph glyph-name="at" unicode="@" horiz-adv-x="884" 
d="M361 338q1 3 1 8q3 4 1 8q2 3 2 8q2 3 2 8q10 16 15 22q8 9 18 16t20 9q12 3 22 3q6 0 8 -2q5 0 7 -1q5 1 7 -1q5 0 7 -2q13 -5 23 -15q9 -6 16 -17q8 -7 10 -20q4 -9 3 -21q1 -3 -1 -8q0 -4 -1 -7q0 -5 -2 -8q0 -5 -2 -9q-7 -13 -15 -23q-7 -8 -17 -15q-9 -6 -19 -9
q-9 -3 -22 -3h-2h-8q-2 1 -8 1q-2 2 -8 2q-3 3 -6 3q-3 1 -23 14q-7 7 -15 17l-10 20q-3 12 -3 22zM441 739q-16 1 -36 -2q-11 -1 -35 -5q-16 -1 -36 -8q-16 -3 -35 -12l-25 -10q-16 -8 -26 -14q-14 -8 -30 -18q-22 -15 -32 -23q-35 -31 -63 -68q-28 -35 -45 -73
q-18 -37 -27 -80q-9 -40 -9 -85v-4q0 -29 5 -62q6 -30 15 -60q7 -19 23 -57q17 -30 33 -53q4 -3 6 -11q9 -9 14 -15q3 -3 9.5 -10t10.5 -11t13.5 -12.5t14.5 -13.5q40 -28 59 -41q32 -18 62 -29q28 -10 64 -17q37 -5 65 -5h6v106h-2q-13 0 -45 4q-28 6 -44 10l-42 18
q-28 16 -42 25q-32 28 -52 51q-24 31 -37 57q-15 34 -23 61q-7 38 -7 67q0 10 2 26q2 9 4 27q3 15 6 27q1 5 4 13.5t4 12.5q2 3 5 9.5t4 9.5l10 20q5 7 13 21q6 8 16 22q26 29 51 46q27 21 54 33q27 14 59 20q30 9 62 7q21 0 42 -3q22 -2 40 -10q20 -6 40 -15q21 -9 39 -21
q35 -22 58 -51q28 -28 42 -59q18 -32 24 -67q9 -36 8 -75q2 -19 -1 -35q0 -19 -2 -29q-1 -6 -5 -23l-6 -18q-4 -6 -7 -9q-2 -4 -8 -7l-10 -5q-4 -1 -13 -1l-13 1q-8 3 -15 12q-10 15 -13 21q-6 14 -9 31q-2 13 -4 42h-3l3 26q1 13 -2 26q-1 14 -6 25q-3 13 -9 25
q-4 14 -12 24q-15 22 -33 39q-16 18 -38 27q-19 13 -41 17q-18 5 -46 5q-14 0 -29 -3q-18 -4 -28 -6q-15 -4 -26 -11q-15 -8 -25 -15q-23 -18 -35 -32q-15 -15 -24 -36q-8 -17 -15 -40q-4 -28 -4 -44q0 -4 0.5 -12t0.5 -12q2 -16 4 -23q1 -5 8 -23q5 -9 10 -22
q16 -24 33 -41t38 -30q20 -11 43 -18q20 -5 47 -5h4q10 0 28 2q15 3 27 6q20 8 26 11q13 8 24 15h1q6 -11 25 -39q15 -15 30 -27q21 -12 35 -17q18 -5 41 -5q17 1 40 5q21 6 35 13t30 22q15 15 24 30q6 10 14 30q8 24 10 37q4 21 6 45q2 17 2 52q0 48 -8 83q-8 41 -24 77
q-12 36 -38 71q-20 33 -54 64q-28 27 -63 49q-35 23 -67 34q-33 15 -71 21q-34 9 -76 7z" />
    <glyph glyph-name="A" unicode="A" horiz-adv-x="653" 
d="M32 0l301 741h15l301 -741h-161l-29 77h-237l-28 -77h-162zM274 211h132l-65 186z" />
    <glyph glyph-name="B" unicode="B" horiz-adv-x="621" 
d="M304 573v-144h86h41q30 0 48 21t18 51t-18 51t-48 21h-127zM160 0v0v716h283q97 0 150 -62q56 -62 53 -155q-2 -41 -18 -80q-14 -36 -48 -61q35 -24 55 -63q19 -35 19 -80q0 -47 -17 -85q-17 -40 -46 -69q-26 -28 -67 -45q-40 -16 -81 -16h-283zM304 286v-143h86h41
q30 0 51 21t21 51t-21 51q-20 20 -51 20h-127z" />
    <glyph glyph-name="C" unicode="C" horiz-adv-x="602" 
d="M581 549q-23 12 -50 21q-24 10 -74 10q-106 0 -160 -69q-53 -70 -53 -150q0 -79 53 -149q54 -68 160 -68q44 0 82 11q42 14 56 21l19 -148q-32 -13 -77 -22q-46 -8 -80 -8q-182 0 -274 113q-90 114 -90 249t91 250q92 114 273 114q78 0 141 -28z" />
    <glyph glyph-name="D" unicode="D" horiz-adv-x="704" 
d="M293 715q178 0 268 -112q89 -110 89 -247q0 -134 -90 -245t-267 -111h-213v715h213zM293 572h-70v-429h70q104 0 156 67t52 147q0 81 -52 148q-50 67 -156 67z" />
    <glyph glyph-name="E" unicode="E" horiz-adv-x="504" 
d="M530 0h-370v715h358v-143h-215v-143h188v-143h-188v-143h227v-143z" />
    <glyph glyph-name="F" unicode="F" horiz-adv-x="475" 
d="M517 572h-214v-143h182v-143h-182v-286h-143v715h357v-143z" />
    <glyph glyph-name="G" unicode="G" horiz-adv-x="673" 
d="M641 44q-81 -46 -185 -48q-176 0 -269 110q-92 112 -95 245q-3 134 88 249q90 115 276 121q62 3 110 -11q48 -12 57 -15l-17 -145q-21 9 -57 18q-38 9 -93 8q-107 -3 -162 -73q-51 -67 -51 -150q2 -81 55 -148q54 -66 158 -66q26 2 40 4v215h145v-314z" />
    <glyph glyph-name="H" unicode="H" horiz-adv-x="661" 
d="M660 0h-143v286h-214v-286h-143v715h143v-286h214v286h143v-715z" />
    <glyph glyph-name="I" unicode="I" horiz-adv-x="304" 
d="M303 0h-143v715h143v-715z" />
    <glyph glyph-name="J" unicode="J" horiz-adv-x="465" 
d="M64 0v143h137q30 0 51 21t21 51v500h145v-500q0 -108 -53.5 -162t-159.5 -53h-141z" />
    <glyph glyph-name="K" unicode="K" horiz-adv-x="604" 
d="M160 0v715h143v-285l180 285h167l-232 -353l252 -362h-177l-190 280v-280h-143z" />
    <glyph glyph-name="L" unicode="L" horiz-adv-x="493" 
d="M160 715h143v-572h227v-143h-370v715z" />
    <glyph glyph-name="M" unicode="M" horiz-adv-x="816" 
d="M488 412l282 314h45v-726h-145l1 399l-183 -192l-183 192v-399h-145v726h46z" />
    <glyph glyph-name="N" unicode="N" horiz-adv-x="704" 
d="M303 389v-389h-143v730h38l361 -420v404h144v-729h-38z" />
    <glyph glyph-name="O" unicode="O" horiz-adv-x="847" 
d="M479 -10q-183 0 -277 115q-92 116 -92 253q0 138 92 254q91 115 277 115q185 0 277 -116q92 -114 92 -253q0 -138 -93 -253q-94 -115 -276 -115zM479 138q107 0 161 69q53 68 53 151q0 84 -54 153q-53 69 -160 69q-108 0 -162 -70q-53 -68 -53 -152q0 -83 54 -152
q53 -68 161 -68z" />
    <glyph glyph-name="P" unicode="P" horiz-adv-x="603" 
d="M303 0h-143v714h281q105 0 156 -70q51 -67 51 -152q0 -83 -52 -151q-50 -68 -155 -68h-138v-273zM303 412h126q35 0 54 25q18 25 18 55q0 31 -18 55q-18 25 -54 25h-126v-160z" />
    <glyph glyph-name="Q" unicode="Q" horiz-adv-x="839" 
d="M431 303h169l50 -64q27 49 29 106q3 57 -20 109q-21 51 -70 86q-45 34 -119 34q-105 0 -158 -68q-52 -67 -52 -148q0 -79 53 -149q54 -67 157 -67q47 0 81 14zM647 37q-72 -39 -177 -39q-180 0 -270 113q-90 114 -90 247q0 136 90 248q89 113 270 113q133 0 217 -66
q85 -67 119 -160q35 -89 19 -198q-15 -103 -79 -179l94 -120h-158z" />
    <glyph glyph-name="R" unicode="R" horiz-adv-x="613" 
d="M678 0h-162l-144 273h-69v-273h-143v715h282q96 0 148 -58q52 -55 61 -130q9 -74 -26 -142q-34 -67 -113 -90zM303 572v-160h126q35 0 54 25q18 25 18 55q0 31 -18 55q-18 25 -54 25h-126z" />
    <glyph glyph-name="S" unicode="S" horiz-adv-x="529" 
d="M47 46l18 150q61 -43 120 -52q62 -8 84 -5q32 3 54 22q23 20 20 50q-3 31 -24 46q-22 17 -50 27q-32 12 -81 34q-39 20 -68 44q-27 24 -46 61q-17 37 -17 79q0 90 56 152q56 61 146 66q27 2 68 -3q41 -3 110 -27l-18 -138q-60 24 -95 27q-34 3 -51 3q-39 -3 -57 -27
q-17 -23 -14 -53q3 -29 26 -46q26 -16 54 -26q82 -29 145 -83q62 -50 62 -136q0 -90 -58 -151q-57 -60 -158 -66q-29 -1 -92 6q-64 9 -134 46z" />
    <glyph glyph-name="T" unicode="T" horiz-adv-x="547" 
d="M361 0h-143v572h-178v142h499v-142h-178v-572z" />
    <glyph glyph-name="U" unicode="U" 
d="M669 249q0 -128 -82 -192q-81 -63 -178 -63q-95 0 -177 64q-80 64 -80 191v466h143v-465q0 -56 36 -85q37 -28 80 -28t80 28q36 27 36 85v465h142v-466z" />
    <glyph glyph-name="V" unicode="V" horiz-adv-x="637" 
d="M340 -15h-32l-296 730h165l95 -238l52 -148l51 143l96 243h165z" />
    <glyph glyph-name="W" unicode="W" horiz-adv-x="910" 
d="M330 -15h-25l-293 730h161l144 -365l140 358h7l140 -358l144 365h161l-292 -727h-26l-131 317z" />
    <glyph glyph-name="X" unicode="X" horiz-adv-x="631" 
d="M12 0l225 381l-194 335h173l108 -199l107 199h169l-195 -335l225 -381h-169l-137 245l-138 -245h-174z" />
    <glyph glyph-name="Y" unicode="Y" horiz-adv-x="649" 
d="M261 0v322l-249 393h174l146 -246l146 246h175l-250 -393v-322h-142z" />
    <glyph glyph-name="Z" unicode="Z" horiz-adv-x="535" 
d="M523 0h-479q129 290 258 576h-220v139h433q-43 -95 -129 -285.5t-129 -285.5h266v-144z" />
    <glyph glyph-name="bracketleft" unicode="[" horiz-adv-x="296" 
d="M62 772v-165v-747h241v164h-76v583h76v165h-241z" />
    <glyph glyph-name="backslash" unicode="\" horiz-adv-x="423" 
d="M132 714h-148l281 -715h148z" />
    <glyph glyph-name="bracketright" unicode="]" horiz-adv-x="296" 
d="M301 772v-165v-747h-241v164h77v583h-77v165h241z" />
    <glyph glyph-name="asciicircum" unicode="^" horiz-adv-x="699" 
d="M431 474l88 -148l185 -1l-254 389l-28 -1l-264 -387l181 -1z" />
    <glyph glyph-name="underscore" unicode="_" horiz-adv-x="578" 
d="M154 134l1 -134h421l1 134h-423z" />
    <glyph glyph-name="grave" unicode="`" horiz-adv-x="351" 
d="M120 714h186l53 -141h-138z" />
    <glyph glyph-name="a" unicode="a" horiz-adv-x="653" 
d="M32 0l301 741h15l301 -741h-161l-29 77h-237l-28 -77h-162zM274 211h132l-65 186z" />
    <glyph glyph-name="b" unicode="b" horiz-adv-x="621" 
d="M304 573v-144h86h41q30 0 48 21t18 51t-18 51t-48 21h-127zM160 0v0v716h283q97 0 150 -62q56 -62 53 -155q-2 -41 -18 -80q-14 -36 -48 -61q35 -24 55 -63q19 -35 19 -80q0 -47 -17 -85q-17 -40 -46 -69q-26 -28 -67 -45q-40 -16 -81 -16h-283zM304 286v-143h86h41
q30 0 51 21t21 51t-21 51q-20 20 -51 20h-127z" />
    <glyph glyph-name="c" unicode="c" horiz-adv-x="602" 
d="M581 549q-23 12 -50 21q-24 10 -74 10q-106 0 -160 -69q-53 -70 -53 -150q0 -79 53 -149q54 -68 160 -68q44 0 82 11q42 14 56 21l19 -148q-32 -13 -77 -22q-46 -8 -80 -8q-182 0 -274 113q-90 114 -90 249t91 250q92 114 273 114q78 0 141 -28z" />
    <glyph glyph-name="d" unicode="d" horiz-adv-x="704" 
d="M293 715q178 0 268 -112q89 -110 89 -247q0 -134 -90 -245t-267 -111h-213v715h213zM293 572h-70v-429h70q104 0 156 67t52 147q0 81 -52 148q-50 67 -156 67z" />
    <glyph glyph-name="e" unicode="e" horiz-adv-x="504" 
d="M530 0h-370v715h358v-143h-215v-143h188v-143h-188v-143h227v-143z" />
    <glyph glyph-name="f" unicode="f" horiz-adv-x="475" 
d="M517 572h-214v-143h182v-143h-182v-286h-143v715h357v-143z" />
    <glyph glyph-name="g" unicode="g" horiz-adv-x="673" 
d="M641 44q-81 -46 -185 -48q-176 0 -269 110q-92 112 -95 245q-3 134 88 249q90 115 276 121q62 3 110 -11q48 -12 57 -15l-17 -145q-21 9 -57 18q-38 9 -93 8q-107 -3 -162 -73q-51 -67 -51 -150q2 -81 55 -148q54 -66 158 -66q26 2 40 4v215h145v-314z" />
    <glyph glyph-name="h" unicode="h" horiz-adv-x="661" 
d="M660 0h-143v286h-214v-286h-143v715h143v-286h214v286h143v-715z" />
    <glyph glyph-name="i" unicode="i" horiz-adv-x="304" 
d="M303 0h-143v715h143v-715z" />
    <glyph glyph-name="j" unicode="j" horiz-adv-x="465" 
d="M64 0v143h137q31 0 52 21q21 20 21 51v500h142v-500q0 -47 -17 -85q-16 -38 -46 -68q-28 -28 -67 -46q-38 -16 -81 -16h-141z" />
    <glyph glyph-name="k" unicode="k" horiz-adv-x="604" 
d="M160 0v715h143v-285l180 285h167l-232 -353l252 -362h-177l-190 280v-280h-143z" />
    <glyph glyph-name="l" unicode="l" horiz-adv-x="493" 
d="M160 715h143v-572h227v-143h-370v715z" />
    <glyph glyph-name="m" unicode="m" horiz-adv-x="816" 
d="M488 412l282 314h45v-726h-145l1 399l-183 -192l-183 192v-399h-145v726h46z" />
    <glyph glyph-name="n" unicode="n" horiz-adv-x="704" 
d="M303 389v-389h-143v730h38l361 -420v404h144v-729h-38z" />
    <glyph glyph-name="o" unicode="o" horiz-adv-x="847" 
d="M479 -10q-183 0 -277 115q-92 116 -92 253q0 138 92 254q91 115 277 115q185 0 277 -116q92 -114 92 -253q0 -138 -93 -253q-94 -115 -276 -115zM479 138q107 0 161 69q53 68 53 151q0 84 -54 153q-53 69 -160 69q-108 0 -162 -70q-53 -68 -53 -152q0 -83 54 -152
q53 -68 161 -68z" />
    <glyph glyph-name="p" unicode="p" horiz-adv-x="603" 
d="M303 0h-143v714h281q105 0 156 -70q51 -67 51 -152q0 -83 -52 -151q-50 -68 -155 -68h-138v-273zM303 412h126q35 0 54 25q18 25 18 55q0 31 -18 55q-18 25 -54 25h-126v-160z" />
    <glyph glyph-name="q" unicode="q" horiz-adv-x="839" 
d="M431 303h169l50 -64q27 49 29 106q3 57 -20 109q-21 51 -70 86q-45 34 -119 34q-105 0 -158 -68q-52 -67 -52 -148q0 -79 53 -149q54 -67 157 -67q47 0 81 14zM647 37q-72 -39 -177 -39q-180 0 -270 113q-90 114 -90 247q0 136 90 248q89 113 270 113q133 0 217 -66
q85 -67 119 -160q35 -89 19 -198q-15 -103 -79 -179l94 -120h-158z" />
    <glyph glyph-name="r" unicode="r" horiz-adv-x="613" 
d="M678 0h-162l-144 273h-69v-273h-143v715h282q96 0 148 -58q52 -55 61 -130q9 -74 -26 -142q-34 -67 -113 -90zM303 572v-160h126q35 0 54 25q18 25 18 55q0 31 -18 55q-18 25 -54 25h-126z" />
    <glyph glyph-name="s" unicode="s" horiz-adv-x="529" 
d="M47 46l18 150q61 -43 120 -52q62 -8 84 -5q32 3 54 22q23 20 20 50q-3 31 -24 46q-22 17 -50 27q-32 12 -81 34q-39 20 -68 44q-27 24 -46 61q-17 37 -17 79q0 90 56 152q56 61 146 66q27 2 68 -3q41 -3 110 -27l-18 -138q-60 24 -95 27q-34 3 -51 3q-39 -3 -57 -27
q-17 -23 -14 -53q3 -29 26 -46q26 -16 54 -26q82 -29 145 -83q62 -50 62 -136q0 -90 -58 -151q-57 -60 -158 -66q-29 -1 -92 6q-64 9 -134 46z" />
    <glyph glyph-name="t" unicode="t" horiz-adv-x="547" 
d="M361 0h-143v572h-178v142h499v-142h-178v-572z" />
    <glyph glyph-name="u" unicode="u" 
d="M669 249q0 -128 -82 -192q-81 -63 -178 -63q-95 0 -177 64q-80 64 -80 191v466h143v-465q0 -56 36 -85q37 -28 80 -28t80 28q36 27 36 85v465h142v-466z" />
    <glyph glyph-name="v" unicode="v" horiz-adv-x="637" 
d="M340 -15h-32l-296 730h165l95 -238l52 -148l51 143l96 243h165z" />
    <glyph glyph-name="w" unicode="w" horiz-adv-x="910" 
d="M330 -15h-25l-293 730h161l144 -365l140 358h7l140 -358l144 365h161l-292 -727h-26l-131 317z" />
    <glyph glyph-name="x" unicode="x" horiz-adv-x="631" 
d="M12 0l225 381l-194 335h173l108 -199l107 199h169l-195 -335l225 -381h-169l-137 245l-138 -245h-174z" />
    <glyph glyph-name="y" unicode="y" horiz-adv-x="649" 
d="M261 0v322l-249 393h174l146 -246l146 246h175l-250 -393v-322h-142z" />
    <glyph glyph-name="z" unicode="z" horiz-adv-x="535" 
d="M523 0h-479q129 290 258 576h-220v139h433q-43 -95 -129 -285.5t-129 -285.5h266v-144z" />
    <glyph glyph-name="braceleft" unicode="{" horiz-adv-x="366" 
d="M51 245h-1q10 1 20 -2q6 0 18 -4q13 -4 14 -5q8 -4 12 -7q7 -4 10 -9q4 -2 8 -10q1 -1 3.5 -5.5t3.5 -7.5q5 -7 5 -15q4 -9 5 -18q3 -8 3 -23q3 -13 2 -30q1 -11 1 -39v-38q2 -11 2 -31q2 -18 3 -26q3 -11 3 -19q4 -10 6 -16l7 -14q5 -5 8 -13q1 -1 4.5 -5t5.5 -6l11 -11
q8 -3 13 -9l14 -7q9 -3 15 -6q3 -1 9.5 -2.5t9.5 -2.5q17 -2 24 -4q10 0 28 -2h32h24l1 142q-5 0 -12 0.5t-10 0.5q-5 1 -13 1q-6 3 -9 3q-3 3 -9 2q-4 4 -7 5q-1 1 -3.5 2.5t-3.5 2.5t-2.5 3t-2.5 3q-1 3 -3 7t-2 7q2 6 -1 11q0 10 -1 15q2 10 -1 18q0 34 -2 46q0 23 -2 29
q0 14 -1 18q0 4 -0.5 7t-0.5 4q-1 12 -5 23q-3 13 -6 20q-4 12 -8 19q-4 11 -9 16q-3 8 -12 14q-6 8 -14 14q-7 7 -17 12q-13 9 -17 10q3 3 20 14q16 12 18 13q3 3 8 7.5t7 6.5q8 9 10 14q9 15 10 19q3 6 8 21q4 16 5 23q3 12 3 23q2 12 2 31q2 9 2 25q2 8 2 22q2 12 0 26
q1 7 1 16q3 8 1 13q2 8 2 10q3 6 3 7q1 1 2.5 3t2.5 3l5 5q4 4 6 4q5 3 7 3q4 2 8 2q3 2 8 2q5 3 13 1q9 1 20 0v143h-25q-22 0 -32 -1q-14 0 -28 -3q-16 -2 -24 -4q-7 -1 -21 -5q-13 -5 -17 -8q-12 -6 -15 -8q-6 -3 -12 -9q-4 -2 -11 -9q-4 -8 -8 -12q-1 -1 -3.5 -5.5
t-4.5 -7.5q-4 -8 -6 -14q-1 -3 -2.5 -8.5t-2.5 -8.5q-1 -2 -2 -9t-2 -12q0 -6 -2 -28q0 -22 -2 -36v-43q0 -23 -1 -33q0 -17 -2 -25q0 -11 -3 -20q-1 -3 -5 -16q-3 -6 -6 -15q-4 -8 -7 -13q-2 -3 -9 -10q-4 -5 -9 -8q-2 -2 -12 -7q-2 -1 -6.5 -2.5l-7.5 -2.5q-8 0 -17 -3
q-12 0 -19 -2v-137z" />
    <glyph glyph-name="bar" unicode="|" horiz-adv-x="217" 
d="M220 0h-148v713h148v-713z" />
    <glyph glyph-name="braceright" unicode="}" horiz-adv-x="366" 
d="M360 245q-8 1 -20 -2q-5 0 -17 -4l-15 -5q-8 -4 -12 -7q-1 -1 -4.5 -4t-5.5 -5t-8 -10q-4 -8 -7 -13q-1 -2 -1.5 -4t-1.5 -5.5t-2 -5.5q-3 -13 -4 -18q0 -2 -1.5 -9.5t-2.5 -13.5q0 -6 -2 -30v-39q0 -26 -1 -38q2 -18 -1 -31q0 -14 -3 -26q0 -7 -4 -19q-1 -2 -5 -16
l-7 -14q-2 -5 -9 -13q-4 -6 -9 -11l-11 -11q-5 -2 -13 -9q-12 -6 -15 -7q-6 -3 -15 -6l-20 -5q-18 -3 -23 -4q-7 0 -27 -2h-32h-25v142q6 0 13 0.5t8 0.5q6 1 14 1q6 3 9 3q5 3 7 2q2 1 5 3t4 2q5 4 6 5t2.5 3t2.5 3q3 5 3 7q2 2 2 7q2 4 2 11q3 7 1 15q1 6 1 18q2 19 2 46
q3 18 1 29q2 8 2 18q1 6 1 11q1 3 2 8t1.5 8.5t1.5 6.5q3 13 6 20t7 19q6 12 9 16q4 6 12 14q5 6 15 14q10 9 17 12q12 8 17 10q-6 6 -20 14q-6 5 -18 13q-5 6 -15 14q-4 6 -10 14l-10 20q-4 14 -8 21q-1 3 -2.5 10.5t-2.5 11.5q0 4 -1 11.5t-2 11.5q0 19 -3 31q0 9 -2 25
q0 16 -1 23v26q2 10 -1 15q0 10 -1 13q0 8 -2 10q0 5 -3 7q-1 2 -5 6l-5 5q-2 4 -6 4q-3 3 -7 3q-2 2 -8 2q-2 2 -8 2q-3 3 -13 1q-8 2 -20 0v143h25q22 0 32 -1q16 0 28 -3q17 -2 24 -4q8 -1 20 -5t17 -8q10 -3 15 -8q7 -3 13 -9q7 -4 10 -9q6 -6 9 -12q5 -4 8 -13
q4 -8 6 -14q4 -9 5 -17q2 -5 4 -21q2 -8 2 -28q2 -10 2 -36q1 -19 0 -43q0 -6 0.5 -17t0.5 -16q2 -9 2 -25q2 -14 3 -20q1 -3 2.5 -8.5t2.5 -7.5q3 -6 6 -15q1 -1 3.5 -5.5t3.5 -7.5q6 -6 9 -10q4 -3 9 -8q8 -4 12 -7q7 -1 14 -5q8 0 17 -3q13 0 19 -2v-137z" />
    <glyph glyph-name="asciitilde" unicode="~" horiz-adv-x="608" 
d="M70 249v1q9 7 22 20t19 17q8 6 17 12q3 2 8 5t6 4q9 7 13 7l7.5 2.5t6.5 2.5q6 2 13 2q3 0 7 0.5t6 0.5h8q4 1 9 -2q5 0 9 -2q6 2 8 -2q6 0 11 -4q10 -4 14 -7q11 -4 19 -9q16 -8 23 -12q4 -3 17.5 -10.5t19.5 -10.5q19 -8 31 -16q17 -7 26 -12q8 -2 20 -8q8 -1 17 -5
q6 -2 18 -4q7 1 17 -2h17q17 0 32 3q22 6 32 9q18 6 32 15q11 7 33 19v213q-13 -14 -37 -34q-22 -16 -35 -23q-15 -8 -33 -13q-5 -1 -15 -2.5t-15 -2.5q-3 3 -9 0q-1 0 -9 2q-3 3 -9 2l-9 3q-3 0 -9 3q-8 5 -12 7q-4 3 -16 9q-12 8 -20 12q-14 11 -31 19q-13 8 -29 15
q-12 9 -25 12q-12 6 -21 9q-12 4 -20 6q-8 4 -18 4q-9 3 -18 3q-8 3 -17 0q-12 1 -28 -3q-12 -3 -31 -9q-17 -5 -34 -15q-28 -15 -38 -21v-210z" />
    <glyph glyph-name="exclamdown" unicode="&#xa1;" horiz-adv-x="276" 
d="M52 427q0 39 26 59t56 20q32 0 56 -20q26 -19 26 -59t-26 -60t-57 -20q-28 0 -56 20q-25 21 -25 60zM211 50v-265h-154v265q5 58 9 120q1 15 3.5 39t4 42.5t3.5 34.5h113q8 -68 11 -116q2 -20 5 -60t5 -60z" />
    <glyph glyph-name="yen" unicode="&#xa5;" horiz-adv-x="649" 
d="M403 0h-142v162h-138v101h138v45h-138v101h83l-194 306h174l146 -246l146 246h175l-195 -306h73v-101h-128v-45h128v-101h-128v-162z" />
    <glyph glyph-name="dieresis" unicode="&#xa8;" horiz-adv-x="510" 
d="M106 634q0 35 24 59q23 23 57 23t58 -24t24 -58t-24 -58q-25 -23 -58 -23q-32 0 -57 23q-24 24 -24 58zM353 634q0 35 24 59q23 23 57 23t58 -24t24 -58t-24 -58q-25 -23 -58 -23q-32 0 -57 23q-24 24 -24 58z" />
    <glyph glyph-name="macron" unicode="&#xaf;" horiz-adv-x="367" 
d="M100 583v131h264v-131h-264z" />
    <glyph glyph-name="acute" unicode="&#xb4;" horiz-adv-x="319" 
d="M147 719h183l-101 -141h-135z" />
    <glyph glyph-name="periodcentered" unicode="&#xb7;" horiz-adv-x="244" 
d="M139 424q42 0 61 -26q19 -23 19 -55q0 -29 -21 -55q-22 -25 -59 -25q-39 0 -61 25q-20 26 -20 55q0 30 20 56q19 25 61 25z" />
    <glyph glyph-name="cedilla" unicode="&#xb8;" horiz-adv-x="394" 
d="M28 -246l55 83q14 -9 43 -22q24 -9 49 -4q14 3 25 10q12 9 12 21q-2 33 -39 39q-36 7 -64 0l24 130h95l-8 -59q37 -2 62 -22q25 -18 37 -48q12 -28 6 -62q-5 -35 -27 -64q-39 -52 -117 -57q-77 -3 -153 55z" />
    <glyph glyph-name="questiondown" unicode="&#xbf;" horiz-adv-x="480" 
d="M156 309h142q-3 -49 -28 -96q-22 -43 -51 -89q-34 -51 -49 -73q-22 -33 -22 -46q-5 -40 18 -61t53 -22q29 0 55 21q25 19 25 62h137q6 -104 -62 -160q-66 -54 -147 -57q-79 -3 -151 46q-69 50 -69 151q0 54 20 88q22 38 47 71q39 53 52 73q24 36 30 92zM142 446
q0 39 26 59t57 20q32 0 58 -20q26 -19 26 -59t-27 -61q-28 -20 -58 -20q-29 0 -57 20q-25 21 -25 61z" />
    <glyph glyph-name="Agrave" unicode="&#xc0;" horiz-adv-x="653" 
d="M320 724h41l288 -724h-161l-29 77h-237l-28 -77h-162zM274 211h132l-65 191zM177 906h186l53 -141h-138z" />
    <glyph glyph-name="Aacute" unicode="&#xc1;" horiz-adv-x="653" 
d="M320 724h41l288 -724h-161l-29 77h-237l-28 -77h-162zM274 211h132l-65 191zM312 906h186l-101 -141h-138z" />
    <glyph glyph-name="Acircumflex" unicode="&#xc2;" horiz-adv-x="653" 
d="M320 724h41l288 -724h-161l-29 77h-237l-28 -77h-162zM274 211h132l-65 191zM527 759h-152l-37 47l-36 -47h-151l141 140h92z" />
    <glyph glyph-name="Atilde" unicode="&#xc3;" horiz-adv-x="653" 
d="M304 724h41l288 -724h-161l-29 77h-237l-28 -77h-162zM258 211h132l-65 191zM240 768l-87 38q15 49 43 77q29 29 71 28q23 0 44 -13q7 -4 37 -19q18 -8 32 -5q16 3 29 29l86 -39q-13 -47 -44 -78q-29 -28 -71 -26q-23 0 -45 11q-20 12 -38 19q-16 8 -31 5q-14 -2 -26 -27
z" />
    <glyph glyph-name="Adieresis" unicode="&#xc4;" horiz-adv-x="653" 
d="M320 724h41l288 -724h-161l-29 77h-237l-28 -77h-162zM274 211h132l-65 191zM136 826q0 35 24 59q23 23 57 23t58 -24t24 -58t-24 -58q-25 -23 -58 -23q-32 0 -57 23q-24 24 -24 58zM383 826q0 35 24 59q23 23 57 23t58 -24t24 -58t-24 -58q-25 -23 -58 -23q-32 0 -57 23
q-24 24 -24 58z" />
    <glyph glyph-name="Aring" unicode="&#xc5;" horiz-adv-x="653" 
d="M340 851q61 0 94 -33q33 -31 42 -76q9 -44 -8 -87q-16 -43 -59 -64l240 -591h-161l-29 77h-237l-28 -77h-162l240 590q-43 22 -61 65q-17 43 -8 87q9 43 43 76q36 33 94 33zM274 211h132l-65 186zM341 764q-27 0 -40 -17q-13 -18 -13 -36q0 -17 13 -35q14 -16 40 -16
t40 16q13 14 13 36q0 20 -13 36q-11 16 -40 16z" />
    <glyph glyph-name="AE" unicode="&#xc6;" horiz-adv-x="795" 
d="M36 0l348 715h365v-140h-184v-144h156v-146h-156v-142h194v-143h-337v110h-165l-46 -110h-175zM314 243h108v257z" />
    <glyph glyph-name="Ccedilla" unicode="&#xc7;" horiz-adv-x="602" 
d="M220 -224l55 78q17 -11 43 -21q21 -7 49 -4q14 3 25 10q12 9 12 19q-2 31 -39 37q-36 7 -64 0l22 113q-145 33 -211 149q-66 117 -54 242q12 126 103 226q90 99 259 99q78 0 141 -28l-17 -147q-23 12 -50 21q-24 10 -74 10q-106 0 -160 -69q-53 -70 -53 -150
q0 -79 53 -149q54 -68 160 -68q44 0 82 11q42 14 56 21l19 -148q-32 -13 -77 -22q-46 -8 -80 -8h-3l-5 -36q36 -1 62 -20q24 -16 37 -45q12 -27 6 -59q-5 -32 -27 -60q-39 -50 -117 -54q-77 -3 -153 52z" />
    <glyph glyph-name="Egrave" unicode="&#xc8;" horiz-adv-x="504" 
d="M530 0h-370v715h358v-143h-215v-143h188v-143h-188v-143h227v-143zM195 878h176l49 -115h-129z" />
    <glyph glyph-name="Eacute" unicode="&#xc9;" horiz-adv-x="504" 
d="M317 879h176l-96 -115h-129zM530 0h-370v715h358v-143h-215v-143h188v-143h-188v-143h227v-143z" />
    <glyph glyph-name="Ecircumflex" unicode="&#xca;" horiz-adv-x="504" 
d="M528 0h-370v715h358v-143h-215v-143h188v-143h-188v-143h227v-143zM527 769h-150l-37 45l-35 -45h-149l139 134h91z" />
    <glyph glyph-name="Edieresis" unicode="&#xcb;" horiz-adv-x="504" 
d="M148 833q0 32 23 53q22 21 56 21t57 -22q23 -20 23 -52q0 -31 -24 -52q-25 -20 -56 -20t-56 20q-23 21 -23 52zM362 833q0 32 24 53q22 21 56 21t57 -22q23 -20 23 -52q0 -31 -24 -52q-25 -20 -56 -20q-32 0 -57 20q-23 20 -23 52zM524 0h-370v715h358v-143h-215v-143
h188v-143h-188v-143h227v-143z" />
    <glyph glyph-name="Igrave" unicode="&#xcc;" horiz-adv-x="304" 
d="M226 0h-143v715h143v-715zM6 901h170l49 -129h-126z" />
    <glyph glyph-name="Iacute" unicode="&#xcd;" horiz-adv-x="304" 
d="M213 901h170l-93 -129h-126zM303 0h-143v715h143v-715z" />
    <glyph glyph-name="Icircumflex" unicode="&#xce;" horiz-adv-x="304" 
d="M196 0h-143v715h143v-715zM298 770h-142l-35 48l-33 -48h-142l132 143h86z" />
    <glyph glyph-name="Idieresis" unicode="&#xcf;" horiz-adv-x="304" 
d="M-60 849q0 34 23 57t54 23q34 0 56 -23q22 -21 22 -57q0 -33 -23 -56t-55 -23q-30 0 -55 23q-22 23 -22 56zM150 849q0 34 23 57t54 23q34 0 56 -23q23 -22 23 -57q0 -33 -23 -56t-56 -23q-29 0 -54 23q-23 25 -23 56zM193 0h-143v715h143v-715z" />
    <glyph glyph-name="Eth" unicode="&#xd0;" horiz-adv-x="704" 
d="M3 285v133h77v297h213q178 0 268 -112q89 -110 89 -247q0 -134 -90 -245t-267 -111h-213v285h-77zM293 572h-70v-154h128v-133h-128v-142h70q104 0 156 67t52 147q0 81 -52 148q-50 67 -156 67z" />
    <glyph glyph-name="Ntilde" unicode="&#xd1;" horiz-adv-x="704" 
d="M223 389v-389h-143v730h38l361 -420v404h144v-729h-38zM262 776l-87 38q15 49 43 77q29 29 71 28q23 0 44 -13q7 -4 37 -19q18 -8 32 -5q16 3 29 29l86 -39q-13 -47 -44 -78q-29 -28 -71 -26q-23 0 -45 11q-20 12 -38 19q-16 8 -31 5q-14 -2 -26 -27z" />
    <glyph glyph-name="Ograve" unicode="&#xd2;" horiz-adv-x="847" 
d="M424 -10q183 0 277 115q92 114 92 253q0 138 -93 254q-91 115 -276 115t-277 -116t-92 -253t92 -253q94 -115 277 -115zM424 138q-108 0 -162 69q-53 68 -53 151q0 84 54 153q53 69 161 69q107 0 161 -70q53 -68 53 -152q0 -83 -54 -152q-53 -68 -160 -68zM274 925h186
l53 -141h-138z" />
    <glyph glyph-name="Oacute" unicode="&#xd3;" horiz-adv-x="847" 
d="M479 -10q-183 0 -277 115q-92 116 -92 253q0 138 92 254q91 115 277 115q185 0 277 -116q92 -114 92 -253q0 -138 -93 -253q-94 -115 -276 -115zM479 138q107 0 161 69q53 68 53 151q0 84 -54 153q-53 69 -160 69q-108 0 -162 -70q-53 -68 -53 -152q0 -83 54 -152
q53 -68 161 -68zM469 928h183l-101 -141h-135z" />
    <glyph glyph-name="Ocircumflex" unicode="&#xd4;" horiz-adv-x="847" 
d="M424 -10q183 0 277 115q92 114 92 253q0 138 -93 254q-91 115 -276 115t-277 -116t-92 -253t92 -253q94 -115 277 -115zM424 138q-108 0 -162 69q-53 68 -53 151q0 84 54 153q53 69 161 69q107 0 161 -70q53 -68 53 -152q0 -83 -54 -152q-53 -68 -160 -68zM625 780h-158
l-39 46l-37 -46h-158l147 137h96z" />
    <glyph glyph-name="Otilde" unicode="&#xd5;" horiz-adv-x="847" 
d="M424 -10q-183 0 -277 115q-92 116 -92 253q0 138 92 254q91 115 277 115q185 0 277 -116q92 -114 92 -253q0 -138 -93 -253q-94 -115 -276 -115zM424 138q107 0 161 69q53 68 53 151q0 84 -54 153q-53 69 -160 69q-108 0 -162 -70q-53 -68 -53 -152q0 -83 54 -152
q53 -68 161 -68zM344 785l-87 38q15 49 43 77q29 29 71 28q23 0 44 -13q7 -4 37 -19q18 -8 32 -5q16 3 29 29l86 -39q-13 -47 -44 -78q-29 -28 -71 -26q-23 0 -45 11q-20 12 -38 19q-16 8 -31 5q-14 -2 -26 -27z" />
    <glyph glyph-name="Odieresis" unicode="&#xd6;" horiz-adv-x="847" 
d="M479 -10q-183 0 -277 115q-92 116 -92 253q0 138 92 254q91 115 277 115q185 0 277 -116q92 -114 92 -253q0 -138 -93 -253q-94 -115 -276 -115zM479 138q107 0 161 69q53 68 53 151q0 84 -54 153q-53 69 -160 69q-108 0 -162 -70q-53 -68 -53 -152q0 -83 54 -152
q53 -68 161 -68zM271 853q0 33 25 56q23 22 60 22q38 0 61 -23q25 -22 25 -55q0 -32 -25 -56q-23 -22 -61 -22q-34 0 -60 23q-25 25 -25 55zM530 853q0 33 26 56q25 22 59 22q38 0 61 -23q24 -21 24 -55q0 -32 -25 -56q-23 -22 -60 -22q-32 0 -60 23q-25 24 -25 55z" />
    <glyph glyph-name="Oslash" unicode="&#xd8;" horiz-adv-x="824" 
d="M545 700l48 83h147l-83 -144q84 -71 111 -181q27 -109 -3 -212t-116 -177q-85 -73 -229 -73q-67 0 -124 17l-48 -82h-147l83 144q-85 71 -113 180q-27 112 2 212q30 103 117 178q86 74 230 74q71 2 125 -19zM581 507l-211 -365q16 -1 50 -1q77 0 128 40q49 39 69 97
q20 55 11 120q-9 66 -47 109zM260 206l211 366q-24 5 -51 2q-79 0 -129 -41q-49 -40 -70 -98q-19 -53 -10 -121q11 -64 49 -108z" />
    <glyph glyph-name="Ugrave" unicode="&#xd9;" 
d="M669 249q0 -128 -82 -192q-81 -63 -178 -63q-95 0 -177 64q-80 64 -80 191v466h143v-465q0 -56 36 -85q37 -28 80 -28t80 28q36 27 36 85v465h142v-466zM271 909h167l48 -139h-124z" />
    <glyph glyph-name="Uacute" unicode="&#xda;" 
d="M389 909h167l-91 -139h-124zM669 249q0 -128 -82 -192q-81 -63 -178 -63q-95 0 -177 64q-80 64 -80 191v466h143v-465q0 -56 36 -85q37 -28 80 -28t80 28q36 27 36 85v465h142v-466z" />
    <glyph glyph-name="Ucircumflex" unicode="&#xdb;" 
d="M669 249q0 -128 -82 -192q-81 -63 -178 -63q-95 0 -177 64q-80 64 -80 191v466h143v-465q0 -56 36 -85q37 -28 80 -28t80 28q36 27 36 85v465h142v-466zM598 781h-152l-37 47l-36 -47h-151l141 140h92z" />
    <glyph glyph-name="Udieresis" unicode="&#xdc;" 
d="M669 249q0 -128 -82 -192q-81 -63 -178 -63q-95 0 -177 64q-80 64 -80 191v466h143v-465q0 -56 36 -85q37 -28 80 -28t80 28q36 27 36 85v465h142v-466zM219 842q0 34 23 55q22 21 54 21q33 0 55 -22q22 -19 22 -54q0 -33 -23 -53q-22 -21 -54 -21q-31 0 -55 21
q-22 21 -22 53zM453 842q0 34 23 55q22 21 54 21q33 0 55 -22q22 -19 22 -54q0 -33 -23 -53q-22 -21 -54 -21q-30 0 -54 21q-23 21 -23 53z" />
    <glyph glyph-name="Yacute" unicode="&#xdd;" horiz-adv-x="649" 
d="M261 0v322l-249 393h174l146 -246l146 246h175l-250 -393v-322h-142zM305 913h183l-101 -141h-135z" />
    <glyph glyph-name="Thorn" unicode="&#xde;" horiz-adv-x="603" 
d="M303 0h-143v715h143v-125h138q105 0 156 -70q51 -67 51 -152q0 -83 -52 -151q-50 -68 -155 -68h-138v-149zM303 288h126q35 0 54 25q18 25 18 55q0 31 -18 55q-18 25 -54 25h-126v-160z" />
    <glyph glyph-name="agrave" unicode="&#xe0;" horiz-adv-x="653" 
d="M320 724h41l288 -724h-161l-29 77h-237l-28 -77h-162zM274 211h132l-65 191zM177 906h186l53 -141h-138z" />
    <glyph glyph-name="aacute" unicode="&#xe1;" horiz-adv-x="653" 
d="M320 724h41l288 -724h-161l-29 77h-237l-28 -77h-162zM274 211h132l-65 191zM312 906h186l-101 -141h-138z" />
    <glyph glyph-name="acircumflex" unicode="&#xe2;" horiz-adv-x="653" 
d="M320 724h41l288 -724h-161l-29 77h-237l-28 -77h-162zM274 211h132l-65 191zM527 759h-152l-37 47l-36 -47h-151l141 140h92z" />
    <glyph glyph-name="atilde" unicode="&#xe3;" horiz-adv-x="653" 
d="M304 724h41l288 -724h-161l-29 77h-237l-28 -77h-162zM258 211h132l-65 191zM240 768l-87 38q15 49 43 77q29 29 71 28q23 0 44 -13q7 -4 37 -19q18 -8 32 -5q16 3 29 29l86 -39q-13 -47 -44 -78q-29 -28 -71 -26q-23 0 -45 11q-20 12 -38 19q-16 8 -31 5q-14 -2 -26 -27
z" />
    <glyph glyph-name="adieresis" unicode="&#xe4;" horiz-adv-x="653" 
d="M320 724h41l288 -724h-161l-29 77h-237l-28 -77h-162zM274 211h132l-65 191zM136 826q0 35 24 59q23 23 57 23t58 -24t24 -58t-24 -58q-25 -23 -58 -23q-32 0 -57 23q-24 24 -24 58zM383 826q0 35 24 59q23 23 57 23t58 -24t24 -58t-24 -58q-25 -23 -58 -23q-32 0 -57 23
q-24 24 -24 58z" />
    <glyph glyph-name="aring" unicode="&#xe5;" horiz-adv-x="653" 
d="M340 851q61 0 94 -33q33 -31 42 -76q9 -44 -8 -87q-16 -43 -59 -64l240 -591h-161l-29 77h-237l-28 -77h-162l240 590q-43 22 -61 65q-17 43 -8 87q9 43 43 76q36 33 94 33zM274 211h132l-65 186zM341 764q-27 0 -40 -17q-13 -18 -13 -36q0 -17 13 -35q14 -16 40 -16
t40 16q13 14 13 36q0 20 -13 36q-11 16 -40 16z" />
    <glyph glyph-name="ae" unicode="&#xe6;" horiz-adv-x="795" 
d="M36 0l348 715h365v-140h-184v-144h156v-146h-156v-142h194v-143h-337v110h-165l-46 -110h-175zM314 243h108v257z" />
    <glyph glyph-name="ccedilla" unicode="&#xe7;" horiz-adv-x="602" 
d="M220 -224l55 78q17 -11 43 -21q21 -7 49 -4q14 3 25 10q12 9 12 19q-2 31 -39 37q-36 7 -64 0l22 113q-145 33 -211 149q-66 117 -54 242q12 126 103 226q90 99 259 99q78 0 141 -28l-17 -147q-23 12 -50 21q-24 10 -74 10q-106 0 -160 -69q-53 -70 -53 -150
q0 -79 53 -149q54 -68 160 -68q44 0 82 11q42 14 56 21l19 -148q-32 -13 -77 -22q-46 -8 -80 -8h-3l-5 -36q36 -1 62 -20q24 -16 37 -45q12 -27 6 -59q-5 -32 -27 -60q-39 -50 -117 -54q-77 -3 -153 52z" />
    <glyph glyph-name="egrave" unicode="&#xe8;" horiz-adv-x="504" 
d="M530 0h-370v715h358v-143h-215v-143h188v-143h-188v-143h227v-143zM195 878h176l49 -115h-129z" />
    <glyph glyph-name="eacute" unicode="&#xe9;" horiz-adv-x="504" 
d="M317 879h176l-96 -115h-129zM530 0h-370v715h358v-143h-215v-143h188v-143h-188v-143h227v-143z" />
    <glyph glyph-name="ecircumflex" unicode="&#xea;" horiz-adv-x="504" 
d="M528 0h-370v715h358v-143h-215v-143h188v-143h-188v-143h227v-143zM527 769h-150l-37 45l-35 -45h-149l139 134h91z" />
    <glyph glyph-name="edieresis" unicode="&#xeb;" horiz-adv-x="504" 
d="M148 833q0 32 23 53q22 21 56 21t57 -22q23 -20 23 -52q0 -31 -24 -52q-25 -20 -56 -20t-56 20q-23 21 -23 52zM362 833q0 32 24 53q22 21 56 21t57 -22q23 -20 23 -52q0 -31 -24 -52q-25 -20 -56 -20q-32 0 -57 20q-23 20 -23 52zM524 0h-370v715h358v-143h-215v-143
h188v-143h-188v-143h227v-143z" />
    <glyph glyph-name="igrave" unicode="&#xec;" horiz-adv-x="304" 
d="M226 0h-143v715h143v-715zM6 901h170l49 -129h-126z" />
    <glyph glyph-name="iacute" unicode="&#xed;" horiz-adv-x="304" 
d="M213 901h170l-93 -129h-126zM303 0h-143v715h143v-715z" />
    <glyph glyph-name="icircumflex" unicode="&#xee;" horiz-adv-x="304" 
d="M196 0h-143v715h143v-715zM298 770h-142l-35 48l-33 -48h-142l132 143h86z" />
    <glyph glyph-name="idieresis" unicode="&#xef;" horiz-adv-x="304" 
d="M-60 849q0 34 23 57t54 23q34 0 56 -23q22 -21 22 -57q0 -33 -23 -56t-55 -23q-30 0 -55 23q-22 23 -22 56zM150 849q0 34 23 57t54 23q34 0 56 -23q23 -22 23 -57q0 -33 -23 -56t-56 -23q-29 0 -54 23q-23 25 -23 56zM193 0h-143v715h143v-715z" />
    <glyph glyph-name="eth" unicode="&#xf0;" horiz-adv-x="704" 
d="M3 285v133h77v297h213q178 0 268 -112q89 -110 89 -247q0 -134 -90 -245t-267 -111h-213v285h-77zM293 572h-70v-154h128v-133h-128v-142h70q104 0 156 67t52 147q0 81 -52 148q-50 67 -156 67z" />
    <glyph glyph-name="ntilde" unicode="&#xf1;" horiz-adv-x="704" 
d="M223 389v-389h-143v730h38l361 -420v404h144v-729h-38zM262 776l-87 38q15 49 43 77q29 29 71 28q23 0 44 -13q7 -4 37 -19q18 -8 32 -5q16 3 29 29l86 -39q-13 -47 -44 -78q-29 -28 -71 -26q-23 0 -45 11q-20 12 -38 19q-16 8 -31 5q-14 -2 -26 -27z" />
    <glyph glyph-name="ograve" unicode="&#xf2;" horiz-adv-x="847" 
d="M424 -10q183 0 277 115q92 114 92 253q0 138 -93 254q-91 115 -276 115t-277 -116t-92 -253t92 -253q94 -115 277 -115zM424 138q-108 0 -162 69q-53 68 -53 151q0 84 54 153q53 69 161 69q107 0 161 -70q53 -68 53 -152q0 -83 -54 -152q-53 -68 -160 -68zM274 925h186
l53 -141h-138z" />
    <glyph glyph-name="oacute" unicode="&#xf3;" horiz-adv-x="847" 
d="M479 -10q-183 0 -277 115q-92 116 -92 253q0 138 92 254q91 115 277 115q185 0 277 -116q92 -114 92 -253q0 -138 -93 -253q-94 -115 -276 -115zM479 138q107 0 161 69q53 68 53 151q0 84 -54 153q-53 69 -160 69q-108 0 -162 -70q-53 -68 -53 -152q0 -83 54 -152
q53 -68 161 -68zM469 928h183l-101 -141h-135z" />
    <glyph glyph-name="ocircumflex" unicode="&#xf4;" horiz-adv-x="847" 
d="M424 -10q183 0 277 115q92 114 92 253q0 138 -93 254q-91 115 -276 115t-277 -116t-92 -253t92 -253q94 -115 277 -115zM424 138q-108 0 -162 69q-53 68 -53 151q0 84 54 153q53 69 161 69q107 0 161 -70q53 -68 53 -152q0 -83 -54 -152q-53 -68 -160 -68zM625 780h-158
l-39 46l-37 -46h-158l147 137h96z" />
    <glyph glyph-name="otilde" unicode="&#xf5;" horiz-adv-x="847" 
d="M424 -10q-183 0 -277 115q-92 116 -92 253q0 138 92 254q91 115 277 115q185 0 277 -116q92 -114 92 -253q0 -138 -93 -253q-94 -115 -276 -115zM424 138q107 0 161 69q53 68 53 151q0 84 -54 153q-53 69 -160 69q-108 0 -162 -70q-53 -68 -53 -152q0 -83 54 -152
q53 -68 161 -68zM344 785l-87 38q15 49 43 77q29 29 71 28q23 0 44 -13q7 -4 37 -19q18 -8 32 -5q16 3 29 29l86 -39q-13 -47 -44 -78q-29 -28 -71 -26q-23 0 -45 11q-20 12 -38 19q-16 8 -31 5q-14 -2 -26 -27z" />
    <glyph glyph-name="odieresis" unicode="&#xf6;" horiz-adv-x="847" 
d="M479 -10q-183 0 -277 115q-92 116 -92 253q0 138 92 254q91 115 277 115q185 0 277 -116q92 -114 92 -253q0 -138 -93 -253q-94 -115 -276 -115zM479 138q107 0 161 69q53 68 53 151q0 84 -54 153q-53 69 -160 69q-108 0 -162 -70q-53 -68 -53 -152q0 -83 54 -152
q53 -68 161 -68zM271 853q0 33 25 56q23 22 60 22q38 0 61 -23q25 -22 25 -55q0 -32 -25 -56q-23 -22 -61 -22q-34 0 -60 23q-25 25 -25 55zM530 853q0 33 26 56q25 22 59 22q38 0 61 -23q24 -21 24 -55q0 -32 -25 -56q-23 -22 -60 -22q-32 0 -60 23q-25 24 -25 55z" />
    <glyph glyph-name="oslash" unicode="&#xf8;" horiz-adv-x="824" 
d="M545 700l48 83h147l-83 -144q84 -71 111 -181q27 -109 -3 -212t-116 -177q-85 -73 -229 -73q-67 0 -124 17l-48 -82h-147l83 144q-85 71 -113 180q-27 112 2 212q30 103 117 178q86 74 230 74q71 2 125 -19zM581 507l-211 -365q16 -1 50 -1q77 0 128 40q49 39 69 97
q20 55 11 120q-9 66 -47 109zM260 206l211 366q-24 5 -51 2q-79 0 -129 -41q-49 -40 -70 -98q-19 -53 -10 -121q11 -64 49 -108z" />
    <glyph glyph-name="ugrave" unicode="&#xf9;" 
d="M669 249q0 -128 -82 -192q-81 -63 -178 -63q-95 0 -177 64q-80 64 -80 191v466h143v-465q0 -56 36 -85q37 -28 80 -28t80 28q36 27 36 85v465h142v-466zM271 909h167l48 -139h-124z" />
    <glyph glyph-name="uacute" unicode="&#xfa;" 
d="M389 909h167l-91 -139h-124zM669 249q0 -128 -82 -192q-81 -63 -178 -63q-95 0 -177 64q-80 64 -80 191v466h143v-465q0 -56 36 -85q37 -28 80 -28t80 28q36 27 36 85v465h142v-466z" />
    <glyph glyph-name="ucircumflex" unicode="&#xfb;" 
d="M669 249q0 -128 -82 -192q-81 -63 -178 -63q-95 0 -177 64q-80 64 -80 191v466h143v-465q0 -56 36 -85q37 -28 80 -28t80 28q36 27 36 85v465h142v-466zM598 781h-152l-37 47l-36 -47h-151l141 140h92z" />
    <glyph glyph-name="udieresis" unicode="&#xfc;" 
d="M669 249q0 -128 -82 -192q-81 -63 -178 -63q-95 0 -177 64q-80 64 -80 191v466h143v-465q0 -56 36 -85q37 -28 80 -28t80 28q36 27 36 85v465h142v-466zM219 842q0 34 23 55q22 21 54 21q33 0 55 -22q22 -19 22 -54q0 -33 -23 -53q-22 -21 -54 -21q-31 0 -55 21
q-22 21 -22 53zM453 842q0 34 23 55q22 21 54 21q33 0 55 -22q22 -19 22 -54q0 -33 -23 -53q-22 -21 -54 -21q-30 0 -54 21q-23 21 -23 53z" />
    <glyph glyph-name="yacute" unicode="&#xfd;" horiz-adv-x="649" 
d="M261 0v322l-249 393h174l146 -246l146 246h175l-250 -393v-322h-142zM305 913h183l-101 -141h-135z" />
    <glyph glyph-name="thorn" unicode="&#xfe;" horiz-adv-x="603" 
d="M303 0h-143v715h143v-125h138q105 0 156 -70q51 -67 51 -152q0 -83 -52 -151q-50 -68 -155 -68h-138v-149zM303 288h126q35 0 54 25q18 25 18 55q0 31 -18 55q-18 25 -54 25h-126v-160z" />
    <glyph glyph-name="ydieresis" unicode="&#xff;" horiz-adv-x="649" 
d="M261 0v322l-249 393h174l146 -246l146 246h175l-250 -393v-322h-142zM125 843q0 35 24 59q23 23 57 23t58 -24t24 -58t-24 -58q-25 -23 -58 -23q-32 0 -57 23q-24 24 -24 58zM372 843q0 35 24 59q23 23 57 23t58 -24t24 -58t-24 -58q-25 -23 -58 -23q-32 0 -57 23
q-24 24 -24 58z" />
    <glyph glyph-name="Amacron" unicode="&#x100;" horiz-adv-x="653" 
d="M319 729h43l287 -729h-161l-29 77h-237l-28 -77h-162zM274 211h132l-65 197zM208 768v131h264v-131h-264z" />
    <glyph glyph-name="amacron" unicode="&#x101;" horiz-adv-x="653" 
d="M319 729h43l287 -729h-161l-29 77h-237l-28 -77h-162zM274 211h132l-65 197zM208 768v131h264v-131h-264z" />
    <glyph glyph-name="Abreve" unicode="&#x102;" horiz-adv-x="653" 
d="M319 729h43l287 -729h-161l-29 77h-237l-28 -77h-162zM274 211h132l-65 197zM341 867q19 0 32 9q14 8 14 33h94q3 -45 -12 -74q-17 -30 -36 -43q-19 -14 -48 -20q-28 -5 -44 -5q-15 0 -45 5q-26 6 -48 20q-21 14 -37 43q-13 25 -10 74h94q0 -24 14 -33q15 -9 32 -9z" />
    <glyph glyph-name="abreve" unicode="&#x103;" horiz-adv-x="653" 
d="M319 729h43l287 -729h-161l-29 77h-237l-28 -77h-162zM274 211h132l-65 197zM341 867q19 0 32 9q14 8 14 33h94q3 -45 -12 -74q-17 -30 -36 -43q-19 -14 -48 -20q-28 -5 -44 -5q-15 0 -45 5q-26 6 -48 20q-21 14 -37 43q-13 25 -10 74h94q0 -24 14 -33q15 -9 32 -9z" />
    <glyph glyph-name="Aogonek" unicode="&#x104;" horiz-adv-x="653" 
d="M32 0l301 741h15l301 -741q-33 -26 -63 -70q-27 -42 -12 -71q8 -15 30 -12q25 3 40 10l9 -97q-49 -17 -112 -14q-58 4 -84 53q-27 53 -2 108q28 59 65 93h-32l-29 77h-237l-28 -77h-162zM274 211h132l-65 186z" />
    <glyph glyph-name="aogonek" unicode="&#x105;" horiz-adv-x="653" 
d="M32 0l301 741h15l301 -741q-33 -26 -63 -70q-27 -42 -12 -71q8 -15 30 -12q25 3 40 10l9 -97q-49 -17 -112 -14q-58 4 -84 53q-27 53 -2 108q28 59 65 93h-32l-29 77h-237l-28 -77h-162zM274 211h132l-65 186z" />
    <glyph glyph-name="Cacute" unicode="&#x106;" horiz-adv-x="602" 
d="M581 549q-23 12 -50 21q-24 10 -74 10q-106 0 -160 -69q-53 -70 -53 -150q0 -79 53 -149q54 -68 160 -68q44 0 82 11q42 14 56 21l19 -148q-32 -13 -77 -22q-46 -8 -80 -8q-182 0 -274 113q-90 114 -90 249t91 250q92 114 273 114q78 0 141 -28zM426 896h138l-104 -142
h-105z" />
    <glyph glyph-name="cacute" unicode="&#x107;" horiz-adv-x="602" 
d="M581 549q-23 12 -50 21q-24 10 -74 10q-106 0 -160 -69q-53 -70 -53 -150q0 -79 53 -149q54 -68 160 -68q44 0 82 11q42 14 56 21l19 -148q-32 -13 -77 -22q-46 -8 -80 -8q-182 0 -274 113q-90 114 -90 249t91 250q92 114 273 114q78 0 141 -28zM426 896h138l-104 -142
h-105z" />
    <glyph glyph-name="Ccircumflex" unicode="&#x108;" horiz-adv-x="602" 
d="M534 549l17 147q-63 28 -141 28q-182 0 -273 -114q-91 -115 -91 -250q0 -134 91 -249q92 -113 273 -113q35 0 81 8q43 9 76 22l-19 148q-18 -9 -57 -22q-34 -10 -81 -10q-106 0 -160 68q-53 70 -53 150t53 150q53 68 160 68q49 0 75 -11q30 -11 49 -20zM554 771h-152
l-37 47l-36 -47h-151l141 140h92z" />
    <glyph glyph-name="ccircumflex" unicode="&#x109;" horiz-adv-x="602" 
d="M534 549l17 147q-63 28 -141 28q-182 0 -273 -114q-91 -115 -91 -250q0 -134 91 -249q92 -113 273 -113q35 0 81 8q43 9 76 22l-19 148q-18 -9 -57 -22q-34 -10 -81 -10q-106 0 -160 68q-53 70 -53 150t53 150q53 68 160 68q49 0 75 -11q30 -11 49 -20zM554 771h-152
l-37 47l-36 -47h-151l141 140h92z" />
    <glyph glyph-name="Cdot" unicode="&#x10a;" horiz-adv-x="602" 
d="M581 549q-23 12 -50 21q-24 10 -74 10q-106 0 -160 -69q-53 -70 -53 -150q0 -79 53 -149q54 -68 160 -68q44 0 82 11q42 14 56 21l19 -148q-32 -13 -77 -22q-46 -8 -80 -8q-182 0 -274 113q-90 114 -90 249t91 250q92 114 273 114q78 0 141 -28zM436 929q42 0 61 -24
q20 -23 20 -53q0 -27 -21 -51q-21 -23 -60 -23q-42 0 -63 23q-20 23 -20 52q0 28 21 52t62 24z" />
    <glyph glyph-name="cdot" unicode="&#x10b;" horiz-adv-x="602" 
d="M581 549q-23 12 -50 21q-24 10 -74 10q-106 0 -160 -69q-53 -70 -53 -150q0 -79 53 -149q54 -68 160 -68q44 0 82 11q42 14 56 21l19 -148q-32 -13 -77 -22q-46 -8 -80 -8q-182 0 -274 113q-90 114 -90 249t91 250q92 114 273 114q78 0 141 -28zM436 929q42 0 61 -24
q20 -23 20 -53q0 -27 -21 -51q-21 -23 -60 -23q-42 0 -63 23q-20 23 -20 52q0 28 21 52t62 24z" />
    <glyph glyph-name="Ccaron" unicode="&#x10c;" horiz-adv-x="602" 
d="M581 549q-23 12 -50 21q-24 10 -74 10q-106 0 -160 -69q-53 -70 -53 -150q0 -79 53 -149q54 -68 160 -68q44 0 82 11q42 14 56 21l19 -148q-32 -13 -77 -22q-46 -8 -80 -8q-182 0 -274 113q-90 114 -90 249t91 250q92 114 273 114q78 0 141 -28zM459 892h122l-153 -155
h-12l-155 155h125l36 -47z" />
    <glyph glyph-name="ccaron" unicode="&#x10d;" horiz-adv-x="602" 
d="M581 549q-23 12 -50 21q-24 10 -74 10q-106 0 -160 -69q-53 -70 -53 -150q0 -79 53 -149q54 -68 160 -68q44 0 82 11q42 14 56 21l19 -148q-32 -13 -77 -22q-46 -8 -80 -8q-182 0 -274 113q-90 114 -90 249t91 250q92 114 273 114q78 0 141 -28zM459 892h122l-153 -155
h-12l-155 155h125l36 -47z" />
    <glyph glyph-name="Dcaron" unicode="&#x10e;" horiz-adv-x="704" 
d="M293 715q178 0 268 -112q89 -110 89 -247q0 -134 -90 -245t-267 -111h-213v715h213zM293 572h-70v-429h70q104 0 156 67t52 147q0 81 -52 148q-50 67 -156 67zM337 908h152l-143 -140h-92l-141 140h151l36 -47z" />
    <glyph glyph-name="dcaron" unicode="&#x10f;" horiz-adv-x="704" 
d="M293 715q178 0 268 -112q89 -110 89 -247q0 -134 -90 -245t-267 -111h-213v715h213zM293 572h-70v-429h70q104 0 156 67t52 147q0 81 -52 148q-50 67 -156 67zM337 908h152l-143 -140h-92l-141 140h151l36 -47z" />
    <glyph glyph-name="Dcroat" unicode="&#x110;" horiz-adv-x="704" 
d="M3 285v133h77v297h213q178 0 268 -112q89 -110 89 -247q0 -134 -90 -245t-267 -111h-213v285h-77zM293 572h-70v-154h128l-30 -133h-98v-142h70q104 0 156 67t52 147q0 81 -52 148q-50 67 -156 67z" />
    <glyph glyph-name="dcroat" unicode="&#x111;" horiz-adv-x="704" 
d="M3 285v133h77v297h213q178 0 268 -112q89 -110 89 -247q0 -134 -90 -245t-267 -111h-213v285h-77zM293 572h-70v-154h128l-30 -133h-98v-142h70q104 0 156 67t52 147q0 81 -52 148q-50 67 -156 67z" />
    <glyph glyph-name="Emacron" unicode="&#x112;" horiz-adv-x="504" 
d="M530 0h-370v715h358v-143h-215v-143h188v-143h-188v-143h227v-143zM215 775v121h262v-121h-262z" />
    <glyph glyph-name="emacron" unicode="&#x113;" horiz-adv-x="504" 
d="M530 0h-370v715h358v-143h-215v-143h188v-143h-188v-143h227v-143zM215 775v121h262v-121h-262z" />
    <glyph glyph-name="Ebreve" unicode="&#x114;" horiz-adv-x="504" 
d="M530 0h-370v715h358v-143h-215v-143h188v-143h-188v-143h227v-143zM344 864q18 0 32 9q14 8 14 33h94q3 -45 -12 -74q-17 -30 -36 -43q-19 -14 -48 -20q-28 -5 -44 -5q-15 0 -45 5q-26 6 -48 20q-21 14 -37 43q-13 25 -10 74h94q0 -24 14 -33q15 -9 32 -9z" />
    <glyph glyph-name="ebreve" unicode="&#x115;" horiz-adv-x="504" 
d="M530 0h-370v715h358v-143h-215v-143h188v-143h-188v-143h227v-143zM344 864q18 0 32 9q14 8 14 33h94q3 -45 -12 -74q-17 -30 -36 -43q-19 -14 -48 -20q-28 -5 -44 -5q-15 0 -45 5q-26 6 -48 20q-21 14 -37 43q-13 25 -10 74h94q0 -24 14 -33q15 -9 32 -9z" />
    <glyph glyph-name="Edot" unicode="&#x116;" horiz-adv-x="504" 
d="M530 0h-370v715h358v-143h-215v-143h188v-143h-188v-143h227v-143zM343 912q41 0 61 -24q19 -22 19 -50q0 -26 -21 -50q-21 -22 -59 -22q-41 0 -62 23q-20 25 -20 49q0 26 20 51q20 23 62 23z" />
    <glyph glyph-name="edot" unicode="&#x117;" horiz-adv-x="504" 
d="M530 0h-370v715h358v-143h-215v-143h188v-143h-188v-143h227v-143zM343 912q41 0 61 -24q19 -22 19 -50q0 -26 -21 -50q-21 -22 -59 -22q-41 0 -62 23q-20 25 -20 49q0 26 20 51q20 23 62 23z" />
    <glyph glyph-name="Eogonek" unicode="&#x118;" horiz-adv-x="504" 
d="M530 143v-143q-44 -25 -64 -66q-18 -39 -6 -65q8 -13 30 -12q23 3 39 10l9 -94q-48 -17 -110 -14q-58 4 -83 52q-12 25 -11 50q4 32 12 51q13 29 29 48q17 22 36 40h-251v715h358v-143h-215v-143h188v-143h-188v-143h227z" />
    <glyph glyph-name="eogonek" unicode="&#x119;" horiz-adv-x="504" 
d="M530 143v-143q-44 -25 -64 -66q-18 -39 -6 -65q8 -13 30 -12q23 3 39 10l9 -94q-48 -17 -110 -14q-58 4 -83 52q-12 25 -11 50q4 32 12 51q13 29 29 48q17 22 36 40h-251v715h358v-143h-215v-143h188v-143h-188v-143h227z" />
    <glyph glyph-name="Ecaron" unicode="&#x11a;" horiz-adv-x="504" 
d="M530 0h-370v715h358v-143h-215v-143h188v-143h-188v-143h227v-143zM386 890h148l-139 -128h-90l-138 128h148l35 -43z" />
    <glyph glyph-name="ecaron" unicode="&#x11b;" horiz-adv-x="504" 
d="M530 0h-370v715h358v-143h-215v-143h188v-143h-188v-143h227v-143zM386 890h148l-139 -128h-90l-138 128h148l35 -43z" />
    <glyph glyph-name="Gcircumflex" unicode="&#x11c;" horiz-adv-x="673" 
d="M596 44v314h-145v-215q-14 -2 -40 -4q-103 0 -158 67q-54 67 -55 147q0 82 52 150q55 70 161 73q55 1 93 -8q36 -9 57 -18l17 145q-21 7 -57 16q-45 13 -110 10q-186 -6 -276 -122q-90 -114 -87 -249q3 -134 94 -244q93 -110 269 -110q104 2 185 48zM568 772h-152l-37 47
l-36 -47h-151l141 140h92z" />
    <glyph glyph-name="gcircumflex" unicode="&#x11d;" horiz-adv-x="673" 
d="M596 44v314h-145v-215q-14 -2 -40 -4q-103 0 -158 67q-54 67 -55 147q0 82 52 150q55 70 161 73q55 1 93 -8q36 -9 57 -18l17 145q-21 7 -57 16q-45 13 -110 10q-186 -6 -276 -122q-90 -114 -87 -249q3 -134 94 -244q93 -110 269 -110q104 2 185 48zM568 772h-152l-37 47
l-36 -47h-151l141 140h92z" />
    <glyph glyph-name="Gbreve" unicode="&#x11e;" horiz-adv-x="673" 
d="M641 44q-81 -46 -185 -48q-176 0 -269 110q-92 112 -95 245q-3 134 88 249q90 115 276 121q62 3 110 -11q48 -12 57 -15l-17 -145q-21 9 -57 18q-38 9 -93 8q-107 -3 -162 -73q-51 -67 -51 -150q2 -81 55 -148q54 -66 158 -66q26 2 40 4v215h145v-314zM423 865q19 0 32 9
q14 8 14 33h94q3 -45 -12 -74q-17 -30 -36 -43q-19 -14 -48 -20q-28 -5 -44 -5q-15 0 -45 5q-26 6 -48 20q-21 14 -37 43q-13 25 -10 74h94q0 -24 14 -33q15 -9 32 -9z" />
    <glyph glyph-name="gbreve" unicode="&#x11f;" horiz-adv-x="673" 
d="M641 44q-81 -46 -185 -48q-176 0 -269 110q-92 112 -95 245q-3 134 88 249q90 115 276 121q62 3 110 -11q48 -12 57 -15l-17 -145q-21 9 -57 18q-38 9 -93 8q-107 -3 -162 -73q-51 -67 -51 -150q2 -81 55 -148q54 -66 158 -66q26 2 40 4v215h145v-314zM423 865q19 0 32 9
q14 8 14 33h94q3 -45 -12 -74q-17 -30 -36 -43q-19 -14 -48 -20q-28 -5 -44 -5q-15 0 -45 5q-26 6 -48 20q-21 14 -37 43q-13 25 -10 74h94q0 -24 14 -33q15 -9 32 -9z" />
    <glyph glyph-name="Gdot" unicode="&#x120;" horiz-adv-x="673" 
d="M641 44q-81 -46 -185 -48q-176 0 -269 110q-92 112 -95 245q-3 134 88 249q90 115 276 121q62 3 110 -11q48 -12 57 -15l-17 -145q-21 9 -57 18q-38 9 -93 8q-107 -3 -162 -73q-51 -67 -51 -150q2 -81 55 -148q54 -66 158 -66q26 2 40 4v215h145v-314zM436 919
q42 0 62 -24q20 -23 20 -51q0 -26 -21 -50q-21 -23 -61 -23q-42 0 -63 23q-21 24 -21 51t21 51q20 23 63 23z" />
    <glyph glyph-name="gdot" unicode="&#x121;" horiz-adv-x="673" 
d="M641 44q-81 -46 -185 -48q-176 0 -269 110q-92 112 -95 245q-3 134 88 249q90 115 276 121q62 3 110 -11q48 -12 57 -15l-17 -145q-21 9 -57 18q-38 9 -93 8q-107 -3 -162 -73q-51 -67 -51 -150q2 -81 55 -148q54 -66 158 -66q26 2 40 4v215h145v-314zM436 919
q42 0 62 -24q20 -23 20 -51q0 -26 -21 -50q-21 -23 -61 -23q-42 0 -63 23q-21 24 -21 51t21 51q20 23 63 23z" />
    <glyph glyph-name="Gcedilla" unicode="&#x122;" horiz-adv-x="673" 
d="M445 -260h-116l38 204h148zM641 44q-81 -46 -185 -48q-176 0 -269 110q-92 112 -95 245q-3 134 88 249q90 115 276 121q62 3 110 -11q48 -12 57 -15l-17 -145q-21 9 -57 18q-38 9 -93 8q-107 -3 -162 -73q-51 -67 -51 -150q2 -81 55 -148q54 -66 158 -66q26 2 40 4v215
h145v-314z" />
    <glyph glyph-name="gcedilla" unicode="&#x123;" horiz-adv-x="673" 
d="M445 -260h-116l38 204h148zM641 44q-81 -46 -185 -48q-176 0 -269 110q-92 112 -95 245q-3 134 88 249q90 115 276 121q62 3 110 -11q48 -12 57 -15l-17 -145q-21 9 -57 18q-38 9 -93 8q-107 -3 -162 -73q-51 -67 -51 -150q2 -81 55 -148q54 -66 158 -66q26 2 40 4v215
h145v-314z" />
    <glyph glyph-name="Hcircumflex" unicode="&#x124;" horiz-adv-x="661" 
d="M660 0h-143v286h-214v-286h-143v715h143v-286h214v286h143v-715zM597 772h-152l-37 47l-36 -47h-151l141 140h92z" />
    <glyph glyph-name="hcircumflex" unicode="&#x125;" horiz-adv-x="661" 
d="M660 0h-143v286h-214v-286h-143v715h143v-286h214v286h143v-715zM597 772h-152l-37 47l-36 -47h-151l141 140h92z" />
    <glyph glyph-name="Hbar" unicode="&#x126;" horiz-adv-x="661" 
d="M34 523v106h63v86h143v-86h214v86h143v-86h63v-106h-63v-523h-143v286h-214v-286h-143v523h-63zM240 429h214v94h-214v-94z" />
    <glyph glyph-name="hbar" unicode="&#x127;" horiz-adv-x="661" 
d="M34 523v106h63v86h143v-86h214v86h143v-86h63v-106h-63v-523h-143v286h-214v-286h-143v523h-63zM240 429h214v94h-214v-94z" />
    <glyph glyph-name="Itilde" unicode="&#x128;" horiz-adv-x="304" 
d="M214 0h-143v715h143v-715zM62 777l-80 34q14 43 39 67q26 25 65 25q21 0 40 -11l34 -17q18 -6 30 -5q14 3 26 26l79 -35q-12 -41 -40 -68q-27 -24 -65 -23q-19 0 -41 10q-19 11 -35 17q-14 7 -28 4q-12 -1 -24 -24z" />
    <glyph glyph-name="itilde" unicode="&#x129;" horiz-adv-x="304" 
d="M214 0h-143v715h143v-715zM62 777l-80 34q14 43 39 67q26 25 65 25q21 0 40 -11l34 -17q18 -6 30 -5q14 3 26 26l79 -35q-12 -41 -40 -68q-27 -24 -65 -23q-19 0 -41 10q-19 11 -35 17q-14 7 -28 4q-12 -1 -24 -24z" />
    <glyph glyph-name="Imacron" unicode="&#x12a;" horiz-adv-x="304" 
d="M248 0h-143v715h143v-715zM50 779v123h258v-123h-258z" />
    <glyph glyph-name="imacron" unicode="&#x12b;" horiz-adv-x="304" 
d="M248 0h-143v715h143v-715zM50 779v123h258v-123h-258z" />
    <glyph glyph-name="Ibreve" unicode="&#x12c;" horiz-adv-x="304" 
d="M235 0h-143v715h143v-715zM165 868q19 0 32 9q14 8 14 33h94q3 -45 -12 -74q-17 -30 -36 -43q-19 -14 -48 -20q-28 -5 -44 -5q-15 0 -45 5q-26 6 -48 20q-21 14 -37 43q-13 25 -10 74h94q0 -24 14 -33q15 -9 32 -9z" />
    <glyph glyph-name="ibreve" unicode="&#x12d;" horiz-adv-x="304" 
d="M235 0h-143v715h143v-715zM165 868q19 0 32 9q14 8 14 33h94q3 -45 -12 -74q-17 -30 -36 -43q-19 -14 -48 -20q-28 -5 -44 -5q-15 0 -45 5q-26 6 -48 20q-21 14 -37 43q-13 25 -10 74h94q0 -24 14 -33q15 -9 32 -9z" />
    <glyph glyph-name="Iogonek" unicode="&#x12e;" horiz-adv-x="304" 
d="M257 0q-24 -26 -50 -69q-22 -38 -8 -66q7 -15 30 -12q25 3 40 10l9 -97q-49 -17 -112 -14q-58 4 -84 53q-26 50 -1 104q29 58 65 91h-32v715h143v-715z" />
    <glyph glyph-name="iogonek" unicode="&#x12f;" horiz-adv-x="304" 
d="M257 0q-24 -26 -50 -69q-22 -38 -8 -66q7 -15 30 -12q25 3 40 10l9 -97q-49 -17 -112 -14q-58 4 -84 53q-26 50 -1 104q29 58 65 91h-32v715h143v-715z" />
    <glyph glyph-name="Idot" unicode="&#x130;" horiz-adv-x="304" 
d="M296 0h-143v715h143v-715zM227 928q42 0 61 -25q19 -22 19 -55q0 -29 -21 -53t-59 -24q-40 0 -61 24q-20 25 -20 54t20 54q21 25 61 25z" />
    <glyph glyph-name="dotlessi" unicode="&#x131;" horiz-adv-x="304" 
d="M303 0h-143v715h143v-715z" />
    <glyph glyph-name="IJ" unicode="&#x132;" horiz-adv-x="769" 
d="M303 0h-143v715h143v-715zM416 0v143h137q30 0 51 21t21 51v500h145v-500q0 -108 -53.5 -162t-159.5 -53h-141z" />
    <glyph glyph-name="ij" unicode="&#x133;" horiz-adv-x="769" 
d="M303 0h-143v715h143v-715zM416 0v143h137q30 0 51 21t21 51v500h145v-500q0 -108 -53.5 -162t-159.5 -53h-141z" />
    <glyph glyph-name="Jcircumflex" unicode="&#x134;" horiz-adv-x="465" 
d="M64 0v143h137q30 0 51 21t21 51v500h145v-500q0 -108 -53.5 -162t-159.5 -53h-141zM520 769h-152l-37 47l-36 -47h-151l141 140h92z" />
    <glyph glyph-name="jcircumflex" unicode="&#x135;" horiz-adv-x="465" 
d="M64 0v143h137q30 0 51 21t21 51v500h145v-500q0 -108 -53.5 -162t-159.5 -53h-141zM520 769h-152l-37 47l-36 -47h-151l141 140h92z" />
    <glyph glyph-name="Kcedilla" unicode="&#x136;" horiz-adv-x="604" 
d="M286 -254h116l70 204h-148zM160 0v715h143v-285l180 285h167l-232 -353l252 -362h-177l-190 280v-280h-143z" />
    <glyph glyph-name="kcedilla" unicode="&#x137;" horiz-adv-x="604" 
d="M286 -254h116l70 204h-148zM160 0v715h143v-285l180 285h167l-232 -353l252 -362h-177l-190 280v-280h-143z" />
    <glyph glyph-name="kgreenlandic" unicode="&#x138;" horiz-adv-x="604" 
d="M160 0v715h143v-285l180 285h167l-232 -353l252 -362h-177l-190 280v-280h-143z" />
    <glyph glyph-name="Lacute" unicode="&#x139;" horiz-adv-x="493" 
d="M160 715h143v-572h227v-143h-370v715zM216 909h167l-92 -142h-123z" />
    <glyph glyph-name="lacute" unicode="&#x13a;" horiz-adv-x="493" 
d="M160 715h143v-572h227v-143h-370v715zM216 909h167l-92 -142h-123z" />
    <glyph glyph-name="Lcedilla" unicode="&#x13b;" horiz-adv-x="493" 
d="M354 -247h-115l38 190h146zM160 715h143v-572h227v-143h-370v715z" />
    <glyph glyph-name="lcedilla" unicode="&#x13c;" horiz-adv-x="493" 
d="M354 -247h-115l38 190h146zM160 715h143v-572h227v-143h-370v715z" />
    <glyph glyph-name="Lcaron" unicode="&#x13d;" horiz-adv-x="493" 
d="M160 715h143v-572h227v-143h-370v715zM427 718h138l-73 -204h-105z" />
    <glyph glyph-name="lcaron" unicode="&#x13e;" horiz-adv-x="493" 
d="M160 715h143v-572h227v-143h-370v715zM427 718h138l-73 -204h-105z" />
    <glyph glyph-name="Ldot" unicode="&#x13f;" horiz-adv-x="493" 
d="M160 715h143v-572h227v-143h-370v715zM459 462q42 0 61 -26q19 -23 19 -55q0 -29 -21 -55q-22 -25 -59 -25q-39 0 -61 25q-20 26 -20 55q0 30 20 56q19 25 61 25z" />
    <glyph glyph-name="ldot" unicode="&#x140;" horiz-adv-x="493" 
d="M160 715h143v-572h227v-143h-370v715zM459 462q42 0 61 -26q19 -23 19 -55q0 -29 -21 -55q-22 -25 -59 -25q-39 0 -61 25q-20 26 -20 55q0 30 20 56q19 25 61 25z" />
    <glyph glyph-name="Lslash" unicode="&#x141;" horiz-adv-x="489" 
d="M85 377v338h142v-289l144 48v-129l-144 -49v-152h226v-144h-368v248l-85 -29v129z" />
    <glyph glyph-name="lslash" unicode="&#x142;" horiz-adv-x="489" 
d="M85 377v338h142v-289l144 48v-129l-144 -49v-152h226v-144h-368v248l-85 -29v129z" />
    <glyph glyph-name="Nacute" unicode="&#x143;" horiz-adv-x="704" 
d="M303 389v-389h-143v730h38l361 -420v404h144v-729h-38zM383 908h183l-101 -141h-135z" />
    <glyph glyph-name="nacute" unicode="&#x144;" horiz-adv-x="704" 
d="M303 389v-389h-143v730h38l361 -420v404h144v-729h-38zM383 908h183l-101 -141h-135z" />
    <glyph glyph-name="Ncedilla" unicode="&#x145;" horiz-adv-x="704" 
d="M472 -244h-115l38 190h146zM303 389v-389h-143v730h38l361 -420v404h144v-729h-38z" />
    <glyph glyph-name="ncedilla" unicode="&#x146;" horiz-adv-x="704" 
d="M472 -244h-115l38 190h146zM303 389v-389h-143v730h38l361 -420v404h144v-729h-38z" />
    <glyph glyph-name="Ncaron" unicode="&#x147;" horiz-adv-x="704" 
d="M303 389v-389h-143v730h38l361 -420v404h144v-729h-38zM461 906h152l-143 -140h-92l-141 140h151l36 -47z" />
    <glyph glyph-name="ncaron" unicode="&#x148;" horiz-adv-x="704" 
d="M303 389v-389h-143v730h38l361 -420v404h144v-729h-38zM461 906h152l-143 -140h-92l-141 140h151l36 -47z" />
    <glyph glyph-name="napostrophe" unicode="&#x149;" horiz-adv-x="704" 
d="M303 389v-389h-143v730h38l361 -420v404h144v-729h-38z" />
    <glyph glyph-name="Eng" unicode="&#x14a;" horiz-adv-x="704" 
d="M568 93l-265 296v-389h-143v730h38l361 -420v404h144v-748q0 -96 -59 -148q-60 -52 -145 -52h-40v137h36q30 0 52 17q21 17 21 46v127z" />
    <glyph glyph-name="eng" unicode="&#x14b;" horiz-adv-x="704" 
d="M568 93l-265 296v-389h-143v730h38l361 -420v404h144v-748q0 -96 -59 -148q-60 -52 -145 -52h-40v137h36q30 0 52 17q21 17 21 46v127z" />
    <glyph glyph-name="Omacron" unicode="&#x14c;" horiz-adv-x="847" 
d="M479 -10q-183 0 -277 115q-92 116 -92 253q0 138 92 254q91 115 277 115q185 0 277 -116q92 -114 92 -253q0 -138 -93 -253q-94 -115 -276 -115zM479 138q107 0 161 69q53 68 53 151q0 84 -54 153q-53 69 -160 69q-108 0 -162 -70q-53 -68 -53 -152q0 -83 54 -152
q53 -68 161 -68zM348 784v133h278v-133h-278z" />
    <glyph glyph-name="omacron" unicode="&#x14d;" horiz-adv-x="847" 
d="M479 -10q-183 0 -277 115q-92 116 -92 253q0 138 92 254q91 115 277 115q185 0 277 -116q92 -114 92 -253q0 -138 -93 -253q-94 -115 -276 -115zM479 138q107 0 161 69q53 68 53 151q0 84 -54 153q-53 69 -160 69q-108 0 -162 -70q-53 -68 -53 -152q0 -83 54 -152
q53 -68 161 -68zM348 784v133h278v-133h-278z" />
    <glyph glyph-name="Obreve" unicode="&#x14e;" horiz-adv-x="847" 
d="M479 -10q-183 0 -277 115q-92 116 -92 253q0 138 92 254q91 115 277 115q185 0 277 -116q92 -114 92 -253q0 -138 -93 -253q-94 -115 -276 -115zM479 138q107 0 161 69q53 68 53 151q0 84 -54 153q-53 69 -160 69q-108 0 -162 -70q-53 -68 -53 -152q0 -83 54 -152
q53 -68 161 -68zM482 885q20 0 35 9q14 8 14 33h101q3 -46 -12 -76q-15 -28 -39 -43q-22 -14 -52 -20q-30 -5 -47 -5t-49 5q-29 7 -51 20q-23 14 -40 44q-14 28 -11 75h101q0 -24 15 -33t35 -9z" />
    <glyph glyph-name="obreve" unicode="&#x14f;" horiz-adv-x="847" 
d="M479 -10q-183 0 -277 115q-92 116 -92 253q0 138 92 254q91 115 277 115q185 0 277 -116q92 -114 92 -253q0 -138 -93 -253q-94 -115 -276 -115zM479 138q107 0 161 69q53 68 53 151q0 84 -54 153q-53 69 -160 69q-108 0 -162 -70q-53 -68 -53 -152q0 -83 54 -152
q53 -68 161 -68zM482 885q20 0 35 9q14 8 14 33h101q3 -46 -12 -76q-15 -28 -39 -43q-22 -14 -52 -20q-30 -5 -47 -5t-49 5q-29 7 -51 20q-23 14 -40 44q-14 28 -11 75h101q0 -24 15 -33t35 -9z" />
    <glyph glyph-name="Odblacute" unicode="&#x150;" horiz-adv-x="847" 
d="M479 -10q-183 0 -277 115q-92 116 -92 253q0 138 92 254q91 115 277 115q185 0 277 -116q92 -114 92 -253q0 -138 -93 -253q-94 -115 -276 -115zM479 138q107 0 161 69q53 68 53 151q0 84 -54 153q-53 69 -160 69q-108 0 -162 -70q-53 -68 -53 -152q0 -83 54 -152
q53 -68 161 -68zM349 913h169l-93 -138h-125zM568 913h169l-93 -138h-125z" />
    <glyph glyph-name="odblacute" unicode="&#x151;" horiz-adv-x="847" 
d="M479 -10q-183 0 -277 115q-92 116 -92 253q0 138 92 254q91 115 277 115q185 0 277 -116q92 -114 92 -253q0 -138 -93 -253q-94 -115 -276 -115zM479 138q107 0 161 69q53 68 53 151q0 84 -54 153q-53 69 -160 69q-108 0 -162 -70q-53 -68 -53 -152q0 -83 54 -152
q53 -68 161 -68zM349 913h169l-93 -138h-125zM568 913h169l-93 -138h-125z" />
    <glyph glyph-name="OE" unicode="&#x152;" horiz-adv-x="855" 
d="M398 -5q-181 0 -273 113q-90 114 -90 249q0 134 91 249q91 113 272 113q25 0 67 -4h322v-143h-202v-142h174v-140h-174v-148h212v-142h-332q-26 -5 -67 -5zM451 124v468q-13 2 -53 2q-53 0 -91 -22q-38 -21 -66 -56q-23 -28 -40 -76q-13 -40 -13 -80q0 -38 13 -85
q14 -44 38 -76q28 -34 66 -56q41 -21 93 -21q21 0 53 2z" />
    <glyph glyph-name="oe" unicode="&#x153;" horiz-adv-x="855" 
d="M398 -5q-181 0 -273 113q-90 114 -90 249q0 134 91 249q91 113 272 113q25 0 67 -4h322v-143h-202v-142h174v-140h-174v-148h212v-142h-332q-26 -5 -67 -5zM451 124v468q-13 2 -53 2q-53 0 -91 -22q-38 -21 -66 -56q-23 -28 -40 -76q-13 -40 -13 -80q0 -38 13 -85
q14 -44 38 -76q28 -34 66 -56q41 -21 93 -21q21 0 53 2z" />
    <glyph glyph-name="Racute" unicode="&#x154;" horiz-adv-x="613" 
d="M678 0h-162l-144 273h-69v-273h-143v715h282q96 0 148 -58q52 -55 61 -130q9 -74 -26 -142q-34 -67 -113 -90zM303 572v-160h126q35 0 54 25q18 25 18 55q0 31 -18 55q-18 25 -54 25h-126zM351 906h161l-89 -142h-119z" />
    <glyph glyph-name="racute" unicode="&#x155;" horiz-adv-x="613" 
d="M678 0h-162l-144 273h-69v-273h-143v715h282q96 0 148 -58q52 -55 61 -130q9 -74 -26 -142q-34 -67 -113 -90zM303 572v-160h126q35 0 54 25q18 25 18 55q0 31 -18 55q-18 25 -54 25h-126zM351 906h161l-89 -142h-119z" />
    <glyph glyph-name="Rcedilla" unicode="&#x156;" horiz-adv-x="613" 
d="M417 -247h-115l38 190h146zM678 0h-162l-144 273h-69v-273h-143v715h282q96 0 148 -58q52 -55 61 -130q9 -74 -26 -142q-34 -67 -113 -90zM303 572v-160h126q35 0 54 25q18 25 18 55q0 31 -18 55q-18 25 -54 25h-126z" />
    <glyph glyph-name="rcedilla" unicode="&#x157;" horiz-adv-x="613" 
d="M417 -247h-115l38 190h146zM678 0h-162l-144 273h-69v-273h-143v715h282q96 0 148 -58q52 -55 61 -130q9 -74 -26 -142q-34 -67 -113 -90zM303 572v-160h126q35 0 54 25q18 25 18 55q0 31 -18 55q-18 25 -54 25h-126z" />
    <glyph glyph-name="Rcaron" unicode="&#x158;" horiz-adv-x="613" 
d="M678 0h-162l-144 273h-69v-273h-143v715h282q96 0 148 -58q52 -55 61 -130q9 -74 -26 -142q-34 -67 -113 -90zM303 572v-160h126q35 0 54 25q18 25 18 55q0 31 -18 55q-18 25 -54 25h-126zM410 901h152l-143 -140h-92l-141 140h151l36 -47z" />
    <glyph glyph-name="rcaron" unicode="&#x159;" horiz-adv-x="613" 
d="M678 0h-162l-144 273h-69v-273h-143v715h282q96 0 148 -58q52 -55 61 -130q9 -74 -26 -142q-34 -67 -113 -90zM303 572v-160h126q35 0 54 25q18 25 18 55q0 31 -18 55q-18 25 -54 25h-126zM410 901h152l-143 -140h-92l-141 140h151l36 -47z" />
    <glyph glyph-name="Sacute" unicode="&#x15a;" horiz-adv-x="529" 
d="M47 46l18 150q61 -43 120 -52q62 -8 84 -5q32 3 54 22q23 20 20 50q-3 31 -24 46q-22 17 -50 27q-32 12 -81 34q-39 20 -68 44q-27 24 -46 61q-17 37 -17 79q0 90 56 152q56 61 146 66q27 2 68 -3q41 -3 110 -27l-18 -138q-60 24 -95 27q-34 3 -51 3q-39 -3 -57 -27
q-17 -23 -14 -53q3 -29 26 -46q26 -16 54 -26q82 -29 145 -83q62 -50 62 -136q0 -90 -58 -151q-57 -60 -158 -66q-29 -1 -92 6q-64 9 -134 46zM249 902h159l-88 -129h-117z" />
    <glyph glyph-name="sacute" unicode="&#x15b;" horiz-adv-x="529" 
d="M47 46l18 150q61 -43 120 -52q62 -8 84 -5q32 3 54 22q23 20 20 50q-3 31 -24 46q-22 17 -50 27q-32 12 -81 34q-39 20 -68 44q-27 24 -46 61q-17 37 -17 79q0 90 56 152q56 61 146 66q27 2 68 -3q41 -3 110 -27l-18 -138q-60 24 -95 27q-34 3 -51 3q-39 -3 -57 -27
q-17 -23 -14 -53q3 -29 26 -46q26 -16 54 -26q82 -29 145 -83q62 -50 62 -136q0 -90 -58 -151q-57 -60 -158 -66q-29 -1 -92 6q-64 9 -134 46zM249 902h159l-88 -129h-117z" />
    <glyph glyph-name="Scircumflex" unicode="&#x15c;" horiz-adv-x="529" 
d="M47 46l18 150q61 -43 120 -52q62 -8 84 -5q32 3 54 22q23 20 20 50q-3 31 -24 46q-22 17 -50 27q-32 12 -81 34q-39 20 -68 44q-27 24 -46 61q-17 37 -17 79q0 90 56 152q56 61 146 66q27 2 68 -3q41 -3 110 -27l-18 -138q-60 24 -95 27q-34 3 -51 3q-39 -3 -57 -27
q-17 -23 -14 -53q3 -29 26 -46q26 -16 54 -26q82 -29 145 -83q62 -50 62 -136q0 -90 -58 -151q-57 -60 -158 -66q-29 -1 -92 6q-64 9 -134 46zM449 769h-143l-35 51l-35 -51h-143l134 153h87z" />
    <glyph glyph-name="scircumflex" unicode="&#x15d;" horiz-adv-x="529" 
d="M47 46l18 150q61 -43 120 -52q62 -8 84 -5q32 3 54 22q23 20 20 50q-3 31 -24 46q-22 17 -50 27q-32 12 -81 34q-39 20 -68 44q-27 24 -46 61q-17 37 -17 79q0 90 56 152q56 61 146 66q27 2 68 -3q41 -3 110 -27l-18 -138q-60 24 -95 27q-34 3 -51 3q-39 -3 -57 -27
q-17 -23 -14 -53q3 -29 26 -46q26 -16 54 -26q82 -29 145 -83q62 -50 62 -136q0 -90 -58 -151q-57 -60 -158 -66q-29 -1 -92 6q-64 9 -134 46zM449 769h-143l-35 51l-35 -51h-143l134 153h87z" />
    <glyph glyph-name="Scedilla" unicode="&#x15e;" horiz-adv-x="529" 
d="M47 46l18 150q61 -43 120 -52q62 -8 84 -5q32 3 54 22q23 20 20 50q-3 31 -24 46q-22 17 -50 27q-32 12 -81 34q-39 20 -68 44q-27 24 -46 61q-17 37 -17 79q0 90 56 152q56 61 146 66q27 2 68 -3q41 -3 110 -27l-18 -138q-60 24 -95 27q-34 3 -51 3q-39 -3 -57 -27
q-17 -23 -14 -53q3 -29 26 -46q26 -16 54 -26q82 -29 145 -83q62 -50 62 -136q0 -81 -48 -139q-49 -59 -130 -73l-5 -37q34 -2 57 -19q25 -17 35 -42q11 -23 5 -55q-4 -30 -25 -56q-36 -45 -109 -49q-72 -3 -143 48l51 72q16 -10 40 -19q23 -7 47 -4q13 3 23 9q11 7 11 18
q-1 29 -36 35q-34 6 -61 0l19 95q-31 3 -79 14q-46 12 -94 37z" />
    <glyph glyph-name="scedilla" unicode="&#x15f;" horiz-adv-x="529" 
d="M47 46l18 150q61 -43 120 -52q62 -8 84 -5q32 3 54 22q23 20 20 50q-3 31 -24 46q-22 17 -50 27q-32 12 -81 34q-39 20 -68 44q-27 24 -46 61q-17 37 -17 79q0 90 56 152q56 61 146 66q27 2 68 -3q41 -3 110 -27l-18 -138q-60 24 -95 27q-34 3 -51 3q-39 -3 -57 -27
q-17 -23 -14 -53q3 -29 26 -46q26 -16 54 -26q82 -29 145 -83q62 -50 62 -136q0 -81 -48 -139q-49 -59 -130 -73l-5 -37q34 -2 57 -19q25 -17 35 -42q11 -23 5 -55q-4 -30 -25 -56q-36 -45 -109 -49q-72 -3 -143 48l51 72q16 -10 40 -19q23 -7 47 -4q13 3 23 9q11 7 11 18
q-1 29 -36 35q-34 6 -61 0l19 95q-31 3 -79 14q-46 12 -94 37z" />
    <glyph glyph-name="Scaron" unicode="&#x160;" horiz-adv-x="529" 
d="M47 46l18 150q61 -43 120 -52q62 -8 84 -5q32 3 54 22q23 20 20 50q-3 31 -24 46q-22 17 -50 27q-32 12 -81 34q-39 20 -68 44q-27 24 -46 61q-17 37 -17 79q0 90 56 152q56 61 146 66q27 2 68 -3q41 -3 110 -27l-18 -138q-60 24 -95 27q-34 3 -51 3q-39 -3 -57 -27
q-17 -23 -14 -53q3 -29 26 -46q26 -16 54 -26q82 -29 145 -83q62 -50 62 -136q0 -90 -58 -151q-57 -60 -158 -66q-29 -1 -92 6q-64 9 -134 46zM307 892h122l-153 -155h-12l-155 155h125l36 -47z" />
    <glyph glyph-name="scaron" unicode="&#x161;" horiz-adv-x="529" 
d="M47 46l18 150q61 -43 120 -52q62 -8 84 -5q32 3 54 22q23 20 20 50q-3 31 -24 46q-22 17 -50 27q-32 12 -81 34q-39 20 -68 44q-27 24 -46 61q-17 37 -17 79q0 90 56 152q56 61 146 66q27 2 68 -3q41 -3 110 -27l-18 -138q-60 24 -95 27q-34 3 -51 3q-39 -3 -57 -27
q-17 -23 -14 -53q3 -29 26 -46q26 -16 54 -26q82 -29 145 -83q62 -50 62 -136q0 -90 -58 -151q-57 -60 -158 -66q-29 -1 -92 6q-64 9 -134 46zM307 892h122l-153 -155h-12l-155 155h125l36 -47z" />
    <glyph glyph-name="Tcedilla" unicode="&#x162;" horiz-adv-x="547" 
d="M361 0h-23l-7 -51q32 -1 57 -20q24 -18 34 -44q11 -24 6 -57q-3 -29 -25 -59q-36 -49 -108 -53q-71 -3 -140 51l51 76q13 -10 39 -20q23 -7 45 -4q14 3 23 10q11 8 11 19q-2 30 -36 36q-29 7 -59 0l21 116h-32v572h-178v142h499v-142h-178v-572z" />
    <glyph glyph-name="tcedilla" unicode="&#x163;" horiz-adv-x="547" 
d="M361 0h-23l-7 -51q32 -1 57 -20q24 -18 34 -44q11 -24 6 -57q-3 -29 -25 -59q-36 -49 -108 -53q-71 -3 -140 51l51 76q13 -10 39 -20q23 -7 45 -4q14 3 23 10q11 8 11 19q-2 30 -36 36q-29 7 -59 0l21 116h-32v572h-178v142h499v-142h-178v-572z" />
    <glyph glyph-name="Tcaron" unicode="&#x164;" horiz-adv-x="547" 
d="M361 0h-143v572h-178v142h499v-142h-178v-572zM329 904h152l-143 -140h-92l-141 140h151l36 -47z" />
    <glyph glyph-name="tcaron" unicode="&#x165;" horiz-adv-x="547" 
d="M361 0h-143v572h-178v142h499v-142h-178v-572zM329 904h152l-143 -140h-92l-141 140h151l36 -47z" />
    <glyph glyph-name="Tbar" unicode="&#x166;" horiz-adv-x="547" 
d="M119 244v120h99v208h-178v142h499v-142h-178v-208h106v-120h-106v-244h-143v244h-99z" />
    <glyph glyph-name="tbar" unicode="&#x167;" horiz-adv-x="547" 
d="M119 244v120h99v208h-178v142h499v-142h-178v-208h106v-120h-106v-244h-143v244h-99z" />
    <glyph glyph-name="Utilde" unicode="&#x168;" 
d="M593 249q0 -128 -82 -192q-81 -63 -178 -63q-95 0 -177 64q-80 64 -80 191v466h143v-465q0 -56 36 -85q37 -28 80 -28t80 28q36 27 36 85v465h142v-466zM251 777l-85 37q14 46 42 74t69 27q23 0 43 -12q7 -4 19 -10l18 -9q17 -7 32 -4t27 27l84 -37q-14 -49 -43 -75
q-28 -27 -69 -25q-22 0 -44 11q-13 8 -37 18q-14 7 -31 4q-14 -3 -25 -26z" />
    <glyph glyph-name="utilde" unicode="&#x169;" 
d="M593 249q0 -128 -82 -192q-81 -63 -178 -63q-95 0 -177 64q-80 64 -80 191v466h143v-465q0 -56 36 -85q37 -28 80 -28t80 28q36 27 36 85v465h142v-466zM251 777l-85 37q14 46 42 74t69 27q23 0 43 -12q7 -4 19 -10l18 -9q17 -7 32 -4t27 27l84 -37q-14 -49 -43 -75
q-28 -27 -69 -25q-22 0 -44 11q-13 8 -37 18q-14 7 -31 4q-14 -3 -25 -26z" />
    <glyph glyph-name="Umacron" unicode="&#x16a;" 
d="M669 249q0 -128 -82 -192q-81 -63 -178 -63q-95 0 -177 64q-80 64 -80 191v466h143v-465q0 -56 36 -85q37 -28 80 -28t80 28q36 27 36 85v465h142v-466zM283 777v117h255v-117h-255z" />
    <glyph glyph-name="umacron" unicode="&#x16b;" 
d="M669 249q0 -128 -82 -192q-81 -63 -178 -63q-95 0 -177 64q-80 64 -80 191v466h143v-465q0 -56 36 -85q37 -28 80 -28t80 28q36 27 36 85v465h142v-466zM283 777v117h255v-117h-255z" />
    <glyph glyph-name="Ubreve" unicode="&#x16c;" 
d="M669 249q0 -128 -82 -192q-81 -63 -178 -63q-95 0 -177 64q-80 64 -80 191v466h143v-465q0 -56 36 -85q37 -28 80 -28t80 28q36 27 36 85v465h142v-466zM414 855q20 0 35 9t15 34h100q3 -47 -13 -76q-15 -28 -39 -45q-22 -13 -51 -20q-30 -5 -47 -5t-47 5q-27 6 -51 21
q-24 17 -40 44q-14 28 -11 76h100q0 -25 15 -34t34 -9z" />
    <glyph glyph-name="ubreve" unicode="&#x16d;" 
d="M669 249q0 -128 -82 -192q-81 -63 -178 -63q-95 0 -177 64q-80 64 -80 191v466h143v-465q0 -56 36 -85q37 -28 80 -28t80 28q36 27 36 85v465h142v-466zM414 855q20 0 35 9t15 34h100q3 -47 -13 -76q-15 -28 -39 -45q-22 -13 -51 -20q-30 -5 -47 -5t-47 5q-27 6 -51 21
q-24 17 -40 44q-14 28 -11 76h100q0 -25 15 -34t34 -9z" />
    <glyph glyph-name="Uring" unicode="&#x16e;" 
d="M669 249q0 -128 -82 -192q-81 -63 -178 -63q-95 0 -177 64q-80 64 -80 191v466h143v-465q0 -56 36 -85q37 -28 80 -28t80 28q36 27 36 85v465h142v-466zM412 901q-25 0 -38 -14q-12 -13 -12 -31q0 -14 13 -29q15 -13 37 -13q24 0 37 13t13 30t-13 30q-11 14 -37 14z
M411 975q66 0 99 -37q32 -35 32 -80q0 -43 -33 -79t-98 -36q-66 0 -99 36q-32 35 -32 80q0 44 33 80q32 36 98 36z" />
    <glyph glyph-name="uring" unicode="&#x16f;" 
d="M669 249q0 -128 -82 -192q-81 -63 -178 -63q-95 0 -177 64q-80 64 -80 191v466h143v-465q0 -56 36 -85q37 -28 80 -28t80 28q36 27 36 85v465h142v-466zM412 901q-25 0 -38 -14q-12 -13 -12 -31q0 -14 13 -29q15 -13 37 -13q24 0 37 13t13 30t-13 30q-11 14 -37 14z
M411 975q66 0 99 -37q32 -35 32 -80q0 -43 -33 -79t-98 -36q-66 0 -99 36q-32 35 -32 80q0 44 33 80q32 36 98 36z" />
    <glyph glyph-name="Udblacute" unicode="&#x170;" 
d="M669 249q0 -128 -82 -192q-81 -63 -178 -63q-95 0 -177 64q-80 64 -80 191v466h143v-465q0 -56 36 -85q37 -28 80 -28t80 28q36 27 36 85v465h142v-466zM284 910h159l-87 -137h-118zM490 910h159l-87 -137h-118z" />
    <glyph glyph-name="udblacute" unicode="&#x171;" 
d="M669 249q0 -128 -82 -192q-81 -63 -178 -63q-95 0 -177 64q-80 64 -80 191v466h143v-465q0 -56 36 -85q37 -28 80 -28t80 28q36 27 36 85v465h142v-466zM284 910h159l-87 -137h-118zM490 910h159l-87 -137h-118z" />
    <glyph glyph-name="Uogonek" unicode="&#x172;" 
d="M669 249q0 -63 -22 -110q-22 -48 -56 -78l3 1q-53 -46 -70 -100q-17 -52 -2 -85q7 -15 31 -16q26 0 41 7l9 -97q-49 -17 -112 -14q-58 4 -84 53t-11 99q15 51 48 87q-50 -6 -105 7q-55 14 -94 44q-42 33 -68 82q-25 50 -25 120v466h143v-465q0 -56 36 -85q37 -28 80 -28
t80 28q36 27 36 85v465h142v-466z" />
    <glyph glyph-name="uogonek" unicode="&#x173;" 
d="M669 249q0 -63 -22 -110q-22 -48 -56 -78l3 1q-53 -46 -70 -100q-17 -52 -2 -85q7 -15 31 -16q26 0 41 7l9 -97q-49 -17 -112 -14q-58 4 -84 53t-11 99q15 51 48 87q-50 -6 -105 7q-55 14 -94 44q-42 33 -68 82q-25 50 -25 120v466h143v-465q0 -56 36 -85q37 -28 80 -28
t80 28q36 27 36 85v465h142v-466z" />
    <glyph glyph-name="Wcircumflex" unicode="&#x174;" horiz-adv-x="910" 
d="M305 -15h25l130 320l131 -317h26l292 727h-161l-144 -365l-140 358h-7l-140 -358l-144 365h-161zM671 767h-170l-41 49l-40 -49h-170l158 148h103z" />
    <glyph glyph-name="wcircumflex" unicode="&#x175;" horiz-adv-x="910" 
d="M305 -15h25l130 320l131 -317h26l292 727h-161l-144 -365l-140 358h-7l-140 -358l-144 365h-161zM671 767h-170l-41 49l-40 -49h-170l158 148h103z" />
    <glyph glyph-name="Ycircumflex" unicode="&#x176;" horiz-adv-x="649" 
d="M261 0h142v322l250 393h-175l-146 -246l-146 246h-174l249 -393v-322zM533 776h-164l-40 49l-39 -49h-164l153 148h100z" />
    <glyph glyph-name="ycircumflex" unicode="&#x177;" horiz-adv-x="649" 
d="M261 0h142v322l250 393h-175l-146 -246l-146 246h-174l249 -393v-322zM533 776h-164l-40 49l-39 -49h-164l153 148h100z" />
    <glyph glyph-name="Ydieresis" unicode="&#x178;" horiz-adv-x="649" 
d="M261 0v322l-249 393h174l146 -246l146 246h175l-250 -393v-322h-142zM125 843q0 35 24 59q23 23 57 23t58 -24t24 -58t-24 -58q-25 -23 -58 -23q-32 0 -57 23q-24 24 -24 58zM372 843q0 35 24 59q23 23 57 23t58 -24t24 -58t-24 -58q-25 -23 -58 -23q-32 0 -57 23
q-24 24 -24 58z" />
    <glyph glyph-name="Zacute" unicode="&#x179;" horiz-adv-x="535" 
d="M523 0h-479q129 290 258 576h-220v139h433q-43 -95 -129 -285.5t-129 -285.5h266v-144zM279 916h166l-92 -147h-122z" />
    <glyph glyph-name="zacute" unicode="&#x17a;" horiz-adv-x="535" 
d="M523 0h-479q129 290 258 576h-220v139h433q-43 -95 -129 -285.5t-129 -285.5h266v-144zM279 916h166l-92 -147h-122z" />
    <glyph glyph-name="Zdot" unicode="&#x17b;" horiz-adv-x="535" 
d="M523 0h-479q129 290 258 576h-220v139h433q-43 -95 -129 -285.5t-129 -285.5h266v-144zM304 928q43 0 64 -25q21 -24 21 -53q0 -30 -22 -53q-20 -23 -63 -23q-42 0 -65 24q-21 24 -21 52q0 29 22 54q21 24 64 24z" />
    <glyph glyph-name="zdot" unicode="&#x17c;" horiz-adv-x="535" 
d="M523 0h-479q129 290 258 576h-220v139h433q-43 -95 -129 -285.5t-129 -285.5h266v-144zM304 928q43 0 64 -25q21 -24 21 -53q0 -30 -22 -53q-20 -23 -63 -23q-42 0 -65 24q-21 24 -21 52q0 29 22 54q21 24 64 24z" />
    <glyph glyph-name="Zcaron" unicode="&#x17d;" horiz-adv-x="535" 
d="M523 0h-479q129 290 258 576h-220v139h433q-43 -95 -129 -285.5t-129 -285.5h266v-144zM345 892h122l-153 -155h-12l-155 155h125l36 -47z" />
    <glyph glyph-name="zcaron" unicode="&#x17e;" horiz-adv-x="535" 
d="M523 0h-479q129 290 258 576h-220v139h433q-43 -95 -129 -285.5t-129 -285.5h266v-144zM345 892h122l-153 -155h-12l-155 155h125l36 -47z" />
    <glyph glyph-name="longs" unicode="&#x17f;" horiz-adv-x="475" 
d="M517 572h-214v-572h-143v715h357v-143z" />
    <glyph glyph-name="circumflex" unicode="&#x2c6;" horiz-adv-x="438" 
d="M434 587h-152l-37 47l-36 -47h-151l141 140h92z" />
    <glyph glyph-name="caron" unicode="&#x2c7;" horiz-adv-x="447" 
d="M282 717h152l-143 -140h-92l-141 140h151l36 -47z" />
    <glyph glyph-name="breve" unicode="&#x2d8;" horiz-adv-x="366" 
d="M229 680q19 0 32 9q14 8 14 33h94q3 -45 -12 -74q-17 -30 -36 -43q-19 -14 -48 -20q-28 -5 -44 -5q-15 0 -45 5q-26 6 -48 20q-21 14 -37 43q-13 25 -10 74h94q0 -24 14 -33q15 -9 32 -9z" />
    <glyph glyph-name="dotaccent" unicode="&#x2d9;" horiz-adv-x="244" 
d="M139 724q42 0 61 -26q19 -23 19 -55q0 -29 -21 -55q-22 -25 -59 -25q-39 0 -61 25q-20 26 -20 55q0 30 20 56q19 25 61 25z" />
    <glyph glyph-name="ring" unicode="&#x2da;" horiz-adv-x="358" 
d="M224 637q-27 0 -40 -17q-13 -18 -13 -36q0 -17 13 -35q14 -16 40 -16t40 16q13 14 13 36q0 20 -13 36q-11 16 -40 16zM223 724q71 0 105 -44q34 -41 34 -95q0 -52 -35 -94q-35 -43 -104 -43q-68 0 -105 43q-34 43 -34 95q0 51 35 95q34 43 104 43z" />
    <glyph glyph-name="ogonek" unicode="&#x2db;" horiz-adv-x="318" 
d="M126 13h99q-6 -6 -26 -32q-9 -12 -25 -40q-10 -20 -16 -41q-4 -18 4 -35q8 -15 30 -12q25 3 40 10l9 -97q-49 -17 -112 -14q-58 4 -84 53q-15 27 -12 57q3 31 16 57q16 30 35 52q17 20 42 42z" />
    <glyph glyph-name="tilde" unicode="&#x2dc;" horiz-adv-x="443" 
d="M135 586l-87 38q15 49 43 77q29 29 71 28q23 0 44 -13q7 -4 37 -19q18 -8 32 -5q16 3 29 29l86 -39q-13 -47 -44 -78q-29 -28 -71 -26q-23 0 -45 11q-20 12 -38 19q-16 8 -31 5q-14 -2 -26 -27z" />
    <glyph glyph-name="hungarumlaut" unicode="&#x2dd;" horiz-adv-x="529" 
d="M143 719h169l-93 -138h-125zM362 719h169l-93 -138h-125z" />
    <glyph glyph-name="endash" unicode="&#x2013;" horiz-adv-x="538" 
d="M76 275v133h452v-133h-452z" />
    <glyph glyph-name="emdash" unicode="&#x2014;" horiz-adv-x="618" 
d="M76 275v133h541v-133h-541z" />
    <glyph glyph-name="quoteleft" unicode="&#x2018;" horiz-adv-x="224" 
d="M174 502h-144l76 213h109z" />
    <glyph glyph-name="quoteright" unicode="&#x2019;" horiz-adv-x="209" 
d="M71 716h144l-76 -213h-109z" />
    <glyph glyph-name="quotesinglbase" unicode="&#x201a;" horiz-adv-x="240" 
d="M72 110h148l-78 -226h-112z" />
    <glyph glyph-name="quotedblleft" unicode="&#x201c;" horiz-adv-x="394" 
d="M168 502h-138l76 213h109zM352 502h-135l67 213h109z" />
    <glyph glyph-name="quotedblright" unicode="&#x201d;" horiz-adv-x="394" 
d="M247 714h138l-76 -213h-109zM63 714h135l-67 -213h-109z" />
    <glyph glyph-name="quotedblbase" unicode="&#x201e;" horiz-adv-x="455" 
d="M72 110h148l-78 -226h-112zM294 110h148l-78 -226h-112z" />
    <glyph glyph-name="bullet" unicode="&#x2022;" horiz-adv-x="293" 
d="M161 467q64 0 94 -39q30 -37 30 -85q0 -46 -32 -84t-92 -38q-61 0 -93 38q-30 39 -30 84t31 85q31 39 92 39z" />
    <glyph glyph-name="ellipsis" unicode="&#x2026;" horiz-adv-x="732" 
d="M139 154q42 0 61 -26q19 -23 19 -55q0 -29 -21 -55q-22 -25 -59 -25q-39 0 -61 25q-20 26 -20 55q0 30 20 56q19 25 61 25zM383 154q42 0 61 -26q19 -23 19 -55q0 -29 -21 -55q-22 -25 -59 -25q-39 0 -61 25q-20 26 -20 55q0 30 20 56q19 25 61 25zM627 154q42 0 61 -26
q19 -23 19 -55q0 -29 -21 -55q-22 -25 -59 -25q-39 0 -61 25q-20 26 -20 55q0 30 20 56q19 25 61 25z" />
    <glyph glyph-name="Euro" unicode="&#x20ac;" horiz-adv-x="511" 
d="M-10 241v91h62q0 7 -0.5 22.5t-0.5 23.5h-61v91h72q30 106 116 180q85 75 232 75q31 0 55 -4l-8 -144q-17 4 -47 4q-71 0 -118 -32q-45 -30 -69 -79h133v-91h-156q0 -31 2 -46h154v-91h-124q27 -44 70 -70q45 -27 111 -27q28 0 56 5l9 -146q-37 -5 -65 -5q-140 0 -228 71
q-87 72 -118 172h-77z" />
    </font>
</defs>
</svg>
