<!-- Generator: Adobe Illustrator 19.1.0, SVG Export Plug-In  -->
<svg version="1.1"
	 xmlns="http://www.w3.org/2000/svg" xmlns:xlink="http://www.w3.org/1999/xlink" xmlns:a="http://ns.adobe.com/AdobeSVGViewerExtensions/3.0/"
	 x="0px" y="0px" width="982.9px" height="516.7px" viewBox="0 0 982.9 516.7" style="enable-background:new 0 0 982.9 516.7;"
	 xml:space="preserve">
<style type="text/css">
	.st0{fill:none;}
	.st1{fill:#FFFFFF;}
</style>
<defs>
</defs>
<path class="st0" d="M688.2,55.6c-6.5-24.1-29.6-28.1-51.4-25.7c-11.5,1.2-10.4,7.1-10.7,17.2c-0.4,12.1-0.5,24.6,0,36.7
	c0.2,6.1-1.2,23.9,1.7,29.1c4.7,8.3,17.6,3.3,24.5,0.9C674.9,104.9,695,80.9,688.2,55.6z"/>
<path class="st0" d="M767.3,129.8C766.8,129.9,767.3,129.8,767.3,129.8L767.3,129.8z"/>
<path class="st0" d="M679.5,241.3c-9.7-9.2-24.2-9.4-25.5,5.1c-0.6,6.8-2.8,22,0.2,27.7c4.2,8.2,20.3,3.2,24.5-3.4
	C685.2,260.8,689.6,250.9,679.5,241.3z"/>
<path class="st1" d="M96.4,154.5c9.7-25.2-2.9-47.5-20.5-65.1C64,77.6,32.7,64.3,29.5,46.8c-2.4-13.4,12.9-22.4,24.6-19.5
	c10.2,2.6,26.3,17.5,32.7-0.4C96.5-0.2,42.2-1.2,28.9,5.4C2.7,18.4-1.7,49.2,15.6,71.3c14.1,18.1,72.3,45.4,56.6,75.2
	C66,158.4,52,161,40.2,157.9c-10.5-2.8-16.2-13.8-26.5-15.4c-17.5-2.7-16.3,18.2-7.4,26.8c9.1,8.8,24.7,14.9,37.3,15
	C65.7,184.3,87.8,177,96.4,154.5z"/>
<path class="st1" d="M125.5,140.9c5.6,5.8,17.9,5.2,23.1-1.2c7.5-9.2-0.4-35.9-0.7-47.9c-0.2-9.2,0.8-18,1-27.2
	c0.1-4.3-2.9-13.6-1.5-16.9c3.2-7.7,10.3,2.2,14.2,6.1c7.3,7.3,15.6,24.3,24.7,28.7c14.5,7,29.3-18.6,39.5-26.8
	c6.1-4.8,7.3-8.7,10.3-0.8c1.8,4.8,1.3,13.3,1.6,18.6c0.5,11.4,1,23,0.5,34.5c-0.5,12.9-7.1,45,18.1,37c16-5.1,6-55.1,6.1-69.8
	c0.2-14.3-1.1-29.6,0-43.8c0.6-8.3,5.3-16.6-0.4-24.2c-8.2-10.9-16.2-5.4-22.6,2c-7.5,8.6-17,18-26,25.3c-4.2,3.5-12,12.1-17,14.3
	c-6.5,2.8-7-0.1-11.7-5c-6-6.3-11.7-12.7-17.9-18.9c-6.5-6.5-22.4-24.6-32.5-23.8c-16.4,1.3-12,18.5-11.3,28.4
	c1,14.6,1.1,29.7,1.2,44.3c0.1,14.3,0.1,29.1-0.9,43.5C122.8,125,119.4,134.5,125.5,140.9z"/>
<path class="st1" d="M411.2,171.9c0-10.2-9.5-12.4-16.5-16.4c-10.7-6.2-20-14.6-29.3-22.6c-7.4-6.4-27.5-15.6-24.9-25
	c2.3-8,17.8-21.4,23.6-27.9c7.6-8.4,15.3-16.7,22.6-25.4c8.4-10,23.8-22.9,25.1-36.5c1.1-11.2-7.4-20.4-18.1-14.2
	c-7.9,4.6-10,15.7-15.6,22.4c-18.9,22.7-37.2,49.3-58.4,69.6c-5.6-3-1.1-29-1.2-33.5c-0.3-12.8-1.5-25,0.3-37.7
	c1.3-9,1.9-19.5-8.9-23.2c-12-4.1-18.8,5.9-18.2,16.1c0.7,13,1.2,25.3,1.6,38.4c1.1,35.2,2.4,71.6-1.1,106.7
	c-1,10.3,0.2,20.4,13,20.8c17.7,0.5,13.6-14,12.7-25.5c-0.5-6.2-1.3-15.6-0.6-22c0.9-7.6-0.3-6,5.5-3.5
	c11.6,4.9,24.9,19.2,34.7,27.2c7.2,5.9,14.2,12.6,21.6,18.1C387.6,183.9,411.2,189.4,411.2,171.9z"/>
<path class="st1" d="M574.5,171.9c0-13.8-2.1-28.2-2.7-42.1c-0.5-11.3,1.3-22.6,1.1-33.9c-0.3-18.6-0.3-37.5-1.3-56
	c-0.4-8.1,2.2-15.3,2.1-23.1C573.6,4.3,560-3.9,550.6,5.3c-9.6,9.5-17.7,20.4-28.6,29.3c-3.9,3.2-13.5,13.8-18,14.8
	c-5.9,1.4-7-1.7-11-6.3c-11.3-12.5-44.1-56-59.8-35c-6.7,8.9-1.5,28.3-1.4,39.5c0.1,18.5-0.6,37,0.3,55.4
	c0.7,14.5-0.2,28.9,0.2,43.3c0.2,9.2-5.1,24.2,0.7,32c6.3,8.7,22.7,6.6,26.4-3.6c2.7-7.5-1.8-17.8-2.4-25.6
	c-0.7-9.2,0.6-18.1,0.7-27.3c0.2-11.7,0.6-22.6-0.4-34.2c-0.5-5.2-0.6-8.9-0.3-14.2c0.5-7.4-1.4-16.1-0.5-23.1
	c1.4-11.6,8.5-2.3,14,3.4c5.3,5.5,10.1,11.6,15,17.5c6.5,7.8,11.3,16.6,22.7,10.6c9.6-5.1,17.5-19.3,26.6-26.2
	c11.7-8.9,9.9-2.9,11.1,9.6c0.8,8.5,1.1,16.5,0.5,25c-0.9,14.1,1,28.1,0.1,42.3c-0.4,7,1.3,13.9,0.9,20.7
	c-0.4,6.8-4.7,14.7-2.1,21.4C550,187.7,574.5,188,574.5,171.9z"/>
<path class="st1" d="M970.7,0.4c-11.6,0-23.2,1.8-34.9,1.3c-5.7-0.2-11.6-0.7-17.3-0.7c-10.1,0-26.3-2.1-36.1-0.4
	c-15.5,2.7-16.3,24.7-0.6,27.3c7.9,1.3,19.8-6.8,27.3-0.8c6,4.8,2.7,23.1,3,29.6c0.5,11.7-1,23-0.7,34.6c0.4,15.2-0.1,30.2-0.1,45.4
	c0,9.9-1.4,20.4-1.1,30.1c0.3,11.5,12.4,22.8,24,14.4c10.2-7.4,2.8-22.9,2.9-33.2c0-6.1,0.5-12.7,0.5-18.5
	c-0.1-12.6,0.6-25.4-0.3-38c-0.8-11,0.9-22,0.2-32.8c-0.5-7.3-4.6-24.7,0.1-31c5.5-7.4,22.3,0.4,29.5,0.5
	C985.7,28.5,989.2,0.4,970.7,0.4z"/>
<path class="st1" d="M767.3,129.8C767.3,129.8,766.8,129.9,767.3,129.8c5.4,0,17.5,12.8,21.4,15.8c7.3,5.7,14.7,11.5,21.9,17.3
	c10.5,8.5,32.7,33.5,46.4,16.1c12.2-15.5-18.2-26.1-26.8-32.7c-7.9-6-15-13-22.8-19.2c-4.3-3.4-14.7-8.3-17.3-13.1
	c-4.2-7.7,8.2-16.1,13.7-22.7c5.9-7.1,11.6-14,18.3-20.5c7.9-7.7,19.9-16.8,7.4-27.2c-15-12.4-23.5,4.8-30.8,15.2
	c-8.6,12.3-19.3,26.8-30.1,37.2c-4.6-2.5-1.8-23.2-1.4-26.6c0.6-6.1,3.2-13.9,1-19.9c-3.2-8.9-14.1-13-22.1-7.7
	c-9.8,6.5-4.2,20.1-3.9,29.6c0.2,8.5-0.3,17.1,0,25.6c0.4,15.3-0.5,30.4-0.1,45.5c0.3,9.3-3.5,21.8-1.3,30.6
	c2.2,8.9,11.7,13,20.3,9.1c9.5-4.3,7.4-11,6.7-19.7C767.5,159.7,764.4,130.7,767.3,129.8z"/>
<path class="st1" d="M793,4.1c-10.3-0.5-69.7-7.9-53.8,17.2c4.2,6.7,13.7,7.9,20.6,7.5c13.6-0.8,26.3-2.8,40-2.1
	c11.2,0.6,48.9,8.2,49.5-10.2C850-4.7,806.5,5.1,793,4.1z"/>
<path class="st1" d="M189.2,182.1c13.8,0.2,76.7,9.5,76.7-11.8c0-19.9-59.3-12.5-73.4-12.5c-14.5-0.1-61.6-7.4-68.5,6.5
	C111.2,190,175.4,181.9,189.2,182.1z"/>
<path class="st1" d="M718.5,171.5c0-16.7-23.2-15.1-33.9-20.2c-6.8-3.2-19.4-10.2-24.5-15.8c7.4-5.7,18.4-7.8,26.3-13.8
	c7.6-5.8,15.2-12.9,20.2-21.2c9-14.7,10.1-34.5,5.5-50.6c-5.3-18.3-17.6-35.5-36-42.5c-10.3-3.9-21-1.6-31.7-1.8
	c-11.1-0.2-30.9-6.1-40.2,1.8c-8.9,7.6-2.7,18.5-2.4,28.2c0.3,12.3,0.7,25.3,0.6,37.6c-0.1,14-1.3,27.6-0.7,41.7
	c0.6,13.4,0.6,27.4-0.1,40.8c-0.5,9.3-4.4,22.8,5.6,28.6c14.1,8.1,22.1-5,20.7-16.7c-0.9-8.1-6.1-26.7,5.4-23.1
	c6.5,2,13.3,11.6,19.3,15.8c8,5.5,15.9,11.6,24.1,16.9C687,183.7,718.5,194.5,718.5,171.5z M652.3,113.7c-6.9,2.4-19.8,7.5-24.5-0.9
	c-2.9-5.1-1.5-23-1.7-29.1c-0.5-12.1-0.4-24.6,0-36.7c0.3-10.1-0.8-16,10.7-17.2c21.8-2.3,44.9,1.6,51.4,25.7
	C695,80.9,674.9,104.9,652.3,113.7z"/>
<path class="st1" d="M268.9,312.9c2.8,7.4,6.7,7.2,14.1,6.6c10.5-0.8,8.6-1.5,11.1-12.6c0.6-2.8,5.2-33,7.9-33.5
	c4.1,2.1,6.9,22.8,8.3,28.1c2.7,10.5,0.2,18.5,13.3,18.6c7.3,0.1,9.3,1.1,12.2-6.8c2.2-6,2.7-14.9,4.3-21.4
	c2.7-11.7,5.3-23.3,8-34.9c1.2-5,2.3-10.2,3.7-15.2c1.3-4.7,7.2-13.7,6.7-18.1c-0.9-8.2-16.6-9.7-22.1-4.5c-5.2,5-4.8,19.9-6.2,26.6
	c-2.5,11.4-4.8,23-7.7,34.3c-3.2-10.7-5.7-21.7-8.3-32.5c-2.6-11,2.4-30.6-12.3-30.7c-13.8-0.1-9.3,17.9-11.4,28.2
	c-2.2,11.2-3.7,24.2-7.6,34.8c-3.2-4.8-3.4-16.5-4.8-22.5c-1.5-6.7-3.1-13.6-4.2-20.4c-1.9-12,1-20.5-13.6-20.2
	c-19.2,0.3-6.6,10.2-6.6,21.3c0.3,2.2,0.2,1.7,0.1,1c1.9,14.4,5.8,29,9.1,43C264.9,291.4,265.6,304.3,268.9,312.9z"/>
<path class="st1" d="M382,320c8.2-1.9,7-2.8,6.7-11.2c-0.2-9.3-0.6-18.4-0.6-27.6c-0.1-15.7-1.1-31.9-0.5-47.8
	c0.4-10.6,1.3-18-11.9-16.6c-10.9,1.2-8.3,6.4-7.9,16.6c0.3,6.3,0.2,12.6,0.4,19c0.6,20.3-1.1,40.7-1.1,60.8
	C367.2,319.8,376.9,321.2,382,320z"/>
<path class="st1" d="M442.1,282.1c6,9.9,10.8,24.1,17.9,32.9c5.3,6.6,19.8,8.7,22.1-1c1.1-4.7-1-13.2-1.1-18.4
	c-0.1-6.3,0.1-12.5,0-18.8c0-11.6-0.7-23.1-1.1-34.6c-0.2-5.8,3.7-16.2,0.4-21.5c-3.1-4.8-14.3-6.3-18.4-1.6
	c-1.8,2.1,0.1,57.3-0.4,57.3c-4.7,0-15.7-25.7-18.2-29.9c-5.5-9.2-11.5-26.9-22.3-29.5c-19-4.7-15.1,8.5-14.3,21
	c0.7,10,0.2,20.4,0.3,30.6c0.1,8.7-0.1,17.5-0.3,26.2c-0.2,11.6-3.9,30.6,14.5,25c9.1-2.8,5.7-5.9,5.3-14.9
	c-0.3-5.9,0.1-12,0.2-17.9c0.1-8.6-2-20.1,0.2-28.1C427.1,262.9,439.8,278.3,442.1,282.1z"/>
<path class="st1" d="M538.3,235.7c10.2,0,17.7,4.3,17.2-8.9c-0.5-11-6.2-9.8-15.8-9.7c-8,0.1-16-0.2-24.1-0.3
	c-4.3-0.1-18-1.9-21.5,0.2c-3.9,2.4-5.7,10.1-3.6,14.6c4.4,9.6,12-0.1,18.5,4.2c8.4,5.7,3.2,33.2,3.2,42.2c0.1,9.3,0,17.9-0.5,27.1
	c-0.4,8-1.4,12.5,6.6,14.9c4.2,1.2,12.6,0.2,14.9-3.2C539.4,307.9,522.4,235.7,538.3,235.7z"/>
<path class="st1" d="M598.2,234.6c5.3,0,11.7,2,16.9,1.2c5.9-0.9,4.6,0.6,6.3-5.2c0.7-2.4,0-10.3-1.7-12c-4.8-4.9-36.4-1.9-43.5-1.6
	c-12.4,0.5-11.7,4.6-11.2,15.2c0.4,8.3,0.4,16.8,0.4,25.1c-0.1,17.7-1.4,35.7-1.4,53.3c0,12.9,37.9,10.8,49.2,9.6
	c8.8-0.9,7.7-2.5,7.2-10.5c-0.6-11.1-2.5-9-13.1-8.1c-10.4,0.8-19.7,1.3-22.4-9.7c-1-4.1-2.2-16.9,0.6-20.5c6.6-8.5,23,2.7,30.5-1.2
	c2.5-1.3,5.3-13.2,2.9-16.3c-3.2-4.1-13.9-2.5-18.7-2.6c-6.5-0.2-14,0.7-15.5-7C582.7,234.5,591.4,234.7,598.2,234.6z"/>
<path class="st1" d="M681,219.2c-9.6-3.8-25-2.6-35.5-2.4c-17.6,0.4-11.1,16.1-11,28.9c0.3,21.5-3,44.9-1.1,66.2
	c0.7,8.3,4.2,7.9,11.6,7.7c7.8-0.2,9-0.1,9.6-8.4c0.4-5.6-4.5-16.2,5.1-12.5c5.4,2.1,12.1,12.8,17,16.4c9.3,6.9,27.2,12.7,27.8-3.5
	c0.3-9.6-2.5-7.3-11-9.9c-3.4-1-19.3-9.9-10.1-12.7c1.3-0.5,1.3-0.5,0.9-0.3C715.7,276.8,708.8,230.2,681,219.2z M678.7,270.6
	c-4.2,6.6-20.3,11.6-24.5,3.4c-2.9-5.7-0.8-20.9-0.2-27.7c1.3-14.4,15.9-14.3,25.5-5.1C689.6,250.9,685.2,260.8,678.7,270.6z"/>
<path class="st1" d="M921,216.4C921,216.4,921,216.4,921,216.4c-6.6,16.3-22.4,35.2-36.5,45.6c-15.9,11.7-31.3,17.5-50,23.9
	c1.5-10.6,5.3-21.2,7.5-31.7c2.6-12.9,2.9-26.3,5.1-39.3c-15.2-0.1-27.6,0.3-41.9,1.8c-21,2.3-42.3,0.4-62.5-0.1
	c-1.7,0-4.9-2.1-5.8-1.7c-3.8,2.1-4.4,23.7-1.3,26.1c2.9,2.3,18.9-1.4,24.3-1c19,1.4,40.4,2,60-0.3c-10.3,69.8-32.7,162.1-95,205.4
	c-32.5,22.5-65.5,34.2-104.6,41.4c-37,6.8-76.2,4-113.6,5.6c-46.5,2-93.5,0.9-139.8-3.8c-19-1.9-36.2-5.2-54.6-10.1
	c-8.3-2.2-17.3-4.7-25.2-8.3c-6.4-2.9-20.1-14.2-25.5-11.1c0,0,0,0,0,0c0.4-0.7,0.9-1.4,1.3-2.2c-0.6-0.3-1.2-0.6-1.8-0.9
	c-30.8-14.7-57.9-51.3-71.3-81.6c-19.5-44-32.5-88.1-41.3-135.5c6.9,2.3,12.3-0.4,19.5-0.3c8.3,0,16.3,0.5,24.5,0.4
	c4.6,0,10.8,1.1,15.1,0.6c5.5-0.6,3.7,5.4,6.2-4.1c0.7-2.5,1.1-21.5-1.9-21.5c-2.1,0-3.6,2.1-6.1,2c-3.6-0.1-6.9-0.1-9.8,0
	c-6.8,0.2-12.5,0.9-19.3,1.4c-18.6,1.3-36.8-3.8-54.7-2.3c3.3,23.4,8.2,46.4,12,69.7c-3.7,0.2-4.7-0.1-5.1,0.5
	c0-0.3-0.1-0.6-0.2-0.9c-0.7-1.6-9.8-3.5-11.6-4.2c-15.2-5.1-29-13.4-41.1-23.9c-10.6-9.1-18.8-19.4-26.3-31.1
	c-6.1-9.5-3.5-8.7-12.3-10.1c-5.8-0.9-12.5,0-18.4,0c8,27.2,27.3,47,47.8,65c8.6,7.5,17.8,13,28.3,17.5c6.9,2.9,13.7,6.3,20.8,8.3
	c6.9,1.9,14,1.6,20.6,5c7.7,3.9,8.4,12.8,11,21.6c2.2,7.3,4.2,14.6,6.5,21.8c4.6,14.9,12.6,28.8,20,42.4c10,18.3,22,33.5,35.9,49
	c11.6,13,26.7,21.4,40.2,32.1c0.4-0.6,0.8-1.3,1.2-1.9c0,4,4.3,5,8.8,7.5c19,10.6,39.7,18.6,61,22.4c38.5,6.9,75.1,10.1,114.2,9.5
	c48.2-0.8,97.4,3.6,145.5,0.1c24.3-1.8,49.5-3.9,72.7-10.7c11.2-3.3,22.8-5.3,33.6-10c11.3-4.9,21.9-11.7,33.1-16.5
	c-0.3-0.6-0.7-1.1-1-1.7c0.6,0.6,1.3,1,1.9,1c4.6,0.2,18.4-12.5,21.1-14.7c16.7-13.5,28.7-28,41.1-45.3
	c18.7-26.2,31.1-55.8,39.7-86.7c2.2-7.8,2.2-14.5,8.3-18.6c5.4-3.7,14.3-3.3,20.6-5.2c16.3-4.9,34.5-14.5,47.4-25.3
	c10.2-8.5,20.4-18,28.6-28.5c8.4-10.8,13.1-25.7,18.1-38.3C941.3,214.8,922.9,212.3,921,216.4z"/>
</svg>
