<!-- Generator: Adobe Illustrator 19.0.1, SVG Export Plug-In  -->
<svg version="1.1"
	 xmlns="http://www.w3.org/2000/svg" xmlns:xlink="http://www.w3.org/1999/xlink" xmlns:a="http://ns.adobe.com/AdobeSVGViewerExtensions/3.0/"
	 x="0px" y="0px" width="52px" height="42.7px" viewBox="0 0 52 42.7" enable-background="new 0 0 52 42.7" xml:space="preserve">
<defs>
</defs>
<path fill="#1D1E1C" d="M8.4,39c-0.1-0.1-0.3-0.2-0.5-0.2H7.7c-0.2,0-0.4,0.1-0.5,0.2c-0.1,0.1-0.2,0.3-0.2,0.5v0.2
	c0,0.4,0.1,0.8,0.2,1.1c0.1,0.4,0.4,0.7,0.6,0.9c0.3,0.3,0.6,0.5,1,0.6c0.4,0.2,0.8,0.2,1.2,0.2c0.4,0,0.8-0.1,1.1-0.2
	c0.4-0.1,0.7-0.3,1-0.6c0.3-0.3,0.5-0.6,0.7-0.9c0.2-0.4,0.2-0.8,0.2-1.2c0-0.4-0.1-0.8-0.2-1.1c-0.1-0.3-0.3-0.6-0.6-0.8
	c-0.2-0.2-0.5-0.4-0.8-0.5c-0.3-0.1-0.6-0.2-1-0.4l-0.7-0.2c-0.2-0.1-0.4-0.1-0.5-0.2c-0.1-0.1-0.2-0.1-0.3-0.3
	c-0.1-0.1-0.1-0.2-0.1-0.4c0-0.1,0-0.3,0.1-0.4c0-0.1,0.1-0.2,0.2-0.3C9.2,35.1,9.3,35,9.5,35c0.3-0.1,0.7-0.1,1,0
	c0.1,0.1,0.2,0.1,0.3,0.2c0.1,0.1,0.2,0.2,0.2,0.3c0.1,0.1,0.1,0.3,0.1,0.4v0.2c0,0.2,0.1,0.4,0.2,0.5c0.1,0.1,0.3,0.2,0.5,0.2H12
	c0.2,0,0.4-0.1,0.5-0.2c0.1-0.1,0.2-0.3,0.2-0.5v-0.2c0-0.4-0.1-0.7-0.2-1c-0.1-0.3-0.3-0.6-0.6-0.9c-0.2-0.2-0.5-0.4-0.9-0.6
	c-0.6-0.3-1.5-0.3-2.2,0c-0.3,0.1-0.6,0.3-0.9,0.5c-0.3,0.2-0.5,0.5-0.6,0.9c-0.2,0.3-0.2,0.7-0.2,1.1c0,0.4,0.1,0.8,0.2,1.1
	c0.2,0.3,0.4,0.5,0.6,0.7c0.2,0.2,0.5,0.3,0.8,0.4c0.3,0.1,0.5,0.2,0.7,0.2l0.9,0.3c0.2,0.1,0.4,0.1,0.5,0.2
	c0.1,0.1,0.2,0.2,0.3,0.3c0.1,0.1,0.1,0.3,0.1,0.5c0,0.4-0.1,0.7-0.3,0.9c-0.2,0.2-0.5,0.3-1,0.3c-0.2,0-0.4,0-0.6-0.1
	c-0.2-0.1-0.3-0.2-0.4-0.3c-0.1-0.1-0.2-0.2-0.2-0.4c-0.1-0.2-0.1-0.3-0.1-0.5v-0.2C8.7,39.3,8.6,39.2,8.4,39z"/>
<path fill="#1D1E1C" d="M16.3,33.3h-2c-0.2,0-0.4,0.1-0.5,0.2c-0.1,0.1-0.2,0.3-0.2,0.5v7.9c0,0.2,0.1,0.4,0.2,0.5
	c0.1,0.1,0.3,0.2,0.5,0.2h0.3c0.2,0,0.4-0.1,0.5-0.2c0.1-0.1,0.2-0.3,0.2-0.5l0-2.6h1c0.4,0,0.8-0.1,1.2-0.2
	c0.4-0.2,0.7-0.4,0.9-0.6c0.3-0.3,0.5-0.6,0.6-0.9c0.2-0.4,0.2-0.8,0.2-1.2c0-0.4-0.1-0.8-0.2-1.2c-0.2-0.4-0.4-0.7-0.6-0.9
	c-0.3-0.3-0.6-0.5-0.9-0.6C17.1,33.4,16.7,33.3,16.3,33.3z M17.6,36.3c0,0.2,0,0.3-0.1,0.5c-0.1,0.2-0.2,0.3-0.3,0.4
	c-0.1,0.1-0.3,0.2-0.4,0.3c-0.2,0.1-0.3,0.1-0.5,0.1h-1l0-2.5h1c0.2,0,0.3,0,0.5,0.1c0.2,0.1,0.3,0.2,0.4,0.3
	c0.1,0.1,0.2,0.2,0.3,0.4C17.6,35.9,17.6,36.1,17.6,36.3z"/>
<path fill="#1D1E1C" d="M25.9,35c-0.2-0.3-0.4-0.7-0.6-0.9c-0.3-0.3-0.6-0.5-0.9-0.7c-0.4-0.2-0.8-0.2-1.2-0.2
	c-0.5,0-0.9,0.1-1.2,0.2c-0.4,0.2-0.7,0.4-0.9,0.7c-0.3,0.3-0.5,0.6-0.6,0.9c-0.2,0.3-0.3,0.7-0.3,1.1c0,0.2-0.1,0.5-0.1,0.9
	c0,0.3,0,0.6,0,1c0,0.3,0,0.7,0,1c0,0.3,0,0.6,0.1,0.9c0.1,0.9,0.5,1.6,1,2.1c0.6,0.5,1.3,0.8,2.1,0.8c0.8,0,1.6-0.3,2.1-0.8
	c0.6-0.5,0.9-1.2,1-2.1c0-0.2,0.1-0.5,0.1-0.9c0-0.3,0-0.7,0-1s0-0.7,0-1c0-0.3,0-0.6-0.1-0.9C26.1,35.7,26,35.4,25.9,35z
	 M24.5,38.9c0,0.3,0,0.6-0.1,0.8c0,0.1-0.1,0.3-0.1,0.5c-0.1,0.1-0.1,0.3-0.3,0.4c-0.1,0.1-0.2,0.2-0.4,0.3
	c-0.2,0.1-0.4,0.1-0.6,0.1c-0.2,0-0.5,0-0.6-0.1c-0.2-0.1-0.3-0.2-0.4-0.3c-0.1-0.1-0.2-0.3-0.3-0.4c-0.1-0.2-0.1-0.3-0.1-0.5
	c0-0.2-0.1-0.5-0.1-0.8c0-0.3,0-0.6,0-0.9c0-0.3,0-0.6,0-0.9c0-0.3,0-0.6,0.1-0.8c0-0.2,0.1-0.3,0.1-0.5c0.1-0.2,0.2-0.3,0.3-0.4
	c0.1-0.1,0.2-0.2,0.4-0.3c0.2-0.1,0.3-0.1,0.6-0.1c0.2,0,0.4,0,0.6,0.1c0.2,0.1,0.3,0.2,0.4,0.3c0.1,0.1,0.2,0.3,0.3,0.4
	c0.1,0.2,0.1,0.3,0.1,0.5c0,0.2,0,0.5,0.1,0.8c0,0.3,0,0.6,0,0.9S24.6,38.6,24.5,38.9z"/>
<path fill="#1D1E1C" d="M27.8,33.3c-0.2,0-0.4,0.1-0.5,0.2C27.1,33.6,27,33.8,27,34v7.9c0,0.2,0.1,0.4,0.2,0.5
	c0.1,0.1,0.3,0.2,0.5,0.2H28c0.2,0,0.4-0.1,0.5-0.2c0.1-0.1,0.2-0.3,0.2-0.5l0-2.6l0.8,0l1.5,2.9c0.1,0.1,0.1,0.2,0.2,0.3
	c0.1,0.1,0.3,0.2,0.5,0.2H32c0.4,0,0.6-0.3,0.6-0.4c0.1-0.1,0.1-0.2,0.1-0.3c0-0.1,0-0.2-0.1-0.4l-1.4-2.7c0.4-0.3,0.7-0.6,1-1
	c0.3-0.4,0.5-1,0.5-1.6c0-0.4-0.1-0.8-0.2-1.2c-0.2-0.4-0.4-0.7-0.6-0.9c-0.3-0.3-0.6-0.5-0.9-0.6c-0.4-0.2-0.8-0.2-1.2-0.2H27.8z
	 M30.7,35.4c0.1,0.1,0.2,0.3,0.3,0.4c0.1,0.2,0.1,0.3,0.1,0.5c0,0.2,0,0.3-0.1,0.5c-0.1,0.2-0.2,0.3-0.3,0.4
	c-0.1,0.1-0.3,0.2-0.4,0.3c-0.2,0.1-0.3,0.1-0.5,0.1h-1l0-2.5h1c0.2,0,0.3,0,0.5,0.1C30.4,35.2,30.5,35.3,30.7,35.4z"/>
<path fill="#1D1E1C" d="M50.5,19.7L50.5,19.7c-0.1-0.4-0.3-0.8-0.4-1.1L50,18.3c-0.1-0.3-0.2-0.5-0.3-0.8c-0.1-0.2-0.2-0.4-0.2-0.6
	l-0.2-0.4c-1.6-3.5-3.9-6.6-6.7-9.2C42.4,7.3,42.2,7.1,42,7l-0.3-0.3c-0.2-0.2-0.4-0.4-0.7-0.6l-0.1,0c-4.3-3.4-9.5-5.5-15-6l-0.3,0
	c-0.3,0-0.6,0-0.9-0.1c-0.2,0-0.3,0-0.5,0c-0.2,0-0.8,0-0.9,0c-2.2,0-4.3,0.2-6.4,0.7C10.1,2.3,4.2,6.3,0.1,12.1
	C0,12.2,0,12.4,0,12.6c0,0.2,0.1,0.4,0.3,0.5l0.3,0.2c0.1,0.1,0.2,0.1,0.4,0.1c0.2,0,0.5-0.1,0.6-0.3C5.4,7.7,11,4,17.4,2.5
	c1.9-0.4,3.9-0.7,5.9-0.7l0.1,0c0.9,0,1.8,0,2.7,0.1L26.7,2c4.7,0.6,9.1,2.4,12.9,5.3L40,7.6l0.4,0.3c5.3,4.4,8.5,10.5,9.4,17.3
	c0.2,1.3,0.3,2.7,0.3,4c0,1,0.2,2-0.2,2.9c-0.2,0.6-0.8,1.1-1.5,1.1c0,0-0.1,0-0.2,0l-0.1,0l-0.1,0l-3.6,0v0l-9.2,0h-1.6
	c-0.2,0-0.4,0.1-0.5,0.2C33,33.6,33,33.8,33,34v0.3c0,0.2,0.1,0.4,0.2,0.5c0.1,0.1,0.3,0.2,0.5,0.2l1.4,0l0,6.9
	c0,0.2,0.1,0.4,0.2,0.5c0.1,0.1,0.3,0.2,0.5,0.2h0.3c0.2,0,0.4-0.1,0.5-0.2c0.1-0.1,0.2-0.3,0.2-0.5V35l7.7,0v0l3.5,0l0.1,0
	c0.1,0,0.2,0,0.3,0c0.1,0,0.2,0,0.3,0c0.4,0,0.9-0.2,1.3-0.3c0.4-0.2,0.8-0.5,1.1-0.8c0.3-0.3,0.5-0.7,0.6-1.1l0-0.1l0.2-0.6
	l0.1-1.4C52,27,51.7,23.2,50.5,19.7z"/>
</svg>
