<!-- Generator: Adobe Illustrator 19.0.1, SVG Export Plug-In  -->
<svg version="1.1"
	 xmlns="http://www.w3.org/2000/svg" xmlns:xlink="http://www.w3.org/1999/xlink" xmlns:a="http://ns.adobe.com/AdobeSVGViewerExtensions/3.0/"
	 x="0px" y="0px" width="71px" height="70px" viewBox="0 0 71 70" enable-background="new 0 0 71 70" xml:space="preserve">
<defs>
</defs>
<g>
	<path fill="#FF2B28" d="M11.7,10.9c0.4,0.2,0.9,0.2,1.3-0.1C23.4,1.4,39.1-0.8,51.9,6.4S71,28,68.2,41.6c-0.1,0.5,0.1,0.9,0.5,1.1
		l0,0c0.6,0.4,1.5,0,1.6-0.7c3-14.5-3.6-29.8-17.3-37.5C39.3-3.1,22.6-0.8,11.5,9.2C11,9.7,11.1,10.6,11.7,10.9L11.7,10.9z"/>
	<path fill="#FF2B28" d="M60.2,58.3c-0.4-0.2-0.9-0.2-1.3,0.2c-10.3,10-26.6,12.5-39.8,5.1s-19.4-22.4-16-36.3
		c0.1-0.5-0.1-0.9-0.5-1.2h0c-0.6-0.3-1.4,0-1.6,0.7c-3.6,14.8,2.9,30.8,17,38.7s31.4,5.2,42.4-5.5C60.9,59.5,60.8,58.6,60.2,58.3
		L60.2,58.3z"/>
</g>
</svg>
