<!-- Generator: Adobe Illustrator 19.1.0, SVG Export Plug-In  -->
<svg version="1.1"
	 xmlns="http://www.w3.org/2000/svg" xmlns:xlink="http://www.w3.org/1999/xlink" xmlns:a="http://ns.adobe.com/AdobeSVGViewerExtensions/3.0/"
	 x="0px" y="0px" width="1007.5px" height="308.4px" viewBox="0 0 1007.5 308.4" style="enable-background:new 0 0 1007.5 308.4;"
	 xml:space="preserve">
<style type="text/css">
	.st0{fill:#FFFFFF;}
</style>
<defs>
</defs>
<g>
	<path class="st0" d="M774.7,25.2c-2.2,0-2.6-0.2-4.4-1c-1.1-0.5-2.7-1.2-5.1-2.1c-3.6-1.5-5.2-4-5.2-8.7c0-2.2,0-6.2,11.9-6.2
		c2.3,0,11.8,0.3,17.1,0.5c5,0.3,5.6,0.3,15.3,0.3c1.9,0,4.6,0.1,8,0.3l5.5,0.3c0.7,0,23.6-0.3,29.3-0.8c2.2-0.3,4.5-0.3,6.4-0.3
		c10.6,0,12.1,4.5,12.1,9c0,2.7-1.3,5.2-3.2,6.1c-0.8,0.4-3.1,0.8-11.3,0.8l-2.9,0c-1.5,0-23.7-0.3-29.1-1.1c-2-0.2-4.8-0.3-8.5-0.3
		c-2.7,0-5.4,0.1-7.5,0.1c-1.3,0-2.3,0-3,0c-3.6,0-7.9,0.3-12,0.5c-2.7,0.3-6,1-8.9,1.7C777.6,24.6,775.4,25.1,774.7,25.2z"/>
	<path class="st0" d="M45.2,183.7c-6.9,0-14.5-2.3-26.9-8.2c-4.3-2.3-8.4-5.6-11.6-9.7c-1.7-2.2-2.1-3.2-2.1-7.2
		c0-8,3.8-8.7,7.4-8.7c5,0,5,0,16.1,10.4l0.2,0.2c2.6,2.4,5.3,3.4,9.6,4.5c2.4,0.6,2.5,0.6,6.3,1.6c2.3,1,3.5,1.1,5.4,1.1
		c5.9,0,13.9-2.6,18.9-5.2c8.6-5,13.4-14.5,13.4-26.2c0-6.6-4.6-14.8-12.5-22.5l-3.8-3.9c-0.4-0.5-1.2-1.4-1.2-1.5v-0.7l-1.5-1.1
		c-2.3-1.7-4.5-3.7-6.4-5.4l-0.4-0.4l-1.7-1.8c-0.6-0.7-1.4-1.3-2.3-1.9c-0.8-0.6-2-1.3-3.4-2.4l-1.1-0.8h-0.2
		c-0.8-0.6-2.2-1.7-3.2-2.5l-0.3-0.2c-2-1.3-4-2.8-6.1-4.5c-8.8-6.5-11-8.8-19.5-19.1c-5-6-8.2-14.9-8.2-23.1
		c0-5.1,1.5-13.8,2.6-16.3C20,14.1,34.7,4.8,50.1,4.8c4.7,0,18.1,2.6,22.9,4.4c7.4,3,12.6,8.6,12.6,13.7c0,4.6-4.6,8.7-9.8,8.7
		c-2.4,0-5-1-8.1-2.9c-8.1-5.6-9.4-6.2-19.7-6.2c-4.4,0-8.5,2.1-13.4,5.4c-5.3,3.4-8.6,9.9-8.6,16.9c0,7.8,2.5,11,12.6,20.3
		c5.5,4.9,7.3,6.2,8.3,6.8c6.5,4.1,14.1,10,20.9,16.2c0.7,0.7,2.3,2.1,6,5.1l0.8,0.7l0.4,0.4c0.8,0.8,2,1.9,3.3,3.9l0.1,0.2l0.1,0.2
		c2.2,2.6,2.3,2.7,7.8,8.5c6.1,6.9,12.2,21.6,12.2,29.6c0,13.2-5.2,27.1-12.6,33.8c-5.8,5.3-12.6,9.2-19.2,11
		C62.7,182.4,62.7,182.4,45.2,183.7z"/>
	<path class="st0" d="M45.2,188.3L45.2,188.3c-7.6,0-15.7-2.5-28.9-8.6c-0.1,0-0.1-0.1-0.2-0.1c-4.9-2.6-9.4-6.3-13-10.9
		c-2.4-3.1-3.1-5.3-3.1-10c0-8.8,4-13.3,12-13.3c6.7,0,7.7,0.9,19.2,11.6l0.2,0.2c1.7,1.5,3.4,2.3,7.6,3.4c2.4,0.6,2.5,0.6,6.4,1.6
		c0.2,0.1,0.4,0.1,0.7,0.2c1.6,0.7,2,0.7,3.5,0.7c5.1,0,12.3-2.4,16.7-4.6c7-4.1,11.1-12.2,11.1-22.2c0-5.3-4.2-12.5-11.1-19.2
		c0,0-0.1-0.1-0.1-0.1l-3.7-3.9c-0.1-0.1-0.2-0.2-0.3-0.3c-0.4-0.4-1-1.3-1.1-1.4c-0.3-0.3-0.5-0.7-0.7-1.1l-0.1-0.1
		c-2.5-1.8-4.7-3.9-6.7-5.7l-0.5-0.4c-0.1-0.1-0.2-0.1-0.2-0.2l-1.7-1.8c-0.1-0.1-0.2-0.2-0.3-0.3c-0.2-0.2-0.8-0.6-1.2-0.9
		c-0.9-0.6-2.2-1.4-3.7-2.6L45.4,98c-0.3-0.1-0.6-0.3-0.8-0.5c-0.8-0.6-2.2-1.7-3.2-2.5L41.3,95c-2.1-1.4-4.1-3-6.3-4.6
		c-9.1-6.7-11.6-9.4-20.3-19.8c-5.7-6.8-9.2-16.8-9.2-26c0-5.4,1.5-14.8,3-18.1c0-0.1,0.1-0.2,0.1-0.3C16.7,10.4,33,0.3,50.1,0.3
		C55.3,0.3,69.3,3,74.6,5c9.3,3.7,15.5,10.9,15.5,17.9c0,7.2-6.6,13.3-14.3,13.3c-3.3,0-6.7-1.2-10.5-3.7c0,0-0.1,0-0.1-0.1
		c-7.4-5.1-7.9-5.4-17.1-5.4c-3.2,0-6.7,1.8-10.9,4.6c-4,2.6-6.5,7.6-6.5,13.1c0,5.8,1.3,7.9,11.1,17c3.8,3.4,6.3,5.5,7.6,6.3
		c6.7,4.3,14.6,10.3,21.5,16.7c0.1,0.1,0.2,0.2,0.3,0.3c0.5,0.5,2.9,2.5,5.6,4.7l0.8,0.7c0.1,0.1,0.2,0.2,0.4,0.3l0.4,0.4
		c0.8,0.8,2.2,2.2,3.8,4.5c2.1,2.4,2.2,2.5,7.6,8.2c0,0,0.1,0.1,0.1,0.1c6.9,7.7,13.4,23.6,13.4,32.6c0,14.6-5.6,29.5-14,37.2
		c-6.3,5.8-13.8,10-21.1,12c0,0-0.1,0-0.1,0c-4.4,1.1-4.8,1.1-22.3,2.5C45.4,188.3,45.3,188.3,45.2,188.3z M20.3,171.5
		c11.7,5.5,18.6,7.6,24.7,7.7c16.8-1.3,16.9-1.3,20.6-2.2c5.9-1.6,12.1-5.1,17.3-9.9c6.4-5.8,11.1-18.6,11.1-30.4
		c0-6.8-5.6-20.4-11-26.5c-5.4-5.7-5.7-5.9-7.9-8.6l-0.1-0.2c-0.1-0.1-0.2-0.3-0.3-0.4l-0.1-0.2c-1.1-1.6-2-2.5-2.7-3.2l-0.2-0.2
		l-0.7-0.5c-3.9-3.2-5.5-4.5-6.3-5.4C58,85.4,50.6,79.8,44.4,75.8c-1.2-0.8-3.3-2.3-8.9-7.3c-10.4-9.8-14.1-14-14.1-23.7
		c0-8.5,4.1-16.4,10.6-20.7C37.6,20.4,42.5,18,48,18c11.2,0,13.5,1,22.2,6.9c2.3,1.5,4.1,2.2,5.6,2.2c2.9,0,5.2-2.3,5.2-4.2
		c0-2.7-3.6-7-9.8-9.5c-4.1-1.6-17-4.1-21.2-4.1c-13.7,0-26.7,8.1-33.2,20.8c-0.7,1.9-2.2,9.5-2.2,14.4c0,7.2,2.7,15,7.1,20.2
		C30.1,74.7,32,76.8,40.5,83c0,0,0.1,0.1,0.1,0.1c2.1,1.6,4,3.1,5.8,4.3c0.1,0,0.1,0.1,0.2,0.1l0.3,0.2c0.1,0,0.1,0.1,0.2,0.1
		c0.7,0.6,1.7,1.3,2.4,1.9c0.3,0.1,0.6,0.3,0.9,0.5l1.1,0.8c1.3,1,2.3,1.7,3.1,2.2c1,0.7,2.2,1.5,3.3,2.7l1.8,1.8
		c1.9,1.7,3.9,3.6,6,5.1l1.5,1.1c0.9,0.6,1.5,1.6,1.7,2.6c0.1,0.1,0.1,0.2,0.2,0.3l3.6,3.7c8.9,8.6,13.8,17.8,13.8,25.7
		c0,13.4-5.7,24.4-15.7,30.2c-0.1,0-0.1,0.1-0.2,0.1c-5.2,2.7-14.1,5.7-21,5.7c-2.2,0-4-0.1-6.8-1.3c-3.5-0.9-3.6-0.9-5.9-1.5
		c0,0-0.1,0-0.1,0c-4.9-1.3-8.2-2.5-11.5-5.5l-0.3-0.3c-9.8-9.2-9.8-9.2-13-9.2c-2.3,0-2.9,0-2.9,4.2c0,2.9,0.1,3,1.2,4.4
		C13,166.5,16.5,169.5,20.3,171.5z"/>
	<path class="st0" d="M258.7,144.1c-5.8,0-12.2-4.8-12.2-9.3c0-1.8,0.4-4.7,1.2-8.4c0.9-3.9,1.7-22,1.7-23.3c0-0.4-0.1-2.2-0.2-4.7
		c-0.2-5-0.8-17.1-0.6-19.2c0.5-3.3-0.4-6.7-0.7-8.2c0.2-1.2,0.3-2.3-0.1-5.4c-0.8-4.3-0.8-5.8-0.8-8.7c0-6.1-1.8-9.8-5.2-11
		c-0.5-0.2-1.1-0.3-1.7-0.3c-2.3,0-4,1.4-5.5,2.7l-0.2,0.1l-0.2,0.2c-1.8,1.9-3.4,3.2-4.7,4l-0.2,0.2c-10.1,7-13.6,10.8-21.3,21
		c-4.6,5.9-7.2,7-10.5,7c-3.6,0-4.6,0-11.3-9.4c-1.7-2.5-3.2-4.5-4.3-5.7l-3-2.9c-0.1-0.2-1.8-2.2-4-5.4c-2.5-3.5-2.8-3.8-7.7-7.8
		c-1.4-1.3-3.8-3.5-6.9-6.4c-2-1.7-3.8-3.3-6.3-3.3c-4.1,0-7.1,5-7.1,8.4c0,0.9,0,2.4,0.4,3.9c0.4,1.5,1.3,8.2,1.5,9.7
		c-0.2,2.6-0.8,8.5-1.2,13.3c-0.3,2.7-0.5,5-0.6,6l0,0.3c0,1.1,0.1,2.2,0.3,3.2l0.1,0.9c-0.1,0.4-0.1,1-0.2,1.7l0,0.3
		c0,1.8,0.3,8.5,0.8,17.5c0,1.1,0.4,15.5,2.2,24.5c0.5,2.4,0.7,3.8,0.7,4.8c0,2.8-1.8,6.2-3.4,7c-1.3,0.7-7,1.9-10.1,1.9
		c-3.9,0-7.7-4.2-7.7-8.4c0-2.3,0.3-4.8,1-7.5c0.9-5.2,1.2-23.3,1.2-25.3c0-1.3,0-2.2,0.2-3.9l0-0.3l0-0.3c-0.1-2.3-0.2-6.2-0.3-8.7
		c-0.1-2.1-0.1-4.3-0.2-6.6c0.5-3.8,0.8-6.8,0.8-8.9c0-1.4-0.1-2.9-0.3-4.9l-0.2-2.3c-0.5-4.5-0.8-13.6-0.8-23.8l0.3-7.8l0-0.1
		c-0.5-11.9-0.6-12.5-2.1-16c-0.4-1.4-0.6-2.3-0.6-2.4c0-3.2,7.2-10.6,9.8-10.8c1.6,0,2.2,0,8,4.6c1.2,0.9,2.3,1.8,3.6,2.5l5.8,4.1
		l0.2,0.1c1,0.7,4.3,3.5,7.5,6.9c2.6,2.9,4.6,4.9,5.9,6.2c0.4,0.4,1.1,1.1,1.1,1.1l0.1,0.1c0.9,0.8,1.6,1.4,2.5,2.3
		c0.5,0.5,1.2,1.1,2,1.9l6.2,7.3l4.9,5.1l5.2,6c1.3,1.4,4.4,2.8,6,2.8c3.5,0,7.5-2.6,13.9-9.4c0.4-0.3,0.7-0.7,1.1-1
		c0.7-0.6,1.4-1.3,1.7-1.4l0.3-0.2l0.3-0.2c0.9-0.7,1.8-1.3,2.7-2c1.4-1,2.8-2.1,4.2-3.3c3.3-2.3,11.3-9.7,14.1-13.6
		c0.9-1.1,1.7-2,2.3-2.7c0.3-0.3,0.5-0.6,0.7-0.8l5-3.2c2.5-1.5,4.9-5.3,5.9-6.9c3.5-6.1,4.4-6.1,6-6.1c3.4,0,6.5,1.2,8.7,3.3
		c2.1,2.1,3.2,5,3,8.2c0,1.1-0.2,3.3-1.4,7.2c-0.9,3.3-1.2,6.4-1.2,8l0,0.3C265,35,265,35,265.3,43c0.3,3.7,0.5,7.5,0.8,11.8
		c-0.3,5.3-0.6,9.7-0.8,13.1c-0.4,5.6-0.5,8.4-0.5,9.5c0,0.2,0.1,1.7,0.2,3.7c0.2,4,0.8,16.3,0.6,17.8c-0.3,1.5-0.3,2.6-0.3,3.5
		c0,0.9,0.2,2,0.3,2.6c0,1.8,0.3,16,1.2,19c0.9,4.1,1.4,8.3,1.4,11.7C268.2,140.2,263.7,144.1,258.7,144.1z"/>
	<path class="st0" d="M258.7,148.7c-7.6,0-16.7-6.2-16.7-13.8c0-2.7,0.7-6.6,1.3-9.3c0.7-3.4,1.6-20.6,1.6-22.4c0-0.1,0-0.9-0.2-4.5
		c-0.1-1.7-0.8-16.9-0.6-19.8c0-0.1,0-0.2,0-0.3c0.4-2.5-0.4-5.4-0.6-6.4c-0.2-0.7-0.2-1.3-0.1-2c0.1-0.5,0.2-1.1-0.1-3.9
		c-0.8-4.6-0.8-6.4-0.8-9.4c0-1.8-0.2-6-2.2-6.7c-0.7-0.2-1.7,0.7-2.8,1.5c-2.1,2.2-3.9,3.7-5.6,4.7l-0.1,0.1
		c-9.5,6.6-12.7,10.1-20.2,20c-5,6.4-8.9,8.8-14.2,8.8c-6,0-8.2-1.7-15-11.3c0,0,0-0.1-0.1-0.1c-1.5-2.2-2.8-4-3.8-5l-3-2.8
		c-0.1-0.1-0.3-0.3-0.4-0.4c-0.6-0.8-2.2-2.8-4.2-5.7c-2.1-3-2.1-3-6.8-6.8c0,0-0.1-0.1-0.1-0.1c-1.5-1.3-3.9-3.6-7-6.5
		c-1.2-1.1-2.5-2.1-3.2-2.1c-1,0-2.6,2.4-2.6,3.9c0,0.8,0,1.8,0.2,2.8c0.5,2.1,1.5,9,1.6,10.4c0,0.2,0,0.5,0,0.8
		c-0.2,2.6-0.7,8.1-1.2,13l-0.1,1.1c-0.2,2.3-0.4,4.2-0.5,5.2l0,0.1c0,0.8,0.1,1.5,0.2,2.1c0,0.1,0,0.2,0.1,0.3l0.1,0.9
		c0.1,0.5,0.1,0.9,0,1.4c0,0.3-0.1,0.7-0.1,1.3l0,0.1c0,1.8,0.3,8.3,0.8,17.1c0,0.1,0,0.2,0,0.3c0,1.3,0.4,15.3,2.1,23.5
		c0.6,2.7,0.8,4.4,0.8,5.7c0,4.3-2.5,9.2-5.7,11c-0.1,0-0.1,0.1-0.2,0.1c-2.2,1.1-8.7,2.5-12.2,2.5c-6.4,0-12.2-6.2-12.2-13
		c0-2.6,0.4-5.4,1.1-8.4c0.8-4.6,1.1-20.7,1.1-24.4c0-1.4,0-2.5,0.3-4.4c-0.1-1.8-0.2-4.4-0.2-6.7l-0.1-2.2c-0.1-2-0.1-4.2-0.2-6.4
		c0-0.3,0-0.5,0-0.8c0.5-3.5,0.7-6.4,0.7-8.3c0-1.2-0.1-2.7-0.3-4.5l-0.2-2.3c-0.5-4.7-0.8-13.7-0.8-24.2c0-0.1,0-0.1,0-0.2l0.3-7.6
		c-0.5-11.6-0.5-11.7-1.7-14.4c-0.1-0.2-0.1-0.3-0.2-0.5c-0.5-1.6-0.7-2.8-0.8-3.5c0-0.1,0-0.2,0-0.3c0-5.7,9.2-15,14-15.4
		c0.1,0,0.3,0,0.4,0c3.2,0,5,0.9,10.8,5.6c1,0.8,2,1.5,2.9,2.1c0.1,0.1,0.3,0.2,0.4,0.3l5.4,3.8c0.2,0.1,0.4,0.2,0.6,0.4
		c1.3,0.9,4.8,3.9,8.2,7.4c0,0,0.1,0.1,0.1,0.1c2.4,2.7,4.4,4.7,5.6,5.9c0.4,0.4,0.9,0.9,1.1,1.1l0,0c1,0.9,1.7,1.5,2.6,2.4
		c0.6,0.5,1.2,1.1,2,1.9c0.1,0.1,0.3,0.2,0.4,0.4l6.1,7.2l4.8,5c0,0.1,0.1,0.1,0.1,0.2l5.1,5.8c0.5,0.5,2,1.2,2.7,1.3
		c2-0.1,5.5-2.7,10.6-8c0.1-0.1,0.2-0.2,0.3-0.3c0.4-0.3,0.7-0.6,1-0.9c1.2-1.1,1.9-1.7,2.6-2.1c0.9-0.7,1.8-1.4,2.7-2.1
		c1.4-1,2.7-2.1,4.1-3.2c0.1-0.1,0.1-0.1,0.2-0.2c3-2.2,10.6-9.2,13.1-12.6c0.1-0.1,0.1-0.2,0.2-0.2c0.8-1,1.6-1.9,2.1-2.6l0.8-1
		c0.3-0.4,0.7-0.7,1-0.9l5-3.2c0.1,0,0.1-0.1,0.2-0.1c0.8-0.5,2.5-2.3,4.2-5.2c3.6-6.2,5.6-8.3,10-8.3c4.6,0,8.9,1.6,11.9,4.6
		c3,3,4.6,7.1,4.3,11.6c0,2.2-0.6,4.9-1.6,8.3c-0.8,2.9-1,5.5-1,6.6l0,0.1c0.3,3,0.3,3.2,0.5,10.9c0.3,4.2,0.6,7.9,0.8,11.7
		c0,0.2,0,0.4,0,0.5c-0.3,4.4-0.5,8.2-0.7,11.4l-0.1,1.8c-0.3,4.8-0.5,8.2-0.5,9.3c0,0.3,0.1,1.6,0.2,3.5c0,0.2,0.8,16.1,0.6,18.4
		c0,0.2,0,0.3-0.1,0.5c-0.2,1.1-0.2,1.8-0.2,2.6c0,0.4,0.1,1.1,0.2,1.7c0,0.2,0.1,0.5,0.1,0.7l0,0.6c0.3,14.2,0.9,16.9,1,17.3
		c0,0.1,0,0.2,0.1,0.3c1,4.5,1.6,9,1.6,12.7C272.8,142.7,266.3,148.7,258.7,148.7z M253.1,79.8c-0.1,1.8,0.2,10.9,0.6,18.5
		c0.2,3.7,0.2,4.6,0.2,4.9c0,1.2-0.8,19.8-1.8,24.3c-1.1,4.8-1.1,6.9-1.1,7.4c0,1.3,3.7,4.7,7.6,4.7c2.8,0,5-2.1,5-3.9
		c0-3-0.5-6.9-1.3-10.6c-0.4-1.7-1-5.6-1.3-19.5l0-0.2c-0.1-0.8-0.3-1.9-0.3-3c0-0.9,0-2.3,0.3-4c0-1.8-0.4-11.4-0.7-17
		c-0.2-3.5-0.2-3.8-0.2-3.9c0-1.2,0.2-3.9,0.5-9.8l0.1-1.8c0.2-3.1,0.4-6.8,0.7-11.1c-0.2-3.7-0.5-7.4-0.8-11.4c0-0.1,0-0.1,0-0.2
		c-0.3-7.8-0.3-7.8-0.5-10.6c0-0.1,0-0.1,0-0.2l0-0.3c0-0.1,0-0.1,0-0.2c0-1.8,0.4-5.3,1.4-9.1c0-0.1,0-0.1,0.1-0.2
		c1-3.1,1.2-4.9,1.2-5.8c0-0.1,0-0.2,0-0.3c0.1-1.9-0.5-3.5-1.7-4.7c-1.2-1.2-3-1.9-5.1-2c-0.4,0.5-1.1,1.5-2.5,3.8
		c-1.6,2.8-4.2,6.6-7.4,8.5l-4.3,2.8l-0.3,0.4c-0.6,0.7-1.3,1.6-2.1,2.5c-3.2,4.3-11.3,11.8-14.9,14.4c-1.5,1.2-2.9,2.3-4.3,3.3
		c-0.9,0.7-1.8,1.3-2.6,2l-0.3,0.2c-0.2,0.2-0.5,0.3-0.7,0.4l-0.1,0c-0.3,0.2-0.8,0.7-1,0.9c-0.3,0.3-0.6,0.6-1,0.9
		c-6.3,6.6-11.4,10.7-17.1,10.7c-2.8,0-7.2-1.9-9.3-4.2c0,0-0.1-0.1-0.1-0.1l-5.1-5.9l-4.8-5.1c-0.1-0.1-0.1-0.1-0.2-0.2l-6-7.1
		c-0.8-0.7-1.3-1.3-1.9-1.8c-0.9-0.9-1.5-1.4-2.3-2.2l-0.1-0.1c-0.1-0.1-0.2-0.2-0.2-0.2c0,0-0.7-0.7-1.1-1.1
		c-1.4-1.4-3.5-3.4-6-6.3c-2.7-2.8-5.4-5.1-6.4-6c-0.2-0.1-0.3-0.2-0.5-0.3l-5.6-3.9c-1.5-0.9-2.8-1.9-4-2.8
		c-2.8-2.3-4.1-3.2-4.7-3.5c-1.8,1.1-4.9,4.5-5.6,6.2c0.1,0.2,0.1,0.5,0.2,0.8c1.7,4.1,1.8,5.5,2.3,17.3l0,0.2c0,0.1,0,0.2,0,0.4
		l-0.3,7.7c0,9.9,0.3,18.8,0.8,23.2l0.2,2.4c0.2,2,0.3,3.7,0.3,5.3c0,2.2-0.3,5.2-0.7,9.1c0.1,2.2,0.1,4.2,0.2,6.2l0.1,2.2
		c0.1,2.3,0.1,4.8,0.2,6.5l0,0.4c0,0.3,0,0.6,0,0.8l0,0.3c-0.2,1.4-0.2,2.1-0.2,3.3c0,0.2-0.1,20.1-1.2,26.1c0,0.1,0,0.2-0.1,0.2
		c-0.6,2.3-0.8,4.5-0.8,6.4c0,2,2,3.9,3.1,3.9c2.2,0,6.3-0.9,7.8-1.4c0.5-0.6,1.2-2,1.2-3.1c0-0.9-0.4-2.6-0.6-3.9
		c-1.8-8.9-2.3-23-2.3-25.3c-0.5-8.4-0.8-15.5-0.8-17.6c0-0.1,0-0.1,0-0.2l0-0.3c0-0.1,0-0.1,0-0.2c0-0.4,0.1-0.8,0.1-1.2l0-0.1
		c-0.3-1.2-0.4-2.6-0.4-4c0-0.1,0-0.1,0-0.2l0-0.3c0-0.1,0-0.1,0-0.2c0.1-1,0.3-3,0.5-5.4l0.1-1.1c0.4-4.4,1-9.7,1.2-12.4
		c-0.2-2-1-7.5-1.3-8.5c0,0,0-0.1,0-0.1c-0.5-2-0.5-3.8-0.5-4.9c0-8,6.8-13,11.7-13c4.2,0,7,2.5,9.3,4.5c0.1,0,0.1,0.1,0.2,0.1
		c3.7,3.5,5.7,5.3,6.7,6.2c5,4,5.6,4.6,8.5,8.6c0,0,0,0.1,0.1,0.1c1.6,2.4,2.9,4.1,3.5,4.9l2.8,2.7c0.1,0,0.1,0.1,0.1,0.1
		c1.7,1.7,3.5,4.4,4.8,6.3c2,2.8,4.4,6.1,5.8,7.2c0.3,0.2,0.3,0.2,1.7,0.2c1.3,0,2.8,0,6.9-5.2c7.9-10.5,11.8-14.7,22.2-22
		c0,0,0.1-0.1,0.1-0.1l0.2-0.2c0,0,0.1-0.1,0.1-0.1c1-0.6,2.3-1.7,3.8-3.3l0.2-0.2c0.1-0.1,0.2-0.2,0.4-0.3l0.2-0.1
		c1.8-1.5,4.4-3.7,8.4-3.7c1.1,0,2.2,0.2,3.2,0.5c3.8,1.3,8.3,5,8.3,15.3c0,2.8,0,4,0.7,7.9c0,0.1,0,0.2,0,0.3
		c0.3,2.7,0.4,4.2,0.2,5.7C252.9,72.7,253.6,76.2,253.1,79.8z"/>
	<path class="st0" d="M406.9,183.7c-7.4,0-13.7-3.2-20.3-10.3c-1.8-1.9-5.8-5.2-12.4-10.4l-5.6-4.2c-1-0.9-2.2-1.8-3-2.9l-0.3-0.4
		l-0.4-0.3c-1.1-0.8-3.7-2.8-7.1-5.1l-0.3-0.2c-1.6-0.9-2.7-1.7-3.5-2.3c-0.2-0.1-0.3-0.2-0.4-0.3l-3.7-3.9
		c-0.5-0.5-0.9-0.8-6.5-4.5c-1.7-1-3.6-2.5-6-4.4c-2.8-2.6-4.6-3.8-5.7-4.3l0,0c-1.4-0.7-1.8-1-1.8-1c-0.5-0.5-1.5-1.4-3.3-1.4
		c-4.1,0-5.8,4.9-5.8,7.3c0,2.3,0.3,5.6,0.8,8.9c0.2,2.4,0.5,4.7,0.5,6.6c0,2.1,0,3.6-0.2,5.3c-0.2,1.4-0.5,2.4-0.5,2.4l-0.1,0.4
		v0.4c0,2.6,0.7,6.4,2,10.7c0.4,1.3,0.6,2.6,0.6,3.7c0,2.1-1.4,5.8-2.2,6.6c-1,1.2-4.5,2.6-8.7,2.6c-6,0-9.5-3-9.5-8.2
		c0-1.8,0.3-5.5,1-10.2l0.3-2.6c0.5-4.7,0.8-8.5,0.8-9.8c0-1.2,0-2.7-0.3-4.9l-0.2-2.7c-0.2-2-0.3-3.6-0.3-4.9
		c0-1.5,0.3-4.3,0.5-6.4c0.8-4.2,1.1-7.1,1.1-8c-0.8-12.2-1.3-29.2-1.3-34c0-2.9,0-4.7,0.5-8.1c0.3-3.5,0.5-5.9,0.5-5.9l0-0.3l0-0.3
		c-0.5-10.5-1.1-25.2-1.1-31.6c0-1.8,0.3-4.4,0.7-7.5c0.3-1.6,0.3-2.7,0.3-3.3c0-1.1,0-1.1-2.4-16.8l-0.2-1.5
		c-0.2-1.3-0.3-2.3-0.3-2.9c0-4.3,4.7-8.2,10.1-8.2c5.3,0,10.3,5,10.3,10.4c0,1.3-0.5,6.1-2.6,16.5l-0.1,0.5l0.8,10.5
		c0,0.2-0.1,0.8-0.6,2l-0.1,0.3l-0.1,0.3c-0.2,1-0.4,1.7-0.4,1.8l-0.2,0.8l0.1,0.8c1.6,10.5,1.6,10.5,1.6,13.6v2.5
		c0,6-0.2,7.4-0.9,11.9l-0.2,1.1l-0.3,3.6c0,1.4,0.2,2.9,0.4,4.5l0.2,1.2c0.4,2.8,1,6.5,1,7.3c0,3.5,0,5.8,3.6,7.7l2.8,1.4l2.1-2.2
		c0.2-0.2,0.3-0.4,0.8-0.6c1.2-0.6,2.8-2.5,4.9-5.4c3.4-5.6,7.7-11,16.6-20.9c1.4-1.8,4.3-5.3,8.7-10.7l0.6-0.5
		c2.4-2.2,4.6-4.3,6.8-6.6l0.1-0.2l6.5-8.5c2.9-3.6,6.1-7.8,9.6-12.5c0.6-0.7,0.8-0.9,1.4-1.5c0.4-0.4,0.9-0.9,1.7-1.7
		c1.5-1.6,3.1-3.2,4.8-4.8l0.4-0.3l0.3-0.4c0.6-0.9,1.7-2.7,3.2-6c3.6-7.8,4.5-9,6.2-10.8c2.4-2.5,5.2-4,7.4-4
		c3.1,0,7.1,4.2,7.1,8.7c0,2.6-1.1,7.5-3.1,11.7c-1.3,3.2-1.3,3.2-6.7,7.9l-0.3,0.2c-1.1,1.1-2.8,2.9-4.6,5.4
		c-1.6,2.2-3.5,4.7-5.4,7.5c-2.2,2.1-3.8,4-4.8,5.2c-0.4,0.5-0.8,0.9-1.1,1.2l-0.3,0.3l-0.2,0.3c-1.6,2.7-2.7,3.8-5.2,6.1
		c-1.3,1.3-2.5,2.7-3.1,3.1l-0.9,0.5l-0.5,1c-0.1,0.2-0.3,0.4-0.6,0.7c-0.7,0.9-1.8,2.2-3,4c-2.7,3.7-3.3,4.2-7.3,7.8l-1.8,1.6
		l-0.1,0.1c-0.5,0.6-2.5,3-4.8,6.5l-0.6,0.8c-1.1,1.5-2.4,3.1-4.2,4.7c-1.2,1.2-2.6,2.8-4.2,4.8l-1.6,1.9c-0.5,0.6-1,1.2-1.5,1.8
		c-1,1.1-2,2.3-2.8,3.5c-6.6,6.5-6.6,8.7-6.6,9.8c0,2.8,2.6,5.9,4.5,7.2c2.5,1.8,5,3.7,7,5.5c1.7,1.5,4.8,3.8,10.4,7.8l0.2,0.2
		l0.2,0.1c0.4,0.3,2.2,1.9,3.6,3.1c0.9,0.8,1.8,1.6,2.8,2.5c17.4,15.6,30.8,24.9,41,28.7c1.5,0.6,4.4,4.8,4.4,7.9
		C417,179.1,412.1,183.7,406.9,183.7z"/>
	<path class="st0" d="M406.9,188.3c-8.7,0-16.2-3.7-23.6-11.8c-1.5-1.6-5.5-4.9-11.8-9.8l-5.6-4.2c-0.1-0.1-0.1-0.1-0.2-0.2
		c-1.2-1-2.5-2.1-3.6-3.5c-0.9-0.7-3.4-2.5-6.7-4.9l-0.1-0.1c-1.8-1.1-3-2-3.8-2.5L351,151c-0.2-0.2-0.4-0.3-0.6-0.5l-3.7-3.9
		c-0.5-0.4-3.8-2.6-5.6-3.7c-1.9-1.1-3.9-2.7-6.5-4.8c-0.1-0.1-0.1-0.1-0.2-0.2c-2.8-2.6-4.2-3.3-4.6-3.6c-0.1-0.1-0.3-0.1-0.4-0.2
		c-1.3-0.7-1.9-1.1-2.2-1.4c-0.2-0.1-0.3-0.2-0.4-0.4c0,0,0,0-0.1,0c-0.5,0.2-1.3,1.8-1.3,2.8c0,2,0.3,5.1,0.8,8.1
		c0,0.1,0,0.2,0,0.3l0,0.2c0.3,2.4,0.5,4.7,0.5,6.9c0,2.2,0,3.9-0.3,5.9c-0.2,1.3-0.4,2.2-0.5,2.7c0,2.1,0.7,5.5,1.8,9.3
		c0.5,1.7,0.8,3.5,0.8,5c0,2.7-1.5,7.6-3.3,9.6c-2.2,2.5-7,4.2-12.1,4.2c-8.4,0-14.1-5.1-14.1-12.7c0-2,0.3-5.9,1.1-10.8l0.3-2.5
		c0.3-3.4,0.8-8.1,0.8-9.3c0-1.1,0-2.4-0.3-4.3c0-0.1,0-0.2,0-0.3l-0.2-2.8c-0.2-2.1-0.3-3.7-0.3-5.1c0-1.4,0.2-3.5,0.5-6.9
		c0-0.1,0-0.2,0.1-0.4c0.8-4,1-6.4,1-7c-0.8-12.3-1.3-29.3-1.3-34.1c0-3,0-5,0.5-8.6c0.2-2.8,0.5-5.1,0.5-5.8
		c-0.5-10.6-1.1-25.3-1.1-31.8c0-2.6,0.4-5.9,0.8-8.2c0,0,0-0.1,0-0.1c0.2-1.2,0.2-1.9,0.2-2.5c0-0.7-0.2-1.8-2.4-16.2
		c0,0,0-0.1,0-0.1l-0.2-1.5c-0.2-1.6-0.3-2.6-0.3-3.5c0-6.9,6.7-12.7,14.6-12.7c7.8,0,14.9,7.1,14.9,14.9c0,1.8-0.7,7.3-2.6,17.2
		l0.8,9.9c0,0.2,0,0.5,0,0.7c-0.1,0.9-0.3,1.9-0.8,3.2c-0.2,0.9-0.4,1.6-0.5,2c1.5,10.4,1.6,10.6,1.6,14v2.5c0,6.4-0.2,7.9-0.9,12.6
		l-0.1,0.9l-0.2,3.3c0,1.1,0.2,2.3,0.4,3.7l0.2,1.2c0.7,4.8,1,6.9,1,7.8c0,0,0,0.1,0,0.1c0,2.8,0,3,0.9,3.5c0.4-0.4,1-0.8,1.8-1.2h0
		c0,0,1-0.7,3.1-3.8c3.5-5.8,8-11.4,17-21.4c1.5-1.8,4.3-5.3,8.6-10.7c0.1-0.2,0.3-0.3,0.4-0.4l0.6-0.5c2.3-2.2,4.5-4.2,6.6-6.4
		l6.3-8.3c0,0,0.1-0.1,0.1-0.1c2.9-3.5,6-7.7,9.4-12.3c0-0.1,0.1-0.1,0.1-0.2c0.7-0.9,1.2-1.3,1.8-1.9c0.5-0.4,0.9-0.9,1.6-1.6
		c1.5-1.5,3.1-3.3,5-4.9c0.6-0.9,1.5-2.4,2.8-5.3c3.7-8.1,4.9-9.8,7-12.1c3.3-3.4,7.2-5.4,10.7-5.4c5.9,0,11.7,6.6,11.7,13.3
		c0,3-1.1,8.5-3.5,13.6c-1.7,4.1-2.5,4.8-7.8,9.4l-0.1,0.1c-1,1.1-2.6,2.7-4.1,4.8c-1.6,2.1-3.5,4.7-5.3,7.4
		c-0.2,0.3-0.4,0.5-0.6,0.7c-2.1,2-3.5,3.8-4.5,4.9l-0.1,0.1c-0.4,0.5-0.8,0.9-1.1,1.2c-1.9,3-3.2,4.5-5.8,6.9l-0.3,0.3
		c-1.5,1.6-2.4,2.5-3,3c-0.2,0.1-0.3,0.2-0.5,0.4c-0.1,0.1-0.2,0.2-0.2,0.4c-0.1,0.2-0.3,0.4-0.5,0.7l-0.1,0.1
		c-0.7,0.8-1.7,2.1-2.7,3.7c0,0.1-0.1,0.1-0.1,0.2c-3,4.1-3.8,4.8-7.9,8.5l-1.6,1.4c-0.4,0.4-2.2,2.7-4.3,5.8
		c-0.1,0.1-0.1,0.2-0.2,0.3l-0.6,0.8c-1.1,1.5-2.6,3.3-4.6,5.2c-1.1,1.2-2.4,2.7-4,4.5l-1.6,1.8c-0.5,0.7-1,1.3-1.6,1.9
		c-0.9,1-1.8,2.1-2.5,3.1c-0.2,0.3-0.4,0.5-0.6,0.7c-4.8,4.7-5.3,6.4-5.3,6.5l0,0.1c0,0.7,1.3,2.6,2.5,3.4c0.1,0,0.1,0.1,0.2,0.1
		c2.4,1.8,5.2,3.8,7.3,5.7c1.6,1.3,4.6,3.6,10,7.4c0.1,0.1,0.2,0.1,0.3,0.2c0.6,0.4,1.6,1.2,4.1,3.5c0.9,0.8,1.8,1.6,2.8,2.4
		c17,15.2,30,24.3,39.5,27.8c0,0,0.1,0,0.1,0.1c3.6,1.4,7.2,7.5,7.2,12.1C421.5,182,414.3,188.3,406.9,188.3z M371.4,155.2l5.5,4.1
		c0,0,0.1,0,0.1,0.1c6.8,5.3,10.9,8.8,12.8,10.8c5.8,6.3,10.9,8.9,17,8.9c2.8,0,5.4-2.6,5.5-3.6c0-0.8-1.1-2.9-1.9-3.7
		c-10.6-4-24.3-13.6-41.9-29.3c-0.9-0.8-1.9-1.7-2.8-2.5c-0.9-0.8-2.4-2.2-3-2.6c-0.2-0.1-0.3-0.2-0.4-0.3l-0.2-0.2
		c-5.8-4.2-8.9-6.4-10.8-8c0,0-0.1,0-0.1-0.1c-1.8-1.6-4.3-3.5-6.5-5.1c-2.6-1.8-6.5-6.1-6.5-10.9c0-3.1,1.3-6.4,7.7-12.7
		c0.9-1.2,1.9-2.4,2.8-3.5c0.5-0.5,0.9-1.1,1.4-1.7c0,0,0.1-0.1,0.1-0.1l1.6-1.9c1.7-1.9,3.1-3.6,4.4-5c0.1-0.1,0.1-0.1,0.2-0.2
		c1.5-1.4,2.7-2.9,3.7-4.2l0.5-0.7c2.4-3.6,4.5-6.2,5.2-7l0.1-0.1c0.1-0.1,0.2-0.2,0.2-0.2l1.8-1.6c3.9-3.5,4.2-3.7,6.6-7
		c1.3-1.9,2.4-3.3,3.1-4.2l0.1-0.2c0,0,0.1-0.1,0.1-0.1l0.2-0.5c0.4-0.9,1.1-1.6,2-2.1l0.4-0.2c0.5-0.5,1.4-1.4,2.1-2.1l0.4-0.4
		c0.1-0.1,0.1-0.1,0.2-0.2c2.4-2.2,3.1-3,4.4-5.2l0.2-0.3c0.2-0.3,0.4-0.5,0.6-0.8l0.3-0.3c0.2-0.2,0.5-0.5,0.8-0.9l0.1-0.1
		c1-1.2,2.6-3.1,4.8-5.2c1.9-2.8,3.7-5.3,5.3-7.3c1.9-2.6,3.8-4.6,4.9-5.8c0.1-0.1,0.1-0.1,0.2-0.2l0.3-0.2c0,0,0.1-0.1,0.2-0.1
		c4.6-4,4.6-4,5.5-6.2c0-0.1,0.1-0.2,0.1-0.2c1.8-3.8,2.6-8.1,2.6-9.8c0-2-1.8-3.9-2.7-4.1c-0.5,0.1-2.1,0.6-4,2.6
		c-1.2,1.2-1.7,1.8-5.3,9.6c-1.5,3.5-2.8,5.6-3.5,6.6l-0.3,0.5c-0.2,0.4-0.5,0.7-0.8,1l-0.4,0.3c-1.6,1.5-3.2,3.1-4.5,4.5
		c-0.8,0.9-1.4,1.4-1.8,1.8c-0.5,0.5-0.7,0.6-1,1c-3.5,4.7-6.7,8.9-9.6,12.5l-6.4,8.4c-0.1,0.1-0.2,0.3-0.3,0.4l-0.1,0.2
		c-2.3,2.4-4.5,4.5-6.9,6.7l-0.4,0.4c-4.3,5.3-7.1,8.7-8.5,10.5c-0.1,0.1-0.1,0.1-0.2,0.2c-8.7,9.6-12.9,14.9-16.1,20.2
		c0,0.1-0.1,0.1-0.1,0.2c-2.5,3.6-4.4,5.7-6.3,6.8l-1.9,2c-1.4,1.5-3.6,1.8-5.4,0.9L324,106c-6-3.1-6.1-8-6.1-11.6
		c-0.1-0.8-0.7-4.8-0.9-6.7l-0.2-1.2c-0.2-1.8-0.5-3.4-0.5-5.2c0-0.1,0-0.2,0-0.3l0.3-3.6c0-0.1,0-0.2,0-0.3l0.2-1.1
		c0.7-4.4,0.9-5.6,0.9-11.3v-2.5c0-2.7,0-2.7-1.5-12.9l-0.1-0.9c-0.1-0.7,0-1.3,0.2-2l0.2-0.8l0,0c0,0,0.1-0.5,0.3-1.3l0.1-0.3
		c0.1-0.3,0.1-0.5,0.2-0.8l0.1-0.3c0.1-0.3,0.2-0.5,0.2-0.6l-0.8-9.9c0-0.4,0-0.8,0.1-1.2l0.1-0.5c2-10.3,2.5-14.8,2.5-15.6
		c0-2.8-3-5.8-5.8-5.8c-3.2,0-5.5,2.1-5.5,3.6c0,0.4,0.2,1.7,0.3,2.4l0.2,1.5c2.5,16,2.5,16,2.5,17.5c0,0.7,0,2.1-0.4,4.1
		c-0.4,2.7-0.7,5.2-0.7,6.7c0,6.3,0.5,20.9,1.1,31.4l0,0.3c0,0.2,0,0.5,0,0.7l0,0.3c0,0,0,0,0,0c0,0.1-0.3,2.5-0.5,5.8
		c0,0.1,0,0.2,0,0.3c-0.4,3-0.4,4.6-0.4,7.4c0,4.8,0.5,21.6,1.3,33.7c0,0.1,0,0.2,0,0.3c0,1.3-0.4,4.5-1.1,8.6
		c-0.1,1.2-0.5,4.3-0.5,5.7c0,1,0.1,2.5,0.3,4.4l0.2,2.7c0.3,2.4,0.3,4.2,0.3,5.4c0,1.4-0.3,4.3-0.9,10.3l-0.3,2.6
		c0,0.1,0,0.2,0,0.3c-0.8,4.8-1,8.2-1,9.5c0,1.1,0,3.6,5,3.6c2.6,0,4.6-0.7,5.2-1.1c0.4-0.9,1.1-2.8,1.1-3.6c0-0.5-0.1-1.3-0.4-2.3
		c-1-3.4-2.2-8.2-2.2-12.1v-0.4c0-0.4,0-0.7,0.1-1.1l0.1-0.4c0.1-0.3,0.2-1,0.4-2.1c0.2-1.3,0.2-2.6,0.2-4.6c0-1.7-0.2-3.8-0.4-5.9
		l0-0.1c-0.5-3.5-0.9-7-0.9-9.4c0-5,3.6-11.9,10.4-11.9c2.4,0,4.6,0.8,6.2,2.4c0.2,0.1,0.5,0.3,1,0.6c0,0,0.1,0,0.1,0.1
		c1.8,0.9,3.8,2.4,6.4,4.8c2.2,1.8,4,3.1,5.4,4c0,0,0.1,0.1,0.1,0.1c5.9,3.8,6.5,4.2,7.4,5.1l3.6,3.7c0.7,0.5,1.6,1.2,3,2
		c0.1,0,0.1,0.1,0.2,0.1l0.3,0.2c0,0,0.1,0.1,0.1,0.1c3.4,2.4,6.1,4.4,7.3,5.3l0.4,0.3c0.3,0.2,0.6,0.5,0.8,0.8l0.3,0.4
		C369.7,153.8,370.6,154.5,371.4,155.2z"/>
	<path class="st0" d="M574.7,184c-5.8,0-12.2-4.8-12.2-9.3c0-1.8,0.4-4.7,1.2-8.4c0.5-2.1,1.7-8,1.7-9.9c0-1.6-0.3-4.1-0.8-8.7
		c-0.3-1.9-0.5-3.7-0.5-5.4c0-2,0.2-4.2,0.4-6.8l0.1-1.5c0.5-3.6,0.8-6.2,0.8-7.7c0-0.4,0-0.4-1.1-17.1c-0.2-3-0.3-5.4-0.4-6.9
		c0-0.7-0.1-1.1-0.1-1.3c0-0.9,0.1-2.5,0.3-4.7c0.1-1.2,0.2-2.5,0.3-4c0.5-3.4,0.8-7.4,0.8-7.8l0-0.3c-0.3-3.2-0.3-5.6-0.3-7.2v-0.2
		l0-0.2c-0.1-1-0.2-2.1-0.3-3.4c-0.2-2.1-0.4-4.7-0.7-7.6c-0.8-4.3-0.8-5.8-0.8-8.7c0-6.1-1.8-9.8-5.2-11c-0.5-0.2-1.1-0.3-1.7-0.3
		c-2.3,0-4.1,1.5-5.5,2.7l-0.2,0.1l-0.1,0.2c-1.8,1.9-3.4,3.2-4.7,4l-0.2,0.2c-10.1,7-13.6,10.8-21.3,21c-4.6,5.9-7.2,7-10.5,7
		c-3.6,0-4.6,0-11.3-9.4c-1.7-2.5-3.2-4.5-4.3-5.7l-3-2.9c-0.1-0.2-1.8-2.2-4-5.4c-2.5-3.5-2.8-3.8-7.7-7.8
		c-1.4-1.3-3.8-3.5-6.9-6.4c-1.9-1.7-3.8-3.3-6.3-3.3c-4.1,0-7.1,5-7.1,8.4c0,0.9,0,2.4,0.4,3.9c0.4,1.5,1.3,8.2,1.5,9.7
		c-0.1,1.6-0.3,3.3-0.4,5.1c-0.2,2.3-0.5,4.7-0.6,7.2c-0.5,4-0.5,4-0.8,7.1l0,0.3c0,1.1,0.1,2.2,0.3,3.1l0.8,5.2
		c0.2,3,0.4,5.3,0.6,6.9c0.1,0.7,0.1,1.1,0.2,1.4l0,0.2l0,0.3c0.4,2.5,0.7,4,0.7,4.6l-1.6,15.3v0.2c0,1.2,0.1,2.7,0.3,4.1
		c0.2,1.5,0.2,2.4,0.2,3.4c0,0.9-0.6,8.1-1.3,15.7l0,0.3c0,1.7,0.3,7,0.8,16c0,0.5,0.1,0.9,0.6,3.2c0.3,1.5,0.8,3.9,1.6,7.8
		c0.5,2.4,0.7,3.8,0.7,4.8c0,2.8-1.9,6.2-3.4,7c-1.3,0.7-7,1.9-10.1,1.9c-3.9,0-7.7-4.2-7.7-8.4c0-2.3,0.3-4.8,1-7.5
		c0.8-4.4,1.2-8.2,1.2-11.9c0-0.9-0.1-2.8-0.3-5.2l-0.3-4.3l0-0.2c-0.1-0.5-0.2-1.2-0.2-2.1l0.3-5.7c0.3-6,0.5-9.9,0.7-11.3l0-0.3
		l0-0.3c-0.1-2.3-0.2-4.7-0.3-7.2c-0.1-2.3-0.1-4.8-0.3-7.4c0-2.1-0.2-5.8-0.5-10.8c-0.2-3.1-0.4-6.7-0.6-10.8c0-0.7,0.3-3.3,1-6.9
		c0.6-4.2,0.9-7.4,0.9-9.6c0-1.4-0.1-2.9-0.3-4.9l-0.2-2.3c-0.5-4.6-0.8-13.6-0.8-23.8l0.3-7.8l0-0.1c-0.5-11.9-0.6-12.5-2.1-16
		c-0.4-1.4-0.6-2.3-0.6-2.4c0-3.2,7.2-10.6,9.8-10.8c1.6,0,2.2,0,8,4.6c1.2,0.9,2.3,1.8,3.6,2.5l5.8,4.1l0.2,0.1
		c1,0.7,4.3,3.5,7.5,6.9c2.5,2.9,4.5,4.9,5.9,6.2c0.4,0.4,1.1,1.1,1.1,1.1l0.1,0.1c0.9,0.8,1.6,1.4,2.5,2.3c0.6,0.5,1.2,1.1,2,1.9
		l6.2,7.3l4.9,5.1l5.2,5.9c1.3,1.4,4.4,2.8,6,2.8c3.5,0,7.5-2.6,13.9-9.4c0.4-0.3,0.8-0.7,1.1-1c0.6-0.6,1.4-1.3,1.7-1.4l0.3-0.2
		l0.3-0.2c0.9-0.7,1.8-1.3,2.7-2c1.4-1,2.8-2.1,4.2-3.3c3.2-2.3,11.3-9.7,14.1-13.6c0.9-1.1,1.7-2.1,2.3-2.8
		c0.3-0.3,0.5-0.6,0.7-0.8l5-3.2c2.6-1.5,5.1-5.6,5.9-6.9c3.5-6.1,4.4-6.1,6-6.1c3.4,0,6.5,1.2,8.7,3.3c2.1,2.1,3.2,5,3,8.2
		c0,1.1-0.2,3.3-1.4,7.2c-1,3.7-1.2,6.8-1.2,8l0,0.3c0.3,2.9,0.3,2.9,0.5,10.9c0.3,3.7,0.5,7.5,0.8,11.8c-0.3,5.3-0.6,9.7-0.8,13.1
		c-0.4,5.6-0.5,8.4-0.5,9.5c0,0.8,0.1,1.6,0.3,2.7c0.1,0.6,0.2,1.3,0.3,2.1c0.5,5.1,1.3,15.3,1.3,18.4c0,1.7-0.2,3.5-0.4,5.5
		l-0.1,1.2c-0.8,4.3-0.8,4.9-0.8,5.2l0.5,12c0,0.7-0.1,1.7-0.2,2.6c-0.3,1.6-0.3,2.7-0.3,3.6c0,0.9,0,2.5,0.3,4.3
		c0.7,3.2,0.9,5.4,1,6l-1,16.6c0,1.8,0.8,4.9,1.2,6.2c0.9,4.1,1.5,8.3,1.5,11.7C584.2,180,579.8,184,574.7,184z"/>
	<path class="st0" d="M574.7,188.5c-7.6,0-16.7-6.2-16.7-13.8c0-2.7,0.7-6.6,1.3-9.3c0.8-3.7,1.6-7.9,1.6-8.9c0-1.3-0.3-3.9-0.8-8.2
		c-0.3-2-0.5-4-0.5-5.9c0-2.1,0.2-4.5,0.4-7.1l0.1-1.5c0-0.1,0-0.2,0-0.3c0.7-4.4,0.8-6.3,0.8-7.1c0-0.4-0.2-3.2-1.1-16.8
		c-0.2-2.9-0.3-5.3-0.4-6.8l0-0.6c0-0.5-0.1-0.8-0.1-0.9c0,0,0-0.1,0-0.1c0-1,0.1-2.5,0.2-4.6l0-0.4c0.1-1.2,0.2-2.5,0.3-3.9
		c0-0.1,0-0.3,0-0.4c0.5-3,0.7-6.4,0.8-7.1l0,0c-0.3-3.3-0.3-5.8-0.3-7.4c-0.1-0.8-0.2-1.8-0.3-3l0-0.5c-0.2-2.1-0.4-4.6-0.7-7.4
		c-0.8-4.6-0.8-6.4-0.8-9.4c0-1.8-0.2-6-2.2-6.7c-0.1,0-0.1,0-0.2,0c-0.6,0-1.7,0.9-2.5,1.6c-2.1,2.2-3.9,3.7-5.6,4.7l-0.1,0.1
		c-9.6,6.7-12.7,10.1-20.2,20c-5,6.4-8.9,8.8-14.2,8.8c-6,0-8.2-1.7-15-11.3c0,0,0-0.1-0.1-0.1c-1.5-2.2-2.8-4-3.8-5l-3-2.8
		c-0.1-0.1-0.3-0.3-0.4-0.4c-0.6-0.8-2.2-2.8-4.2-5.8c-2-2.9-2-2.9-6.7-6.7c0,0-0.1-0.1-0.1-0.1c-1.5-1.3-3.9-3.5-7-6.5
		c-1.2-1.1-2.5-2.1-3.2-2.1c-1,0-2.6,2.4-2.6,3.9c0,0.8,0,1.8,0.2,2.8c0.5,2.1,1.5,9,1.6,10.4c0,0.2,0,0.5,0,0.7
		c-0.1,1.7-0.3,3.4-0.5,5.2c-0.2,2.3-0.4,4.6-0.6,7c0,0.1,0,0.2,0,0.3c-0.5,3.9-0.5,3.9-0.8,6.8l0,0.1c0,0.8,0.1,1.4,0.2,2
		c0,0.1,0,0.2,0.1,0.4l0.8,5.2c0,0.1,0,0.3,0,0.4c0.2,2.9,0.4,5.1,0.6,6.6l0.1,0.4c0.1,0.6,0.1,1,0.1,1.3l0,0c0.4,2.4,0.6,4,0.7,4.8
		c0,0.3,0,0.7,0,1l-1.5,15.1c0,1,0.1,2.2,0.2,3.4c0.3,1.8,0.3,2.9,0.3,4.1c0,1.5-0.9,12-1.3,16l0,0.1c0,1.7,0.3,7,0.8,15.6
		c0,0.1,0,0.1,0,0.2c0,0.3,0.2,1.2,0.5,2.3c0.3,1.5,0.8,3.9,1.6,7.8c0.6,2.7,0.8,4.4,0.8,5.7c0,4.2-2.6,9.2-5.7,11
		c-0.1,0-0.1,0.1-0.2,0.1c-2.2,1.1-8.7,2.5-12.2,2.5c-6.4,0-12.2-6.2-12.2-13c0-2.6,0.4-5.4,1.1-8.4c0.7-4,1.1-7.5,1.1-10.9
		c0-0.9-0.1-3-0.3-4.9l-0.3-4.1c-0.2-1-0.3-2-0.3-2.9c0-0.1,0-0.2,0-0.3l0.3-5.7c0.4-6.6,0.5-10,0.7-11.5c-0.1-2.3-0.2-4.6-0.3-7.1
		l0-0.2c-0.1-2.1-0.1-4.7-0.3-7.3c0-0.1,0-0.1,0-0.2c0-2-0.2-5.8-0.5-10.5l0-0.2c-0.2-3-0.4-6.6-0.6-10.6c0-0.1,0-0.2,0-0.2
		c0-1.2,0.3-4.1,1.1-7.6c0.7-4.8,0.8-7.4,0.8-8.8c0-1.2-0.1-2.7-0.3-4.5l-0.2-2.3c-0.5-4.7-0.8-13.7-0.8-24.2c0-0.1,0-0.1,0-0.2
		l0.3-7.6c-0.5-11.6-0.5-11.7-1.7-14.3c-0.1-0.2-0.1-0.3-0.2-0.5c-0.5-1.6-0.7-2.8-0.8-3.5c0-0.1,0-0.2,0-0.3c0-5.7,9.2-15,14-15.4
		c0.1,0,0.2,0,0.4,0c3.2,0,5,0.9,10.8,5.6c1,0.8,2,1.5,2.9,2.1c0.1,0.1,0.3,0.2,0.4,0.3l5.4,3.8c0.2,0.1,0.4,0.2,0.6,0.4
		c1.3,0.9,4.8,3.9,8.2,7.4c0,0,0.1,0.1,0.1,0.1c2.4,2.7,4.3,4.6,5.6,5.9c0.4,0.4,0.9,0.9,1.1,1.1l0,0c0.9,0.8,1.6,1.5,2.5,2.3
		l0.2,0.2c0.5,0.5,1.1,1,1.9,1.8c0.1,0.1,0.3,0.2,0.4,0.4l6.1,7.2l4.8,5c0.1,0.1,0.1,0.1,0.1,0.2l5.1,5.8c0.5,0.5,2,1.2,2.7,1.3
		c2-0.1,5.5-2.7,10.6-8c0.1-0.1,0.2-0.2,0.3-0.3c0.4-0.3,0.7-0.6,1-0.9c1.1-1,1.8-1.6,2.6-2.1c0.8-0.6,1.7-1.3,2.6-1.9l0.2-0.1
		c1.3-1,2.7-2,4.1-3.1c0.1-0.1,0.1-0.1,0.2-0.2c3-2.2,10.6-9.2,13.1-12.6c0.1-0.1,0.1-0.2,0.2-0.2c0.9-1.1,1.7-2,2.3-2.7l0.7-0.8
		c0.3-0.4,0.6-0.7,1-0.9l5-3.2c0.1,0,0.1-0.1,0.2-0.1c1-0.6,2.8-2.8,4.2-5.2c3.6-6.2,5.6-8.3,10-8.3c4.7,0,8.9,1.6,11.9,4.6
		c3,3,4.6,7.1,4.3,11.6c0,2.2-0.6,5-1.6,8.3c-0.8,3.1-1,5.6-1,6.6l0,0.1c0.3,3,0.3,3.2,0.5,10.9c0.3,4.3,0.6,7.9,0.8,11.7
		c0,0.2,0,0.4,0,0.5c-0.3,4.6-0.5,8.5-0.7,11.7l-0.1,1.5c-0.3,4.8-0.5,8.2-0.5,9.3c0,0.4,0.1,1.2,0.2,2.1c0.1,0.6,0.2,1.3,0.3,2.2
		c0.5,4.9,1.3,15.5,1.3,18.9c0,1.9-0.2,3.7-0.4,5.9l-0.1,1.3c0,0.1,0,0.3-0.1,0.4c-0.6,3.1-0.7,4.1-0.7,4.3l0.5,11.9
		c0,0.1,0,0.1,0,0.2c0,1-0.1,2.2-0.3,3.3c0,0,0,0.1,0,0.1c-0.2,1.2-0.2,1.9-0.2,2.7c0,0.8,0,2.1,0.2,3.4c0.8,3.9,1,6.2,1,6.4
		c0,0.2,0,0.5,0,0.7l-1,16.5c0,0.7,0.3,2.5,1,4.8c0,0.1,0,0.2,0.1,0.3c1,4.5,1.6,9,1.6,12.7C588.8,182.6,582.3,188.5,574.7,188.5z
		 M569.2,134.6l-0.1,1.4c-0.2,2.5-0.4,4.6-0.4,6.4c0,1.4,0.2,2.9,0.5,4.7c0,0,0,0.1,0,0.2c0.6,4.9,0.9,7.4,0.9,9.3
		c0,2.7-1.5,9.5-1.8,10.9c-1.1,4.8-1.1,6.9-1.1,7.4c0,1.3,3.7,4.7,7.6,4.7c2.8,0,5-2.1,5-3.9c0-3-0.5-6.9-1.3-10.6
		c-0.6-2.2-1.3-5.2-1.3-7.3c0-0.1,0-0.2,0-0.3l1-16.3c-0.1-0.8-0.4-2.6-0.9-5.2c-0.4-2.2-0.4-4.2-0.4-5.2c0-1,0-2.4,0.4-4.4
		c0.1-0.6,0.1-1.2,0.2-1.8l-0.5-11.9c0-0.1,0-0.1,0-0.2c0-0.7,0.1-1.6,0.9-5.9l0.1-1c0.2-2,0.4-3.6,0.4-5.1c0-2.8-0.7-12.9-1.3-17.9
		c-0.1-0.7-0.2-1.4-0.3-2c-0.2-1.3-0.3-2.3-0.3-3.4c0-1.2,0.2-3.9,0.5-9.8l0.1-1.5c0.2-3.1,0.4-6.9,0.7-11.4
		c-0.2-3.7-0.5-7.2-0.8-11.5c0-0.1,0-0.1,0-0.2c-0.3-7.8-0.3-7.8-0.5-10.6c0-0.1,0-0.1,0-0.2l0-0.3c0-0.1,0-0.1,0-0.2
		c0-1.9,0.4-5.3,1.4-9.1c0-0.1,0-0.2,0.1-0.2c1-3.1,1.2-4.9,1.2-5.8c0-0.1,0-0.2,0-0.3c0.1-1.9-0.5-3.5-1.7-4.7
		c-1.2-1.2-3-1.9-5.1-2c-0.4,0.5-1.1,1.5-2.5,3.8c-1.3,2.3-4.1,6.5-7.4,8.5l-4.3,2.8l-0.2,0.3c-0.6,0.7-1.3,1.6-2.2,2.7
		c-3.2,4.3-11.3,11.8-14.9,14.4c-1.5,1.2-3,2.3-4.3,3.3l-0.2,0.1c-0.8,0.6-1.6,1.2-2.4,1.8l-0.3,0.2c-0.2,0.2-0.5,0.3-0.7,0.4
		l-0.1,0c-0.3,0.2-0.8,0.7-1,0.9c-0.3,0.3-0.6,0.6-1,0.9c-6.3,6.6-11.4,10.7-17.1,10.7c-2.8,0-7.2-1.9-9.3-4.2
		c0-0.1-0.1-0.1-0.1-0.2l-5.1-5.9l-4.8-5.1c-0.1-0.1-0.1-0.1-0.2-0.2l-6-7.1c-0.7-0.6-1.2-1.2-1.7-1.6l-0.2-0.2
		c-0.8-0.8-1.4-1.3-2.3-2.1l-0.2-0.1c-0.1-0.1-0.2-0.1-0.2-0.2c0,0-0.7-0.7-1.1-1.1c0,0-0.1-0.1-0.1-0.1c-1.3-1.3-3.4-3.4-5.9-6.3
		c-2.7-2.8-5.4-5.1-6.4-6c-0.2-0.1-0.3-0.2-0.5-0.3l-5.6-3.9c-1.5-0.9-2.8-1.9-4-2.8c-2.8-2.3-4.1-3.2-4.7-3.5
		c-1.8,1.1-4.9,4.5-5.6,6.2c0,0.2,0.1,0.5,0.2,0.8c1.7,4.1,1.8,5.5,2.3,17.3l0,0.2c0,0.1,0,0.2,0,0.3l-0.3,7.7
		c0,9.9,0.3,18.8,0.8,23.2l0.2,2.4c0.2,2,0.3,3.7,0.3,5.3c0,2.4-0.3,5.8-0.9,10.2c0,0.1,0,0.2-0.1,0.3c-0.6,3-0.9,5.3-0.9,5.9
		c0.2,4,0.4,7.4,0.6,10.4l0,0.2c0.3,4.8,0.5,8.6,0.5,10.9c0.1,2.7,0.2,5.3,0.3,7.4l0,0.2c0.1,2.4,0.1,4.7,0.3,6.9l0,0.3
		c0,0.3,0,0.6,0,0.9l0,0.3c-0.2,1.2-0.4,5.5-0.7,10.9l-0.3,5.5c0,0.4,0,0.8,0.1,1.2l0,0.2c0,0.2,0.1,0.4,0.1,0.6l0.3,4.3
		c0.2,2.7,0.3,4.4,0.3,5.5c0,4-0.4,8.1-1.2,12.7c0,0.1,0,0.2-0.1,0.2c-0.6,2.3-0.8,4.5-0.8,6.4c0,2,2,3.9,3.1,3.9
		c2.2,0,6.3-0.9,7.8-1.4c0.5-0.6,1.2-2.1,1.2-3.1c0-0.9-0.4-2.6-0.6-3.9c-0.8-3.9-1.3-6.3-1.6-7.8c-0.5-2.5-0.7-3.2-0.7-4
		c-0.7-12-0.8-14.9-0.8-16.1c0-0.1,0-0.1,0-0.2l0-0.3c0-0.1,0-0.1,0-0.2c0.7-8,1.3-14.5,1.3-15.4c0-0.9,0-1.5-0.2-2.6
		c0,0,0-0.1,0-0.1c-0.2-1.6-0.3-3.3-0.3-4.7v-0.2c0-0.2,0-0.3,0-0.5l1.5-14.8c-0.1-0.7-0.3-2.1-0.6-3.9c0-0.1,0-0.1,0-0.2l0-0.3
		c0-0.1,0-0.3,0-0.4l0-0.2c0-0.1,0-0.3-0.1-0.6l-0.1-0.5c-0.2-1.4-0.5-3.8-0.6-6.9l-0.7-4.9c-0.3-1.2-0.4-2.6-0.4-3.9
		c0-0.1,0-0.1,0-0.2l0-0.3c0-0.1,0-0.1,0-0.2c0.3-3.1,0.3-3.2,0.8-7.1c0.2-2.5,0.4-4.8,0.6-7.1c0.2-1.6,0.3-3.1,0.4-4.6
		c-0.2-2-1-7.6-1.3-8.6c0,0,0-0.1,0-0.1c-0.5-2-0.5-3.8-0.5-4.9c0-5.4,4.5-13,11.7-13c4.2,0,7,2.5,9.3,4.5c0.1,0,0.1,0.1,0.2,0.1
		c3,2.9,5.3,5,6.7,6.2c5,4.1,5.6,4.6,8.5,8.6c1.7,2.5,3,4.2,3.6,4.9l2.8,2.7c0.1,0,0.1,0.1,0.1,0.1c1.6,1.7,3.5,4.3,4.8,6.3
		c2,2.8,4.4,6.1,5.8,7.2c0.3,0.2,0.3,0.2,1.7,0.2c1.3,0,2.8,0,6.9-5.2c7.9-10.5,11.8-14.7,22.2-22c0,0,0.1-0.1,0.1-0.1l0.2-0.2
		c0.1,0,0.1-0.1,0.2-0.1c1-0.6,2.3-1.7,3.8-3.3l0.1-0.1c0.1-0.1,0.2-0.2,0.4-0.4l0.2-0.1c1.7-1.4,4.4-3.7,8.4-3.7
		c1.1,0,2.2,0.2,3.2,0.5c3.8,1.3,8.3,5,8.3,15.3c0,2.8,0,4,0.7,7.9c0,0.1,0,0.2,0,0.3c0.3,3,0.6,5.6,0.8,7.7l0,0.5
		c0.1,1.1,0.2,2.1,0.3,2.9l0,0.2c0,0.2,0,0.3,0,0.5v0.2c0,1.5,0,3.8,0.2,6.8c0,0.1,0,0.1,0,0.2l0,0.3c0,0.1,0,0.1,0,0.2
		c0,0.8-0.3,4.8-0.8,8.3c-0.1,1.4-0.2,2.7-0.2,3.8l0,0.4c-0.1,1.8-0.2,3.2-0.2,3.9c0,0.1,0,0.3,0,0.5l0,0.5c0.1,1.6,0.3,4,0.4,6.9
		c1.1,16.8,1.1,16.8,1.1,17.3C570,128.1,569.7,130.8,569.2,134.6z"/>
	<path class="st0" d="M949,183.4c-5.7,0-12.4-5.3-12.4-9.8c0-0.3,0.2-1.6,1.2-7.2c0.6-2.5,1.4-10.6,1.4-12.7c0-0.9,0-2.2-0.3-4.2
		c-0.5-4.5-0.7-8.1-0.7-9.9c0-0.4,0.1-2,0.3-4.8c0.2-3.3,0.6-8.3,1-14.9c0-1.1,0-2.8-0.3-4.5c-0.4-2.3-0.7-3.9-0.7-4.4l0.5-11.7
		c0-0.5-0.1-1.2-0.2-2.2c-0.1-0.8-0.2-1.9-0.4-3.2l-0.2-1.3c-0.1-1-0.3-2.4-0.3-2.8c0-2.3,0.6-6.6,1.3-12l0.2-1.6
		c0.2-2.2,0.4-4,0.4-5.8c0-1.1,0-3.2-0.3-5.9c-0.5-3.6-0.8-14.3-0.8-22.6l0.5-7.8c0-4.4-2.2-8.7-5.4-10.8l-0.3-0.2
		c-1.8-0.9-5.1-1.9-16.8-1.9c-2.8,0-5.4,0.3-9.2,1.6c-2.3,0.6-3.6,0.7-4.1,0.7c-2.8,0-7.7-5.5-7.7-10.9c0-3.4,4.7-7.9,8.3-7.9
		c0.1,0,0.2,0,0.3,0c8,0.6,8,0.6,15.4,1.1l2.5,0.2c2.1,0.2,3.5,0.3,4.7,0.3c1.1,0,8.2-0.6,14.6-1.4l10.2,1.1l6.9-0.3
		c0.3,0,0.9,0.1,1.7,0.2c0.6,0.1,1.3,0.2,2.1,0.3c1.4,0.3,2.5,0.3,3.1,0.3c0.6,0,1.5,0,2.7-0.3c1.7-0.2,2.9-0.3,3.7-0.4l0.4-0.1
		l12.1,0.5c1.2,0,2.4-0.3,7-1.5l0.6-0.1c1-0.2,1.9-0.3,2.4-0.3c3.4,0,8.5,5.3,8.5,10.1c0,5.2-4.6,9.5-10.1,9.5c-0.7,0-0.7,0-7.5-2
		l-0.3-0.1c-1.7-0.3-1.8-0.4-8.4-0.6c-2.6,0-2.6,0-10.1-0.8l-0.2,0h-0.2c-5.2,0-11.4,4.4-11.4,9.8c0,0.9,0,2,0.3,3.7
		c0.2,1,0.5,2.4,0.5,2.9c0,1.5-0.3,3.5-0.7,5.6c-0.8,2.6-1.1,4.7-1.1,6.3c0,0.9,0.1,2.6,1.4,7.5c0.4,1.4,0.6,2.3,0.7,2.8l-1,12.9
		c-0.5,6,0.2,19.9,1.4,25.1c0.1,0.7,0.3,1.3,0.4,1.7l-1.3,9.4l0.8,8.2c0,0.6-0.2,1.3-0.6,2.7c-0.2,0.7-0.3,1-0.4,1.3
		c-0.2,0.5-0.3,1-0.3,1.7v0.3l1.3,8.4c-0.1,0.3-0.2,0.8-0.4,1.3c-1.1,2.3-1.1,3.3-1.1,3.6l0,0.3l1,13.1c0,0.4-0.3,2.3-1,5.2
		c-0.4,1.5-0.4,2.7-0.4,3.6c0,2.3,1,6.7,2.3,10.3c1.8,4.4,1.9,5.7,1.9,6C958.5,178.5,953.4,183.4,949,183.4z"/>
	<path class="st0" d="M949,188c-7.5,0-17-6.8-17-14.4c0-0.1,0-0.1,0-0.2c0-0.4,0.1-1.3,1.3-7.9c0-0.1,0-0.2,0.1-0.2
		c0.5-2,1.3-9.7,1.3-11.6c0-0.8,0-1.9-0.3-3.4c0-0.1,0-0.2,0-0.2c-0.4-3.4-0.8-7.9-0.8-10.4c0-0.6,0.1-1.6,0.3-4.6l0.1-1.2
		c0.2-3.3,0.6-8,0.9-14c0-0.9,0-2.2-0.2-3.5c-0.5-2.4-0.7-4.1-0.8-4.7c0-0.2,0-0.5,0-0.7l0.5-11.6c0-0.4-0.1-1.3-0.2-1.6
		c-0.1-0.9-0.2-2-0.4-3.3l-0.2-1.4c-0.2-1.8-0.4-2.6-0.4-3.2c0-2.6,0.5-6.8,1.3-12.5l0.2-1.6c0.2-1.9,0.4-3.8,0.4-5.3
		c0-1,0-3-0.3-5.4c-0.5-4-0.8-14.8-0.8-23.1c0-0.1,0-0.2,0-0.3l0.5-7.6c0-2.7-1.4-5.5-3.3-6.8l-0.1-0.1c-1.2-0.6-4.8-1.3-14.6-1.3
		c-2.4,0-4.5,0.2-7.7,1.3c-0.1,0-0.2,0.1-0.3,0.1c-2.6,0.7-4.3,0.8-5.2,0.8c-5.8,0-12.2-8.1-12.2-15.5c0-5.9,6.7-12.5,12.8-12.5
		c0.2,0,0.5,0,0.7,0c8,0.6,8,0.6,15.4,1.1l2.6,0.2c1.9,0.2,3.4,0.3,4.3,0.3c0.9,0,7.7-0.5,14-1.3c0.3,0,0.7,0,1,0l9.8,1.1l6.6-0.3
		c0.1,0,0.2,0,0.2,0c0.5,0,1.1,0.1,1.7,0.2l0.5,0.1c0.6,0.1,1.3,0.2,2.1,0.3c0.2,0,0.3,0,0.5,0.1c0.9,0.2,1.6,0.2,2.1,0.2
		c0.4,0,0.9,0,1.4-0.2c0.3-0.1,0.5-0.1,0.8-0.1c1.6-0.2,2.8-0.3,3.5-0.4l0.4-0.1c0.3,0,0.5,0,0.8,0l12,0.5c0.6,0,2-0.4,5.7-1.3
		c0.1,0,0.3-0.1,0.4-0.1l0.6-0.1c1.4-0.3,2.3-0.4,3.2-0.4c6.2,0,13,7.7,13,14.6c0,7.6-6.7,14.1-14.6,14.1c-1.4,0-1.5,0-8.8-2.2
		l-0.2,0c-1.2-0.3-1.4-0.3-7.4-0.5c-2.7,0-3,0-10.4-0.8c-2.9,0-6.8,2.7-6.8,5.3c0,0.8,0,1.6,0.2,2.8c0.4,2,0.5,3,0.5,3.8
		c0,2.2-0.4,4.8-0.8,6.6c0,0.1-0.1,0.2-0.1,0.3c-0.8,2.7-1,4.2-1,5c0,0.5,0.2,2.1,1.3,6.4c0.3,1.2,0.6,2.4,0.7,3.2
		c0.1,0.4,0.1,0.8,0.1,1.1l-1,12.9c-0.5,5.6,0.2,18.9,1.3,23.7c0,0,0,0.1,0,0.1c0.1,0.6,0.2,1.1,0.3,1.4c0.1,0.6,0.2,1.2,0.1,1.8
		l-1.2,8.8l0.8,7.7c0,0.2,0,0.4,0,0.6c0,1.2-0.3,2.3-0.8,3.7c-0.2,0.7-0.3,1.1-0.4,1.4c0,0.1-0.1,0.3-0.1,0.4l1.2,8
		c0.1,0.7,0.1,1.3-0.1,2c-0.1,0.4-0.3,1-0.5,1.6c0,0.1-0.1,0.2-0.1,0.3c-0.5,1-0.6,1.5-0.6,1.7l1,13c0,0.2,0,0.5,0,0.7
		c0,0.2-0.2,2.2-1.1,5.9c-0.2,1-0.2,1.7-0.2,2.5c0,1.5,0.8,5.3,2,8.7c1.9,4.9,2.2,6.6,2.2,7.6C963.1,181,955.9,188,949,188z
		 M941.1,173.7c0.2,1.4,4.2,5.1,7.9,5.1c2,0,4.7-2.8,5-4.5c-0.1-0.4-0.4-1.7-1.6-4.5c0,0,0-0.1,0-0.1c-1.3-3.5-2.6-8.6-2.6-11.9
		c0-1,0-2.6,0.5-4.6c0.5-2.2,0.7-3.6,0.8-4.2l-1-12.6c0-0.1,0-0.1,0-0.2l0-0.3c0-0.1,0-0.1,0-0.2c0-1,0.1-2.6,1.4-5.3l-1.1-7.3
		c0-0.2,0-0.4,0-0.7v-0.3c0-1.4,0.3-2.5,0.5-3.1c0.1-0.3,0.2-0.5,0.3-1c0-0.1,0.1-0.2,0.1-0.3c0.2-0.7,0.3-1.1,0.4-1.3l-0.8-7.7
		c0-0.4,0-0.7,0-1.1l1.2-8.5c-0.1-0.3-0.1-0.6-0.2-1c-1.3-5.7-2.1-20-1.5-26.5l1-12.2c-0.1-0.4-0.2-1.1-0.5-1.9
		c-1.4-5.4-1.6-7.4-1.6-8.7c0-2,0.4-4.4,1.3-7.4c0.4-1.7,0.6-3.3,0.6-4.4c-0.1-0.5-0.3-1.7-0.4-2.2c-0.4-2.1-0.4-3.6-0.4-4.6
		c0-8.2,8.4-14.4,15.9-14.4h0.2c0.2,0,0.3,0,0.5,0l0.2,0c7.2,0.8,7.2,0.8,9.6,0.8c0.1,0,0.1,0,0.2,0c6.8,0.3,7.1,0.3,9.1,0.7
		c0.1,0,0.1,0,0.2,0l0.3,0.1c0.1,0,0.1,0,0.2,0c3.1,0.9,5.6,1.7,6.3,1.8c2.9-0.1,5.4-2.4,5.4-5c0-2.2-2.7-5.2-4-5.5
		c-0.3,0-1.1,0.2-1.6,0.3l-0.4,0.1c-4.7,1.2-6.1,1.6-7.9,1.6c-0.1,0-0.1,0-0.2,0l-11.7-0.5c-0.7,0.1-1.9,0.2-3.5,0.4
		c-1.6,0.4-2.9,0.4-3.5,0.4c-0.7,0-2.1,0-3.9-0.4c-0.8-0.1-1.4-0.2-2-0.3l-0.6-0.1c-0.2,0-0.4-0.1-0.5-0.1l-6.7,0.3
		c-0.2,0-0.5,0-0.7,0l-9.6-1c-6,0.7-13.2,1.3-14.6,1.3c-1.3,0-2.9-0.1-5-0.3l-2.6-0.2c-7.3-0.5-7.3-0.5-15.3-1.1c0,0,0,0,0,0
		c-1.1,0.1-3.5,2.3-3.7,3.4c0,2.6,2.3,5.5,3.5,6.3c0.4,0,1.2-0.1,2.4-0.4c4.5-1.5,7.7-1.7,10.4-1.7c11.9,0,16.1,0.9,18.9,2.4
		c0.1,0,0.1,0.1,0.2,0.1l0.3,0.2c0.1,0,0.1,0.1,0.2,0.1c4.5,3,7.5,8.7,7.5,14.6c0,0.1,0,0.2,0,0.3l-0.5,7.6c0,9.1,0.3,18.9,0.7,21.8
		c0,0,0,0.1,0,0.1c0.3,2.9,0.3,5.2,0.3,6.4c0,2-0.2,4-0.4,6.2l-0.2,1.6c0,0.1,0,0.1,0,0.2c-0.7,4.9-1.2,9.2-1.2,11.3
		c0,0.4,0.2,1.5,0.3,2l0.2,1.5c0,0.1,0,0.1,0,0.2c0.1,1.3,0.2,2.3,0.3,3.1c0.1,1.2,0.2,2.1,0.2,2.9c0,0.1,0,0.1,0,0.2l-0.5,11.3
		c0.1,0.6,0.3,1.9,0.6,3.7c0.4,2.2,0.4,4.3,0.4,5.4c0,0.1,0,0.2,0,0.3c-0.4,6.2-0.7,10.9-1,14.2l-0.1,1.3c-0.1,2-0.3,3.7-0.3,4
		c0,1.5,0.3,4.9,0.7,9.3c0.3,2.2,0.3,3.8,0.3,4.7c0,2.3-0.8,10.5-1.5,13.6C941.4,171.7,941.2,173.3,941.1,173.7z"/>
	<path class="st0" d="M866.4,183.7c-7.4,0-13.7-3.2-20.3-10.3c-1.8-1.9-5.8-5.2-12.4-10.4l-5.6-4.2c-1-0.9-2.1-1.8-2.9-2.8l-0.3-0.4
		l-0.4-0.3c-1.1-0.8-3.8-2.8-7.1-5.1l-0.3-0.2c-1.6-0.9-2.7-1.7-3.5-2.3c-0.1-0.1-0.3-0.2-0.4-0.3l-3.7-3.9
		c-0.5-0.5-0.9-0.8-6.5-4.5c-1.7-1-3.6-2.5-6-4.4c-2.8-2.6-4.6-3.8-5.7-4.3l0,0c-1.4-0.7-1.8-1-1.8-1c-0.5-0.6-1.5-1.4-3.3-1.4
		c-4.1,0-5.8,4.9-5.8,7.3c0,2.2,0.3,5.6,0.8,8.8c0.2,2.2,0.5,4.6,0.5,6.6c0,2.1,0,3.6-0.2,5.3c-0.2,1.4-0.5,2.4-0.5,2.4l-0.1,0.4
		v0.4c0,2.6,0.7,6.4,2,10.7c0.4,1.3,0.6,2.6,0.6,3.7c0,2.1-1.4,5.8-2.2,6.6c-1,1.2-4.5,2.6-8.7,2.6c-6,0-9.5-3-9.5-8.2
		c0-1.8,0.3-5.5,1-10.2l0.3-2.5c0.5-4.6,0.8-8.6,0.8-10c0-1.2,0-2.7-0.3-4.9l-0.2-2.7c-0.2-2-0.3-3.6-0.3-4.8c0-1.5,0.3-4.3,0.5-6.4
		c0.8-4.2,1.1-7.1,1.1-8c-0.8-12.2-1.3-29.2-1.3-34V75.5c0-0.3,0-0.5,0.1-0.9c0.2-2.4,0.6-4.3-1.4-17.6l-0.2-1.6
		c-0.2-1.2-0.3-2.3-0.3-2.9c0-4.3,4.7-8.2,10.1-8.2c5.3,0,10.3,5,10.3,10.4c0,1.1-0.9,7.2-1.8,15.3l0,0.2v0.2
		c0,0.8-0.7,7.5-1.1,13.3c0,1.4,0.2,2.8,0.4,4.4l0.1,1c0.3,2.2,0.7,3.6,0.9,4.5c0.1,0.3,0.1,0.5,0.2,0.7c0,3.4,0,5.7,3.6,7.6
		l2.8,1.4l2.1-2.2c0.2-0.2,0.3-0.4,0.8-0.6c1.2-0.6,2.8-2.4,4.9-5.4c3.4-5.6,6.3-9.5,15.2-19.4c0.6-0.8,1.4-1.8,2.2-3
		c1.3-1.9,1.9-3.2,2.9-4.2c1.7-1.6,1.9-1.6,3.7-3l0.4-0.3l-1.1,1.1c0.6-0.9,1.9-2.6,3.5-5.8c4.1-7.6,5-8.8,6.8-10.4l1.1-1
		c2.6-2.4,4.5-4.2,6.5-4.9l0,0c0,0,0.2-0.1,0.6-0.1c3.2,0,9.5,2.7,12.1,6.9c1.5,2.5,1.4,5.2-0.3,8.1c-0.8,1.3-2.1,2.1-3.8,3.2
		c-2.1,1.3-3.2,1.5-5,4.4c-0.5,0.8-0.7,1-0.7,1.1c-0.1,0-0.2,0.1-0.3,0.2c-1,0.6-2.6,1.7-6.2,5.7c-0.3,0.3-0.6,0.7-1.1,1.3
		c-1.4,1.7-3.9,4.8-8.1,8.5l-0.2,0.2c-0.5,0.6-1.1,1.5-3.4,5l-0.6,0.8c-1.1,1.5-1,1.6-2.8,3.2c-1.2,1.2-2.5,2.8-4.2,4.7l-1.7,2
		c-0.5,0.7-1,1.2-1.5,1.8c-1,1.1-2,2.3-2.8,3.5c-6.6,6.5-5.2,7.2-5.2,8.3c0,2.7,2.6,5.9,4.5,7.2c2.5,1.8,5.1,3.7,7,5.5
		c1.7,1.5,4.7,3.7,10.4,7.8l0.2,0.2l0.2,0.1c0.5,0.3,2.2,1.9,3.6,3.1c0.9,0.8,1.8,1.6,2.7,2.4c17.4,15.6,30.8,24.9,41,28.7
		c1.5,0.6,4.4,4.8,4.4,7.9C876.5,179.1,871.6,183.7,866.4,183.7z"/>
	<path class="st0" d="M866.4,188.3c-8.7,0-16.2-3.7-23.6-11.8c-1.5-1.6-5.5-4.9-11.8-9.8l-5.6-4.2c-0.1-0.1-0.1-0.1-0.2-0.2
		c-1.2-1-2.5-2.1-3.6-3.5c-1.1-0.9-3.7-2.8-6.7-4.8l-0.1-0.1c-1.8-1-3-1.9-3.8-2.5l-0.4-0.3c-0.2-0.2-0.4-0.3-0.6-0.5l-3.7-3.9
		c-0.5-0.4-3.8-2.6-5.6-3.7c-1.9-1.1-3.9-2.7-6.5-4.8c-0.1-0.1-0.1-0.1-0.2-0.2c-2.8-2.6-4.2-3.3-4.6-3.6c-0.1-0.1-0.3-0.1-0.4-0.2
		c-2-1-2.4-1.5-2.7-1.7c0,0,0,0,0,0c0,0,0,0-0.1,0c-0.5,0.2-1.3,1.8-1.3,2.8c0,2,0.3,5.1,0.8,8.1c0,0.1,0,0.2,0,0.2l0,0.2
		c0.2,2.2,0.5,4.7,0.5,6.9c0,2.2,0,3.9-0.3,5.9c0,0,0,0.1,0,0.1c-0.2,1.3-0.4,2.3-0.5,2.6c0,2.1,0.7,5.5,1.8,9.3
		c0.5,1.7,0.8,3.5,0.8,5c0,2.7-1.5,7.6-3.3,9.6c-2.2,2.5-7,4.2-12.1,4.2c-8.4,0-14.1-5.1-14.1-12.7c0-2,0.3-5.9,1.1-10.8l0.2-2.4
		c0.3-3.1,0.8-8.2,0.8-9.5c0-1.1,0-2.4-0.3-4.3c0-0.1,0-0.2,0-0.3l-0.2-2.7c-0.2-2.1-0.3-3.8-0.3-5.2c0-1.3,0.2-3.5,0.5-6.9
		c0-0.1,0-0.2,0.1-0.4c0.8-4,1-6.4,1-7c-0.8-12.3-1.3-29.3-1.3-34.1V75.5c0-0.3,0-0.7,0.1-1.1l0.1-0.7c0.2-1.9,0.4-4.2-1.4-16
		c0,0,0-0.1,0-0.1l-0.2-1.6c-0.2-1.4-0.3-2.6-0.3-3.4c0-6.9,6.7-12.7,14.6-12.7c7.8,0,14.9,7.1,14.9,14.9c0,0.8-0.2,2.1-0.6,5.5
		c-0.3,2.6-0.8,6.2-1.2,10.3c0,0,0,0.1,0,0.1c0,0.4-0.1,1.3-0.3,3.6c-0.2,2.7-0.5,6.3-0.8,9.8c0,1.1,0.2,2.3,0.4,3.7l0.1,1
		c0.3,2,0.6,3.1,0.8,4l0.1,0.3c0.1,0.4,0.2,0.7,0.2,1c0,0.2,0,0.4,0,0.6c0,2.7,0,2.9,0.9,3.4c0.4-0.4,0.9-0.8,1.7-1.2l0,0
		c0,0,1-0.6,3.1-3.8c3.4-5.6,6.4-9.7,15.6-19.9c0.5-0.7,1.3-1.7,1.9-2.7c0.4-0.6,0.8-1.2,1.1-1.7c0.7-1.1,1.4-2.2,2.5-3.3
		c1.2-1.2,1.8-1.6,2.7-2.2c0.1-0.1,0.3-0.2,0.5-0.4c0.5-0.8,1.4-2.2,2.5-4.3c0,0,0-0.1,0-0.1c4.2-7.8,5.4-9.5,7.7-11.6l1.1-1
		c2.9-2.7,5.2-4.8,8.1-5.9c0.1,0,0.1,0,0.2-0.1c0.6-0.2,1.2-0.3,2-0.3c4.4,0,12.3,3.1,15.9,9c1.7,2.8,3,7.3-0.4,12.8
		c-1.3,2.2-3.3,3.4-5.2,4.6c-0.5,0.3-1,0.6-1.4,0.8c-1.1,0.6-1.4,0.8-2.1,2.1c-0.7,1.1-1,1.6-1.3,1.9c-0.2,0.2-0.4,0.4-0.7,0.6
		c-0.1,0.1-0.2,0.1-0.3,0.2c-0.9,0.6-2.2,1.5-5.5,5c-0.2,0.2-0.5,0.6-0.9,1.1c-1.4,1.8-4.1,5.1-8.5,9l-0.1,0.1
		c-0.2,0.3-0.8,1.2-1.6,2.3l-1.3,2c-0.1,0.1-0.1,0.2-0.2,0.3l-0.6,0.8c-0.3,0.3-0.4,0.6-0.6,0.8c-0.6,0.9-1.1,1.5-2.5,2.8
		c-1,1.1-2.2,2.5-3.9,4.4l-1.6,1.9c-0.5,0.6-1,1.2-1.5,1.8c-0.9,1-1.8,2.2-2.5,3.1c-0.2,0.2-0.4,0.5-0.6,0.7
		c-2.6,2.5-3.5,3.8-3.9,4.4c0,0.2,0,0.4,0,0.7c0,0.7,1.3,2.6,2.5,3.4c0.1,0,0.1,0.1,0.2,0.1c2.4,1.8,5.2,3.8,7.3,5.7
		c1.6,1.3,4.5,3.5,10,7.4c0.1,0.1,0.2,0.1,0.3,0.2c0.6,0.4,1.6,1.2,4.2,3.5c0.9,0.8,1.8,1.6,2.8,2.4c17,15.2,30,24.3,39.5,27.8
		c0,0,0.1,0,0.1,0.1c3.6,1.4,7.2,7.5,7.2,12.1C881,182,873.8,188.3,866.4,188.3z M830.9,155.2l5.5,4.1c0,0,0.1,0,0.1,0.1
		c6.8,5.4,10.9,8.8,12.8,10.8c5.8,6.3,10.9,8.9,17,8.9c2.8,0,5.4-2.6,5.5-3.6c0-0.8-1.1-2.9-1.9-3.7c-10.6-4-24.3-13.6-41.9-29.3
		c-0.9-0.8-1.9-1.6-2.7-2.4c-0.9-0.8-2.4-2.2-3-2.7c-0.2-0.1-0.3-0.2-0.4-0.3l-0.2-0.2c-6-4.3-8.9-6.4-10.8-8c0,0-0.1,0-0.1-0.1
		c-1.8-1.6-4.3-3.5-6.5-5.1c-2.6-1.8-6.3-5.9-6.5-10.6c-0.6-3.4,1-6.3,6.3-11.5c0.9-1.3,1.9-2.5,2.8-3.5c0.5-0.6,0.9-1.1,1.4-1.7
		c0,0,0.1-0.1,0.1-0.1l1.7-2c1.8-2.1,3.1-3.6,4.3-4.9c0.1-0.1,0.1-0.1,0.2-0.2c0.9-0.9,1.1-1,1.4-1.6c0.2-0.3,0.5-0.7,0.8-1.1
		l0.5-0.7l1.2-1.8c1.4-2.1,1.9-2.9,2.6-3.6c0,0,0.1-0.1,0.1-0.1l0.2-0.2c0,0,0.1-0.1,0.1-0.1c3.9-3.5,6.3-6.4,7.6-8
		c0.5-0.7,1-1.2,1.2-1.5c3.3-3.6,5.1-5.1,6.5-6.1c0,0,0-0.1,0.1-0.1c1.8-3.1,3.5-4.2,5.4-5.3c0.3-0.2,0.6-0.4,1-0.6
		c1-0.6,2.1-1.3,2.3-1.7c1.2-1.9,0.7-2.7,0.3-3.3c-1.6-2.5-5.8-4.4-7.8-4.7c-1.1,0.6-2.6,2-4.4,3.7l-1.1,1c-1.2,1.1-1.8,1.7-5.9,9.2
		c-0.7,1.3-1.3,2.5-2,3.7c-0.2,0.8-0.6,1.6-1.3,2.3l-1.1,1.1c-0.5,0.4-1,0.8-1.5,1c-0.4,0.3-0.8,0.6-1.6,1.3
		c-0.2,0.2-0.6,0.8-0.9,1.3c-0.4,0.6-0.8,1.3-1.3,2.1c-1,1.4-1.7,2.4-2.4,3.3c-0.1,0.1-0.1,0.1-0.2,0.2
		c-8.8,9.8-11.6,13.5-14.7,18.7c0,0.1-0.1,0.1-0.1,0.2c-2.5,3.6-4.4,5.7-6.3,6.8l-1.9,2c-1.4,1.5-3.6,1.8-5.4,0.9l-2.8-1.4
		c-5.8-3-6.1-7.6-6.1-11.1l0-0.2c-0.2-0.9-0.6-2.4-0.9-4.8l-0.1-1c-0.2-1.6-0.5-3.4-0.5-5.1c0-0.1,0-0.2,0-0.3
		c0.2-3.6,0.6-7.5,0.8-10.1c0.1-1.5,0.2-2.6,0.2-3v-0.1c0-0.2,0-0.3,0-0.5l0-0.2c0.5-4.2,0.9-7.9,1.3-10.6c0.3-1.9,0.5-3.9,0.5-4.4
		c0-2.7-3-5.7-5.8-5.7c-3.2,0-5.5,2.1-5.5,3.6c0,0.3,0.2,1.5,0.3,2.3l0.2,1.5c2,12.8,1.7,15.6,1.5,18.1l-0.1,0.7c0,0.1,0,0.3,0,0.4
		v15.8c0,4.8,0.5,21.6,1.3,33.7c0,0.1,0,0.2,0,0.3c0,1.3-0.4,4.5-1.1,8.6c-0.3,2.9-0.5,4.8-0.5,5.7c0,1.1,0.1,2.6,0.3,4.5l0.2,2.6
		c0.3,2.4,0.3,4.2,0.3,5.4c0,1.5-0.3,4.7-0.9,10.4l-0.3,2.5c0,0.1,0,0.2,0,0.3c-0.8,4.7-1,8.2-1,9.5c0,1.1,0,3.6,5,3.6
		c2.6,0,4.6-0.7,5.2-1.1c0.4-0.9,1.1-2.8,1.1-3.6c0-0.5-0.1-1.3-0.4-2.3c-1-3.4-2.2-8.2-2.2-12.1v-0.4c0-0.3,0-0.7,0.1-1l0.1-0.4
		c0,0,0.2-0.9,0.4-2.1c0.2-1.4,0.2-2.7,0.2-4.7c0-1.7-0.2-4-0.4-6l0-0.1c-0.5-3.5-0.9-7-0.9-9.4c0-5,3.6-11.9,10.4-11.9
		c2.4,0,4.6,0.8,6.2,2.4c0.2,0.1,0.5,0.3,1,0.6c0,0,0.1,0,0.1,0c1.8,0.9,3.8,2.4,6.5,4.8c2.2,1.8,4,3.1,5.4,4c0,0,0.1,0.1,0.1,0.1
		c5.9,3.8,6.5,4.2,7.3,5.1l3.6,3.7c0.7,0.5,1.6,1.2,3,2c0.1,0,0.1,0.1,0.2,0.1l0.3,0.2c0.1,0,0.1,0.1,0.2,0.1
		c3.4,2.4,6.1,4.3,7.3,5.3l0.4,0.3c0.3,0.2,0.6,0.5,0.8,0.8l0.3,0.4C829.2,153.8,830.1,154.5,830.9,155.2z"/>
	<path class="st0" d="M774.7,29.7L774.7,29.7c-2.9,0-3.9-0.4-6.3-1.4c-1.1-0.5-2.5-1.1-4.7-1.9c-0.1,0-0.2-0.1-0.2-0.1
		c-5.4-2.2-8-6.4-8-12.9c0-10.8,12.4-10.8,16.4-10.8c2.4,0,12,0.3,17.3,0.6c4.9,0.3,5.4,0.3,15.1,0.3c2,0,4.8,0.1,8.2,0.3l5.3,0.2
		c2.1,0,23.5-0.3,28.8-0.8c2.5-0.3,4.9-0.3,6.9-0.3c11,0,16.6,4.6,16.6,13.5c0,4.4-2.3,8.5-5.8,10.2c0,0-0.1,0-0.1,0.1
		c-1.3,0.6-3.5,1.2-13.2,1.2l-2.9,0c-0.2,0-23.6-0.3-29.7-1.1c-1.8-0.2-4.4-0.3-7.9-0.3c-2.6,0-5.4,0.1-7.4,0.1l-0.3,0
		c-1.2,0-2.2,0-2.8,0c-3.5,0-7.6,0.3-11.6,0.5c-2.5,0.3-5.6,1-8.3,1.6c-2.9,0.6-4.2,0.9-5,1C775,29.7,774.9,29.7,774.7,29.7z
		 M766.8,17.8c2.5,0.9,4.2,1.7,5.4,2.2c1.2,0.6,1.3,0.6,2.2,0.6c0.8-0.1,2.9-0.6,3.8-0.8c3-0.6,6.4-1.4,9.3-1.7c0.1,0,0.2,0,0.3,0
		c4.2-0.3,8.5-0.5,12.3-0.5c0.6,0,1.5,0,2.6,0l0.3,0c2,0,4.8-0.1,7.6-0.1c4,0,6.9,0.1,9,0.4c0,0,0.1,0,0.1,0c4.9,0.7,26,1,28.5,1
		l2.9,0c6.5,0,8.7-0.3,9.4-0.4c0.2-0.2,0.6-0.9,0.6-1.9c0-2.4,0-4.4-7.5-4.4c-1.7,0-3.9,0-5.9,0.2c-6.3,0.6-29.6,0.9-29.8,0.9
		c-0.1,0-0.1,0-5.7-0.3c-3.4-0.2-6-0.3-7.8-0.3c-9.9,0-10.5,0-15.6-0.3c-5.2-0.3-14.5-0.5-16.8-0.5c-5.2,0-6.9,0.8-7.3,1.1
		c0,0.2,0,0.4,0,0.5C764.5,16.6,765.4,17.2,766.8,17.8z"/>
	<path class="st0" d="M248.6,183.4c-0.7,0-4.3-0.3-9.9-1.1c-5.3-0.6-67.1-1.1-69.7-1.1c-3.5,0-7.9,0.3-12.2,0.6
		c-5.4,0.7-7.4,0.8-8.3,0.8c-4.2,0-9-1-14.8-3.1c-2.1-0.9-2.4-1.8-2.4-7.8v-0.8c0-3.8,5.6-6.2,14.3-6.2c1.5,0,3.9,0.1,6.9,0.3
		l4.3,0.2c4.9,0.3,5.4,0.3,15,0.3c2.4,0,59.5,0.3,65.6,0.5h0c1.9,0,7.1-0.5,10.1-0.8c2.2-0.3,4.4-0.3,6.2-0.3c8.8,0,14.3,3.4,14.3,9
		c0,2.7-1.3,5.2-3.1,6.1C263.2,181,253,183.4,248.6,183.4z"/>
	<path class="st0" d="M248.6,188c-0.9,0-4.7-0.3-10.5-1.1c-5.1-0.6-64.5-1.1-69.1-1.1c-3.3,0-7.6,0.3-11.7,0.5
		c-4.4,0.6-7.3,0.8-8.7,0.8c-4.7,0-10-1.1-16.3-3.3c-0.1,0-0.2-0.1-0.3-0.1c-5.2-2.2-5.2-6.5-5.2-12v-0.8c0-2.5,1.4-10.8,18.9-10.8
		c1.7,0,4.2,0.1,7.1,0.3l4.3,0.2c4.7,0.3,5.1,0.3,14.7,0.3c2.4,0,58.9,0.3,65.7,0.5c0.7,0,2.9-0.1,9.6-0.8c2.4-0.3,4.8-0.3,6.7-0.3
		c14,0,18.9,7.3,18.9,13.5c0,4.4-2.2,8.5-5.6,10.2C264.3,185.5,253.4,188,248.6,188z M169,176.7c0.6,0,64.4,0.5,70.2,1.2
		c0,0,0.1,0,0.1,0c5.6,0.8,8.8,1,9.2,1c3.8,0,12.8-2.2,14.3-2.9c0.2-0.1,0.7-0.9,0.7-2.1c0-3.3-5.3-4.4-9.8-4.4
		c-1.7,0-3.8,0-5.7,0.2c-8.3,0.9-10.1,0.9-10.7,0.9c-0.1,0-0.2,0-0.2,0c-5.8-0.3-62.8-0.5-65.4-0.5c-9.7,0-10.3,0-15.3-0.3l-4.3-0.2
		c-2.8-0.2-5.2-0.3-6.6-0.3c-6.4,0-9.1,1.4-9.8,2v0.5c0,0.7,0,2.7,0.1,3.8c5,1.7,9.1,2.6,12.6,2.6c0.5,0,2.2-0.1,7.7-0.8
		c0.1,0,0.2,0,0.3,0C160.9,177,165.4,176.7,169,176.7z"/>
	<path class="st0" d="M719.8,185.5c-4.9,0-8.6-0.9-13.5-3.2c-12.4-6.1-12.4-6.1-18-11.2c-3.4-3-6.8-5.3-8.2-6.2l-9.4-5.5
		c-0.5-0.4-1.5-1.2-2.7-2.2l-1.9-1.6c-3.1-3-3.3-3.2-7-5.5c-3.3-2.2-3.3-2.2-6.7-5.8l-0.2-0.2c-2.1-1.9-3.9-3-7-3
		c-6.6,0-6.8,2.3-7.9,20c0,3.2,0.6,6.9,1.9,11.3c0.5,2.2,0.9,4.5,0.9,6c0,3.7-4.3,7-9.2,7c-7.6,0-10.8-3-10.8-10
		c0-3.5,0.5-11.7,1-15.8l0.3-2.6c0.2-1.4,0.3-2.4,0.3-2.8c0-1.2-0.1-2.4-0.3-3.9l-0.2-2c-0.5-3.3-0.8-5.4-0.8-6.5
		c0-0.4,0.1-2.2,1.3-11.1c0.3-1.8,0.3-3.4,0.3-4.6c0-0.8,0-2.4-0.3-4.3c-0.2-2.1-0.3-3.9-0.4-5c0-0.6-0.1-0.9-0.1-1.1l0-10.9
		c0-1.4-0.2-3.6-0.4-6.3l-0.2-2.5l-0.1-0.3c-0.2-0.7-0.2-1-0.2-1.1c0-6.7,0.2-9.8,1.6-19.6l0.1-0.5l-0.1-0.5
		c-1.3-8.6-1.8-21-1.3-28.2l0.8-10.7c0-1.4-0.7-5.7-1.6-10.1c-0.9-3.1-1-6.1-1-7.3c0-4.1,1-5.5,3-6.8c2.8-2,5.5-2.9,6.3-3
		c11.3,1.2,30.1,2,40,2c0.7,0,1.7-0.1,3.3-0.2c1.1-0.1,2.6-0.2,4.3-0.3c2.3-0.3,4.6-0.3,6-0.3c9.6,0,25.1,9.5,33.1,20.4
		c0.6,0.8,0.6,0.8,2.6,4.7c0.8,1.7,0.9,1.8,4.6,8.2c2.2,4.1,6,18.9,5.8,21.7c-1,20.5-1.2,21.1-3.2,25.9l-0.2,0.6
		c-4.2,10.1-4.3,10.2-8.8,15.4c-5.7,6.2-9.3,10-10.3,11c-13.1,9.7-19.6,13.4-28.7,16.2c-3.7,0.8-5,3.1-5,5c0,2.2,1.4,4.2,8.6,8
		l0.3,0.1c2,0.8,3.7,1.9,4.7,2.9l0.1,0.2l4.4,3.6l0.3,0.2c13.4,8,15.9,9,29.4,11.3c6.2,1,7.4,1.9,9.1,4.1c2.1,2.7,2.9,5.2,2.9,6.6
		C731.6,180.1,725.4,185.5,719.8,185.5z M638.8,104.1c0,0.8,0,1.1-0.2,1.7l-0.1,0.3l-0.3,4.7c0,2.4,0.3,7.8,3.4,10.4l0.3,0.2
		c1.6,1.1,1.6,1.1,17.5,2.9l0.2,0h0.2c0.8,0,1.6,0,5.6-2.1c1.5-0.8,3.2-1.5,4.5-2l0.3-0.1c9.2-4,10-4.5,14.2-8.3l0.3-0.3
		c0.3-0.3,3.6-3.2,10-8.5c4.3-3.6,9.9-11.1,13.1-17.5c1.6-3.6,1.6-3.9,3.5-16.8l0-0.3v-0.3c0-4.8-2.1-16.6-4.2-20.2
		c-2.7-5.4-11.5-15.5-17-18.5c-4.7-2.8-8.1-3.4-18.6-3.4c-2.4,0-5.2,0-8.6,0.1l-6.1-0.3c-1.5-0.1-3-0.3-4-0.4
		c-1.3-0.1-2.2-0.2-2.5-0.2l-0.3,0c-4.7,0.4-8.6,2.3-10.6,5.3l-0.2,0.2c-2.1,3.6-2.1,4.7-2.1,11.7c0,2.6,0,2.6-0.8,11.5l0,0.3
		c0,1,0.3,3.5,1.1,6.7c0.2,2,0.5,4,0.5,5.7c0,1,0,2.5-0.2,3.9c-0.8,4.6-1.1,7.9-1.1,8.5c0.1,2.3,0.2,4.2,0.3,5.7
		c0.1,2.4,0.2,4.1,0.2,5.3v0.2L638.8,104.1z"/>
	<path class="st0" d="M719.8,190.1c-5.6,0-9.9-1-15.5-3.6c-12.5-6.1-13-6.4-19.1-11.9c-3.1-2.7-6.2-4.8-7.5-5.7l-9.4-5.4
		c-0.1-0.1-0.3-0.2-0.4-0.3c-0.6-0.4-1.5-1.2-2.9-2.4l-1.9-1.6c-0.1-0.1-0.2-0.1-0.2-0.2c-2.9-2.8-2.9-2.8-6.3-5
		c-3.6-2.4-3.9-2.7-7.4-6.4l-0.1-0.1c-1.6-1.4-2.3-1.7-3.9-1.7c-0.9,0-1.4,0.1-1.7,0.1c-0.8,1.6-1.2,8.1-1.7,15.5
		c0,2.7,0.6,5.9,1.8,9.8c0,0.1,0.1,0.2,0.1,0.4c0.5,2.4,1,4.9,1,7c0,6.3-6.3,11.6-13.8,11.6c-12.7,0-15.4-7.9-15.4-14.6
		c0-3.7,0.5-12,1.1-16.4l0.3-2.6c0.2-1.8,0.2-2.2,0.2-2.3c0-0.8-0.1-1.8-0.3-3.3l-0.2-1.9c-0.6-3.6-0.8-5.8-0.8-7.1
		c0-0.4,0-1.5,1.3-11.7c0,0,0-0.1,0-0.1c0.2-1.5,0.2-2.8,0.2-3.9c0-0.8,0-2.1-0.2-3.6c0-0.1,0-0.2,0-0.3c-0.2-2.1-0.3-3.8-0.4-4.9
		l0-0.4c0-0.4-0.1-0.6-0.1-0.8c0-0.1,0-0.2,0-0.3l0-10.9c0-1.3-0.2-3.5-0.4-5.9l-0.2-2.2c-0.2-1-0.3-1.6-0.3-2.1
		c0-6.9,0.3-10.2,1.6-20.1c-1.3-8.9-1.9-21.6-1.3-29l0.8-10.5c0-0.9-0.5-4.2-1.5-8.9c-1-3.5-1.1-6.7-1.1-8.3c0-5.2,1.5-8.3,5-10.6
		c2.5-1.8,6.3-3.7,8.7-3.7c0.2,0,0.4,0,0.6,0c11.1,1.1,29.7,1.9,39.5,1.9c0.6,0,2.1-0.1,3-0.2c1.1-0.1,2.6-0.2,4.3-0.3
		c2.5-0.3,4.9-0.3,6.4-0.3c11,0,27.9,10.2,36.8,22.3c0.8,1.2,0.9,1.3,3,5.4c0,0,0,0.1,0.1,0.1c0.7,1.5,0.7,1.5,4.4,7.8
		c0,0,0.1,0.1,0.1,0.1c2.3,4.3,6.7,20,6.4,24.1c-1,20.5-1.3,21.8-3.5,27.3l-0.2,0.6c-4.4,10.5-4.7,11-9.6,16.7c0,0-0.1,0.1-0.1,0.1
		c-6,6.5-9.7,10.4-10.3,11.1c-0.2,0.2-0.4,0.4-0.6,0.5c-13.4,10-20.4,13.9-30,16.9c-0.1,0-0.2,0.1-0.3,0.1c-0.7,0.2-1.1,0.4-1.3,0.5
		c0.4,0.5,1.8,1.7,6,3.9l0.1,0.1c2.6,1.1,4.7,2.5,6.2,3.9l3.9,3.2c13,7.8,14.8,8.5,27.8,10.7c6.7,1.1,9.2,2.3,11.9,5.7
		c2.4,3.1,3.9,6.6,3.9,9.4C736.2,182.6,727.9,190.1,719.8,190.1z M673.1,155.7l9.2,5.3c0,0,0.1,0.1,0.1,0.1c1.9,1.2,5.4,3.7,8.8,6.6
		c5.2,4.8,5.2,4.8,17,10.5c4.3,2,7.3,2.7,11.5,2.7c3.5,0,7.3-3.7,7.3-5.8c0-0.3-0.4-1.9-1.9-3.8c-0.9-1.2-1.2-1.5-6.3-2.4
		c-14.1-2.4-17-3.5-31-11.8l-0.3-0.2c-0.2-0.1-0.4-0.3-0.6-0.4l-4.4-3.6c-0.1-0.1-0.3-0.2-0.4-0.4l-0.1-0.2
		c-0.3-0.3-1.4-1.1-3.2-1.9c-0.1,0-0.1,0-0.2-0.1l-0.3-0.1c-0.1,0-0.1-0.1-0.2-0.1c-7-3.7-11.1-6.8-11.1-12c0-3.4,2.2-7.9,8.3-9.4
		c8.4-2.7,14.5-6.1,26.9-15.3c1.1-1.1,4.5-4.8,9.9-10.6c4.1-4.7,4.1-4.7,8-14.2l0.2-0.5c1.7-4.1,1.9-4.6,2.9-24.4
		c0-2.4-3.4-15.6-5.3-19.2c-3.6-6.2-3.8-6.5-4.7-8.4c-1.8-3.5-1.8-3.5-2.2-4.1c-7.7-10.4-22.2-18.5-29.4-18.5c-1.4,0-3.5,0-5.5,0.2
		c-0.1,0-0.1,0-0.2,0c-1.7,0.1-3.1,0.2-4.3,0.3c-1.8,0.2-2.9,0.2-3.7,0.2c-9.8,0-28.3-0.8-39.7-1.9c-0.7,0.2-2.2,0.9-4,2.1
		c0,0-0.1,0.1-0.1,0.1c-0.7,0.4-0.9,0.6-0.9,3c0,1,0.1,3.5,0.8,6c0,0.1,0.1,0.2,0.1,0.3c0.4,1.9,1.8,8.5,1.7,11.1c0,0.1,0,0.2,0,0.3
		l-0.8,10.7c-0.5,6.9,0,18.8,1.3,27.2l0.1,0.5c0.1,0.4,0.1,0.9,0,1.3l-0.1,0.5c-1.3,9.6-1.5,12.5-1.5,18.9c0,0.1,0,0.1,0,0.2
		l0.1,0.3c0.1,0.2,0.1,0.5,0.1,0.7l0.2,2.5c0.2,2.7,0.4,5,0.4,6.6l0,10.7c0,0.1,0,0.3,0,0.4l0,0.4c0.1,1.1,0.3,2.8,0.4,4.9
		c0.3,2.1,0.3,3.8,0.3,4.8c0,1.2,0,3.1-0.3,5.2c-1.2,8.9-1.2,10.4-1.2,10.5c0,0.5,0.1,2,0.7,5.7c0,0.1,0,0.1,0,0.2l0.2,2
		c0.2,1.5,0.3,2.9,0.3,4.4c0,0.5,0,1.2-0.3,3.3l-0.3,2.6c-0.5,4-1,12-1,15.3c0,3.9,0.6,5.5,6.2,5.5c2.8,0,4.7-1.7,4.7-2.5
		c0-1-0.4-3.1-0.8-4.9c-1.4-4.8-2.1-8.8-2.1-12.4c0-0.1,0-0.2,0-0.3c1.1-17.7,1.5-24.3,12.5-24.3c4.5,0,7.2,1.6,10,4.1
		c0,0,0.1,0.1,0.1,0.1l0.2,0.2c0,0,0.1,0.1,0.1,0.1c3.1,3.2,3.1,3.2,5.9,5.1c3.8,2.4,4.2,2.8,7.5,5.9l1.8,1.5
		C671.6,154.4,672.6,155.3,673.1,155.7z M659.9,128.9h-0.2c-0.2,0-0.3,0-0.5,0l-0.2,0c-17-1.9-17-1.9-19.5-3.7
		c-0.1,0-0.1-0.1-0.2-0.1l-0.3-0.2c-0.1,0-0.1-0.1-0.1-0.1c-4.4-3.7-5.1-10.3-5.1-13.9c0-0.1,0-0.2,0-0.3l0.3-4.7
		c0-0.3,0.1-0.5,0.1-0.8l0.1-0.3c0-0.1,0-0.1,0-0.2c0-0.1,0-0.1,0-0.2l-1.6-13.2c0-0.2,0-0.4,0-0.5v-0.2c0-0.9-0.1-2.5-0.2-4.5
		l-0.1-0.9c-0.1-1.5-0.2-3.3-0.3-5.4c0-0.1,0-0.1,0-0.2c0-1.2,0.4-5.1,1.2-9.3c0.2-1,0.2-2.2,0.2-3.1c0-1.4-0.2-3.2-0.4-4.9
		c-0.7-3.1-1.2-5.9-1.2-7.5c0-0.1,0-0.1,0-0.2l0-0.3c0-0.1,0-0.2,0-0.2c0.8-8.7,0.8-8.7,0.8-11.1c0-7.3,0-9.3,2.7-14
		c0-0.1,0.1-0.1,0.1-0.2l0.2-0.2c0,0,0.1-0.1,0.1-0.1c2.8-4.1,8-6.8,14-7.2c0.1,0,0.1,0,0.2,0l0.3,0c0.4,0,0.8,0,3.1,0.2l0.1,0
		c1,0.1,2.4,0.2,3.8,0.3l5.9,0.3c3.3-0.1,6.1-0.1,8.5-0.1c10.5,0,15,0.6,20.9,4c6.2,3.4,15.6,14.2,18.8,20.3
		c2.7,4.9,4.7,17.6,4.7,22.4v0.3c0,0.2,0,0.4,0,0.6l0,0.3c-1.9,13.3-2,13.8-3.8,18c0,0.1-0.1,0.1-0.1,0.2c-3.5,7-9.5,14.9-14.2,18.9
		c-6.3,5.3-9.5,8.1-9.8,8.3l-0.3,0.3c-4.9,4.4-6.2,5.2-15.5,9.2c0,0-0.1,0-0.1,0.1l-0.3,0.1c0,0-0.1,0-0.1,0.1
		c-1.1,0.4-2.6,1-3.9,1.7C663.3,128.6,661.7,128.9,659.9,128.9z M644.7,117.8c0.1,0.1,0.1,0.1,0.2,0.1c0.8,0.3,5.6,0.8,15,1.9h0
		c0.2-0.1,1.1-0.4,3.5-1.6c1.7-0.9,3.5-1.7,5-2.2l0.1,0c8.7-3.8,9.1-4.1,12.9-7.5l0.2-0.2c0.4-0.4,3.8-3.4,10.2-8.7
		c3.8-3.1,9-10.1,11.9-15.9c1.3-3,1.3-3.1,3.1-15.4c0-4.4-2-15.2-3.6-17.9c0-0.1-0.1-0.1-0.1-0.2c-2.4-4.7-10.6-14.1-15.2-16.6
		c-4.7-2.7-7.3-3-24.9-2.7c-0.1,0-0.2,0-0.3,0l-6.1-0.3c-0.1,0-0.1,0-0.2,0c-1.5-0.1-2.9-0.3-4-0.4l-0.1,0c-1.3-0.1-1.8-0.2-2-0.2
		l-0.1,0c-3.2,0.3-5.9,1.5-7.1,3.2l-0.1,0.1c-1.4,2.4-1.4,2.5-1.4,9.3c0,2.8,0,3-0.8,11.8l0,0.1c0,0.6,0.3,2.6,1,5.6
		c0,0.2,0.1,0.3,0.1,0.5c0.2,2,0.5,4.3,0.5,6.3c0,1.1,0,2.8-0.3,4.6c-0.7,4.1-1,7.1-1,7.8c0.1,2,0.2,3.7,0.3,5.2l0,0.9
		c0.1,2.2,0.2,3.7,0.2,4.9l1.6,13.2c0,0.2,0,0.4,0,0.5c0,1,0,1.6-0.3,2.7l-0.3,4.2c0,3.1,0.7,5.8,1.8,6.8L644.7,117.8z"/>
</g>
<g>
	<g>
		<path class="st0" d="M331.2,286.1c-0.3,0.6-0.7,2-2.4,7.2l-0.6,1.7l-1.4,5.8c-1.3,5.3-3.5,7.3-7.6,7.3c-2.6,0-3.5-0.4-5.8-2.4
			c-2.7-2.3-3.2-3.2-4.8-9.1c-0.6-2.3-1-4.5-1.3-6.5c-2.3-9.2-2.9-11.2-4.2-14.7c-0.4-1.2-0.9-2.2-1.2-3.3c-0.9-3.9-0.9-4-1.9-7.1
			c-0.9-2.6-1.4-4.2-1.6-4.8l-0.9-4.2c-1.3-4.8-3.3-10.8-5.9-18.3c-0.1-0.4-0.6-1.9-1.2-4c-0.6-2-1.2-3.6-1.4-4.3l-1.7-3.5
			c-0.6-1.4-1.4-5.8-1.4-7.9c0-3.9,3.5-7.3,7.3-7.3c2.6,0,5.5,1.9,6.8,4.5c1.2,2,1.2,2,1.4,7.8c0.1,1.6,0.3,2.2,0.6,3.2
			c0.4,1.3,0.7,3.3,1.3,5.8c0,0.1,0.3,1.2,1,3.3c0.4,2.3,0.9,4.5,1.2,5.5l1.9,4.5c0.1,0.4,0.6,2,1,4.3c0.4,1.7,0.9,3.3,1.4,4.8
			c0.7,2.3,1.3,3.7,1.3,3.9l0.9,5c0.1,0.4,0.3,1.4,0.9,2.7c1.2,3.9,1.3,4.3,1.6,5.8c0.6,2.3,0.9,3.9,1.2,4.8c0.3,1.2,1,4.3,2,9.4
			c0.1,1.9,0.7,3,1.4,3c0.7,0,1.3-1.3,1.4-2.9c0.1-2.6,0.1-2.6,0.9-4.8c0.4-1.4,0.7-2.9,1-4.3c0.1-1,0.9-2.9,1.9-5.5
			c0.6-2.2,1.3-4.3,2.2-6.6l0.6-3c0.4-1.6,1-3.3,1.6-4.9c0.3-1,0.4-1.9,0.4-2.6c0-1.3-0.7-3.9-1.9-6.5c-0.7-1.3-1-2.3-1.2-2.4
			l-0.6-3c-0.1-0.4-0.7-1.7-1.6-3.7c-0.7-1.6-1.2-2.9-1.3-3.9c-0.4-1.9-0.6-2.9-0.6-3l-1-2l-1-3.2l-1.9-3.5c-0.9-1.7-1.3-3.5-1.3-5
			c0-3.5,3.3-6.9,6.6-6.9c3.7,0,7.3,3.9,7.6,8.1c0.3,2.9,0.3,2.9,0.9,4.9c0.4,1.3,0.4,1.3,0.7,4c0.3,1.3,0.3,1.3,1.3,4.3
			c0.4,1.3,0.4,1.3,1,3.3c0.1,0.4,0.6,1,0.7,1c0.1,0,0.1-0.1,0.7-2.2c0.3-1.3,0.3-1.3,0.9-3.2c0.4-0.7,0.7-1.7,1-3
			c0.1-0.3,0.4-1,0.9-2c0.6-1.6,0.6-1.9,0.7-5.2c0.3-5.9,3-10.1,6.9-10.1c3.9,0,7.5,4,7.5,8.2c0,3-0.6,4.6-3.2,9.5
			c0,0.1-0.4,1.3-1,3.2c-0.6,1.7-0.6,1.7-1.9,4c-0.7,2.7-1.6,5.2-2.4,7.1l-1.3,4.5c-0.6,1.3-1.2,2.6-1.6,3.9
			c-0.4,1.2-0.7,2.6-0.7,3.9c0,2.2,0.6,4.9,1.9,8.1c0.9,2,1.3,3.5,1.4,3.9c0.1,0.6,0.4,1.9,0.7,3.9c0.4,2.2,0.4,2.2,1.9,5.9
			c0.1,0.4,0.4,2,0.9,4.8c0.4,2.2,1.4,6.2,1.7,6.5l0.4,0.4c1-0.6,1-0.6,1.4-3.3c0.3-1.7,0.7-3.7,1.6-6c0.3-0.9,0.3-0.9,1-4.2
			c0.1-0.6,0.7-1.9,1.4-3.9c0.3-0.6,0.4-1.7,0.9-3.6c0-0.4,0.3-1,0.6-1.9c0.4-0.7,0.4-0.7,1.2-4.2c0.1-1,0.7-2.2,1.3-3.6
			c1.4-2.4,1.4-2.6,1.9-5.8c0.4-2.2,0.4-2.6,0.9-3.5c0.7-1.4,1.3-3.3,1.9-5.3c0.3-1.2,0.7-2,1.2-2.9c0.4-1,0.9-1.9,1.2-3l1-3l1.3-3
			c0.7-2,1.6-4.2,2.2-6c0.1-0.6,0.3-1.7,0.6-3.5l0.3-3.2c0.4-4.6,3.6-7.6,7.8-7.6c4.3,0,7.8,3.3,7.5,7.5c-0.1,2.6-0.3,3-2.9,7.8
			c-0.7,1.3-1.3,2.9-2,4.9c-0.3,0.9-0.3,0.9-2,4.5c-0.3,0.6-0.7,2.2-1.6,4.6c-0.3,0.7-0.9,2.3-1.9,5c-0.1,0.7-0.6,2.2-1.3,4.5
			c-0.7,2.2-0.7,2.2-2.7,6.8c-0.3,0.3-0.7,2-1.2,3.6c-1.2,5-1.2,5.2-3,9.5c-1.2,2.4-2.2,5.2-2,5.5l-0.9,3.5c0,0.3-0.4,1.3-1,2.9
			c-0.4,1-0.9,2.4-1.4,4.3c-0.7,2.4-0.7,2.6-1.6,4.9c-0.3,1-0.3,1-1,3.3c-0.6,2.3-3,8.9-3.9,10.4c-1.3,2.4-3.6,3.9-6,3.9
			c-2.9,0-6.6-2-8.1-4.5c-0.7-1.4-2.9-8.4-3.2-10.5c-0.1-1.4-0.4-2.9-1-4.6c-0.1-0.7-0.1-0.7-0.7-3.2c-0.1-0.7-0.4-1.9-1.2-3.2
			c-0.6-1.6-1-2.6-1.2-3c-0.1-0.3-0.4-1.6-0.6-2.9c-0.1-1.7-0.4-2.4-1-2.6c-0.3-0.1-0.4,0.4-1.3,5.6c-0.3,1.4-0.6,2.7-1,3.6
			L331.2,286.1z"/>
		<path class="st0" d="M411.6,237.7c0,0.4,0.1,1.6,0.3,3.3c0.3,1.2,0.3,2.2,0.3,3c0,0.7-0.1,1.9-0.3,3.2c-0.3,2-0.4,3.5-0.4,3.9
			c0.4,7.5,0.7,11.5,0.7,12.1c0,1.2-0.3,10.2-0.4,13.1l0.1,4.3l-0.3,3.9l0.1,4.2l-0.1,4.2c0,1.4,0,1.6,1.2,5.6
			c0.3,1,0.4,1.9,0.4,2.6c0,3.7-3.3,7.1-7.1,7.1c-2.9,0-6.3-1.6-7.3-3.3c-0.4-0.7-1.2-3.7-1.2-4.8c0-0.7,0.1-1.4,0.3-2.6
			c0.6-2.2,1-6.3,1-8.6c0-0.7-0.1-1.6-0.3-2.7c-0.3-2-0.4-3.5-0.4-4s0.1-2.2,0.6-4.5c0.1-1.4,0.3-3,0.3-4c0-1.3-0.1-2.7-0.3-4.9
			c-0.1-1.3-0.1-1.9-0.1-2.6l0.1-5.3l-0.4-3.9c0-0.3,0.1-1.3,0.4-2.7c0.3-1.6,0.4-2.7,0.4-3.5c-0.3-6.9-0.6-14.1-0.6-16
			c0-2,0-2.7,0.1-4.6c0.1-1.2,0.1-2,0.1-2.4c0-1-0.1-2.4-0.6-4.3c-0.4-2-0.6-3.7-0.6-5.2c0-3.5,3.5-6.8,7.2-6.8c4,0,8.2,3.7,8.2,7.3
			c0,1-0.3,2.3-0.7,4c-0.6,2.2-0.9,3.7-0.9,4.8c0,0.3,0,0.7,0.1,1.3c0.1,0.9,0.1,1.4,0.1,1.4L411.6,237.7z"/>
		<path class="st0" d="M442.7,238.1c-0.3,0.3-0.4,0.4-0.4,0.6c0.4,2,0.4,2,0.4,3c0,1,0.1,2,0.3,3c0.1,1,0.1,1.4,0.1,2.7
			c0,2,0,3.6,0.1,3.9l0.1,4.8c0,0.6-0.1,1.6-0.3,2.6c-0.1,0.4-0.1,0.9-0.1,1c0,0.3,0,0.6,0.1,0.9c0.3,1.7,0.4,3,0.4,3.5
			c0,0.7,0,1.4-0.3,2.6c-0.1,1-0.1,1.7-0.1,2.2c0,0.6,0,1,0.1,1.6c0.1,0.9,0.1,1.4,0.1,1.6c0,0.3,0,0.3-0.7,5.5
			c-0.1,0.9-0.1,1.4-0.1,1.6c0,0.4,0.1,1.2,0.3,2.2c0.4,1.6,0.6,2.9,0.6,3.9c0,0.4-0.1,1.4-0.3,3c-0.1,1-0.1,1.9-0.1,2.6
			c0,2.3,0.3,3.9,1.4,8.6c0.1,0.6,0.1,1.2,0.1,1.6c0,2-0.6,4.3-1.2,4.9c-1.2,1.2-4,2-6.2,2c-4.5,0-7.2-2.9-7.2-7.8
			c0-0.9,0.4-4.8,0.7-6.3c0.4-1.7,0.6-2.9,0.6-3.3c0-0.3-0.3-1.9-0.7-4.3c-0.1-0.9-0.1-1.7-0.1-2.6c0-0.6,0-1.4,0.1-2.4
			c0.1-1.6,0.3-2.6,0.3-2.9c0-4.2-0.1-9.4-0.4-13.7l0.4-4.5l-0.4-6c0-0.3,0-1,0.1-1.9c0.3-1.9,0.4-3.5,0.4-4.3c0-0.9,0-1.9-0.1-3.3
			c-0.4-3.3-0.6-7.1-0.6-10.4c0-2.2,0.1-3.5,0.4-5.2c0.1-0.4,0.1-0.9,0.1-1.2c0-0.1,0-0.1-1-6.8c-0.4-2-0.6-3.5-0.6-3.9
			c0-2.9,3.7-5.8,7.8-5.8c3.9,0,5.6,1.7,10.4,10.5c2,3.7,2.7,4.6,6.6,9.5c2.6,3.3,2.9,3.9,4.5,6.9c0.6,1,1,1.7,1.7,3l2.4,2.9
			c0.4,0.6,1,1.6,1.6,2.4c1,2,1.7,3.2,2,3.5c0.7,0.9,1.6,1.7,2.3,2.7c0.4,0.4,1.2,1.7,2,3.6c0.9,1.7,1.6,3.2,2,3.7
			c0.3,0.3,1.2,1.3,2.3,2.9c0.7,0.7,1,1.2,1.2,1.4l1.7,3.5c0.3,0.3,1,1.3,2.3,2.9c1.6,2,2.2,3,3.3,5.3c0.7,1.3,1.4,2.6,1.6,2.7
			c0.7,1,1.2,1.7,1.3,1.9c0.1,0.6,0.4,1,0.6,1l0.3,0.3l0.1,0.1c0.4-0.6,0.6-1,0.6-1.2c0-0.7-0.1-1.6-0.4-2.4c-0.3-1.2-0.4-2-0.4-2.3
			l0.3-3.7l-0.4-3l0.3-4.9c0-0.1-0.1-0.9-0.3-1.9l-0.1-2.2c0-2.2,0-2.7,0.4-4.5l0.1-1.4c0-0.4-0.1-1.3-0.3-2.7
			c-0.1-0.9-0.6-5.2-0.6-5.9c0-0.7,0.1-1.7,0.3-3.2c0.1-1.4,0.3-2.7,0.3-3.6c0-1.4-0.1-2.7-0.4-4.3c-0.1-0.9-0.3-1.4-0.3-1.6
			l0.6-8.1c0-0.1,0-0.1-1.3-6.8c-0.1-0.6-0.1-1-0.1-1.2c0-3.3,3.3-5.8,7.8-5.8c4.3,0,7.5,2.7,7.5,6.5c0,1-0.3,2.7-0.7,5
			c-0.1,0.9-0.6,3.6-0.6,3.9l0.1,4.9c0,0.3,0,0.7-0.1,1.4c-0.3,1.6-0.4,2.6-0.4,2.7l0.4,7.2c0,0,0,0.7-0.1,1.6
			c-0.1,0.9-0.1,1.4-0.1,2.2c0,0.9,0,1.7,0.1,2.7c0.3,2.3,0.4,3.7,0.4,3.9l-0.1,5.8l0.3,5.8c0,0.1-0.1,1.7-0.4,4
			c-0.1,0.9-0.1,1.6-0.1,2.2c0,1,0,1,0.6,5.8l-0.4,6.2l0.6,6.6c0,0.4-0.1,1-0.3,2.2c-0.1,1.2-0.3,2-0.3,2.3c0,1,0.3,2.3,0.7,4.2
			c0.3,1.2,0.4,2.4,0.4,3c0,3.2-2.4,6-5.2,6c-2.6,0-6-1.2-7.2-2.4c-1.2-1-1.2-1-7.5-11.2c-1.3-2.2-2.3-3.6-2.4-3.9l-2.3-2.7
			c-0.3-0.4-1.2-1.9-2.6-4.2c-0.9-1.4-1.7-2.6-2.4-3.5c-1.3-1.7-2-2.7-2.2-2.9c-0.4-1-0.9-2-1.3-2.9l-1-2c-0.6-1.3-1.2-2.3-1.6-2.6
			c-0.9-1-1.7-1.9-2.7-2.9l-2.6-4.8c0-0.1-1-1.4-2.4-3.2l-2.2-3.2l-1.7-3c-0.6-0.6-1.2-1.3-1.7-2c-0.1-0.1-1-1.4-2.2-3.6
			c-0.3-0.6-1-1.7-2.3-3.6c-0.9-1.3-1.6-2.4-2-3.3c-0.3-0.9-0.9-1.6-1-1.6l-0.4-0.4l-0.3-0.3c-0.1,0-0.1,0.1-0.3,0.3L442.7,238.1z"
			/>
		<path class="st0" d="M542.3,211.7l3.6-0.1c0.6,0,1.3,0.1,2.6,0.3c0.6,0.1,1,0.1,1.3,0.1s0.6,0,1-0.1c1.6-0.1,2.4-0.3,2.6-0.3
			l6.8,0.3c0.3,0,1.4-0.3,3.2-0.7c0.9-0.1,1.6-0.3,2.2-0.3c3.2,0,6.8,3.7,6.8,7.2c0,3.7-3.5,6.9-7.6,6.9c-0.7,0-0.7,0-4.8-1.2
			c-0.7-0.1-0.7-0.1-4.2-0.3c-1.4,0-1.4,0-5.6-0.4c-1.9,0-4,1.6-4,3.2c0,0.4,0,0.9,0.1,1.6c0.1,0.7,0.3,1.4,0.3,1.9
			c0,0.9-0.1,2-0.4,3.3c-0.4,1.4-0.6,2.3-0.6,2.9s0.3,1.9,0.7,3.5c0.3,1,0.4,1.7,0.4,1.9l-0.6,6.9c-0.3,3,0.1,10.1,0.7,12.5
			c0.1,0.7,0.3,1.2,0.3,1.2l-0.7,5l0.4,4.2c0,0.6-0.1,1.2-0.4,2c-0.1,0.6-0.3,0.9-0.3,1l0.7,4.6c0,0-0.1,0.6-0.4,1.3
			c-0.3,0.6-0.4,1-0.4,1.2l0.6,6.9c0,0.3-0.1,1.4-0.6,3.2c-0.1,0.6-0.1,1-0.1,1.4c0,0.9,0.4,2.9,1.2,4.8c0.7,1.7,1.2,3,1.2,3.7
			c0,3.3-3.7,6.8-7.3,6.8c-4.3,0-8.9-3.6-8.9-7.1c0-0.4,0.3-2,0.7-4.2c0.3-1,0.7-5.2,0.7-6.2c0-0.4,0-1-0.1-1.9
			c-0.3-2.6-0.4-4.5-0.4-5.5c0-0.4,0.3-3.9,0.7-10.4c0-0.4,0-1.2-0.1-1.9c-0.3-1.4-0.4-2.4-0.4-2.6l0.3-6.2c0-0.3-0.1-1.2-0.3-2.6
			c-0.1-1-0.3-1.9-0.3-2.3c0-1.3,0.3-3.5,0.7-6.5c0.1-1.4,0.3-2.6,0.3-3.6c0-0.6,0-1.6-0.1-2.9c-0.3-2-0.4-7.8-0.4-12l0.3-4.2
			c0-1.6-0.9-3.2-2-3.9c-0.9-0.4-3.3-0.7-8.1-0.7c-1.4,0-2.6,0.1-4.3,0.7c-1.2,0.3-2.2,0.4-2.9,0.4c-3,0-6.3-4-6.3-7.6
			c0-3,3.9-6.3,7.1-6c4.3,0.3,4.3,0.3,8.4,0.6c1.7,0.1,3,0.3,3.7,0.3c0.4,0,4.3-0.3,7.9-0.7L542.3,211.7z"/>
		<path class="st0" d="M615.8,307.7c-1.2,0-2.6-0.1-4.6-0.4c-2.9-0.4-4.9-0.6-5.5-0.6c-2.4,0.1-4.2,0.3-5.2,0.4
			c-1.3,0-3.2,0.3-5.5,0.6c-2.4,0.4-3.3,0.4-5.2,0.4c-3,0-5.8-1-7.2-2.6c-0.7-1-1.6-3.2-1.4-4.2c1.3-10.7,1.3-10.9,1.3-11.5
			c0-0.4,0-1-0.1-1.7c-0.4-2.4-0.6-4.2-0.6-5.3c0-0.9,0.1-2.2,0.4-3.6c0.3-1.6,0.4-2.6,0.4-2.9c0-2.9-0.6-16-0.9-19.7
			c0-0.4,0.3-1.6,0.6-3.5c0.4-1.7,0.6-3.2,0.6-3.9c0-0.3-0.3-4.5-0.9-12.8l0.1-2.6c0.3-2.4,0.4-3.9,0.4-5.9s-0.3-4.6-0.9-6.8
			c-0.4-1.6-0.7-3-0.7-3.9c0-2.9,3.6-5.9,7.2-5.9c0.6,0,1.7,0.1,3.3,0.4c1.4,0.3,2.7,0.4,3.7,0.4c1,0,2.6-0.1,4.8-0.4
			c1-0.1,1.7-0.1,2-0.1c6.9,0.4,11.4,0.7,13.5,0.9c1.2,0,1.3,0,7.1-1.3c0.6-0.1,1.2-0.1,1.7-0.1c5.8,0,9.8,2.6,9.8,6
			c0,1.7-1.2,4.8-2.4,6.5c-1.2,1.4-2.9,2.2-5.3,2.2c-1.2,0-2.7-0.1-4.2-0.6c-2.2-0.4-3.6-0.7-4-0.7h-3c-0.3,0-1.4-0.1-3.2-0.4
			c-0.9-0.1-1.7-0.1-2.3-0.1c-0.7,0-1.6,0.1-2.4,0.3c-1,0.1-1.6,0.1-1.7,0.1l-7.1-0.6c-0.3,0-2,1.2-2.3,1.7
			c-0.3,0.4-0.6,1.6-0.6,2.2c0,0,0,0.3,0.1,0.7v1c0,0.4-0.1,4-0.3,4.3c-0.1,1.9-0.3,3-0.3,3.5c0,2.9,1.6,5,3.7,5
			c0.6,0,1.2,0,1.9-0.1c2.2-0.3,3.7-0.4,4.6-0.4c1.4,0,2.9,0.1,4.8,0.4c1.2,0.1,2,0.3,2.6,0.3c0.3,0,0.9,0,1.4-0.1
			c1.9-0.3,3-0.4,3.3-0.4c7.9,0.9,8.6,1,8.6,1c2.3,0.6,4.8,4.2,4.8,6.9c0,3.3-3.2,6.8-6,6.8c-1,0-2.6-0.3-4.8-1
			c-2.2-0.7-3.7-1-6.2-1c-2.3,0-3.7-0.1-4.3-0.3c-1.3-0.3-2.2-0.4-2.2-0.4c-1.2,0.1-2.9,0.3-4.9,0.3c-3.3,0.1-7.1,2.3-7.1,4.2
			c0,0.6,0.3,1.7,0.7,3.5c0.1,0.7,0.3,1.4,0.3,2.3c0,0.4,0,1.2-0.1,1.7c-0.4,1.9-0.6,3.2-0.6,3.3l0.3,3.7c-0.4,1.6-0.4,1.7-0.4,2.2
			l0.3,5.3c0,0.3-0.1,1.6-0.4,3.6c-0.1,0.9-0.1,1.7-0.1,2.3c0,0.6,0,1.3,0.1,2c0.1,0.9,0.1,1.4,0.1,1.7c0,0.4,0,1-0.1,1.6
			c-0.1,0.4-0.1,0.9-0.1,1.2c0,1.6,1.4,2.4,3.7,2.4c1,0,4.2-0.3,5.9-0.4c0.3,0,1,0.1,1.9,0.3c1.6,0.3,6,0.7,7.3,0.7
			c1.6,0,2.3-0.1,7.5-1.2c1.6-0.3,3-0.4,4.5-0.4c3.9,0,7.9,4,7.9,7.9c0,3-3.6,5.8-7.6,5.8l-5.5-0.1L615.8,307.7z"/>
		<path class="st0" d="M646.4,263.6c0-0.9-0.1-2.4-0.3-4.3c-0.1-0.6-0.1-0.9-0.1-1c0-3.6,0.1-5.3,0.9-10.5c-0.7-4.8-1-11.4-0.7-15.1
			l0.4-5.6c0-0.3-0.3-2.2-0.9-4.8c-0.4-1.4-0.6-3-0.6-4.2c0-2.6,0.7-4,2.6-5.2c1.7-1.2,3.9-2,4.9-1.9c5.9,0.6,16,1,21.6,1
			c0.6,0,1.9-0.1,4-0.3c1.3-0.1,2.6-0.1,3.5-0.1c5.9,0,15,5.2,19.9,11.5c0.4,0.6,0.4,0.6,1.6,2.7c0.4,0.9,0.4,0.9,2.4,4.2
			c1.3,2.3,3.6,10.4,3.5,12.4c-0.6,11.4-0.7,11.4-2,14.4c-2.4,5.6-2.6,5.8-5.2,8.6c-3.5,3.6-5.5,5.6-5.8,5.9
			c-7.5,5.3-11.2,7.3-16.6,8.9c-0.7,0.1-1.2,0.4-1.2,0.7c0,0.4,1.6,1.4,3.6,2.4c1.4,0.6,2.6,1.3,3.3,2l2.2,1.7
			c7.1,4,8.2,4.5,15.3,5.6c3.6,0.6,4.9,1.2,6.3,2.9c1.3,1.6,2,3.3,2,4.6c0,3.6-4.3,7.3-8.6,7.3c-3.2,0-5.5-0.6-8.4-1.9
			c-7.1-3.3-7.1-3.3-10.4-6.2c-1.7-1.4-3.5-2.6-4.2-3l-5.2-2.9c-0.4-0.3-1.3-1-2.7-2.2c-1.7-1.6-1.7-1.6-3.6-2.7c-2-1.3-2-1.3-4-3.3
			c-1-0.9-1.4-1-2.3-1c-1.6,0-1.6,0-2.2,8.6c0,1.3,0.3,3,1,5.3c0.3,1.3,0.6,2.6,0.6,3.6c0,3-3.3,5.6-7.2,5.6c-5.3,0-8.1-2.4-8.1-7.2
			c0-1.9,0.3-6.2,0.6-8.5c0.1-1.3,0.3-2.3,0.3-2.6c0-0.7-0.1-1.6-0.3-2.9c-0.3-1.7-0.4-2.9-0.4-3.6c0-0.6,0.3-2.9,0.7-6
			c0.1-0.9,0.1-1.6,0.1-2.2c0-0.4,0-1.2-0.1-2c-0.1-1.9-0.3-3.2-0.3-3.3V263.6z M660.4,263c0,0.6,0,0.9-0.1,1.4l-0.1,2.3
			c0,1.7,0.4,3.3,1.2,3.9c0.4,0.3,0.4,0.3,8.5,1.2c0.1,0,0.9-0.3,2-0.9c0.9-0.4,1.9-0.9,2.7-1.2c4.9-2,5-2.2,7.2-4
			c0.1-0.1,2-1.7,5.6-4.6c2.2-1.7,5-5.5,6.6-8.5c0.7-1.6,0.7-1.6,1.7-8.2c0-2.4-1.2-8.2-2-9.6c-1.4-2.7-6-7.6-8.5-8.9
			c-2.6-1.4-4-1.6-13.7-1.4l-3.5-0.1c-1.9-0.1-3.2-0.3-3.5-0.3c-1.9,0.1-3.5,0.9-4.2,1.9c-0.9,1.4-0.9,1.6-0.9,5.2
			c0,1.4,0,1.4-0.4,6.2c0,0.3,0.1,1.4,0.6,3.2c0.1,1.2,0.3,2.3,0.3,3.3c0,0.6,0,1.4-0.1,2.3c-0.4,2.4-0.6,4-0.6,4.2
			c0.1,2.9,0.3,4.8,0.3,5.8L660.4,263z"/>
	</g>
</g>
</svg>
