<?xml version="1.0" encoding="utf-8"?>
<!-- Generator: Adobe Illustrator 19.1.0, SVG Export Plug-In . SVG Version: 6.00 Build 0)  -->
<svg version="1.1" id="Layer_1" xmlns="http://www.w3.org/2000/svg" xmlns:xlink="http://www.w3.org/1999/xlink" x="0px" y="0px"
	 viewBox="0 0 20 20" style="enable-background:new 0 0 20 20;" xml:space="preserve">
<style type="text/css">
	.st0{fill:#FFFFFF;stroke:#000000;stroke-width:3;stroke-miterlimit:10;}
	.st1{fill:#EB1B3D;}
	.st2{fill:#FFFFFF;}
	.st3{stroke:#FFFFFF;stroke-width:2;stroke-miterlimit:10;}
	.st4{fill:none;stroke:#000000;stroke-width:3;stroke-miterlimit:10;}
	.st5{fill:none;stroke:#FFFFFF;stroke-width:2;stroke-miterlimit:10;}
</style>
<g id="VYI277_2_">
	<g>
		<g>
			<path class="st2" d="M17.1,4.9c0,3.3,0,6.7,0,10c0,0,0,0.1,0,0.1c-0.2,1-0.8,1.6-1.8,1.9C15.2,17,15.1,17,15,17
				c-3.3,0-6.7,0-10,0c0,0-0.1,0-0.1,0C4,16.8,3.3,16.3,3,15.4c-0.1-0.2-0.1-0.3-0.1-0.5c0-3.3,0-6.7,0-10c0,0,0-0.1,0-0.1
				c0.2-1,0.8-1.6,1.8-1.9c0.1,0,0.2,0,0.3-0.1c3.3,0,6.7,0,10,0c0,0,0.1,0,0.1,0c1,0.2,1.6,0.8,1.9,1.8C17.1,4.7,17.1,4.8,17.1,4.9
				z M15.3,7.9c-0.1,0-0.1,0-0.2,0c-0.8,0-1.6,0-2.4,0c-0.1,0-0.1,0-0.1-0.1c0-0.4,0-0.8,0-1.2c0-0.1,0-0.2,0-0.3
				c0-0.1,0.1-0.2,0.2-0.3c0.1,0,0.3-0.1,0.5-0.1c0.6,0,1.2,0,1.8,0c0.1,0,0.1,0,0.1-0.1c0-0.6,0-1.3,0-1.9c0,0,0-0.1,0-0.1
				c0,0-0.1,0-0.1,0c-0.8,0-1.6,0-2.3,0c-0.4,0-0.8,0-1.2,0.2C11,4,10.5,4.4,10.3,5C10.1,5.4,10,5.8,10,6.3c0,0.5,0,1,0,1.4
				c0,0,0,0.1,0,0.1c-0.1,0-0.1,0-0.1,0c-0.3,0-0.7,0-1,0c-0.1,0-0.1,0-0.1,0.1c0,0.6,0,1.2,0,1.8c0,0,0,0.1,0,0.1
				c0.4,0,0.9,0,1.3,0c0,2.1,0,4.2,0,6.2c0.9,0,1.8,0,2.7,0c0-2.1,0-4.1,0-6.2c0.8,0,1.5,0,2.3,0C15.1,9.2,15.2,8.5,15.3,7.9z"/>
		</g>
	</g>
</g>
</svg>
