<?xml version="1.0" encoding="utf-8"?>
<!-- Generator: Adobe Illustrator 19.1.0, SVG Export Plug-In . SVG Version: 6.00 Build 0)  -->
<svg version="1.1" id="Layer_1" xmlns="http://www.w3.org/2000/svg" xmlns:xlink="http://www.w3.org/1999/xlink" x="0px" y="0px"
	 viewBox="0 0 20 20" style="enable-background:new 0 0 20 20;" xml:space="preserve">
<style type="text/css">
	.st0{fill:#FFFFFF;stroke:#000000;stroke-width:3;stroke-miterlimit:10;}
	.st1{fill:#EB1B3D;}
	.st2{fill:#FFFFFF;}
	.st3{stroke:#FFFFFF;stroke-width:2;stroke-miterlimit:10;}
	.st4{fill:none;stroke:#000000;stroke-width:3;stroke-miterlimit:10;}
	.st5{fill:none;stroke:#FFFFFF;stroke-width:2;stroke-miterlimit:10;}
</style>
<g id="ZkiG2N.tif_1_">
	<g>
		<path class="st2" d="M16.9,6.1c0,3,0,6,0,8.9c0,0,0,0,0,0.1c-0.2,1.3-1.3,2.3-2.7,2.3c-2.8,0-5.6,0-8.3,0c-1.1,0-1.9-0.6-2.4-1.5
			c-0.1-0.3-0.2-0.6-0.3-0.9c0-3,0-6,0-8.9c0,0,0,0,0-0.1c0.2-0.9,0.7-1.6,1.5-2c0.3-0.1,0.6-0.2,0.9-0.3c3,0,6,0,8.9,0
			c0,0,0,0,0.1,0c0.9,0.2,1.6,0.7,2,1.5C16.7,5.6,16.8,5.9,16.9,6.1z M4.7,9.6c0,0.1,0,0.1,0,0.2c0,1.7,0,3.5,0,5.2
			c0,0.6,0.4,0.9,0.9,0.9c2.9,0,5.8,0,8.7,0c0.6,0,0.9-0.4,0.9-0.9c0-1.7,0-3.5,0-5.2c0-0.1,0-0.1,0-0.2c-0.4,0-0.8,0-1.2,0
			c0.7,2.8-1.4,5.1-3.9,5.2C9,14.9,7.9,14.5,7,13.6c-1.1-1.1-1.5-2.5-1.2-4C5.5,9.6,5.1,9.6,4.7,9.6z M7.3,10.6
			c0,1.4,1.1,2.6,2.5,2.7c1.5,0,2.7-1.1,2.7-2.6c0-1.4-1.1-2.6-2.5-2.7C8.6,7.9,7.4,9.1,7.3,10.6z M15.3,6.7
			C15.3,6.7,15.3,6.7,15.3,6.7c0-0.2,0-0.3,0-0.5c0-0.5-0.4-0.9-0.9-0.9c-0.3,0-0.6,0-0.9,0c-0.5,0-0.9,0.4-0.9,0.9
			c0,0.3,0,0.6,0,0.9C12.6,7.6,13,8,13.5,8c0.3,0,0.6,0,0.9,0c0.4,0,0.7-0.3,0.8-0.7C15.3,7.1,15.3,6.9,15.3,6.7z"/>
	</g>
</g>
</svg>
