<?xml version="1.0" encoding="utf-8"?>
<!-- Generator: Adobe Illustrator 19.1.0, SVG Export Plug-In . SVG Version: 6.00 Build 0)  -->
<svg version="1.1" id="Layer_1" xmlns="http://www.w3.org/2000/svg" xmlns:xlink="http://www.w3.org/1999/xlink" x="0px" y="0px"
	 viewBox="0 0 20 20" style="enable-background:new 0 0 20 20;" xml:space="preserve">
<style type="text/css">
	.st0{fill:#FFFFFF;stroke:#000000;stroke-width:3;stroke-miterlimit:10;}
	.st1{fill:#EB1B3D;}
	.st2{fill:#FFFFFF;}
	.st3{stroke:#FFFFFF;stroke-width:2;stroke-miterlimit:10;}
	.st4{fill:none;stroke:#000000;stroke-width:3;stroke-miterlimit:10;}
	.st5{fill:none;stroke:#FFFFFF;stroke-width:2;stroke-miterlimit:10;}
</style>
<g id="Y5nilG_2_">
	<g>
		<g>
			<path class="st2" d="M16.3,9.7c0.4,0,0.8-0.1,1.2-0.1c0.6,0,1.1,0.3,1.5,0.7c0.5,0.4,0.7,1,0.8,1.7c0,0.6-0.2,1.2-0.6,1.7
				c-0.5,0.6-1.2,0.8-2,0.8c-2.2,0-4.4,0-6.7,0c-0.1,0-0.2,0-0.3,0c-0.2,0-0.3-0.1-0.3-0.3c0,0,0-0.1,0-0.1c0-2.4,0-4.9,0-7.3
				c0-0.5,0.1-0.5,0.5-0.6c0.4-0.1,0.9-0.2,1.3-0.2c0.5,0,1.1,0.1,1.6,0.3c0.8,0.3,1.4,0.7,1.9,1.3c0.5,0.6,0.8,1.2,1,1.9
				C16.3,9.5,16.3,9.6,16.3,9.7z"/>
			<path class="st2" d="M9,10.5c0,1,0,1.7,0,2.4c0,0.4-0.1,0.8-0.1,1.2c0,0.4-0.3,0.4-0.5,0.3c-0.1,0-0.1-0.1-0.2-0.2
				c0-0.4-0.1-0.8-0.1-1.2c0-0.6-0.1-1.3,0-1.9c0-0.9,0-1.9,0.1-2.8c0-0.3,0-0.7,0.1-1C8.2,7,8.3,7,8.5,6.9c0.2,0,0.3,0.1,0.4,0.3
				c0,0.1,0,0.2,0,0.2C8.9,8.6,8.9,9.7,9,10.5z"/>
			<path class="st2" d="M7,11.1c0,0.4,0.1,0.7,0,1.1c0,0.4-0.1,0.7-0.1,1.1c0,0.2,0,0.4,0,0.6c0,0.1,0,0.3-0.1,0.4
				c0,0.2-0.2,0.2-0.4,0.2c-0.2,0-0.2-0.1-0.3-0.2c0-0.5-0.1-1-0.1-1.5c-0.1-1.1,0-2.2,0.1-3.3c0-0.5,0-1,0-1.5
				c0-0.2,0.1-0.3,0.2-0.3c0.1-0.1,0.3,0,0.4,0.1c0,0,0,0.1,0,0.1c0,0.5,0.1,1.1,0.1,1.6C6.9,10,7,10.5,7,11.1C7,11.1,7,11.1,7,11.1
				z"/>
			<path class="st2" d="M4.1,12.1C4.2,10.7,4.2,9.3,4.3,8c0-0.2,0.1-0.3,0.3-0.3c0.2,0,0.3,0.1,0.3,0.3c0,0.7,0.1,1.5,0.1,2.2
				c0,0.6,0,1.1,0.1,1.7c0,0.5,0,0.9-0.1,1.3c0,0.3-0.1,0.7-0.1,1c0,0.2-0.1,0.3-0.4,0.3c-0.1,0-0.2-0.1-0.2-0.2
				c0-0.1,0-0.3-0.1-0.4c0-0.4-0.1-0.9-0.1-1.3C4.1,12.4,4.1,12.2,4.1,12.1C4.1,12.1,4.1,12.1,4.1,12.1z"/>
			<path class="st2" d="M3.1,12.2c0,0.3-0.1,0.6-0.1,0.9c0,0.4-0.1,0.7-0.1,1.1c0,0.1,0,0.3-0.2,0.3c-0.2,0-0.3,0-0.4-0.3
				c-0.1-0.6-0.1-1.1-0.2-1.7c-0.1-0.5,0-1,0.1-1.6c0,0,0-0.1,0-0.1c0-0.6,0.1-1.1,0.1-1.7c0-0.1,0-0.2,0.1-0.2
				c0.1-0.1,0.1-0.1,0.2-0.1c0.1,0,0.1,0.1,0.2,0.1c0,0.1,0,0.1,0.1,0.2C2.9,10,3,10.8,3.1,11.7C3.1,11.8,3.1,12,3.1,12.2z"/>
			<path class="st2" d="M0.2,12.2c0-0.2,0.1-0.5,0.1-0.8c0-0.2,0.1-0.4,0.1-0.5c0-0.1,0.1-0.1,0.2-0.1c0.1,0,0.2,0,0.2,0.2
				c0.1,0.4,0.2,0.8,0.3,1.2c0,0.2,0,0.4-0.1,0.6c-0.1,0.3-0.1,0.5-0.2,0.8c0,0.1-0.1,0.2-0.2,0.2c-0.1,0-0.2,0-0.2-0.2
				c-0.1-0.4-0.2-0.7-0.2-1.1C0.2,12.3,0.2,12.3,0.2,12.2z"/>
		</g>
	</g>
</g>
</svg>
