<?xml version="1.0" encoding="utf-8"?>
<!-- Generator: Adobe Illustrator 19.1.0, SVG Export Plug-In . SVG Version: 6.00 Build 0)  -->
<svg version="1.1" id="Layer_1" xmlns="http://www.w3.org/2000/svg" xmlns:xlink="http://www.w3.org/1999/xlink" x="0px" y="0px"
	 viewBox="0 0 20 20" style="enable-background:new 0 0 20 20;" xml:space="preserve">
<style type="text/css">
	.st0{fill:#FFFFFF;stroke:#000000;stroke-width:3;stroke-miterlimit:10;}
	.st1{fill:#EB1B3D;}
	.st2{fill:#FFFFFF;}
	.st3{stroke:#FFFFFF;stroke-width:2;stroke-miterlimit:10;}
	.st4{fill:none;stroke:#000000;stroke-width:3;stroke-miterlimit:10;}
	.st5{fill:none;stroke:#FFFFFF;stroke-width:2;stroke-miterlimit:10;}
</style>
<g id="wt4FNo_2_">
	<g>
		<path class="st2" d="M1.6,10.6c0-0.6,0-1.2,0-1.8c0,0,0-0.1,0-0.1c0-0.6,0.1-1.2,0.1-1.8C1.8,6,2.1,5.3,2.7,4.7C3,4.3,3.5,4,4,4
			c0.4,0,0.8-0.1,1.3-0.1c1,0,1.9-0.1,2.9-0.1c2.7,0,5.3,0,8,0.2c0.5,0,0.9,0.2,1.2,0.5c0.5,0.5,0.7,1.1,0.8,1.7
			c0.1,0.6,0.1,1.3,0.2,1.9c0,0.2,0,0.4,0,0.5c0,0.6,0,1.2,0,1.8c0,0,0,0.1,0,0.1c0,0.6-0.1,1.2-0.1,1.8c0,0.8-0.3,1.5-0.8,2.1
			c-0.3,0.4-0.7,0.7-1.3,0.8c-0.4,0.1-0.9,0.1-1.3,0.1c-1.1,0-2.3,0.1-3.4,0.1c-2.5,0-4.9,0-7.4-0.2c-0.5,0-0.9-0.2-1.3-0.6
			c-0.5-0.5-0.9-1.2-1-1.9c-0.1-0.6-0.1-1.3-0.2-1.9C1.7,10.9,1.7,10.8,1.6,10.6z M7.9,12.7c1.7-1,3.5-2,5.2-3c-1.8-1-3.5-2-5.2-3
			C7.9,8.7,7.9,10.7,7.9,12.7z"/>
	</g>
</g>
</svg>
