<!-- Generator: Adobe Illustrator 19.0.1, SVG Export Plug-In  -->
<svg version="1.1"
	 xmlns="http://www.w3.org/2000/svg" xmlns:xlink="http://www.w3.org/1999/xlink" xmlns:a="http://ns.adobe.com/AdobeSVGViewerExtensions/3.0/"
	 x="0px" y="0px" width="52.5px" height="42.4px" viewBox="0 0 52.5 42.4" enable-background="new 0 0 52.5 42.4"
	 xml:space="preserve">
<defs>
</defs>
<g>
	<g>
		<path fill="#1D1E1C" d="M33.3,4.3c-0.1-0.6-0.2-1.1-0.5-1.7c-0.2-0.5-0.6-1-1-1.4c-0.4-0.4-0.9-0.7-1.4-0.9C30,0.1,29.3,0,28.7,0
			c-0.7,0-1.3,0.1-1.8,0.3c-0.5,0.2-1,0.5-1.4,0.9c-0.4,0.4-0.7,0.9-1,1.4c-0.2,0.5-0.4,1.1-0.5,1.7c-0.1,0.4-0.1,0.9-0.1,1.4
			c0,0.5,0,1,0,1.5c0,0.5,0,1,0,1.5c0,0.5,0.1,0.9,0.1,1.4c0.1,0.6,0.2,1.1,0.5,1.7c0.2,0.5,0.6,1,1,1.4c0.4,0.4,0.9,0.7,1.4,0.9
			c0.5,0.2,1.2,0.3,1.8,0.3c0.7,0,1.3-0.1,1.8-0.3c0.5-0.2,1-0.5,1.4-0.9c0.4-0.4,0.7-0.9,1-1.4c0.2-0.5,0.4-1.1,0.5-1.7
			c0.1-0.4,0.1-0.9,0.1-1.3c0-0.5,0-1,0-1.5c0-0.5,0-1,0-1.5C33.4,5.2,33.4,4.8,33.3,4.3z M30.9,8.7c0,0.5-0.1,1-0.1,1.4
			c-0.1,0.5-0.3,0.9-0.6,1.3c-0.4,0.4-0.9,0.5-1.5,0.5c-0.7,0-1.2-0.2-1.6-0.5c-0.4-0.3-0.6-0.8-0.6-1.3c-0.1-0.4-0.1-0.9-0.1-1.4
			c0-0.5,0-1,0-1.5c0-0.5,0-1,0-1.5c0-0.5,0.1-0.9,0.1-1.4c0.1-0.5,0.3-0.9,0.6-1.3c0.4-0.4,0.9-0.5,1.5-0.5c0.7,0,1.2,0.2,1.6,0.5
			c0.4,0.3,0.6,0.8,0.6,1.3c0.1,0.4,0.1,0.9,0.1,1.4c0,0.5,0,1,0,1.5C31,7.7,31,8.2,30.9,8.7z"/>
		<path fill="#1D1E1C" d="M37.8,14.1c0,0,0.1,0,0.2-0.1C38,14,38,13.9,38,13.9V8.8c0-0.2,0.1-0.4,0.4-0.4h1.8c0.6,0,1.1-0.1,1.6-0.3
			c0.5-0.2,0.9-0.5,1.3-0.9c0.4-0.4,0.7-0.8,0.9-1.3c0.2-0.5,0.3-1,0.3-1.6c0-0.6-0.1-1.1-0.3-1.6c-0.2-0.5-0.5-0.9-0.9-1.3
			c-0.4-0.4-0.8-0.7-1.3-0.9c-0.5-0.2-1-0.3-1.6-0.3h-4.5c0,0-0.1,0-0.2,0.1c-0.1,0.1-0.1,0.1-0.1,0.2v13.4c0,0,0,0.1,0.1,0.2
			c0.1,0.1,0.1,0.1,0.2,0.1H37.8z M38,3.1c0-0.2,0.1-0.4,0.4-0.4h1.8c0.4,0,0.8,0.2,1.1,0.5c0.3,0.3,0.5,0.7,0.5,1.1
			c0,0.4-0.2,0.8-0.5,1.1c-0.3,0.3-0.7,0.5-1.1,0.5h-1.9c-0.2,0-0.4-0.2-0.4-0.4V3.1z"/>
		<path fill="#1D1E1C" d="M51.8,28.2c-0.4-0.2-0.9-0.2-1.1,0.2c-0.1,0.1-0.7,1-0.8,1.2c-3.8,5.1-9.2,8.7-15.4,10.1
			c-1.9,0.4-3.9,0.7-5.9,0.7l-0.9,0c-0.6,0-1.3-0.1-1.9-0.1l-0.3,0c-0.1,0-0.2,0-0.3,0c-4.6-0.6-9.1-2.4-12.8-5.3l-0.1-0.1
			c-0.1-0.1-0.2-0.2-0.3-0.3l-0.4-0.3c-4.1-3.3-7.2-8-8.6-13.1C2.3,19,2,16.6,2,14.3c0-0.8,0.1-1.7,0.1-2.5c0,0,0,0,0,0
			c0.1-0.3,0.1-0.7,0.2-1.2l0.1-0.3c0-0.2,0.1-0.3,0.1-0.5c0-0.1,0-0.2,0.1-0.3l0,0C2.7,9.2,2.8,9,3,8.9c0.1-0.2,0.3-0.3,0.5-0.3
			C3.6,8.5,3.8,8.4,4,8.4c0.3,0,0.4,0,0.5,0h6.7v0h2.4c0.2,0,0.4,0.2,0.4,0.4v5.1c0,0,0,0.1,0.1,0.2c0.1,0.1,0.1,0.1,0.2,0.1h2
			c0,0,0.1,0,0.2-0.1c0.1-0.1,0.1-0.1,0.1-0.2V8.8c0-0.2,0.2-0.4,0.4-0.4h1.8c0.6,0,1.1-0.1,1.6-0.3c0.5-0.2,0.9-0.5,1.3-0.9
			c0.4-0.4,0.7-0.8,0.9-1.3c0.2-0.5,0.3-1,0.3-1.6c0-0.6-0.1-1.1-0.3-1.6c-0.2-0.5-0.5-0.9-0.9-1.3c-0.4-0.4-0.8-0.7-1.3-0.9
			c-0.5-0.2-1-0.3-1.6-0.3h-4.5c0,0-0.1,0-0.2,0.1c-0.1,0.1-0.1,0.1-0.1,0.2V6c0,0.2-0.2,0.4-0.4,0.4H4.8H4.6
			c-0.4,0-0.6,0.1-0.8,0.1c-0.5,0-0.9,0.2-1.3,0.4C2.1,7,1.7,7.3,1.4,7.6C1.1,7.9,0.9,8.3,0.7,8.8l0,0L0.5,9.5c0,0-0.1,0.6-0.2,1.2
			C0,11.7,0,12.7,0,13.6c0,0,0,0.4,0,0.4c0,1.7,0.1,3.4,0.4,5.1c0.1,0.8,0.3,1.6,0.5,2.5c1.2,5.2,4.4,9.9,8.2,13.4
			c0.2,0.2,0.4,0.3,0.5,0.5c0.1,0.1,0.2,0.2,0.3,0.3c0.2,0.2,0.5,0.4,0.7,0.6l0.1,0c4.3,3.4,9.5,5.5,15,6l0,0c0.1,0,0.2,0,0.3,0
			c0.3,0,0.6,0,0.9,0.1c0.2,0,0.3,0,0.5,0c0.2,0,0.3,0,0.5,0l0.2,0c0.1,0,0.2,0,0.2,0c2.2,0,4.3-0.2,6.5-0.7
			c6.6-1.5,12.5-5.4,16.5-10.8c0.1-0.2,0.8-1.1,0.9-1.3c0.1-0.2,0.2-0.4,0.1-0.6c0-0.2-0.2-0.4-0.4-0.5L51.8,28.2z M16.3,3.1
			c0-0.2,0.1-0.4,0.4-0.4h1.8c0.4,0,0.8,0.2,1.1,0.5c0.3,0.3,0.5,0.7,0.5,1.1c0,0.4-0.2,0.8-0.5,1.1c-0.3,0.3-0.7,0.5-1.1,0.5
			l-1.8,0c-0.2,0-0.4-0.2-0.4-0.4V3.1z"/>
	</g>
	<g>
	</g>
</g>
</svg>
