<?xml version="1.0" encoding="utf-8"?>
<!-- Generator: Adobe Illustrator 19.0.1, SVG Export Plug-In . SVG Version: 6.00 Build 0)  -->
<!DOCTYPE svg PUBLIC "-//W3C//DTD SVG 1.1//EN" "http://www.w3.org/Graphics/SVG/1.1/DTD/svg11.dtd">
<svg version="1.1" id="Layer_1" xmlns="http://www.w3.org/2000/svg" xmlns:xlink="http://www.w3.org/1999/xlink" x="0px" y="0px"
	 viewBox="-394 276.9 52.5 42.4" style="enable-background:new -394 276.9 52.5 42.4;" xml:space="preserve">
<style type="text/css">
	.st0{fill:#FFFFFF;}
</style>
<g>
	<g>
		<path class="st0" d="M-360.7,281.2c-0.1-0.6-0.2-1.1-0.5-1.7c-0.2-0.5-0.6-1-1-1.4c-0.4-0.4-0.9-0.7-1.4-0.9
			c-0.4-0.2-1.1-0.3-1.7-0.3c-0.7,0-1.3,0.1-1.8,0.3c-0.5,0.2-1,0.5-1.4,0.9c-0.4,0.4-0.7,0.9-1,1.4c-0.2,0.5-0.4,1.1-0.5,1.7
			c-0.1,0.4-0.1,0.9-0.1,1.4s0,1,0,1.5s0,1,0,1.5s0.1,0.9,0.1,1.4c0.1,0.6,0.2,1.1,0.5,1.7c0.2,0.5,0.6,1,1,1.4
			c0.4,0.4,0.9,0.7,1.4,0.9c0.5,0.2,1.2,0.3,1.8,0.3c0.7,0,1.3-0.1,1.8-0.3c0.5-0.2,1-0.5,1.4-0.9c0.4-0.4,0.7-0.9,1-1.4
			c0.2-0.5,0.4-1.1,0.5-1.7c0.1-0.4,0.1-0.9,0.1-1.3c0-0.5,0-1,0-1.5s0-1,0-1.5C-360.6,282.1-360.6,281.7-360.7,281.2z
			 M-363.1,285.6c0,0.5-0.1,1-0.1,1.4c-0.1,0.5-0.3,0.9-0.6,1.3c-0.4,0.4-0.9,0.5-1.5,0.5c-0.7,0-1.2-0.2-1.6-0.5
			c-0.4-0.3-0.6-0.8-0.6-1.3c-0.1-0.4-0.1-0.9-0.1-1.4s0-1,0-1.5s0-1,0-1.5s0.1-0.9,0.1-1.4c0.1-0.5,0.3-0.9,0.6-1.3
			c0.4-0.4,0.9-0.5,1.5-0.5c0.7,0,1.2,0.2,1.6,0.5c0.4,0.3,0.6,0.8,0.6,1.3c0.1,0.4,0.1,0.9,0.1,1.4s0,1,0,1.5
			C-363,284.6-363,285.1-363.1,285.6z"/>
		<path class="st0" d="M-356.2,291c0,0,0.1,0,0.2-0.1v-0.1v-5.1c0-0.2,0.1-0.4,0.4-0.4h1.8c0.6,0,1.1-0.1,1.6-0.3
			c0.5-0.2,0.9-0.5,1.3-0.9c0.4-0.4,0.7-0.8,0.9-1.3s0.3-1,0.3-1.6c0-0.6-0.1-1.1-0.3-1.6s-0.5-0.9-0.9-1.3s-0.8-0.7-1.3-0.9
			s-1-0.3-1.6-0.3h-4.5c0,0-0.1,0-0.2,0.1c-0.1,0.1-0.1,0.1-0.1,0.2v13.4c0,0,0,0.1,0.1,0.2s0.1,0.1,0.2,0.1h2.1V291z M-356,280
			c0-0.2,0.1-0.4,0.4-0.4h1.8c0.4,0,0.8,0.2,1.1,0.5c0.3,0.3,0.5,0.7,0.5,1.1c0,0.4-0.2,0.8-0.5,1.1c-0.3,0.3-0.7,0.5-1.1,0.5h-1.9
			c-0.2,0-0.4-0.2-0.4-0.4V280H-356z"/>
		<path class="st0" d="M-342.2,305.1c-0.4-0.2-0.9-0.2-1.1,0.2c-0.1,0.1-0.7,1-0.8,1.2c-3.8,5.1-9.2,8.7-15.4,10.1
			c-1.9,0.4-3.9,0.7-5.9,0.7h-0.9c-0.6,0-1.3-0.1-1.9-0.1h-0.3c-0.1,0-0.2,0-0.3,0c-4.6-0.6-9.1-2.4-12.8-5.3l-0.1-0.1
			c-0.1-0.1-0.2-0.2-0.3-0.3l-0.4-0.3c-4.1-3.3-7.2-8-8.6-13.1c-0.7-2.2-1-4.6-1-6.9c0-0.8,0.1-1.7,0.1-2.5l0,0
			c0.1-0.3,0.1-0.7,0.2-1.2l0.1-0.3c0-0.2,0.1-0.3,0.1-0.5c0-0.1,0-0.2,0.1-0.3l0,0c0.1-0.3,0.2-0.5,0.4-0.6
			c0.1-0.2,0.3-0.3,0.5-0.3c0.1-0.1,0.3-0.2,0.5-0.2c0.3,0,0.4,0,0.5,0h6.7l0,0h2.4c0.2,0,0.4,0.2,0.4,0.4v5.1c0,0,0,0.1,0.1,0.2
			s0.1,0.1,0.2,0.1h2c0,0,0.1,0,0.2-0.1s0.1-0.1,0.1-0.2v-5.1c0-0.2,0.2-0.4,0.4-0.4h1.8c0.6,0,1.1-0.1,1.6-0.3
			c0.5-0.2,0.9-0.5,1.3-0.9c0.4-0.4,0.7-0.8,0.9-1.3c0.2-0.5,0.3-1,0.3-1.6c0-0.6-0.1-1.1-0.3-1.6c-0.2-0.5-0.5-0.9-0.9-1.3
			c-0.4-0.4-0.8-0.7-1.3-0.9s-1-0.3-1.6-0.3h-4.5c0,0-0.1,0-0.2,0.1c-0.1,0.1-0.1,0.1-0.1,0.2v5.5c0,0.2-0.2,0.4-0.4,0.4h-8.8h-0.2
			c-0.4,0-0.6,0.1-0.8,0.1c-0.5,0-0.9,0.2-1.3,0.4c-0.4,0.1-0.8,0.4-1.1,0.7c-0.3,0.3-0.5,0.7-0.7,1.2l0,0l-0.2,0.7
			c0,0-0.1,0.6-0.2,1.2c-0.3,1-0.3,2-0.3,2.9v0.4c0,1.7,0.1,3.4,0.4,5.1c0.1,0.8,0.3,1.6,0.5,2.5c1.2,5.2,4.4,9.9,8.2,13.4
			c0.2,0.2,0.4,0.3,0.5,0.5c0.1,0.1,0.2,0.2,0.3,0.3c0.2,0.2,0.5,0.4,0.7,0.6h0.1c4.3,3.4,9.5,5.5,15,6l0,0c0.1,0,0.2,0,0.3,0
			c0.3,0,0.6,0,0.9,0.1c0.2,0,0.3,0,0.5,0c0.2,0,0.3,0,0.5,0h0.2c0.1,0,0.2,0,0.2,0c2.2,0,4.3-0.2,6.5-0.7
			c6.6-1.5,12.5-5.4,16.5-10.8c0.1-0.2,0.8-1.1,0.9-1.3c0.1-0.2,0.2-0.4,0.1-0.6c0-0.2-0.2-0.4-0.4-0.5L-342.2,305.1z M-377.7,280
			c0-0.2,0.1-0.4,0.4-0.4h1.8c0.4,0,0.8,0.2,1.1,0.5c0.3,0.3,0.5,0.7,0.5,1.1c0,0.4-0.2,0.8-0.5,1.1c-0.3,0.3-0.7,0.5-1.1,0.5h-1.8
			c-0.2,0-0.4-0.2-0.4-0.4V280z"/>
	</g>
</g>
</svg>
