<?xml version="1.0" encoding="utf-8"?>
<!-- Generator: Adobe Illustrator 19.0.1, SVG Export Plug-In . SVG Version: 6.00 Build 0)  -->
<!DOCTYPE svg PUBLIC "-//W3C//DTD SVG 1.1//EN" "http://www.w3.org/Graphics/SVG/1.1/DTD/svg11.dtd">
<svg version="1.1" id="Layer_1" xmlns="http://www.w3.org/2000/svg" xmlns:xlink="http://www.w3.org/1999/xlink" x="0px" y="0px"
	 viewBox="-394 276.6 52 42.7" style="enable-background:new -394 276.6 52 42.7;" xml:space="preserve">
<style type="text/css">
	.st0{fill:#FFFFFF;}
</style>
<path class="st0" d="M-385.6,315.6c-0.1-0.1-0.3-0.2-0.5-0.2h-0.2c-0.2,0-0.4,0.1-0.5,0.2c-0.1,0.1-0.2,0.3-0.2,0.5v0.2
	c0,0.4,0.1,0.8,0.2,1.1c0.1,0.4,0.4,0.7,0.6,0.9c0.3,0.3,0.6,0.5,1,0.6c0.4,0.2,0.8,0.2,1.2,0.2s0.8-0.1,1.1-0.2
	c0.4-0.1,0.7-0.3,1-0.6c0.3-0.3,0.5-0.6,0.7-0.9c0.2-0.4,0.2-0.8,0.2-1.2s-0.1-0.8-0.2-1.1c-0.1-0.3-0.3-0.6-0.6-0.8
	c-0.2-0.2-0.5-0.4-0.8-0.5c-0.3-0.1-0.6-0.2-1-0.4l-0.7-0.2c-0.2-0.1-0.4-0.1-0.5-0.2c-0.1-0.1-0.2-0.1-0.3-0.3
	c-0.1-0.1-0.1-0.2-0.1-0.4c0-0.1,0-0.3,0.1-0.4c0-0.1,0.1-0.2,0.2-0.3c0.1,0.1,0.2,0,0.4,0c0.3-0.1,0.7-0.1,1,0
	c0.1,0.1,0.2,0.1,0.3,0.2c0.1,0.1,0.2,0.2,0.2,0.3c0.1,0.1,0.1,0.3,0.1,0.4v0.2c0,0.2,0.1,0.4,0.2,0.5c0.1,0.1,0.3,0.2,0.5,0.2h0.2
	c0.2,0,0.4-0.1,0.5-0.2s0.2-0.3,0.2-0.5v-0.2c0-0.4-0.1-0.7-0.2-1c-0.1-0.3-0.3-0.6-0.6-0.9c-0.2-0.2-0.5-0.4-0.9-0.6
	c-0.6-0.3-1.5-0.3-2.2,0c-0.3,0.1-0.6,0.3-0.9,0.5c-0.3,0.2-0.5,0.5-0.6,0.9c-0.2,0.3-0.2,0.7-0.2,1.1c0,0.4,0.1,0.8,0.2,1.1
	c0.2,0.3,0.4,0.5,0.6,0.7c0.2,0.2,0.5,0.3,0.8,0.4c0.3,0.1,0.5,0.2,0.7,0.2l0.9,0.3c0.2,0.1,0.4,0.1,0.5,0.2
	c0.1,0.1,0.2,0.2,0.3,0.3s0.1,0.3,0.1,0.5c0,0.4-0.1,0.7-0.3,0.9c-0.2,0.2-0.5,0.3-1,0.3c-0.2,0-0.4,0-0.6-0.1
	c-0.2-0.1-0.3-0.2-0.4-0.3c-0.1-0.1-0.2-0.2-0.2-0.4c-0.1-0.2-0.1-0.3-0.1-0.5v-0.2C-385.3,315.9-385.4,315.8-385.6,315.6z"/>
<path class="st0" d="M-377.7,309.9h-2c-0.2,0-0.4,0.1-0.5,0.2c-0.1,0.1-0.2,0.3-0.2,0.5v7.9c0,0.2,0.1,0.4,0.2,0.5
	c0.1,0.1,0.3,0.2,0.5,0.2h0.3c0.2,0,0.4-0.1,0.5-0.2c0.1-0.1,0.2-0.3,0.2-0.5v-2.6h1c0.4,0,0.8-0.1,1.2-0.2c0.4-0.2,0.7-0.4,0.9-0.6
	c0.3-0.3,0.5-0.6,0.6-0.9c0.2-0.4,0.2-0.8,0.2-1.2c0-0.4-0.1-0.8-0.2-1.2c-0.2-0.4-0.4-0.7-0.6-0.9c-0.3-0.3-0.6-0.5-0.9-0.6
	C-376.9,310-377.3,309.9-377.7,309.9z M-376.4,312.9c0,0.2,0,0.3-0.1,0.5c-0.1,0.2-0.2,0.3-0.3,0.4c-0.1,0.1-0.3,0.2-0.4,0.3
	c-0.2,0.1-0.3,0.1-0.5,0.1h-1v-2.5h1c0.2,0,0.3,0,0.5,0.1c0.2,0.1,0.3,0.2,0.4,0.3c0.1,0.1,0.2,0.2,0.3,0.4
	C-376.4,312.5-376.4,312.7-376.4,312.9z"/>
<path class="st0" d="M-368.1,311.6c-0.2-0.3-0.4-0.7-0.6-0.9c-0.3-0.3-0.6-0.5-0.9-0.7c-0.4-0.2-0.8-0.2-1.2-0.2
	c-0.5,0-0.9,0.1-1.2,0.2c-0.4,0.2-0.7,0.4-0.9,0.7c-0.3,0.3-0.5,0.6-0.6,0.9c-0.2,0.3-0.3,0.7-0.3,1.1c0,0.2-0.1,0.5-0.1,0.9
	c0,0.3,0,0.6,0,1c0,0.3,0,0.7,0,1s0,0.6,0.1,0.9c0.1,0.9,0.5,1.6,1,2.1c0.6,0.5,1.3,0.8,2.1,0.8c0.8,0,1.6-0.3,2.1-0.8
	c0.6-0.5,0.9-1.2,1-2.1c0-0.2,0.1-0.5,0.1-0.9c0-0.3,0-0.7,0-1s0-0.7,0-1s0-0.6-0.1-0.9C-367.9,312.3-368,312-368.1,311.6z
	 M-369.5,315.5c0,0.3,0,0.6-0.1,0.8c0,0.1-0.1,0.3-0.1,0.5c-0.1,0.1-0.1,0.3-0.3,0.4c-0.1,0.1-0.2,0.2-0.4,0.3
	c-0.2,0.1-0.4,0.1-0.6,0.1s-0.5,0-0.6-0.1c-0.2-0.1-0.3-0.2-0.4-0.3s-0.2-0.3-0.3-0.4c-0.1-0.2-0.1-0.3-0.1-0.5
	c0-0.2-0.1-0.5-0.1-0.8c0-0.3,0-0.6,0-0.9c0-0.3,0-0.6,0-0.9c0-0.3,0-0.6,0.1-0.8c0-0.2,0.1-0.3,0.1-0.5c0.1-0.2,0.2-0.3,0.3-0.4
	s0.2-0.2,0.4-0.3c0.2-0.1,0.3-0.1,0.6-0.1c0.2,0,0.4,0,0.6,0.1c0.2,0.1,0.3,0.2,0.4,0.3s0.2,0.3,0.3,0.4c0.1,0.2,0.1,0.3,0.1,0.5
	c0,0.2,0,0.5,0.1,0.8c0,0.3,0,0.6,0,0.9C-369.5,314.9-369.4,315.2-369.5,315.5z"/>
<path class="st0" d="M-366.2,309.9c-0.2,0-0.4,0.1-0.5,0.2c-0.2,0.1-0.3,0.3-0.3,0.5v7.9c0,0.2,0.1,0.4,0.2,0.5
	c0.1,0.1,0.3,0.2,0.5,0.2h0.3c0.2,0,0.4-0.1,0.5-0.2c0.1-0.1,0.2-0.3,0.2-0.5v-2.6h0.8l1.5,2.9c0.1,0.1,0.1,0.2,0.2,0.3
	c0.1,0.1,0.3,0.2,0.5,0.2h0.3c0.4,0,0.6-0.3,0.6-0.4c0.1-0.1,0.1-0.2,0.1-0.3s0-0.2-0.1-0.4l-1.4-2.7c0.4-0.3,0.7-0.6,1-1
	c0.3-0.4,0.5-1,0.5-1.6c0-0.4-0.1-0.8-0.2-1.2c-0.2-0.4-0.4-0.7-0.6-0.9c-0.3-0.3-0.6-0.5-0.9-0.6c-0.4-0.2-0.8-0.2-1.2-0.2h-2
	V309.9z M-363.3,312c0.1,0.1,0.2,0.3,0.3,0.4c0.1,0.2,0.1,0.3,0.1,0.5c0,0.2,0,0.3-0.1,0.5c-0.1,0.2-0.2,0.3-0.3,0.4
	c-0.1,0.1-0.3,0.2-0.4,0.3c-0.2,0.1-0.3,0.1-0.5,0.1h-1v-2.5h1c0.2,0,0.3,0,0.5,0.1C-363.6,311.8-363.5,311.9-363.3,312z"/>
<path class="st0" d="M-343.5,296.3L-343.5,296.3c-0.1-0.4-0.3-0.8-0.4-1.1l-0.1-0.3c-0.1-0.3-0.2-0.5-0.3-0.8
	c-0.1-0.2-0.2-0.4-0.2-0.6l-0.2-0.4c-1.6-3.5-3.9-6.6-6.7-9.2c-0.2,0-0.4-0.2-0.6-0.3l-0.3-0.3c-0.2-0.2-0.4-0.4-0.7-0.6h-0.1
	c-4.3-3.4-9.5-5.5-15-6h-0.3c-0.3,0-0.6,0-0.9-0.1c-0.2,0-0.3,0-0.5,0c-0.2,0-0.8,0-0.9,0c-2.2,0-4.3,0.2-6.4,0.7
	c-6.8,1.6-12.7,5.6-16.8,11.4c-0.1,0.1-0.1,0.3-0.1,0.5c0,0.2,0.1,0.4,0.3,0.5l0.3,0.2c0.1,0.1,0.2,0.1,0.4,0.1s0.5-0.1,0.6-0.3
	c3.8-5.4,9.4-9.1,15.8-10.6c1.9-0.4,3.9-0.7,5.9-0.7h0.1c0.9,0,1.8,0,2.7,0.1l0.6,0.1c4.7,0.6,9.1,2.4,12.9,5.3l0.4,0.3l0.4,0.3
	c5.3,4.4,8.5,10.5,9.4,17.3c0.2,1.3,0.3,2.7,0.3,4c0,1,0.2,2-0.2,2.9c-0.2,0.6-0.8,1.1-1.5,1.1c0,0-0.1,0-0.2,0h-0.1h-0.1h-3.6l0,0
	h-9.2h-1.6c-0.2,0-0.4,0.1-0.5,0.2c-0.1,0.2-0.1,0.4-0.1,0.6v0.3c0,0.2,0.1,0.4,0.2,0.5c0.1,0.1,0.3,0.2,0.5,0.2h1.4v6.9
	c0,0.2,0.1,0.4,0.2,0.5c0.1,0.1,0.3,0.2,0.5,0.2h0.3c0.2,0,0.4-0.1,0.5-0.2c0.1-0.1,0.2-0.3,0.2-0.5v-6.9h7.7l0,0h3.5h0.1
	c0.1,0,0.2,0,0.3,0s0.2,0,0.3,0c0.4,0,0.9-0.2,1.3-0.3c0.4-0.2,0.8-0.5,1.1-0.8c0.3-0.3,0.5-0.7,0.6-1.1v-0.1l0.2-0.6l0.1-1.4
	C-342,303.6-342.3,299.8-343.5,296.3z"/>
</svg>
