<!-- Generator: Adobe Illustrator 19.0.1, SVG Export Plug-In  -->
<svg version="1.1"
	 xmlns="http://www.w3.org/2000/svg" xmlns:xlink="http://www.w3.org/1999/xlink" xmlns:a="http://ns.adobe.com/AdobeSVGViewerExtensions/3.0/"
	 x="0px" y="0px" width="196.4px" height="19.3px" viewBox="0 0 196.4 19.3" style="enable-background:new 0 0 196.4 19.3;"
	 xml:space="preserve">
<style type="text/css">
	.st0{fill:#1D1D1B;}
	.st1{fill:none;stroke:#1D1D1B;stroke-miterlimit:10;}
</style>
<defs>
</defs>
<g>
	<g>
		<path class="st0" d="M16.2,0h1.4v15h-1.4v-1.4c-0.6,0.8-2,1.6-3.3,1.6c-1.5,0-2.7-0.5-3.5-1.5c-0.8-1-1.2-2.4-1.2-4
			s0.4-2.9,1.2-3.9c0.8-1,2-1.6,3.5-1.6c1.2,0,2.6,0.7,3.3,1.7V0z M12.9,13.9c2.2,0,3.4-1.8,3.4-4.3c0-1.2-0.3-2.3-0.9-3.1
			c-0.6-0.8-1.4-1.2-2.5-1.2c-1.1,0-1.9,0.4-2.5,1.2C9.8,7.4,9.5,8.4,9.5,9.7C9.5,12.2,10.7,13.9,12.9,13.9z"/>
		<path class="st0" d="M20.7,9.7c0-1.5,0.5-2.8,1.4-3.9s2.1-1.7,3.6-1.7c1.5,0,2.7,0.6,3.6,1.7c0.9,1.1,1.4,2.4,1.4,3.9
			s-0.5,2.8-1.4,3.9c-0.9,1.1-2.1,1.7-3.6,1.7c-1.5,0-2.7-0.6-3.6-1.7C21.2,12.4,20.7,11.1,20.7,9.7z M22.1,9.7c0,1.2,0.3,2.2,1,3
			c0.7,0.8,1.5,1.3,2.7,1.3s2-0.4,2.6-1.3c0.7-0.8,1-1.8,1-3s-0.3-2.2-1-3c-0.6-0.8-1.5-1.3-2.6-1.3s-2,0.4-2.7,1.3
			C22.4,7.5,22.1,8.5,22.1,9.7z"/>
		<path class="st0" d="M33.9,0h1.3v15h-1.3V0z"/>
		<path class="st0" d="M38.3,9.7c0-1.5,0.5-2.8,1.4-3.9s2.1-1.7,3.6-1.7c1.5,0,2.7,0.6,3.6,1.7c0.9,1.1,1.4,2.4,1.4,3.9
			s-0.5,2.8-1.4,3.9c-0.9,1.1-2.1,1.7-3.6,1.7c-1.5,0-2.7-0.6-3.6-1.7C38.7,12.4,38.3,11.1,38.3,9.7z M39.6,9.7c0,1.2,0.3,2.2,1,3
			c0.7,0.8,1.5,1.3,2.7,1.3s2-0.4,2.6-1.3c0.7-0.8,1-1.8,1-3s-0.3-2.2-1-3c-0.6-0.8-1.5-1.3-2.6-1.3s-2,0.4-2.7,1.3
			C40,7.5,39.6,8.5,39.6,9.7z"/>
		<path class="st0" d="M51.3,4.3h1.3v7.2c0,1.6,0.7,2.5,2.2,2.5c1,0,1.8-0.4,2.5-1.4c0.7-0.9,1-2.1,1-3.6V4.3h1.3V15h-1.3v-2.2
			c-0.7,1.4-2.1,2.4-3.7,2.4c-2,0-3.3-1.3-3.3-3.5V4.3z"/>
		<path class="st0" d="M69.2,5.8c-0.5-0.3-1-0.4-1.5-0.4c-1.7,0-2.9,2-2.9,5.5V15h-1.3V4.3h1.3v1.9c0.7-1.4,1.7-2.1,3.1-2.1
			c0.5,0,1,0.1,1.6,0.4L69.2,5.8z"/>
		<path class="st0" d="M84,7.7v1.4L77,13v-1.3l6-3.2l-6-3.2V3.9L84,7.7z"/>
		<path class="st0" d="M93,7.7v1.4L85.9,13v-1.3l6-3.2l-6-3.2V3.9L93,7.7z"/>
		<path class="st0" d="M107.7,5.8l-0.9,0.8c-0.6-0.8-1.3-1.2-2.1-1.2c-0.9,0-1.6,0.7-1.6,1.6c0,0.8,0.8,1.4,1.8,1.8
			c1.4,0.6,3.3,1.3,3.3,3.1c0,2.1-1.3,3.3-3.3,3.3c-2.1,0-3.4-1.3-3.9-2.9l1.2-0.6c0.5,1.5,1.2,2.3,2.7,2.3c1.2,0,1.9-0.7,1.9-1.9
			c0-0.9-0.8-1.5-1.8-1.9c-1.4-0.6-3.3-1.2-3.3-3.2c0-1.7,1.3-2.9,3-2.9C106,4.2,107,4.7,107.7,5.8z"/>
		<path class="st0" d="M110.1,5.5V4.3h1.9V0.9l1.4-0.9v4.3h2.8v1.2h-2.8v6.6c0,1.2,0.5,1.8,1.5,1.8c0.5,0,1-0.1,1.3-0.3l0.4,1.2
			c-0.5,0.3-1.1,0.4-1.9,0.4c-1.6,0-2.7-1.1-2.7-3.2V5.5H110.1z"/>
		<path class="st0" d="M126.5,15h-1l-0.3-1.7c-0.7,1.2-1.8,1.8-3.4,1.8c-1.9,0-3.3-1-3.3-3.2c0-2.3,1.8-3.5,4.9-3.5h1.8V8
			c0-1.8-0.9-2.6-2.5-2.6c-1.3,0-2.1,0.7-2.5,2L119,7.1c0.3-1.8,1.9-2.9,3.8-2.9c1.1,0,2,0.3,2.7,1c0.7,0.7,1.1,1.6,1.1,2.8V15z
			 M122,13.9c0.8,0,1.6-0.3,2.2-1c0.7-0.6,1-1.6,1-2.9V9.7h-1.7c-2.4,0-3.6,0.8-3.6,2.3C119.9,13.2,120.7,13.9,122,13.9z"/>
		<path class="st0" d="M135.9,4.3h1.4l-5.3,15h-1.3l1.5-4.4l-3.8-10.6h1.4l3.2,8.6L135.9,4.3z"/>
		<path class="st0" d="M139.7,4.3h1.3v7.2c0,1.6,0.7,2.5,2.2,2.5c1,0,1.8-0.4,2.5-1.4c0.7-0.9,1-2.1,1-3.6V4.3h1.3V15h-1.3v-2.2
			c-0.7,1.4-2.1,2.4-3.7,2.4c-2,0-3.3-1.3-3.3-3.5V4.3z"/>
		<path class="st0" d="M153.2,19.3h-1.4v-15h1.4v1.4c0.6-0.8,2-1.6,3.3-1.6c1.5,0,2.7,0.5,3.5,1.6c0.8,1,1.3,2.4,1.3,3.9
			s-0.4,2.9-1.3,4c-0.8,1-2,1.5-3.5,1.5c-1.2,0-2.6-0.7-3.3-1.7V19.3z M156.4,5.4c-2.2,0-3.4,1.8-3.4,4.3c0,1.2,0.3,2.3,0.9,3.1
			c0.6,0.8,1.5,1.2,2.5,1.2c1.1,0,1.9-0.4,2.5-1.2c0.6-0.8,0.9-1.8,0.9-3.1C159.9,7.1,158.6,5.4,156.4,5.4z"/>
		<path class="st0" d="M164.5,0h1.3v15h-1.3V0z"/>
		<path class="st0" d="M176.9,15h-1l-0.3-1.7c-0.7,1.2-1.8,1.8-3.4,1.8c-1.9,0-3.3-1-3.3-3.2c0-2.3,1.8-3.5,4.9-3.5h1.8V8
			c0-1.8-0.9-2.6-2.5-2.6c-1.3,0-2.1,0.7-2.5,2l-1.3-0.3c0.3-1.8,1.9-2.9,3.8-2.9c1.1,0,2,0.3,2.7,1c0.7,0.7,1.1,1.6,1.1,2.8V15z
			 M172.4,13.9c0.8,0,1.6-0.3,2.2-1c0.7-0.6,1-1.6,1-2.9V9.7h-1.7c-2.4,0-3.6,0.8-3.6,2.3C170.3,13.2,171.1,13.9,172.4,13.9z"/>
		<path class="st0" d="M179,5.5V4.3h1.9V0.9l1.4-0.9v4.3h2.8v1.2h-2.8v6.6c0,1.2,0.5,1.8,1.5,1.8c0.5,0,1-0.1,1.3-0.3l0.4,1.2
			c-0.5,0.3-1.1,0.4-1.9,0.4c-1.6,0-2.7-1.1-2.7-3.2V5.5H179z"/>
		<path class="st0" d="M196.4,9.7h-8c0,2.5,1.3,4.3,3.4,4.3c1.6,0,2.5-0.7,3.3-2.3l1.2,0.6c-1.1,2.1-2.4,2.9-4.4,2.9
			c-1.4,0-2.6-0.5-3.4-1.5c-0.9-1-1.3-2.4-1.3-4s0.4-2.9,1.3-3.9c0.9-1,2-1.6,3.4-1.6c1.4,0,2.5,0.4,3.4,1.4
			c0.9,0.9,1.3,2.1,1.3,3.6V9.7z M188.4,8.4h6.6c-0.3-1.9-1.4-3-3.3-3C190,5.4,188.8,6.6,188.4,8.4z"/>
	</g>
	<line class="st1" x1="69.5" y1="9.2" x2="0" y2="9.2"/>
</g>
</svg>
