<!-- Generator: Adobe Illustrator 19.0.1, SVG Export Plug-In  -->
<svg version="1.1"
	 xmlns="http://www.w3.org/2000/svg" xmlns:xlink="http://www.w3.org/1999/xlink" xmlns:a="http://ns.adobe.com/AdobeSVGViewerExtensions/3.0/"
	 x="0px" y="0px" width="157.7px" height="21.5px" viewBox="0 0 157.7 21.5" style="enable-background:new 0 0 157.7 21.5;"
	 xml:space="preserve">
<style type="text/css">
	.st0{fill:#1D1D1B;}
</style>
<defs>
</defs>
<g>
	<path class="st0" d="M0,21.2v-0.7l7.6-9.9c1-1.2,1.6-2.2,1.9-2.8C9.8,7.2,10,6.4,10,5.5c0-2.4-1.4-3.8-3.7-3.8
		c-2.2,0-3.7,1.7-4.1,4.2L0.4,5.6c0.2-1.6,0.8-3,1.8-4S4.7,0,6.3,0c3.3,0,5.6,2.1,5.6,5.6c0,1.6-0.8,3.5-2.5,5.7l-6.4,8.3h9.5v1.7H0
		z"/>
	<path class="st0" d="M23.2,0c2.4,0,4.1,1,5.4,2.9c1.2,1.9,1.9,4.5,1.9,7.8s-0.6,5.9-1.9,7.9c-1.2,1.9-3,2.9-5.4,2.9
		c-2.4,0-4.2-1-5.4-2.9c-1.2-2-1.8-4.6-1.8-7.9s0.6-5.9,1.8-7.8C19.1,1,20.9,0,23.2,0z M23.2,1.7c-1.6,0-3,0.8-3.9,2.5
		c-0.9,1.6-1.4,3.8-1.4,6.6s0.5,4.9,1.4,6.6c0.9,1.6,2.2,2.5,3.9,2.5s3-0.8,3.9-2.5c0.9-1.6,1.4-3.8,1.4-6.6s-0.5-4.9-1.4-6.6
		C26.2,2.5,24.9,1.7,23.2,1.7z"/>
	<path class="st0" d="M41.9,0c2.4,0,4.1,1,5.4,2.9c1.2,1.9,1.9,4.5,1.9,7.8s-0.6,5.9-1.9,7.9c-1.2,1.9-3,2.9-5.4,2.9
		c-2.4,0-4.2-1-5.4-2.9c-1.2-2-1.8-4.6-1.8-7.9s0.6-5.9,1.8-7.8C37.8,1,39.6,0,41.9,0z M41.9,1.7c-1.6,0-3,0.8-3.9,2.5
		c-0.9,1.6-1.4,3.8-1.4,6.6s0.5,4.9,1.4,6.6c0.9,1.6,2.2,2.5,3.9,2.5s3-0.8,3.9-2.5c0.9-1.6,1.4-3.8,1.4-6.6s-0.5-4.9-1.4-6.6
		C44.9,2.5,43.6,1.7,41.9,1.7z"/>
	<path class="st0" d="M55.1,15.4c0.4,2.9,1.8,4.4,4.3,4.4c3,0,4.6-2,4.6-5.4c0-3.6-1.7-5.4-4.6-5.4c-1.8,0-3.2,0.9-4.3,2.8l-1.3-0.3
		l1.1-11.3h9.8v1.7h-8.1l-0.8,7.1c1.1-1.2,2.3-1.7,3.8-1.7c3.9,0,6.3,2.7,6.3,7.1c0,2.1-0.6,3.8-1.7,5.1c-1.2,1.3-2.7,2-4.7,2
		c-3.3,0-5.7-2-6.1-5.8L55.1,15.4z"/>
	<path class="st0" d="M78.3,12.6v-1.7h9.9v1.7H78.3z"/>
	<path class="st0" d="M100.7,21.2v-0.7l7.6-9.9c1-1.2,1.6-2.2,1.9-2.8c0.3-0.7,0.4-1.4,0.4-2.3c0-2.4-1.4-3.8-3.7-3.8
		c-2.2,0-3.7,1.7-4.1,4.2l-1.7-0.3c0.2-1.6,0.8-3,1.8-4s2.4-1.6,4-1.6c3.3,0,5.6,2.1,5.6,5.6c0,1.6-0.8,3.5-2.5,5.7l-6.4,8.3h9.5
		v1.7H100.7z"/>
	<path class="st0" d="M123.9,0c2.4,0,4.1,1,5.4,2.9c1.2,1.9,1.9,4.5,1.9,7.8s-0.6,5.9-1.9,7.9c-1.2,1.9-3,2.9-5.4,2.9
		c-2.4,0-4.2-1-5.4-2.9c-1.2-2-1.8-4.6-1.8-7.9s0.6-5.9,1.8-7.8C119.7,1,121.5,0,123.9,0z M123.9,1.7c-1.6,0-3,0.8-3.9,2.5
		c-0.9,1.6-1.4,3.8-1.4,6.6s0.5,4.9,1.4,6.6c0.9,1.6,2.2,2.5,3.9,2.5s3-0.8,3.9-2.5c0.9-1.6,1.4-3.8,1.4-6.6s-0.5-4.9-1.4-6.6
		C126.9,2.5,125.6,1.7,123.9,1.7z"/>
	<path class="st0" d="M139.6,0.2h0.5v21h-1.9V3.4l-3.5,2.2V3.3L139.6,0.2z"/>
	<path class="st0" d="M146.9,15.4c0.4,2.9,1.8,4.4,4.3,4.4c3,0,4.6-2,4.6-5.4c0-3.6-1.7-5.4-4.6-5.4c-1.8,0-3.2,0.9-4.3,2.8
		l-1.3-0.3l1.1-11.3h9.8v1.7h-8.1l-0.8,7.1c1.1-1.2,2.3-1.7,3.8-1.7c3.9,0,6.3,2.7,6.3,7.1c0,2.1-0.6,3.8-1.7,5.1
		c-1.2,1.3-2.7,2-4.7,2c-3.3,0-5.7-2-6.1-5.8L146.9,15.4z"/>
</g>
</svg>
