<!-- Generator: Adobe Illustrator 19.0.1, SVG Export Plug-In  -->
<svg version="1.1"
	 xmlns="http://www.w3.org/2000/svg" xmlns:xlink="http://www.w3.org/1999/xlink" xmlns:a="http://ns.adobe.com/AdobeSVGViewerExtensions/3.0/"
	 x="0px" y="0px" width="461.7px" height="331.7px" viewBox="0 0 461.7 331.7" style="enable-background:new 0 0 461.7 331.7;"
	 xml:space="preserve">
<style type="text/css">
	.st0{fill:#1D1D1B;}
</style>
<defs>
</defs>
<g>
	<g>
		<path class="st0" d="M19.1,6V0.7h41.7V6h-18v55h-5.7V6H19.1z"/>
		<path class="st0" d="M104.1,61h-5.3V31.9c0-6.3-3.2-10-9.1-10c-4.1,0-7.6,1.9-10.4,5.7S75,36.4,75,42.5V61h-5.3V0H75v27.1
			c2.8-6.6,9.2-10.2,15.5-10.2c8.5,0,13.5,5.3,13.5,14.3V61z"/>
		<path class="st0" d="M153.8,39.3H121c0,10.3,5.2,17.4,13.7,17.4c6.6,0,10.2-2.7,13.4-9.3l4.7,2.3c-4.4,8.6-9.8,12-18.1,12
			c-5.8,0-10.4-2.1-14-6.3c-3.5-4.2-5.3-9.7-5.3-16.1s1.8-11.8,5.3-16c3.5-4.2,8.2-6.4,14-6.4c5.6,0,10.2,1.8,13.7,5.5
			s5.3,8.5,5.3,14.5V39.3z M121.4,34.3h26.9c-1-7.7-5.9-12.4-13.5-12.4C127.8,21.9,122.9,27,121.4,34.3z"/>
		<path class="st0" d="M213.5,23.6l-3.8,3.3c-2.5-3.4-5.3-5-8.5-5c-3.8,0-6.4,2.7-6.4,6.6c0,3.2,3.2,5.5,7.2,7.2
			c5.9,2.3,13.4,5.2,13.4,12.5c0,8.4-5.2,13.6-13.4,13.6c-8.5,0-13.7-5.3-15.7-11.9l4.7-2.5c2.2,5.9,5.1,9.4,10.9,9.4
			c5.1,0,7.8-2.9,7.8-7.8c0-3.5-3.2-6.1-7.2-7.6c-5.9-2.3-13.3-4.7-13.3-12.8c0-6.9,5.2-11.6,12.2-11.6
			C206.4,16.9,210.3,19.1,213.5,23.6z"/>
		<path class="st0" d="M262.2,39.3h-32.8c0,10.3,5.2,17.4,13.7,17.4c6.6,0,10.2-2.7,13.4-9.3l4.7,2.3c-4.4,8.6-9.8,12-18.1,12
			c-5.8,0-10.4-2.1-14-6.3c-3.5-4.2-5.3-9.7-5.3-16.1s1.8-11.8,5.3-16c3.5-4.2,8.2-6.4,14-6.4c5.6,0,10.2,1.8,13.7,5.5
			s5.3,8.5,5.3,14.5V39.3z M229.8,34.3h26.9c-1-7.7-5.9-12.4-13.5-12.4C236.2,21.9,231.3,27,229.8,34.3z"/>
		<path class="st0" d="M303.1,61h-4.1l-1.3-6.7c-2.8,4.9-7.4,7.4-13.7,7.4c-7.9,0-13.5-4.2-13.5-13.2c0-9.4,7.5-14.2,20-14.2h7.2
			v-1.9c0-7.2-3.8-10.5-10-10.5c-5.3,0-8.7,2.7-10.3,8.1l-5.2-1.2c1.1-7.2,7.6-11.9,15.5-11.9c4.4,0,8.1,1.4,10.9,4.1
			c2.9,2.7,4.4,6.5,4.4,11.2V61z M284.6,56.7c3.4,0,6.4-1.3,9.1-3.9c2.8-2.6,4.1-6.6,4.1-11.9v-1.6h-7.1c-9.7,0-14.6,3.4-14.6,9.2
			C276.2,53.8,279.4,56.7,284.6,56.7z"/>
		<path class="st0" d="M340,23.6l-3.8,3.3c-2.5-3.4-5.3-5-8.5-5c-3.8,0-6.4,2.7-6.4,6.6c0,3.2,3.2,5.5,7.2,7.2
			c5.9,2.3,13.4,5.2,13.4,12.5c0,8.4-5.2,13.6-13.4,13.6c-8.5,0-13.7-5.3-15.7-11.9l4.7-2.5c2.2,5.9,5.1,9.4,10.9,9.4
			c5.1,0,7.8-2.9,7.8-7.8c0-3.5-3.2-6.1-7.2-7.6c-5.9-2.3-13.3-4.7-13.3-12.8c0-6.9,5.2-11.6,12.2-11.6
			C332.9,16.9,336.9,19.1,340,23.6z"/>
		<path class="st0" d="M350.3,39.3c0-5.9,1.9-11.2,5.6-15.7c3.7-4.5,8.6-6.7,14.7-6.7c6.1,0,11,2.2,14.7,6.7
			c3.7,4.5,5.6,9.7,5.6,15.7s-1.9,11.2-5.6,15.7c-3.7,4.5-8.6,6.7-14.7,6.7c-6.1,0-11-2.2-14.7-6.7
			C352.2,50.5,350.3,45.3,350.3,39.3z M355.9,39.3c0,4.7,1.3,8.8,3.9,12.2c2.7,3.4,6.3,5.2,10.9,5.2c4.6,0,8.2-1.7,10.8-5.2
			c2.7-3.4,4-7.5,4-12.2s-1.3-8.8-4-12.2c-2.6-3.4-6.2-5.2-10.8-5.2c-4.6,0-8.2,1.7-10.9,5.2C357.2,30.5,355.9,34.6,355.9,39.3z"/>
		<path class="st0" d="M436.2,61h-5.3V31.9c0-6.6-2.9-10-8.9-10c-4.1,0-7.4,1.8-10.1,5.5s-4,8.5-4,14.6v19h-5.3V17.6h5.3v9.1
			c3-5.9,8.7-9.7,14.9-9.7c8.3,0,13.4,5.3,13.4,14.3V61z"/>
		<path class="st0" d="M34.4,151H29v-29.1c0-6.3-3.2-10-9.1-10c-4.1,0-7.6,1.9-10.4,5.7c-2.8,3.8-4.2,8.8-4.2,14.9V151H0V90h5.3
			v27.1c2.8-6.6,9.2-10.2,15.5-10.2c8.5,0,13.5,5.3,13.5,14.3V151z"/>
		<path class="st0" d="M78.4,151h-4.1l-1.3-6.7c-2.8,4.9-7.4,7.4-13.7,7.4c-7.9,0-13.5-4.2-13.5-13.2c0-9.4,7.5-14.2,20-14.2h7.2
			v-1.9c0-7.2-3.8-10.5-10-10.5c-5.3,0-8.7,2.7-10.3,8.1l-5.2-1.2c1.1-7.2,7.6-11.9,15.5-11.9c4.4,0,8.1,1.4,10.9,4.1
			c2.9,2.7,4.4,6.5,4.4,11.2V151z M59.9,146.7c3.4,0,6.4-1.3,9.1-3.9c2.8-2.6,4.1-6.6,4.1-11.9v-1.6H66c-9.7,0-14.6,3.4-14.6,9.2
			C51.4,143.8,54.6,146.7,59.9,146.7z"/>
		<path class="st0" d="M115.3,113.6l-3.8,3.3c-2.5-3.4-5.3-5-8.5-5c-3.8,0-6.4,2.7-6.4,6.6c0,3.2,3.2,5.5,7.2,7.2
			c5.9,2.3,13.4,5.2,13.4,12.5c0,8.4-5.2,13.6-13.4,13.6c-8.5,0-13.7-5.3-15.7-11.9l4.7-2.5c2.2,5.9,5.1,9.4,10.9,9.4
			c5.1,0,7.8-2.9,7.8-7.8c0-3.5-3.2-6.1-7.2-7.6c-5.9-2.3-13.3-4.7-13.3-12.8c0-6.9,5.2-11.6,12.2-11.6
			C108.1,106.9,112.1,109.1,115.3,113.6z"/>
		<path class="st0" d="M187.2,139.7c-3,8-8.9,12-17.5,12c-6,0-10.8-2.2-14.1-6.6s-5.1-9.7-5.1-15.9s1.7-11.4,5.1-15.8
			s8.1-6.6,14.1-6.6c8.6,0,14.5,4,17.5,12l-4.8,1.9c-2.4-5.9-6.6-8.9-12.7-8.9c-4.4,0-7.8,1.6-10.2,5c-2.3,3.3-3.4,7.4-3.4,12.4
			s1.1,9.1,3.4,12.5c2.3,3.3,5.8,4.9,10.2,4.9c6,0,10.3-2.9,12.7-8.9L187.2,139.7z"/>
		<path class="st0" d="M232.5,151h-5.3v-29.1c0-6.3-3.2-10-9.1-10c-4.1,0-7.6,1.9-10.4,5.7s-4.2,8.8-4.2,14.9V151h-5.3V90h5.3v27.1
			c2.8-6.6,9.2-10.2,15.5-10.2c8.5,0,13.5,5.3,13.5,14.3V151z"/>
		<path class="st0" d="M276.5,151h-4.1l-1.3-6.7c-2.8,4.9-7.4,7.4-13.7,7.4c-7.9,0-13.5-4.2-13.5-13.2c0-9.4,7.5-14.2,20-14.2h7.2
			v-1.9c0-7.2-3.8-10.5-10-10.5c-5.3,0-8.7,2.7-10.3,8.1l-5.2-1.2c1.1-7.2,7.6-11.9,15.5-11.9c4.4,0,8.1,1.4,10.9,4.1
			c2.9,2.7,4.4,6.5,4.4,11.2V151z M258,146.7c3.4,0,6.4-1.3,9.1-3.9c2.8-2.6,4.1-6.6,4.1-11.9v-1.6h-7.1c-9.7,0-14.6,3.4-14.6,9.2
			C249.5,143.8,252.7,146.7,258,146.7z"/>
		<path class="st0" d="M323.6,151h-5.3v-29.1c0-6.6-2.9-10-8.9-10c-4.1,0-7.4,1.8-10.1,5.5s-4,8.5-4,14.6v19H290v-43.4h5.3v9.1
			c3-5.9,8.7-9.7,14.9-9.7c8.3,0,13.4,5.3,13.4,14.3V151z"/>
		<path class="st0" d="M341.9,110.9c2.8-2.7,6.3-4.1,10.5-4.1c2.7,0,5.2,0.7,7.5,2l7.8-4.4l2.5,4.6l-6,3.4c2,2.6,3,5.6,3,9.1
			c0,4.4-1.4,7.9-4.2,10.6c-2.8,2.7-6.3,4-10.5,4c-3.1,0-5.8-0.7-8.1-2.1c-2.3,1-3.5,2.7-3.5,4.8c0,2.8,1.8,4.1,5.3,4.1h11.2
			c7.9,0,13,3.7,13,11.4c0,10.3-7.1,15-17.8,15c-11,0-17.9-5.3-17.9-14.3c0-3.9,1.5-6.9,4.5-9.1c-2.3-1.4-3.4-3.7-3.4-7.1
			c0-3.4,2.2-6.3,5.3-7.8c-2.2-2.7-3.3-5.9-3.3-9.6C337.7,117.2,339.1,113.6,341.9,110.9z M347.9,147.6c-1.6,0-2.9-0.1-4.2-0.3
			c-2.6,1.6-3.9,4.3-3.9,7.8c0,5.8,4.4,9.3,12.8,9.3c8.2,0,12.7-3.9,12.7-9.5c0-4.9-2.8-7.4-8.4-7.4H347.9z M343.1,121.5
			c0,3,0.9,5.4,2.7,7.2c1.8,1.8,4.1,2.7,6.7,2.7c2.7,0,4.8-0.9,6.6-2.7c1.8-1.8,2.8-4.2,2.8-7.2c0-3-0.9-5.4-2.8-7.2s-4-2.7-6.6-2.7
			c-2.7,0-4.9,0.9-6.7,2.7C343.9,116,343.1,118.4,343.1,121.5z"/>
		<path class="st0" d="M414.6,129.3h-32.8c0,10.3,5.2,17.4,13.7,17.4c6.6,0,10.2-2.7,13.4-9.3l4.7,2.3c-4.4,8.6-9.8,12-18.1,12
			c-5.8,0-10.4-2.1-14-6.3s-5.3-9.7-5.3-16.1s1.8-11.8,5.3-16s8.2-6.4,14-6.4c5.6,0,10.2,1.8,13.7,5.5c3.5,3.7,5.3,8.5,5.3,14.5
			V129.3z M382.1,124.3H409c-1-7.7-5.9-12.4-13.5-12.4C388.5,111.9,383.6,117,382.1,124.3z"/>
		<path class="st0" d="M456.2,90h5.5v61h-5.5v-5.7c-2.3,3.4-8,6.4-13.5,6.4c-6.1,0-10.9-2.1-14.3-6.3c-3.4-4.2-5.1-9.7-5.1-16.1
			s1.7-11.8,5.1-16c3.4-4.2,8.2-6.4,14.3-6.4c4.7,0,10.4,2.8,13.5,6.8V90z M443,146.7c9,0,14-7.2,14-17.4c0-5.1-1.2-9.2-3.7-12.5
			c-2.4-3.3-5.9-4.9-10.3-4.9c-4.4,0-7.8,1.6-10.3,4.9c-2.5,3.3-3.7,7.4-3.7,12.5C428.9,139.6,434,146.7,443,146.7z"/>
		<path class="st0" d="M141.4,241h-4.1l-1.3-6.7c-2.8,4.9-7.4,7.4-13.7,7.4c-7.9,0-13.5-4.2-13.5-13.2c0-9.4,7.5-14.2,20-14.2h7.2
			v-1.9c0-7.2-3.8-10.5-10-10.5c-5.3,0-8.7,2.7-10.3,8.1l-5.2-1.2c1.1-7.2,7.6-11.9,15.5-11.9c4.4,0,8.1,1.4,10.9,4.1
			c2.9,2.7,4.4,6.5,4.4,11.2V241z M122.8,236.7c3.4,0,6.4-1.3,9.1-3.9c2.8-2.6,4.1-6.6,4.1-11.9v-1.6H129c-9.7,0-14.6,3.4-14.6,9.2
			C114.4,233.8,117.6,236.7,122.8,236.7z"/>
		<path class="st0" d="M188.5,241h-5.3v-29.1c0-6.6-2.9-10-8.9-10c-4.1,0-7.4,1.8-10.1,5.5c-2.7,3.7-4,8.5-4,14.6v19h-5.3v-43.4h5.3
			v9.1c3-5.9,8.7-9.7,14.9-9.7c8.3,0,13.4,5.3,13.4,14.3V241z"/>
		<path class="st0" d="M233,180h5.5v61H233v-5.7c-2.3,3.4-8,6.4-13.5,6.4c-6.1,0-10.9-2.1-14.3-6.3c-3.4-4.2-5.1-9.7-5.1-16.1
			s1.7-11.8,5.1-16c3.4-4.2,8.2-6.4,14.3-6.4c4.7,0,10.4,2.8,13.5,6.8V180z M219.7,236.7c9,0,14-7.2,14-17.4c0-5.1-1.2-9.2-3.7-12.5
			c-2.4-3.3-5.9-4.9-10.3-4.9s-7.8,1.6-10.3,4.9c-2.5,3.3-3.7,7.4-3.7,12.5C205.6,229.6,210.7,236.7,219.7,236.7z"/>
		<path class="st0" d="M302.1,203.6l-3.8,3.3c-2.5-3.4-5.3-5-8.5-5c-3.8,0-6.4,2.7-6.4,6.6c0,3.2,3.2,5.5,7.2,7.2
			c5.9,2.3,13.4,5.2,13.4,12.5c0,8.4-5.2,13.6-13.4,13.6c-8.5,0-13.7-5.3-15.7-11.9l4.7-2.5c2.2,5.9,5.1,9.4,10.9,9.4
			c5.1,0,7.8-2.9,7.8-7.8c0-3.5-3.2-6.1-7.2-7.6c-5.9-2.3-13.3-4.7-13.3-12.8c0-6.9,5.2-11.6,12.2-11.6
			C294.9,196.9,298.9,199.1,302.1,203.6z"/>
		<path class="st0" d="M312.4,219.3c0-5.9,1.9-11.2,5.6-15.7c3.7-4.5,8.6-6.7,14.7-6.7c6.1,0,11,2.2,14.7,6.7
			c3.7,4.5,5.6,9.7,5.6,15.7s-1.9,11.2-5.6,15.7c-3.7,4.5-8.6,6.7-14.7,6.7c-6.1,0-11-2.2-14.7-6.7
			C314.2,230.5,312.4,225.3,312.4,219.3z M318,219.3c0,4.7,1.3,8.8,3.9,12.2c2.7,3.4,6.3,5.2,10.9,5.2c4.6,0,8.2-1.7,10.8-5.2
			c2.7-3.4,4-7.5,4-12.2s-1.3-8.8-4-12.2c-2.6-3.4-6.2-5.2-10.8-5.2c-4.6,0-8.2,1.7-10.9,5.2C319.2,210.5,318,214.6,318,219.3z"/>
		<path class="st0" d="M120.3,331h-5.3v-29.1c0-6.3-3.2-10-9.1-10c-4.1,0-7.6,1.9-10.4,5.7c-2.8,3.8-4.2,8.8-4.2,14.9V331h-5.3v-61
			h5.3v27.1c2.8-6.6,9.2-10.2,15.5-10.2c8.5,0,13.5,5.3,13.5,14.3V331z"/>
		<path class="st0" d="M164.3,331h-4.1l-1.3-6.7c-2.8,4.9-7.4,7.4-13.7,7.4c-7.9,0-13.5-4.2-13.5-13.2c0-9.4,7.5-14.2,20-14.2h7.2
			v-1.9c0-7.2-3.8-10.5-10-10.5c-5.3,0-8.7,2.7-10.3,8.1l-5.2-1.2c1.1-7.2,7.6-11.9,15.5-11.9c4.4,0,8.1,1.4,10.9,4.1
			c2.9,2.7,4.4,6.5,4.4,11.2V331z M145.8,326.7c3.4,0,6.4-1.3,9.1-3.9c2.8-2.6,4.1-6.6,4.1-11.9v-1.6h-7.1c-9.7,0-14.6,3.4-14.6,9.2
			C137.3,323.8,140.5,326.7,145.8,326.7z"/>
		<path class="st0" d="M200.5,287.6h5.6L191.5,331h-5.9l-14.7-43.4h5.6l12,36.3L200.5,287.6z"/>
		<path class="st0" d="M249,309.3h-32.8c0,10.3,5.2,17.4,13.7,17.4c6.6,0,10.2-2.7,13.4-9.3l4.7,2.3c-4.4,8.6-9.8,12-18.1,12
			c-5.8,0-10.4-2.1-14-6.3c-3.5-4.2-5.3-9.7-5.3-16.1s1.8-11.8,5.3-16c3.5-4.2,8.2-6.4,14-6.4c5.6,0,10.2,1.8,13.7,5.5
			s5.3,8.5,5.3,14.5V309.3z M216.6,304.3h26.9c-1-7.7-5.9-12.4-13.5-12.4C223,291.9,218.1,297,216.6,304.3z"/>
		<path class="st0" d="M329.8,287.6h5.6l-13,43.4h-5.5l-9.1-35.5l-9.1,35.5h-5.5l-13-43.4h5.6l10.2,35.9l9.1-35.9h5.3l9.1,35.9
			L329.8,287.6z"/>
		<path class="st0" d="M379.7,309.3H347c0,10.3,5.2,17.4,13.7,17.4c6.6,0,10.2-2.7,13.4-9.3l4.7,2.3c-4.4,8.6-9.8,12-18.1,12
			c-5.8,0-10.4-2.1-14-6.3s-5.3-9.7-5.3-16.1s1.8-11.8,5.3-16s8.2-6.4,14-6.4c5.6,0,10.2,1.8,13.7,5.5s5.3,8.5,5.3,14.5V309.3z
			 M347.3,304.3h26.9c-1-7.7-5.9-12.4-13.5-12.4C353.7,291.9,348.8,297,347.3,304.3z"/>
	</g>
</g>
</svg>
