<!-- Generator: Adobe Illustrator 19.0.1, SVG Export Plug-In  -->
<svg version="1.1"
	 xmlns="http://www.w3.org/2000/svg" xmlns:xlink="http://www.w3.org/1999/xlink" xmlns:a="http://ns.adobe.com/AdobeSVGViewerExtensions/3.0/"
	 x="0px" y="0px" width="432.1px" height="581.2px" viewBox="0 0 432.1 581.2" style="enable-background:new 0 0 432.1 581.2;"
	 xml:space="preserve">
<style type="text/css">
	.st0{fill:#231F20;}
</style>
<defs>
</defs>
<g>
	<g>
		<path d="M166.2,0c0,10.9,0,21.8,0,32.8c-2.5,1.7-5.2,0.4-8.4,0.9c0-11.6,0-22.7,0-33.7C160.6,0,163.4,0,166.2,0z"/>
		<path d="M157.8,322.8c0-11.1,0-22.1,0-33.5c3,0,5.5,0,8.4,0c0,11.4,0,22.4,0,33.5C163.4,322.8,160.6,322.8,157.8,322.8z"/>
		<path d="M0,156.6c9.3,0,18.6,0,28.2,0c0,3.2,0,5.7,0,9c-9.3,0.2-18.8,0.4-28.2,0.6C0,163,0,159.8,0,156.6z"/>
		<path d="M230.7,270.8c5.5,9.4,10.7,18.3,16.1,27.6c-2.6,1.6-4.9,2.9-7.7,4.6c-5.5-9.5-10.7-18.5-16.2-28
			C225.6,273.7,227.8,272.4,230.7,270.8z"/>
		<path d="M230.8,51.8c-2.8-1.5-5-2.7-7.8-4.3c5.4-9.3,10.6-18.3,16.1-27.9c2.7,1.5,5,2.8,7.7,4.4C241.5,33.4,236.3,42.2,230.8,51.8
			z"/>
		<path d="M84.9,303.1c-2.9-1.8-5.1-3.1-7.6-4.6c5.4-9.3,10.5-18.1,16-27.5c2.7,1.4,5,2.6,7.9,4.1C95.7,284.6,90.4,293.6,84.9,303.1
			z"/>
		<path d="M101.1,47.4c-2.8,1.6-4.9,2.8-7.2,4.1c-3.9-3.9-5.7-9-8.5-13.4c-2.8-4.3-5.2-8.9-8.1-14c2.4-1.4,4.7-2.8,7.7-4.5
			C90.3,28.9,95.6,37.9,101.1,47.4z"/>
		<path d="M295.7,165.6c0-3.1,0-5.4,0-7.8c4-1.2,20-1.5,28-0.5c0.1,1.2,0.3,2.6,0.3,3.9c0,1.3-0.2,2.7-0.3,4.3
			C314.4,165.6,305.4,165.6,295.7,165.6z"/>
		<path d="M300,245.7c-9-5.2-17.1-9.9-25.7-14.9c1.7-2.7,3-4.8,4.6-7.5c8.5,4.9,16.8,9.6,25.6,14.6C303,240.7,301.6,242.9,300,245.7
			z"/>
		<path d="M300.1,76.9c1.5,2.7,2.8,4.9,4.4,7.7c-8.6,4.9-16.9,9.7-25.4,14.6c-1.5-2.4-2.9-4.6-4.5-7c3.6-3.7,8.3-5.3,12.4-7.8
			C291,81.9,295.2,79.7,300.1,76.9z"/>
		<path d="M19.6,238.1c8.5-4.9,16.6-9.7,25.4-14.7c1.5,2.3,2.9,4.6,4.7,7.3c-8.3,5.4-16.8,9.8-25.6,15
			C22.6,243.2,21.3,240.9,19.6,238.1z"/>
		<path d="M49.9,91.8c-1.9,2.9-3.2,5-4.8,7.5c-8.4-4.8-16.6-9.6-25.4-14.6c1.5-2.7,2.8-5,4.4-7.7C32.8,82,41,86.7,49.9,91.8z"/>
	</g>
	<path d="M227.8,581.2c-91.6,0-166.2-74.6-166.2-166.2s74.6-166.2,166.2-166.2S394,323.4,394,415S319.4,581.2,227.8,581.2z
		 M227.8,256.2C140.2,256.2,69,327.5,69,415s71.2,158.8,158.8,158.8S386.6,502.6,386.6,415S315.3,256.2,227.8,256.2z"/>
	<rect x="138.1" y="464.6" transform="matrix(0.8785 0.4777 -0.4777 0.8785 250.5652 -48.7975)" width="166.2" height="7.4"/>
	<rect x="385.2" y="146.5" transform="matrix(0.7337 0.6795 -0.6795 0.7337 241.6322 -211.213)" width="10.2" height="112.2"/>
	<circle cx="304.5" cy="324.9" r="10.6"/>
	<path d="M162,241.4c-15.2,0-27.6-12.4-27.6-27.6c0-15.2,12.4-27.6,27.6-27.6s27.6,12.4,27.6,27.6C189.6,229,177.2,241.4,162,241.4z
		 M162,193.6c-11.1,0-20.2,9-20.2,20.2c0,11.1,9,20.2,20.2,20.2c11.1,0,20.2-9,20.2-20.2C182.2,202.7,173.1,193.6,162,193.6z"/>
	<g>
		<path class="st0" d="M172.4,111.6c-1.6-3.1-3.7-4.7-6.2-4.7c-2.5,0-4.3,1.7-4.3,4.1c0,2.8,3.1,4.9,6.7,6.6
			c5.4,2.4,12.5,5.7,12.4,13.4c0,8.7-5.6,13.9-14.3,13.9c-3.9,0-7.3-1.2-10.1-3.6c-2.8-2.4-4.6-5.4-5.3-8.9l6.7-4.2
			c1.7,6.1,4.7,9.1,8.9,9.1c3.9,0,5.8-1.9,5.8-5.8c0-2.6-2.9-4.7-6.6-6.3c-5.3-2.2-12.2-5.6-12.1-13.9c0-3.4,1.1-6.3,3.4-8.6
			c2.4-2.4,5.2-3.5,8.8-3.5c6.1,0,10.3,2.7,12.9,8.1L172.4,111.6z"/>
	</g>
</g>
</svg>
