<!-- Generator: Adobe Illustrator 19.0.1, SVG Export Plug-In  -->
<svg version="1.1"
	 xmlns="http://www.w3.org/2000/svg" xmlns:xlink="http://www.w3.org/1999/xlink" xmlns:a="http://ns.adobe.com/AdobeSVGViewerExtensions/3.0/"
	 x="0px" y="0px" width="111.3px" height="15.2px" viewBox="0 0 111.3 15.2" style="enable-background:new 0 0 111.3 15.2;"
	 xml:space="preserve">
<style type="text/css">
	.st0{fill:#1D1D1B;}
</style>
<defs>
</defs>
<g>
	<path class="st0" d="M0,15v-0.5l5.4-7c0.7-0.9,1.1-1.5,1.3-2c0.2-0.5,0.3-1,0.3-1.6c0-1.7-1-2.7-2.6-2.7c-1.5,0-2.6,1.2-2.9,3
		L0.3,3.9c0.1-1.2,0.6-2.1,1.3-2.8S3.3,0,4.4,0c2.4,0,4,1.5,4,3.9c0,1.1-0.6,2.5-1.8,4l-4.5,5.9h6.7V15H0z"/>
	<path class="st0" d="M16.4,0c1.7,0,2.9,0.7,3.8,2.1c0.9,1.4,1.3,3.2,1.3,5.5s-0.4,4.2-1.3,5.5c-0.9,1.4-2.1,2-3.8,2
		c-1.7,0-2.9-0.7-3.8-2c-0.9-1.4-1.3-3.2-1.3-5.5s0.4-4.2,1.3-5.5C13.5,0.7,14.7,0,16.4,0z M16.4,1.2c-1.2,0-2.1,0.6-2.8,1.8
		c-0.7,1.2-1,2.7-1,4.6s0.3,3.5,1,4.6c0.7,1.2,1.6,1.8,2.8,1.8s2.1-0.6,2.8-1.8c0.7-1.2,1-2.7,1-4.6s-0.3-3.5-1-4.6
		C18.5,1.8,17.6,1.2,16.4,1.2z"/>
	<path class="st0" d="M29.6,0c1.7,0,2.9,0.7,3.8,2.1c0.9,1.4,1.3,3.2,1.3,5.5s-0.4,4.2-1.3,5.5c-0.9,1.4-2.1,2-3.8,2
		c-1.7,0-2.9-0.7-3.8-2c-0.9-1.4-1.3-3.2-1.3-5.5s0.4-4.2,1.3-5.5C26.7,0.7,27.9,0,29.6,0z M29.6,1.2c-1.2,0-2.1,0.6-2.8,1.8
		c-0.7,1.2-1,2.7-1,4.6s0.3,3.5,1,4.6c0.7,1.2,1.6,1.8,2.8,1.8c1.2,0,2.1-0.6,2.8-1.8c0.7-1.2,1-2.7,1-4.6s-0.3-3.5-1-4.6
		C31.7,1.8,30.8,1.2,29.6,1.2z"/>
	<path class="st0" d="M38.9,10.9c0.3,2.1,1.3,3.1,3,3.1c2.1,0,3.2-1.4,3.2-3.8c0-2.5-1.2-3.8-3.2-3.8c-1.2,0-2.3,0.7-3,2L38,8.1
		l0.8-8h6.9v1.2h-5.7l-0.5,5c0.8-0.8,1.7-1.2,2.7-1.2c2.7,0,4.4,1.9,4.4,5c0,1.5-0.4,2.7-1.2,3.6c-0.8,0.9-1.9,1.4-3.3,1.4
		c-2.4,0-4-1.4-4.3-4.1L38.9,10.9z"/>
	<path class="st0" d="M55.3,8.9V7.7h7v1.2H55.3z"/>
	<path class="st0" d="M71.1,15v-0.5l5.4-7c0.7-0.9,1.1-1.5,1.3-2c0.2-0.5,0.3-1,0.3-1.6c0-1.7-1-2.7-2.6-2.7c-1.5,0-2.6,1.2-2.9,3
		l-1.2-0.2c0.1-1.2,0.6-2.1,1.3-2.8S74.4,0,75.5,0c2.4,0,4,1.5,4,3.9c0,1.1-0.6,2.5-1.8,4l-4.5,5.9h6.7V15H71.1z"/>
	<path class="st0" d="M87.5,0c1.7,0,2.9,0.7,3.8,2.1c0.9,1.4,1.3,3.2,1.3,5.5s-0.4,4.2-1.3,5.5c-0.9,1.4-2.1,2-3.8,2
		c-1.7,0-2.9-0.7-3.8-2c-0.9-1.4-1.3-3.2-1.3-5.5s0.4-4.2,1.3-5.5C84.5,0.7,85.8,0,87.5,0z M87.5,1.2c-1.2,0-2.1,0.6-2.8,1.8
		c-0.7,1.2-1,2.7-1,4.6s0.3,3.5,1,4.6c0.7,1.2,1.6,1.8,2.8,1.8c1.2,0,2.1-0.6,2.8-1.8c0.7-1.2,1-2.7,1-4.6s-0.3-3.5-1-4.6
		C89.6,1.8,88.6,1.2,87.5,1.2z"/>
	<path class="st0" d="M98.6,0.2h0.3V15h-1.3V2.4L95.2,4V2.4L98.6,0.2z"/>
	<path class="st0" d="M103.7,10.9c0.3,2.1,1.3,3.1,3,3.1c2.1,0,3.2-1.4,3.2-3.8c0-2.5-1.2-3.8-3.2-3.8c-1.2,0-2.3,0.7-3,2l-0.9-0.2
		l0.8-8h6.9v1.2h-5.7l-0.5,5c0.8-0.8,1.7-1.2,2.7-1.2c2.7,0,4.4,1.9,4.4,5c0,1.5-0.4,2.7-1.2,3.6c-0.8,0.9-1.9,1.4-3.3,1.4
		c-2.4,0-4-1.4-4.3-4.1L103.7,10.9z"/>
</g>
</svg>
