<!-- Generator: Adobe Illustrator 19.0.1, SVG Export Plug-In  -->
<svg version="1.1"
	 xmlns="http://www.w3.org/2000/svg" xmlns:xlink="http://www.w3.org/1999/xlink" xmlns:a="http://ns.adobe.com/AdobeSVGViewerExtensions/3.0/"
	 x="0px" y="0px" width="95.4px" height="19.3px" viewBox="0 0 95.4 19.3" style="enable-background:new 0 0 95.4 19.3;"
	 xml:space="preserve">
<style type="text/css">
	.st0{fill:#1D1D1B;}
</style>
<defs>
</defs>
<g>
	<g>
		<path class="st0" d="M6.7,5.8L5.8,6.6C5.1,5.8,4.4,5.4,3.7,5.4C2.7,5.4,2.1,6,2.1,7c0,0.8,0.8,1.4,1.8,1.8
			c1.4,0.6,3.3,1.3,3.3,3.1c0,2.1-1.3,3.3-3.3,3.3c-2.1,0-3.4-1.3-3.9-2.9l1.2-0.6c0.5,1.5,1.2,2.3,2.7,2.3c1.2,0,1.9-0.7,1.9-1.9
			c0-0.9-0.8-1.5-1.8-1.9C2.6,9.6,0.7,9,0.7,7c0-1.7,1.3-2.9,3-2.9C4.9,4.2,5.9,4.7,6.7,5.8z"/>
		<path class="st0" d="M9.1,5.5V4.3H11V0.9L12.3,0v4.3h2.8v1.2h-2.8v6.6c0,1.2,0.5,1.8,1.5,1.8c0.5,0,1-0.1,1.3-0.3l0.4,1.2
			c-0.5,0.3-1.1,0.4-1.9,0.4C12,15.2,11,14.1,11,12V5.5H9.1z"/>
		<path class="st0" d="M25.5,15h-1l-0.3-1.7c-0.7,1.2-1.8,1.8-3.4,1.8c-1.9,0-3.3-1-3.3-3.2c0-2.3,1.8-3.5,4.9-3.5h1.8V8
			c0-1.8-0.9-2.6-2.5-2.6c-1.3,0-2.1,0.7-2.5,2l-1.3-0.3c0.3-1.8,1.9-2.9,3.8-2.9c1.1,0,2,0.3,2.7,1c0.7,0.7,1.1,1.6,1.1,2.8V15z
			 M20.9,13.9c0.8,0,1.6-0.3,2.2-1c0.7-0.6,1-1.6,1-2.9V9.7h-1.7c-2.4,0-3.6,0.8-3.6,2.3C18.9,13.2,19.7,13.9,20.9,13.9z"/>
		<path class="st0" d="M34.9,4.3h1.4l-5.3,15h-1.3l1.5-4.4L27.3,4.3h1.4l3.2,8.6L34.9,4.3z"/>
		<path class="st0" d="M38.6,4.3h1.3v7.2c0,1.6,0.7,2.5,2.2,2.5c1,0,1.8-0.4,2.5-1.4c0.7-0.9,1-2.1,1-3.6V4.3h1.3V15h-1.3v-2.2
			c-0.7,1.4-2.1,2.4-3.7,2.4c-2,0-3.3-1.3-3.3-3.5V4.3z"/>
		<path class="st0" d="M52.1,19.3h-1.4v-15h1.4v1.4c0.6-0.8,2-1.6,3.3-1.6c1.5,0,2.7,0.5,3.5,1.6c0.8,1,1.3,2.4,1.3,3.9
			s-0.4,2.9-1.3,4c-0.8,1-2,1.5-3.5,1.5c-1.2,0-2.6-0.7-3.3-1.7V19.3z M55.4,5.4c-2.2,0-3.4,1.8-3.4,4.3c0,1.2,0.3,2.3,0.9,3.1
			c0.6,0.8,1.5,1.2,2.5,1.2c1.1,0,1.9-0.4,2.5-1.2c0.6-0.8,0.9-1.8,0.9-3.1C58.8,7.1,57.6,5.4,55.4,5.4z"/>
		<path class="st0" d="M63.4,0h1.3v15h-1.3V0z"/>
		<path class="st0" d="M75.9,15h-1l-0.3-1.7c-0.7,1.2-1.8,1.8-3.4,1.8c-1.9,0-3.3-1-3.3-3.2c0-2.3,1.8-3.5,4.9-3.5h1.8V8
			c0-1.8-0.9-2.6-2.5-2.6c-1.3,0-2.1,0.7-2.5,2l-1.3-0.3c0.3-1.8,1.9-2.9,3.8-2.9c1.1,0,2,0.3,2.7,1c0.7,0.7,1.1,1.6,1.1,2.8V15z
			 M71.3,13.9c0.8,0,1.6-0.3,2.2-1c0.7-0.6,1-1.6,1-2.9V9.7h-1.7c-2.4,0-3.6,0.8-3.6,2.3C69.3,13.2,70.1,13.9,71.3,13.9z"/>
		<path class="st0" d="M78,5.5V4.3h1.9V0.9L81.2,0v4.3H84v1.2h-2.8v6.6c0,1.2,0.5,1.8,1.5,1.8c0.5,0,1-0.1,1.3-0.3l0.4,1.2
			c-0.5,0.3-1.1,0.4-1.9,0.4c-1.6,0-2.7-1.1-2.7-3.2V5.5H78z"/>
		<path class="st0" d="M95.4,9.7h-8c0,2.5,1.3,4.3,3.4,4.3c1.6,0,2.5-0.7,3.3-2.3l1.2,0.6c-1.1,2.1-2.4,2.9-4.4,2.9
			c-1.4,0-2.6-0.5-3.4-1.5c-0.9-1-1.3-2.4-1.3-4s0.4-2.9,1.3-3.9c0.9-1,2-1.6,3.4-1.6c1.4,0,2.5,0.4,3.4,1.4s1.3,2.1,1.3,3.6V9.7z
			 M87.4,8.4H94c-0.3-1.9-1.4-3-3.3-3C89,5.4,87.8,6.6,87.4,8.4z"/>
	</g>
</g>
</svg>
